ISO-10303-21;
HEADER;
FILE_DESCRIPTION (( 'STEP AP214' ),
    '1' );
FILE_NAME ('sanjiao.STEP',
    '2026-07-30T04:11:14',
    ( '' ),
    ( '' ),
    'SwSTEP 2.0',
    'SolidWorks 2020',
    '' );
FILE_SCHEMA (( 'AUTOMOTIVE_DESIGN' ));
ENDSEC;

DATA;
#1 = CARTESIAN_POINT ( 'NONE',  ( -28.00000000000000000, -3.429011037612589276E-15, 0.000000000000000000 ) ) ;
#2 = CARTESIAN_POINT ( 'NONE',  ( 0.000000000000000000, 0.000000000000000000, 0.000000000000000000 ) ) ;
#3 = SURFACE_SIDE_STYLE ('',( #61 ) ) ;
#4 = CARTESIAN_POINT ( 'NONE',  ( -28.00000000000000000, -3.429011037612589276E-15, 5.000000000000000000 ) ) ;
#5 = EDGE_CURVE ( 'NONE', #142, #23, #30, .T. ) ;
#6 = DIRECTION ( 'NONE',  ( -1.000000000000000000, 0.000000000000000000, -0.000000000000000000 ) ) ;
#7 = VECTOR ( 'NONE', #72, 1000.000000000000000 ) ;
#8 = CARTESIAN_POINT ( 'NONE',  ( 0.000000000000000000, 0.000000000000000000, 0.000000000000000000 ) ) ;
#9 = PRODUCT_DEFINITION_SHAPE ( 'NONE', 'NONE',  #91 ) ;
#10 = CARTESIAN_POINT ( 'NONE',  ( -28.00000000000000000, -3.429011037612589276E-15, 5.000000000000000000 ) ) ;
#11 = CARTESIAN_POINT ( 'NONE',  ( 0.000000000000000000, 0.000000000000000000, 5.000000000000000000 ) ) ;
#12 = LINE ( 'NONE', #10, #126 ) ;
#13 = PRESENTATION_LAYER_ASSIGNMENT (  '', '', ( #84 ) ) ;
#14 = LINE ( 'NONE', #150, #67 ) ;
#15 = FILL_AREA_STYLE ('',( #78 ) ) ;
#16 = PLANE ( 'NONE',  #47 ) ;
#17 = STYLED_ITEM ( 'NONE', ( #35 ), #113 ) ;
#18 = EDGE_CURVE ( 'NONE', #142, #34, #76, .T. ) ;
#19 = CARTESIAN_POINT ( 'NONE',  ( 0.000000000000000000, 0.000000000000000000, 5.000000000000000000 ) ) ;
#20 = CARTESIAN_POINT ( 'NONE',  ( 0.000000000000000000, 0.000000000000000000, 5.000000000000000000 ) ) ;
#21 = PRODUCT ( 'sanjiao', 'sanjiao', '', ( #39 ) ) ;
#22 = ORIENTED_EDGE ( 'NONE', *, *, #36, .T. ) ;
#23 = VERTEX_POINT ( 'NONE', #160 ) ;
#24 = CARTESIAN_POINT ( 'NONE',  ( 0.000000000000000000, 33.94112549695427106, 0.000000000000000000 ) ) ;
#25 = AXIS2_PLACEMENT_3D ( 'NONE', #53, #32, #90 ) ;
#26 = EDGE_LOOP ( 'NONE', ( #22, #124, #60, #109 ) ) ;
#27 = SURFACE_STYLE_FILL_AREA ( #28 ) ;
#28 = FILL_AREA_STYLE ('',( #65 ) ) ;
#29 = FACE_OUTER_BOUND ( 'NONE', #87, .T. ) ;
#30 = LINE ( 'NONE', #146, #49 ) ;
#31 = ORIENTED_EDGE ( 'NONE', *, *, #5, .T. ) ;
#32 = DIRECTION ( 'NONE',  ( 0.7713892158398699683, -0.6363636363636364646, 0.000000000000000000 ) ) ;
#33 = ORIENTED_EDGE ( 'NONE', *, *, #69, .T. ) ;
#34 = VERTEX_POINT ( 'NONE', #20 ) ;
#35 = PRESENTATION_STYLE_ASSIGNMENT (( #81 ) ) ;
#36 = EDGE_CURVE ( 'NONE', #97, #23, #120, .T. ) ;
#37 = COLOUR_RGB ( '',1.000000000000000000, 1.000000000000000000, 1.000000000000000000 ) ;
#38 = ORIENTED_EDGE ( 'NONE', *, *, #85, .T. ) ;
#39 = PRODUCT_CONTEXT ( 'NONE', #135, 'mechanical' ) ;
#40 =( GEOMETRIC_REPRESENTATION_CONTEXT ( 3 ) GLOBAL_UNCERTAINTY_ASSIGNED_CONTEXT ( ( #154 ) ) GLOBAL_UNIT_ASSIGNED_CONTEXT ( ( #54, #71, #104 ) ) REPRESENTATION_CONTEXT ( 'NONE', 'WORKASPACE' ) );
#41 = ADVANCED_FACE ( 'NONE', ( #45 ), #77, .F. ) ;
#42 = CARTESIAN_POINT ( 'NONE',  ( 0.000000000000000000, 33.94112549695427106, 5.000000000000000000 ) ) ;
#43 = VECTOR ( 'NONE', #165, 1000.000000000000000 ) ;
#44 = ORIENTED_EDGE ( 'NONE', *, *, #46, .T. ) ;
#45 = FACE_OUTER_BOUND ( 'NONE', #26, .T. ) ;
#46 = EDGE_CURVE ( 'NONE', #34, #161, #116, .T. ) ;
#47 = AXIS2_PLACEMENT_3D ( 'NONE', #95, #138, #164 ) ;
#48 = SURFACE_STYLE_USAGE ( .BOTH. , #3 ) ;
#49 = VECTOR ( 'NONE', #58, 1000.000000000000000 ) ;
#50 =( NAMED_UNIT ( * ) SI_UNIT ( $, .STERADIAN. ) SOLID_ANGLE_UNIT ( ) );
#51 =( GEOMETRIC_REPRESENTATION_CONTEXT ( 3 ) GLOBAL_UNCERTAINTY_ASSIGNED_CONTEXT ( ( #117 ) ) GLOBAL_UNIT_ASSIGNED_CONTEXT ( ( #68, #79, #50 ) ) REPRESENTATION_CONTEXT ( 'NONE', 'WORKASPACE' ) );
#52 = PLANE ( 'NONE',  #63 ) ;
#53 = CARTESIAN_POINT ( 'NONE',  ( -28.00000000000000000, -3.429011037612589276E-15, 5.000000000000000000 ) ) ;
#54 =( LENGTH_UNIT ( ) NAMED_UNIT ( * ) SI_UNIT ( .MILLI., .METRE. ) );
#55 = PRODUCT_RELATED_PRODUCT_CATEGORY ( 'part', '', ( #21 ) ) ;
#56 = EDGE_LOOP ( 'NONE', ( #38, #155, #83, #44 ) ) ;
#57 = DIRECTION ( 'NONE',  ( -0.000000000000000000, -0.000000000000000000, -1.000000000000000000 ) ) ;
#58 = DIRECTION ( 'NONE',  ( -0.000000000000000000, -0.000000000000000000, -1.000000000000000000 ) ) ;
#59 =( GEOMETRIC_REPRESENTATION_CONTEXT ( 3 ) GLOBAL_UNCERTAINTY_ASSIGNED_CONTEXT ( ( #143 ) ) GLOBAL_UNIT_ASSIGNED_CONTEXT ( ( #80, #82, #64 ) ) REPRESENTATION_CONTEXT ( 'NONE', 'WORKASPACE' ) );
#60 = ORIENTED_EDGE ( 'NONE', *, *, #69, .F. ) ;
#61 = SURFACE_STYLE_FILL_AREA ( #15 ) ;
#62 = DIRECTION ( 'NONE',  ( -1.000000000000000000, 0.000000000000000000, -0.000000000000000000 ) ) ;
#63 = AXIS2_PLACEMENT_3D ( 'NONE', #101, #115, #98 ) ;
#64 =( NAMED_UNIT ( * ) SI_UNIT ( $, .STERADIAN. ) SOLID_ANGLE_UNIT ( ) );
#65 = FILL_AREA_STYLE_COLOUR ( '', #37 ) ;
#66 = PLANE ( 'NONE',  #96 ) ;
#67 = VECTOR ( 'NONE', #163, 1000.000000000000000 ) ;
#68 =( LENGTH_UNIT ( ) NAMED_UNIT ( * ) SI_UNIT ( .MILLI., .METRE. ) );
#69 = EDGE_CURVE ( 'NONE', #131, #142, #12, .T. ) ;
#70 = ORIENTED_EDGE ( 'NONE', *, *, #73, .T. ) ;
#71 =( NAMED_UNIT ( * ) PLANE_ANGLE_UNIT ( ) SI_UNIT ( $, .RADIAN. ) );
#72 = DIRECTION ( 'NONE',  ( -0.000000000000000000, -0.000000000000000000, -1.000000000000000000 ) ) ;
#73 = EDGE_CURVE ( 'NONE', #34, #131, #130, .T. ) ;
#74 = EDGE_CURVE ( 'NONE', #131, #97, #168, .T. ) ;
#75 = DIRECTION ( 'NONE',  ( 1.000000000000000000, 1.224646799147353207E-16, -0.000000000000000000 ) ) ;
#76 = LINE ( 'NONE', #92, #129 ) ;
#77 = PLANE ( 'NONE',  #25 ) ;
#78 = FILL_AREA_STYLE_COLOUR ( '', #86 ) ;
#79 =( NAMED_UNIT ( * ) PLANE_ANGLE_UNIT ( ) SI_UNIT ( $, .RADIAN. ) );
#80 =( LENGTH_UNIT ( ) NAMED_UNIT ( * ) SI_UNIT ( .MILLI., .METRE. ) );
#81 = SURFACE_STYLE_USAGE ( .BOTH. , #139 ) ;
#82 =( NAMED_UNIT ( * ) PLANE_ANGLE_UNIT ( ) SI_UNIT ( $, .RADIAN. ) );
#83 = ORIENTED_EDGE ( 'NONE', *, *, #73, .F. ) ;
#84 = STYLED_ITEM ( 'NONE', ( #111 ), #110 ) ;
#85 = EDGE_CURVE ( 'NONE', #161, #97, #121, .T. ) ;
#86 = COLOUR_RGB ( '',1.000000000000000000, 1.000000000000000000, 1.000000000000000000 ) ;
#87 = EDGE_LOOP ( 'NONE', ( #114, #136, #100 ) ) ;
#88 = AXIS2_PLACEMENT_3D ( 'NONE', #8, #102, #118 ) ;
#89 = ORIENTED_EDGE ( 'NONE', *, *, #46, .F. ) ;
#90 = DIRECTION ( 'NONE',  ( 0.6363636363636364646, 0.7713892158398699683, 0.000000000000000000 ) ) ;
#91 = PRODUCT_DEFINITION ( '未知', '', #153, #119 ) ;
#92 = CARTESIAN_POINT ( 'NONE',  ( 0.000000000000000000, 0.000000000000000000, 5.000000000000000000 ) ) ;
#93 = CARTESIAN_POINT ( 'NONE',  ( 0.000000000000000000, 33.94112549695427106, 5.000000000000000000 ) ) ;
#94 = PRESENTATION_LAYER_ASSIGNMENT (  '', '', ( #17 ) ) ;
#95 = CARTESIAN_POINT ( 'NONE',  ( 0.000000000000000000, 33.94112549695427106, 5.000000000000000000 ) ) ;
#96 = AXIS2_PLACEMENT_3D ( 'NONE', #19, #127, #6 ) ;
#97 = VERTEX_POINT ( 'NONE', #24 ) ;
#98 = DIRECTION ( 'NONE',  ( -1.000000000000000000, -1.224646799147353207E-16, 0.000000000000000000 ) ) ;
#99 = EDGE_CURVE ( 'NONE', #23, #161, #14, .T. ) ;
#100 = ORIENTED_EDGE ( 'NONE', *, *, #36, .F. ) ;
#101 = CARTESIAN_POINT ( 'NONE',  ( 0.000000000000000000, 0.000000000000000000, 5.000000000000000000 ) ) ;
#102 = DIRECTION ( 'NONE',  ( 0.000000000000000000, 0.000000000000000000, 1.000000000000000000 ) ) ;
#103 = APPLICATION_PROTOCOL_DEFINITION ( 'draft international standard', 'automotive_design', 1998, #141 ) ;
#104 =( NAMED_UNIT ( * ) SI_UNIT ( $, .STERADIAN. ) SOLID_ANGLE_UNIT ( ) );
#105 = ORIENTED_EDGE ( 'NONE', *, *, #18, .T. ) ;
#106 = EDGE_LOOP ( 'NONE', ( #149, #89, #169, #31 ) ) ;
#107 = DIRECTION ( 'NONE',  ( -0.000000000000000000, 1.000000000000000000, -0.000000000000000000 ) ) ;
#108 = ADVANCED_FACE ( 'NONE', ( #112 ), #16, .F. ) ;
#109 = ORIENTED_EDGE ( 'NONE', *, *, #74, .T. ) ;
#110 = ADVANCED_BREP_SHAPE_REPRESENTATION ( 'sanjiao', ( #113, #88 ), #51 ) ;
#111 = PRESENTATION_STYLE_ASSIGNMENT (( #48 ) ) ;
#112 = FACE_OUTER_BOUND ( 'NONE', #56, .T. ) ;
#113 = MANIFOLD_SOLID_BREP ( '凸台-拉伸1', #167 ) ;
#114 = ORIENTED_EDGE ( 'NONE', *, *, #85, .F. ) ;
#115 = DIRECTION ( 'NONE',  ( -1.224646799147353207E-16, 1.000000000000000000, 0.000000000000000000 ) ) ;
#116 = LINE ( 'NONE', #11, #7 ) ;
#117 = UNCERTAINTY_MEASURE_WITH_UNIT (LENGTH_MEASURE( 1.000000000000000082E-05 ), #68, 'distance_accuracy_value', 'NONE');
#118 = DIRECTION ( 'NONE',  ( 1.000000000000000000, 0.000000000000000000, 0.000000000000000000 ) ) ;
#119 = PRODUCT_DEFINITION_CONTEXT ( 'detailed design', #141, 'design' ) ;
#120 = LINE ( 'NONE', #1, #133 ) ;
#121 = LINE ( 'NONE', #147, #148 ) ;
#122 = MECHANICAL_DESIGN_GEOMETRIC_PRESENTATION_REPRESENTATION (  '', ( #17 ), #59 ) ;
#123 = CARTESIAN_POINT ( 'NONE',  ( 0.000000000000000000, 33.94112549695427106, 5.000000000000000000 ) ) ;
#124 = ORIENTED_EDGE ( 'NONE', *, *, #5, .F. ) ;
#125 = PLANE ( 'NONE',  #140 ) ;
#126 = VECTOR ( 'NONE', #132, 1000.000000000000000 ) ;
#127 = DIRECTION ( 'NONE',  ( 0.000000000000000000, 0.000000000000000000, -1.000000000000000000 ) ) ;
#128 = ADVANCED_FACE ( 'NONE', ( #29 ), #125, .T. ) ;
#129 = VECTOR ( 'NONE', #75, 1000.000000000000000 ) ;
#130 = LINE ( 'NONE', #123, #43 ) ;
#131 = VERTEX_POINT ( 'NONE', #93 ) ;
#132 = DIRECTION ( 'NONE',  ( -0.6363636363636364646, -0.7713892158398698573, -0.000000000000000000 ) ) ;
#133 = VECTOR ( 'NONE', #145, 1000.000000000000000 ) ;
#134 = EDGE_LOOP ( 'NONE', ( #70, #33, #105 ) ) ;
#135 = APPLICATION_CONTEXT ( 'automotive_design' ) ;
#136 = ORIENTED_EDGE ( 'NONE', *, *, #99, .F. ) ;
#137 = FACE_OUTER_BOUND ( 'NONE', #106, .T. ) ;
#138 = DIRECTION ( 'NONE',  ( -1.000000000000000000, 0.000000000000000000, 0.000000000000000000 ) ) ;
#139 = SURFACE_SIDE_STYLE ('',( #27 ) ) ;
#140 = AXIS2_PLACEMENT_3D ( 'NONE', #2, #151, #62 ) ;
#141 = APPLICATION_CONTEXT ( 'automotive_design' ) ;
#142 = VERTEX_POINT ( 'NONE', #4 ) ;
#143 = UNCERTAINTY_MEASURE_WITH_UNIT (LENGTH_MEASURE( 1.000000000000000082E-05 ), #80, 'distance_accuracy_value', 'NONE');
#144 = ADVANCED_FACE ( 'NONE', ( #162 ), #66, .F. ) ;
#145 = DIRECTION ( 'NONE',  ( -0.6363636363636364646, -0.7713892158398698573, -0.000000000000000000 ) ) ;
#146 = CARTESIAN_POINT ( 'NONE',  ( -28.00000000000000000, -3.429011037612589276E-15, 5.000000000000000000 ) ) ;
#147 = CARTESIAN_POINT ( 'NONE',  ( 0.000000000000000000, 33.94112549695427106, 0.000000000000000000 ) ) ;
#148 = VECTOR ( 'NONE', #107, 1000.000000000000000 ) ;
#149 = ORIENTED_EDGE ( 'NONE', *, *, #99, .T. ) ;
#150 = CARTESIAN_POINT ( 'NONE',  ( 0.000000000000000000, 0.000000000000000000, 0.000000000000000000 ) ) ;
#151 = DIRECTION ( 'NONE',  ( 0.000000000000000000, 0.000000000000000000, -1.000000000000000000 ) ) ;
#152 = VECTOR ( 'NONE', #57, 1000.000000000000000 ) ;
#153 = PRODUCT_DEFINITION_FORMATION_WITH_SPECIFIED_SOURCE ( '任何', '', #21, .NOT_KNOWN. ) ;
#154 = UNCERTAINTY_MEASURE_WITH_UNIT (LENGTH_MEASURE( 1.000000000000000082E-05 ), #54, 'distance_accuracy_value', 'NONE');
#155 = ORIENTED_EDGE ( 'NONE', *, *, #74, .F. ) ;
#156 = CARTESIAN_POINT ( 'NONE',  ( 0.000000000000000000, 0.000000000000000000, 0.000000000000000000 ) ) ;
#157 = ADVANCED_FACE ( 'NONE', ( #137 ), #52, .F. ) ;
#158 = MECHANICAL_DESIGN_GEOMETRIC_PRESENTATION_REPRESENTATION (  '', ( #84 ), #40 ) ;
#159 = SHAPE_DEFINITION_REPRESENTATION ( #9, #110 ) ;
#160 = CARTESIAN_POINT ( 'NONE',  ( -28.00000000000000000, -3.429011037612589276E-15, 0.000000000000000000 ) ) ;
#161 = VERTEX_POINT ( 'NONE', #156 ) ;
#162 = FACE_OUTER_BOUND ( 'NONE', #134, .T. ) ;
#163 = DIRECTION ( 'NONE',  ( 1.000000000000000000, 1.224646799147353207E-16, -0.000000000000000000 ) ) ;
#164 = DIRECTION ( 'NONE',  ( 0.000000000000000000, 0.000000000000000000, 1.000000000000000000 ) ) ;
#165 = DIRECTION ( 'NONE',  ( -0.000000000000000000, 1.000000000000000000, -0.000000000000000000 ) ) ;
#166 = APPLICATION_PROTOCOL_DEFINITION ( 'draft international standard', 'automotive_design', 1998, #135 ) ;
#167 = CLOSED_SHELL ( 'NONE', ( #108, #41, #157, #144, #128 ) ) ;
#168 = LINE ( 'NONE', #42, #152 ) ;
#169 = ORIENTED_EDGE ( 'NONE', *, *, #18, .F. ) ;
ENDSEC;
END-ISO-10303-21;
