ISO-10303-21;
HEADER;
FILE_DESCRIPTION (( 'STEP AP214' ),
    '1' );
FILE_NAME ('摄像机支架.STEP',
    '2026-06-01T20:27:07',
    ( '' ),
    ( '' ),
    'SwSTEP 2.0',
    'SolidWorks 2020',
    '' );
FILE_SCHEMA (( 'AUTOMOTIVE_DESIGN' ));
ENDSEC;

DATA;
#1 = EDGE_CURVE ( 'NONE', #194, #161, #15, .T. ) ;
#2 = CARTESIAN_POINT ( 'NONE',  ( 40.00000000000000000, 3.000000000000002665, 2.999999999999995559 ) ) ;
#3 = DIRECTION ( 'NONE',  ( -0.000000000000000000, -0.000000000000000000, -1.000000000000000000 ) ) ;
#4 = AXIS2_PLACEMENT_3D ( 'NONE', #5, #219, #293 ) ;
#5 = CARTESIAN_POINT ( 'NONE',  ( 7.982195587541395021, 0.000000000000000000, -0.001000000000001000089 ) ) ;
#6 = CARTESIAN_POINT ( 'NONE',  ( 0.000000000000000000, 40.00000000000000000, 0.000000000000000000 ) ) ;
#7 = EDGE_CURVE ( 'NONE', #46, #347, #421, .T. ) ;
#8 = DIRECTION ( 'NONE',  ( -0.000000000000000000, -0.000000000000000000, 1.000000000000000000 ) ) ;
#9 = CARTESIAN_POINT ( 'NONE',  ( 32.00000000000000000, 40.00000000000000000, 21.00000000000000000 ) ) ;
#10 = VECTOR ( 'NONE', #213, 1000.000000000000000 ) ;
#11 = ORIENTED_EDGE ( 'NONE', *, *, #443, .F. ) ;
#12 = LINE ( 'NONE', #263, #116 ) ;
#13 = ORIENTED_EDGE ( 'NONE', *, *, #157, .T. ) ;
#14 = CARTESIAN_POINT ( 'NONE',  ( 0.000000000000000000, 3.000000000000000888, 18.00000000000000355 ) ) ;
#15 = LINE ( 'NONE', #342, #431 ) ;
#16 = ORIENTED_EDGE ( 'NONE', *, *, #306, .T. ) ;
#17 = LINE ( 'NONE', #159, #258 ) ;
#18 = VERTEX_POINT ( 'NONE', #103 ) ;
#19 = VECTOR ( 'NONE', #170, 1000.000000000000000 ) ;
#20 = ORIENTED_EDGE ( 'NONE', *, *, #287, .F. ) ;
#21 = CARTESIAN_POINT ( 'NONE',  ( 32.00000000000000000, 40.00000000000000000, -0.001000000000001000089 ) ) ;
#22 = ORIENTED_EDGE ( 'NONE', *, *, #176, .F. ) ;
#23 = ORIENTED_EDGE ( 'NONE', *, *, #443, .T. ) ;
#24 = CARTESIAN_POINT ( 'NONE',  ( 0.000000000000000000, 40.00000000000000000, 2.999999999999999112 ) ) ;
#25 = EDGE_CURVE ( 'NONE', #194, #162, #461, .T. ) ;
#26 = ORIENTED_EDGE ( 'NONE', *, *, #287, .T. ) ;
#27 = DIRECTION ( 'NONE',  ( -0.000000000000000000, 1.000000000000000000, 9.376883653928687363E-17 ) ) ;
#28 = ORIENTED_EDGE ( 'NONE', *, *, #152, .T. ) ;
#29 = VECTOR ( 'NONE', #205, 1000.000000000000000 ) ;
#30 = CARTESIAN_POINT ( 'NONE',  ( 40.00000000000000000, 40.00000000000000000, 2.999999999999999112 ) ) ;
#31 = EDGE_CURVE ( 'NONE', #128, #295, #175, .T. ) ;
#32 = PRODUCT_DEFINITION_CONTEXT ( 'detailed design', #160, 'design' ) ;
#33 = LINE ( 'NONE', #242, #57 ) ;
#34 = PLANE ( 'NONE',  #189 ) ;
#35 = PRODUCT_CONTEXT ( 'NONE', #211, 'mechanical' ) ;
#36 = CARTESIAN_POINT ( 'NONE',  ( 0.000000000000000000, 0.000000000000000000, 21.00000000000000000 ) ) ;
#37 = DIRECTION ( 'NONE',  ( 1.000000000000000000, 0.000000000000000000, 0.000000000000000000 ) ) ;
#38 = PLANE ( 'NONE',  #110 ) ;
#39 = CARTESIAN_POINT ( 'NONE',  ( 0.000000000000000000, 40.00000000000000000, 21.00000000000000000 ) ) ;
#40 = LINE ( 'NONE', #328, #174 ) ;
#41 = PRESENTATION_LAYER_ASSIGNMENT (  '', '', ( #247 ) ) ;
#42 = PLANE ( 'NONE',  #267 ) ;
#43 = COLOUR_RGB ( '',1.000000000000000000, 1.000000000000000000, 1.000000000000000000 ) ;
#44 = EDGE_CURVE ( 'NONE', #304, #202, #429, .T. ) ;
#45 = LINE ( 'NONE', #6, #70 ) ;
#46 = VERTEX_POINT ( 'NONE', #427 ) ;
#47 = CARTESIAN_POINT ( 'NONE',  ( 0.000000000000000000, 40.00000000000000000, 18.00000000000000355 ) ) ;
#48 = VECTOR ( 'NONE', #232, 1000.000000000000000 ) ;
#49 = AXIS2_PLACEMENT_3D ( 'NONE', #218, #102, #37 ) ;
#50 = ORIENTED_EDGE ( 'NONE', *, *, #290, .F. ) ;
#51 = ORIENTED_EDGE ( 'NONE', *, *, #261, .T. ) ;
#52 = CARTESIAN_POINT ( 'NONE',  ( 0.000000000000000000, 40.00000000000000000, 18.00000000000000355 ) ) ;
#53 = ORIENTED_EDGE ( 'NONE', *, *, #410, .F. ) ;
#54 = LINE ( 'NONE', #166, #314 ) ;
#55 = EDGE_LOOP ( 'NONE', ( #300, #97, #51, #339, #441, #16, #311, #22 ) ) ;
#56 = ADVANCED_FACE ( 'NONE', ( #426 ), #38, .F. ) ;
#57 = VECTOR ( 'NONE', #145, 1000.000000000000000 ) ;
#58 = ORIENTED_EDGE ( 'NONE', *, *, #435, .F. ) ;
#59 =( LENGTH_UNIT ( ) NAMED_UNIT ( * ) SI_UNIT ( .MILLI., .METRE. ) );
#60 = VERTEX_POINT ( 'NONE', #108 ) ;
#61 = DIRECTION ( 'NONE',  ( 0.000000000000000000, -1.000000000000000000, -0.000000000000000000 ) ) ;
#62 = EDGE_LOOP ( 'NONE', ( #351, #271, #134, #412 ) ) ;
#63 = EDGE_CURVE ( 'NONE', #304, #18, #353, .T. ) ;
#64 = DIRECTION ( 'NONE',  ( -0.000000000000000000, -1.000000000000000000, -0.000000000000000000 ) ) ;
#65 = AXIS2_PLACEMENT_3D ( 'NONE', #436, #150, #183 ) ;
#66 = AXIS2_PLACEMENT_3D ( 'NONE', #14, #155, #87 ) ;
#67 = CARTESIAN_POINT ( 'NONE',  ( 40.00000000000000000, 32.00000000000000000, 2.999999999999999112 ) ) ;
#68 = CARTESIAN_POINT ( 'NONE',  ( 0.000000000000000000, 3.000000000000002665, 2.999999999999995559 ) ) ;
#69 = DIRECTION ( 'NONE',  ( -1.000000000000000000, 0.000000000000000000, 0.000000000000000000 ) ) ;
#70 = VECTOR ( 'NONE', #151, 1000.000000000000000 ) ;
#71 = CARTESIAN_POINT ( 'NONE',  ( 40.00000000000000000, 0.000000000000000000, 21.00000000000000000 ) ) ;
#72 = CARTESIAN_POINT ( 'NONE',  ( 0.000000000000000000, 0.000000000000000000, 21.00000000000000000 ) ) ;
#73 = EDGE_CURVE ( 'NONE', #202, #60, #463, .T. ) ;
#74 = CARTESIAN_POINT ( 'NONE',  ( 0.000000000000000000, 3.000000000000000888, 18.00000000000000355 ) ) ;
#75 = VECTOR ( 'NONE', #217, 1000.000000000000000 ) ;
#76 = AXIS2_PLACEMENT_3D ( 'NONE', #124, #341, #91 ) ;
#77 = FACE_OUTER_BOUND ( 'NONE', #372, .T. ) ;
#78 = ADVANCED_FACE ( 'NONE', ( #250 ), #141, .F. ) ;
#79 = VERTEX_POINT ( 'NONE', #286 ) ;
#80 = DIRECTION ( 'NONE',  ( 0.000000000000000000, -0.000000000000000000, -1.000000000000000000 ) ) ;
#81 = VERTEX_POINT ( 'NONE', #67 ) ;
#82 = DIRECTION ( 'NONE',  ( -0.000000000000000000, -0.000000000000000000, 1.000000000000000000 ) ) ;
#83 = ORIENTED_EDGE ( 'NONE', *, *, #7, .F. ) ;
#84 = LINE ( 'NONE', #272, #48 ) ;
#85 = EDGE_LOOP ( 'NONE', ( #411, #83, #454, #240 ) ) ;
#86 = ORIENTED_EDGE ( 'NONE', *, *, #171, .T. ) ;
#87 = DIRECTION ( 'NONE',  ( 1.000000000000000000, 0.000000000000000000, -0.000000000000000000 ) ) ;
#88 = EDGE_CURVE ( 'NONE', #333, #18, #100, .T. ) ;
#89 = VERTEX_POINT ( 'NONE', #394 ) ;
#90 = VERTEX_POINT ( 'NONE', #323 ) ;
#91 = DIRECTION ( 'NONE',  ( 0.000000000000000000, 1.000000000000000000, 9.376883653928687363E-17 ) ) ;
#92 = LINE ( 'NONE', #366, #381 ) ;
#93 = VECTOR ( 'NONE', #169, 1000.000000000000000 ) ;
#94 =( GEOMETRIC_REPRESENTATION_CONTEXT ( 3 ) GLOBAL_UNCERTAINTY_ASSIGNED_CONTEXT ( ( #207 ) ) GLOBAL_UNIT_ASSIGNED_CONTEXT ( ( #243, #425, #317 ) ) REPRESENTATION_CONTEXT ( 'NONE', 'WORKASPACE' ) );
#95 = EDGE_LOOP ( 'NONE', ( #156, #438, #404, #303 ) ) ;
#96 = DIRECTION ( 'NONE',  ( -0.000000000000000000, 0.000000000000000000, 1.000000000000000000 ) ) ;
#97 = ORIENTED_EDGE ( 'NONE', *, *, #88, .T. ) ;
#98 = EDGE_CURVE ( 'NONE', #154, #89, #33, .T. ) ;
#99 = DIRECTION ( 'NONE',  ( 0.000000000000000000, -0.000000000000000000, -1.000000000000000000 ) ) ;
#100 = LINE ( 'NONE', #390, #370 ) ;
#101 = UNCERTAINTY_MEASURE_WITH_UNIT (LENGTH_MEASURE( 1.000000000000000082E-05 ), #386, 'distance_accuracy_value', 'NONE');
#102 = DIRECTION ( 'NONE',  ( 0.000000000000000000, 0.000000000000000000, 1.000000000000000000 ) ) ;
#103 = CARTESIAN_POINT ( 'NONE',  ( 40.00000000000000000, 40.00000000000000000, 18.00000000000000355 ) ) ;
#104 = VECTOR ( 'NONE', #387, 1000.000000000000000 ) ;
#105 =( NAMED_UNIT ( * ) SI_UNIT ( $, .STERADIAN. ) SOLID_ANGLE_UNIT ( ) );
#106 = PRODUCT_DEFINITION_FORMATION_WITH_SPECIFIED_SOURCE ( '任何', '', #452, .NOT_KNOWN. ) ;
#107 = CARTESIAN_POINT ( 'NONE',  ( 40.00000000000000000, 32.00000000000000000, 0.000000000000000000 ) ) ;
#108 = CARTESIAN_POINT ( 'NONE',  ( 32.00000000000000000, 14.00000000000000178, 21.00000000000000000 ) ) ;
#109 = DIRECTION ( 'NONE',  ( -0.000000000000000000, 1.156482317317870985E-16, -1.000000000000000000 ) ) ;
#110 = AXIS2_PLACEMENT_3D ( 'NONE', #146, #214, #318 ) ;
#111 = VECTOR ( 'NONE', #61, 1000.000000000000000 ) ;
#112 = PLANE ( 'NONE',  #65 ) ;
#113 = EDGE_CURVE ( 'NONE', #90, #81, #139, .T. ) ;
#114 = DIRECTION ( 'NONE',  ( -0.000000000000000000, -0.000000000000000000, -1.000000000000000000 ) ) ;
#115 = DIRECTION ( 'NONE',  ( 1.000000000000000000, 0.000000000000000000, -0.000000000000000000 ) ) ;
#116 = VECTOR ( 'NONE', #178, 1000.000000000000000 ) ;
#117 = DIRECTION ( 'NONE',  ( 0.000000000000000000, -1.000000000000000000, 0.000000000000000000 ) ) ;
#118 = AXIS2_PLACEMENT_3D ( 'NONE', #138, #462, #249 ) ;
#119 = ORIENTED_EDGE ( 'NONE', *, *, #280, .F. ) ;
#120 = CARTESIAN_POINT ( 'NONE',  ( -0.000000000000000000, 14.00000000000000178, 21.00000000000000000 ) ) ;
#121 = DIRECTION ( 'NONE',  ( 0.000000000000000000, -1.000000000000000000, 0.000000000000000000 ) ) ;
#122 = EDGE_LOOP ( 'NONE', ( #348, #296, #385, #340 ) ) ;
#123 = EDGE_LOOP ( 'NONE', ( #405, #225, #378, #135, #442, #379, #447, #376 ) ) ;
#124 = CARTESIAN_POINT ( 'NONE',  ( 0.000000000000000000, 40.00000000000000000, 2.999999999999999112 ) ) ;
#125 = VECTOR ( 'NONE', #310, 1000.000000000000000 ) ;
#126 = ORIENTED_EDGE ( 'NONE', *, *, #137, .T. ) ;
#127 = AXIS2_PLACEMENT_3D ( 'NONE', #309, #344, #380 ) ;
#128 = VERTEX_POINT ( 'NONE', #319 ) ;
#129 = PLANE ( 'NONE',  #76 ) ;
#130 = EDGE_CURVE ( 'NONE', #371, #194, #465, .T. ) ;
#131 = DIRECTION ( 'NONE',  ( -0.000000000000000000, -0.000000000000000000, -1.000000000000000000 ) ) ;
#132 = ORIENTED_EDGE ( 'NONE', *, *, #73, .F. ) ;
#133 = CARTESIAN_POINT ( 'NONE',  ( 40.00000000000000000, 40.00000000000000000, 21.00000000000000000 ) ) ;
#134 = ORIENTED_EDGE ( 'NONE', *, *, #326, .T. ) ;
#135 = ORIENTED_EDGE ( 'NONE', *, *, #290, .T. ) ;
#136 = DIRECTION ( 'NONE',  ( -0.000000000000000000, 1.156482317317870985E-16, -1.000000000000000000 ) ) ;
#137 = EDGE_CURVE ( 'NONE', #162, #90, #142, .T. ) ;
#138 = CARTESIAN_POINT ( 'NONE',  ( 40.00000000000000000, 40.00000000000000000, 21.00000000000000000 ) ) ;
#139 = LINE ( 'NONE', #30, #104 ) ;
#140 = SURFACE_STYLE_FILL_AREA ( #172 ) ;
#141 = PLANE ( 'NONE',  #228 ) ;
#142 = LINE ( 'NONE', #2, #283 ) ;
#143 = VECTOR ( 'NONE', #121, 1000.000000000000000 ) ;
#144 = EDGE_CURVE ( 'NONE', #89, #304, #253, .T. ) ;
#145 = DIRECTION ( 'NONE',  ( 1.000000000000000000, 0.000000000000000000, 0.000000000000000000 ) ) ;
#146 = CARTESIAN_POINT ( 'NONE',  ( 40.00000000000000000, 0.000000000000000000, 21.00000000000000000 ) ) ;
#147 = PLANE ( 'NONE',  #277 ) ;
#148 = EDGE_CURVE ( 'NONE', #161, #90, #392, .T. ) ;
#149 = FACE_OUTER_BOUND ( 'NONE', #458, .T. ) ;
#150 = DIRECTION ( 'NONE',  ( 0.000000000000000000, 1.000000000000000000, 0.000000000000000000 ) ) ;
#151 = DIRECTION ( 'NONE',  ( 0.000000000000000000, -1.000000000000000000, 0.000000000000000000 ) ) ;
#152 = EDGE_CURVE ( 'NONE', #295, #371, #356, .T. ) ;
#153 = FACE_OUTER_BOUND ( 'NONE', #85, .T. ) ;
#154 = VERTEX_POINT ( 'NONE', #36 ) ;
#155 = DIRECTION ( 'NONE',  ( 0.000000000000000000, -0.000000000000000000, 1.000000000000000000 ) ) ;
#156 = ORIENTED_EDGE ( 'NONE', *, *, #315, .T. ) ;
#157 = EDGE_CURVE ( 'NONE', #449, #46, #167, .T. ) ;
#158 = ORIENTED_EDGE ( 'NONE', *, *, #148, .T. ) ;
#159 = CARTESIAN_POINT ( 'NONE',  ( 0.000000000000000000, 32.00000000000000000, 2.999999999999998224 ) ) ;
#160 = APPLICATION_CONTEXT ( 'automotive_design' ) ;
#161 = VERTEX_POINT ( 'NONE', #313 ) ;
#162 = VERTEX_POINT ( 'NONE', #367 ) ;
#163 = CARTESIAN_POINT ( 'NONE',  ( 32.00000000000000000, 14.00000000000000178, 18.00000000000000355 ) ) ;
#164 = ORIENTED_EDGE ( 'NONE', *, *, #261, .F. ) ;
#165 = ORIENTED_EDGE ( 'NONE', *, *, #88, .F. ) ;
#166 = CARTESIAN_POINT ( 'NONE',  ( 32.00000000000000000, 0.000000000000000000, 18.00000000000000355 ) ) ;
#167 = LINE ( 'NONE', #173, #448 ) ;
#168 =( NAMED_UNIT ( * ) PLANE_ANGLE_UNIT ( ) SI_UNIT ( $, .RADIAN. ) );
#169 = DIRECTION ( 'NONE',  ( 1.000000000000000000, -0.000000000000000000, -0.000000000000000000 ) ) ;
#170 = DIRECTION ( 'NONE',  ( 0.000000000000000000, -1.000000000000000000, 0.000000000000000000 ) ) ;
#171 = EDGE_CURVE ( 'NONE', #154, #346, #331, .T. ) ;
#172 = FILL_AREA_STYLE ('',( #316 ) ) ;
#173 = CARTESIAN_POINT ( 'NONE',  ( 40.00000000000000000, 0.000000000000000000, 0.000000000000000000 ) ) ;
#174 = VECTOR ( 'NONE', #82, 1000.000000000000000 ) ;
#175 = LINE ( 'NONE', #321, #215 ) ;
#176 = EDGE_CURVE ( 'NONE', #373, #453, #92, .T. ) ;
#177 = FACE_OUTER_BOUND ( 'NONE', #231, .T. ) ;
#178 = DIRECTION ( 'NONE',  ( 1.000000000000000000, 0.000000000000000000, 0.000000000000000000 ) ) ;
#179 = DIRECTION ( 'NONE',  ( -1.000000000000000000, 0.000000000000000000, 0.000000000000000000 ) ) ;
#180 = CLOSED_SHELL ( 'NONE', ( #457, #361, #464, #384, #210, #244, #56, #256, #393, #375, #294, #357, #227, #78 ) ) ;
#181 = COLOUR_RGB ( '',1.000000000000000000, 1.000000000000000000, 1.000000000000000000 ) ;
#182 = LINE ( 'NONE', #291, #332 ) ;
#183 = DIRECTION ( 'NONE',  ( 0.000000000000000000, -0.000000000000000000, 1.000000000000000000 ) ) ;
#184 = PRODUCT_RELATED_PRODUCT_CATEGORY ( 'part', '', ( #452 ) ) ;
#185 = ORIENTED_EDGE ( 'NONE', *, *, #130, .T. ) ;
#186 = CARTESIAN_POINT ( 'NONE',  ( 32.00000000000000000, 40.00000000000000000, 18.00000000000000355 ) ) ;
#187 = VECTOR ( 'NONE', #69, 1000.000000000000000 ) ;
#188 = VECTOR ( 'NONE', #395, 1000.000000000000000 ) ;
#189 = AXIS2_PLACEMENT_3D ( 'NONE', #391, #355, #424 ) ;
#190 = ORIENTED_EDGE ( 'NONE', *, *, #221, .T. ) ;
#191 = PLANE ( 'NONE',  #437 ) ;
#192 = EDGE_CURVE ( 'NONE', #274, #128, #325, .T. ) ;
#193 = ORIENTED_EDGE ( 'NONE', *, *, #216, .T. ) ;
#194 = VERTEX_POINT ( 'NONE', #74 ) ;
#195 = FACE_OUTER_BOUND ( 'NONE', #55, .T. ) ;
#196 = ORIENTED_EDGE ( 'NONE', *, *, #113, .T. ) ;
#197 = DIRECTION ( 'NONE',  ( 0.000000000000000000, 1.000000000000000000, 0.000000000000000000 ) ) ;
#198 = AXIS2_PLACEMENT_3D ( 'NONE', #401, #117, #80 ) ;
#199 = ORIENTED_EDGE ( 'NONE', *, *, #350, .F. ) ;
#200 = ORIENTED_EDGE ( 'NONE', *, *, #192, .T. ) ;
#201 = CARTESIAN_POINT ( 'NONE',  ( 0.000000000000000000, 32.00000000000000000, 2.999999999999998224 ) ) ;
#202 = VERTEX_POINT ( 'NONE', #9 ) ;
#203 = ORIENTED_EDGE ( 'NONE', *, *, #315, .F. ) ;
#204 = SURFACE_SIDE_STYLE ('',( #140 ) ) ;
#205 = DIRECTION ( 'NONE',  ( -0.000000000000000000, -0.000000000000000000, -1.000000000000000000 ) ) ;
#206 = VECTOR ( 'NONE', #64, 1000.000000000000000 ) ;
#207 = UNCERTAINTY_MEASURE_WITH_UNIT (LENGTH_MEASURE( 1.000000000000000082E-05 ), #243, 'distance_accuracy_value', 'NONE');
#208 = FACE_OUTER_BOUND ( 'NONE', #123, .T. ) ;
#209 = CARTESIAN_POINT ( 'NONE',  ( 0.000000000000000000, 3.000000000000000888, 18.00000000000000355 ) ) ;
#210 = ADVANCED_FACE ( 'NONE', ( #77 ), #147, .F. ) ;
#211 = APPLICATION_CONTEXT ( 'automotive_design' ) ;
#212 = APPLICATION_PROTOCOL_DEFINITION ( 'draft international standard', 'automotive_design', 1998, #211 ) ;
#213 = DIRECTION ( 'NONE',  ( 1.000000000000000000, -0.000000000000000000, -0.000000000000000000 ) ) ;
#214 = DIRECTION ( 'NONE',  ( -1.000000000000000000, 0.000000000000000000, 0.000000000000000000 ) ) ;
#215 = VECTOR ( 'NONE', #358, 1000.000000000000000 ) ;
#216 = EDGE_CURVE ( 'NONE', #407, #347, #403, .T. ) ;
#217 = DIRECTION ( 'NONE',  ( 0.000000000000000000, 1.000000000000000000, 0.000000000000000000 ) ) ;
#218 = CARTESIAN_POINT ( 'NONE',  ( 0.000000000000000000, 0.000000000000000000, 0.000000000000000000 ) ) ;
#219 = DIRECTION ( 'NONE',  ( 1.000000000000000000, 0.000000000000000000, 0.000000000000000000 ) ) ;
#220 = CARTESIAN_POINT ( 'NONE',  ( 0.000000000000000000, 40.00000000000000000, 21.00000000000000000 ) ) ;
#221 = EDGE_CURVE ( 'NONE', #347, #346, #45, .T. ) ;
#222 = DIRECTION ( 'NONE',  ( -0.000000000000000000, -1.000000000000000000, -0.000000000000000000 ) ) ;
#223 = PRODUCT_DEFINITION_SHAPE ( 'NONE', 'NONE',  #273 ) ;
#224 = ORIENTED_EDGE ( 'NONE', *, *, #430, .T. ) ;
#225 = ORIENTED_EDGE ( 'NONE', *, *, #73, .T. ) ;
#226 = FACE_OUTER_BOUND ( 'NONE', #234, .T. ) ;
#227 = ADVANCED_FACE ( 'NONE', ( #177 ), #364, .T. ) ;
#228 = AXIS2_PLACEMENT_3D ( 'NONE', #423, #252, #282 ) ;
#229 = SURFACE_STYLE_FILL_AREA ( #382 ) ;
#230 = ORIENTED_EDGE ( 'NONE', *, *, #1, .T. ) ;
#231 = EDGE_LOOP ( 'NONE', ( #200, #50, #199, #419 ) ) ;
#232 = DIRECTION ( 'NONE',  ( -0.000000000000000000, -0.000000000000000000, 1.000000000000000000 ) ) ;
#233 = SURFACE_SIDE_STYLE ('',( #229 ) ) ;
#234 = EDGE_LOOP ( 'NONE', ( #455, #132, #11, #58 ) ) ;
#235 = EDGE_LOOP ( 'NONE', ( #23, #299, #456, #165 ) ) ;
#236 = LINE ( 'NONE', #409, #111 ) ;
#237 = AXIS2_PLACEMENT_3D ( 'NONE', #133, #337, #99 ) ;
#238 = ORIENTED_EDGE ( 'NONE', *, *, #144, .F. ) ;
#239 =( GEOMETRIC_REPRESENTATION_CONTEXT ( 3 ) GLOBAL_UNCERTAINTY_ASSIGNED_CONTEXT ( ( #101 ) ) GLOBAL_UNIT_ASSIGNED_CONTEXT ( ( #386, #168, #105 ) ) REPRESENTATION_CONTEXT ( 'NONE', 'WORKASPACE' ) );
#240 = ORIENTED_EDGE ( 'NONE', *, *, #343, .F. ) ;
#241 = PRESENTATION_STYLE_ASSIGNMENT (( #352 ) ) ;
#242 = CARTESIAN_POINT ( 'NONE',  ( 0.000000000000000000, 0.000000000000000000, 21.00000000000000000 ) ) ;
#243 =( LENGTH_UNIT ( ) NAMED_UNIT ( * ) SI_UNIT ( .MILLI., .METRE. ) );
#244 = ADVANCED_FACE ( 'NONE', ( #149 ), #112, .F. ) ;
#245 = APPLICATION_PROTOCOL_DEFINITION ( 'draft international standard', 'automotive_design', 1998, #160 ) ;
#246 = CARTESIAN_POINT ( 'NONE',  ( 0.000000000000000000, 3.000000000000000888, 18.00000000000000355 ) ) ;
#247 = STYLED_ITEM ( 'NONE', ( #446 ), #320 ) ;
#248 = VECTOR ( 'NONE', #450, 1000.000000000000000 ) ;
#249 = DIRECTION ( 'NONE',  ( 0.000000000000000000, -0.000000000000000000, -1.000000000000000000 ) ) ;
#250 = FACE_OUTER_BOUND ( 'NONE', #95, .T. ) ;
#251 = ADVANCED_BREP_SHAPE_REPRESENTATION ( '摄像机支架', ( #320, #49 ), #239 ) ;
#252 = DIRECTION ( 'NONE',  ( 0.000000000000000000, -1.000000000000000000, 0.000000000000000000 ) ) ;
#253 = LINE ( 'NONE', #71, #75 ) ;
#254 = VECTOR ( 'NONE', #329, 1000.000000000000000 ) ;
#255 = CARTESIAN_POINT ( 'NONE',  ( 0.000000000000000000, 40.00000000000000000, 21.00000000000000000 ) ) ;
#256 = ADVANCED_FACE ( 'NONE', ( #153 ), #42, .F. ) ;
#257 = LINE ( 'NONE', #330, #402 ) ;
#258 = VECTOR ( 'NONE', #301, 1000.000000000000000 ) ;
#259 = LINE ( 'NONE', #220, #143 ) ;
#260 = DIRECTION ( 'NONE',  ( 0.000000000000000000, 1.000000000000000000, -0.000000000000000000 ) ) ;
#261 = EDGE_CURVE ( 'NONE', #18, #162, #440, .T. ) ;
#262 = ORIENTED_EDGE ( 'NONE', *, *, #113, .F. ) ;
#263 = CARTESIAN_POINT ( 'NONE',  ( 0.000000000000000000, 0.000000000000000000, 0.000000000000000000 ) ) ;
#264 = CARTESIAN_POINT ( 'NONE',  ( 40.00000000000000000, 40.00000000000000000, 21.00000000000000000 ) ) ;
#265 = ORIENTED_EDGE ( 'NONE', *, *, #343, .T. ) ;
#266 = FACE_OUTER_BOUND ( 'NONE', #414, .T. ) ;
#267 = AXIS2_PLACEMENT_3D ( 'NONE', #399, #362, #289 ) ;
#268 = SURFACE_STYLE_USAGE ( .BOTH. , #233 ) ;
#269 = ORIENTED_EDGE ( 'NONE', *, *, #137, .F. ) ;
#270 = LINE ( 'NONE', #21, #248 ) ;
#271 = ORIENTED_EDGE ( 'NONE', *, *, #350, .T. ) ;
#272 = CARTESIAN_POINT ( 'NONE',  ( 32.00000000000000000, 14.00000000000000178, -0.001000000000001000089 ) ) ;
#273 = PRODUCT_DEFINITION ( '未知', '', #106, #32 ) ;
#274 = VERTEX_POINT ( 'NONE', #433 ) ;
#275 = ORIENTED_EDGE ( 'NONE', *, *, #98, .F. ) ;
#276 = FACE_OUTER_BOUND ( 'NONE', #444, .T. ) ;
#277 = AXIS2_PLACEMENT_3D ( 'NONE', #39, #115, #324 ) ;
#278 = EDGE_LOOP ( 'NONE', ( #13, #203, #262, #269, #164, #336, #238, #26 ) ) ;
#279 = CARTESIAN_POINT ( 'NONE',  ( 40.00000000000000000, 40.00000000000000000, 21.00000000000000000 ) ) ;
#280 = EDGE_CURVE ( 'NONE', #295, #154, #259, .T. ) ;
#281 = DIRECTION ( 'NONE',  ( 1.000000000000000000, -0.000000000000000000, -0.000000000000000000 ) ) ;
#282 = DIRECTION ( 'NONE',  ( 0.000000000000000000, -0.000000000000000000, -1.000000000000000000 ) ) ;
#283 = VECTOR ( 'NONE', #109, 1000.000000000000000 ) ;
#284 = SHAPE_DEFINITION_REPRESENTATION ( #223, #251 ) ;
#285 = DIRECTION ( 'NONE',  ( 0.000000000000000000, 1.000000000000000000, 0.000000000000000000 ) ) ;
#286 = CARTESIAN_POINT ( 'NONE',  ( 7.982195587541395021, 14.00000000000000178, 21.00000000000000000 ) ) ;
#287 = EDGE_CURVE ( 'NONE', #89, #449, #182, .T. ) ;
#288 = CARTESIAN_POINT ( 'NONE',  ( 7.982195587541395021, 40.00000000000000000, -0.001000000000001000089 ) ) ;
#289 = DIRECTION ( 'NONE',  ( 1.000000000000000000, 0.000000000000000000, 0.000000000000000000 ) ) ;
#290 = EDGE_CURVE ( 'NONE', #79, #128, #257, .T. ) ;
#291 = CARTESIAN_POINT ( 'NONE',  ( 40.00000000000000000, 0.000000000000000000, 21.00000000000000000 ) ) ;
#292 = FACE_OUTER_BOUND ( 'NONE', #62, .T. ) ;
#293 = DIRECTION ( 'NONE',  ( 0.000000000000000000, 0.000000000000000000, -1.000000000000000000 ) ) ;
#294 = ADVANCED_FACE ( 'NONE', ( #292 ), #400, .F. ) ;
#295 = VERTEX_POINT ( 'NONE', #255 ) ;
#296 = ORIENTED_EDGE ( 'NONE', *, *, #306, .F. ) ;
#297 = FACE_OUTER_BOUND ( 'NONE', #122, .T. ) ;
#298 = FILL_AREA_STYLE_COLOUR ( '', #181 ) ;
#299 = ORIENTED_EDGE ( 'NONE', *, *, #44, .F. ) ;
#300 = ORIENTED_EDGE ( 'NONE', *, *, #435, .T. ) ;
#301 = DIRECTION ( 'NONE',  ( -1.000000000000000000, 0.000000000000000000, 0.000000000000000000 ) ) ;
#302 = MECHANICAL_DESIGN_GEOMETRIC_PRESENTATION_REPRESENTATION (  '', ( #247 ), #322 ) ;
#303 = ORIENTED_EDGE ( 'NONE', *, *, #430, .F. ) ;
#304 = VERTEX_POINT ( 'NONE', #264 ) ;
#305 = CARTESIAN_POINT ( 'NONE',  ( 40.00000000000000000, 0.000000000000000000, 0.000000000000000000 ) ) ;
#306 = EDGE_CURVE ( 'NONE', #371, #274, #451, .T. ) ;
#307 = ORIENTED_EDGE ( 'NONE', *, *, #1, .F. ) ;
#308 = ORIENTED_EDGE ( 'NONE', *, *, #171, .F. ) ;
#309 = CARTESIAN_POINT ( 'NONE',  ( 0.000000000000000000, 3.000000000000002665, 2.999999999999995559 ) ) ;
#310 = DIRECTION ( 'NONE',  ( 1.000000000000000000, -0.000000000000000000, -0.000000000000000000 ) ) ;
#311 = ORIENTED_EDGE ( 'NONE', *, *, #398, .T. ) ;
#312 = CARTESIAN_POINT ( 'NONE',  ( 7.982195587541395021, 14.00000000000000178, 18.00000000000000355 ) ) ;
#313 = CARTESIAN_POINT ( 'NONE',  ( 0.000000000000000000, 3.000000000000002665, 2.999999999999995559 ) ) ;
#314 = VECTOR ( 'NONE', #197, 1000.000000000000000 ) ;
#315 = EDGE_CURVE ( 'NONE', #81, #46, #338, .T. ) ;
#316 = FILL_AREA_STYLE_COLOUR ( '', #43 ) ;
#317 =( NAMED_UNIT ( * ) SI_UNIT ( $, .STERADIAN. ) SOLID_ANGLE_UNIT ( ) );
#318 = DIRECTION ( 'NONE',  ( 0.000000000000000000, 0.000000000000000000, 1.000000000000000000 ) ) ;
#319 = CARTESIAN_POINT ( 'NONE',  ( 7.982195587541395021, 40.00000000000000000, 21.00000000000000000 ) ) ;
#320 = MANIFOLD_SOLID_BREP ( '切除-拉伸3', #180 ) ;
#321 = CARTESIAN_POINT ( 'NONE',  ( 40.00000000000000000, 40.00000000000000000, 21.00000000000000000 ) ) ;
#322 =( GEOMETRIC_REPRESENTATION_CONTEXT ( 3 ) GLOBAL_UNCERTAINTY_ASSIGNED_CONTEXT ( ( #388 ) ) GLOBAL_UNIT_ASSIGNED_CONTEXT ( ( #59, #335, #420 ) ) REPRESENTATION_CONTEXT ( 'NONE', 'WORKASPACE' ) );
#323 = CARTESIAN_POINT ( 'NONE',  ( 40.00000000000000000, 3.000000000000002665, 2.999999999999995559 ) ) ;
#324 = DIRECTION ( 'NONE',  ( -0.000000000000000000, 0.000000000000000000, -1.000000000000000000 ) ) ;
#325 = LINE ( 'NONE', #288, #460 ) ;
#326 = EDGE_CURVE ( 'NONE', #79, #60, #439, .T. ) ;
#327 = VECTOR ( 'NONE', #222, 1000.000000000000000 ) ;
#328 = CARTESIAN_POINT ( 'NONE',  ( 7.982195587541395021, 14.00000000000000178, -0.001000000000001000089 ) ) ;
#329 = DIRECTION ( 'NONE',  ( -0.000000000000000000, -0.000000000000000000, -1.000000000000000000 ) ) ;
#330 = CARTESIAN_POINT ( 'NONE',  ( 7.982195587541395021, 0.000000000000000000, 21.00000000000000000 ) ) ;
#331 = LINE ( 'NONE', #72, #345 ) ;
#332 = VECTOR ( 'NONE', #114, 1000.000000000000000 ) ;
#333 = VERTEX_POINT ( 'NONE', #186 ) ;
#334 = VECTOR ( 'NONE', #27, 1000.000000000000000 ) ;
#335 =( NAMED_UNIT ( * ) PLANE_ANGLE_UNIT ( ) SI_UNIT ( $, .RADIAN. ) );
#336 = ORIENTED_EDGE ( 'NONE', *, *, #63, .F. ) ;
#337 = DIRECTION ( 'NONE',  ( 0.000000000000000000, -1.000000000000000000, 0.000000000000000000 ) ) ;
#338 = LINE ( 'NONE', #417, #389 ) ;
#339 = ORIENTED_EDGE ( 'NONE', *, *, #25, .F. ) ;
#340 = ORIENTED_EDGE ( 'NONE', *, *, #31, .F. ) ;
#341 = DIRECTION ( 'NONE',  ( 0.000000000000000000, 9.376883653928687363E-17, -1.000000000000000000 ) ) ;
#342 = CARTESIAN_POINT ( 'NONE',  ( 0.000000000000000000, 3.000000000000002665, 2.999999999999995559 ) ) ;
#343 = EDGE_CURVE ( 'NONE', #346, #449, #12, .T. ) ;
#344 = DIRECTION ( 'NONE',  ( 0.000000000000000000, -1.000000000000000000, -1.156482317317870985E-16 ) ) ;
#345 = VECTOR ( 'NONE', #3, 1000.000000000000000 ) ;
#346 = VERTEX_POINT ( 'NONE', #406 ) ;
#347 = VERTEX_POINT ( 'NONE', #363 ) ;
#348 = ORIENTED_EDGE ( 'NONE', *, *, #192, .F. ) ;
#349 = LINE ( 'NONE', #24, #334 ) ;
#350 = EDGE_CURVE ( 'NONE', #453, #79, #40, .T. ) ;
#351 = ORIENTED_EDGE ( 'NONE', *, *, #176, .T. ) ;
#352 = SURFACE_STYLE_USAGE ( .BOTH. , #204 ) ;
#353 = LINE ( 'NONE', #466, #408 ) ;
#354 = CARTESIAN_POINT ( 'NONE',  ( 32.00000000000000000, 0.000000000000000000, 21.00000000000000000 ) ) ;
#355 = DIRECTION ( 'NONE',  ( -0.000000000000000000, 0.000000000000000000, 1.000000000000000000 ) ) ;
#356 = LINE ( 'NONE', #360, #29 ) ;
#357 = ADVANCED_FACE ( 'NONE', ( #226 ), #191, .T. ) ;
#358 = DIRECTION ( 'NONE',  ( -1.000000000000000000, 0.000000000000000000, 0.000000000000000000 ) ) ;
#359 = STYLED_ITEM ( 'NONE', ( #241 ), #251 ) ;
#360 = CARTESIAN_POINT ( 'NONE',  ( 0.000000000000000000, 40.00000000000000000, 21.00000000000000000 ) ) ;
#361 = ADVANCED_FACE ( 'NONE', ( #297 ), #374, .F. ) ;
#362 = DIRECTION ( 'NONE',  ( -0.000000000000000000, 0.000000000000000000, 1.000000000000000000 ) ) ;
#363 = CARTESIAN_POINT ( 'NONE',  ( 0.000000000000000000, 32.00000000000000000, 0.000000000000000000 ) ) ;
#364 = PLANE ( 'NONE',  #4 ) ;
#365 = PRESENTATION_LAYER_ASSIGNMENT (  '', '', ( #359 ) ) ;
#366 = CARTESIAN_POINT ( 'NONE',  ( 0.000000000000000000, 14.00000000000000178, 18.00000000000000355 ) ) ;
#367 = CARTESIAN_POINT ( 'NONE',  ( 40.00000000000000000, 3.000000000000000888, 18.00000000000000355 ) ) ;
#368 = EDGE_CURVE ( 'NONE', #373, #60, #84, .T. ) ;
#369 = DIRECTION ( 'NONE',  ( 1.000000000000000000, 0.000000000000000000, 0.000000000000000000 ) ) ;
#370 = VECTOR ( 'NONE', #281, 1000.000000000000000 ) ;
#371 = VERTEX_POINT ( 'NONE', #52 ) ;
#372 = EDGE_LOOP ( 'NONE', ( #415, #193, #190, #308, #119, #28, #185, #230 ) ) ;
#373 = VERTEX_POINT ( 'NONE', #163 ) ;
#374 = PLANE ( 'NONE',  #237 ) ;
#375 = ADVANCED_FACE ( 'NONE', ( #276 ), #445, .F. ) ;
#376 = ORIENTED_EDGE ( 'NONE', *, *, #144, .T. ) ;
#377 = DIRECTION ( 'NONE',  ( -1.000000000000000000, 0.000000000000000000, -0.000000000000000000 ) ) ;
#378 = ORIENTED_EDGE ( 'NONE', *, *, #326, .F. ) ;
#379 = ORIENTED_EDGE ( 'NONE', *, *, #280, .T. ) ;
#380 = DIRECTION ( 'NONE',  ( 0.000000000000000000, 1.156482317317870985E-16, -1.000000000000000000 ) ) ;
#381 = VECTOR ( 'NONE', #179, 1000.000000000000000 ) ;
#382 = FILL_AREA_STYLE ('',( #298 ) ) ;
#383 = ORIENTED_EDGE ( 'NONE', *, *, #148, .F. ) ;
#384 = ADVANCED_FACE ( 'NONE', ( #195 ), #416, .F. ) ;
#385 = ORIENTED_EDGE ( 'NONE', *, *, #152, .F. ) ;
#386 =( LENGTH_UNIT ( ) NAMED_UNIT ( * ) SI_UNIT ( .MILLI., .METRE. ) );
#387 = DIRECTION ( 'NONE',  ( -0.000000000000000000, 1.000000000000000000, 9.376883653928687363E-17 ) ) ;
#388 = UNCERTAINTY_MEASURE_WITH_UNIT (LENGTH_MEASURE( 1.000000000000000082E-05 ), #59, 'distance_accuracy_value', 'NONE');
#389 = VECTOR ( 'NONE', #131, 1000.000000000000000 ) ;
#390 = CARTESIAN_POINT ( 'NONE',  ( 0.000000000000000000, 40.00000000000000000, 18.00000000000000355 ) ) ;
#391 = CARTESIAN_POINT ( 'NONE',  ( 0.000000000000000000, 0.000000000000000000, 21.00000000000000000 ) ) ;
#392 = LINE ( 'NONE', #68, #10 ) ;
#393 = ADVANCED_FACE ( 'NONE', ( #266 ), #129, .F. ) ;
#394 = CARTESIAN_POINT ( 'NONE',  ( 40.00000000000000000, 0.000000000000000000, 21.00000000000000000 ) ) ;
#395 = DIRECTION ( 'NONE',  ( -1.000000000000000000, 0.000000000000000000, 0.000000000000000000 ) ) ;
#396 = VECTOR ( 'NONE', #369, 1000.000000000000000 ) ;
#397 = MECHANICAL_DESIGN_GEOMETRIC_PRESENTATION_REPRESENTATION (  '', ( #359 ), #94 ) ;
#398 = EDGE_CURVE ( 'NONE', #274, #453, #236, .T. ) ;
#399 = CARTESIAN_POINT ( 'NONE',  ( 0.000000000000000000, 0.000000000000000000, 0.000000000000000000 ) ) ;
#400 = PLANE ( 'NONE',  #198 ) ;
#401 = CARTESIAN_POINT ( 'NONE',  ( 0.000000000000000000, 14.00000000000000178, -0.001000000000001000089 ) ) ;
#402 = VECTOR ( 'NONE', #260, 1000.000000000000000 ) ;
#403 = LINE ( 'NONE', #432, #254 ) ;
#404 = ORIENTED_EDGE ( 'NONE', *, *, #216, .F. ) ;
#405 = ORIENTED_EDGE ( 'NONE', *, *, #44, .T. ) ;
#406 = CARTESIAN_POINT ( 'NONE',  ( 0.000000000000000000, 0.000000000000000000, 0.000000000000000000 ) ) ;
#407 = VERTEX_POINT ( 'NONE', #201 ) ;
#408 = VECTOR ( 'NONE', #428, 1000.000000000000000 ) ;
#409 = CARTESIAN_POINT ( 'NONE',  ( 7.982195587541395021, 0.000000000000000000, 18.00000000000000355 ) ) ;
#410 = EDGE_CURVE ( 'NONE', #161, #407, #349, .T. ) ;
#411 = ORIENTED_EDGE ( 'NONE', *, *, #221, .F. ) ;
#412 = ORIENTED_EDGE ( 'NONE', *, *, #368, .F. ) ;
#413 = CARTESIAN_POINT ( 'NONE',  ( 32.00000000000000000, 0.000000000000000000, -0.001000000000001000089 ) ) ;
#414 = EDGE_LOOP ( 'NONE', ( #196, #224, #53, #158 ) ) ;
#415 = ORIENTED_EDGE ( 'NONE', *, *, #410, .T. ) ;
#416 = PLANE ( 'NONE',  #66 ) ;
#417 = CARTESIAN_POINT ( 'NONE',  ( 40.00000000000000000, 32.00000000000000000, 16.00000000000000000 ) ) ;
#418 = ORIENTED_EDGE ( 'NONE', *, *, #25, .T. ) ;
#419 = ORIENTED_EDGE ( 'NONE', *, *, #398, .F. ) ;
#420 =( NAMED_UNIT ( * ) SI_UNIT ( $, .STERADIAN. ) SOLID_ANGLE_UNIT ( ) );
#421 = LINE ( 'NONE', #107, #187 ) ;
#422 = PLANE ( 'NONE',  #118 ) ;
#423 = CARTESIAN_POINT ( 'NONE',  ( 40.00000000000000000, 32.00000000000000000, 16.00000000000000000 ) ) ;
#424 = DIRECTION ( 'NONE',  ( 1.000000000000000000, 0.000000000000000000, 0.000000000000000000 ) ) ;
#425 =( NAMED_UNIT ( * ) PLANE_ANGLE_UNIT ( ) SI_UNIT ( $, .RADIAN. ) );
#426 = FACE_OUTER_BOUND ( 'NONE', #278, .T. ) ;
#427 = CARTESIAN_POINT ( 'NONE',  ( 40.00000000000000000, 32.00000000000000000, 0.000000000000000000 ) ) ;
#428 = DIRECTION ( 'NONE',  ( -0.000000000000000000, -0.000000000000000000, -1.000000000000000000 ) ) ;
#429 = LINE ( 'NONE', #279, #188 ) ;
#430 = EDGE_CURVE ( 'NONE', #81, #407, #17, .T. ) ;
#431 = VECTOR ( 'NONE', #136, 1000.000000000000000 ) ;
#432 = CARTESIAN_POINT ( 'NONE',  ( 0.000000000000000000, 32.00000000000000000, 16.00000000000000000 ) ) ;
#433 = CARTESIAN_POINT ( 'NONE',  ( 7.982195587541395021, 40.00000000000000000, 18.00000000000000355 ) ) ;
#434 = CARTESIAN_POINT ( 'NONE',  ( 40.00000000000000000, 3.000000000000000888, 18.00000000000000355 ) ) ;
#435 = EDGE_CURVE ( 'NONE', #373, #333, #54, .T. ) ;
#436 = CARTESIAN_POINT ( 'NONE',  ( 0.000000000000000000, 0.000000000000000000, 21.00000000000000000 ) ) ;
#437 = AXIS2_PLACEMENT_3D ( 'NONE', #413, #377, #96 ) ;
#438 = ORIENTED_EDGE ( 'NONE', *, *, #7, .T. ) ;
#439 = LINE ( 'NONE', #120, #396 ) ;
#440 = LINE ( 'NONE', #434, #327 ) ;
#441 = ORIENTED_EDGE ( 'NONE', *, *, #130, .F. ) ;
#442 = ORIENTED_EDGE ( 'NONE', *, *, #31, .T. ) ;
#443 = EDGE_CURVE ( 'NONE', #333, #202, #270, .T. ) ;
#444 = EDGE_LOOP ( 'NONE', ( #126, #383, #307, #418 ) ) ;
#445 = PLANE ( 'NONE',  #127 ) ;
#446 = PRESENTATION_STYLE_ASSIGNMENT (( #268 ) ) ;
#447 = ORIENTED_EDGE ( 'NONE', *, *, #98, .T. ) ;
#448 = VECTOR ( 'NONE', #285, 1000.000000000000000 ) ;
#449 = VERTEX_POINT ( 'NONE', #305 ) ;
#450 = DIRECTION ( 'NONE',  ( -0.000000000000000000, -0.000000000000000000, 1.000000000000000000 ) ) ;
#451 = LINE ( 'NONE', #47, #125 ) ;
#452 = PRODUCT ( '摄像机支架', '摄像机支架', '', ( #35 ) ) ;
#453 = VERTEX_POINT ( 'NONE', #312 ) ;
#454 = ORIENTED_EDGE ( 'NONE', *, *, #157, .F. ) ;
#455 = ORIENTED_EDGE ( 'NONE', *, *, #368, .T. ) ;
#456 = ORIENTED_EDGE ( 'NONE', *, *, #63, .T. ) ;
#457 = ADVANCED_FACE ( 'NONE', ( #459 ), #422, .F. ) ;
#458 = EDGE_LOOP ( 'NONE', ( #265, #20, #275, #86 ) ) ;
#459 = FACE_OUTER_BOUND ( 'NONE', #235, .T. ) ;
#460 = VECTOR ( 'NONE', #8, 1000.000000000000000 ) ;
#461 = LINE ( 'NONE', #246, #93 ) ;
#462 = DIRECTION ( 'NONE',  ( 0.000000000000000000, -1.000000000000000000, 0.000000000000000000 ) ) ;
#463 = LINE ( 'NONE', #354, #19 ) ;
#464 = ADVANCED_FACE ( 'NONE', ( #208 ), #34, .T. ) ;
#465 = LINE ( 'NONE', #209, #206 ) ;
#466 = CARTESIAN_POINT ( 'NONE',  ( 40.00000000000000000, 40.00000000000000000, 21.00000000000000000 ) ) ;
ENDSEC;
END-ISO-10303-21;
