ISO-10303-21;
HEADER;
FILE_DESCRIPTION(
  ('This file contains a STEP AP42 implementation'
    ,'as created by ZW3D STEP Interface translator.')
  ,'2;1'
  );
FILE_NAME(
  '3mm±§½ôÊ½Áù½ÇÁªÖáÆ÷.stp'
  ,'25 512.172855',
  (''),
  ('ZWCAD Software Co.'),
  'Version 1.0',
  'ZW3D to STEP translator',
  ''
  );
FILE_SCHEMA(('AUTOMOTIVE_DESIGN { 1 0 10303 214 1 1 1 1 }'));
ENDSEC;

DATA;

/**File Base Unit**/
#1 = (LENGTH_UNIT()NAMED_UNIT(*)SI_UNIT(.MILLI.,.METRE.));
#2 = (NAMED_UNIT(*)PLANE_ANGLE_UNIT()SI_UNIT($,.RADIAN.));
#3 = (NAMED_UNIT(*)SI_UNIT($,.STERADIAN.)SOLID_ANGLE_UNIT());
#4 = UNCERTAINTY_MEASURE_WITH_UNIT(LENGTH_MEASURE(0.01),#1,'DISTANCE_ACCURACY_VALUE','Maximum Tolerance applied to model');
#5 = (GEOMETRIC_REPRESENTATION_CONTEXT(3)GLOBAL_UNCERTAINTY_ASSIGNED_CONTEXT((#4))GLOBAL_UNIT_ASSIGNED_CONTEXT((#1,#2,#3))REPRESENTATION_CONTEXT('STEP 203','TOP_LEVEL_ASSEMBLY_PART'));

/**product_definition_shape**/
#6=APPLICATION_CONTEXT('mechanical parts and assemblies' );
#7=DESIGN_CONTEXT('NONE',#6,'design');
#8=MECHANICAL_CONTEXT('NONE',#6,'mechanical');
#9=PRODUCT('0','Part','',(#8));
#10=PRODUCT_DEFINITION_FORMATION_WITH_SPECIFIED_SOURCE('ANY','',#9,.NOT_KNOWN.);
#11=PRODUCT_DEFINITION('UNKNOWN','',#10,#7);
#12=PRODUCT_DEFINITION_SHAPE('NONE','NONE',#11);
#13=PRODUCT_RELATED_PRODUCT_CATEGORY('detail','',(#9));
/**geometry information**/
#14=CARTESIAN_POINT('',(0.,0.,0.));
#15=DIRECTION('',(0.,0.,1.));
#16=DIRECTION('',(1.,0.,0.));
#17=AXIS2_PLACEMENT_3D('',#14,#15,#16);
#18=APPLICATION_CONTEXT('part');
#19=MECHANICAL_CONTEXT('none',#18,'component');
#20=PRODUCT('3mm±§½ôÊ½Áù½ÇÁªÖáÆ÷','3mm±§½ôÊ½Áù½ÇÁªÖáÆ÷','',(#19));
#21=PRODUCT_RELATED_PRODUCT_CATEGORY('detail','',(#20));
#22=PRODUCT_DEFINITION_FORMATION_WITH_SPECIFIED_SOURCE('ANY','UNSPECIFIED',#20,.NOT_KNOWN.);
#23=APPLICATION_CONTEXT('part');
#24=APPLICATION_PROTOCOL_DEFINITION('international standard','config_control_design',1994,#23);
#25=DESIGN_CONTEXT('detailed',#23,'design');
#26=PRODUCT_DEFINITION('','UNSPECIFIED',#22,#25);
#27=PRODUCT_DEFINITION_SHAPE('NONE','NONE',#26);
#28=SHAPE_REPRESENTATION('3mm±§½ôÊ½Áù½ÇÁªÖáÆ÷',(#17),#5);
#29=SHAPE_DEFINITION_REPRESENTATION(#27,#28);
#30=CARTESIAN_POINT('',(0.92820323027551,0.,-1.7763568394003E-15));
#31=DIRECTION('',(1.,0.,0.));
#32=DIRECTION('',(-0.,1.,0.));
#33=AXIS2_PLACEMENT_3D('',#30,#32,#31);
#34=PLANE('',#33);
#35=CARTESIAN_POINT('',(1.920112911611,1.8762211176203E-16,-5.8196255238824));
#36=VERTEX_POINT('',#35);
#37=CARTESIAN_POINT('',(-1.920112911611,1.8762211176203E-16,-5.8196255238824));
#38=VERTEX_POINT('',#37);
#39=CARTESIAN_POINT('',(5.1250358699021E-16,3.7524422352407E-16,2.5757174171304E-14));
#40=DIRECTION('',(0.31332396127546,-1.6090787045944E-32,-0.94964630009844));
#41=DIRECTION('',(0.,1.,-2.9958300750615E-32));
#42=AXIS2_PLACEMENT_3D('',#39,#41,#40);
#43=CIRCLE('',#42,6.1282032302755);
#44=EDGE_CURVE('',#36,#38,#43,.T.);
#45=ORIENTED_EDGE('',*,*,#44,.T.);
#46=CARTESIAN_POINT('',(-4.079887088389,-7.9534288736695E-18,-4.5726793215308));
#47=VERTEX_POINT('',#46);
#48=CARTESIAN_POINT('',(-1.920112911611,1.8762211176203E-16,-5.8196255238824));
#49=DIRECTION('',(-0.86602540378444,-7.8421803710083E-17,0.50000000000001));
#50=VECTOR('',#49,2.4938924047032);
#51=LINE('',#48,#50);
#52=EDGE_CURVE('',#38,#47,#51,.T.);
#53=ORIENTED_EDGE('',*,*,#52,.T.);
#54=CARTESIAN_POINT('',(-6.,-1.9469440220585E-17,-1.2469462023516));
#55=VERTEX_POINT('',#54);
#56=CARTESIAN_POINT('',(7.9936057773011E-15,3.7524422352407E-16,5.3290705182008E-15));
#57=DIRECTION('',(-0.66575583985742,-1.6090787045944E-32,-0.74616966012814));
#58=DIRECTION('',(-1.7296433002832E-32,1.,-9.9861002502053E-33));
#59=AXIS2_PLACEMENT_3D('',#56,#58,#57);
#60=CIRCLE('',#59,6.1282032302755);
#61=EDGE_CURVE('',#47,#55,#60,.T.);
#62=ORIENTED_EDGE('',*,*,#61,.T.);
#63=CARTESIAN_POINT('',(-6.,1.8753631901554E-16,1.2469462023515));
#64=VERTEX_POINT('',#63);
#65=CARTESIAN_POINT('',(-6.,-1.9469440220585E-17,-1.2469462023516));
#66=DIRECTION('',(0.,8.3005088289192E-17,1.));
#67=VECTOR('',#66,2.4938924047031);
#68=LINE('',#65,#67);
#69=EDGE_CURVE('',#55,#64,#68,.T.);
#70=ORIENTED_EDGE('',*,*,#69,.T.);
#71=CARTESIAN_POINT('',(-4.0798870837859,1.8762211176203E-16,4.5726793256379));
#72=VERTEX_POINT('',#71);
#73=CARTESIAN_POINT('',(-4.4408920985006E-15,3.7524422352407E-16,2.2204460492503E-15));
#74=DIRECTION('',(-0.97907980113288,3.2181574091887E-32,0.20347663997028));
#75=DIRECTION('',(4.3241082359083E-32,1.,-2.4965250569086E-32));
#76=AXIS2_PLACEMENT_3D('',#73,#75,#74);
#77=CIRCLE('',#76,6.1282032302755);
#78=EDGE_CURVE('',#64,#72,#77,.T.);
#79=ORIENTED_EDGE('',*,*,#78,.T.);
#80=CARTESIAN_POINT('',(-1.9201129116107,1.8758826523162E-16,5.8196255238825));
#81=VERTEX_POINT('',#80);
#82=CARTESIAN_POINT('',(-4.0798870837859,1.8762211176203E-16,4.5726793256379));
#83=DIRECTION('',(0.86602540403612,-1.3571768544689E-20,0.49999999956407));
#84=VECTOR('',#83,2.4938923986635);
#85=LINE('',#82,#84);
#86=EDGE_CURVE('',#72,#81,#85,.T.);
#87=ORIENTED_EDGE('',*,*,#86,.T.);
#88=CARTESIAN_POINT('',(1.9201129116109,1.8550693639292E-16,5.8196255238825));
#89=VERTEX_POINT('',#88);
#90=CARTESIAN_POINT('',(3.0841326030853E-15,3.7524422352407E-16,1.1546319456102E-14));
#91=DIRECTION('',(-0.31332396127541,-3.2181574091887E-32,0.94964630009845));
#92=DIRECTION('',(5.2543715032737E-46,1.,3.4951350875725E-32));
#93=AXIS2_PLACEMENT_3D('',#90,#92,#91);
#94=CIRCLE('',#93,6.1282032302755);
#95=EDGE_CURVE('',#81,#89,#94,.T.);
#96=ORIENTED_EDGE('',*,*,#95,.T.);
#97=CARTESIAN_POINT('',(4.0798870883882,1.8762211176203E-16,4.5726793215315));
#98=VERTEX_POINT('',#97);
#99=CARTESIAN_POINT('',(1.9201129116109,1.8550693639292E-16,5.8196255238825));
#100=DIRECTION('',(0.86602540378447,8.4814219134788E-19,-0.49999999999995));
#101=VECTOR('',#100,2.4938924047023);
#102=LINE('',#99,#101);
#103=EDGE_CURVE('',#89,#98,#102,.T.);
#104=ORIENTED_EDGE('',*,*,#103,.T.);
#105=CARTESIAN_POINT('',(6.,2.0619980196276E-16,1.2469462023516));
#106=VERTEX_POINT('',#105);
#107=CARTESIAN_POINT('',(-3.5527136788005E-15,3.7524422352407E-16,-4.4408920985006E-16));
#108=DIRECTION('',(0.66575583985729,-8.0453935229718E-33,0.74616966012825));
#109=DIRECTION('',(1.7296433002822E-32,1.,9.9861002502014E-33));
#110=AXIS2_PLACEMENT_3D('',#107,#109,#108);
#111=CIRCLE('',#110,6.1282032302755);
#112=EDGE_CURVE('',#98,#106,#111,.T.);
#113=ORIENTED_EDGE('',*,*,#112,.T.);
#114=CARTESIAN_POINT('',(6.,2.0932519004613E-16,-1.2469462023516));
#115=VERTEX_POINT('',#114);
#116=CARTESIAN_POINT('',(6.,2.0619980196276E-16,1.2469462023516));
#117=DIRECTION('',(0.,1.2532168899812E-18,-1.));
#118=VECTOR('',#117,2.4938924047032);
#119=LINE('',#116,#118);
#120=EDGE_CURVE('',#106,#115,#119,.T.);
#121=ORIENTED_EDGE('',*,*,#120,.T.);
#122=CARTESIAN_POINT('',(4.079887088389,0.,-4.5726793215308));
#123=VERTEX_POINT('',#122);
#124=CARTESIAN_POINT('',(8.8817841970013E-16,3.7524422352407E-16,8.8817841970013E-16));
#125=DIRECTION('',(0.97907980113288,-2.4136180568915E-32,-0.2034766399703));
#126=DIRECTION('',(3.0268757754956E-32,1.,-1.7475675437859E-32));
#127=AXIS2_PLACEMENT_3D('',#124,#126,#125);
#128=CIRCLE('',#127,6.1282032302755);
#129=EDGE_CURVE('',#115,#123,#128,.T.);
#130=ORIENTED_EDGE('',*,*,#129,.T.);
#131=CARTESIAN_POINT('',(4.079887088389,0.,-4.5726793215308));
#132=DIRECTION('',(-0.86602540378444,7.5232640914339E-17,-0.50000000000001));
#133=VECTOR('',#132,2.4938924047032);
#134=LINE('',#131,#133);
#135=EDGE_CURVE('',#123,#36,#134,.T.);
#136=ORIENTED_EDGE('',*,*,#135,.T.);
#137=EDGE_LOOP('',(#45,#53,#62,#70,#79,#87,#96,#104,#113,#121,#130,#136));
#138=FACE_OUTER_BOUND('',#137,.T.);
#139=CARTESIAN_POINT('',(4.0792946741241E-16,1.1102230246252E-15,1.65));
#140=VERTEX_POINT('',#139);
#141=CARTESIAN_POINT('',(4.864340903466E-16,1.6462861212869E-15,-2.4424906541753E-15));
#142=DIRECTION('',(-4.7578559354054E-17,-3.2488672524957E-16,1.));
#143=DIRECTION('',(-8.6317667658298E-16,-1.,-3.2488672524957E-16));
#144=AXIS2_PLACEMENT_3D('',#141,#143,#142);
#145=CIRCLE('',#144,1.65);
#146=EDGE_CURVE('',#140,#140,#145,.T.);
#147=ORIENTED_EDGE('',*,*,#146,.T.);
#148=EDGE_LOOP('',(#147));
#149=FACE_BOUND('',#148,.T.);
#150=ADVANCED_FACE('',(#138,#149),#34,.T.);
#151=CARTESIAN_POINT('',(3.,-3.25,5.1961524227066));
#152=DIRECTION('',(-0.86602540378444,0.,0.5));
#153=DIRECTION('',(0.5,0.,0.86602540378444));
#154=AXIS2_PLACEMENT_3D('',#151,#153,#152);
#155=PLANE('',#154);
#156=CARTESIAN_POINT('',(-3.9968028886506E-15,-6.5,6.9282032302755));
#157=VERTEX_POINT('',#156);
#158=CARTESIAN_POINT('',(6.,-6.5,3.4641016151378));
#159=VERTEX_POINT('',#158);
#160=CARTESIAN_POINT('',(-3.9968028886506E-15,-6.5,6.9282032302755));
#161=DIRECTION('',(0.86602540378444,0.,-0.49999999999999));
#162=VECTOR('',#161,6.9282032302755);
#163=LINE('',#160,#162);
#164=EDGE_CURVE('',#157,#159,#163,.T.);
#165=ORIENTED_EDGE('',*,*,#164,.T.);
#166=CARTESIAN_POINT('',(6.,-0.6,3.4641016151378));
#167=VERTEX_POINT('',#166);
#168=CARTESIAN_POINT('',(6.,-6.5,3.4641016151378));
#169=DIRECTION('',(0.,1.,0.));
#170=VECTOR('',#169,5.9);
#171=LINE('',#168,#170);
#172=EDGE_CURVE('',#159,#167,#171,.T.);
#173=ORIENTED_EDGE('',*,*,#172,.T.);
#174=CARTESIAN_POINT('',(6.,-0.6,3.4641016151378));
#175=CARTESIAN_POINT('',(4.981118386831,-0.15881131977338,4.0523531887733));
#176=CARTESIAN_POINT('',(4.079887088389,0.,4.5726793215308));
#177=(BOUNDED_CURVE()B_SPLINE_CURVE(2,(#174,#175,#176),.HYPERBOLIC_ARC.,.F.,.U.)B_SPLINE_CURVE_WITH_KNOTS((3,3),(0.,1.),.UNSPECIFIED.)CURVE()GEOMETRIC_REPRESENTATION_ITEM()RATIONAL_B_SPLINE_CURVE((1.,1.0476704925597,1.065961955354))REPRESENTATION_ITEM(''));
#178=EDGE_CURVE('',#167,#98,#177,.T.);
#179=ORIENTED_EDGE('',*,*,#178,.T.);
#180=ORIENTED_EDGE('',*,*,#103,.F.);
#181=CARTESIAN_POINT('',(-5.1866373683888E-15,-0.6,6.9282032302755));
#182=VERTEX_POINT('',#181);
#183=CARTESIAN_POINT('',(1.920112911611,0.,5.8196255238825));
#184=CARTESIAN_POINT('',(1.018881613169,-0.15881131977338,6.33995165664));
#185=CARTESIAN_POINT('',(-5.7731597280508E-15,-0.6,6.9282032302755));
#186=(BOUNDED_CURVE()B_SPLINE_CURVE(2,(#183,#184,#185),.HYPERBOLIC_ARC.,.F.,.U.)B_SPLINE_CURVE_WITH_KNOTS((3,3),(0.,1.),.UNSPECIFIED.)CURVE()GEOMETRIC_REPRESENTATION_ITEM()RATIONAL_B_SPLINE_CURVE((1.065961955354,1.0476704925597,1.))REPRESENTATION_ITEM(''));
#187=EDGE_CURVE('',#89,#182,#186,.T.);
#188=ORIENTED_EDGE('',*,*,#187,.T.);
#189=CARTESIAN_POINT('',(-5.1866373683888E-15,-0.6,6.9282032302755));
#190=DIRECTION('',(2.0166686097258E-16,-1.,0.));
#191=VECTOR('',#190,5.9);
#192=LINE('',#189,#191);
#193=EDGE_CURVE('',#182,#157,#192,.T.);
#194=ORIENTED_EDGE('',*,*,#193,.T.);
#195=EDGE_LOOP('',(#165,#173,#179,#180,#188,#194));
#196=FACE_OUTER_BOUND('',#195,.T.);
#197=ADVANCED_FACE('',(#196),#155,.T.);
#198=CARTESIAN_POINT('',(-3.,-3.25,5.1961524227066));
#199=DIRECTION('',(-0.86602540378444,0.,-0.5));
#200=DIRECTION('',(-0.5,0.,0.86602540378444));
#201=AXIS2_PLACEMENT_3D('',#198,#200,#199);
#202=PLANE('',#201);
#203=CARTESIAN_POINT('',(-6.,-6.5,3.4641016151378));
#204=VERTEX_POINT('',#203);
#205=CARTESIAN_POINT('',(-6.,-6.5,3.4641016151378));
#206=DIRECTION('',(0.86602540378444,0.,0.49999999999999));
#207=VECTOR('',#206,6.9282032302755);
#208=LINE('',#205,#207);
#209=EDGE_CURVE('',#204,#157,#208,.T.);
#210=ORIENTED_EDGE('',*,*,#209,.T.);
#211=ORIENTED_EDGE('',*,*,#193,.F.);
#212=CARTESIAN_POINT('',(-8.8817841970013E-16,-0.6,6.9282032302755));
#213=CARTESIAN_POINT('',(-1.018881613169,-0.15881131977338,6.33995165664));
#214=CARTESIAN_POINT('',(-1.920112911611,0.,5.8196255238824));
#215=(BOUNDED_CURVE()B_SPLINE_CURVE(2,(#212,#213,#214),.HYPERBOLIC_ARC.,.F.,.U.)B_SPLINE_CURVE_WITH_KNOTS((3,3),(0.,1.),.UNSPECIFIED.)CURVE()GEOMETRIC_REPRESENTATION_ITEM()RATIONAL_B_SPLINE_CURVE((1.,1.0476704925597,1.065961955354))REPRESENTATION_ITEM(''));
#216=EDGE_CURVE('',#182,#81,#215,.T.);
#217=ORIENTED_EDGE('',*,*,#216,.T.);
#218=ORIENTED_EDGE('',*,*,#86,.F.);
#219=CARTESIAN_POINT('',(-6.,-0.6,3.4641016151378));
#220=VERTEX_POINT('',#219);
#221=CARTESIAN_POINT('',(-4.079887088389,-4.1660887390917E-16,4.5726793215308));
#222=CARTESIAN_POINT('',(-4.981118386831,-0.15881131977338,4.0523531887733));
#223=CARTESIAN_POINT('',(-6.,-0.6,3.4641016151378));
#224=(BOUNDED_CURVE()B_SPLINE_CURVE(2,(#221,#222,#223),.HYPERBOLIC_ARC.,.F.,.U.)B_SPLINE_CURVE_WITH_KNOTS((3,3),(0.,1.),.UNSPECIFIED.)CURVE()GEOMETRIC_REPRESENTATION_ITEM()RATIONAL_B_SPLINE_CURVE((1.065961955354,1.0476704925597,1.))REPRESENTATION_ITEM(''));
#225=EDGE_CURVE('',#72,#220,#224,.T.);
#226=ORIENTED_EDGE('',*,*,#225,.T.);
#227=CARTESIAN_POINT('',(-6.,-0.6,3.4641016151378));
#228=DIRECTION('',(0.,-1.,0.));
#229=VECTOR('',#228,5.9);
#230=LINE('',#227,#229);
#231=EDGE_CURVE('',#220,#204,#230,.T.);
#232=ORIENTED_EDGE('',*,*,#231,.T.);
#233=EDGE_LOOP('',(#210,#211,#217,#218,#226,#232));
#234=FACE_OUTER_BOUND('',#233,.T.);
#235=ADVANCED_FACE('',(#234),#202,.T.);
#236=CARTESIAN_POINT('',(-6.,-3.25,-2.2204460492503E-15));
#237=DIRECTION('',(5.1279004970228E-16,0.,-1.));
#238=DIRECTION('',(-1.,-0.,-5.1279004970228E-16));
#239=AXIS2_PLACEMENT_3D('',#236,#238,#237);
#240=PLANE('',#239);
#241=CARTESIAN_POINT('',(-6.,-6.5,-3.4641016151378));
#242=VERTEX_POINT('',#241);
#243=CARTESIAN_POINT('',(-6.,-6.5,-3.4641016151378));
#244=DIRECTION('',(0.,0.,1.));
#245=VECTOR('',#244,6.9282032302756);
#246=LINE('',#243,#245);
#247=EDGE_CURVE('',#242,#204,#246,.T.);
#248=ORIENTED_EDGE('',*,*,#247,.T.);
#249=ORIENTED_EDGE('',*,*,#231,.F.);
#250=CARTESIAN_POINT('',(-6.,-0.6,3.4641016151378));
#251=CARTESIAN_POINT('',(-6.,-0.15881131977338,2.2875984678667));
#252=CARTESIAN_POINT('',(-6.,-4.1660887390917E-16,1.2469462023516));
#253=(BOUNDED_CURVE()B_SPLINE_CURVE(2,(#250,#251,#252),.HYPERBOLIC_ARC.,.F.,.U.)B_SPLINE_CURVE_WITH_KNOTS((3,3),(0.,1.),.UNSPECIFIED.)CURVE()GEOMETRIC_REPRESENTATION_ITEM()RATIONAL_B_SPLINE_CURVE((1.,1.0476704925597,1.065961955354))REPRESENTATION_ITEM(''));
#254=EDGE_CURVE('',#220,#64,#253,.T.);
#255=ORIENTED_EDGE('',*,*,#254,.T.);
#256=ORIENTED_EDGE('',*,*,#69,.F.);
#257=CARTESIAN_POINT('',(-6.,-0.6,-3.4641016151378));
#258=VERTEX_POINT('',#257);
#259=CARTESIAN_POINT('',(-6.,-4.1660887390917E-16,-1.2469462023516));
#260=CARTESIAN_POINT('',(-6.,-0.15881131977338,-2.2875984678667));
#261=CARTESIAN_POINT('',(-6.,-0.6,-3.4641016151378));
#262=(BOUNDED_CURVE()B_SPLINE_CURVE(2,(#259,#260,#261),.HYPERBOLIC_ARC.,.F.,.U.)B_SPLINE_CURVE_WITH_KNOTS((3,3),(0.,1.),.UNSPECIFIED.)CURVE()GEOMETRIC_REPRESENTATION_ITEM()RATIONAL_B_SPLINE_CURVE((1.065961955354,1.0476704925597,1.))REPRESENTATION_ITEM(''));
#263=EDGE_CURVE('',#55,#258,#262,.T.);
#264=ORIENTED_EDGE('',*,*,#263,.T.);
#265=CARTESIAN_POINT('',(-6.,-0.6,-3.4641016151378));
#266=DIRECTION('',(0.,-1.,0.));
#267=VECTOR('',#266,5.9);
#268=LINE('',#265,#267);
#269=EDGE_CURVE('',#258,#242,#268,.T.);
#270=ORIENTED_EDGE('',*,*,#269,.T.);
#271=EDGE_LOOP('',(#248,#249,#255,#256,#264,#270));
#272=FACE_OUTER_BOUND('',#271,.T.);
#273=ADVANCED_FACE('',(#272),#240,.T.);
#274=CARTESIAN_POINT('',(-3.,-3.25,-5.1961524227066));
#275=DIRECTION('',(0.86602540378444,0.,-0.5));
#276=DIRECTION('',(-0.5,-0.,-0.86602540378444));
#277=AXIS2_PLACEMENT_3D('',#274,#276,#275);
#278=PLANE('',#277);
#279=CARTESIAN_POINT('',(1.3322676295502E-15,-6.5,-6.9282032302755));
#280=VERTEX_POINT('',#279);
#281=CARTESIAN_POINT('',(1.3322676295502E-15,-6.5,-6.9282032302755));
#282=DIRECTION('',(-0.86602540378444,0.,0.49999999999999));
#283=VECTOR('',#282,6.9282032302755);
#284=LINE('',#281,#283);
#285=EDGE_CURVE('',#280,#242,#284,.T.);
#286=ORIENTED_EDGE('',*,*,#285,.T.);
#287=ORIENTED_EDGE('',*,*,#269,.F.);
#288=CARTESIAN_POINT('',(-6.,-0.6,-3.4641016151378));
#289=CARTESIAN_POINT('',(-4.981118386831,-0.15881131977338,-4.0523531887733));
#290=CARTESIAN_POINT('',(-4.079887088389,-4.1660887390917E-16,-4.5726793215308));
#291=(BOUNDED_CURVE()B_SPLINE_CURVE(2,(#288,#289,#290),.HYPERBOLIC_ARC.,.F.,.U.)B_SPLINE_CURVE_WITH_KNOTS((3,3),(0.,1.),.UNSPECIFIED.)CURVE()GEOMETRIC_REPRESENTATION_ITEM()RATIONAL_B_SPLINE_CURVE((1.,1.0476704925597,1.065961955354))REPRESENTATION_ITEM(''));
#292=EDGE_CURVE('',#258,#47,#291,.T.);
#293=ORIENTED_EDGE('',*,*,#292,.T.);
#294=ORIENTED_EDGE('',*,*,#52,.F.);
#295=CARTESIAN_POINT('',(2.3171787497941E-15,-0.6,-6.9282032302755));
#296=VERTEX_POINT('',#295);
#297=CARTESIAN_POINT('',(-1.920112911611,-4.1660887390917E-16,-5.8196255238824));
#298=CARTESIAN_POINT('',(-1.018881613169,-0.15881131977338,-6.33995165664));
#299=CARTESIAN_POINT('',(0.,-0.6,-6.9282032302755));
#300=(BOUNDED_CURVE()B_SPLINE_CURVE(2,(#297,#298,#299),.HYPERBOLIC_ARC.,.F.,.U.)B_SPLINE_CURVE_WITH_KNOTS((3,3),(0.,1.),.UNSPECIFIED.)CURVE()GEOMETRIC_REPRESENTATION_ITEM()RATIONAL_B_SPLINE_CURVE((1.065961955354,1.0476704925597,1.))REPRESENTATION_ITEM(''));
#301=EDGE_CURVE('',#38,#296,#300,.T.);
#302=ORIENTED_EDGE('',*,*,#301,.T.);
#303=CARTESIAN_POINT('',(2.3171787497941E-15,-0.6,-6.9282032302755));
#304=DIRECTION('',(-1.6693408817693E-16,-1.,0.));
#305=VECTOR('',#304,5.9);
#306=LINE('',#303,#305);
#307=EDGE_CURVE('',#296,#280,#306,.T.);
#308=ORIENTED_EDGE('',*,*,#307,.T.);
#309=EDGE_LOOP('',(#286,#287,#293,#294,#302,#308));
#310=FACE_OUTER_BOUND('',#309,.T.);
#311=ADVANCED_FACE('',(#310),#278,.T.);
#312=CARTESIAN_POINT('',(3.,-3.25,-5.1961524227066));
#313=DIRECTION('',(0.86602540378444,0.,0.5));
#314=DIRECTION('',(0.5,0.,-0.86602540378444));
#315=AXIS2_PLACEMENT_3D('',#312,#314,#313);
#316=PLANE('',#315);
#317=CARTESIAN_POINT('',(6.,-6.5,-3.4641016151378));
#318=VERTEX_POINT('',#317);
#319=CARTESIAN_POINT('',(6.,-6.5,-3.4641016151378));
#320=DIRECTION('',(-0.86602540378444,0.,-0.49999999999999));
#321=VECTOR('',#320,6.9282032302755);
#322=LINE('',#319,#321);
#323=EDGE_CURVE('',#318,#280,#322,.T.);
#324=ORIENTED_EDGE('',*,*,#323,.T.);
#325=ORIENTED_EDGE('',*,*,#307,.F.);
#326=CARTESIAN_POINT('',(4.4408920985006E-15,-0.6,-6.9282032302755));
#327=CARTESIAN_POINT('',(1.018881613169,-0.15881131977338,-6.33995165664));
#328=CARTESIAN_POINT('',(1.920112911611,0.,-5.8196255238824));
#329=(BOUNDED_CURVE()B_SPLINE_CURVE(2,(#326,#327,#328),.HYPERBOLIC_ARC.,.F.,.U.)B_SPLINE_CURVE_WITH_KNOTS((3,3),(0.,1.),.UNSPECIFIED.)CURVE()GEOMETRIC_REPRESENTATION_ITEM()RATIONAL_B_SPLINE_CURVE((1.,1.0476704925597,1.065961955354))REPRESENTATION_ITEM(''));
#330=EDGE_CURVE('',#296,#36,#329,.T.);
#331=ORIENTED_EDGE('',*,*,#330,.T.);
#332=ORIENTED_EDGE('',*,*,#135,.F.);
#333=CARTESIAN_POINT('',(6.,-0.6,-3.4641016151378));
#334=VERTEX_POINT('',#333);
#335=CARTESIAN_POINT('',(4.079887088389,0.,-4.5726793215308));
#336=CARTESIAN_POINT('',(4.981118386831,-0.15881131977338,-4.0523531887733));
#337=CARTESIAN_POINT('',(6.,-0.6,-3.4641016151378));
#338=(BOUNDED_CURVE()B_SPLINE_CURVE(2,(#335,#336,#337),.HYPERBOLIC_ARC.,.F.,.U.)B_SPLINE_CURVE_WITH_KNOTS((3,3),(0.,1.),.UNSPECIFIED.)CURVE()GEOMETRIC_REPRESENTATION_ITEM()RATIONAL_B_SPLINE_CURVE((1.065961955354,1.0476704925597,1.))REPRESENTATION_ITEM(''));
#339=EDGE_CURVE('',#123,#334,#338,.T.);
#340=ORIENTED_EDGE('',*,*,#339,.T.);
#341=CARTESIAN_POINT('',(6.,-0.6,-3.4641016151378));
#342=DIRECTION('',(0.,-1.,0.));
#343=VECTOR('',#342,5.9);
#344=LINE('',#341,#343);
#345=EDGE_CURVE('',#334,#318,#344,.T.);
#346=ORIENTED_EDGE('',*,*,#345,.T.);
#347=EDGE_LOOP('',(#324,#325,#331,#332,#340,#346));
#348=FACE_OUTER_BOUND('',#347,.T.);
#349=ADVANCED_FACE('',(#348),#316,.T.);
#350=CARTESIAN_POINT('',(6.,-3.25,0.));
#351=DIRECTION('',(0.,0.,1.));
#352=DIRECTION('',(1.,0.,-0.));
#353=AXIS2_PLACEMENT_3D('',#350,#352,#351);
#354=PLANE('',#353);
#355=CARTESIAN_POINT('',(6.,-6.5,3.4641016151378));
#356=DIRECTION('',(0.,0.,-1.));
#357=VECTOR('',#356,6.9282032302756);
#358=LINE('',#355,#357);
#359=EDGE_CURVE('',#159,#318,#358,.T.);
#360=ORIENTED_EDGE('',*,*,#359,.T.);
#361=ORIENTED_EDGE('',*,*,#345,.F.);
#362=CARTESIAN_POINT('',(6.,-0.6,-3.4641016151378));
#363=CARTESIAN_POINT('',(6.,-0.15881131977338,-2.2875984678668));
#364=CARTESIAN_POINT('',(6.,4.1660887390917E-16,-1.2469462023516));
#365=(BOUNDED_CURVE()B_SPLINE_CURVE(2,(#362,#363,#364),.HYPERBOLIC_ARC.,.F.,.U.)B_SPLINE_CURVE_WITH_KNOTS((3,3),(0.,1.),.UNSPECIFIED.)CURVE()GEOMETRIC_REPRESENTATION_ITEM()RATIONAL_B_SPLINE_CURVE((1.,1.0476704925597,1.065961955354))REPRESENTATION_ITEM(''));
#366=EDGE_CURVE('',#334,#115,#365,.T.);
#367=ORIENTED_EDGE('',*,*,#366,.T.);
#368=ORIENTED_EDGE('',*,*,#120,.F.);
#369=CARTESIAN_POINT('',(6.,4.1660887390917E-16,1.2469462023516));
#370=CARTESIAN_POINT('',(6.,-0.15881131977338,2.2875984678668));
#371=CARTESIAN_POINT('',(6.,-0.6,3.4641016151378));
#372=(BOUNDED_CURVE()B_SPLINE_CURVE(2,(#369,#370,#371),.HYPERBOLIC_ARC.,.F.,.U.)B_SPLINE_CURVE_WITH_KNOTS((3,3),(0.,1.),.UNSPECIFIED.)CURVE()GEOMETRIC_REPRESENTATION_ITEM()RATIONAL_B_SPLINE_CURVE((1.065961955354,1.0476704925597,1.))REPRESENTATION_ITEM(''));
#373=EDGE_CURVE('',#106,#167,#372,.T.);
#374=ORIENTED_EDGE('',*,*,#373,.T.);
#375=ORIENTED_EDGE('',*,*,#172,.F.);
#376=EDGE_LOOP('',(#360,#361,#367,#368,#374,#375));
#377=FACE_OUTER_BOUND('',#376,.T.);
#378=ADVANCED_FACE('',(#377),#354,.T.);
#379=CARTESIAN_POINT('',(-8.8817841970013E-16,4.5961524227066,-1.7763568394003E-15));
#380=DIRECTION('',(-0.86602540378442,-8.9820224570975E-17,-0.50000000000003));
#381=DIRECTION('',(2.1291277202842E-17,-1.,1.4276287526859E-16));
#382=AXIS2_PLACEMENT_3D('',#379,#381,#380);
#383=CONICAL_SURFACE('',#382,0.,0.92729521800161);
#384=ORIENTED_EDGE('',*,*,#112,.F.);
#385=ORIENTED_EDGE('',*,*,#178,.F.);
#386=ORIENTED_EDGE('',*,*,#373,.F.);
#387=EDGE_LOOP('',(#384,#385,#386));
#388=FACE_OUTER_BOUND('',#387,.T.);
#389=ADVANCED_FACE('',(#388),#383,.T.);
#390=CARTESIAN_POINT('',(-8.8817841970013E-16,4.5961524227066,-1.7763568394003E-15));
#391=DIRECTION('',(-4.9101554738596E-15,-2.3386395696448E-17,-1.));
#392=DIRECTION('',(7.299643264986E-17,-1.,2.3386395696448E-17));
#393=AXIS2_PLACEMENT_3D('',#390,#392,#391);
#394=CONICAL_SURFACE('',#393,0.,0.92729521800161);
#395=ORIENTED_EDGE('',*,*,#95,.F.);
#396=ORIENTED_EDGE('',*,*,#216,.F.);
#397=ORIENTED_EDGE('',*,*,#187,.F.);
#398=EDGE_LOOP('',(#395,#396,#397));
#399=FACE_OUTER_BOUND('',#398,.T.);
#400=ADVANCED_FACE('',(#399),#394,.T.);
#401=CARTESIAN_POINT('',(-8.8817841970013E-16,4.5961524227066,-1.7763568394003E-15));
#402=DIRECTION('',(0.86602540370378,1.1491258532003E-16,-0.50000000013971));
#403=DIRECTION('',(1.1685188901189E-16,-1.,-2.7431761922257E-17));
#404=AXIS2_PLACEMENT_3D('',#401,#403,#402);
#405=CONICAL_SURFACE('',#404,0.,0.92729521800161);
#406=ORIENTED_EDGE('',*,*,#78,.F.);
#407=ORIENTED_EDGE('',*,*,#254,.F.);
#408=ORIENTED_EDGE('',*,*,#225,.F.);
#409=EDGE_LOOP('',(#406,#407,#408));
#410=FACE_OUTER_BOUND('',#409,.T.);
#411=ADVANCED_FACE('',(#410),#405,.T.);
#412=CARTESIAN_POINT('',(-8.8817841970013E-16,4.5961524227066,-1.7763568394003E-15));
#413=DIRECTION('',(0.86602540378444,1.2382298024197E-16,0.5));
#414=DIRECTION('',(1.5297381545845E-16,-1.,-1.7312460117759E-17));
#415=AXIS2_PLACEMENT_3D('',#412,#414,#413);
#416=CONICAL_SURFACE('',#415,0.,0.92729521800161);
#417=ORIENTED_EDGE('',*,*,#61,.F.);
#418=ORIENTED_EDGE('',*,*,#292,.F.);
#419=ORIENTED_EDGE('',*,*,#263,.F.);
#420=EDGE_LOOP('',(#417,#418,#419));
#421=FACE_OUTER_BOUND('',#420,.T.);
#422=ADVANCED_FACE('',(#421),#416,.T.);
#423=CARTESIAN_POINT('',(-1.9761969838328E-14,4.5961524227067,5.3290705182008E-14));
#424=DIRECTION('',(-3.4161154259804E-15,8.3046000227736E-18,1.));
#425=DIRECTION('',(1.1757271457832E-16,-1.,8.304600022774E-18));
#426=AXIS2_PLACEMENT_3D('',#423,#425,#424);
#427=CONICAL_SURFACE('',#426,0.,0.92729521800161);
#428=ORIENTED_EDGE('',*,*,#301,.F.);
#429=ORIENTED_EDGE('',*,*,#44,.F.);
#430=ORIENTED_EDGE('',*,*,#330,.F.);
#431=EDGE_LOOP('',(#428,#429,#430));
#432=FACE_OUTER_BOUND('',#431,.T.);
#433=ADVANCED_FACE('',(#432),#427,.T.);
#434=CARTESIAN_POINT('',(-8.8817841970013E-16,4.5961524227066,-1.7763568394003E-15));
#435=DIRECTION('',(-0.86602540378444,4.1274326747325E-17,0.5));
#436=DIRECTION('',(-2.0497959155081E-17,-1.,4.7045146786578E-17));
#437=AXIS2_PLACEMENT_3D('',#434,#436,#435);
#438=CONICAL_SURFACE('',#437,0.,0.92729521800161);
#439=ORIENTED_EDGE('',*,*,#129,.F.);
#440=ORIENTED_EDGE('',*,*,#366,.F.);
#441=ORIENTED_EDGE('',*,*,#339,.F.);
#442=EDGE_LOOP('',(#439,#440,#441));
#443=FACE_OUTER_BOUND('',#442,.T.);
#444=ADVANCED_FACE('',(#443),#438,.T.);
#445=CARTESIAN_POINT('',(-2.2742750443837E-15,-10.,1.65));
#446=CARTESIAN_POINT('',(1.65,-10.,1.65));
#447=CARTESIAN_POINT('',(1.65,-10.,2.2624822217785E-15));
#448=CARTESIAN_POINT('',(1.65,-10.,-1.65));
#449=CARTESIAN_POINT('',(-2.0722083225243E-15,-10.,-1.65));
#450=CARTESIAN_POINT('',(-1.65,-10.,-1.65));
#451=CARTESIAN_POINT('',(-1.65,-10.,1.8583487780598E-15));
#452=CARTESIAN_POINT('',(-1.65,-10.,1.65));
#453=CARTESIAN_POINT('',(-2.2742750443837E-15,-10.,1.65));
#454=CARTESIAN_POINT('',(8.2089217578345E-16,1.5,1.65));
#455=CARTESIAN_POINT('',(1.65,1.5,1.65));
#456=CARTESIAN_POINT('',(1.65,1.5,-8.3268499838864E-16));
#457=CARTESIAN_POINT('',(1.65,1.5,-1.65));
#458=CARTESIAN_POINT('',(1.0229588976428E-15,1.5,-1.65));
#459=CARTESIAN_POINT('',(-1.65,1.5,-1.65));
#460=CARTESIAN_POINT('',(-1.65,1.5,-1.2368184421073E-15));
#461=CARTESIAN_POINT('',(-1.65,1.5,1.65));
#462=CARTESIAN_POINT('',(8.2089217578345E-16,1.5,1.65));
#463=(BOUNDED_SURFACE()B_SPLINE_SURFACE(1,2,((#445,#446,#447,#448,#449,#450,#451,#452,#453),(#454,#455,#456,#457,#458,#459,#460,#461,#462)),.UNSPECIFIED.,.F.,.T.,.U.)B_SPLINE_SURFACE_WITH_KNOTS((2,2),(3,2,2,2,3),(-0.4375,1.),(0.,0.25,0.5,0.75,1.),.UNSPECIFIED.)GEOMETRIC_REPRESENTATION_ITEM()RATIONAL_B_SPLINE_SURFACE(((1.,0.70710678118655,1.,0.70710678118655,1.,0.70710678118655,1.,0.70710678118655,1.),(1.,0.70710678118655,1.,0.70710678118655,1.,0.70710678118655,1.,0.70710678118655,1.)))REPRESENTATION_ITEM('')SURFACE());
#464=ORIENTED_EDGE('',*,*,#146,.F.);
#465=CARTESIAN_POINT('',(0.,-5.7,1.65));
#466=VERTEX_POINT('',#465);
#467=CARTESIAN_POINT('',(4.0792946741241E-16,1.1102230246252E-15,1.65));
#468=DIRECTION('',(-7.1566573230247E-17,-1.,0.));
#469=VECTOR('',#468,5.7);
#470=LINE('',#467,#469);
#471=EDGE_CURVE('',#140,#466,#470,.T.);
#472=ORIENTED_EDGE('',*,*,#471,.T.);
#473=CARTESIAN_POINT('',(-3.9252311467094E-16,-5.7,-3.9968028886506E-15));
#474=DIRECTION('',(2.3789279677027E-16,3.8062847483243E-16,1.));
#475=DIRECTION('',(-3.8062847483243E-16,-1.,3.8062847483243E-16));
#476=AXIS2_PLACEMENT_3D('',#473,#475,#474);
#477=CIRCLE('',#476,1.65);
#478=EDGE_CURVE('',#466,#466,#477,.T.);
#479=ORIENTED_EDGE('',*,*,#478,.T.);
#480=ORIENTED_EDGE('',*,*,#471,.F.);
#481=EDGE_LOOP('',(#464,#472,#479,#480));
#482=FACE_OUTER_BOUND('',#481,.T.);
#483=ADVANCED_FACE('',(#482),#463,.T.);
#484=CARTESIAN_POINT('',(4.5,-6.5,1.2434497875802E-14));
#485=DIRECTION('',(-1.,0.,0.));
#486=DIRECTION('',(0.,1.,-0.));
#487=AXIS2_PLACEMENT_3D('',#484,#486,#485);
#488=PLANE('',#487);
#489=CARTESIAN_POINT('',(-8.8,-6.5,-1.0776891832497E-15));
#490=VERTEX_POINT('',#489);
#491=CARTESIAN_POINT('',(7.105427357601E-15,-6.5,1.7838478369732E-16));
#492=DIRECTION('',(-1.,-1.0705175854662E-16,-1.4273567806216E-16));
#493=DIRECTION('',(-1.0705175854662E-16,1.,1.0705175854662E-16));
#494=AXIS2_PLACEMENT_3D('',#491,#493,#492);
#495=CIRCLE('',#494,8.8);
#496=EDGE_CURVE('',#490,#490,#495,.T.);
#497=ORIENTED_EDGE('',*,*,#496,.T.);
#498=EDGE_LOOP('',(#497));
#499=FACE_OUTER_BOUND('',#498,.T.);
#500=ORIENTED_EDGE('',*,*,#164,.F.);
#501=ORIENTED_EDGE('',*,*,#209,.F.);
#502=ORIENTED_EDGE('',*,*,#247,.F.);
#503=ORIENTED_EDGE('',*,*,#285,.F.);
#504=ORIENTED_EDGE('',*,*,#323,.F.);
#505=ORIENTED_EDGE('',*,*,#359,.F.);
#506=EDGE_LOOP('',(#500,#501,#502,#503,#504,#505));
#507=FACE_BOUND('',#506,.T.);
#508=ADVANCED_FACE('',(#499,#507),#488,.T.);
#509=CARTESIAN_POINT('',(-3.9968028886506E-15,-6.7,0.));
#510=DIRECTION('',(-1.,-1.9737298215558E-16,-1.2246467991474E-16));
#511=DIRECTION('',(4.1895208476417E-17,-1.,0.));
#512=AXIS2_PLACEMENT_3D('',#509,#511,#510);
#513=CYLINDRICAL_SURFACE('',#512,9.);
#514=CARTESIAN_POINT('',(6.8943999880708,-10.,5.7850884871789));
#515=VERTEX_POINT('',#514);
#516=CARTESIAN_POINT('',(6.8943999880708,-11.,5.7850884871789));
#517=VERTEX_POINT('',#516);
#518=CARTESIAN_POINT('',(6.8943999880708,-10.,5.7850884871789));
#519=DIRECTION('',(0.,-1.,0.));
#520=VECTOR('',#519,1.);
#521=LINE('',#518,#520);
#522=EDGE_CURVE('',#515,#517,#521,.T.);
#523=ORIENTED_EDGE('',*,*,#522,.T.);
#524=CARTESIAN_POINT('',(-8.9861003778057,-11.,0.5));
#525=VERTEX_POINT('',#524);
#526=CARTESIAN_POINT('',(5.7731597280508E-15,-11.,5.3290705182008E-15));
#527=DIRECTION('',(0.76604444311898,-1.9737298215558E-16,0.64278760968654));
#528=DIRECTION('',(-3.8830577824499E-17,-1.,-1.3725923930122E-16));
#529=AXIS2_PLACEMENT_3D('',#526,#528,#527);
#530=CIRCLE('',#529,9.);
#531=EDGE_CURVE('',#517,#525,#530,.T.);
#532=ORIENTED_EDGE('',*,*,#531,.T.);
#533=CARTESIAN_POINT('',(-8.9861003778057,-17.3,0.5));
#534=VERTEX_POINT('',#533);
#535=CARTESIAN_POINT('',(-8.9861003778057,-11.,0.5));
#536=DIRECTION('',(0.,-1.,0.));
#537=VECTOR('',#536,6.3);
#538=LINE('',#535,#537);
#539=EDGE_CURVE('',#525,#534,#538,.T.);
#540=ORIENTED_EDGE('',*,*,#539,.T.);
#541=CARTESIAN_POINT('',(-1.9914350663321,-17.3,-8.7769121208192));
#542=VERTEX_POINT('',#541);
#543=CARTESIAN_POINT('',(-2.6645352591004E-15,-17.3,-8.8817841970013E-16));
#544=DIRECTION('',(-0.99845559753397,-7.8949192862233E-16,0.055555555555556));
#545=DIRECTION('',(-5.3801370129781E-16,1.,4.2238160195994E-16));
#546=AXIS2_PLACEMENT_3D('',#543,#545,#544);
#547=CIRCLE('',#546,9.);
#548=EDGE_CURVE('',#534,#542,#547,.T.);
#549=ORIENTED_EDGE('',*,*,#548,.T.);
#550=CARTESIAN_POINT('',(-1.9914350663321,-14.4,-8.7769121208192));
#551=VERTEX_POINT('',#550);
#552=CARTESIAN_POINT('',(-1.9914350663321,-17.3,-8.7769121208192));
#553=DIRECTION('',(0.,1.,0.));
#554=VECTOR('',#553,2.9);
#555=LINE('',#552,#554);
#556=EDGE_CURVE('',#542,#551,#555,.T.);
#557=ORIENTED_EDGE('',*,*,#556,.T.);
#558=CARTESIAN_POINT('',(-5.2016780470958,-11.299873428061,-7.3445589040025));
#559=VERTEX_POINT('',#558);
#560=CARTESIAN_POINT('',(-1.9914350663321,-14.4,-8.7769121208192));
#561=CARTESIAN_POINT('',(-1.9914353006766,-14.36890442689,-8.7769120781813));
#562=CARTESIAN_POINT('',(-1.9925411090226,-14.31391296807,-8.7766611182728));
#563=CARTESIAN_POINT('',(-1.9946493692149,-14.254580643699,-8.77618231912));
#564=CARTESIAN_POINT('',(-2.0008515117622,-14.148361651848,-8.7747717524847));
#565=CARTESIAN_POINT('',(-2.0196546837132,-13.96783544141,-8.770473546509));
#566=CARTESIAN_POINT('',(-2.0660130790459,-13.704412237122,-8.7597226623642));
#567=CARTESIAN_POINT('',(-2.1511992070759,-13.403084364879,-8.739288203289));
#568=CARTESIAN_POINT('',(-2.2671882298586,-13.112102258851,-8.7100086204508));
#569=CARTESIAN_POINT('',(-2.4137054992437,-12.832794389126,-8.6707100099837));
#570=CARTESIAN_POINT('',(-2.5879929741961,-12.569901582973,-8.6204160545543));
#571=CARTESIAN_POINT('',(-2.7874826865342,-12.325886029267,-8.5581837519853));
#572=CARTESIAN_POINT('',(-2.9860310902618,-12.126509725756,-8.4907574542926));
#573=CARTESIAN_POINT('',(-3.1974998259339,-11.94481679232,-8.4138337266751));
#574=CARTESIAN_POINT('',(-3.4476791334279,-11.769453769401,-8.314621718668));
#575=CARTESIAN_POINT('',(-3.7082097446127,-11.622909056876,-8.2018294690706));
#576=CARTESIAN_POINT('',(-3.9779263026463,-11.503720835448,-8.0746242888089));
#577=CARTESIAN_POINT('',(-4.2564465362324,-11.411047584875,-7.9314698672173));
#578=CARTESIAN_POINT('',(-4.5413852754039,-11.345423362666,-7.7719619685025));
#579=CARTESIAN_POINT('',(-4.7859483919033,-11.312983802072,-7.6229332815856));
#580=CARTESIAN_POINT('',(-4.9515714068542,-11.302154955657,-7.5158421274973));
#581=CARTESIAN_POINT('',(-5.0577055662079,-11.299750651736,-7.444607977511));
#582=CARTESIAN_POINT('',(-5.1508399421306,-11.299911128007,-7.3805642649197));
#583=CARTESIAN_POINT('',(-5.2016780470958,-11.299873428061,-7.3445589040025));
#584=B_SPLINE_CURVE_WITH_KNOTS('',2,(#560,#561,#562,#563,#564,#565,#566,#567,#568,#569,#570,#571,#572,#573,#574,#575,#576,#577,#578,#579,#580,#581,#582,#583),.UNSPECIFIED.,.F.,.U.,(3,1,1,1,1,1,1,1,1,1,1,1,1,1,1,1,1,1,1,1,1,1,3),(0.,0.0117977122974,0.02086856178901,0.03432386849349,0.06123748324212,0.10317599965665,0.16271610805451,0.22200146955616,0.28197602470453,0.34234670790581,0.40305568168388,0.46400265092372,0.51274427353407,0.57364444727882,0.63438329674467,0.6947622759155,0.75602021951397,0.81857804292615,0.88219733197573,0.92786037090398,0.9571158968112,0.97636363420164,1.),.UNSPECIFIED.);
#585=EDGE_CURVE('',#551,#559,#584,.T.);
#586=ORIENTED_EDGE('',*,*,#585,.T.);
#587=CARTESIAN_POINT('',(-7.8922984243231,-11.29987586836,-4.3256947548223));
#588=VERTEX_POINT('',#587);
#589=CARTESIAN_POINT('',(-5.2016780470958,-11.299873428061,-7.3445589040025));
#590=CARTESIAN_POINT('',(-5.6346712264307,-11.299873429201,-7.0378139540781));
#591=CARTESIAN_POINT('',(-6.2246503812476,-11.299873425919,-6.5056857670182));
#592=CARTESIAN_POINT('',(-6.59667549126,-11.299873443549,-6.1281364000081));
#593=CARTESIAN_POINT('',(-6.9456855485053,-11.299873363413,-5.7295388845799));
#594=CARTESIAN_POINT('',(-7.266549947539,-11.299873978613,-5.3163758994382));
#595=CARTESIAN_POINT('',(-7.5254874015107,-11.299871616954,-4.9402889894));
#596=CARTESIAN_POINT('',(-7.7308772400276,-11.299883769489,-4.6118524804888));
#597=CARTESIAN_POINT('',(-7.8587185851469,-11.299839205248,-4.3869609227953));
#598=CARTESIAN_POINT('',(-7.8922980260172,-11.299874923645,-4.3256945357845));
#599=B_SPLINE_CURVE_WITH_KNOTS('',2,(#589,#590,#591,#592,#593,#594,#595,#596,#597,#598),.UNSPECIFIED.,.F.,.U.,(3,1,1,1,1,1,1,1,3),(0.29680277628602,0.4793508023888,0.57070142428386,0.66204166764706,0.75336629508244,0.84234278272201,0.91080159157235,0.9759053853059,1.),.UNSPECIFIED.);
#600=EDGE_CURVE('',#559,#588,#599,.T.);
#601=ORIENTED_EDGE('',*,*,#600,.T.);
#602=CARTESIAN_POINT('',(-7.8922979601326,-17.300000000001,-4.3256945001337));
#603=VERTEX_POINT('',#602);
#604=CARTESIAN_POINT('',(-7.8922984243231,-11.29987586836,-4.3256947548223));
#605=DIRECTION('',(7.7363482685965E-08,-1.,4.2447221824062E-08));
#606=VECTOR('',#605,6.000124131641);
#607=LINE('',#604,#606);
#608=EDGE_CURVE('',#588,#603,#607,.T.);
#609=ORIENTED_EDGE('',*,*,#608,.T.);
#610=CARTESIAN_POINT('',(-8.9861003778057,-17.300000000001,-0.5));
#611=VERTEX_POINT('',#610);
#612=CARTESIAN_POINT('',(3.0198066269804E-14,-17.3,5.7731597280508E-15));
#613=DIRECTION('',(-0.87692199557029,8.2896652505345E-15,-0.48063272223708));
#614=DIRECTION('',(8.5157005631756E-15,1.,1.506074304987E-15));
#615=AXIS2_PLACEMENT_3D('',#612,#614,#613);
#616=CIRCLE('',#615,9.);
#617=EDGE_CURVE('',#603,#611,#616,.T.);
#618=ORIENTED_EDGE('',*,*,#617,.T.);
#619=CARTESIAN_POINT('',(-8.9861003778057,-10.,-0.5));
#620=VERTEX_POINT('',#619);
#621=CARTESIAN_POINT('',(-8.9861003778057,-17.300000000001,-0.5));
#622=DIRECTION('',(0.,1.,0.));
#623=VECTOR('',#622,7.300000000001);
#624=LINE('',#621,#623);
#625=EDGE_CURVE('',#611,#620,#624,.T.);
#626=ORIENTED_EDGE('',*,*,#625,.T.);
#627=CARTESIAN_POINT('',(-9.,-10.,2.2558018209719E-17));
#628=VERTEX_POINT('',#627);
#629=CARTESIAN_POINT('',(-5.4001247917768E-13,-9.9999999999977,-1.6042722705834E-14));
#630=DIRECTION('',(-0.99845559753397,-2.555980118915E-13,-0.055555555555557));
#631=DIRECTION('',(-2.5567323794454E-13,1.,-3.5548091464372E-15));
#632=AXIS2_PLACEMENT_3D('',#629,#631,#630);
#633=CIRCLE('',#632,8.9999999999995);
#634=EDGE_CURVE('',#620,#628,#633,.T.);
#635=ORIENTED_EDGE('',*,*,#634,.T.);
#636=CARTESIAN_POINT('',(-9.,-6.7,1.1021821192326E-15));
#637=VERTEX_POINT('',#636);
#638=CARTESIAN_POINT('',(-9.,-10.,2.2558018209719E-17));
#639=DIRECTION('',(0.,1.,3.2715881849178E-16));
#640=VECTOR('',#639,3.3);
#641=LINE('',#638,#640);
#642=EDGE_CURVE('',#628,#637,#641,.T.);
#643=ORIENTED_EDGE('',*,*,#642,.T.);
#644=CARTESIAN_POINT('',(3.5527136788005E-15,-6.7,5.4984410035472E-15));
#645=DIRECTION('',(-1.,-0.,-4.8847320936829E-16));
#646=DIRECTION('',(0.,-1.,0.));
#647=AXIS2_PLACEMENT_3D('',#644,#646,#645);
#648=CIRCLE('',#647,9.);
#649=EDGE_CURVE('',#637,#637,#648,.T.);
#650=ORIENTED_EDGE('',*,*,#649,.T.);
#651=ORIENTED_EDGE('',*,*,#642,.F.);
#652=CARTESIAN_POINT('',(6.2172489379009E-15,-10.,0.));
#653=DIRECTION('',(-1.,-1.9737298215558E-16,2.9605947323337E-16));
#654=DIRECTION('',(-2.2350056596509E-16,1.,1.5649678108289E-16));
#655=AXIS2_PLACEMENT_3D('',#652,#654,#653);
#656=CIRCLE('',#655,9.);
#657=EDGE_CURVE('',#628,#515,#656,.T.);
#658=ORIENTED_EDGE('',*,*,#657,.T.);
#659=EDGE_LOOP('',(#523,#532,#540,#549,#557,#586,#601,#609,#618,#626,#635,#643,#650,#651,#658));
#660=FACE_OUTER_BOUND('',#659,.T.);
#661=CARTESIAN_POINT('',(-5.0861003778057,-15.65,7.4250645079275));
#662=VERTEX_POINT('',#661);
#663=CARTESIAN_POINT('',(-5.0861003778057,-15.65,7.4250645079275));
#664=CARTESIAN_POINT('',(-5.2876688015943,-15.65,7.2869920056226));
#665=CARTESIAN_POINT('',(-5.8755069124353,-15.503732613913,6.8481505735671));
#666=CARTESIAN_POINT('',(-6.3361003778057,-14.933516710496,6.3917002434697));
#667=CARTESIAN_POINT('',(-6.3361003778057,-13.85748719969,6.3917002434697));
#668=CARTESIAN_POINT('',(-5.9974448998662,-13.453084008448,6.7267876280554));
#669=CARTESIAN_POINT('',(-5.2035651462472,-13.067312905129,7.3637792359844));
#670=CARTESIAN_POINT('',(-4.6385705225517,-13.103485453879,7.726573198895));
#671=CARTESIAN_POINT('',(-3.8356260034523,-13.861466003938,8.1538680719239));
#672=CARTESIAN_POINT('',(-3.7139345966603,-14.470135090861,8.2032055064729));
#673=CARTESIAN_POINT('',(-4.1326323689367,-15.276132054592,7.9969687224528));
#674=CARTESIAN_POINT('',(-4.5179346301181,-15.579432908297,7.7967987160003));
#675=CARTESIAN_POINT('',(-4.9460933425631,-15.65,7.5209680295848));
#676=CARTESIAN_POINT('',(-5.0861003778057,-15.65,7.4250645079275));
#677=B_SPLINE_CURVE_WITH_KNOTS('',3,(#663,#664,#665,#666,#667,#668,#669,#670,#671,#672,#673,#674,#675,#676),.UNSPECIFIED.,.T.,.U.,(4,1,2,2,2,2,1,4),(0.,0.3333333333333,1.,1.677907913832,2.4743895923376,3.235699968691,3.6868253805445,3.9123880864713),.UNSPECIFIED.);
#678=EDGE_CURVE('',#662,#662,#677,.T.);
#679=ORIENTED_EDGE('',*,*,#678,.T.);
#680=EDGE_LOOP('',(#679));
#681=FACE_BOUND('',#680,.T.);
#682=ADVANCED_FACE('',(#660,#681),#513,.T.);
#683=CARTESIAN_POINT('',(1.6653345369377E-15,-6.7,-4.4408920985006E-16));
#684=DIRECTION('',(-0.94280904158206,0.,0.33333333333333));
#685=DIRECTION('',(5.8008685295047E-16,-1.,1.6766893968842E-15));
#686=AXIS2_PLACEMENT_3D('',#683,#685,#684);
#687=CYLINDRICAL_SURFACE('',#686,1.5);
#688=CARTESIAN_POINT('',(-1.4142135276375,-17.299999967251,-0.5));
#689=VERTEX_POINT('',#688);
#690=CARTESIAN_POINT('',(-1.4142135623731,-17.3,0.50000000000001));
#691=VERTEX_POINT('',#690);
#692=CARTESIAN_POINT('',(1.6653345369377E-15,-17.3,-1.3322676295502E-15));
#693=DIRECTION('',(-0.94280903900906,0.,-0.33333334061089));
#694=DIRECTION('',(4.5637652907691E-16,-1.,-1.218353280413E-15));
#695=AXIS2_PLACEMENT_3D('',#692,#694,#693);
#696=CIRCLE('',#695,1.5);
#697=EDGE_CURVE('',#689,#691,#696,.T.);
#698=ORIENTED_EDGE('',*,*,#697,.F.);
#699=CARTESIAN_POINT('',(2.3678836669205E-12,-17.30187443495,-1.3899992268307E-13));
#700=DIRECTION('',(-0.99999912162456,0.0013254244999855,5.2915014925325E-08));
#701=DIRECTION('',(-0.0013254244999855,-0.99999912162456,7.0473141211558E-19));
#702=AXIS2_PLACEMENT_3D('',#699,#701,#700);
#703=ELLIPSE('',#702,1.5000013175667,1.5000000000012);
#704=TRIMMED_CURVE('',#703,(PARAMETER_VALUE(5.9433484506407)),(PARAMETER_VALUE(0.33983696236881)),.T.,.PARAMETER.);
#705=EDGE_CURVE('',#691,#689,#704,.T.);
#706=ORIENTED_EDGE('',*,*,#705,.F.);
#707=CARTESIAN_POINT('',(-1.4142135623731,-6.7,0.5));
#708=VERTEX_POINT('',#707);
#709=CARTESIAN_POINT('',(-1.4142135623731,-17.3,0.5));
#710=DIRECTION('',(4.1895208476421E-16,1.,2.9326645933495E-16));
#711=VECTOR('',#710,10.6);
#712=LINE('',#709,#711);
#713=EDGE_CURVE('',#691,#708,#712,.T.);
#714=ORIENTED_EDGE('',*,*,#713,.T.);
#715=CARTESIAN_POINT('',(9.4924068605451E-15,-6.7,-1.9984014443253E-15));
#716=DIRECTION('',(-0.94280904158206,5.3290705182007E-15,0.33333333333333));
#717=DIRECTION('',(-5.9948046516955E-15,-1.,-5.7884489005069E-16));
#718=AXIS2_PLACEMENT_3D('',#715,#717,#716);
#719=CIRCLE('',#718,1.5);
#720=EDGE_CURVE('',#708,#708,#719,.T.);
#721=ORIENTED_EDGE('',*,*,#720,.T.);
#722=ORIENTED_EDGE('',*,*,#713,.F.);
#723=EDGE_LOOP('',(#698,#706,#714,#721,#722));
#724=FACE_OUTER_BOUND('',#723,.F.);
#725=ADVANCED_FACE('',(#724),#687,.F.);
#726=CARTESIAN_POINT('',(2.4115427318801,-17.5,3.5527136788005E-15));
#727=DIRECTION('',(-1.,0.,-1.5864115471009E-16));
#728=DIRECTION('',(0.,-1.,-0.));
#729=AXIS2_PLACEMENT_3D('',#726,#728,#727);
#730=PLANE('',#729);
#731=CARTESIAN_POINT('',(-8.785783894687,-17.5,0.49999999999999));
#732=VERTEX_POINT('',#731);
#733=CARTESIAN_POINT('',(-1.6248065246164,-17.499999993334,0.50000474367117));
#734=VERTEX_POINT('',#733);
#735=CARTESIAN_POINT('',(-8.785783894687,-17.5,0.49999999999999));
#736=DIRECTION('',(1.,0.,-1.9550286352679E-14));
#737=VECTOR('',#736,7.1609755928741);
#738=LINE('',#735,#737);
#739=EDGE_CURVE('',#732,#734,#738,.T.);
#740=ORIENTED_EDGE('',*,*,#739,.T.);
#741=CARTESIAN_POINT('',(-1.6248040980059,-17.499999002175,-0.50000114381083));
#742=VERTEX_POINT('',#741);
#743=CARTESIAN_POINT('',(-1.6248024429821,-17.5,-0.50000108006983));
#744=CARTESIAN_POINT('',(-1.3970773102956,-17.5,-1.2400161853688));
#745=CARTESIAN_POINT('',(-0.7742610781712,-17.5,-1.6999955687438));
#746=CARTESIAN_POINT('',(5.6502679190995E-07,-17.5,-1.6999953114028));
#747=CARTESIAN_POINT('',(0.77426220822478,-17.5,-1.6999950540617));
#748=CARTESIAN_POINT('',(1.3970781345827,-17.5,-1.2400152566764));
#749=CARTESIAN_POINT('',(1.6248027753521,-17.5,-0.49999999999979));
#750=CARTESIAN_POINT('',(1.7225144939149,-17.499998052694,-0.18739945454192));
#751=CARTESIAN_POINT('',(1.7299665809904,-17.499995213918,0.15823992102399));
#752=CARTESIAN_POINT('',(1.6248078249739,-17.5,0.50000154954123));
#753=CARTESIAN_POINT('',(1.3970823112391,-17.5,1.240019649489));
#754=CARTESIAN_POINT('',(0.77426380683814,-17.5,1.7000009626222));
#755=CARTESIAN_POINT('',(-8.1062536583243E-07,-17.5,1.7000005934232));
#756=CARTESIAN_POINT('',(-0.77426095378653,-17.5,1.7000002242263));
#757=CARTESIAN_POINT('',(-1.3970772342025,-17.5,1.240022940141));
#758=CARTESIAN_POINT('',(-1.624805316352,-17.5,0.50000970150029));
#759=(BOUNDED_CURVE()B_SPLINE_CURVE(3,(#743,#744,#745,#746,#747,#748,#749,#750,#751,#752,#753,#754,#755,#756,#757,#758),.UNSPECIFIED.,.F.,.U.)B_SPLINE_CURVE_WITH_KNOTS((4,3,3,3,3,4),(0.,0.5,1.,1.2432051214646,1.701188578008,2.1591697330805),.UNSPECIFIED.)CURVE()GEOMETRIC_REPRESENTATION_ITEM()RATIONAL_B_SPLINE_CURVE((1.,0.86960001158326,0.86960001158326,1.,0.86960001158326,0.86960001158326,1.,1.,1.,1.,0.869599850849,0.869599850849,1.,0.86960050613937,0.86959985085229,0.99999803413876))REPRESENTATION_ITEM(''));
#760=EDGE_CURVE('',#742,#734,#759,.T.);
#761=ORIENTED_EDGE('',*,*,#760,.F.);
#762=CARTESIAN_POINT('',(-8.7857838340835,-17.5,-0.5));
#763=VERTEX_POINT('',#762);
#764=CARTESIAN_POINT('',(-1.6248065408342,-17.5,-0.5));
#765=DIRECTION('',(-1.,0.,0.));
#766=VECTOR('',#765,7.1609772932493);
#767=LINE('',#764,#766);
#768=EDGE_CURVE('',#742,#763,#767,.T.);
#769=ORIENTED_EDGE('',*,*,#768,.T.);
#770=CARTESIAN_POINT('',(-7.6778903962386,-17.5,-4.2999999545657));
#771=VERTEX_POINT('',#770);
#772=CARTESIAN_POINT('',(2.3092638912203E-14,-17.5,7.105427357601E-15));
#773=DIRECTION('',(-0.99838454220504,6.4594795169618E-15,-0.056818182706244));
#774=DIRECTION('',(-6.6042769942494E-15,-1.,-2.8604079366505E-15));
#775=AXIS2_PLACEMENT_3D('',#772,#774,#773);
#776=CIRCLE('',#775,8.799999862457);
#777=EDGE_CURVE('',#763,#771,#776,.T.);
#778=ORIENTED_EDGE('',*,*,#777,.T.);
#779=CARTESIAN_POINT('',(-1.9859738055122,-17.5,-4.3));
#780=VERTEX_POINT('',#779);
#781=CARTESIAN_POINT('',(-7.6778903962386,-17.5,-4.2999999545657));
#782=DIRECTION('',(1.,0.,-7.9822497666138E-09));
#783=VECTOR('',#782,5.6919165907264);
#784=LINE('',#781,#783);
#785=EDGE_CURVE('',#771,#780,#784,.T.);
#786=ORIENTED_EDGE('',*,*,#785,.T.);
#787=CARTESIAN_POINT('',(-1.9859738048026,-17.5,-8.5729754585359));
#788=VERTEX_POINT('',#787);
#789=CARTESIAN_POINT('',(-1.9859738055122,-17.5,-4.3));
#790=DIRECTION('',(1.6606693421327E-10,0.,-1.));
#791=VECTOR('',#790,4.2729754585359);
#792=LINE('',#789,#791);
#793=EDGE_CURVE('',#780,#788,#792,.T.);
#794=ORIENTED_EDGE('',*,*,#793,.T.);
#795=CARTESIAN_POINT('',(1.3322676295502E-15,-17.5,-7.105427357601E-15));
#796=DIRECTION('',(-0.22567884121293,4.037174630673E-16,-0.97420175560753));
#797=DIRECTION('',(1.0437244706463E-16,-1.,-2.5923707309099E-16));
#798=AXIS2_PLACEMENT_3D('',#795,#797,#796);
#799=CIRCLE('',#798,8.800000009433);
#800=EDGE_CURVE('',#788,#732,#799,.T.);
#801=ORIENTED_EDGE('',*,*,#800,.T.);
#802=EDGE_LOOP('',(#740,#761,#769,#778,#786,#794,#801));
#803=FACE_OUTER_BOUND('',#802,.T.);
#804=ADVANCED_FACE('',(#803),#730,.T.);
#805=CARTESIAN_POINT('',(-1.1697777844051,-10.,8.8302222155949));
#806=DIRECTION('',(1.,0.,4.4055498018984E-16));
#807=DIRECTION('',(0.,-1.,0.));
#808=AXIS2_PLACEMENT_3D('',#805,#807,#806);
#809=PLANE('',#808);
#810=ORIENTED_EDGE('',*,*,#634,.F.);
#811=CARTESIAN_POINT('',(-8.7857839810177,-10.,-0.5));
#812=VERTEX_POINT('',#811);
#813=CARTESIAN_POINT('',(-8.9861003778057,-10.,-0.5));
#814=DIRECTION('',(1.,-8.8677555501379E-15,0.));
#815=VECTOR('',#814,0.20031639678798);
#816=LINE('',#813,#815);
#817=EDGE_CURVE('',#620,#812,#816,.T.);
#818=ORIENTED_EDGE('',*,*,#817,.T.);
#819=CARTESIAN_POINT('',(-8.7857839378524,-10.,0.5));
#820=VERTEX_POINT('',#819);
#821=CARTESIAN_POINT('',(-8.7857839810177,-10.,0.5));
#822=DIRECTION('',(0.,0.,-1.));
#823=VECTOR('',#822,1.);
#824=LINE('',#821,#823);
#825=EDGE_CURVE('',#820,#812,#824,.T.);
#826=ORIENTED_EDGE('',*,*,#825,.F.);
#827=CARTESIAN_POINT('',(6.7411911066731,-10.,5.656530971305));
#828=VERTEX_POINT('',#827);
#829=CARTESIAN_POINT('',(-4.4408920985006E-16,-10.,1.7763568394003E-15));
#830=DIRECTION('',(0.76604444311898,2.0185873153365E-16,0.64278760968654));
#831=DIRECTION('',(1.9899178111446E-17,-1.,7.0255277095996E-17));
#832=AXIS2_PLACEMENT_3D('',#829,#831,#830);
#833=CIRCLE('',#832,8.800000009433);
#834=EDGE_CURVE('',#828,#820,#833,.T.);
#835=ORIENTED_EDGE('',*,*,#834,.F.);
#836=CARTESIAN_POINT('',(6.7411911066731,-10.,5.656530971305));
#837=DIRECTION('',(0.76604444311897,0.,0.64278760968654));
#838=VECTOR('',#837,0.19999999056703);
#839=LINE('',#836,#838);
#840=EDGE_CURVE('',#828,#515,#839,.T.);
#841=ORIENTED_EDGE('',*,*,#840,.T.);
#842=ORIENTED_EDGE('',*,*,#657,.F.);
#843=EDGE_LOOP('',(#810,#818,#826,#835,#841,#842));
#844=FACE_OUTER_BOUND('',#843,.T.);
#845=ADVANCED_FACE('',(#844),#809,.T.);
#846=CARTESIAN_POINT('',(3.8302222155949,-10.5,3.2139380484327));
#847=DIRECTION('',(0.76604444311898,0.,0.64278760968654));
#848=DIRECTION('',(-0.64278760968654,0.,0.76604444311898));
#849=AXIS2_PLACEMENT_3D('',#846,#848,#847);
#850=PLANE('',#849);
#851=ORIENTED_EDGE('',*,*,#522,.F.);
#852=ORIENTED_EDGE('',*,*,#840,.F.);
#853=CARTESIAN_POINT('',(6.7411911066731,-11.,5.656530971305));
#854=VERTEX_POINT('',#853);
#855=CARTESIAN_POINT('',(6.7411911066731,-10.,5.656530971305));
#856=DIRECTION('',(0.,-1.,0.));
#857=VECTOR('',#856,1.);
#858=LINE('',#855,#857);
#859=EDGE_CURVE('',#828,#854,#858,.T.);
#860=ORIENTED_EDGE('',*,*,#859,.T.);
#861=CARTESIAN_POINT('',(6.7411911066731,-11.,5.656530971305));
#862=DIRECTION('',(0.76604444311897,0.,0.64278760968654));
#863=VECTOR('',#862,0.19999999056704);
#864=LINE('',#861,#863);
#865=EDGE_CURVE('',#854,#517,#864,.T.);
#866=ORIENTED_EDGE('',*,*,#865,.T.);
#867=EDGE_LOOP('',(#851,#852,#860,#866));
#868=FACE_OUTER_BOUND('',#867,.T.);
#869=ADVANCED_FACE('',(#868),#850,.T.);
#870=CARTESIAN_POINT('',(-1.1697777844051,-11.,8.8302222155949));
#871=DIRECTION('',(1.,0.,2.2027749009492E-16));
#872=DIRECTION('',(-0.,1.,0.));
#873=AXIS2_PLACEMENT_3D('',#870,#872,#871);
#874=PLANE('',#873);
#875=CARTESIAN_POINT('',(-8.785783894687,-11.,0.49999999999999));
#876=VERTEX_POINT('',#875);
#877=CARTESIAN_POINT('',(-8.7857839595049,-11.,0.5));
#878=DIRECTION('',(-1.,0.,0.));
#879=VECTOR('',#878,0.20031641830076);
#880=LINE('',#877,#879);
#881=EDGE_CURVE('',#876,#525,#880,.T.);
#882=ORIENTED_EDGE('',*,*,#881,.T.);
#883=ORIENTED_EDGE('',*,*,#531,.F.);
#884=ORIENTED_EDGE('',*,*,#865,.F.);
#885=CARTESIAN_POINT('',(-4.4408920985006E-16,-11.,1.7763568394003E-15));
#886=DIRECTION('',(0.76604444311898,2.0185873153365E-16,0.64278760968654));
#887=DIRECTION('',(5.9697534334337E-17,-1.,2.1076583128799E-16));
#888=AXIS2_PLACEMENT_3D('',#885,#887,#886);
#889=CIRCLE('',#888,8.800000009433);
#890=EDGE_CURVE('',#854,#876,#889,.T.);
#891=ORIENTED_EDGE('',*,*,#890,.T.);
#892=EDGE_LOOP('',(#882,#883,#884,#891));
#893=FACE_OUTER_BOUND('',#892,.T.);
#894=ADVANCED_FACE('',(#893),#874,.T.);
#895=CARTESIAN_POINT('',(-0.14305018890286,-13.75,0.5));
#896=DIRECTION('',(-1.,0.,1.2554752047188E-16));
#897=DIRECTION('',(-1.2554752047188E-16,0.,-1.));
#898=AXIS2_PLACEMENT_3D('',#895,#897,#896);
#899=PLANE('',#898);
#900=CARTESIAN_POINT('',(-1.4142135623731,-17.3,0.5));
#901=CARTESIAN_POINT('',(-1.4927452788741,-17.37414925694,0.5));
#902=CARTESIAN_POINT('',(-1.5442991571713,-17.423052110063,0.49999990970181));
#903=CARTESIAN_POINT('',(-1.6248063102573,-17.499998366685,0.49999990970053));
#904=B_SPLINE_CURVE_WITH_KNOTS('',3,(#900,#901,#902,#903),.UNSPECIFIED.,.F.,.U.,(4,4),(0.,0.99999292450425),.UNSPECIFIED.);
#905=EDGE_CURVE('',#691,#734,#904,.T.);
#906=ORIENTED_EDGE('',*,*,#905,.T.);
#907=ORIENTED_EDGE('',*,*,#739,.F.);
#908=CARTESIAN_POINT('',(-8.785783933146,-17.5,0.50000000214342));
#909=CARTESIAN_POINT('',(-8.83586393908,-17.450000896201,0.50000000214342));
#910=CARTESIAN_POINT('',(-8.9360219945541,-17.350000729054,0.50000000000024));
#911=CARTESIAN_POINT('',(-8.9861003778057,-17.3,0.5));
#912=B_SPLINE_CURVE_WITH_KNOTS('',3,(#908,#909,#910,#911),.UNSPECIFIED.,.F.,.U.,(4,4),(0.,1.),.UNSPECIFIED.);
#913=EDGE_CURVE('',#732,#534,#912,.T.);
#914=ORIENTED_EDGE('',*,*,#913,.T.);
#915=ORIENTED_EDGE('',*,*,#539,.F.);
#916=ORIENTED_EDGE('',*,*,#881,.F.);
#917=CARTESIAN_POINT('',(-8.7857839810177,-17.290229531382,0.5));
#918=VERTEX_POINT('',#917);
#919=CARTESIAN_POINT('',(-8.7857839810177,-17.290229531382,0.5));
#920=DIRECTION('',(0.,1.,0.));
#921=VECTOR('',#920,6.2902295313816);
#922=LINE('',#919,#921);
#923=EDGE_CURVE('',#918,#876,#922,.T.);
#924=ORIENTED_EDGE('',*,*,#923,.F.);
#925=CARTESIAN_POINT('',(-1.4142135623731,-17.3,0.5));
#926=DIRECTION('',(-0.99999912162456,0.0013254244999818,1.204868961571E-16));
#927=VECTOR('',#926,7.3715768936567);
#928=LINE('',#925,#927);
#929=EDGE_CURVE('',#691,#918,#928,.T.);
#930=ORIENTED_EDGE('',*,*,#929,.F.);
#931=EDGE_LOOP('',(#906,#907,#914,#915,#916,#924,#930));
#932=FACE_OUTER_BOUND('',#931,.T.);
#933=ADVANCED_FACE('',(#932),#899,.T.);
#934=CARTESIAN_POINT('',(-0.14305018890286,-13.75,-0.5));
#935=DIRECTION('',(-1.,0.,1.2554752047188E-16));
#936=DIRECTION('',(1.2554752047188E-16,0.,1.));
#937=AXIS2_PLACEMENT_3D('',#934,#936,#935);
#938=PLANE('',#937);
#939=ORIENTED_EDGE('',*,*,#625,.F.);
#940=CARTESIAN_POINT('',(-8.9861003778057,-17.300000000001,-0.49999999999999));
#941=CARTESIAN_POINT('',(-8.9360219907491,-17.350000732854,-0.50000000000024));
#942=CARTESIAN_POINT('',(-8.8358639124943,-17.450000892403,-0.50000000371637));
#943=CARTESIAN_POINT('',(-8.7857839027549,-17.5,-0.50000000371637));
#944=B_SPLINE_CURVE_WITH_KNOTS('',3,(#940,#941,#942,#943),.UNSPECIFIED.,.F.,.U.,(4,4),(0.,1.),.UNSPECIFIED.);
#945=EDGE_CURVE('',#611,#763,#944,.T.);
#946=ORIENTED_EDGE('',*,*,#945,.T.);
#947=ORIENTED_EDGE('',*,*,#768,.F.);
#948=CARTESIAN_POINT('',(-1.6248008405827,-17.49999800435,-0.5000012298794));
#949=CARTESIAN_POINT('',(-1.5437516509328,-17.422533725519,-0.50000122985828));
#950=CARTESIAN_POINT('',(-1.4932399446135,-17.374616315998,-0.5));
#951=CARTESIAN_POINT('',(-1.4142135623731,-17.3,-0.5));
#952=B_SPLINE_CURVE_WITH_KNOTS('',3,(#948,#949,#950,#951),.UNSPECIFIED.,.F.,.U.,(4,4),(8.5872982365819E-06,1.),.UNSPECIFIED.);
#953=EDGE_CURVE('',#742,#689,#952,.T.);
#954=ORIENTED_EDGE('',*,*,#953,.T.);
#955=CARTESIAN_POINT('',(-8.7857839810177,-17.290229531382,-0.5));
#956=VERTEX_POINT('',#955);
#957=CARTESIAN_POINT('',(-1.4142135623731,-17.3,-0.5));
#958=DIRECTION('',(-0.99999912162456,0.0013254244999818,1.204868961571E-16));
#959=VECTOR('',#958,7.3715768936567);
#960=LINE('',#957,#959);
#961=EDGE_CURVE('',#689,#956,#960,.T.);
#962=ORIENTED_EDGE('',*,*,#961,.T.);
#963=CARTESIAN_POINT('',(-8.7857839810177,-17.290229531382,-0.5));
#964=DIRECTION('',(0.,1.,0.));
#965=VECTOR('',#964,7.2902295313816);
#966=LINE('',#963,#965);
#967=EDGE_CURVE('',#956,#812,#966,.T.);
#968=ORIENTED_EDGE('',*,*,#967,.T.);
#969=ORIENTED_EDGE('',*,*,#817,.F.);
#970=EDGE_LOOP('',(#939,#946,#947,#954,#962,#968,#969));
#971=FACE_OUTER_BOUND('',#970,.T.);
#972=ADVANCED_FACE('',(#971),#938,.T.);
#973=CARTESIAN_POINT('',(-5.0861003778057,-14.4,8.2307841157588));
#974=DIRECTION('',(2.1316282072803E-15,-1.,2.8421709430404E-15));
#975=DIRECTION('',(-5.0864756700202E-16,-3.4588034556138E-15,-1.));
#976=AXIS2_PLACEMENT_3D('',#973,#975,#974);
#977=CYLINDRICAL_SURFACE('',#976,1.25);
#978=CARTESIAN_POINT('',(-5.0861003778057,-15.65,-0.5));
#979=VERTEX_POINT('',#978);
#980=CARTESIAN_POINT('',(-5.0861003778057,-15.65,-0.5));
#981=DIRECTION('',(-1.793153191496E-15,0.,1.));
#982=VECTOR('',#981,7.9250645079275);
#983=LINE('',#980,#982);
#984=EDGE_CURVE('',#979,#662,#983,.T.);
#985=ORIENTED_EDGE('',*,*,#984,.F.);
#986=CARTESIAN_POINT('',(-5.0861003778057,-14.4,-0.5));
#987=DIRECTION('',(9.9475983006414E-15,-1.,-8.8817841970012E-17));
#988=DIRECTION('',(-1.8802301822417E-16,-9.8686491077814E-18,-1.));
#989=AXIS2_PLACEMENT_3D('',#986,#988,#987);
#990=CIRCLE('',#989,1.25);
#991=EDGE_CURVE('',#979,#979,#990,.T.);
#992=ORIENTED_EDGE('',*,*,#991,.F.);
#993=ORIENTED_EDGE('',*,*,#984,.T.);
#994=ORIENTED_EDGE('',*,*,#678,.T.);
#995=EDGE_LOOP('',(#985,#992,#993,#994));
#996=FACE_OUTER_BOUND('',#995,.F.);
#997=ADVANCED_FACE('',(#996),#977,.F.);
#998=CARTESIAN_POINT('',(-5.0861003778057,-14.4,-0.5));
#999=DIRECTION('',(5.5511151231258E-16,1.,-3.4694469519536E-17));
#1000=DIRECTION('',(-2.2204460492503E-16,0.,-1.));
#1001=AXIS2_PLACEMENT_3D('',#998,#1000,#999);
#1002=CYLINDRICAL_SURFACE('',#1001,1.6);
#1003=CARTESIAN_POINT('',(-5.0861003778057,-12.8,-0.5));
#1004=VERTEX_POINT('',#1003);
#1005=CARTESIAN_POINT('',(-5.0861003778057,-14.4,-0.5));
#1006=DIRECTION('',(3.9252311467094E-16,1.,-8.4182899234593E-18));
#1007=DIRECTION('',(-1.471961680016E-16,-8.4182899234593E-18,-1.));
#1008=AXIS2_PLACEMENT_3D('',#1005,#1007,#1006);
#1009=CIRCLE('',#1008,1.6);
#1010=EDGE_CURVE('',#1004,#1004,#1009,.T.);
#1011=ORIENTED_EDGE('',*,*,#1010,.F.);
#1012=CARTESIAN_POINT('',(-5.0861003778057,-12.8,-4.5));
#1013=VERTEX_POINT('',#1012);
#1014=CARTESIAN_POINT('',(-5.0861003778057,-12.8,-0.5));
#1015=DIRECTION('',(0.,0.,-1.));
#1016=VECTOR('',#1015,4.);
#1017=LINE('',#1014,#1016);
#1018=EDGE_CURVE('',#1004,#1013,#1017,.T.);
#1019=ORIENTED_EDGE('',*,*,#1018,.T.);
#1020=CARTESIAN_POINT('',(-5.0861003778057,-14.4,-4.5));
#1021=DIRECTION('',(3.9252311467094E-16,1.,-1.9626155733547E-16));
#1022=DIRECTION('',(-1.9626155733547E-16,-1.9626155733547E-16,-1.));
#1023=AXIS2_PLACEMENT_3D('',#1020,#1022,#1021);
#1024=CIRCLE('',#1023,1.6);
#1025=EDGE_CURVE('',#1013,#1013,#1024,.T.);
#1026=ORIENTED_EDGE('',*,*,#1025,.T.);
#1027=ORIENTED_EDGE('',*,*,#1018,.F.);
#1028=EDGE_LOOP('',(#1011,#1019,#1026,#1027));
#1029=FACE_OUTER_BOUND('',#1028,.T.);
#1030=ADVANCED_FACE('',(#1029),#1002,.F.);
#1031=CARTESIAN_POINT('',(-2.1859738055122,-16.634296541761,-9.5));
#1032=DIRECTION('',(-9.9380096050287E-17,1.,0.));
#1033=DIRECTION('',(-1.,-9.9380096050287E-17,1.3322676295502E-16));
#1034=AXIS2_PLACEMENT_3D('',#1031,#1033,#1032);
#1035=PLANE('',#1034);
#1036=CARTESIAN_POINT('',(-2.1859738055122,-14.4,-4.5));
#1037=VERTEX_POINT('',#1036);
#1038=CARTESIAN_POINT('',(-2.1859738055122,-14.4,-8.5304936012584));
#1039=VERTEX_POINT('',#1038);
#1040=CARTESIAN_POINT('',(-2.1859738055122,-14.4,-4.5));
#1041=DIRECTION('',(0.,0.,-1.));
#1042=VECTOR('',#1041,4.0304936012584);
#1043=LINE('',#1040,#1042);
#1044=EDGE_CURVE('',#1037,#1039,#1043,.T.);
#1045=ORIENTED_EDGE('',*,*,#1044,.T.);
#1046=CARTESIAN_POINT('',(-2.1859738055122,-17.3,-8.5304936012584));
#1047=VERTEX_POINT('',#1046);
#1048=CARTESIAN_POINT('',(-2.1859738055122,-14.4,-8.5304936012584));
#1049=DIRECTION('',(0.,-1.,0.));
#1050=VECTOR('',#1049,2.9);
#1051=LINE('',#1048,#1050);
#1052=EDGE_CURVE('',#1039,#1047,#1051,.T.);
#1053=ORIENTED_EDGE('',*,*,#1052,.T.);
#1054=CARTESIAN_POINT('',(-2.1859738055122,-17.3,-4.5));
#1055=VERTEX_POINT('',#1054);
#1056=CARTESIAN_POINT('',(-2.1859738055122,-17.3,-8.5304936012584));
#1057=DIRECTION('',(0.,0.,1.));
#1058=VECTOR('',#1057,4.0304936012584);
#1059=LINE('',#1056,#1058);
#1060=EDGE_CURVE('',#1047,#1055,#1059,.T.);
#1061=ORIENTED_EDGE('',*,*,#1060,.T.);
#1062=CARTESIAN_POINT('',(-2.1859738055122,-17.3,-4.5));
#1063=DIRECTION('',(0.,1.,0.));
#1064=VECTOR('',#1063,2.9);
#1065=LINE('',#1062,#1064);
#1066=EDGE_CURVE('',#1055,#1037,#1065,.T.);
#1067=ORIENTED_EDGE('',*,*,#1066,.T.);
#1068=EDGE_LOOP('',(#1045,#1053,#1061,#1067));
#1069=FACE_OUTER_BOUND('',#1068,.T.);
#1070=ADVANCED_FACE('',(#1069),#1035,.T.);
#1071=CARTESIAN_POINT('',(-5.0861003778057,-14.4,-4.5));
#1072=DIRECTION('',(1.4117745474453E-11,1.,-6.1251010779004E-16));
#1073=DIRECTION('',(0.,-4.407293535575E-16,-1.));
#1074=AXIS2_PLACEMENT_3D('',#1071,#1073,#1072);
#1075=CYLINDRICAL_SURFACE('',#1074,2.9001265722935);
#1076=CARTESIAN_POINT('',(-5.0861003778057,-11.499873427706,-4.5));
#1077=VERTEX_POINT('',#1076);
#1078=CARTESIAN_POINT('',(-5.0861003778057,-14.4,-4.5));
#1079=DIRECTION('',(1.,1.2250202155801E-15,0.));
#1080=DIRECTION('',(1.8484127616467E-16,1.8484127616467E-16,1.));
#1081=AXIS2_PLACEMENT_3D('',#1078,#1080,#1079);
#1082=CIRCLE('',#1081,2.9001265722935);
#1083=EDGE_CURVE('',#1037,#1077,#1082,.T.);
#1084=ORIENTED_EDGE('',*,*,#1083,.T.);
#1085=CARTESIAN_POINT('',(-5.0861003778057,-11.499873427706,-7.1813503202455));
#1086=VERTEX_POINT('',#1085);
#1087=CARTESIAN_POINT('',(-5.0861003778057,-11.499873427706,-4.5));
#1088=DIRECTION('',(0.,0.,-1.));
#1089=VECTOR('',#1088,2.6813503202455);
#1090=LINE('',#1087,#1089);
#1091=EDGE_CURVE('',#1077,#1086,#1090,.T.);
#1092=ORIENTED_EDGE('',*,*,#1091,.T.);
#1093=CARTESIAN_POINT('',(-5.0861003778057,-11.499873427706,-7.1813503202455));
#1094=CARTESIAN_POINT('',(-5.0366847851332,-11.499868364185,-7.2163392213894));
#1095=CARTESIAN_POINT('',(-4.9472190095092,-11.502927743082,-7.2778837867849));
#1096=CARTESIAN_POINT('',(-4.8478864111339,-11.509054962309,-7.3447230375674));
#1097=CARTESIAN_POINT('',(-4.6946425743687,-11.524864281161,-7.4444283583826));
#1098=CARTESIAN_POINT('',(-4.4699352462883,-11.562930849884,-7.5828599910628));
#1099=CARTESIAN_POINT('',(-4.2100919627748,-11.63205555794,-7.7309239435709));
#1100=CARTESIAN_POINT('',(-3.9582272058706,-11.724839426026,-7.8639002383898));
#1101=CARTESIAN_POINT('',(-3.7160828525788,-11.840342763426,-7.9821410669444));
#1102=CARTESIAN_POINT('',(-3.4831935528395,-11.979230154078,-8.0871032274399));
#1103=CARTESIAN_POINT('',(-3.2597849604715,-12.142824203063,-8.1796869569965));
#1104=CARTESIAN_POINT('',(-3.0709295051849,-12.311311012113,-8.2519685542102));
#1105=CARTESIAN_POINT('',(-2.8938364013072,-12.496029627064,-8.3158586698912));
#1106=CARTESIAN_POINT('',(-2.7166372028029,-12.721604405276,-8.3754191313122));
#1107=CARTESIAN_POINT('',(-2.5624600358372,-12.96383786997,-8.4240738678016));
#1108=CARTESIAN_POINT('',(-2.4329503592083,-13.220140138756,-8.4626458969811));
#1109=CARTESIAN_POINT('',(-2.3299346867884,-13.486479540599,-8.4919000389943));
#1110=CARTESIAN_POINT('',(-2.2533531755937,-13.76212829659,-8.5128097866286));
#1111=CARTESIAN_POINT('',(-2.2114228970335,-14.003466441372,-8.5239037550856));
#1112=CARTESIAN_POINT('',(-2.1944484545479,-14.169088514589,-8.5283166460049));
#1113=CARTESIAN_POINT('',(-2.1888624707897,-14.266562285528,-8.5297544651737));
#1114=CARTESIAN_POINT('',(-2.1869667483172,-14.321008936334,-8.5302401933056));
#1115=CARTESIAN_POINT('',(-2.1859738142404,-14.371468204324,-8.5304937230828));
#1116=CARTESIAN_POINT('',(-2.1859738055122,-14.4,-8.5304936012584));
#1117=B_SPLINE_CURVE_WITH_KNOTS('',2,(#1093,#1094,#1095,#1096,#1097,#1098,#1099,#1100,#1101,#1102,#1103,#1104,#1105,#1106,#1107,#1108,#1109,#1110,#1111,#1112,#1113,#1114,#1115,#1116),.UNSPECIFIED.,.F.,.U.,(3,1,1,1,1,1,1,1,1,1,1,1,1,1,1,1,1,1,1,1,1,1,3),(0.,0.025047047277749,0.044939273437622,0.074640616603907,0.12083303700546,0.18488802211621,0.2476351921677,0.30872436300843,0.36873190614877,0.42892393009625,0.48930114045373,0.53772494748219,0.59832546347327,0.65869394288427,0.71870800187713,0.77833358177148,0.8373709029826,0.89678689558417,0.93872867890299,0.96565729464462,0.97912069713421,0.98819654657657,1.),.UNSPECIFIED.);
#1118=EDGE_CURVE('',#1086,#1039,#1117,.T.);
#1119=ORIENTED_EDGE('',*,*,#1118,.T.);
#1120=ORIENTED_EDGE('',*,*,#1044,.F.);
#1121=EDGE_LOOP('',(#1084,#1092,#1119,#1120));
#1122=FACE_OUTER_BOUND('',#1121,.T.);
#1123=ADVANCED_FACE('',(#1122),#1075,.F.);
#1124=CARTESIAN_POINT('',(-8.7059200805848,-11.499873427706,-9.5));
#1125=DIRECTION('',(-1.,0.,0.));
#1126=DIRECTION('',(-0.,-1.,0.));
#1127=AXIS2_PLACEMENT_3D('',#1124,#1126,#1125);
#1128=PLANE('',#1127);
#1129=CARTESIAN_POINT('',(-7.5593669419373,-11.499873427706,-4.5));
#1130=VERTEX_POINT('',#1129);
#1131=CARTESIAN_POINT('',(-5.0861003778057,-11.499873427706,-4.5));
#1132=DIRECTION('',(-1.,0.,0.));
#1133=VECTOR('',#1132,2.4732665641316);
#1134=LINE('',#1131,#1133);
#1135=EDGE_CURVE('',#1077,#1130,#1134,.T.);
#1136=ORIENTED_EDGE('',*,*,#1135,.T.);
#1137=CARTESIAN_POINT('',(-7.5616058373697,-11.499873427706,-4.501338594814));
#1138=CARTESIAN_POINT('',(-7.5121465376378,-11.499873427706,-4.5840624754602));
#1139=CARTESIAN_POINT('',(-7.3582873846879,-11.499873427706,-4.830525288131));
#1140=CARTESIAN_POINT('',(-7.1050615187755,-11.499873427706,-5.1982293677575));
#1141=CARTESIAN_POINT('',(-6.7913387131923,-11.499873427706,-5.6022169512847));
#1142=CARTESIAN_POINT('',(-6.4500814227322,-11.499873427706,-5.9919532973941));
#1143=CARTESIAN_POINT('',(-6.0863241380086,-11.499873427706,-6.3611130395455));
#1144=CARTESIAN_POINT('',(-5.5094549499478,-11.499873427706,-6.8814089236688));
#1145=CARTESIAN_POINT('',(-5.0861003778057,-11.499873427706,-7.1813503202455));
#1146=B_SPLINE_CURVE_WITH_KNOTS('',2,(#1137,#1138,#1139,#1140,#1141,#1142,#1143,#1144,#1145),.UNSPECIFIED.,.F.,.U.,(3,1,1,1,1,1,1,3),(0.3519542169852,0.38595329002321,0.45441792427075,0.54340141043149,0.63473335677299,0.72608072345569,0.81743894360928,1.),.UNSPECIFIED.);
#1147=EDGE_CURVE('',#1130,#1086,#1146,.T.);
#1148=ORIENTED_EDGE('',*,*,#1147,.T.);
#1149=ORIENTED_EDGE('',*,*,#1091,.F.);
#1150=EDGE_LOOP('',(#1136,#1148,#1149));
#1151=FACE_OUTER_BOUND('',#1150,.T.);
#1152=ADVANCED_FACE('',(#1151),#1128,.T.);
#1153=CARTESIAN_POINT('',(-4.9901012197861,-14.486261757375,-4.5));
#1154=DIRECTION('',(0.,1.,0.));
#1155=DIRECTION('',(-3.1673967993716E-16,0.,-1.));
#1156=AXIS2_PLACEMENT_3D('',#1153,#1155,#1154);
#1157=PLANE('',#1156);
#1158=ORIENTED_EDGE('',*,*,#1066,.F.);
#1159=CARTESIAN_POINT('',(-7.5942286340599,-17.3,-4.5));
#1160=VERTEX_POINT('',#1159);
#1161=CARTESIAN_POINT('',(-2.1859738055122,-17.3,-4.5));
#1162=DIRECTION('',(-1.,0.,0.));
#1163=VECTOR('',#1162,5.4082548285477);
#1164=LINE('',#1161,#1163);
#1165=EDGE_CURVE('',#1055,#1160,#1164,.T.);
#1166=ORIENTED_EDGE('',*,*,#1165,.T.);
#1167=CARTESIAN_POINT('',(-7.59422863406,-11.472523514751,-4.5));
#1168=VERTEX_POINT('',#1167);
#1169=CARTESIAN_POINT('',(-7.5942286340599,-17.3,-4.5));
#1170=DIRECTION('',(-1.7222576818656E-14,1.,0.));
#1171=VECTOR('',#1170,5.827476485249);
#1172=LINE('',#1169,#1171);
#1173=EDGE_CURVE('',#1160,#1168,#1172,.T.);
#1174=ORIENTED_EDGE('',*,*,#1173,.T.);
#1175=CARTESIAN_POINT('',(-7.5942286340599,-11.472523514751,-4.5));
#1176=CARTESIAN_POINT('',(-7.590865913455,-11.475415235827,-4.5));
#1177=CARTESIAN_POINT('',(-7.5806837694076,-11.484008167845,-4.5000652844715));
#1178=CARTESIAN_POINT('',(-7.5694532915603,-11.49458409211,-4.499689875746));
#1179=CARTESIAN_POINT('',(-7.5625805732732,-11.498590612069,-4.5004596650583));
#1180=CARTESIAN_POINT('',(-7.5612517063242,-11.499403223184,-4.5005930738591));
#1181=B_SPLINE_CURVE_WITH_KNOTS('',2,(#1175,#1176,#1177,#1178,#1179,#1180),.UNSPECIFIED.,.F.,.U.,(3,1,1,1,3),(0.,0.20406401717429,0.61219205151843,0.90812803434414,0.97948083749462),.UNSPECIFIED.);
#1182=EDGE_CURVE('',#1168,#1130,#1181,.T.);
#1183=ORIENTED_EDGE('',*,*,#1182,.T.);
#1184=ORIENTED_EDGE('',*,*,#1135,.F.);
#1185=ORIENTED_EDGE('',*,*,#1083,.F.);
#1186=EDGE_LOOP('',(#1158,#1166,#1174,#1183,#1184,#1185));
#1187=FACE_OUTER_BOUND('',#1186,.T.);
#1188=ORIENTED_EDGE('',*,*,#1025,.F.);
#1189=EDGE_LOOP('',(#1188));
#1190=FACE_BOUND('',#1189,.T.);
#1191=ADVANCED_FACE('',(#1187,#1190),#1157,.T.);
#1192=CARTESIAN_POINT('',(-7.7432632970963,-12.,-4.4128472500668));
#1193=DIRECTION('',(0.8632342180322,0.,-0.50480361014789));
#1194=DIRECTION('',(-0.50480361014789,-0.,-0.8632342180322));
#1195=AXIS2_PLACEMENT_3D('',#1192,#1194,#1193);
#1196=PLANE('',#1195);
#1197=ORIENTED_EDGE('',*,*,#1173,.F.);
#1198=CARTESIAN_POINT('',(-7.7436159289566,-17.387361064125,-4.4126410238808));
#1199=VERTEX_POINT('',#1198);
#1200=CARTESIAN_POINT('',(-7.5942286340599,-17.3,-4.5));
#1201=DIRECTION('',(-0.77060999746577,-0.4506494976733,0.45063872675638));
#1202=VECTOR('',#1201,0.193855900375);
#1203=LINE('',#1200,#1202);
#1204=EDGE_CURVE('',#1160,#1199,#1203,.T.);
#1205=ORIENTED_EDGE('',*,*,#1204,.T.);
#1206=CARTESIAN_POINT('',(-7.7436138871161,-17.387356327488,-4.4126422315188));
#1207=CARTESIAN_POINT('',(-7.7909394321403,-17.359899461054,-4.3849671167906));
#1208=CARTESIAN_POINT('',(-7.8384112023122,-17.331948997414,-4.3572064922658));
#1209=CARTESIAN_POINT('',(-7.8922979601326,-17.300000000001,-4.3256945001337));
#1210=B_SPLINE_CURVE_WITH_KNOTS('',3,(#1206,#1207,#1208,#1209),.UNSPECIFIED.,.F.,.U.,(4,4),(0.50245301523088,1.),.UNSPECIFIED.);
#1211=EDGE_CURVE('',#1199,#603,#1210,.T.);
#1212=ORIENTED_EDGE('',*,*,#1211,.T.);
#1213=ORIENTED_EDGE('',*,*,#608,.F.);
#1214=CARTESIAN_POINT('',(-7.892298822629,-11.299876813075,-4.32569497386));
#1215=CARTESIAN_POINT('',(-7.7851295020957,-11.363877443473,-4.3883636885629));
#1216=CARTESIAN_POINT('',(-7.7020916418346,-11.411971548626,-4.4369236823696));
#1217=CARTESIAN_POINT('',(-7.59422863406,-11.472523514751,-4.5));
#1218=B_SPLINE_CURVE_WITH_KNOTS('',3,(#1214,#1215,#1216,#1217),.UNSPECIFIED.,.F.,.U.,(4,4),(0.,1.),.UNSPECIFIED.);
#1219=EDGE_CURVE('',#588,#1168,#1218,.T.);
#1220=ORIENTED_EDGE('',*,*,#1219,.T.);
#1221=EDGE_LOOP('',(#1197,#1205,#1212,#1213,#1220));
#1222=FACE_OUTER_BOUND('',#1221,.T.);
#1223=ADVANCED_FACE('',(#1222),#1196,.T.);
#1224=CARTESIAN_POINT('',(-1.9914350663321,-14.4,-8.7769121208192));
#1225=CARTESIAN_POINT('',(-1.9914350640948,-14.371329742758,-8.7769121079567));
#1226=CARTESIAN_POINT('',(-1.9921286156464,-14.321526585377,-8.7767548191947));
#1227=CARTESIAN_POINT('',(-1.9954181923399,-14.235007162681,-8.7760077323432));
#1228=CARTESIAN_POINT('',(-2.0031607260214,-14.117720886579,-8.7742460007237));
#1229=CARTESIAN_POINT('',(-2.0241164939976,-13.931766537835,-8.7694509909088));
#1230=CARTESIAN_POINT('',(-2.0694490831242,-13.688136465905,-8.7589241996088));
#1231=CARTESIAN_POINT('',(-2.1510268566027,-13.399120707674,-8.7393652576731));
#1232=CARTESIAN_POINT('',(-2.2649656032505,-13.113716809749,-8.7106945003639));
#1233=CARTESIAN_POINT('',(-2.4147838486993,-12.828271621848,-8.6705196725071));
#1234=CARTESIAN_POINT('',(-2.5852991416275,-12.571382535107,-8.6214358184278));
#1235=CARTESIAN_POINT('',(-2.7801696563564,-12.33307817512,-8.5606521268267));
#1236=CARTESIAN_POINT('',(-2.9847000925955,-12.125069696872,-8.4916729764502));
#1237=CARTESIAN_POINT('',(-3.2049777985061,-11.938254286428,-8.4111736346969));
#1238=CARTESIAN_POINT('',(-3.4497000767617,-11.766657564129,-8.3141503380934));
#1239=CARTESIAN_POINT('',(-3.7058608067844,-11.622709324389,-8.2033680817073));
#1240=CARTESIAN_POINT('',(-3.9832003840567,-11.500371834734,-8.0725106098471));
#1241=CARTESIAN_POINT('',(-4.2562932412701,-11.409942524892,-7.9320990025941));
#1242=CARTESIAN_POINT('',(-4.5276624829637,-11.347601652143,-7.780117103875));
#1243=CARTESIAN_POINT('',(-4.7543084097267,-11.315669085665,-7.6430485245728));
#1244=CARTESIAN_POINT('',(-4.9281696837944,-11.302855028279,-7.5314376686945));
#1245=CARTESIAN_POINT('',(-5.070304198552,-11.299047125805,-7.4364154437552));
#1246=CARTESIAN_POINT('',(-5.1542969504406,-11.300118990091,-7.3781092166079));
#1247=CARTESIAN_POINT('',(-5.2016780470958,-11.299873428061,-7.3445589040025));
#1248=CARTESIAN_POINT('',(-2.1859738055122,-14.4,-8.5304936012584));
#1249=CARTESIAN_POINT('',(-2.1859737881627,-14.373695036228,-8.5304936019524));
#1250=CARTESIAN_POINT('',(-2.1865955925984,-14.327997011798,-8.5303354287157));
#1251=CARTESIAN_POINT('',(-2.1895537778443,-14.248601181924,-8.5295773312699));
#1252=CARTESIAN_POINT('',(-2.1965304830051,-14.140963699159,-8.5277792707608));
#1253=CARTESIAN_POINT('',(-2.215461225549,-13.97031071251,-8.522849772038));
#1254=CARTESIAN_POINT('',(-2.2565412345689,-13.746845784165,-8.5119643521045));
#1255=CARTESIAN_POINT('',(-2.3299232712554,-13.482635598631,-8.4919289425887));
#1256=CARTESIAN_POINT('',(-2.4310202673819,-13.221604629065,-8.4632910597647));
#1257=CARTESIAN_POINT('',(-2.5633953493226,-12.959773968872,-8.4238703884047));
#1258=CARTESIAN_POINT('',(-2.7141972645484,-12.723009910971,-8.3763790850143));
#1259=CARTESIAN_POINT('',(-2.8873287269577,-12.502674156192,-8.3181923618908));
#1260=CARTESIAN_POINT('',(-3.0697776546215,-12.309922067197,-8.2527592067075));
#1261=CARTESIAN_POINT('',(-3.2667243726527,-12.136550888931,-8.1770853776831));
#1262=CARTESIAN_POINT('',(-3.4848488679364,-11.976820924393,-8.0867159028089));
#1263=CARTESIAN_POINT('',(-3.713626590153,-11.840435384026,-7.983703754838));
#1264=CARTESIAN_POINT('',(-3.9624253264958,-11.7219035729,-7.8621769668318));
#1265=CARTESIAN_POINT('',(-4.2093555218133,-11.631223933491,-7.7317813477146));
#1266=CARTESIAN_POINT('',(-4.4571302475414,-11.565483504338,-7.5905466074852));
#1267=CARTESIAN_POINT('',(-4.6646275820354,-11.528489734828,-7.4636763888459));
#1268=CARTESIAN_POINT('',(-4.8266637800085,-11.510553478281,-7.3588997351597));
#1269=CARTESIAN_POINT('',(-4.9571280993467,-11.501880025176,-7.2714535882956));
#1270=CARTESIAN_POINT('',(-5.0397657136528,-11.499862866465,-7.2141691375876));
#1271=CARTESIAN_POINT('',(-5.0861003778057,-11.499873427706,-7.1813503202455));
#1272=B_SPLINE_SURFACE_WITH_KNOTS('',1,3,((#1224,#1225,#1226,#1227,#1228,#1229,#1230,#1231,#1232,#1233,#1234,#1235,#1236,#1237,#1238,#1239,#1240,#1241,#1242,#1243,#1244,#1245,#1246,#1247),(#1248,#1249,#1250,#1251,#1252,#1253,#1254,#1255,#1256,#1257,#1258,#1259,#1260,#1261,#1262,#1263,#1264,#1265,#1266,#1267,#1268,#1269,#1270,#1271)),.UNSPECIFIED.,.F.,.F.,.U.,(2,2),(4,1,1,1,1,1,1,1,1,1,1,1,1,1,1,1,1,1,1,1,1,4),(0.,0.31469445629162),(0.,0.086152503197172,0.14965979290285,0.260189231975,0.43936059994322,0.71183796152982,1.0044683821221,1.3397979498333,1.6349421908301,1.9751190205821,2.2736897962863,2.5730101941383,2.8719327659483,3.1701681808287,3.5099503168119,3.8100680167325,4.1575468034039,4.4704879465862,4.764313972112,4.9605097284797,5.0985518123564,5.2787650542173),.UNSPECIFIED.);
#1273=ORIENTED_EDGE('',*,*,#585,.F.);
#1274=CARTESIAN_POINT('',(-1.9914350663321,-14.4,-8.7769121208192));
#1275=DIRECTION('',(-0.61963997700116,0.,0.78488616939146));
#1276=VECTOR('',#1275,0.31395446775658);
#1277=LINE('',#1274,#1276);
#1278=EDGE_CURVE('',#551,#1039,#1277,.T.);
#1279=ORIENTED_EDGE('',*,*,#1278,.T.);
#1280=ORIENTED_EDGE('',*,*,#1118,.F.);
#1281=CARTESIAN_POINT('',(-5.0861003778057,-11.499873427706,-7.1813503202455));
#1282=DIRECTION('',(-0.40864092755842,0.70712782035324,-0.57704665149939));
#1283=VECTOR('',#1282,0.2828342965563);
#1284=LINE('',#1281,#1283);
#1285=EDGE_CURVE('',#1086,#559,#1284,.T.);
#1286=ORIENTED_EDGE('',*,*,#1285,.T.);
#1287=EDGE_LOOP('',(#1273,#1279,#1280,#1286));
#1288=FACE_OUTER_BOUND('',#1287,.T.);
#1289=ADVANCED_FACE('',(#1288),#1272,.T.);
#1290=CARTESIAN_POINT('',(-2.0887044359221,-15.95,-8.6537028610388));
#1291=DIRECTION('',(-0.61963997700125,0.,0.78488616939139));
#1292=DIRECTION('',(-0.78488616939139,-4.5152149064944E-15,-0.61963997700125));
#1293=AXIS2_PLACEMENT_3D('',#1290,#1292,#1291);
#1294=PLANE('',#1293);
#1295=ORIENTED_EDGE('',*,*,#556,.F.);
#1296=CARTESIAN_POINT('',(-2.0885303300871,-17.397476459918,-8.6540719093714));
#1297=VERTEX_POINT('',#1296);
#1298=CARTESIAN_POINT('',(-1.9914350663321,-17.3,-8.7769121208192));
#1299=CARTESIAN_POINT('',(-2.0128322750689,-17.321697037183,-8.7498086836227));
#1300=CARTESIAN_POINT('',(-2.0342645816269,-17.343309385448,-8.7226607886447));
#1301=CARTESIAN_POINT('',(-2.0674902658764,-17.376622414328,-8.6805744465688));
#1302=CARTESIAN_POINT('',(-2.0783037209359,-17.387321190675,-8.6669391907352));
#1303=CARTESIAN_POINT('',(-2.0885254136298,-17.397435389087,-8.6540358326601));
#1304=B_SPLINE_CURVE_WITH_KNOTS('',3,(#1298,#1299,#1300,#1301,#1302,#1303),.UNSPECIFIED.,.F.,.U.,(4,2,4),(0.77230872123759,1.1878958163746,1.415587095137),.UNSPECIFIED.);
#1305=EDGE_CURVE('',#542,#1297,#1304,.T.);
#1306=ORIENTED_EDGE('',*,*,#1305,.T.);
#1307=CARTESIAN_POINT('',(-2.0884972287693,-17.397150252021,-8.6543047410907));
#1308=CARTESIAN_POINT('',(-2.1227121650477,-17.362827967025,-8.6110769871248));
#1309=CARTESIAN_POINT('',(-2.1568465711296,-17.329127234383,-8.5673885148664));
#1310=CARTESIAN_POINT('',(-2.1859738055122,-17.3,-8.5304936012584));
#1311=B_SPLINE_CURVE_WITH_KNOTS('',3,(#1307,#1308,#1309,#1310),.UNSPECIFIED.,.F.,.U.,(4,4),(0.50515130338803,1.),.UNSPECIFIED.);
#1312=EDGE_CURVE('',#1297,#1047,#1311,.T.);
#1313=ORIENTED_EDGE('',*,*,#1312,.T.);
#1314=ORIENTED_EDGE('',*,*,#1052,.F.);
#1315=ORIENTED_EDGE('',*,*,#1278,.F.);
#1316=EDGE_LOOP('',(#1295,#1306,#1313,#1314,#1315));
#1317=FACE_OUTER_BOUND('',#1316,.T.);
#1318=ADVANCED_FACE('',(#1317),#1294,.T.);
#1319=CARTESIAN_POINT('',(-5.2016780470958,-11.299873428061,-7.3445589040025));
#1320=CARTESIAN_POINT('',(-5.5668306939337,-11.299873630584,-7.0859604120727));
#1321=CARTESIAN_POINT('',(-6.039583987869,-11.29987317542,-6.6951153753851));
#1322=CARTESIAN_POINT('',(-6.6016161441866,-11.299873760959,-6.1247334278962));
#1323=CARTESIAN_POINT('',(-6.940934069097,-11.299872471514,-5.7372195475826));
#1324=CARTESIAN_POINT('',(-7.25356831871,-11.299877543549,-5.3350378295429));
#1325=CARTESIAN_POINT('',(-7.5096247946075,-11.29986454222,-4.9666826948295));
#1326=CARTESIAN_POINT('',(-7.7393348210661,-11.299900085557,-4.5998185297324));
#1327=CARTESIAN_POINT('',(-7.943164759518,-11.29976831369,-4.2388311435258));
#1328=CARTESIAN_POINT('',(-8.1344543355373,-11.300675863414,-3.8588459480282));
#1329=CARTESIAN_POINT('',(-8.2870224175132,-11.308706782773,-3.5164798944481));
#1330=CARTESIAN_POINT('',(-8.3948580964453,-11.328750099143,-3.2471269799087));
#1331=CARTESIAN_POINT('',(-8.459840727649,-11.353109482723,-3.0721246306989));
#1332=CARTESIAN_POINT('',(-8.5000838189454,-11.378232242753,-2.9582828630367));
#1333=CARTESIAN_POINT('',(-8.5254475814761,-11.401148602806,-2.884115297027));
#1334=CARTESIAN_POINT('',(-8.545401339649,-11.427841721713,-2.8243877225843));
#1335=CARTESIAN_POINT('',(-8.5566414724873,-11.450748148854,-2.7900200503131));
#1336=CARTESIAN_POINT('',(-8.5616684054866,-11.472581425212,-2.7744970921758));
#1337=CARTESIAN_POINT('',(-5.0861003778057,-11.499873427706,-7.1813503202455));
#1338=CARTESIAN_POINT('',(-5.4430929118922,-11.499873427706,-6.9285108033135));
#1339=CARTESIAN_POINT('',(-5.9053877764417,-11.499873427706,-6.5463137404675));
#1340=CARTESIAN_POINT('',(-6.4548984547667,-11.499873427706,-5.9886445313056));
#1341=CARTESIAN_POINT('',(-6.7867262251703,-11.499873427706,-5.6096783190841));
#1342=CARTESIAN_POINT('',(-7.0922356681424,-11.499873427706,-5.216683718771));
#1343=CARTESIAN_POINT('',(-7.3430515130072,-11.499873427706,-4.8558800447337));
#1344=CARTESIAN_POINT('',(-7.5664056666662,-11.499873427706,-4.4988891066764));
#1345=CARTESIAN_POINT('',(-7.7703818752091,-11.499873427706,-4.1395396258903));
#1346=CARTESIAN_POINT('',(-7.9838926147792,-11.499873427706,-3.7718301205375));
#1347=CARTESIAN_POINT('',(-8.1700765575116,-11.499873427706,-3.4489718313316));
#1348=CARTESIAN_POINT('',(-8.3136921212977,-11.499873427706,-3.2002651703834));
#1349=CARTESIAN_POINT('',(-8.4057145942419,-11.499873427706,-3.0408749671998));
#1350=CARTESIAN_POINT('',(-8.4650704693924,-11.499873427706,-2.9380678881394));
#1351=CARTESIAN_POINT('',(-8.5035268902863,-11.499873427706,-2.871459380574));
#1352=CARTESIAN_POINT('',(-8.5343781296178,-11.499873427706,-2.818023469137));
#1353=CARTESIAN_POINT('',(-8.5520698009868,-11.499873427706,-2.7873805945987));
#1354=CARTESIAN_POINT('',(-8.5600481723996,-11.499873427706,-2.7735616501668));
#1355=B_SPLINE_SURFACE_WITH_KNOTS('',1,3,((#1319,#1320,#1321,#1322,#1323,#1324,#1325,#1326,#1327,#1328,#1329,#1330,#1331,#1332,#1333,#1334,#1335,#1336),(#1337,#1338,#1339,#1340,#1341,#1342,#1343,#1344,#1345,#1346,#1347,#1348,#1349,#1350,#1351,#1352,#1353,#1354)),.UNSPECIFIED.,.F.,.F.,.U.,(2,2),(4,1,1,1,1,1,1,1,1,1,1,1,1,1,1,4),(0.,0.28240890078009),(0.,1.3425424548051,1.837481107482,2.4030189219025,2.8887685677041,3.3657532316196,3.7509303691865,4.1849500275757,4.6225253949164,5.042433098491,5.3198669415719,5.5000685209611,5.6073738760154,5.687394621472,5.7402745416003,5.804966401259),.UNSPECIFIED.);
#1356=ORIENTED_EDGE('',*,*,#1147,.F.);
#1357=ORIENTED_EDGE('',*,*,#1182,.F.);
#1358=ORIENTED_EDGE('',*,*,#1219,.F.);
#1359=ORIENTED_EDGE('',*,*,#600,.F.);
#1360=ORIENTED_EDGE('',*,*,#1285,.F.);
#1361=EDGE_LOOP('',(#1356,#1357,#1358,#1359,#1360));
#1362=FACE_OUTER_BOUND('',#1361,.T.);
#1363=ADVANCED_FACE('',(#1362),#1355,.T.);
#1364=CARTESIAN_POINT('',(-1.1003747829753E-14,2.3000000000001,1.2553930933154E-14));
#1365=DIRECTION('',(-1.,-1.4199629459489E-16,-1.4124395824934E-15));
#1366=DIRECTION('',(1.4199629459489E-16,-1.,-1.0490631221621E-16));
#1367=AXIS2_PLACEMENT_3D('',#1364,#1366,#1365);
#1368=CONICAL_SURFACE('',#1367,0.,0.78539816339744);
#1369=CARTESIAN_POINT('',(-8.8,-6.5,-1.0776891832497E-15));
#1370=DIRECTION('',(-0.70710678118655,-0.70710678118655,7.7070089004959E-15));
#1371=VECTOR('',#1370,0.28284271247462);
#1372=LINE('',#1369,#1371);
#1373=EDGE_CURVE('',#490,#637,#1372,.T.);
#1374=ORIENTED_EDGE('',*,*,#1373,.F.);
#1375=ORIENTED_EDGE('',*,*,#496,.F.);
#1376=ORIENTED_EDGE('',*,*,#1373,.T.);
#1377=ORIENTED_EDGE('',*,*,#649,.F.);
#1378=EDGE_LOOP('',(#1374,#1375,#1376,#1377));
#1379=FACE_OUTER_BOUND('',#1378,.T.);
#1380=ADVANCED_FACE('',(#1379),#1368,.T.);
#1381=CARTESIAN_POINT('',(-4.4408920985006E-15,-26.29999999999,-5.3290705182008E-15));
#1382=DIRECTION('',(0.94977427243059,9.8531491493007E-17,0.31293582637492));
#1383=DIRECTION('',(-1.0288536126255E-16,1.,-2.5999655122095E-18));
#1384=AXIS2_PLACEMENT_3D('',#1381,#1383,#1382);
#1385=CONICAL_SURFACE('',#1384,0.,0.78539816339803);
#1386=ORIENTED_EDGE('',*,*,#617,.F.);
#1387=ORIENTED_EDGE('',*,*,#1211,.F.);
#1388=CARTESIAN_POINT('',(-7.7436150678179,-17.387362664489,-4.4126415139467));
#1389=CARTESIAN_POINT('',(-7.7108601352425,-17.443710890003,-4.3562875979002));
#1390=CARTESIAN_POINT('',(-7.677890423308,-17.5,-4.2999999697105));
#1391=B_SPLINE_CURVE_WITH_KNOTS('',2,(#1388,#1389,#1390),.UNSPECIFIED.,.F.,.U.,(3,3),(0.,1.),.UNSPECIFIED.);
#1392=EDGE_CURVE('',#1199,#771,#1391,.T.);
#1393=ORIENTED_EDGE('',*,*,#1392,.T.);
#1394=ORIENTED_EDGE('',*,*,#777,.F.);
#1395=ORIENTED_EDGE('',*,*,#945,.F.);
#1396=EDGE_LOOP('',(#1386,#1387,#1393,#1394,#1395));
#1397=FACE_OUTER_BOUND('',#1396,.T.);
#1398=ADVANCED_FACE('',(#1397),#1385,.T.);
#1399=CARTESIAN_POINT('',(4.6916190333334,-17.4,-4.4));
#1400=DIRECTION('',(0.,0.70710678118654,-0.70710678118656));
#1401=DIRECTION('',(-2.0201853374803E-16,-0.70710678118656,-0.70710678118654));
#1402=AXIS2_PLACEMENT_3D('',#1399,#1401,#1400);
#1403=PLANE('',#1402);
#1404=CARTESIAN_POINT('',(-2.1859738055122,-17.3,-4.5));
#1405=DIRECTION('',(0.57735026918963,-0.57735026918962,0.57735026918963));
#1406=VECTOR('',#1405,0.34641016151378);
#1407=LINE('',#1404,#1406);
#1408=EDGE_CURVE('',#1055,#780,#1407,.T.);
#1409=ORIENTED_EDGE('',*,*,#1408,.T.);
#1410=ORIENTED_EDGE('',*,*,#785,.F.);
#1411=ORIENTED_EDGE('',*,*,#1392,.F.);
#1412=ORIENTED_EDGE('',*,*,#1204,.F.);
#1413=ORIENTED_EDGE('',*,*,#1165,.F.);
#1414=EDGE_LOOP('',(#1409,#1410,#1411,#1412,#1413));
#1415=FACE_OUTER_BOUND('',#1414,.T.);
#1416=ADVANCED_FACE('',(#1415),#1403,.T.);
#1417=CARTESIAN_POINT('',(-2.0859738055123,-17.4,2.5744523070831));
#1418=DIRECTION('',(-0.70710678118655,0.70710678118654,-1.2560739624906E-14));
#1419=DIRECTION('',(-0.70710678118654,-0.70710678118655,-6.9913902844547E-18));
#1420=AXIS2_PLACEMENT_3D('',#1417,#1419,#1418);
#1421=PLANE('',#1420);
#1422=ORIENTED_EDGE('',*,*,#1312,.F.);
#1423=CARTESIAN_POINT('',(-2.0884756526701,-17.397486756247,-8.654154131151));
#1424=CARTESIAN_POINT('',(-2.0372011075286,-17.44877459851,-8.6136339887656));
#1425=CARTESIAN_POINT('',(-1.9859738052872,-17.499999998806,-8.5729754564206));
#1426=B_SPLINE_CURVE_WITH_KNOTS('',2,(#1423,#1424,#1425),.UNSPECIFIED.,.F.,.U.,(3,3),(1.165089462238E-08,0.99946272602776),.UNSPECIFIED.);
#1427=EDGE_CURVE('',#1297,#788,#1426,.T.);
#1428=ORIENTED_EDGE('',*,*,#1427,.T.);
#1429=ORIENTED_EDGE('',*,*,#793,.F.);
#1430=ORIENTED_EDGE('',*,*,#1408,.F.);
#1431=ORIENTED_EDGE('',*,*,#1060,.F.);
#1432=EDGE_LOOP('',(#1422,#1428,#1429,#1430,#1431));
#1433=FACE_OUTER_BOUND('',#1432,.T.);
#1434=ADVANCED_FACE('',(#1433),#1421,.T.);
#1435=CARTESIAN_POINT('',(-4.8849813083507E-15,-26.3,-5.3290705182008E-15));
#1436=DIRECTION('',(-1.,3.0548162700799E-17,4.4708540232169E-16));
#1437=DIRECTION('',(3.0548162700799E-17,1.,2.2568864230327E-17));
#1438=AXIS2_PLACEMENT_3D('',#1435,#1437,#1436);
#1439=CONICAL_SURFACE('',#1438,0.,0.78539816339747);
#1440=ORIENTED_EDGE('',*,*,#913,.F.);
#1441=ORIENTED_EDGE('',*,*,#800,.F.);
#1442=ORIENTED_EDGE('',*,*,#1427,.F.);
#1443=ORIENTED_EDGE('',*,*,#1305,.F.);
#1444=ORIENTED_EDGE('',*,*,#548,.F.);
#1445=EDGE_LOOP('',(#1440,#1441,#1442,#1443,#1444));
#1446=FACE_OUTER_BOUND('',#1445,.T.);
#1447=ADVANCED_FACE('',(#1446),#1439,.T.);
#1448=CARTESIAN_POINT('',(3.6359804056474E-15,-15.8,-5.1070259132757E-15));
#1449=DIRECTION('',(-0.95576396033328,0.,0.29413475164973));
#1450=DIRECTION('',(-0.,-1.,-0.));
#1451=AXIS2_PLACEMENT_3D('',#1448,#1450,#1449);
#1452=CONICAL_SURFACE('',#1451,3.8275532525315E-15,0.78539816339746);
#1453=ORIENTED_EDGE('',*,*,#905,.F.);
#1454=ORIENTED_EDGE('',*,*,#697,.F.);
#1455=ORIENTED_EDGE('',*,*,#953,.F.);
#1456=ORIENTED_EDGE('',*,*,#760,.T.);
#1457=EDGE_LOOP('',(#1453,#1454,#1455,#1456));
#1458=FACE_OUTER_BOUND('',#1457,.T.);
#1459=ADVANCED_FACE('',(#1458),#1452,.F.);
#1460=CARTESIAN_POINT('',(0.56269330410536,-5.7,-8.8817841970013E-16));
#1461=DIRECTION('',(-1.,0.,2.0070075189639E-16));
#1462=DIRECTION('',(0.,1.,-0.));
#1463=AXIS2_PLACEMENT_3D('',#1460,#1462,#1461);
#1464=PLANE('',#1463);
#1465=ORIENTED_EDGE('',*,*,#478,.F.);
#1466=EDGE_LOOP('',(#1465));
#1467=FACE_OUTER_BOUND('',#1466,.T.);
#1468=ADVANCED_FACE('',(#1467),#1464,.T.);
#1469=CARTESIAN_POINT('',(0.56269330410536,-6.7,-8.8817841970013E-16));
#1470=DIRECTION('',(-1.,0.,1.0764790116063E-16));
#1471=DIRECTION('',(-0.,-1.,-0.));
#1472=AXIS2_PLACEMENT_3D('',#1469,#1471,#1470);
#1473=PLANE('',#1472);
#1474=ORIENTED_EDGE('',*,*,#720,.T.);
#1475=EDGE_LOOP('',(#1474));
#1476=FACE_OUTER_BOUND('',#1475,.T.);
#1477=ADVANCED_FACE('',(#1476),#1473,.T.);
#1478=CARTESIAN_POINT('',(-4.8849813083507E-15,-10.,-1.2434497875802E-14));
#1479=DIRECTION('',(0.76604444311898,-2.0185873153365E-16,0.64278760968654));
#1480=DIRECTION('',(4.4408920985006E-16,-1.,0.));
#1481=AXIS2_PLACEMENT_3D('',#1478,#1480,#1479);
#1482=CYLINDRICAL_SURFACE('',#1481,8.800000009433);
#1483=ORIENTED_EDGE('',*,*,#834,.T.);
#1484=CARTESIAN_POINT('',(-8.7857839810177,-10.,0.50000000491308));
#1485=DIRECTION('',(0.,-1.,0.));
#1486=VECTOR('',#1485,1.);
#1487=LINE('',#1484,#1486);
#1488=EDGE_CURVE('',#820,#876,#1487,.T.);
#1489=ORIENTED_EDGE('',*,*,#1488,.T.);
#1490=ORIENTED_EDGE('',*,*,#890,.F.);
#1491=ORIENTED_EDGE('',*,*,#859,.F.);
#1492=EDGE_LOOP('',(#1483,#1489,#1490,#1491));
#1493=FACE_OUTER_BOUND('',#1492,.T.);
#1494=ADVANCED_FACE('',(#1493),#1482,.T.);
#1495=CARTESIAN_POINT('',(-8.7857839810177,-13.645114765691,1.1102230246252E-15));
#1496=DIRECTION('',(0.,1.,0.));
#1497=DIRECTION('',(-1.,0.,0.));
#1498=AXIS2_PLACEMENT_3D('',#1495,#1497,#1496);
#1499=PLANE('',#1498);
#1500=ORIENTED_EDGE('',*,*,#923,.T.);
#1501=ORIENTED_EDGE('',*,*,#1488,.F.);
#1502=ORIENTED_EDGE('',*,*,#825,.T.);
#1503=ORIENTED_EDGE('',*,*,#967,.F.);
#1504=CARTESIAN_POINT('',(-8.7857839810177,-17.290229531382,0.5));
#1505=DIRECTION('',(0.,0.,-1.));
#1506=VECTOR('',#1505,1.);
#1507=LINE('',#1504,#1506);
#1508=EDGE_CURVE('',#918,#956,#1507,.T.);
#1509=ORIENTED_EDGE('',*,*,#1508,.F.);
#1510=EDGE_LOOP('',(#1500,#1501,#1502,#1503,#1509));
#1511=FACE_OUTER_BOUND('',#1510,.T.);
#1512=ADVANCED_FACE('',(#1511),#1499,.T.);
#1513=CARTESIAN_POINT('',(-5.0999987716954,-17.295114765691,6.6613381477509E-16));
#1514=DIRECTION('',(-0.99999912162456,0.0013254244999818,1.204868961571E-16));
#1515=DIRECTION('',(-0.0013254244999818,-0.99999912162456,2.9430335945642E-19));
#1516=AXIS2_PLACEMENT_3D('',#1513,#1515,#1514);
#1517=PLANE('',#1516);
#1518=ORIENTED_EDGE('',*,*,#929,.T.);
#1519=ORIENTED_EDGE('',*,*,#1508,.T.);
#1520=ORIENTED_EDGE('',*,*,#961,.F.);
#1521=ORIENTED_EDGE('',*,*,#705,.F.);
#1522=EDGE_LOOP('',(#1518,#1519,#1520,#1521));
#1523=FACE_OUTER_BOUND('',#1522,.T.);
#1524=ADVANCED_FACE('',(#1523),#1517,.T.);
#1525=CARTESIAN_POINT('',(-5.0999987716954,-13.685785209322,-0.5));
#1526=DIRECTION('',(1.,-2.1906727634532E-16,-1.2322534294424E-16));
#1527=DIRECTION('',(-1.2322534294424E-16,-0.,-1.));
#1528=AXIS2_PLACEMENT_3D('',#1525,#1527,#1526);
#1529=PLANE('',#1528);
#1530=ORIENTED_EDGE('',*,*,#1010,.T.);
#1531=EDGE_LOOP('',(#1530));
#1532=FACE_OUTER_BOUND('',#1531,.T.);
#1533=ORIENTED_EDGE('',*,*,#991,.F.);
#1534=EDGE_LOOP('',(#1533));
#1535=FACE_BOUND('',#1534,.T.);
#1536=ADVANCED_FACE('',(#1532,#1535),#1529,.T.);
#1537=CLOSED_SHELL('',(#150,#197,#235,#273,#311,#349,#378,#389,#400,#411,#422,#433,#444,#483,#508,#682,#725,#804,#845,#869,#894,#933,#972,#997,#1030,#1070,#1123,#1152,#1191,#1223,#1289,#1318,#1363,#1380,#1398,#1416,#1434,#1447,#1459,#1468,#1477,#1494,#1512,#1524,#1536));
#1538=COLOUR_RGB('',0.745098,0.901961,0.960784);
#1539=FILL_AREA_STYLE_COLOUR('',#1538);
#1540=FILL_AREA_STYLE('',(#1539));
#1541=SURFACE_STYLE_FILL_AREA(#1540);
#1542=SURFACE_SIDE_STYLE('',(#1541));
#1543=SURFACE_STYLE_USAGE(.BOTH.,#1542);
#1544=PRESENTATION_STYLE_ASSIGNMENT((#1543));
#1545=OVER_RIDING_STYLED_ITEM('',(#1544),#150,#1537);
#1546=OVER_RIDING_STYLED_ITEM('',(#1544),#197,#1537);
#1547=OVER_RIDING_STYLED_ITEM('',(#1544),#235,#1537);
#1548=OVER_RIDING_STYLED_ITEM('',(#1544),#273,#1537);
#1549=OVER_RIDING_STYLED_ITEM('',(#1544),#311,#1537);
#1550=OVER_RIDING_STYLED_ITEM('',(#1544),#349,#1537);
#1551=OVER_RIDING_STYLED_ITEM('',(#1544),#378,#1537);
#1552=OVER_RIDING_STYLED_ITEM('',(#1544),#389,#1537);
#1553=OVER_RIDING_STYLED_ITEM('',(#1544),#400,#1537);
#1554=OVER_RIDING_STYLED_ITEM('',(#1544),#411,#1537);
#1555=OVER_RIDING_STYLED_ITEM('',(#1544),#422,#1537);
#1556=OVER_RIDING_STYLED_ITEM('',(#1544),#433,#1537);
#1557=OVER_RIDING_STYLED_ITEM('',(#1544),#444,#1537);
#1558=COLOUR_RGB('',0.54902,0.54902,0.921569);
#1559=FILL_AREA_STYLE_COLOUR('',#1558);
#1560=FILL_AREA_STYLE('',(#1559));
#1561=SURFACE_STYLE_FILL_AREA(#1560);
#1562=SURFACE_SIDE_STYLE('',(#1561));
#1563=SURFACE_STYLE_USAGE(.BOTH.,#1562);
#1564=PRESENTATION_STYLE_ASSIGNMENT((#1563));
#1565=OVER_RIDING_STYLED_ITEM('',(#1564),#483,#1537);
#1566=OVER_RIDING_STYLED_ITEM('',(#1544),#508,#1537);
#1567=OVER_RIDING_STYLED_ITEM('',(#1544),#682,#1537);
#1568=OVER_RIDING_STYLED_ITEM('',(#1544),#725,#1537);
#1569=OVER_RIDING_STYLED_ITEM('',(#1544),#804,#1537);
#1570=OVER_RIDING_STYLED_ITEM('',(#1544),#845,#1537);
#1571=OVER_RIDING_STYLED_ITEM('',(#1544),#869,#1537);
#1572=OVER_RIDING_STYLED_ITEM('',(#1544),#894,#1537);
#1573=OVER_RIDING_STYLED_ITEM('',(#1544),#933,#1537);
#1574=OVER_RIDING_STYLED_ITEM('',(#1544),#972,#1537);
#1575=OVER_RIDING_STYLED_ITEM('',(#1564),#997,#1537);
#1576=OVER_RIDING_STYLED_ITEM('',(#1544),#1030,#1537);
#1577=OVER_RIDING_STYLED_ITEM('',(#1544),#1070,#1537);
#1578=OVER_RIDING_STYLED_ITEM('',(#1544),#1123,#1537);
#1579=OVER_RIDING_STYLED_ITEM('',(#1544),#1152,#1537);
#1580=OVER_RIDING_STYLED_ITEM('',(#1544),#1191,#1537);
#1581=OVER_RIDING_STYLED_ITEM('',(#1544),#1223,#1537);
#1582=OVER_RIDING_STYLED_ITEM('',(#1544),#1289,#1537);
#1583=OVER_RIDING_STYLED_ITEM('',(#1544),#1318,#1537);
#1584=OVER_RIDING_STYLED_ITEM('',(#1544),#1363,#1537);
#1585=OVER_RIDING_STYLED_ITEM('',(#1544),#1380,#1537);
#1586=OVER_RIDING_STYLED_ITEM('',(#1544),#1398,#1537);
#1587=OVER_RIDING_STYLED_ITEM('',(#1544),#1416,#1537);
#1588=OVER_RIDING_STYLED_ITEM('',(#1544),#1434,#1537);
#1589=OVER_RIDING_STYLED_ITEM('',(#1544),#1447,#1537);
#1590=OVER_RIDING_STYLED_ITEM('',(#1544),#1459,#1537);
#1591=OVER_RIDING_STYLED_ITEM('',(#1544),#1468,#1537);
#1592=OVER_RIDING_STYLED_ITEM('',(#1544),#1477,#1537);
#1593=OVER_RIDING_STYLED_ITEM('',(#1544),#1494,#1537);
#1594=OVER_RIDING_STYLED_ITEM('',(#1544),#1512,#1537);
#1595=OVER_RIDING_STYLED_ITEM('',(#1544),#1524,#1537);
#1596=OVER_RIDING_STYLED_ITEM('',(#1544),#1536,#1537);
#1597=MANIFOLD_SOLID_BREP('S1',#1537);
#1598=ADVANCED_BREP_SHAPE_REPRESENTATION('',(#1597),#5);
#1599=SHAPE_REPRESENTATION_RELATIONSHIP('NONE', 'NONE', #28, #1598);
#1600=PRESENTATION_LAYER_ASSIGNMENT('Í¼²ã000','',(#1597));
#1601=MECHANICAL_DESIGN_GEOMETRIC_PRESENTATION_REPRESENTATION('',(#1545,#1546,#1547,#1548,#1549,#1550,#1551,#1552,#1553,#1554,#1555,#1556,#1557,#1565,#1566,#1567,#1568,#1569,#1570,#1571,#1572,#1573,#1574,#1575,#1576,#1577,#1578,#1579,#1580,#1581,#1582,#1583,#1584,#1585,#1586,#1587,#1588,#1589,#1590,#1591,#1592,#1593,#1594,#1595,#1596),#5);
ENDSEC;
END-ISO-10303-21;
