ISO-10303-21;
HEADER;
FILE_DESCRIPTION(
  ('This file contains a STEP AP42 implementation'
    ,'as created by ZW3D STEP Interface translator.')
  ,'2;1'
  );
FILE_NAME(
  '4mm±§½ôÊ½Áù½ÇÁªÖáÆ÷£¨¿Í»§Í¼£©.stp'
  ,'25 2 8.161224',
  (''),
  ('ZWCAD Software Co.'),
  'Version 1.0',
  'ZW3D to STEP translator',
  ''
  );
FILE_SCHEMA(('AUTOMOTIVE_DESIGN { 1 0 10303 214 1 1 1 1 }'));
ENDSEC;

DATA;

/**File Base Unit**/
#1 = (LENGTH_UNIT()NAMED_UNIT(*)SI_UNIT(.MILLI.,.METRE.));
#2 = (NAMED_UNIT(*)PLANE_ANGLE_UNIT()SI_UNIT($,.RADIAN.));
#3 = (NAMED_UNIT(*)SI_UNIT($,.STERADIAN.)SOLID_ANGLE_UNIT());
#4 = UNCERTAINTY_MEASURE_WITH_UNIT(LENGTH_MEASURE(0.01),#1,'DISTANCE_ACCURACY_VALUE','Maximum Tolerance applied to model');
#5 = (GEOMETRIC_REPRESENTATION_CONTEXT(3)GLOBAL_UNCERTAINTY_ASSIGNED_CONTEXT((#4))GLOBAL_UNIT_ASSIGNED_CONTEXT((#1,#2,#3))REPRESENTATION_CONTEXT('STEP 203','TOP_LEVEL_ASSEMBLY_PART'));

/**product_definition_shape**/
#6=APPLICATION_CONTEXT('mechanical parts and assemblies' );
#7=DESIGN_CONTEXT('NONE',#6,'design');
#8=MECHANICAL_CONTEXT('NONE',#6,'mechanical');
#9=PRODUCT('0','Part','',(#8));
#10=PRODUCT_DEFINITION_FORMATION_WITH_SPECIFIED_SOURCE('ANY','',#9,.NOT_KNOWN.);
#11=PRODUCT_DEFINITION('UNKNOWN','',#10,#7);
#12=PRODUCT_DEFINITION_SHAPE('NONE','NONE',#11);
#13=PRODUCT_RELATED_PRODUCT_CATEGORY('detail','',(#9));
/**geometry information**/
#14=CARTESIAN_POINT('',(0.,0.,0.));
#15=DIRECTION('',(0.,0.,1.));
#16=DIRECTION('',(1.,0.,0.));
#17=AXIS2_PLACEMENT_3D('',#14,#15,#16);
#18=APPLICATION_CONTEXT('part');
#19=MECHANICAL_CONTEXT('none',#18,'component');
#20=PRODUCT('4mm±§½ôÊ½Áù½ÇÁªÖáÆ÷','4mm±§½ôÊ½Áù½ÇÁªÖáÆ÷','',(#19));
#21=PRODUCT_RELATED_PRODUCT_CATEGORY('detail','',(#20));
#22=PRODUCT_DEFINITION_FORMATION_WITH_SPECIFIED_SOURCE('ANY','UNSPECIFIED',#20,.NOT_KNOWN.);
#23=APPLICATION_CONTEXT('part');
#24=APPLICATION_PROTOCOL_DEFINITION('international standard','config_control_design',1994,#23);
#25=DESIGN_CONTEXT('detailed',#23,'design');
#26=PRODUCT_DEFINITION('','UNSPECIFIED',#22,#25);
#27=PRODUCT_DEFINITION_SHAPE('NONE','NONE',#26);
#28=SHAPE_REPRESENTATION('4mm±§½ôÊ½Áù½ÇÁªÖáÆ÷',(#17),#5);
#29=SHAPE_DEFINITION_REPRESENTATION(#27,#28);
#30=CARTESIAN_POINT('',(0.92820323027551,0.,-1.7763568394003E-15));
#31=DIRECTION('',(1.,0.,0.));
#32=DIRECTION('',(-0.,1.,0.));
#33=AXIS2_PLACEMENT_3D('',#30,#32,#31);
#34=PLANE('',#33);
#35=CARTESIAN_POINT('',(1.920112911611,-3.137680611084E-17,-5.8196255238824));
#36=VERTEX_POINT('',#35);
#37=CARTESIAN_POINT('',(-1.920112911611,-3.1716953453693E-17,-5.8196255238824));
#38=VERTEX_POINT('',#37);
#39=CARTESIAN_POINT('',(5.1250358699021E-16,-6.1232339957368E-17,2.5757174171304E-14));
#40=DIRECTION('',(0.31332396127546,6.0340451422288E-33,-0.94964630009844));
#41=DIRECTION('',(0.,1.,8.1137064532916E-33));
#42=AXIS2_PLACEMENT_3D('',#39,#41,#40);
#43=CIRCLE('',#42,6.1282032302755);
#44=EDGE_CURVE('',#36,#38,#43,.T.);
#45=ORIENTED_EDGE('',*,*,#44,.T.);
#46=CARTESIAN_POINT('',(-4.079887088389,-3.1051434250296E-17,-4.5726793215308));
#47=VERTEX_POINT('',#46);
#48=CARTESIAN_POINT('',(-1.920112911611,-3.1716953453693E-17,-5.8196255238824));
#49=DIRECTION('',(-0.86602540378444,2.6685962960628E-19,0.50000000000001));
#50=VECTOR('',#49,2.4938924047032);
#51=LINE('',#48,#50);
#52=EDGE_CURVE('',#38,#47,#51,.T.);
#53=ORIENTED_EDGE('',*,*,#52,.T.);
#54=CARTESIAN_POINT('',(-6.,-3.0616169978684E-17,-1.2469462023516));
#55=VERTEX_POINT('',#54);
#56=CARTESIAN_POINT('',(7.9936057773011E-15,-6.1232339957368E-17,5.3290705182008E-15));
#57=DIRECTION('',(-0.66575583985742,-6.0340451422289E-33,-0.74616966012814));
#58=DIRECTION('',(-7.567189438739E-33,1.,-4.3689188594648E-33));
#59=AXIS2_PLACEMENT_3D('',#56,#58,#57);
#60=CIRCLE('',#59,6.1282032302755);
#61=EDGE_CURVE('',#47,#55,#60,.T.);
#62=ORIENTED_EDGE('',*,*,#61,.T.);
#63=CARTESIAN_POINT('',(-6.,-3.0616169978684E-17,1.2469462023515));
#64=VERTEX_POINT('',#63);
#65=CARTESIAN_POINT('',(-6.,-3.0616169978684E-17,-1.2469462023516));
#66=DIRECTION('',(0.,0.,1.));
#67=VECTOR('',#66,2.4938924047031);
#68=LINE('',#65,#67);
#69=EDGE_CURVE('',#55,#64,#68,.T.);
#70=ORIENTED_EDGE('',*,*,#69,.T.);
#71=CARTESIAN_POINT('',(-4.0798870837859,-3.0616172312538E-17,4.5726793256379));
#72=VERTEX_POINT('',#71);
#73=CARTESIAN_POINT('',(-4.4408920985006E-15,-6.1232339957368E-17,2.2204460492503E-15));
#74=DIRECTION('',(-0.97907980113288,-4.0226967614859E-33,0.20347663997028));
#75=DIRECTION('',(-5.9456488243739E-33,1.,3.4327219532494E-33));
#76=AXIS2_PLACEMENT_3D('',#73,#75,#74);
#77=CIRCLE('',#76,6.1282032302755);
#78=EDGE_CURVE('',#64,#72,#77,.T.);
#79=ORIENTED_EDGE('',*,*,#78,.T.);
#80=CARTESIAN_POINT('',(-1.9201129116107,-3.0627226113509E-17,5.8196255238825));
#81=VERTEX_POINT('',#80);
#82=CARTESIAN_POINT('',(-4.0798870837859,-3.0616172312538E-17,4.5726793256379));
#83=DIRECTION('',(0.86602540403612,-4.4323487961712E-21,0.49999999956407));
#84=VECTOR('',#83,2.4938923986635);
#85=LINE('',#82,#84);
#86=EDGE_CURVE('',#72,#81,#85,.T.);
#87=ORIENTED_EDGE('',*,*,#86,.T.);
#88=CARTESIAN_POINT('',(1.9201129116109,-4.5425369840316E-16,5.8196255238825));
#89=VERTEX_POINT('',#88);
#90=CARTESIAN_POINT('',(3.0841326030853E-15,-6.1232339957368E-17,1.1546319456102E-14));
#91=DIRECTION('',(-0.31332396127541,-4.0226967614859E-33,0.94964630009845));
#92=DIRECTION('',(1.032108688143E-46,1.,6.8654439220175E-33));
#93=AXIS2_PLACEMENT_3D('',#90,#92,#91);
#94=CIRCLE('',#93,6.1282032302755);
#95=EDGE_CURVE('',#81,#89,#94,.T.);
#96=ORIENTED_EDGE('',*,*,#95,.T.);
#97=CARTESIAN_POINT('',(4.0798870883882,-3.0616169978684E-17,4.5726793215315));
#98=VERTEX_POINT('',#97);
#99=CARTESIAN_POINT('',(1.9201129116109,-4.5425369840316E-16,5.8196255238825));
#100=DIRECTION('',(0.86602540378447,1.698700102802E-16,-0.49999999999995));
#101=VECTOR('',#100,2.4938924047023);
#102=LINE('',#99,#101);
#103=EDGE_CURVE('',#89,#98,#102,.T.);
#104=ORIENTED_EDGE('',*,*,#103,.T.);
#105=CARTESIAN_POINT('',(6.,0.,1.2469462023516));
#106=VERTEX_POINT('',#105);
#107=CARTESIAN_POINT('',(-3.5527136788005E-15,-6.1232339957368E-17,-4.4408920985006E-16));
#108=DIRECTION('',(0.66575583985729,1.0056741903715E-32,0.74616966012825));
#109=DIRECTION('',(-8.6482165014109E-33,1.,-4.9930501251007E-33));
#110=AXIS2_PLACEMENT_3D('',#107,#109,#108);
#111=CIRCLE('',#110,6.1282032302755);
#112=EDGE_CURVE('',#98,#106,#111,.T.);
#113=ORIENTED_EDGE('',*,*,#112,.T.);
#114=CARTESIAN_POINT('',(6.,0.,-1.2469462023516));
#115=VERTEX_POINT('',#114);
#116=CARTESIAN_POINT('',(6.,0.,1.2469462023516));
#117=DIRECTION('',(0.,0.,-1.));
#118=VECTOR('',#117,2.4938924047032);
#119=LINE('',#116,#118);
#120=EDGE_CURVE('',#106,#115,#119,.T.);
#121=ORIENTED_EDGE('',*,*,#120,.T.);
#122=CARTESIAN_POINT('',(4.079887088389,2.1030160706867E-16,-4.5726793215308));
#123=VERTEX_POINT('',#122);
#124=CARTESIAN_POINT('',(8.8817841970013E-16,-6.1232339957368E-17,8.8817841970013E-16));
#125=DIRECTION('',(0.97907980113288,2.0113483807429E-33,-0.2034766399703));
#126=DIRECTION('',(-1.081027062677E-33,1.,6.2413126563783E-34));
#127=AXIS2_PLACEMENT_3D('',#124,#126,#125);
#128=CIRCLE('',#127,6.1282032302755);
#129=EDGE_CURVE('',#115,#123,#128,.T.);
#130=ORIENTED_EDGE('',*,*,#129,.T.);
#131=CARTESIAN_POINT('',(4.079887088389,2.1030160706867E-16,-4.5726793215308));
#132=DIRECTION('',(-0.86602540378444,-9.6908115491965E-17,-0.50000000000001));
#133=VECTOR('',#132,2.4938924047032);
#134=LINE('',#131,#133);
#135=EDGE_CURVE('',#123,#36,#134,.T.);
#136=ORIENTED_EDGE('',*,*,#135,.T.);
#137=EDGE_LOOP('',(#45,#53,#62,#70,#79,#87,#96,#104,#113,#121,#130,#136));
#138=FACE_OUTER_BOUND('',#137,.T.);
#139=CARTESIAN_POINT('',(4.0792946741241E-16,1.1102230246252E-15,1.65));
#140=VERTEX_POINT('',#139);
#141=CARTESIAN_POINT('',(4.864340903466E-16,1.6462861212869E-15,-2.4424906541753E-15));
#142=DIRECTION('',(-4.7578559354054E-17,-3.2488672524957E-16,1.));
#143=DIRECTION('',(-8.6317667658298E-16,-1.,-3.2488672524957E-16));
#144=AXIS2_PLACEMENT_3D('',#141,#143,#142);
#145=CIRCLE('',#144,1.65);
#146=EDGE_CURVE('',#140,#140,#145,.T.);
#147=ORIENTED_EDGE('',*,*,#146,.T.);
#148=EDGE_LOOP('',(#147));
#149=FACE_BOUND('',#148,.T.);
#150=ADVANCED_FACE('',(#138,#149),#34,.T.);
#151=CARTESIAN_POINT('',(3.,-3.25,5.1961524227066));
#152=DIRECTION('',(-0.86602540378444,0.,0.5));
#153=DIRECTION('',(0.5,0.,0.86602540378444));
#154=AXIS2_PLACEMENT_3D('',#151,#153,#152);
#155=PLANE('',#154);
#156=CARTESIAN_POINT('',(-3.9968028886506E-15,-6.5,6.9282032302755));
#157=VERTEX_POINT('',#156);
#158=CARTESIAN_POINT('',(6.,-6.5,3.4641016151378));
#159=VERTEX_POINT('',#158);
#160=CARTESIAN_POINT('',(-3.9968028886506E-15,-6.5,6.9282032302755));
#161=DIRECTION('',(0.86602540378444,0.,-0.49999999999999));
#162=VECTOR('',#161,6.9282032302755);
#163=LINE('',#160,#162);
#164=EDGE_CURVE('',#157,#159,#163,.T.);
#165=ORIENTED_EDGE('',*,*,#164,.T.);
#166=CARTESIAN_POINT('',(6.,-0.6,3.4641016151378));
#167=VERTEX_POINT('',#166);
#168=CARTESIAN_POINT('',(6.,-6.5,3.4641016151378));
#169=DIRECTION('',(0.,1.,0.));
#170=VECTOR('',#169,5.9);
#171=LINE('',#168,#170);
#172=EDGE_CURVE('',#159,#167,#171,.T.);
#173=ORIENTED_EDGE('',*,*,#172,.T.);
#174=CARTESIAN_POINT('',(6.,-0.6,3.4641016151378));
#175=CARTESIAN_POINT('',(4.981118386831,-0.15881131977338,4.0523531887733));
#176=CARTESIAN_POINT('',(4.079887088389,-4.1660887390917E-16,4.5726793215308));
#177=(BOUNDED_CURVE()B_SPLINE_CURVE(2,(#174,#175,#176),.HYPERBOLIC_ARC.,.F.,.U.)B_SPLINE_CURVE_WITH_KNOTS((3,3),(0.,1.),.UNSPECIFIED.)CURVE()GEOMETRIC_REPRESENTATION_ITEM()RATIONAL_B_SPLINE_CURVE((1.,1.0476704925597,1.065961955354))REPRESENTATION_ITEM(''));
#178=EDGE_CURVE('',#167,#98,#177,.T.);
#179=ORIENTED_EDGE('',*,*,#178,.T.);
#180=ORIENTED_EDGE('',*,*,#103,.F.);
#181=CARTESIAN_POINT('',(-6.1972982128375E-15,-0.6,6.9282032302755));
#182=VERTEX_POINT('',#181);
#183=CARTESIAN_POINT('',(1.920112911611,-8.3321774781835E-16,5.8196255238825));
#184=CARTESIAN_POINT('',(1.018881613169,-0.15881131977338,6.33995165664));
#185=CARTESIAN_POINT('',(-5.3290705182008E-15,-0.6,6.9282032302755));
#186=(BOUNDED_CURVE()B_SPLINE_CURVE(2,(#183,#184,#185),.HYPERBOLIC_ARC.,.F.,.U.)B_SPLINE_CURVE_WITH_KNOTS((3,3),(0.,1.),.UNSPECIFIED.)CURVE()GEOMETRIC_REPRESENTATION_ITEM()RATIONAL_B_SPLINE_CURVE((1.065961955354,1.0476704925597,1.))REPRESENTATION_ITEM(''));
#187=EDGE_CURVE('',#89,#182,#186,.T.);
#188=ORIENTED_EDGE('',*,*,#187,.T.);
#189=CARTESIAN_POINT('',(-6.1972982128375E-15,-0.6,6.9282032302755));
#190=DIRECTION('',(3.7296530918422E-16,-1.,0.));
#191=VECTOR('',#190,5.9);
#192=LINE('',#189,#191);
#193=EDGE_CURVE('',#182,#157,#192,.T.);
#194=ORIENTED_EDGE('',*,*,#193,.T.);
#195=EDGE_LOOP('',(#165,#173,#179,#180,#188,#194));
#196=FACE_OUTER_BOUND('',#195,.T.);
#197=ADVANCED_FACE('',(#196),#155,.T.);
#198=CARTESIAN_POINT('',(-3.,-3.25,5.1961524227066));
#199=DIRECTION('',(-0.86602540378444,0.,-0.5));
#200=DIRECTION('',(-0.5,0.,0.86602540378444));
#201=AXIS2_PLACEMENT_3D('',#198,#200,#199);
#202=PLANE('',#201);
#203=CARTESIAN_POINT('',(-6.,-6.5,3.4641016151378));
#204=VERTEX_POINT('',#203);
#205=CARTESIAN_POINT('',(-6.,-6.5,3.4641016151378));
#206=DIRECTION('',(0.86602540378444,0.,0.49999999999999));
#207=VECTOR('',#206,6.9282032302755);
#208=LINE('',#205,#207);
#209=EDGE_CURVE('',#204,#157,#208,.T.);
#210=ORIENTED_EDGE('',*,*,#209,.T.);
#211=ORIENTED_EDGE('',*,*,#193,.F.);
#212=CARTESIAN_POINT('',(-2.6645352591004E-15,-0.6,6.9282032302755));
#213=CARTESIAN_POINT('',(-1.018881613169,-0.15881131977338,6.33995165664));
#214=CARTESIAN_POINT('',(-1.920112911611,0.,5.8196255238824));
#215=(BOUNDED_CURVE()B_SPLINE_CURVE(2,(#212,#213,#214),.HYPERBOLIC_ARC.,.F.,.U.)B_SPLINE_CURVE_WITH_KNOTS((3,3),(0.,1.),.UNSPECIFIED.)CURVE()GEOMETRIC_REPRESENTATION_ITEM()RATIONAL_B_SPLINE_CURVE((1.,1.0476704925597,1.065961955354))REPRESENTATION_ITEM(''));
#216=EDGE_CURVE('',#182,#81,#215,.T.);
#217=ORIENTED_EDGE('',*,*,#216,.T.);
#218=ORIENTED_EDGE('',*,*,#86,.F.);
#219=CARTESIAN_POINT('',(-6.,-0.6,3.4641016151378));
#220=VERTEX_POINT('',#219);
#221=CARTESIAN_POINT('',(-4.079887088389,0.,4.5726793215308));
#222=CARTESIAN_POINT('',(-4.981118386831,-0.15881131977338,4.0523531887733));
#223=CARTESIAN_POINT('',(-6.,-0.6,3.4641016151378));
#224=(BOUNDED_CURVE()B_SPLINE_CURVE(2,(#221,#222,#223),.HYPERBOLIC_ARC.,.F.,.U.)B_SPLINE_CURVE_WITH_KNOTS((3,3),(0.,1.),.UNSPECIFIED.)CURVE()GEOMETRIC_REPRESENTATION_ITEM()RATIONAL_B_SPLINE_CURVE((1.065961955354,1.0476704925597,1.))REPRESENTATION_ITEM(''));
#225=EDGE_CURVE('',#72,#220,#224,.T.);
#226=ORIENTED_EDGE('',*,*,#225,.T.);
#227=CARTESIAN_POINT('',(-6.,-0.6,3.4641016151378));
#228=DIRECTION('',(0.,-1.,0.));
#229=VECTOR('',#228,5.9);
#230=LINE('',#227,#229);
#231=EDGE_CURVE('',#220,#204,#230,.T.);
#232=ORIENTED_EDGE('',*,*,#231,.T.);
#233=EDGE_LOOP('',(#210,#211,#217,#218,#226,#232));
#234=FACE_OUTER_BOUND('',#233,.T.);
#235=ADVANCED_FACE('',(#234),#202,.T.);
#236=CARTESIAN_POINT('',(-6.,-3.25,-2.2204460492503E-15));
#237=DIRECTION('',(5.1279004970228E-16,0.,-1.));
#238=DIRECTION('',(-1.,-0.,-5.1279004970228E-16));
#239=AXIS2_PLACEMENT_3D('',#236,#238,#237);
#240=PLANE('',#239);
#241=CARTESIAN_POINT('',(-6.,-6.5,-3.4641016151378));
#242=VERTEX_POINT('',#241);
#243=CARTESIAN_POINT('',(-6.,-6.5,-3.4641016151378));
#244=DIRECTION('',(0.,0.,1.));
#245=VECTOR('',#244,6.9282032302756);
#246=LINE('',#243,#245);
#247=EDGE_CURVE('',#242,#204,#246,.T.);
#248=ORIENTED_EDGE('',*,*,#247,.T.);
#249=ORIENTED_EDGE('',*,*,#231,.F.);
#250=CARTESIAN_POINT('',(-6.,-0.6,3.4641016151378));
#251=CARTESIAN_POINT('',(-6.,-0.15881131977338,2.2875984678667));
#252=CARTESIAN_POINT('',(-6.,0.,1.2469462023516));
#253=(BOUNDED_CURVE()B_SPLINE_CURVE(2,(#250,#251,#252),.HYPERBOLIC_ARC.,.F.,.U.)B_SPLINE_CURVE_WITH_KNOTS((3,3),(0.,1.),.UNSPECIFIED.)CURVE()GEOMETRIC_REPRESENTATION_ITEM()RATIONAL_B_SPLINE_CURVE((1.,1.0476704925597,1.065961955354))REPRESENTATION_ITEM(''));
#254=EDGE_CURVE('',#220,#64,#253,.T.);
#255=ORIENTED_EDGE('',*,*,#254,.T.);
#256=ORIENTED_EDGE('',*,*,#69,.F.);
#257=CARTESIAN_POINT('',(-6.,-0.6,-3.4641016151378));
#258=VERTEX_POINT('',#257);
#259=CARTESIAN_POINT('',(-6.,0.,-1.2469462023516));
#260=CARTESIAN_POINT('',(-6.,-0.15881131977338,-2.2875984678668));
#261=CARTESIAN_POINT('',(-6.,-0.6,-3.4641016151378));
#262=(BOUNDED_CURVE()B_SPLINE_CURVE(2,(#259,#260,#261),.HYPERBOLIC_ARC.,.F.,.U.)B_SPLINE_CURVE_WITH_KNOTS((3,3),(0.,1.),.UNSPECIFIED.)CURVE()GEOMETRIC_REPRESENTATION_ITEM()RATIONAL_B_SPLINE_CURVE((1.065961955354,1.0476704925597,1.))REPRESENTATION_ITEM(''));
#263=EDGE_CURVE('',#55,#258,#262,.T.);
#264=ORIENTED_EDGE('',*,*,#263,.T.);
#265=CARTESIAN_POINT('',(-6.,-0.6,-3.4641016151378));
#266=DIRECTION('',(0.,-1.,0.));
#267=VECTOR('',#266,5.9);
#268=LINE('',#265,#267);
#269=EDGE_CURVE('',#258,#242,#268,.T.);
#270=ORIENTED_EDGE('',*,*,#269,.T.);
#271=EDGE_LOOP('',(#248,#249,#255,#256,#264,#270));
#272=FACE_OUTER_BOUND('',#271,.T.);
#273=ADVANCED_FACE('',(#272),#240,.T.);
#274=CARTESIAN_POINT('',(-3.,-3.25,-5.1961524227066));
#275=DIRECTION('',(0.86602540378444,0.,-0.5));
#276=DIRECTION('',(-0.5,-0.,-0.86602540378444));
#277=AXIS2_PLACEMENT_3D('',#274,#276,#275);
#278=PLANE('',#277);
#279=CARTESIAN_POINT('',(1.3322676295502E-15,-6.5,-6.9282032302755));
#280=VERTEX_POINT('',#279);
#281=CARTESIAN_POINT('',(1.3322676295502E-15,-6.5,-6.9282032302755));
#282=DIRECTION('',(-0.86602540378444,0.,0.49999999999999));
#283=VECTOR('',#282,6.9282032302755);
#284=LINE('',#281,#283);
#285=EDGE_CURVE('',#280,#242,#284,.T.);
#286=ORIENTED_EDGE('',*,*,#285,.T.);
#287=ORIENTED_EDGE('',*,*,#269,.F.);
#288=CARTESIAN_POINT('',(-6.,-0.6,-3.4641016151378));
#289=CARTESIAN_POINT('',(-4.981118386831,-0.15881131977338,-4.0523531887733));
#290=CARTESIAN_POINT('',(-4.079887088389,-4.1660887390917E-16,-4.5726793215308));
#291=(BOUNDED_CURVE()B_SPLINE_CURVE(2,(#288,#289,#290),.HYPERBOLIC_ARC.,.F.,.U.)B_SPLINE_CURVE_WITH_KNOTS((3,3),(0.,1.),.UNSPECIFIED.)CURVE()GEOMETRIC_REPRESENTATION_ITEM()RATIONAL_B_SPLINE_CURVE((1.,1.0476704925597,1.065961955354))REPRESENTATION_ITEM(''));
#292=EDGE_CURVE('',#258,#47,#291,.T.);
#293=ORIENTED_EDGE('',*,*,#292,.T.);
#294=ORIENTED_EDGE('',*,*,#52,.F.);
#295=CARTESIAN_POINT('',(1.3322676295502E-15,-0.6,-6.9282032302755));
#296=VERTEX_POINT('',#295);
#297=CARTESIAN_POINT('',(-1.920112911611,-4.1660887390917E-16,-5.8196255238824));
#298=CARTESIAN_POINT('',(-1.018881613169,-0.15881131977338,-6.33995165664));
#299=CARTESIAN_POINT('',(-4.4408920985006E-16,-0.6,-6.9282032302755));
#300=(BOUNDED_CURVE()B_SPLINE_CURVE(2,(#297,#298,#299),.HYPERBOLIC_ARC.,.F.,.U.)B_SPLINE_CURVE_WITH_KNOTS((3,3),(0.,1.),.UNSPECIFIED.)CURVE()GEOMETRIC_REPRESENTATION_ITEM()RATIONAL_B_SPLINE_CURVE((1.065961955354,1.0476704925597,1.))REPRESENTATION_ITEM(''));
#301=EDGE_CURVE('',#38,#296,#300,.T.);
#302=ORIENTED_EDGE('',*,*,#301,.T.);
#303=CARTESIAN_POINT('',(1.3322676295502E-15,-0.6,-6.9282032302755));
#304=DIRECTION('',(0.,-1.,0.));
#305=VECTOR('',#304,5.9);
#306=LINE('',#303,#305);
#307=EDGE_CURVE('',#296,#280,#306,.T.);
#308=ORIENTED_EDGE('',*,*,#307,.T.);
#309=EDGE_LOOP('',(#286,#287,#293,#294,#302,#308));
#310=FACE_OUTER_BOUND('',#309,.T.);
#311=ADVANCED_FACE('',(#310),#278,.T.);
#312=CARTESIAN_POINT('',(3.,-3.25,-5.1961524227066));
#313=DIRECTION('',(0.86602540378444,0.,0.5));
#314=DIRECTION('',(0.5,0.,-0.86602540378444));
#315=AXIS2_PLACEMENT_3D('',#312,#314,#313);
#316=PLANE('',#315);
#317=CARTESIAN_POINT('',(6.,-6.5,-3.4641016151378));
#318=VERTEX_POINT('',#317);
#319=CARTESIAN_POINT('',(6.,-6.5,-3.4641016151378));
#320=DIRECTION('',(-0.86602540378444,0.,-0.49999999999999));
#321=VECTOR('',#320,6.9282032302755);
#322=LINE('',#319,#321);
#323=EDGE_CURVE('',#318,#280,#322,.T.);
#324=ORIENTED_EDGE('',*,*,#323,.T.);
#325=ORIENTED_EDGE('',*,*,#307,.F.);
#326=CARTESIAN_POINT('',(3.1086244689504E-15,-0.6,-6.9282032302755));
#327=CARTESIAN_POINT('',(1.018881613169,-0.15881131977338,-6.33995165664));
#328=CARTESIAN_POINT('',(1.920112911611,0.,-5.8196255238824));
#329=(BOUNDED_CURVE()B_SPLINE_CURVE(2,(#326,#327,#328),.HYPERBOLIC_ARC.,.F.,.U.)B_SPLINE_CURVE_WITH_KNOTS((3,3),(0.,1.),.UNSPECIFIED.)CURVE()GEOMETRIC_REPRESENTATION_ITEM()RATIONAL_B_SPLINE_CURVE((1.,1.0476704925597,1.065961955354))REPRESENTATION_ITEM(''));
#330=EDGE_CURVE('',#296,#36,#329,.T.);
#331=ORIENTED_EDGE('',*,*,#330,.T.);
#332=ORIENTED_EDGE('',*,*,#135,.F.);
#333=CARTESIAN_POINT('',(6.,-0.6,-3.4641016151378));
#334=VERTEX_POINT('',#333);
#335=CARTESIAN_POINT('',(4.079887088389,4.1660887390917E-16,-4.5726793215308));
#336=CARTESIAN_POINT('',(4.981118386831,-0.15881131977338,-4.0523531887733));
#337=CARTESIAN_POINT('',(6.,-0.6,-3.4641016151378));
#338=(BOUNDED_CURVE()B_SPLINE_CURVE(2,(#335,#336,#337),.HYPERBOLIC_ARC.,.F.,.U.)B_SPLINE_CURVE_WITH_KNOTS((3,3),(0.,1.),.UNSPECIFIED.)CURVE()GEOMETRIC_REPRESENTATION_ITEM()RATIONAL_B_SPLINE_CURVE((1.065961955354,1.0476704925597,1.))REPRESENTATION_ITEM(''));
#339=EDGE_CURVE('',#123,#334,#338,.T.);
#340=ORIENTED_EDGE('',*,*,#339,.T.);
#341=CARTESIAN_POINT('',(6.,-0.6,-3.4641016151378));
#342=DIRECTION('',(0.,-1.,0.));
#343=VECTOR('',#342,5.9);
#344=LINE('',#341,#343);
#345=EDGE_CURVE('',#334,#318,#344,.T.);
#346=ORIENTED_EDGE('',*,*,#345,.T.);
#347=EDGE_LOOP('',(#324,#325,#331,#332,#340,#346));
#348=FACE_OUTER_BOUND('',#347,.T.);
#349=ADVANCED_FACE('',(#348),#316,.T.);
#350=CARTESIAN_POINT('',(6.,-3.25,0.));
#351=DIRECTION('',(0.,0.,1.));
#352=DIRECTION('',(1.,0.,-0.));
#353=AXIS2_PLACEMENT_3D('',#350,#352,#351);
#354=PLANE('',#353);
#355=CARTESIAN_POINT('',(6.,-6.5,3.4641016151378));
#356=DIRECTION('',(0.,0.,-1.));
#357=VECTOR('',#356,6.9282032302756);
#358=LINE('',#355,#357);
#359=EDGE_CURVE('',#159,#318,#358,.T.);
#360=ORIENTED_EDGE('',*,*,#359,.T.);
#361=ORIENTED_EDGE('',*,*,#345,.F.);
#362=CARTESIAN_POINT('',(6.,-0.6,-3.4641016151378));
#363=CARTESIAN_POINT('',(6.,-0.15881131977338,-2.2875984678668));
#364=CARTESIAN_POINT('',(6.,0.,-1.2469462023516));
#365=(BOUNDED_CURVE()B_SPLINE_CURVE(2,(#362,#363,#364),.HYPERBOLIC_ARC.,.F.,.U.)B_SPLINE_CURVE_WITH_KNOTS((3,3),(0.,1.),.UNSPECIFIED.)CURVE()GEOMETRIC_REPRESENTATION_ITEM()RATIONAL_B_SPLINE_CURVE((1.,1.0476704925597,1.065961955354))REPRESENTATION_ITEM(''));
#366=EDGE_CURVE('',#334,#115,#365,.T.);
#367=ORIENTED_EDGE('',*,*,#366,.T.);
#368=ORIENTED_EDGE('',*,*,#120,.F.);
#369=CARTESIAN_POINT('',(6.,0.,1.2469462023516));
#370=CARTESIAN_POINT('',(6.,-0.15881131977338,2.2875984678668));
#371=CARTESIAN_POINT('',(6.,-0.6,3.4641016151378));
#372=(BOUNDED_CURVE()B_SPLINE_CURVE(2,(#369,#370,#371),.HYPERBOLIC_ARC.,.F.,.U.)B_SPLINE_CURVE_WITH_KNOTS((3,3),(0.,1.),.UNSPECIFIED.)CURVE()GEOMETRIC_REPRESENTATION_ITEM()RATIONAL_B_SPLINE_CURVE((1.065961955354,1.0476704925597,1.))REPRESENTATION_ITEM(''));
#373=EDGE_CURVE('',#106,#167,#372,.T.);
#374=ORIENTED_EDGE('',*,*,#373,.T.);
#375=ORIENTED_EDGE('',*,*,#172,.F.);
#376=EDGE_LOOP('',(#360,#361,#367,#368,#374,#375));
#377=FACE_OUTER_BOUND('',#376,.T.);
#378=ADVANCED_FACE('',(#377),#354,.T.);
#379=CARTESIAN_POINT('',(-2.6645352591004E-15,4.5961524227066,-2.2204460492503E-15));
#380=DIRECTION('',(-0.86602540378442,-4.1274326747321E-17,-0.50000000000003));
#381=DIRECTION('',(5.099127181948E-17,-1.,-5.7708200392511E-18));
#382=AXIS2_PLACEMENT_3D('',#379,#381,#380);
#383=CONICAL_SURFACE('',#382,0.,0.92729521800161);
#384=ORIENTED_EDGE('',*,*,#112,.F.);
#385=ORIENTED_EDGE('',*,*,#178,.F.);
#386=ORIENTED_EDGE('',*,*,#373,.F.);
#387=EDGE_LOOP('',(#384,#385,#386));
#388=FACE_OUTER_BOUND('',#387,.T.);
#389=ADVANCED_FACE('',(#388),#383,.T.);
#390=CARTESIAN_POINT('',(-2.6645352591004E-15,4.5961524227066,-2.2204460492503E-15));
#391=DIRECTION('',(-5.2126795559101E-15,-2.3386395696448E-17,-1.));
#392=DIRECTION('',(7.299643264986E-17,-1.,2.3386395696448E-17));
#393=AXIS2_PLACEMENT_3D('',#390,#392,#391);
#394=CONICAL_SURFACE('',#393,0.,0.92729521800161);
#395=ORIENTED_EDGE('',*,*,#95,.F.);
#396=ORIENTED_EDGE('',*,*,#216,.F.);
#397=ORIENTED_EDGE('',*,*,#187,.F.);
#398=EDGE_LOOP('',(#395,#396,#397));
#399=FACE_OUTER_BOUND('',#398,.T.);
#400=ADVANCED_FACE('',(#399),#394,.T.);
#401=CARTESIAN_POINT('',(-2.6645352591004E-15,4.5961524227066,-2.2204460492503E-15));
#402=DIRECTION('',(0.86602540370378,5.7456292660017E-17,-0.50000000013971));
#403=DIRECTION('',(5.8425944505946E-17,-1.,-1.3715880961129E-17));
#404=AXIS2_PLACEMENT_3D('',#401,#403,#402);
#405=CONICAL_SURFACE('',#404,0.,0.92729521800161);
#406=ORIENTED_EDGE('',*,*,#78,.F.);
#407=ORIENTED_EDGE('',*,*,#254,.F.);
#408=ORIENTED_EDGE('',*,*,#225,.F.);
#409=EDGE_LOOP('',(#406,#407,#408));
#410=FACE_OUTER_BOUND('',#409,.T.);
#411=ADVANCED_FACE('',(#410),#405,.T.);
#412=CARTESIAN_POINT('',(-2.6645352591004E-15,4.5961524227066,-2.2204460492503E-15));
#413=DIRECTION('',(0.86602540378444,-7.3638258629763E-17,0.5));
#414=DIRECTION('',(-3.1191275408393E-17,-1.,-9.3251643499315E-17));
#415=AXIS2_PLACEMENT_3D('',#412,#414,#413);
#416=CONICAL_SURFACE('',#415,0.,0.92729521800161);
#417=ORIENTED_EDGE('',*,*,#61,.F.);
#418=ORIENTED_EDGE('',*,*,#292,.F.);
#419=ORIENTED_EDGE('',*,*,#263,.F.);
#420=EDGE_LOOP('',(#417,#418,#419));
#421=FACE_OUTER_BOUND('',#420,.T.);
#422=ADVANCED_FACE('',(#421),#416,.T.);
#423=CARTESIAN_POINT('',(2.4424906541753E-15,4.5961524227066,-6.3948846218409E-14));
#424=DIRECTION('',(3.3352572896947E-16,9.2018178413921E-17,1.));
#425=DIRECTION('',(1.226401951434E-17,-1.,9.2018178413921E-17));
#426=AXIS2_PLACEMENT_3D('',#423,#425,#424);
#427=CONICAL_SURFACE('',#426,0.,0.92729521800161);
#428=ORIENTED_EDGE('',*,*,#301,.F.);
#429=ORIENTED_EDGE('',*,*,#44,.F.);
#430=ORIENTED_EDGE('',*,*,#330,.F.);
#431=EDGE_LOOP('',(#428,#429,#430));
#432=FACE_OUTER_BOUND('',#431,.T.);
#433=ADVANCED_FACE('',(#432),#427,.T.);
#434=CARTESIAN_POINT('',(-2.6645352591004E-15,4.5961524227066,-2.2204460492503E-15));
#435=DIRECTION('',(-0.86602540378444,0.,0.5));
#436=DIRECTION('',(-0.,-1.,-0.));
#437=AXIS2_PLACEMENT_3D('',#434,#436,#435);
#438=CONICAL_SURFACE('',#437,0.,0.92729521800161);
#439=ORIENTED_EDGE('',*,*,#129,.F.);
#440=ORIENTED_EDGE('',*,*,#366,.F.);
#441=ORIENTED_EDGE('',*,*,#339,.F.);
#442=EDGE_LOOP('',(#439,#440,#441));
#443=FACE_OUTER_BOUND('',#442,.T.);
#444=ADVANCED_FACE('',(#443),#438,.T.);
#445=CARTESIAN_POINT('',(-2.2742750443837E-15,-10.,1.65));
#446=CARTESIAN_POINT('',(1.65,-10.,1.65));
#447=CARTESIAN_POINT('',(1.65,-10.,2.2624822217785E-15));
#448=CARTESIAN_POINT('',(1.65,-10.,-1.65));
#449=CARTESIAN_POINT('',(-2.0722083225243E-15,-10.,-1.65));
#450=CARTESIAN_POINT('',(-1.65,-10.,-1.65));
#451=CARTESIAN_POINT('',(-1.65,-10.,1.8583487780598E-15));
#452=CARTESIAN_POINT('',(-1.65,-10.,1.65));
#453=CARTESIAN_POINT('',(-2.2742750443837E-15,-10.,1.65));
#454=CARTESIAN_POINT('',(8.2089217578345E-16,1.5,1.65));
#455=CARTESIAN_POINT('',(1.65,1.5,1.65));
#456=CARTESIAN_POINT('',(1.65,1.5,-8.3268499838864E-16));
#457=CARTESIAN_POINT('',(1.65,1.5,-1.65));
#458=CARTESIAN_POINT('',(1.0229588976428E-15,1.5,-1.65));
#459=CARTESIAN_POINT('',(-1.65,1.5,-1.65));
#460=CARTESIAN_POINT('',(-1.65,1.5,-1.2368184421073E-15));
#461=CARTESIAN_POINT('',(-1.65,1.5,1.65));
#462=CARTESIAN_POINT('',(8.2089217578345E-16,1.5,1.65));
#463=(BOUNDED_SURFACE()B_SPLINE_SURFACE(1,2,((#445,#446,#447,#448,#449,#450,#451,#452,#453),(#454,#455,#456,#457,#458,#459,#460,#461,#462)),.UNSPECIFIED.,.F.,.T.,.U.)B_SPLINE_SURFACE_WITH_KNOTS((2,2),(3,2,2,2,3),(-0.4375,1.),(0.,0.25,0.5,0.75,1.),.UNSPECIFIED.)GEOMETRIC_REPRESENTATION_ITEM()RATIONAL_B_SPLINE_SURFACE(((1.,0.70710678118655,1.,0.70710678118655,1.,0.70710678118655,1.,0.70710678118655,1.),(1.,0.70710678118655,1.,0.70710678118655,1.,0.70710678118655,1.,0.70710678118655,1.)))REPRESENTATION_ITEM('')SURFACE());
#464=ORIENTED_EDGE('',*,*,#146,.F.);
#465=CARTESIAN_POINT('',(-8.8817841970013E-16,-5.7,1.65));
#466=VERTEX_POINT('',#465);
#467=CARTESIAN_POINT('',(4.0792946741241E-16,1.1102230246252E-15,1.65));
#468=DIRECTION('',(-2.2738734861624E-16,-1.,0.));
#469=VECTOR('',#468,5.7);
#470=LINE('',#467,#469);
#471=EDGE_CURVE('',#140,#466,#470,.T.);
#472=ORIENTED_EDGE('',*,*,#471,.T.);
#473=CARTESIAN_POINT('',(-8.8817841970013E-16,-5.7,-1.7763568394003E-15));
#474=DIRECTION('',(-2.4004178936159E-31,3.1532295300196E-16,1.));
#475=DIRECTION('',(7.6125694966486E-16,-1.,3.1532295300196E-16));
#476=AXIS2_PLACEMENT_3D('',#473,#475,#474);
#477=CIRCLE('',#476,1.65);
#478=EDGE_CURVE('',#466,#466,#477,.T.);
#479=ORIENTED_EDGE('',*,*,#478,.T.);
#480=ORIENTED_EDGE('',*,*,#471,.F.);
#481=EDGE_LOOP('',(#464,#472,#479,#480));
#482=FACE_OUTER_BOUND('',#481,.T.);
#483=ADVANCED_FACE('',(#482),#463,.T.);
#484=CARTESIAN_POINT('',(2.4115427318801,-6.5,0.));
#485=DIRECTION('',(-1.,0.,-1.5844000079928E-16));
#486=DIRECTION('',(0.,1.,0.));
#487=AXIS2_PLACEMENT_3D('',#484,#486,#485);
#488=PLANE('',#487);
#489=CARTESIAN_POINT('',(-8.8,-6.5,-1.0776891832497E-15));
#490=VERTEX_POINT('',#489);
#491=CARTESIAN_POINT('',(7.105427357601E-15,-6.5,1.7838478369732E-16));
#492=DIRECTION('',(-1.,-1.0705175854662E-16,-1.4273567806216E-16));
#493=DIRECTION('',(-1.0705175854662E-16,1.,1.0705175854662E-16));
#494=AXIS2_PLACEMENT_3D('',#491,#493,#492);
#495=CIRCLE('',#494,8.8);
#496=EDGE_CURVE('',#490,#490,#495,.T.);
#497=ORIENTED_EDGE('',*,*,#496,.T.);
#498=EDGE_LOOP('',(#497));
#499=FACE_OUTER_BOUND('',#498,.T.);
#500=ORIENTED_EDGE('',*,*,#209,.F.);
#501=ORIENTED_EDGE('',*,*,#247,.F.);
#502=ORIENTED_EDGE('',*,*,#285,.F.);
#503=ORIENTED_EDGE('',*,*,#323,.F.);
#504=ORIENTED_EDGE('',*,*,#359,.F.);
#505=ORIENTED_EDGE('',*,*,#164,.F.);
#506=EDGE_LOOP('',(#500,#501,#502,#503,#504,#505));
#507=FACE_BOUND('',#506,.T.);
#508=ADVANCED_FACE('',(#499,#507),#488,.T.);
#509=CARTESIAN_POINT('',(-3.9968028886506E-15,-6.7,0.));
#510=DIRECTION('',(-1.,9.8686491077792E-17,-1.2246467991474E-16));
#511=DIRECTION('',(4.1895208476417E-17,-1.,0.));
#512=AXIS2_PLACEMENT_3D('',#509,#511,#510);
#513=CYLINDRICAL_SURFACE('',#512,9.);
#514=CARTESIAN_POINT('',(-9.,-10.,7.6469730711152E-15));
#515=VERTEX_POINT('',#514);
#516=CARTESIAN_POINT('',(6.8943999880708,-10.,5.7850884871789));
#517=VERTEX_POINT('',#516);
#518=CARTESIAN_POINT('',(-5.3290705182008E-15,-10.,-8.8817841970013E-16));
#519=DIRECTION('',(-1.,0.,8.8817841970012E-16));
#520=DIRECTION('',(5.5875141491273E-17,1.,-3.9124195270723E-17));
#521=AXIS2_PLACEMENT_3D('',#518,#520,#519);
#522=CIRCLE('',#521,9.);
#523=EDGE_CURVE('',#515,#517,#522,.T.);
#524=ORIENTED_EDGE('',*,*,#523,.T.);
#525=CARTESIAN_POINT('',(6.8943999880708,-11.,5.7850884871789));
#526=VERTEX_POINT('',#525);
#527=CARTESIAN_POINT('',(6.8943999880708,-10.,5.7850884871789));
#528=DIRECTION('',(0.,-1.,0.));
#529=VECTOR('',#528,1.);
#530=LINE('',#527,#529);
#531=EDGE_CURVE('',#517,#526,#530,.T.);
#532=ORIENTED_EDGE('',*,*,#531,.T.);
#533=CARTESIAN_POINT('',(-8.9861003778057,-11.,0.5));
#534=VERTEX_POINT('',#533);
#535=CARTESIAN_POINT('',(-2.2204460492503E-15,-11.,-1.7763568394003E-15));
#536=DIRECTION('',(0.76604444311898,0.,0.64278760968654));
#537=DIRECTION('',(3.8830577824499E-17,-1.,1.3725923930122E-16));
#538=AXIS2_PLACEMENT_3D('',#535,#537,#536);
#539=CIRCLE('',#538,9.);
#540=EDGE_CURVE('',#526,#534,#539,.T.);
#541=ORIENTED_EDGE('',*,*,#540,.T.);
#542=CARTESIAN_POINT('',(-8.9861003778057,-17.3,0.5));
#543=VERTEX_POINT('',#542);
#544=CARTESIAN_POINT('',(-8.9861003778057,-11.,0.5));
#545=DIRECTION('',(0.,-1.,0.));
#546=VECTOR('',#545,6.3);
#547=LINE('',#544,#546);
#548=EDGE_CURVE('',#534,#543,#547,.T.);
#549=ORIENTED_EDGE('',*,*,#548,.T.);
#550=CARTESIAN_POINT('',(-1.9914350663321,-17.3,-8.7769121208192));
#551=VERTEX_POINT('',#550);
#552=CARTESIAN_POINT('',(-2.6645352591004E-15,-17.3,-8.8817841970013E-16));
#553=DIRECTION('',(-0.99845559753397,0.,0.055555555555556));
#554=DIRECTION('',(-1.0760274025956E-16,1.,8.4476320391987E-17));
#555=AXIS2_PLACEMENT_3D('',#552,#554,#553);
#556=CIRCLE('',#555,9.);
#557=EDGE_CURVE('',#543,#551,#556,.T.);
#558=ORIENTED_EDGE('',*,*,#557,.T.);
#559=CARTESIAN_POINT('',(-1.9914350663321,-14.4,-8.7769121208192));
#560=VERTEX_POINT('',#559);
#561=CARTESIAN_POINT('',(-1.9914350663321,-17.3,-8.7769121208192));
#562=DIRECTION('',(0.,1.,0.));
#563=VECTOR('',#562,2.9);
#564=LINE('',#561,#563);
#565=EDGE_CURVE('',#551,#560,#564,.T.);
#566=ORIENTED_EDGE('',*,*,#565,.T.);
#567=CARTESIAN_POINT('',(-5.2015485929331,-11.299873430823,-7.3446505863353));
#568=VERTEX_POINT('',#567);
#569=CARTESIAN_POINT('',(-1.9914350663321,-14.4,-8.7769121208192));
#570=CARTESIAN_POINT('',(-1.9914352995193,-14.368944636764,-8.7769120783702));
#571=CARTESIAN_POINT('',(-1.9925388748001,-14.313993293415,-8.7766616254514));
#572=CARTESIAN_POINT('',(-1.9946456059145,-14.254660793042,-8.7761831742815));
#573=CARTESIAN_POINT('',(-2.0008450305492,-14.148441429475,-8.7747732292612));
#574=CARTESIAN_POINT('',(-2.0196436465921,-13.967914386268,-8.7704760833914));
#575=CARTESIAN_POINT('',(-2.0659955008711,-13.704489622479,-8.7597267929202));
#576=CARTESIAN_POINT('',(-2.1511740861429,-13.403159249149,-8.739294363405));
#577=CARTESIAN_POINT('',(-2.2671557801058,-13.112173905913,-8.7100170379689));
#578=CARTESIAN_POINT('',(-2.4136660154003,-12.832862070507,-8.6707209656289));
#579=CARTESIAN_POINT('',(-2.5879468203468,-12.569964675614,-8.620429870711));
#580=CARTESIAN_POINT('',(-2.7874302896804,-12.325943999609,-8.5582007744366));
#581=CARTESIAN_POINT('',(-2.9859736930832,-12.126562557471,-8.4907776117392));
#582=CARTESIAN_POINT('',(-3.1974380979128,-11.944864061213,-8.4138571434275));
#583=CARTESIAN_POINT('',(-3.4476136393745,-11.769494583221,-8.3146488390657));
#584=CARTESIAN_POINT('',(-3.708141422709,-11.622943234318,-8.2018603245164));
#585=CARTESIAN_POINT('',(-3.977855473147,-11.503747988601,-8.074659144632));
#586=CARTESIAN_POINT('',(-4.2563727089229,-11.411068268055,-7.9315094295102));
#587=CARTESIAN_POINT('',(-4.5413127562779,-11.345437781251,-7.7720043938052));
#588=CARTESIAN_POINT('',(-4.7858867159458,-11.312987834587,-7.6229721431861));
#589=CARTESIAN_POINT('',(-4.9515242897155,-11.302153446397,-7.5158732457017));
#590=CARTESIAN_POINT('',(-5.057668270719,-11.299749940082,-7.4446333413982));
#591=CARTESIAN_POINT('',(-5.1507577490914,-11.299911280731,-7.3806211309673));
#592=CARTESIAN_POINT('',(-5.2015485929331,-11.299873430823,-7.3446505863353));
#593=B_SPLINE_CURVE_WITH_KNOTS('',2,(#569,#570,#571,#572,#573,#574,#575,#576,#577,#578,#579,#580,#581,#582,#583,#584,#585,#586,#587,#588,#589,#590,#591,#592),.UNSPECIFIED.,.F.,.U.,(3,1,1,1,1,1,1,1,1,1,1,1,1,1,1,1,1,1,1,1,1,1,3),(0.,0.01178281326777,0.02085395442821,0.03430969193739,0.06122416745513,0.103164018948,0.16270597214626,0.22199314830612,0.28196950692096,0.34234197997796,0.40305268687117,0.46400135223964,0.51274434199995,0.57364624065812,0.63438681011077,0.69476749249013,0.75602698070202,0.81858591667443,0.88220828413827,0.92787616931749,0.95713541485744,0.97638519101792,1.),.UNSPECIFIED.);
#594=EDGE_CURVE('',#560,#568,#593,.T.);
#595=ORIENTED_EDGE('',*,*,#594,.T.);
#596=CARTESIAN_POINT('',(-7.8922984250984,-11.299875843079,-4.3256947552325));
#597=VERTEX_POINT('',#596);
#598=CARTESIAN_POINT('',(-5.2015485929331,-11.299873430823,-7.3446505863353));
#599=CARTESIAN_POINT('',(-5.6345471114659,-11.299873431964,-7.0379133160433));
#600=CARTESIAN_POINT('',(-6.2245355994531,-11.29987342868,-6.5057955887668));
#601=CARTESIAN_POINT('',(-6.596567378007,-11.299873446322,-6.128252777394));
#602=CARTESIAN_POINT('',(-6.9455844691167,-11.299873366134,-5.7296614167336));
#603=CARTESIAN_POINT('',(-7.266468290168,-11.299873981755,-5.3164884696075));
#604=CARTESIAN_POINT('',(-7.5254444758604,-11.299871618038,-4.9403559727982));
#605=CARTESIAN_POINT('',(-7.7308768918086,-11.299883781821,-4.6118546132199));
#606=CARTESIAN_POINT('',(-7.8587271921326,-11.299839181854,-4.3869452193025));
#607=CARTESIAN_POINT('',(-7.8922980261598,-11.299874899371,-4.3256945358435));
#608=B_SPLINE_CURVE_WITH_KNOTS('',2,(#598,#599,#600,#601,#602,#603,#604,#605,#606,#607),.UNSPECIFIED.,.F.,.U.,(3,1,1,1,1,1,1,1,3),(0.29688406403906,0.47940386214516,0.57074037474559,0.6620665093492,0.75337702880213,0.84234658840438,0.91080850595459,0.97591528319704,1.),.UNSPECIFIED.);
#609=EDGE_CURVE('',#568,#597,#608,.T.);
#610=ORIENTED_EDGE('',*,*,#609,.T.);
#611=CARTESIAN_POINT('',(-7.8922979601326,-17.300000000001,-4.3256945001337));
#612=VERTEX_POINT('',#611);
#613=CARTESIAN_POINT('',(-7.8922984250984,-11.299875843079,-4.3256947552325));
#614=DIRECTION('',(7.7492696471616E-08,-1.,4.2515586876223E-08));
#615=VECTOR('',#614,6.000124156922);
#616=LINE('',#613,#615);
#617=EDGE_CURVE('',#597,#612,#616,.T.);
#618=ORIENTED_EDGE('',*,*,#617,.T.);
#619=CARTESIAN_POINT('',(-8.9861003778057,-17.300000000001,-0.5));
#620=VERTEX_POINT('',#619);
#621=CARTESIAN_POINT('',(3.0198066269804E-14,-17.3,5.7731597280508E-15));
#622=DIRECTION('',(-0.87692199557029,8.2896652505345E-15,-0.48063272223708));
#623=DIRECTION('',(8.5157005631756E-15,1.,1.506074304987E-15));
#624=AXIS2_PLACEMENT_3D('',#621,#623,#622);
#625=CIRCLE('',#624,9.);
#626=EDGE_CURVE('',#612,#620,#625,.T.);
#627=ORIENTED_EDGE('',*,*,#626,.T.);
#628=CARTESIAN_POINT('',(-8.9861003778057,-10.,-0.5));
#629=VERTEX_POINT('',#628);
#630=CARTESIAN_POINT('',(-8.9861003778057,-17.300000000001,-0.5));
#631=DIRECTION('',(0.,1.,0.));
#632=VECTOR('',#631,7.300000000001);
#633=LINE('',#630,#632);
#634=EDGE_CURVE('',#620,#629,#633,.T.);
#635=ORIENTED_EDGE('',*,*,#634,.T.);
#636=CARTESIAN_POINT('',(-2.6112445539184E-13,-9.9999999999988,-8.3821838359199E-15));
#637=DIRECTION('',(-0.99845559753397,-1.2730557349035E-13,-0.055555555555556));
#638=DIRECTION('',(-1.2722598461812E-13,1.,-3.5367862389758E-15));
#639=AXIS2_PLACEMENT_3D('',#636,#638,#637);
#640=CIRCLE('',#639,8.9999999999997);
#641=EDGE_CURVE('',#629,#515,#640,.T.);
#642=ORIENTED_EDGE('',*,*,#641,.T.);
#643=CARTESIAN_POINT('',(-9.,-6.7,1.1021821192326E-15));
#644=VERTEX_POINT('',#643);
#645=CARTESIAN_POINT('',(-9.,-10.,7.6469730711152E-15));
#646=DIRECTION('',(0.,1.,-1.983269985419E-15));
#647=VECTOR('',#646,3.3);
#648=LINE('',#645,#647);
#649=EDGE_CURVE('',#515,#644,#648,.T.);
#650=ORIENTED_EDGE('',*,*,#649,.T.);
#651=CARTESIAN_POINT('',(3.5527136788005E-15,-6.7,5.4984410035472E-15));
#652=DIRECTION('',(-1.,-0.,-4.8847320936829E-16));
#653=DIRECTION('',(0.,-1.,0.));
#654=AXIS2_PLACEMENT_3D('',#651,#653,#652);
#655=CIRCLE('',#654,9.);
#656=EDGE_CURVE('',#644,#644,#655,.T.);
#657=ORIENTED_EDGE('',*,*,#656,.T.);
#658=ORIENTED_EDGE('',*,*,#649,.F.);
#659=EDGE_LOOP('',(#524,#532,#541,#549,#558,#566,#595,#610,#618,#627,#635,#642,#650,#657,#658));
#660=FACE_OUTER_BOUND('',#659,.T.);
#661=CARTESIAN_POINT('',(-5.0861003778057,-15.65,7.4250645079275));
#662=VERTEX_POINT('',#661);
#663=CARTESIAN_POINT('',(-5.0861003778057,-15.65,7.4250645079275));
#664=CARTESIAN_POINT('',(-5.2876688015943,-15.65,7.2869920056226));
#665=CARTESIAN_POINT('',(-5.8755069124353,-15.503732613913,6.8481505735671));
#666=CARTESIAN_POINT('',(-6.3361003778057,-14.933516710496,6.3917002434697));
#667=CARTESIAN_POINT('',(-6.3361003778057,-13.85748719969,6.3917002434697));
#668=CARTESIAN_POINT('',(-5.9974448998662,-13.453084008448,6.7267876280554));
#669=CARTESIAN_POINT('',(-5.2035651462472,-13.067312905129,7.3637792359844));
#670=CARTESIAN_POINT('',(-4.6385705225517,-13.103485453879,7.726573198895));
#671=CARTESIAN_POINT('',(-3.8356260034523,-13.861466003938,8.1538680719239));
#672=CARTESIAN_POINT('',(-3.7139345966603,-14.470135090861,8.2032055064729));
#673=CARTESIAN_POINT('',(-4.1326323689349,-15.276132054588,7.9969687224537));
#674=CARTESIAN_POINT('',(-4.5179346301181,-15.579432908297,7.7967987160002));
#675=CARTESIAN_POINT('',(-4.9460933425631,-15.65,7.5209680295848));
#676=CARTESIAN_POINT('',(-5.0861003778057,-15.65,7.4250645079275));
#677=B_SPLINE_CURVE_WITH_KNOTS('',3,(#663,#664,#665,#666,#667,#668,#669,#670,#671,#672,#673,#674,#675,#676),.UNSPECIFIED.,.T.,.U.,(4,1,2,2,2,2,1,4),(0.,0.3333333333334,1.,1.677907913832,2.4743895923376,3.2356999686909,3.6868253805391,3.9123880864632),.UNSPECIFIED.);
#678=EDGE_CURVE('',#662,#662,#677,.T.);
#679=ORIENTED_EDGE('',*,*,#678,.T.);
#680=EDGE_LOOP('',(#679));
#681=FACE_BOUND('',#680,.T.);
#682=ADVANCED_FACE('',(#660,#681),#513,.T.);
#683=CARTESIAN_POINT('',(0.84373196269187,-17.5,-0.65585176141846));
#684=DIRECTION('',(-1.,0.,-1.3915689054607E-16));
#685=DIRECTION('',(0.,-1.,-0.));
#686=AXIS2_PLACEMENT_3D('',#683,#685,#684);
#687=PLANE('',#686);
#688=CARTESIAN_POINT('',(-1.9859738055122,-17.5,-4.3));
#689=VERTEX_POINT('',#688);
#690=CARTESIAN_POINT('',(-1.9812364995418,-17.5,-8.5740701331677));
#691=VERTEX_POINT('',#690);
#692=CARTESIAN_POINT('',(-1.9859738055122,-17.5,-4.3));
#693=DIRECTION('',(1.6606693421327E-10,0.,-1.));
#694=VECTOR('',#693,4.2729754585359);
#695=LINE('',#692,#694);
#696=EDGE_CURVE('',#689,#691,#695,.T.);
#697=ORIENTED_EDGE('',*,*,#696,.T.);
#698=CARTESIAN_POINT('',(-8.7857839488022,-17.49999999483,0.5));
#699=VERTEX_POINT('',#698);
#700=CARTESIAN_POINT('',(-4.4408920985006E-16,-17.5,0.));
#701=DIRECTION('',(-0.22567884121293,4.037174630673E-16,-0.97420175560753));
#702=DIRECTION('',(1.0437244706463E-16,-1.,-2.5923707309099E-16));
#703=AXIS2_PLACEMENT_3D('',#700,#702,#701);
#704=CIRCLE('',#703,8.800000009433);
#705=EDGE_CURVE('',#691,#699,#704,.T.);
#706=ORIENTED_EDGE('',*,*,#705,.T.);
#707=CARTESIAN_POINT('',(-8.7857839190451,-17.5,-0.49999999042953));
#708=VERTEX_POINT('',#707);
#709=CARTESIAN_POINT('',(8.8817841970013E-16,-17.5,-3.5527136788005E-15));
#710=DIRECTION('',(-0.99838454225967,0.,0.056818181746216));
#711=DIRECTION('',(9.8243256512571E-18,-1.,1.3415319976508E-17));
#712=AXIS2_PLACEMENT_3D('',#709,#711,#710);
#713=CIRCLE('',#712,8.8000000310181);
#714=EDGE_CURVE('',#699,#708,#713,.T.);
#715=ORIENTED_EDGE('',*,*,#714,.T.);
#716=CARTESIAN_POINT('',(-7.6778903962386,-17.5,-4.2999999545657));
#717=VERTEX_POINT('',#716);
#718=CARTESIAN_POINT('',(2.3092638912203E-14,-17.5,7.105427357601E-15));
#719=DIRECTION('',(-0.99838454220504,6.4594795169618E-15,-0.056818182706244));
#720=DIRECTION('',(-6.6042769942494E-15,-1.,-2.8604079366505E-15));
#721=AXIS2_PLACEMENT_3D('',#718,#720,#719);
#722=CIRCLE('',#721,8.799999862457);
#723=EDGE_CURVE('',#708,#717,#722,.T.);
#724=ORIENTED_EDGE('',*,*,#723,.T.);
#725=CARTESIAN_POINT('',(-7.6778903962386,-17.5,-4.2999999545657));
#726=DIRECTION('',(1.,0.,-7.9822497666138E-09));
#727=VECTOR('',#726,5.6919165907264);
#728=LINE('',#725,#727);
#729=EDGE_CURVE('',#717,#689,#728,.T.);
#730=ORIENTED_EDGE('',*,*,#729,.T.);
#731=EDGE_LOOP('',(#697,#706,#715,#724,#730));
#732=FACE_OUTER_BOUND('',#731,.T.);
#733=CARTESIAN_POINT('',(-1.9364916731037,-17.5,-0.50000000000001));
#734=VERTEX_POINT('',#733);
#735=CARTESIAN_POINT('',(1.5543122344752E-15,-17.5,-8.8817841970013E-16));
#736=DIRECTION('',(-0.96824583655185,0.,-0.25000000000001));
#737=DIRECTION('',(4.5736096535267E-17,-1.,4.4909464723406E-17));
#738=AXIS2_PLACEMENT_3D('',#735,#737,#736);
#739=CIRCLE('',#738,2.);
#740=EDGE_CURVE('',#734,#734,#739,.T.);
#741=ORIENTED_EDGE('',*,*,#740,.F.);
#742=EDGE_LOOP('',(#741));
#743=FACE_BOUND('',#742,.T.);
#744=ADVANCED_FACE('',(#732,#743),#687,.T.);
#745=CARTESIAN_POINT('',(-1.0528000059646,-10.,7.9471999940354));
#746=DIRECTION('',(1.,0.,2.2351983600934E-16));
#747=DIRECTION('',(0.,-1.,0.));
#748=AXIS2_PLACEMENT_3D('',#745,#747,#746);
#749=PLANE('',#748);
#750=ORIENTED_EDGE('',*,*,#641,.F.);
#751=CARTESIAN_POINT('',(-1.9364916731037,-10.,-0.50000000000002));
#752=VERTEX_POINT('',#751);
#753=CARTESIAN_POINT('',(-8.9861003778057,-10.,-0.5));
#754=DIRECTION('',(1.,0.,0.));
#755=VECTOR('',#754,7.049608704702);
#756=LINE('',#753,#755);
#757=EDGE_CURVE('',#629,#752,#756,.T.);
#758=ORIENTED_EDGE('',*,*,#757,.T.);
#759=CARTESIAN_POINT('',(1.532088886238,-10.,1.2855752193731));
#760=VERTEX_POINT('',#759);
#761=CARTESIAN_POINT('',(-1.3100631690577E-14,-10.,-1.9984014443253E-15));
#762=DIRECTION('',(-0.96824583655185,-3.5527136788005E-14,-0.25));
#763=DIRECTION('',(-3.6579696845364E-14,1.,-4.6573193899412E-15));
#764=AXIS2_PLACEMENT_3D('',#761,#763,#762);
#765=CIRCLE('',#764,2.);
#766=EDGE_CURVE('',#752,#760,#765,.T.);
#767=ORIENTED_EDGE('',*,*,#766,.T.);
#768=CARTESIAN_POINT('',(1.532088886238,-10.,1.2855752193731));
#769=DIRECTION('',(0.76604444311897,0.,0.64278760968654));
#770=VECTOR('',#769,7.);
#771=LINE('',#768,#770);
#772=EDGE_CURVE('',#760,#517,#771,.T.);
#773=ORIENTED_EDGE('',*,*,#772,.T.);
#774=ORIENTED_EDGE('',*,*,#523,.F.);
#775=EDGE_LOOP('',(#750,#758,#767,#773,#774));
#776=FACE_OUTER_BOUND('',#775,.T.);
#777=ADVANCED_FACE('',(#776),#749,.T.);
#778=CARTESIAN_POINT('',(3.4471999940354,-10.5,2.8925442435894));
#779=DIRECTION('',(0.76604444311898,0.,0.64278760968654));
#780=DIRECTION('',(-0.64278760968654,0.,0.76604444311898));
#781=AXIS2_PLACEMENT_3D('',#778,#780,#779);
#782=PLANE('',#781);
#783=ORIENTED_EDGE('',*,*,#531,.F.);
#784=ORIENTED_EDGE('',*,*,#772,.F.);
#785=CARTESIAN_POINT('',(1.532088885827,-10.09,1.2855752198629));
#786=VERTEX_POINT('',#785);
#787=CARTESIAN_POINT('',(1.532088886238,-10.09,1.2855752193731));
#788=DIRECTION('',(0.,1.,0.));
#789=VECTOR('',#788,0.090000000000002);
#790=LINE('',#787,#789);
#791=EDGE_CURVE('',#786,#760,#790,.T.);
#792=ORIENTED_EDGE('',*,*,#791,.F.);
#793=CARTESIAN_POINT('',(6.7411911232082,-10.09,5.6565309851796));
#794=VERTEX_POINT('',#793);
#795=CARTESIAN_POINT('',(6.7411911232082,-10.09,5.6565309851796));
#796=DIRECTION('',(-0.76604444311898,0.,-0.64278760968654));
#797=VECTOR('',#796,6.800000031018);
#798=LINE('',#795,#797);
#799=EDGE_CURVE('',#794,#786,#798,.T.);
#800=ORIENTED_EDGE('',*,*,#799,.F.);
#801=CARTESIAN_POINT('',(6.7411911232082,-11.,5.6565309851796));
#802=VERTEX_POINT('',#801);
#803=CARTESIAN_POINT('',(6.7411911232082,-11.,5.6565309851796));
#804=DIRECTION('',(0.,1.,0.));
#805=VECTOR('',#804,0.91000000000001);
#806=LINE('',#803,#805);
#807=EDGE_CURVE('',#802,#794,#806,.T.);
#808=ORIENTED_EDGE('',*,*,#807,.F.);
#809=CARTESIAN_POINT('',(6.7411911232082,-11.,5.6565309851796));
#810=DIRECTION('',(0.76604444311897,0.,0.64278760968654));
#811=VECTOR('',#810,0.19999996898194);
#812=LINE('',#809,#811);
#813=EDGE_CURVE('',#802,#526,#812,.T.);
#814=ORIENTED_EDGE('',*,*,#813,.T.);
#815=EDGE_LOOP('',(#783,#784,#792,#800,#808,#814));
#816=FACE_OUTER_BOUND('',#815,.T.);
#817=ADVANCED_FACE('',(#816),#782,.T.);
#818=CARTESIAN_POINT('',(-1.0528000059646,-11.,7.9471999940354));
#819=DIRECTION('',(1.,0.,2.2351983600934E-16));
#820=DIRECTION('',(-0.,1.,0.));
#821=AXIS2_PLACEMENT_3D('',#818,#820,#819);
#822=PLANE('',#821);
#823=ORIENTED_EDGE('',*,*,#540,.F.);
#824=ORIENTED_EDGE('',*,*,#813,.F.);
#825=CARTESIAN_POINT('',(-8.7857840029173,-11.,0.5));
#826=VERTEX_POINT('',#825);
#827=CARTESIAN_POINT('',(-8.8817841970013E-16,-11.,-1.7763568394003E-15));
#828=DIRECTION('',(-0.99838454226697,2.0185873103852E-16,0.05681818161791));
#829=DIRECTION('',(1.2311576879095E-16,1.,-2.5227426026572E-16));
#830=AXIS2_PLACEMENT_3D('',#827,#829,#828);
#831=CIRCLE('',#830,8.8000000310181);
#832=EDGE_CURVE('',#826,#802,#831,.T.);
#833=ORIENTED_EDGE('',*,*,#832,.F.);
#834=CARTESIAN_POINT('',(-8.7857840029173,-11.,0.5));
#835=DIRECTION('',(-1.,0.,0.));
#836=VECTOR('',#835,0.20031637488838);
#837=LINE('',#834,#836);
#838=EDGE_CURVE('',#826,#534,#837,.T.);
#839=ORIENTED_EDGE('',*,*,#838,.T.);
#840=EDGE_LOOP('',(#823,#824,#833,#839));
#841=FACE_OUTER_BOUND('',#840,.T.);
#842=ADVANCED_FACE('',(#841),#822,.T.);
#843=CARTESIAN_POINT('',(-0.14305018890286,-14.25,0.5));
#844=DIRECTION('',(-1.,0.,1.3182489649548E-16));
#845=DIRECTION('',(-1.3182489649548E-16,-1.7080354225002E-17,-1.));
#846=AXIS2_PLACEMENT_3D('',#843,#845,#844);
#847=PLANE('',#846);
#848=CARTESIAN_POINT('',(-8.7857839732577,-17.499999959953,0.50000000214342));
#849=CARTESIAN_POINT('',(-8.8358639925613,-17.450000842804,0.50000000214342));
#850=CARTESIAN_POINT('',(-8.9360220079242,-17.350000715705,0.50000000000024));
#851=CARTESIAN_POINT('',(-8.9861003778057,-17.3,0.5));
#852=B_SPLINE_CURVE_WITH_KNOTS('',3,(#848,#849,#850,#851),.UNSPECIFIED.,.F.,.U.,(4,4),(2.669843038681E-07,1.),.UNSPECIFIED.);
#853=EDGE_CURVE('',#699,#543,#852,.T.);
#854=ORIENTED_EDGE('',*,*,#853,.T.);
#855=ORIENTED_EDGE('',*,*,#548,.F.);
#856=ORIENTED_EDGE('',*,*,#838,.F.);
#857=CARTESIAN_POINT('',(-8.7857840029173,-17.499999989661,0.5));
#858=DIRECTION('',(0.,1.,0.));
#859=VECTOR('',#858,6.4999999896607);
#860=LINE('',#857,#859);
#861=EDGE_CURVE('',#699,#826,#860,.T.);
#862=ORIENTED_EDGE('',*,*,#861,.F.);
#863=EDGE_LOOP('',(#854,#855,#856,#862));
#864=FACE_OUTER_BOUND('',#863,.T.);
#865=ADVANCED_FACE('',(#864),#847,.T.);
#866=CARTESIAN_POINT('',(-0.14305018890286,-13.75,-0.5));
#867=DIRECTION('',(-1.,0.,1.3182489649548E-16));
#868=DIRECTION('',(1.3182489649548E-16,1.4802973661669E-17,1.));
#869=AXIS2_PLACEMENT_3D('',#866,#868,#867);
#870=PLANE('',#869);
#871=ORIENTED_EDGE('',*,*,#757,.F.);
#872=ORIENTED_EDGE('',*,*,#634,.F.);
#873=CARTESIAN_POINT('',(-8.9861003778057,-17.300000000001,-0.49999999999999));
#874=CARTESIAN_POINT('',(-8.9360220091924,-17.350000714439,-0.50000000000024));
#875=CARTESIAN_POINT('',(-8.8358639862686,-17.450000818745,-0.50000000371637));
#876=CARTESIAN_POINT('',(-8.7857839580867,-17.499999944758,-0.50000000371637));
#877=B_SPLINE_CURVE_WITH_KNOTS('',3,(#873,#874,#875,#876),.UNSPECIFIED.,.F.,.U.,(4,4),(0.,0.99999963171048),.UNSPECIFIED.);
#878=EDGE_CURVE('',#620,#708,#877,.T.);
#879=ORIENTED_EDGE('',*,*,#878,.T.);
#880=CARTESIAN_POINT('',(-8.7857840029173,-10.09,-0.5));
#881=VERTEX_POINT('',#880);
#882=CARTESIAN_POINT('',(-8.7857840029173,-10.09,-0.5));
#883=DIRECTION('',(0.,-1.,0.));
#884=VECTOR('',#883,7.4099999896607);
#885=LINE('',#882,#884);
#886=EDGE_CURVE('',#881,#708,#885,.T.);
#887=ORIENTED_EDGE('',*,*,#886,.F.);
#888=CARTESIAN_POINT('',(-1.93649135071,-10.09,-0.50000124862229));
#889=VERTEX_POINT('',#888);
#890=CARTESIAN_POINT('',(-1.9364916731037,-10.09,-0.5));
#891=DIRECTION('',(-1.,0.,1.3777913476166E-16));
#892=VECTOR('',#891,6.8492923298136);
#893=LINE('',#890,#892);
#894=EDGE_CURVE('',#889,#881,#893,.T.);
#895=ORIENTED_EDGE('',*,*,#894,.F.);
#896=CARTESIAN_POINT('',(-1.9364916731037,-10.,-0.5));
#897=DIRECTION('',(0.,-1.,0.));
#898=VECTOR('',#897,0.09);
#899=LINE('',#896,#898);
#900=EDGE_CURVE('',#752,#889,#899,.T.);
#901=ORIENTED_EDGE('',*,*,#900,.F.);
#902=EDGE_LOOP('',(#871,#872,#879,#887,#895,#901));
#903=FACE_OUTER_BOUND('',#902,.T.);
#904=ADVANCED_FACE('',(#903),#870,.T.);
#905=CARTESIAN_POINT('',(-5.0861003778057,-14.4,8.2307841157599));
#906=DIRECTION('',(2.1316282072803E-15,-1.,0.));
#907=DIRECTION('',(5.7444264799058E-16,-9.1910823678492E-16,-1.));
#908=AXIS2_PLACEMENT_3D('',#905,#907,#906);
#909=CYLINDRICAL_SURFACE('',#908,1.25);
#910=ORIENTED_EDGE('',*,*,#678,.F.);
#911=CARTESIAN_POINT('',(-5.0861003778057,-15.65,7.1813357733558));
#912=VERTEX_POINT('',#911);
#913=CARTESIAN_POINT('',(-5.0861003778057,-15.65,7.1813357731383));
#914=DIRECTION('',(0.,0.,1.));
#915=VECTOR('',#914,0.24372873478921);
#916=LINE('',#913,#915);
#917=EDGE_CURVE('',#912,#662,#916,.T.);
#918=ORIENTED_EDGE('',*,*,#917,.F.);
#919=CARTESIAN_POINT('',(-5.0861003778057,-15.65,7.1813357735732));
#920=CARTESIAN_POINT('',(-4.9466100162141,-15.65,7.2801282549667));
#921=CARTESIAN_POINT('',(-4.5195036723121,-15.579952780483,7.5643131172716));
#922=CARTESIAN_POINT('',(-4.1325208096785,-15.276911273657,7.7712952262602));
#923=CARTESIAN_POINT('',(-3.7137324637277,-14.468072747169,7.9833992312709));
#924=CARTESIAN_POINT('',(-3.8369654343453,-13.859989474747,7.9320112643498));
#925=CARTESIAN_POINT('',(-4.6441181885686,-13.098473977643,7.4897915753665));
#926=CARTESIAN_POINT('',(-5.2147551930184,-13.06799094249,7.1103576802845));
#927=CARTESIAN_POINT('',(-6.0967918167574,-13.506530240136,6.3733393420721));
#928=CARTESIAN_POINT('',(-6.4384324812748,-14.049733488469,6.0017631089918));
#929=CARTESIAN_POINT('',(-6.2163647759632,-15.094843242134,6.2301195880366));
#930=CARTESIAN_POINT('',(-5.7828759843666,-15.536325219931,6.6581408330163));
#931=CARTESIAN_POINT('',(-5.2637976704045,-15.65,7.0554836625568));
#932=CARTESIAN_POINT('',(-5.0861003778057,-15.65,7.1813357735732));
#933=B_SPLINE_CURVE_WITH_KNOTS('',3,(#919,#920,#921,#922,#923,#924,#925,#926,#927,#928,#929,#930,#931,#932),.UNSPECIFIED.,.T.,.U.,(4,1,2,2,2,2,1,4),(0.,0.24714078636412,0.74142235909237,1.5701994128504,2.450851727253,3.385738277507,4.0524049441737,4.385738277507),.UNSPECIFIED.);
#934=EDGE_CURVE('',#912,#912,#933,.T.);
#935=ORIENTED_EDGE('',*,*,#934,.F.);
#936=ORIENTED_EDGE('',*,*,#917,.T.);
#937=EDGE_LOOP('',(#910,#918,#935,#936));
#938=FACE_OUTER_BOUND('',#937,.T.);
#939=ADVANCED_FACE('',(#938),#909,.F.);
#940=CARTESIAN_POINT('',(-5.0861003778057,-14.4,-0.5));
#941=DIRECTION('',(3.3306690738755E-15,1.,0.));
#942=DIRECTION('',(-2.2204460492503E-16,0.,-1.));
#943=AXIS2_PLACEMENT_3D('',#940,#942,#941);
#944=CYLINDRICAL_SURFACE('',#943,1.6);
#945=CARTESIAN_POINT('',(-5.0861003778057,-12.8,-4.5));
#946=VERTEX_POINT('',#945);
#947=CARTESIAN_POINT('',(-5.0861003778057,-14.4,-4.5));
#948=DIRECTION('',(3.9252311467094E-16,1.,-1.9626155733547E-16));
#949=DIRECTION('',(-1.9626155733547E-16,-1.9626155733547E-16,-1.));
#950=AXIS2_PLACEMENT_3D('',#947,#949,#948);
#951=CIRCLE('',#950,1.6);
#952=EDGE_CURVE('',#946,#946,#951,.T.);
#953=ORIENTED_EDGE('',*,*,#952,.T.);
#954=CARTESIAN_POINT('',(-5.0861003778057,-12.8,-2.));
#955=VERTEX_POINT('',#954);
#956=CARTESIAN_POINT('',(-5.0861003778057,-12.8,-2.));
#957=DIRECTION('',(0.,0.,-1.));
#958=VECTOR('',#957,2.5);
#959=LINE('',#956,#958);
#960=EDGE_CURVE('',#955,#946,#959,.T.);
#961=ORIENTED_EDGE('',*,*,#960,.F.);
#962=CARTESIAN_POINT('',(-5.0861003778057,-14.4,-2.));
#963=DIRECTION('',(3.9252311467094E-15,1.,-3.9252311467095E-16));
#964=DIRECTION('',(-3.9252311467095E-16,-3.9252311467094E-16,-1.));
#965=AXIS2_PLACEMENT_3D('',#962,#964,#963);
#966=CIRCLE('',#965,1.6);
#967=EDGE_CURVE('',#955,#955,#966,.T.);
#968=ORIENTED_EDGE('',*,*,#967,.F.);
#969=ORIENTED_EDGE('',*,*,#960,.T.);
#970=EDGE_LOOP('',(#953,#961,#968,#969));
#971=FACE_OUTER_BOUND('',#970,.T.);
#972=ADVANCED_FACE('',(#971),#944,.F.);
#973=CARTESIAN_POINT('',(-2.1859738055122,-16.634296541761,-9.5));
#974=DIRECTION('',(-9.9380096050287E-17,1.,0.));
#975=DIRECTION('',(-1.,-9.9380096050287E-17,1.3322676295502E-16));
#976=AXIS2_PLACEMENT_3D('',#973,#975,#974);
#977=PLANE('',#976);
#978=CARTESIAN_POINT('',(-2.1859738055122,-14.4,-4.5));
#979=VERTEX_POINT('',#978);
#980=CARTESIAN_POINT('',(-2.1859738055122,-14.4,-8.5304936012584));
#981=VERTEX_POINT('',#980);
#982=CARTESIAN_POINT('',(-2.1859738055122,-14.4,-4.5));
#983=DIRECTION('',(0.,0.,-1.));
#984=VECTOR('',#983,4.0304936012584);
#985=LINE('',#982,#984);
#986=EDGE_CURVE('',#979,#981,#985,.T.);
#987=ORIENTED_EDGE('',*,*,#986,.T.);
#988=CARTESIAN_POINT('',(-2.1859738055122,-17.3,-8.5304936012584));
#989=VERTEX_POINT('',#988);
#990=CARTESIAN_POINT('',(-2.1859738055122,-14.4,-8.5304936012584));
#991=DIRECTION('',(0.,-1.,0.));
#992=VECTOR('',#991,2.9);
#993=LINE('',#990,#992);
#994=EDGE_CURVE('',#981,#989,#993,.T.);
#995=ORIENTED_EDGE('',*,*,#994,.T.);
#996=CARTESIAN_POINT('',(-2.1859738055122,-17.3,-4.5));
#997=VERTEX_POINT('',#996);
#998=CARTESIAN_POINT('',(-2.1859738055122,-17.3,-8.5304936012584));
#999=DIRECTION('',(0.,0.,1.));
#1000=VECTOR('',#999,4.0304936012584);
#1001=LINE('',#998,#1000);
#1002=EDGE_CURVE('',#989,#997,#1001,.T.);
#1003=ORIENTED_EDGE('',*,*,#1002,.T.);
#1004=CARTESIAN_POINT('',(-2.1859738055122,-17.3,-4.5));
#1005=DIRECTION('',(0.,1.,0.));
#1006=VECTOR('',#1005,2.9);
#1007=LINE('',#1004,#1006);
#1008=EDGE_CURVE('',#997,#979,#1007,.T.);
#1009=ORIENTED_EDGE('',*,*,#1008,.T.);
#1010=EDGE_LOOP('',(#987,#995,#1003,#1009));
#1011=FACE_OUTER_BOUND('',#1010,.T.);
#1012=ADVANCED_FACE('',(#1011),#977,.T.);
#1013=CARTESIAN_POINT('',(-5.0861003778057,-14.4,-4.5));
#1014=DIRECTION('',(4.3644680098512E-05,0.99999999904757,-3.0625505389502E-16));
#1015=DIRECTION('',(-2.2036467677875E-16,0.,-1.));
#1016=AXIS2_PLACEMENT_3D('',#1013,#1015,#1014);
#1017=CYLINDRICAL_SURFACE('',#1016,2.9001265722935);
#1018=CARTESIAN_POINT('',(-5.0859738027501,-11.499873430469,-4.5));
#1019=VERTEX_POINT('',#1018);
#1020=CARTESIAN_POINT('',(-5.0861003778057,-14.4,-4.5));
#1021=DIRECTION('',(1.,0.,-3.0625505389502E-16));
#1022=DIRECTION('',(1.5312752694751E-16,-1.5313421029313E-16,1.));
#1023=AXIS2_PLACEMENT_3D('',#1020,#1022,#1021);
#1024=CIRCLE('',#1023,2.9001265722935);
#1025=EDGE_CURVE('',#979,#1019,#1024,.T.);
#1026=ORIENTED_EDGE('',*,*,#1025,.T.);
#1027=CARTESIAN_POINT('',(-5.0859738027501,-11.499873430469,-7.1814399653162));
#1028=VERTEX_POINT('',#1027);
#1029=CARTESIAN_POINT('',(-5.0859738027501,-11.499873430469,-4.5));
#1030=DIRECTION('',(0.,0.,-1.));
#1031=VECTOR('',#1030,2.6814399653162);
#1032=LINE('',#1029,#1031);
#1033=EDGE_CURVE('',#1019,#1028,#1032,.T.);
#1034=ORIENTED_EDGE('',*,*,#1033,.T.);
#1035=CARTESIAN_POINT('',(-5.0859738027501,-11.499873430469,-7.1814399653162));
#1036=CARTESIAN_POINT('',(-5.0366037602448,-11.499870539463,-7.2163953092407));
#1037=CARTESIAN_POINT('',(-4.9471814273871,-11.502929503911,-7.2779094045039));
#1038=CARTESIAN_POINT('',(-4.8478415882413,-11.509058566265,-7.3447528607563));
#1039=CARTESIAN_POINT('',(-4.6945866694794,-11.524871659811,-7.4444640175399));
#1040=CARTESIAN_POINT('',(-4.4698693021336,-11.562944991559,-7.5828990530607));
#1041=CARTESIAN_POINT('',(-4.2100249123547,-11.632076823938,-7.7309607178122));
#1042=CARTESIAN_POINT('',(-3.9581633648267,-11.724866350001,-7.8639326325944));
#1043=CARTESIAN_POINT('',(-3.7160215574925,-11.840375553066,-7.9821698272641));
#1044=CARTESIAN_POINT('',(-3.4831350826239,-11.979268856832,-8.087128717911));
#1045=CARTESIAN_POINT('',(-3.2597301591929,-12.142868537181,-8.1797092461603));
#1046=CARTESIAN_POINT('',(-3.0708786724127,-12.311360053862,-8.2519879915334));
#1047=CARTESIAN_POINT('',(-2.8937900084056,-12.496083043996,-8.3158753293707));
#1048=CARTESIAN_POINT('',(-2.7165962498525,-12.721662215554,-8.3754328736894));
#1049=CARTESIAN_POINT('',(-2.5624248390581,-12.963899697342,-8.424084926196));
#1050=CARTESIAN_POINT('',(-2.4329212565074,-13.220205555929,-8.462654495214));
#1051=CARTESIAN_POINT('',(-2.3299119874206,-13.486547985241,-8.4919064013016));
#1052=CARTESIAN_POINT('',(-2.2533371986133,-13.762199190663,-8.5128140834312));
#1053=CARTESIAN_POINT('',(-2.2114128977823,-14.003538880905,-8.5239063780927));
#1054=CARTESIAN_POINT('',(-2.1944426056117,-14.169161734231,-8.5283181586034));
#1055=CARTESIAN_POINT('',(-2.188859083332,-14.266635839941,-8.5297553350497));
#1056=CARTESIAN_POINT('',(-2.1869647405987,-14.321082645912,-8.5302407067803));
#1057=CARTESIAN_POINT('',(-2.1859738141644,-14.371505100585,-8.5304937224984));
#1058=CARTESIAN_POINT('',(-2.1859738055122,-14.4,-8.5304936012584));
#1059=B_SPLINE_CURVE_WITH_KNOTS('',2,(#1035,#1036,#1037,#1038,#1039,#1040,#1041,#1042,#1043,#1044,#1045,#1046,#1047,#1048,#1049,#1050,#1051,#1052,#1053,#1054,#1055,#1056,#1057,#1058),.UNSPECIFIED.,.F.,.U.,(3,1,1,1,1,1,1,1,1,1,1,1,1,1,1,1,1,1,1,1,1,1,3),(0.,0.025024458137591,0.044918767836843,0.074623107935085,0.12082023393526,0.18487866390223,0.24762704948199,0.30871778062308,0.36872712493405,0.42892094587477,0.4892999487987,0.53772519663366,0.59832752385438,0.65869786443836,0.71871385843844,0.77834139085054,0.83738068151826,0.89679867140034,0.93874188225586,0.96567141249396,0.97913527179383,0.98821143010935,1.),.UNSPECIFIED.);
#1060=EDGE_CURVE('',#1028,#981,#1059,.T.);
#1061=ORIENTED_EDGE('',*,*,#1060,.T.);
#1062=ORIENTED_EDGE('',*,*,#986,.F.);
#1063=EDGE_LOOP('',(#1026,#1034,#1061,#1062));
#1064=FACE_OUTER_BOUND('',#1063,.T.);
#1065=ADVANCED_FACE('',(#1064),#1017,.F.);
#1066=CARTESIAN_POINT('',(-8.1551608931004,-11.499873430469,-9.5));
#1067=DIRECTION('',(-1.,-5.7877111662082E-16,2.8938555831041E-16));
#1068=DIRECTION('',(5.7877111662082E-16,-1.,-1.0281040314567E-31));
#1069=AXIS2_PLACEMENT_3D('',#1066,#1068,#1067);
#1070=PLANE('',#1069);
#1071=CARTESIAN_POINT('',(-7.5593368852947,-11.499873430469,-4.5));
#1072=VERTEX_POINT('',#1071);
#1073=CARTESIAN_POINT('',(-5.0859738027501,-11.499873430469,-4.5));
#1074=DIRECTION('',(-1.,0.,0.));
#1075=VECTOR('',#1074,2.4733630825446);
#1076=LINE('',#1073,#1075);
#1077=EDGE_CURVE('',#1019,#1072,#1076,.T.);
#1078=ORIENTED_EDGE('',*,*,#1077,.T.);
#1079=CARTESIAN_POINT('',(-7.5615979171147,-11.499873430469,-4.5013518379524));
#1080=CARTESIAN_POINT('',(-7.5121323538593,-11.499873430469,-4.5840856719276));
#1081=CARTESIAN_POINT('',(-7.3582454453492,-11.499873430469,-4.8305908026995));
#1082=CARTESIAN_POINT('',(-7.104981669567,-11.499873430469,-5.198339432089));
#1083=CARTESIAN_POINT('',(-6.791239880741,-11.499873430469,-5.6023367603327));
#1084=CARTESIAN_POINT('',(-6.4499757118426,-11.499873430469,-5.9920670886741));
#1085=CARTESIAN_POINT('',(-6.0862119053845,-11.499873430469,-6.3612204196174));
#1086=CARTESIAN_POINT('',(-5.5093335947476,-11.499873430469,-6.8815060780785));
#1087=CARTESIAN_POINT('',(-5.0859738027501,-11.499873430469,-7.1814399653162));
#1088=B_SPLINE_CURVE_WITH_KNOTS('',2,(#1079,#1080,#1081,#1082,#1083,#1084,#1085,#1086,#1087),.UNSPECIFIED.,.F.,.U.,(3,1,1,1,1,1,1,3),(0.35199300239305,0.38599289537659,0.45446451630866,0.54344611319733,0.63476912268151,0.72610755246329,0.81745683574421,1.),.UNSPECIFIED.);
#1089=EDGE_CURVE('',#1072,#1028,#1088,.T.);
#1090=ORIENTED_EDGE('',*,*,#1089,.T.);
#1091=ORIENTED_EDGE('',*,*,#1033,.F.);
#1092=EDGE_LOOP('',(#1078,#1090,#1091));
#1093=FACE_OUTER_BOUND('',#1092,.T.);
#1094=ADVANCED_FACE('',(#1093),#1070,.T.);
#1095=CARTESIAN_POINT('',(-4.9901012197861,-14.486261765825,-4.5));
#1096=DIRECTION('',(0.,1.,0.));
#1097=DIRECTION('',(-3.1673967993716E-16,0.,-1.));
#1098=AXIS2_PLACEMENT_3D('',#1095,#1097,#1096);
#1099=PLANE('',#1098);
#1100=ORIENTED_EDGE('',*,*,#1008,.F.);
#1101=CARTESIAN_POINT('',(-7.5942286340599,-17.3,-4.5));
#1102=VERTEX_POINT('',#1101);
#1103=CARTESIAN_POINT('',(-2.1859738055122,-17.3,-4.5));
#1104=DIRECTION('',(-1.,0.,0.));
#1105=VECTOR('',#1104,5.4082548285477);
#1106=LINE('',#1103,#1105);
#1107=EDGE_CURVE('',#997,#1102,#1106,.T.);
#1108=ORIENTED_EDGE('',*,*,#1107,.T.);
#1109=CARTESIAN_POINT('',(-7.59422863406,-11.472523531651,-4.5));
#1110=VERTEX_POINT('',#1109);
#1111=CARTESIAN_POINT('',(-7.5942286340599,-17.3,-4.5));
#1112=DIRECTION('',(-1.7222576868603E-14,1.,0.));
#1113=VECTOR('',#1112,5.827476468349);
#1114=LINE('',#1111,#1113);
#1115=EDGE_CURVE('',#1102,#1110,#1114,.T.);
#1116=ORIENTED_EDGE('',*,*,#1115,.T.);
#1117=CARTESIAN_POINT('',(-7.59422863406,-11.472523531651,-4.5));
#1118=CARTESIAN_POINT('',(-7.5908639967129,-11.475416899725,-4.5));
#1119=CARTESIAN_POINT('',(-7.5806738790116,-11.484013694349,-4.5000690118269));
#1120=CARTESIAN_POINT('',(-7.5694393441435,-11.494610383562,-4.4996721215331));
#1121=CARTESIAN_POINT('',(-7.56254138646,-11.498599641288,-4.5004874281543));
#1122=CARTESIAN_POINT('',(-7.5612001403366,-11.499414395758,-4.5006294573364));
#1123=B_SPLINE_CURVE_WITH_KNOTS('',2,(#1117,#1118,#1119,#1120,#1121,#1122),.UNSPECIFIED.,.F.,.U.,(3,1,1,1,3),(0.,0.20402929534269,0.61208788602359,0.90805859068091,0.97988863886942),.UNSPECIFIED.);
#1124=EDGE_CURVE('',#1110,#1072,#1123,.T.);
#1125=ORIENTED_EDGE('',*,*,#1124,.T.);
#1126=ORIENTED_EDGE('',*,*,#1077,.F.);
#1127=ORIENTED_EDGE('',*,*,#1025,.F.);
#1128=EDGE_LOOP('',(#1100,#1108,#1116,#1125,#1126,#1127));
#1129=FACE_OUTER_BOUND('',#1128,.T.);
#1130=ORIENTED_EDGE('',*,*,#952,.F.);
#1131=EDGE_LOOP('',(#1130));
#1132=FACE_BOUND('',#1131,.T.);
#1133=ADVANCED_FACE('',(#1129,#1132),#1099,.T.);
#1134=CARTESIAN_POINT('',(-7.7432632970963,-12.,-4.4128472500668));
#1135=DIRECTION('',(0.8632342180322,0.,-0.50480361014789));
#1136=DIRECTION('',(-0.50480361014789,-1.127696530695E-16,-0.8632342180322));
#1137=AXIS2_PLACEMENT_3D('',#1134,#1136,#1135);
#1138=PLANE('',#1137);
#1139=ORIENTED_EDGE('',*,*,#1115,.F.);
#1140=CARTESIAN_POINT('',(-7.7436159289555,-17.387361064125,-4.4126410238815));
#1141=VERTEX_POINT('',#1140);
#1142=CARTESIAN_POINT('',(-7.5942286340599,-17.3,-4.5));
#1143=DIRECTION('',(-0.77060999746472,-0.45064949767601,0.45063872675547));
#1144=VECTOR('',#1143,0.19385590037383);
#1145=LINE('',#1142,#1144);
#1146=EDGE_CURVE('',#1102,#1141,#1145,.T.);
#1147=ORIENTED_EDGE('',*,*,#1146,.T.);
#1148=CARTESIAN_POINT('',(-7.7436138871152,-17.387356327488,-4.4126422315193));
#1149=CARTESIAN_POINT('',(-7.7909394321396,-17.359899461055,-4.384967116791));
#1150=CARTESIAN_POINT('',(-7.8384112023117,-17.331948997413,-4.3572064922662));
#1151=CARTESIAN_POINT('',(-7.8922979601326,-17.300000000001,-4.3256945001337));
#1152=B_SPLINE_CURVE_WITH_KNOTS('',3,(#1148,#1149,#1150,#1151),.UNSPECIFIED.,.F.,.U.,(4,4),(0.50245301522835,1.),.UNSPECIFIED.);
#1153=EDGE_CURVE('',#1141,#612,#1152,.T.);
#1154=ORIENTED_EDGE('',*,*,#1153,.T.);
#1155=ORIENTED_EDGE('',*,*,#617,.F.);
#1156=CARTESIAN_POINT('',(-7.8922988240369,-11.299876786787,-4.3256949746214));
#1157=CARTESIAN_POINT('',(-7.7851282909033,-11.363878219528,-4.3883643952529));
#1158=CARTESIAN_POINT('',(-7.7020922147049,-11.411971337743,-4.4369233473655));
#1159=CARTESIAN_POINT('',(-7.59422863406,-11.472523531651,-4.5));
#1160=B_SPLINE_CURVE_WITH_KNOTS('',3,(#1156,#1157,#1158,#1159),.UNSPECIFIED.,.F.,.U.,(4,4),(0.,1.),.UNSPECIFIED.);
#1161=EDGE_CURVE('',#597,#1110,#1160,.T.);
#1162=ORIENTED_EDGE('',*,*,#1161,.T.);
#1163=EDGE_LOOP('',(#1139,#1147,#1154,#1155,#1162));
#1164=FACE_OUTER_BOUND('',#1163,.T.);
#1165=ADVANCED_FACE('',(#1164),#1138,.T.);
#1166=CARTESIAN_POINT('',(-1.9914350663321,-14.4,-8.7769121208192));
#1167=CARTESIAN_POINT('',(-1.991435064094,-14.371356530861,-8.7769121080233));
#1168=CARTESIAN_POINT('',(-1.9921275955742,-14.321580115376,-8.7767550504335));
#1169=CARTESIAN_POINT('',(-1.9954139251085,-14.235087253902,-8.7760087022236));
#1170=CARTESIAN_POINT('',(-2.0031534650403,-14.117800542649,-8.7742476566734));
#1171=CARTESIAN_POINT('',(-2.0241045485417,-13.931845326536,-8.7694537411363));
#1172=CARTESIAN_POINT('',(-2.069431102466,-13.68821375861,-8.7589284303114));
#1173=CARTESIAN_POINT('',(-2.1510016103224,-13.399195677502,-8.7393714410007));
#1174=CARTESIAN_POINT('',(-2.2649331668507,-13.113788565755,-8.710702894512));
#1175=CARTESIAN_POINT('',(-2.4147441811326,-12.82833940159,-8.6705306728271));
#1176=CARTESIAN_POINT('',(-2.5852529310625,-12.571445817329,-8.6214496214964));
#1177=CARTESIAN_POINT('',(-2.7801173908027,-12.333136387029,-8.56066905055));
#1178=CARTESIAN_POINT('',(-2.9846426357338,-12.12512257557,-8.4916931210034));
#1179=CARTESIAN_POINT('',(-3.2049159021686,-11.93830135921,-8.4111971715246));
#1180=CARTESIAN_POINT('',(-3.4496345511625,-11.766698283512,-8.3141774775124));
#1181=CARTESIAN_POINT('',(-3.7057922752531,-11.622743710472,-8.2033989872414));
#1182=CARTESIAN_POINT('',(-3.9831285903512,-11.50039921207,-8.072545981808));
#1183=CARTESIAN_POINT('',(-4.2562214514024,-11.409962368401,-7.9321375107044));
#1184=CARTESIAN_POINT('',(-4.5275938277423,-11.347615766458,-7.7801571334899));
#1185=CARTESIAN_POINT('',(-4.7542472548781,-11.315674631682,-7.6430866367195));
#1186=CARTESIAN_POINT('',(-4.9281186267073,-11.302853369601,-7.5314712377927));
#1187=CARTESIAN_POINT('',(-5.070234683302,-11.299047338918,-7.4364624568245));
#1188=CARTESIAN_POINT('',(-5.1541963748981,-11.300118635912,-7.3781791764691));
#1189=CARTESIAN_POINT('',(-5.2015485929331,-11.299873430823,-7.3446505863353));
#1190=CARTESIAN_POINT('',(-2.1859738055122,-14.4,-8.5304936012584));
#1191=CARTESIAN_POINT('',(-2.1859737882365,-14.37371961441,-8.5304936019519));
#1192=CARTESIAN_POINT('',(-2.1865946779064,-14.328046131818,-8.5303356613566));
#1193=CARTESIAN_POINT('',(-2.1895499353446,-14.248674686141,-8.5295783188658));
#1194=CARTESIAN_POINT('',(-2.1965239254894,-14.14103681296,-8.5277809699367));
#1195=CARTESIAN_POINT('',(-2.2154503916352,-13.970383035699,-8.5228526207933));
#1196=CARTESIAN_POINT('',(-2.2565248636487,-13.746916637468,-8.5119687612637));
#1197=CARTESIAN_POINT('',(-2.3299004614385,-13.482704077211,-8.4919353290633));
#1198=CARTESIAN_POINT('',(-2.430991166885,-13.221670159852,-8.4632996395912));
#1199=CARTESIAN_POINT('',(-2.563360007078,-12.959835851659,-8.4238814880415));
#1200=CARTESIAN_POINT('',(-2.7141562808512,-12.723067867546,-8.3763928146674));
#1201=CARTESIAN_POINT('',(-2.8872824690491,-12.502727759547,-8.3182089291102));
#1202=CARTESIAN_POINT('',(-3.0697267996016,-12.309971122905,-8.2527786288153));
#1203=CARTESIAN_POINT('',(-3.2666694444264,-12.136595032826,-8.1771077646241));
#1204=CARTESIAN_POINT('',(-3.4847903052499,-11.976859610082,-8.086741430015));
#1205=CARTESIAN_POINT('',(-3.7135650712828,-11.840468348524,-7.9837325788116));
#1206=CARTESIAN_POINT('',(-3.9623611446609,-11.721930532374,-7.8622095516043));
#1207=CARTESIAN_POINT('',(-4.2092896043928,-11.631244761411,-7.7318175370772));
#1208=CARTESIAN_POINT('',(-4.4570672500854,-11.565497293892,-7.5905837501099));
#1209=CARTESIAN_POINT('',(-4.6645731981582,-11.528497402273,-7.4637108121015));
#1210=CARTESIAN_POINT('',(-4.826619344235,-11.510557416019,-7.3589291353727));
#1211=CARTESIAN_POINT('',(-4.9570553597947,-11.501883863153,-7.271502883821));
#1212=CARTESIAN_POINT('',(-5.0396695276612,-11.499864866285,-7.2142360415658));
#1213=CARTESIAN_POINT('',(-5.0859738027501,-11.499873430469,-7.1814399653162));
#1214=B_SPLINE_SURFACE_WITH_KNOTS('',1,3,((#1166,#1167,#1168,#1169,#1170,#1171,#1172,#1173,#1174,#1175,#1176,#1177,#1178,#1179,#1180,#1181,#1182,#1183,#1184,#1185,#1186,#1187,#1188,#1189),(#1190,#1191,#1192,#1193,#1194,#1195,#1196,#1197,#1198,#1199,#1200,#1201,#1202,#1203,#1204,#1205,#1206,#1207,#1208,#1209,#1210,#1211,#1212,#1213)),.UNSPECIFIED.,.F.,.F.,.U.,(2,2),(4,1,1,1,1,1,1,1,1,1,1,1,1,1,1,1,1,1,1,1,1,4),(0.,0.31469429311111),(0.,0.086072099838231,0.14957958048675,0.26010934510754,0.43928123534019,0.71175925832453,1.0043903291081,1.3397204188887,1.6348650283478,1.975041900619,2.2736125044342,2.5729325582286,2.8718548124399,3.1700899327703,3.5098717496884,3.8099883726167,4.1574645172269,4.4704095102276,4.7642458482794,4.9604566815353,5.098509530921,5.278606554333),.UNSPECIFIED.);
#1215=ORIENTED_EDGE('',*,*,#594,.F.);
#1216=CARTESIAN_POINT('',(-1.9914350663321,-14.4,-8.7769121208192));
#1217=DIRECTION('',(-0.61963997700116,0.,0.78488616939146));
#1218=VECTOR('',#1217,0.31395446775658);
#1219=LINE('',#1216,#1218);
#1220=EDGE_CURVE('',#560,#981,#1219,.T.);
#1221=ORIENTED_EDGE('',*,*,#1220,.T.);
#1222=ORIENTED_EDGE('',*,*,#1060,.F.);
#1223=CARTESIAN_POINT('',(-5.0859738027501,-11.499873430469,-7.1814399653162));
#1224=DIRECTION('',(-0.40863074937942,0.70712782261448,-0.57705385636535));
#1225=VECTOR('',#1224,0.28283429565328);
#1226=LINE('',#1223,#1225);
#1227=EDGE_CURVE('',#1028,#568,#1226,.T.);
#1228=ORIENTED_EDGE('',*,*,#1227,.T.);
#1229=EDGE_LOOP('',(#1215,#1221,#1222,#1228));
#1230=FACE_OUTER_BOUND('',#1229,.T.);
#1231=ADVANCED_FACE('',(#1230),#1214,.T.);
#1232=CARTESIAN_POINT('',(-2.0887044359221,-15.95,-8.6537028610388));
#1233=DIRECTION('',(-0.61963997700126,0.,0.78488616939138));
#1234=DIRECTION('',(-0.78488616939138,-1.9765110993866E-15,-0.61963997700126));
#1235=AXIS2_PLACEMENT_3D('',#1232,#1234,#1233);
#1236=PLANE('',#1235);
#1237=ORIENTED_EDGE('',*,*,#565,.F.);
#1238=CARTESIAN_POINT('',(-2.0885303300871,-17.397476459918,-8.6540719093714));
#1239=VERTEX_POINT('',#1238);
#1240=CARTESIAN_POINT('',(-1.9914350663321,-17.3,-8.7769121208192));
#1241=CARTESIAN_POINT('',(-2.0128322750692,-17.321697037183,-8.7498086836222));
#1242=CARTESIAN_POINT('',(-2.0342645816266,-17.343309385448,-8.722660788645));
#1243=CARTESIAN_POINT('',(-2.0674902658765,-17.376622414328,-8.6805744465688));
#1244=CARTESIAN_POINT('',(-2.0783037209359,-17.387321190675,-8.6669391907352));
#1245=CARTESIAN_POINT('',(-2.0885254136298,-17.397435389087,-8.6540358326601));
#1246=B_SPLINE_CURVE_WITH_KNOTS('',3,(#1240,#1241,#1242,#1243,#1244,#1245),.UNSPECIFIED.,.F.,.U.,(4,2,4),(0.77230872123789,1.1878958163793,1.4155870951414),.UNSPECIFIED.);
#1247=EDGE_CURVE('',#551,#1239,#1246,.T.);
#1248=ORIENTED_EDGE('',*,*,#1247,.T.);
#1249=CARTESIAN_POINT('',(-2.0884972287694,-17.397150252021,-8.6543047410905));
#1250=CARTESIAN_POINT('',(-2.1227121650478,-17.362827967025,-8.6110769871247));
#1251=CARTESIAN_POINT('',(-2.1568465711297,-17.329127234383,-8.5673885148663));
#1252=CARTESIAN_POINT('',(-2.1859738055122,-17.3,-8.5304936012584));
#1253=B_SPLINE_CURVE_WITH_KNOTS('',3,(#1249,#1250,#1251,#1252),.UNSPECIFIED.,.F.,.U.,(4,4),(0.50515130338894,1.),.UNSPECIFIED.);
#1254=EDGE_CURVE('',#1239,#989,#1253,.T.);
#1255=ORIENTED_EDGE('',*,*,#1254,.T.);
#1256=ORIENTED_EDGE('',*,*,#994,.F.);
#1257=ORIENTED_EDGE('',*,*,#1220,.F.);
#1258=EDGE_LOOP('',(#1237,#1248,#1255,#1256,#1257));
#1259=FACE_OUTER_BOUND('',#1258,.T.);
#1260=ADVANCED_FACE('',(#1259),#1236,.T.);
#1261=CARTESIAN_POINT('',(-5.2015485929331,-11.299873430823,-7.3446505863353));
#1262=CARTESIAN_POINT('',(-5.5667057572795,-11.299873633661,-7.0860585591608));
#1263=CARTESIAN_POINT('',(-6.0394659031934,-11.299873177789,-6.6952218918894));
#1264=CARTESIAN_POINT('',(-6.6015080880764,-11.29987376424,-6.1248498959722));
#1265=CARTESIAN_POINT('',(-6.9408386478301,-11.299872472766,-5.7373353789907));
#1266=CARTESIAN_POINT('',(-7.2534956326493,-11.299877553121,-5.3351378426568));
#1267=CARTESIAN_POINT('',(-7.5095862069566,-11.299864527778,-4.9667429191797));
#1268=CARTESIAN_POINT('',(-7.7393365147836,-11.299900143029,-4.5998181072933));
#1269=CARTESIAN_POINT('',(-7.9432054737369,-11.299768100719,-4.2387577265817));
#1270=CARTESIAN_POINT('',(-8.1345282355553,-11.300677311252,-3.8586934375057));
#1271=CARTESIAN_POINT('',(-8.287119670059,-11.308713438439,-3.5162528458009));
#1272=CARTESIAN_POINT('',(-8.3949684569208,-11.328779147453,-3.2468429802956));
#1273=CARTESIAN_POINT('',(-8.4599591636622,-11.353161718972,-3.0717988232418));
#1274=CARTESIAN_POINT('',(-8.5002056198999,-11.378323980542,-2.9579332297481));
#1275=CARTESIAN_POINT('',(-8.5255743650441,-11.401275648359,-2.8837404653272));
#1276=CARTESIAN_POINT('',(-8.5455392051161,-11.428067182198,-2.8239711205958));
#1277=CARTESIAN_POINT('',(-8.5567906250299,-11.451081434137,-2.7895625251676));
#1278=CARTESIAN_POINT('',(-8.5617944135289,-11.473208068794,-2.7741082207559));
#1279=CARTESIAN_POINT('',(-5.0859738027501,-11.499873430469,-7.1814399653162));
#1280=CARTESIAN_POINT('',(-5.4429707492057,-11.499873430469,-6.9286067735026));
#1281=CARTESIAN_POINT('',(-5.9052723158871,-11.499873430469,-6.5464178884138));
#1282=CARTESIAN_POINT('',(-6.4547927987556,-11.499873430469,-5.9887584087881));
#1283=CARTESIAN_POINT('',(-6.7866329261878,-11.499873430469,-5.6097915854918));
#1284=CARTESIAN_POINT('',(-7.092164581721,-11.499873430469,-5.2167814792002));
#1285=CARTESIAN_POINT('',(-7.3430139072844,-11.499873430469,-4.8559388722041));
#1286=CARTESIAN_POINT('',(-7.5664068346281,-11.499873430469,-4.4988890241044));
#1287=CARTESIAN_POINT('',(-7.7704236116797,-11.499873430469,-4.139466533534));
#1288=CARTESIAN_POINT('',(-7.983977173845,-11.499873430469,-3.771683814612));
#1289=CARTESIAN_POINT('',(-8.1701991800339,-11.499873430469,-3.4487594240637));
#1290=CARTESIAN_POINT('',(-8.3138426872037,-11.499873430469,-3.2000043837164));
#1291=CARTESIAN_POINT('',(-8.4058852819617,-11.499873430469,-3.0405793272437));
#1292=CARTESIAN_POINT('',(-8.465252315294,-11.499873430469,-2.9377529218198));
#1293=CARTESIAN_POINT('',(-8.5037208930643,-11.499873430469,-2.8711233579034));
#1294=CARTESIAN_POINT('',(-8.5345929899384,-11.499873430469,-2.8176513201474));
#1295=CARTESIAN_POINT('',(-8.5523052033211,-11.499873430469,-2.786972865794));
#1296=CARTESIAN_POINT('',(-8.5602480606744,-11.499873430469,-2.7732154335191));
#1297=B_SPLINE_SURFACE_WITH_KNOTS('',1,3,((#1261,#1262,#1263,#1264,#1265,#1266,#1267,#1268,#1269,#1270,#1271,#1272,#1273,#1274,#1275,#1276,#1277,#1278),(#1279,#1280,#1281,#1282,#1283,#1284,#1285,#1286,#1287,#1288,#1289,#1290,#1291,#1292,#1293,#1294,#1295,#1296)),.UNSPECIFIED.,.F.,.F.,.U.,(2,2),(4,1,1,1,1,1,1,1,1,1,1,1,1,1,1,4),(0.,0.28240831408998),(0.,1.342590207431,1.8375465319526,2.4031045331,2.8888979004628,3.3659525549731,3.7512205999459,4.1853429204485,4.6230220252245,5.0430297480087,5.3205304256636,5.5007769170868,5.6081123705852,5.6881593421837,5.7410664198288,5.8059060488609),.UNSPECIFIED.);
#1298=ORIENTED_EDGE('',*,*,#1089,.F.);
#1299=ORIENTED_EDGE('',*,*,#1124,.F.);
#1300=ORIENTED_EDGE('',*,*,#1161,.F.);
#1301=ORIENTED_EDGE('',*,*,#609,.F.);
#1302=ORIENTED_EDGE('',*,*,#1227,.F.);
#1303=EDGE_LOOP('',(#1298,#1299,#1300,#1301,#1302));
#1304=FACE_OUTER_BOUND('',#1303,.T.);
#1305=ADVANCED_FACE('',(#1304),#1297,.T.);
#1306=CARTESIAN_POINT('',(-1.1003747829753E-14,2.3000000000001,1.2553930933154E-14));
#1307=DIRECTION('',(-1.,-1.4199629459489E-16,-1.4124395824934E-15));
#1308=DIRECTION('',(1.4199629459489E-16,-1.,-1.0490631221621E-16));
#1309=AXIS2_PLACEMENT_3D('',#1306,#1308,#1307);
#1310=CONICAL_SURFACE('',#1309,0.,0.78539816339744);
#1311=ORIENTED_EDGE('',*,*,#496,.F.);
#1312=CARTESIAN_POINT('',(-8.8,-6.5,-1.0776891832497E-15));
#1313=DIRECTION('',(-0.70710678118655,-0.70710678118655,7.7070089004959E-15));
#1314=VECTOR('',#1313,0.28284271247462);
#1315=LINE('',#1312,#1314);
#1316=EDGE_CURVE('',#490,#644,#1315,.T.);
#1317=ORIENTED_EDGE('',*,*,#1316,.T.);
#1318=ORIENTED_EDGE('',*,*,#656,.F.);
#1319=ORIENTED_EDGE('',*,*,#1316,.F.);
#1320=EDGE_LOOP('',(#1311,#1317,#1318,#1319));
#1321=FACE_OUTER_BOUND('',#1320,.T.);
#1322=ADVANCED_FACE('',(#1321),#1310,.T.);
#1323=CARTESIAN_POINT('',(-4.4408920985006E-15,-26.29999999999,-5.3290705182008E-15));
#1324=DIRECTION('',(0.94977427243058,1.4156224791003E-16,0.31293582637494));
#1325=DIRECTION('',(-1.0172358726715E-16,1.,-1.4363264936784E-16));
#1326=AXIS2_PLACEMENT_3D('',#1323,#1325,#1324);
#1327=CONICAL_SURFACE('',#1326,0.,0.78539816339803);
#1328=ORIENTED_EDGE('',*,*,#626,.F.);
#1329=ORIENTED_EDGE('',*,*,#1153,.F.);
#1330=CARTESIAN_POINT('',(-7.7436150678163,-17.387362664489,-4.4126415139477));
#1331=CARTESIAN_POINT('',(-7.7108601352431,-17.443710890003,-4.3562875978998));
#1332=CARTESIAN_POINT('',(-7.677890423308,-17.5,-4.2999999697105));
#1333=B_SPLINE_CURVE_WITH_KNOTS('',2,(#1330,#1331,#1332),.UNSPECIFIED.,.F.,.U.,(3,3),(0.,1.),.UNSPECIFIED.);
#1334=EDGE_CURVE('',#1141,#717,#1333,.T.);
#1335=ORIENTED_EDGE('',*,*,#1334,.T.);
#1336=ORIENTED_EDGE('',*,*,#723,.F.);
#1337=ORIENTED_EDGE('',*,*,#878,.F.);
#1338=EDGE_LOOP('',(#1328,#1329,#1335,#1336,#1337));
#1339=FACE_OUTER_BOUND('',#1338,.T.);
#1340=ADVANCED_FACE('',(#1339),#1327,.T.);
#1341=CARTESIAN_POINT('',(4.6916190415234,-17.4,-4.3999999999999));
#1342=DIRECTION('',(-1.2560736816042E-14,0.70710678118654,-0.70710678118655));
#1343=DIRECTION('',(1.1165009720243E-28,-0.70710678118655,-0.70710678118654));
#1344=AXIS2_PLACEMENT_3D('',#1341,#1343,#1342);
#1345=PLANE('',#1344);
#1346=CARTESIAN_POINT('',(-2.1859738055122,-17.3,-4.5));
#1347=DIRECTION('',(0.57735026918963,-0.57735026918962,0.57735026918963));
#1348=VECTOR('',#1347,0.34641016151378);
#1349=LINE('',#1346,#1348);
#1350=EDGE_CURVE('',#997,#689,#1349,.T.);
#1351=ORIENTED_EDGE('',*,*,#1350,.T.);
#1352=ORIENTED_EDGE('',*,*,#729,.F.);
#1353=ORIENTED_EDGE('',*,*,#1334,.F.);
#1354=ORIENTED_EDGE('',*,*,#1146,.F.);
#1355=ORIENTED_EDGE('',*,*,#1107,.F.);
#1356=EDGE_LOOP('',(#1351,#1352,#1353,#1354,#1355));
#1357=FACE_OUTER_BOUND('',#1356,.T.);
#1358=ADVANCED_FACE('',(#1357),#1345,.T.);
#1359=CARTESIAN_POINT('',(-2.0859738055122,-17.4,2.5663377862415));
#1360=DIRECTION('',(-0.70710678118655,0.70710678118655,0.));
#1361=DIRECTION('',(-0.70710678118655,-0.70710678118655,1.3992892607168E-17));
#1362=AXIS2_PLACEMENT_3D('',#1359,#1361,#1360);
#1363=PLANE('',#1362);
#1364=ORIENTED_EDGE('',*,*,#1254,.F.);
#1365=CARTESIAN_POINT('',(-2.0884756526701,-17.397486756247,-8.654154131151));
#1366=CARTESIAN_POINT('',(-2.0372011075286,-17.44877459851,-8.6136339887656));
#1367=CARTESIAN_POINT('',(-1.9859738052872,-17.499999998806,-8.5729754564206));
#1368=B_SPLINE_CURVE_WITH_KNOTS('',2,(#1365,#1366,#1367),.UNSPECIFIED.,.F.,.U.,(3,3),(1.165089462238E-08,0.99946272602774),.UNSPECIFIED.);
#1369=EDGE_CURVE('',#1239,#691,#1368,.T.);
#1370=ORIENTED_EDGE('',*,*,#1369,.T.);
#1371=ORIENTED_EDGE('',*,*,#696,.F.);
#1372=ORIENTED_EDGE('',*,*,#1350,.F.);
#1373=ORIENTED_EDGE('',*,*,#1002,.F.);
#1374=EDGE_LOOP('',(#1364,#1370,#1371,#1372,#1373));
#1375=FACE_OUTER_BOUND('',#1374,.T.);
#1376=ADVANCED_FACE('',(#1375),#1363,.T.);
#1377=CARTESIAN_POINT('',(1.7763568394003E-15,-26.3,1.7763568394003E-14));
#1378=DIRECTION('',(-1.,-1.1976678176179E-17,-2.1315931896971E-15));
#1379=DIRECTION('',(-1.1976678176179E-17,1.,3.5398688226473E-17));
#1380=AXIS2_PLACEMENT_3D('',#1377,#1379,#1378);
#1381=CONICAL_SURFACE('',#1380,0.,0.78539816339747);
#1382=ORIENTED_EDGE('',*,*,#557,.F.);
#1383=ORIENTED_EDGE('',*,*,#853,.F.);
#1384=ORIENTED_EDGE('',*,*,#705,.F.);
#1385=ORIENTED_EDGE('',*,*,#1369,.F.);
#1386=ORIENTED_EDGE('',*,*,#1247,.F.);
#1387=EDGE_LOOP('',(#1382,#1383,#1384,#1385,#1386));
#1388=FACE_OUTER_BOUND('',#1387,.T.);
#1389=ADVANCED_FACE('',(#1388),#1381,.T.);
#1390=CARTESIAN_POINT('',(0.53589838486224,-5.7,8.8817841970013E-16));
#1391=DIRECTION('',(-1.,0.,-1.0158047897502E-16));
#1392=DIRECTION('',(0.,1.,-0.));
#1393=AXIS2_PLACEMENT_3D('',#1390,#1392,#1391);
#1394=PLANE('',#1393);
#1395=ORIENTED_EDGE('',*,*,#478,.F.);
#1396=EDGE_LOOP('',(#1395));
#1397=FACE_OUTER_BOUND('',#1396,.T.);
#1398=ADVANCED_FACE('',(#1397),#1394,.T.);
#1399=CARTESIAN_POINT('',(0.53589838486224,-6.7,8.8817841970013E-16));
#1400=DIRECTION('',(-1.,0.,-1.751210586753E-16));
#1401=DIRECTION('',(0.,-1.,-0.));
#1402=AXIS2_PLACEMENT_3D('',#1399,#1401,#1400);
#1403=PLANE('',#1402);
#1404=CARTESIAN_POINT('',(-1.9364916731037,-6.7,-0.50000000000003));
#1405=VERTEX_POINT('',#1404);
#1406=CARTESIAN_POINT('',(-1.5543122344752E-15,-6.7,8.8817841970013E-16));
#1407=DIRECTION('',(-0.96824583655185,-4.4408920985006E-16,-0.25000000000001));
#1408=DIRECTION('',(3.7521791442496E-16,-1.,-4.6141349843472E-16));
#1409=AXIS2_PLACEMENT_3D('',#1406,#1408,#1407);
#1410=CIRCLE('',#1409,2.);
#1411=EDGE_CURVE('',#1405,#1405,#1410,.T.);
#1412=ORIENTED_EDGE('',*,*,#1411,.T.);
#1413=EDGE_LOOP('',(#1412));
#1414=FACE_OUTER_BOUND('',#1413,.T.);
#1415=ADVANCED_FACE('',(#1414),#1403,.T.);
#1416=CARTESIAN_POINT('',(-0.67777416925804,-10.09,-0.65585176141846));
#1417=DIRECTION('',(1.,0.,3.1597564596046E-16));
#1418=DIRECTION('',(0.,-1.,0.));
#1419=AXIS2_PLACEMENT_3D('',#1416,#1418,#1417);
#1420=PLANE('',#1419);
#1421=CARTESIAN_POINT('',(8.8817841970013E-16,-10.09,-3.5527136788005E-15));
#1422=DIRECTION('',(0.76604444311898,0.,0.64278760968654));
#1423=DIRECTION('',(1.170188560179E-16,-1.,-1.6689835203335E-16));
#1424=AXIS2_PLACEMENT_3D('',#1421,#1423,#1422);
#1425=CIRCLE('',#1424,8.8000000310181);
#1426=EDGE_CURVE('',#794,#881,#1425,.T.);
#1427=ORIENTED_EDGE('',*,*,#1426,.T.);
#1428=ORIENTED_EDGE('',*,*,#894,.F.);
#1429=CARTESIAN_POINT('',(4.4408920985006E-16,-10.09,-6.4323353482435E-16));
#1430=DIRECTION('',(-0.96824583655185,0.,-0.25));
#1431=DIRECTION('',(-3.9474596431117E-16,1.,-2.5254909947838E-16));
#1432=AXIS2_PLACEMENT_3D('',#1429,#1431,#1430);
#1433=CIRCLE('',#1432,2.);
#1434=EDGE_CURVE('',#889,#786,#1433,.T.);
#1435=ORIENTED_EDGE('',*,*,#1434,.T.);
#1436=ORIENTED_EDGE('',*,*,#799,.F.);
#1437=EDGE_LOOP('',(#1427,#1428,#1435,#1436));
#1438=FACE_OUTER_BOUND('',#1437,.F.);
#1439=ADVANCED_FACE('',(#1438),#1420,.F.);
#1440=CARTESIAN_POINT('',(-3.1086244689504E-15,-17.5,-1.5987211554602E-14));
#1441=DIRECTION('',(0.76604444311898,-8.0743492415408E-16,0.64278760968654));
#1442=DIRECTION('',(5.9931067456149E-17,1.,0.));
#1443=AXIS2_PLACEMENT_3D('',#1440,#1442,#1441);
#1444=CYLINDRICAL_SURFACE('',#1443,8.8000000310181);
#1445=ORIENTED_EDGE('',*,*,#714,.T.);
#1446=ORIENTED_EDGE('',*,*,#886,.F.);
#1447=ORIENTED_EDGE('',*,*,#1426,.F.);
#1448=ORIENTED_EDGE('',*,*,#807,.F.);
#1449=ORIENTED_EDGE('',*,*,#832,.F.);
#1450=ORIENTED_EDGE('',*,*,#861,.F.);
#1451=EDGE_LOOP('',(#1445,#1446,#1447,#1448,#1449,#1450));
#1452=FACE_OUTER_BOUND('',#1451,.F.);
#1453=ADVANCED_FACE('',(#1452),#1444,.T.);
#1454=CARTESIAN_POINT('',(-3.1086244689504E-15,-17.5,-1.5987211554602E-14));
#1455=DIRECTION('',(0.76604444311898,-8.0743492415408E-16,0.64278760968654));
#1456=DIRECTION('',(5.9931067456149E-17,1.,0.));
#1457=AXIS2_PLACEMENT_3D('',#1454,#1456,#1455);
#1458=CYLINDRICAL_SURFACE('',#1457,8.8000000310181);
#1459=ORIENTED_EDGE('',*,*,#934,.F.);
#1460=EDGE_LOOP('',(#1459));
#1461=FACE_OUTER_BOUND('',#1460,.F.);
#1462=ADVANCED_FACE('',(#1461),#1458,.T.);
#1463=CARTESIAN_POINT('',(-5.273106670192,-13.795,-2.));
#1464=DIRECTION('',(1.,0.,2.6942195156391E-16));
#1465=DIRECTION('',(-2.6942195156391E-16,0.,1.));
#1466=AXIS2_PLACEMENT_3D('',#1463,#1465,#1464);
#1467=PLANE('',#1466);
#1468=ORIENTED_EDGE('',*,*,#967,.F.);
#1469=EDGE_LOOP('',(#1468));
#1470=FACE_OUTER_BOUND('',#1469,.F.);
#1471=ADVANCED_FACE('',(#1470),#1467,.F.);
#1472=CARTESIAN_POINT('',(6.9805272673307E-15,-6.7,4.8849813083507E-15));
#1473=DIRECTION('',(-0.96824583655185,2.2204460492503E-15,-0.25000000000001));
#1474=DIRECTION('',(-1.6126503424821E-15,-1.,-1.6653345369377E-15));
#1475=AXIS2_PLACEMENT_3D('',#1472,#1474,#1473);
#1476=CYLINDRICAL_SURFACE('',#1475,2.);
#1477=ORIENTED_EDGE('',*,*,#791,.F.);
#1478=ORIENTED_EDGE('',*,*,#1434,.F.);
#1479=CARTESIAN_POINT('',(-1.9364916731037,-10.09,-0.5));
#1480=DIRECTION('',(-8.9896601184223E-17,-1.,-1.7230181893643E-15));
#1481=VECTOR('',#1480,7.41);
#1482=LINE('',#1479,#1481);
#1483=EDGE_CURVE('',#889,#734,#1482,.T.);
#1484=ORIENTED_EDGE('',*,*,#1483,.T.);
#1485=ORIENTED_EDGE('',*,*,#740,.F.);
#1486=ORIENTED_EDGE('',*,*,#1483,.F.);
#1487=ORIENTED_EDGE('',*,*,#900,.F.);
#1488=CARTESIAN_POINT('',(-1.9364916731037,-6.7,-0.50000000000003));
#1489=DIRECTION('',(-6.7286243916676E-17,-1.,-2.3550185370837E-16));
#1490=VECTOR('',#1489,3.3);
#1491=LINE('',#1488,#1490);
#1492=EDGE_CURVE('',#1405,#752,#1491,.T.);
#1493=ORIENTED_EDGE('',*,*,#1492,.F.);
#1494=ORIENTED_EDGE('',*,*,#1411,.T.);
#1495=ORIENTED_EDGE('',*,*,#1492,.T.);
#1496=ORIENTED_EDGE('',*,*,#766,.T.);
#1497=EDGE_LOOP('',(#1477,#1478,#1484,#1485,#1486,#1487,#1493,#1494,#1495,#1496));
#1498=FACE_OUTER_BOUND('',#1497,.F.);
#1499=ADVANCED_FACE('',(#1498),#1476,.F.);
#1500=CLOSED_SHELL('',(#150,#197,#235,#273,#311,#349,#378,#389,#400,#411,#422,#433,#444,#483,#508,#682,#744,#777,#817,#842,#865,#904,#939,#972,#1012,#1065,#1094,#1133,#1165,#1231,#1260,#1305,#1322,#1340,#1358,#1376,#1389,#1398,#1415,#1439,#1453,#1462,#1471,#1499));
#1501=COLOUR_RGB('',0.745098,0.901961,0.960784);
#1502=FILL_AREA_STYLE_COLOUR('',#1501);
#1503=FILL_AREA_STYLE('',(#1502));
#1504=SURFACE_STYLE_FILL_AREA(#1503);
#1505=SURFACE_SIDE_STYLE('',(#1504));
#1506=SURFACE_STYLE_USAGE(.BOTH.,#1505);
#1507=PRESENTATION_STYLE_ASSIGNMENT((#1506));
#1508=OVER_RIDING_STYLED_ITEM('',(#1507),#150,#1500);
#1509=OVER_RIDING_STYLED_ITEM('',(#1507),#197,#1500);
#1510=OVER_RIDING_STYLED_ITEM('',(#1507),#235,#1500);
#1511=OVER_RIDING_STYLED_ITEM('',(#1507),#273,#1500);
#1512=OVER_RIDING_STYLED_ITEM('',(#1507),#311,#1500);
#1513=OVER_RIDING_STYLED_ITEM('',(#1507),#349,#1500);
#1514=OVER_RIDING_STYLED_ITEM('',(#1507),#378,#1500);
#1515=OVER_RIDING_STYLED_ITEM('',(#1507),#389,#1500);
#1516=OVER_RIDING_STYLED_ITEM('',(#1507),#400,#1500);
#1517=OVER_RIDING_STYLED_ITEM('',(#1507),#411,#1500);
#1518=OVER_RIDING_STYLED_ITEM('',(#1507),#422,#1500);
#1519=OVER_RIDING_STYLED_ITEM('',(#1507),#433,#1500);
#1520=OVER_RIDING_STYLED_ITEM('',(#1507),#444,#1500);
#1521=COLOUR_RGB('',0.54902,0.54902,0.921569);
#1522=FILL_AREA_STYLE_COLOUR('',#1521);
#1523=FILL_AREA_STYLE('',(#1522));
#1524=SURFACE_STYLE_FILL_AREA(#1523);
#1525=SURFACE_SIDE_STYLE('',(#1524));
#1526=SURFACE_STYLE_USAGE(.BOTH.,#1525);
#1527=PRESENTATION_STYLE_ASSIGNMENT((#1526));
#1528=OVER_RIDING_STYLED_ITEM('',(#1527),#483,#1500);
#1529=OVER_RIDING_STYLED_ITEM('',(#1507),#508,#1500);
#1530=OVER_RIDING_STYLED_ITEM('',(#1507),#682,#1500);
#1531=OVER_RIDING_STYLED_ITEM('',(#1507),#744,#1500);
#1532=OVER_RIDING_STYLED_ITEM('',(#1507),#777,#1500);
#1533=OVER_RIDING_STYLED_ITEM('',(#1507),#817,#1500);
#1534=OVER_RIDING_STYLED_ITEM('',(#1507),#842,#1500);
#1535=OVER_RIDING_STYLED_ITEM('',(#1507),#865,#1500);
#1536=OVER_RIDING_STYLED_ITEM('',(#1507),#904,#1500);
#1537=OVER_RIDING_STYLED_ITEM('',(#1507),#939,#1500);
#1538=OVER_RIDING_STYLED_ITEM('',(#1507),#972,#1500);
#1539=OVER_RIDING_STYLED_ITEM('',(#1507),#1012,#1500);
#1540=OVER_RIDING_STYLED_ITEM('',(#1507),#1065,#1500);
#1541=OVER_RIDING_STYLED_ITEM('',(#1507),#1094,#1500);
#1542=OVER_RIDING_STYLED_ITEM('',(#1507),#1133,#1500);
#1543=OVER_RIDING_STYLED_ITEM('',(#1507),#1165,#1500);
#1544=OVER_RIDING_STYLED_ITEM('',(#1507),#1231,#1500);
#1545=OVER_RIDING_STYLED_ITEM('',(#1507),#1260,#1500);
#1546=OVER_RIDING_STYLED_ITEM('',(#1507),#1305,#1500);
#1547=OVER_RIDING_STYLED_ITEM('',(#1507),#1322,#1500);
#1548=OVER_RIDING_STYLED_ITEM('',(#1507),#1340,#1500);
#1549=OVER_RIDING_STYLED_ITEM('',(#1507),#1358,#1500);
#1550=OVER_RIDING_STYLED_ITEM('',(#1507),#1376,#1500);
#1551=OVER_RIDING_STYLED_ITEM('',(#1507),#1389,#1500);
#1552=OVER_RIDING_STYLED_ITEM('',(#1507),#1398,#1500);
#1553=OVER_RIDING_STYLED_ITEM('',(#1507),#1415,#1500);
#1554=OVER_RIDING_STYLED_ITEM('',(#1507),#1439,#1500);
#1555=OVER_RIDING_STYLED_ITEM('',(#1507),#1453,#1500);
#1556=OVER_RIDING_STYLED_ITEM('',(#1507),#1462,#1500);
#1557=OVER_RIDING_STYLED_ITEM('',(#1507),#1471,#1500);
#1558=OVER_RIDING_STYLED_ITEM('',(#1507),#1499,#1500);
#1559=MANIFOLD_SOLID_BREP('S1',#1500);
#1560=ADVANCED_BREP_SHAPE_REPRESENTATION('',(#1559),#5);
#1561=SHAPE_REPRESENTATION_RELATIONSHIP('NONE', 'NONE', #28, #1560);
#1562=CARTESIAN_POINT('',(-1.7763568394003E-15,0.,-4.5));
#1563=COLOUR_RGB('',0.,0.,0.000000);
#1564=DRAUGHTING_PRE_DEFINED_CURVE_FONT('continuous');
#1565=CURVE_STYLE('None', #1564, 'POSITIVE_LENGTH_MEASURE( 0 )', #1563);
#1566=PRESENTATION_STYLE_ASSIGNMENT((#1565));
#1567=STYLED_ITEM('None', (#1566), #1562);
#1568=GEOMETRIC_CURVE_SET('None',(#1562));
#1569=GEOMETRICALLY_BOUNDED_WIREFRAME_SHAPE_REPRESENTATION('None',(#1568),#5);
#1570=SHAPE_REPRESENTATION_RELATIONSHIP('None','None',#28,#1569);
#1571=PRESENTATION_LAYER_ASSIGNMENT('Í¼²ã000','',(#1559,#1562));
#1572=MECHANICAL_DESIGN_GEOMETRIC_PRESENTATION_REPRESENTATION('',(#1508,#1509,#1510,#1511,#1512,#1513,#1514,#1515,#1516,#1517,#1518,#1519,#1520,#1528,#1529,#1530,#1531,#1532,#1533,#1534,#1535,#1536,#1537,#1538,#1539,#1540,#1541,#1542,#1543,#1544,#1545,#1546,#1547,#1548,#1549,#1550,#1551,#1552,#1553,#1554,#1555,#1556,#1557,#1558,#1567),#5);
ENDSEC;
END-ISO-10303-21;
