ISO-10303-21;
HEADER;
FILE_DESCRIPTION(
  ('This file contains a STEP AP42 implementation'
    ,'as created by ZW3D STEP Interface translator.')
  ,'2;1'
  );
FILE_NAME(
  '5mmÁù½ÇÁªÖáÆ÷£¨±§½ôÊ½£©-ÈýÎ¬Ä£ÐÍ.stp'
  ,'2410 8.153635',
  (''),
  ('ZWCAD Software Co.'),
  'Version 1.0',
  'ZW3D to STEP translator',
  ''
  );
FILE_SCHEMA(('AUTOMOTIVE_DESIGN { 1 0 10303 214 1 1 1 1 }'));
ENDSEC;

DATA;

/**File Base Unit**/
#1 = (LENGTH_UNIT()NAMED_UNIT(*)SI_UNIT(.MILLI.,.METRE.));
#2 = (NAMED_UNIT(*)PLANE_ANGLE_UNIT()SI_UNIT($,.RADIAN.));
#3 = (NAMED_UNIT(*)SI_UNIT($,.STERADIAN.)SOLID_ANGLE_UNIT());
#4 = UNCERTAINTY_MEASURE_WITH_UNIT(LENGTH_MEASURE(0.01),#1,'DISTANCE_ACCURACY_VALUE','Maximum Tolerance applied to model');
#5 = (GEOMETRIC_REPRESENTATION_CONTEXT(3)GLOBAL_UNCERTAINTY_ASSIGNED_CONTEXT((#4))GLOBAL_UNIT_ASSIGNED_CONTEXT((#1,#2,#3))REPRESENTATION_CONTEXT('STEP 203','TOP_LEVEL_ASSEMBLY_PART'));

/**product_definition_shape**/
#6=APPLICATION_CONTEXT('mechanical parts and assemblies' );
#7=DESIGN_CONTEXT('NONE',#6,'design');
#8=MECHANICAL_CONTEXT('NONE',#6,'mechanical');
#9=PRODUCT('0','Part','',(#8));
#10=PRODUCT_DEFINITION_FORMATION_WITH_SPECIFIED_SOURCE('ANY','',#9,.NOT_KNOWN.);
#11=PRODUCT_DEFINITION('UNKNOWN','',#10,#7);
#12=PRODUCT_DEFINITION_SHAPE('NONE','NONE',#11);
#13=PRODUCT_RELATED_PRODUCT_CATEGORY('detail','',(#9));
/**geometry information**/
#14=CARTESIAN_POINT('',(0.,0.,0.));
#15=DIRECTION('',(0.,0.,1.));
#16=DIRECTION('',(1.,0.,0.));
#17=AXIS2_PLACEMENT_3D('',#14,#15,#16);
#18=APPLICATION_CONTEXT('part');
#19=MECHANICAL_CONTEXT('none',#18,'component');
#20=PRODUCT('5mmÁù½ÇÁªÖáÆ÷£¨±§½ôÊ½£©1','5mmÁù½ÇÁªÖáÆ÷£¨±§½ôÊ½£©1','',(#19));
#21=PRODUCT_RELATED_PRODUCT_CATEGORY('detail','',(#20));
#22=PRODUCT_DEFINITION_FORMATION_WITH_SPECIFIED_SOURCE('ANY','UNSPECIFIED',#20,.NOT_KNOWN.);
#23=APPLICATION_CONTEXT('part');
#24=APPLICATION_PROTOCOL_DEFINITION('international standard','config_control_design',1994,#23);
#25=DESIGN_CONTEXT('detailed',#23,'design');
#26=PRODUCT_DEFINITION('','UNSPECIFIED',#22,#25);
#27=PRODUCT_DEFINITION_SHAPE('NONE','NONE',#26);
#28=SHAPE_REPRESENTATION('5mmÁù½ÇÁªÖáÆ÷£¨±§½ôÊ½£©1',(#17),#5);
#29=SHAPE_DEFINITION_REPRESENTATION(#27,#28);
#30=CARTESIAN_POINT('',(0.92820323027551,0.,-1.7763568394003E-15));
#31=DIRECTION('',(1.,0.,0.));
#32=DIRECTION('',(-0.,1.,0.));
#33=AXIS2_PLACEMENT_3D('',#30,#32,#31);
#34=PLANE('',#33);
#35=CARTESIAN_POINT('',(1.2579847610448,3.7490927222831E-18,-6.2019053898498));
#36=VERTEX_POINT('',#35);
#37=CARTESIAN_POINT('',(-1.2579847610448,3.7493752143339E-18,-6.2019053898498));
#38=VERTEX_POINT('',#37);
#39=CARTESIAN_POINT('',(-2.2339593128057E-15,7.5108506851092E-18,-9.7699626167014E-15));
#40=DIRECTION('',(0.19879019609015,-7.3041773443932E-34,-0.98004206947377));
#41=DIRECTION('',(2.3551439626196E-49,1.,-6.6714866052304E-34));
#42=AXIS2_PLACEMENT_3D('',#39,#41,#40);
#43=CIRCLE('',#42,6.3282032302755);
#44=EDGE_CURVE('',#36,#38,#43,.T.);
#45=ORIENTED_EDGE('',*,*,#44,.T.);
#46=CARTESIAN_POINT('',(-4.7420152389552,-4.2025661092995E-16,-4.1903994555634));
#47=VERTEX_POINT('',#46);
#48=CARTESIAN_POINT('',(-1.2579847610448,3.7493752143339E-18,-6.2019053898498));
#49=DIRECTION('',(-0.86602540378444,-1.0539516163414E-16,0.49999999999999));
#50=VECTOR('',#49,4.0230118685728);
#51=LINE('',#48,#50);
#52=EDGE_CURVE('',#38,#47,#51,.T.);
#53=ORIENTED_EDGE('',*,*,#52,.T.);
#54=CARTESIAN_POINT('',(-5.9999999999999,2.1529781277974E-16,-2.0115059342866));
#55=VERTEX_POINT('',#54);
#56=CARTESIAN_POINT('',(-8.8817841970013E-15,7.5108506851092E-18,-3.9968028886506E-15));
#57=DIRECTION('',(-0.74934623089669,2.4347257814644E-33,-0.66217839457425));
#58=DIRECTION('',(2.3936089936144E-33,1.,1.381950796798E-33));
#59=AXIS2_PLACEMENT_3D('',#56,#58,#57);
#60=CIRCLE('',#59,6.3282032302755);
#61=EDGE_CURVE('',#47,#55,#60,.T.);
#62=ORIENTED_EDGE('',*,*,#61,.T.);
#63=CARTESIAN_POINT('',(-5.9999999999999,2.1549490428975E-16,2.0115059342866));
#64=VERTEX_POINT('',#63);
#65=CARTESIAN_POINT('',(-5.9999999999999,2.1529781277974E-16,-2.0115059342866));
#66=DIRECTION('',(0.,4.8991033695334E-20,1.));
#67=VECTOR('',#66,4.0230118685732);
#68=LINE('',#65,#67);
#69=EDGE_CURVE('',#55,#64,#68,.T.);
#70=ORIENTED_EDGE('',*,*,#69,.T.);
#71=CARTESIAN_POINT('',(-4.7420152387226,3.7554277004033E-18,4.1903994558267));
#72=VERTEX_POINT('',#71);
#73=CARTESIAN_POINT('',(-3.5527136788005E-15,7.5108506851092E-18,1.7763568394003E-15));
#74=DIRECTION('',(-0.94813642698683,-9.7389031258575E-34,0.31786367489956));
#75=DIRECTION('',(-8.2538241134972E-34,1.,4.7653475740771E-34));
#76=AXIS2_PLACEMENT_3D('',#73,#75,#74);
#77=CIRCLE('',#76,6.3282032302755);
#78=EDGE_CURVE('',#64,#72,#77,.T.);
#79=ORIENTED_EDGE('',*,*,#78,.T.);
#80=CARTESIAN_POINT('',(-1.2579847610448,2.1503492426013E-16,6.2019053898498));
#81=VERTEX_POINT('',#80);
#82=CARTESIAN_POINT('',(-4.7420152387226,3.7554277004033E-18,4.1903994558267));
#83=DIRECTION('',(0.86602540379833,5.2517741304147E-17,0.49999999997594));
#84=VECTOR('',#83,4.0230118682398);
#85=LINE('',#82,#84);
#86=EDGE_CURVE('',#72,#81,#85,.T.);
#87=ORIENTED_EDGE('',*,*,#86,.T.);
#88=CARTESIAN_POINT('',(1.2579847610448,3.7520007846875E-18,6.2019053898498));
#89=VERTEX_POINT('',#88);
#90=CARTESIAN_POINT('',(-2.346100669976E-15,7.5108506851092E-18,-8.8817841970013E-15));
#91=DIRECTION('',(-0.19879019609015,1.2173628907322E-33,0.98004206947377));
#92=DIRECTION('',(-4.7102879252391E-49,1.,-1.3342973210461E-33));
#93=AXIS2_PLACEMENT_3D('',#90,#92,#91);
#94=CIRCLE('',#93,6.3282032302755);
#95=EDGE_CURVE('',#81,#89,#94,.T.);
#96=ORIENTED_EDGE('',*,*,#95,.T.);
#97=CARTESIAN_POINT('',(4.7420152389551,3.7688906466611E-18,4.1903994555635));
#98=VERTEX_POINT('',#97);
#99=CARTESIAN_POINT('',(1.2579847610448,3.7520007846875E-18,6.2019053898498));
#100=DIRECTION('',(0.86602540378445,4.1983127381605E-21,-0.49999999999999));
#101=VECTOR('',#100,4.0230118685727);
#102=LINE('',#99,#101);
#103=EDGE_CURVE('',#89,#98,#102,.T.);
#104=ORIENTED_EDGE('',*,*,#103,.T.);
#105=CARTESIAN_POINT('',(5.9999999999999,3.7554253425546E-18,2.0115059342866));
#106=VERTEX_POINT('',#105);
#107=CARTESIAN_POINT('',(8.8817841970013E-15,7.5108506851092E-18,7.9936057773011E-15));
#108=DIRECTION('',(0.74934623089667,-1.7043080470251E-33,0.66217839457426));
#109=DIRECTION('',(1.4856883408639E-33,1.,8.5776256352972E-34));
#110=AXIS2_PLACEMENT_3D('',#107,#109,#108);
#111=CIRCLE('',#110,6.3282032302755);
#112=EDGE_CURVE('',#98,#106,#111,.T.);
#113=ORIENTED_EDGE('',*,*,#112,.T.);
#114=CARTESIAN_POINT('',(5.9999999999999,3.7569047679425E-18,-2.0115059342866));
#115=VERTEX_POINT('',#114);
#116=CARTESIAN_POINT('',(5.9999999999999,3.7554253425546E-18,2.0115059342866));
#117=DIRECTION('',(0.,3.6774074654299E-22,-1.));
#118=VECTOR('',#117,4.0230118685732);
#119=LINE('',#116,#118);
#120=EDGE_CURVE('',#106,#115,#119,.T.);
#121=ORIENTED_EDGE('',*,*,#120,.T.);
#122=CARTESIAN_POINT('',(4.7420152389552,3.7554253425546E-18,-4.1903994555634));
#123=VERTEX_POINT('',#122);
#124=CARTESIAN_POINT('',(-3.5527136788005E-15,7.5108506851092E-18,2.2204460492503E-15));
#125=DIRECTION('',(0.94813642698683,2.1912532033179E-33,-0.31786367489956));
#126=DIRECTION('',(-1.8983795466597E-33,1.,1.0960299422881E-33));
#127=AXIS2_PLACEMENT_3D('',#124,#126,#125);
#128=CIRCLE('',#127,6.3282032302755);
#129=EDGE_CURVE('',#115,#123,#128,.T.);
#130=ORIENTED_EDGE('',*,*,#129,.T.);
#131=CARTESIAN_POINT('',(4.7420152389552,3.7554253425546E-18,-4.1903994555634));
#132=DIRECTION('',(-0.86602540378444,-1.5740993261714E-21,-0.49999999999999));
#133=VECTOR('',#132,4.0230118685728);
#134=LINE('',#131,#133);
#135=EDGE_CURVE('',#123,#36,#134,.T.);
#136=ORIENTED_EDGE('',*,*,#135,.T.);
#137=EDGE_LOOP('',(#45,#53,#62,#70,#79,#87,#96,#104,#113,#121,#130,#136));
#138=FACE_OUTER_BOUND('',#137,.T.);
#139=CARTESIAN_POINT('',(4.0792946741241E-16,1.1102230246252E-15,1.65));
#140=VERTEX_POINT('',#139);
#141=CARTESIAN_POINT('',(4.864340903466E-16,1.6462861212869E-15,-2.4424906541753E-15));
#142=DIRECTION('',(-4.7578559354054E-17,-3.2488672524957E-16,1.));
#143=DIRECTION('',(-8.6317667658298E-16,-1.,-3.2488672524957E-16));
#144=AXIS2_PLACEMENT_3D('',#141,#143,#142);
#145=CIRCLE('',#144,1.65);
#146=EDGE_CURVE('',#140,#140,#145,.T.);
#147=ORIENTED_EDGE('',*,*,#146,.T.);
#148=EDGE_LOOP('',(#147));
#149=FACE_BOUND('',#148,.T.);
#150=ADVANCED_FACE('',(#138,#149),#34,.T.);
#151=CARTESIAN_POINT('',(0.,-5.7,0.));
#152=DIRECTION('',(1.,0.,0.));
#153=DIRECTION('',(0.,-1.,0.));
#154=AXIS2_PLACEMENT_3D('',#151,#153,#152);
#155=PLANE('',#154);
#156=CARTESIAN_POINT('',(-2.5,-5.7,2.2418773678547E-16));
#157=VERTEX_POINT('',#156);
#158=CARTESIAN_POINT('',(3.1086244689504E-15,-5.7,-1.6599232136351E-15));
#159=DIRECTION('',(-1.,2.512147933894E-16,7.5364438016821E-16));
#160=DIRECTION('',(-2.512147933894E-16,-1.,-2.512147933894E-16));
#161=AXIS2_PLACEMENT_3D('',#158,#160,#159);
#162=CIRCLE('',#161,2.5);
#163=EDGE_CURVE('',#157,#157,#162,.T.);
#164=ORIENTED_EDGE('',*,*,#163,.T.);
#165=EDGE_LOOP('',(#164));
#166=FACE_OUTER_BOUND('',#165,.T.);
#167=CARTESIAN_POINT('',(-8.8817841970013E-16,-5.7,1.65));
#168=VERTEX_POINT('',#167);
#169=CARTESIAN_POINT('',(-8.8817841970013E-16,-5.7,-1.5543122344752E-15));
#170=DIRECTION('',(-0.,-0.,1.));
#171=DIRECTION('',(-0.,1.,0.));
#172=AXIS2_PLACEMENT_3D('',#169,#171,#170);
#173=CIRCLE('',#172,1.65);
#174=EDGE_CURVE('',#168,#168,#173,.T.);
#175=ORIENTED_EDGE('',*,*,#174,.T.);
#176=EDGE_LOOP('',(#175));
#177=FACE_BOUND('',#176,.T.);
#178=ADVANCED_FACE('',(#166,#177),#155,.T.);
#179=CARTESIAN_POINT('',(3.,-3.25,5.1961524227066));
#180=DIRECTION('',(-0.86602540378444,0.,0.5));
#181=DIRECTION('',(0.5,0.,0.86602540378444));
#182=AXIS2_PLACEMENT_3D('',#179,#181,#180);
#183=PLANE('',#182);
#184=CARTESIAN_POINT('',(-3.9968028886506E-15,-6.5,6.9282032302755));
#185=VERTEX_POINT('',#184);
#186=CARTESIAN_POINT('',(6.,-6.5,3.4641016151378));
#187=VERTEX_POINT('',#186);
#188=CARTESIAN_POINT('',(-3.9968028886506E-15,-6.5,6.9282032302755));
#189=DIRECTION('',(0.86602540378444,0.,-0.49999999999999));
#190=VECTOR('',#189,6.9282032302755);
#191=LINE('',#188,#190);
#192=EDGE_CURVE('',#185,#187,#191,.T.);
#193=ORIENTED_EDGE('',*,*,#192,.T.);
#194=CARTESIAN_POINT('',(6.,-0.5,3.4641016151378));
#195=VERTEX_POINT('',#194);
#196=CARTESIAN_POINT('',(6.,-6.5,3.4641016151378));
#197=DIRECTION('',(0.,1.,0.));
#198=VECTOR('',#197,6.);
#199=LINE('',#196,#198);
#200=EDGE_CURVE('',#187,#195,#199,.T.);
#201=ORIENTED_EDGE('',*,*,#200,.T.);
#202=CARTESIAN_POINT('',(6.,-0.5,3.4641016151377));
#203=CARTESIAN_POINT('',(5.3425387105439,-0.18367878962563,3.843687067587));
#204=CARTESIAN_POINT('',(4.7420152389552,0.,4.1903994555634));
#205=(BOUNDED_CURVE()B_SPLINE_CURVE(2,(#202,#203,#204),.HYPERBOLIC_ARC.,.F.,.U.)B_SPLINE_CURVE_WITH_KNOTS((3,3),(0.,1.),.UNSPECIFIED.)CURVE()GEOMETRIC_REPRESENTATION_ITEM()RATIONAL_B_SPLINE_CURVE((1.,1.030249184346,1.0486688926839))REPRESENTATION_ITEM(''));
#206=EDGE_CURVE('',#195,#98,#205,.T.);
#207=ORIENTED_EDGE('',*,*,#206,.T.);
#208=ORIENTED_EDGE('',*,*,#103,.F.);
#209=CARTESIAN_POINT('',(-5.519254741926E-15,-0.5,6.9282032302755));
#210=VERTEX_POINT('',#209);
#211=CARTESIAN_POINT('',(1.2579847610448,0.,6.2019053898498));
#212=CARTESIAN_POINT('',(0.65746128945611,-0.18367878962563,6.5486177778263));
#213=CARTESIAN_POINT('',(-5.3290705182008E-15,-0.5,6.9282032302755));
#214=(BOUNDED_CURVE()B_SPLINE_CURVE(2,(#211,#212,#213),.HYPERBOLIC_ARC.,.F.,.U.)B_SPLINE_CURVE_WITH_KNOTS((3,3),(0.,1.),.UNSPECIFIED.)CURVE()GEOMETRIC_REPRESENTATION_ITEM()RATIONAL_B_SPLINE_CURVE((1.0486688926839,1.030249184346,1.))REPRESENTATION_ITEM(''));
#215=EDGE_CURVE('',#89,#210,#214,.T.);
#216=ORIENTED_EDGE('',*,*,#215,.T.);
#217=CARTESIAN_POINT('',(-5.519254741926E-15,-0.5,6.9282032302755));
#218=DIRECTION('',(2.537419755459E-16,-1.,0.));
#219=VECTOR('',#218,6.);
#220=LINE('',#217,#219);
#221=EDGE_CURVE('',#210,#185,#220,.T.);
#222=ORIENTED_EDGE('',*,*,#221,.T.);
#223=EDGE_LOOP('',(#193,#201,#207,#208,#216,#222));
#224=FACE_OUTER_BOUND('',#223,.T.);
#225=ADVANCED_FACE('',(#224),#183,.T.);
#226=CARTESIAN_POINT('',(-3.,-3.25,5.1961524227066));
#227=DIRECTION('',(-0.86602540378444,0.,-0.5));
#228=DIRECTION('',(-0.5,0.,0.86602540378444));
#229=AXIS2_PLACEMENT_3D('',#226,#228,#227);
#230=PLANE('',#229);
#231=CARTESIAN_POINT('',(-6.,-6.5,3.4641016151378));
#232=VERTEX_POINT('',#231);
#233=CARTESIAN_POINT('',(-6.,-6.5,3.4641016151378));
#234=DIRECTION('',(0.86602540378444,0.,0.49999999999999));
#235=VECTOR('',#234,6.9282032302755);
#236=LINE('',#233,#235);
#237=EDGE_CURVE('',#232,#185,#236,.T.);
#238=ORIENTED_EDGE('',*,*,#237,.T.);
#239=ORIENTED_EDGE('',*,*,#221,.F.);
#240=CARTESIAN_POINT('',(-1.3322676295502E-15,-0.5,6.9282032302755));
#241=CARTESIAN_POINT('',(-0.65746128945612,-0.18367878962563,6.5486177778263));
#242=CARTESIAN_POINT('',(-1.2579847610448,4.234789578944E-16,6.2019053898498));
#243=(BOUNDED_CURVE()B_SPLINE_CURVE(2,(#240,#241,#242),.HYPERBOLIC_ARC.,.F.,.U.)B_SPLINE_CURVE_WITH_KNOTS((3,3),(0.,1.),.UNSPECIFIED.)CURVE()GEOMETRIC_REPRESENTATION_ITEM()RATIONAL_B_SPLINE_CURVE((1.,1.030249184346,1.0486688926839))REPRESENTATION_ITEM(''));
#244=EDGE_CURVE('',#210,#81,#243,.T.);
#245=ORIENTED_EDGE('',*,*,#244,.T.);
#246=ORIENTED_EDGE('',*,*,#86,.F.);
#247=CARTESIAN_POINT('',(-6.,-0.5,3.4641016151378));
#248=VERTEX_POINT('',#247);
#249=CARTESIAN_POINT('',(-4.7420152389552,4.234789578944E-16,4.1903994555634));
#250=CARTESIAN_POINT('',(-5.3425387105439,-0.18367878962563,3.843687067587));
#251=CARTESIAN_POINT('',(-6.,-0.5,3.4641016151378));
#252=(BOUNDED_CURVE()B_SPLINE_CURVE(2,(#249,#250,#251),.HYPERBOLIC_ARC.,.F.,.U.)B_SPLINE_CURVE_WITH_KNOTS((3,3),(0.,1.),.UNSPECIFIED.)CURVE()GEOMETRIC_REPRESENTATION_ITEM()RATIONAL_B_SPLINE_CURVE((1.0486688926839,1.030249184346,1.))REPRESENTATION_ITEM(''));
#253=EDGE_CURVE('',#72,#248,#252,.T.);
#254=ORIENTED_EDGE('',*,*,#253,.T.);
#255=CARTESIAN_POINT('',(-6.,-0.5,3.4641016151378));
#256=DIRECTION('',(0.,-1.,0.));
#257=VECTOR('',#256,6.);
#258=LINE('',#255,#257);
#259=EDGE_CURVE('',#248,#232,#258,.T.);
#260=ORIENTED_EDGE('',*,*,#259,.T.);
#261=EDGE_LOOP('',(#238,#239,#245,#246,#254,#260));
#262=FACE_OUTER_BOUND('',#261,.T.);
#263=ADVANCED_FACE('',(#262),#230,.T.);
#264=CARTESIAN_POINT('',(-6.,-3.25,-2.2204460492503E-15));
#265=DIRECTION('',(5.1279004970228E-16,0.,-1.));
#266=DIRECTION('',(-1.,-0.,-5.1279004970228E-16));
#267=AXIS2_PLACEMENT_3D('',#264,#266,#265);
#268=PLANE('',#267);
#269=CARTESIAN_POINT('',(-6.,-6.5,-3.4641016151378));
#270=VERTEX_POINT('',#269);
#271=CARTESIAN_POINT('',(-6.,-6.5,-3.4641016151378));
#272=DIRECTION('',(0.,0.,1.));
#273=VECTOR('',#272,6.9282032302756);
#274=LINE('',#271,#273);
#275=EDGE_CURVE('',#270,#232,#274,.T.);
#276=ORIENTED_EDGE('',*,*,#275,.T.);
#277=ORIENTED_EDGE('',*,*,#259,.F.);
#278=CARTESIAN_POINT('',(-6.,-0.5,3.4641016151377));
#279=CARTESIAN_POINT('',(-6.,-0.18367878962563,2.7049307102393));
#280=CARTESIAN_POINT('',(-6.,4.234789578944E-16,2.0115059342864));
#281=(BOUNDED_CURVE()B_SPLINE_CURVE(2,(#278,#279,#280),.HYPERBOLIC_ARC.,.F.,.U.)B_SPLINE_CURVE_WITH_KNOTS((3,3),(0.,1.),.UNSPECIFIED.)CURVE()GEOMETRIC_REPRESENTATION_ITEM()RATIONAL_B_SPLINE_CURVE((1.,1.030249184346,1.0486688926839))REPRESENTATION_ITEM(''));
#282=EDGE_CURVE('',#248,#64,#281,.T.);
#283=ORIENTED_EDGE('',*,*,#282,.T.);
#284=ORIENTED_EDGE('',*,*,#69,.F.);
#285=CARTESIAN_POINT('',(-6.,-0.5,-3.4641016151378));
#286=VERTEX_POINT('',#285);
#287=CARTESIAN_POINT('',(-6.,4.234789578944E-16,-2.0115059342864));
#288=CARTESIAN_POINT('',(-6.,-0.18367878962563,-2.7049307102393));
#289=CARTESIAN_POINT('',(-6.,-0.5,-3.4641016151377));
#290=(BOUNDED_CURVE()B_SPLINE_CURVE(2,(#287,#288,#289),.HYPERBOLIC_ARC.,.F.,.U.)B_SPLINE_CURVE_WITH_KNOTS((3,3),(0.,1.),.UNSPECIFIED.)CURVE()GEOMETRIC_REPRESENTATION_ITEM()RATIONAL_B_SPLINE_CURVE((1.0486688926839,1.030249184346,1.))REPRESENTATION_ITEM(''));
#291=EDGE_CURVE('',#55,#286,#290,.T.);
#292=ORIENTED_EDGE('',*,*,#291,.T.);
#293=CARTESIAN_POINT('',(-6.,-0.5,-3.4641016151378));
#294=DIRECTION('',(0.,-1.,0.));
#295=VECTOR('',#294,6.);
#296=LINE('',#293,#295);
#297=EDGE_CURVE('',#286,#270,#296,.T.);
#298=ORIENTED_EDGE('',*,*,#297,.T.);
#299=EDGE_LOOP('',(#276,#277,#283,#284,#292,#298));
#300=FACE_OUTER_BOUND('',#299,.T.);
#301=ADVANCED_FACE('',(#300),#268,.T.);
#302=CARTESIAN_POINT('',(-3.,-3.25,-5.1961524227066));
#303=DIRECTION('',(0.86602540378444,0.,-0.5));
#304=DIRECTION('',(-0.5,-0.,-0.86602540378444));
#305=AXIS2_PLACEMENT_3D('',#302,#304,#303);
#306=PLANE('',#305);
#307=CARTESIAN_POINT('',(1.3322676295502E-15,-6.5,-6.9282032302755));
#308=VERTEX_POINT('',#307);
#309=CARTESIAN_POINT('',(1.3322676295502E-15,-6.5,-6.9282032302755));
#310=DIRECTION('',(-0.86602540378444,0.,0.49999999999999));
#311=VECTOR('',#310,6.9282032302755);
#312=LINE('',#309,#311);
#313=EDGE_CURVE('',#308,#270,#312,.T.);
#314=ORIENTED_EDGE('',*,*,#313,.T.);
#315=ORIENTED_EDGE('',*,*,#297,.F.);
#316=CARTESIAN_POINT('',(-6.,-0.5,-3.4641016151378));
#317=CARTESIAN_POINT('',(-5.3425387105439,-0.18367878962563,-3.843687067587));
#318=CARTESIAN_POINT('',(-4.7420152389551,-8.4695791578879E-16,-4.1903994555635));
#319=(BOUNDED_CURVE()B_SPLINE_CURVE(2,(#316,#317,#318),.HYPERBOLIC_ARC.,.F.,.U.)B_SPLINE_CURVE_WITH_KNOTS((3,3),(0.,1.),.UNSPECIFIED.)CURVE()GEOMETRIC_REPRESENTATION_ITEM()RATIONAL_B_SPLINE_CURVE((1.,1.030249184346,1.0486688926839))REPRESENTATION_ITEM(''));
#320=EDGE_CURVE('',#286,#47,#319,.T.);
#321=ORIENTED_EDGE('',*,*,#320,.T.);
#322=ORIENTED_EDGE('',*,*,#52,.F.);
#323=CARTESIAN_POINT('',(1.7763568394003E-15,-0.5,-6.9282032302755));
#324=VERTEX_POINT('',#323);
#325=CARTESIAN_POINT('',(-1.2579847610448,4.234789578944E-16,-6.2019053898498));
#326=CARTESIAN_POINT('',(-0.65746128945612,-0.18367878962563,-6.5486177778263));
#327=CARTESIAN_POINT('',(4.4408920985006E-16,-0.5,-6.9282032302755));
#328=(BOUNDED_CURVE()B_SPLINE_CURVE(2,(#325,#326,#327),.HYPERBOLIC_ARC.,.F.,.U.)B_SPLINE_CURVE_WITH_KNOTS((3,3),(0.,1.),.UNSPECIFIED.)CURVE()GEOMETRIC_REPRESENTATION_ITEM()RATIONAL_B_SPLINE_CURVE((1.0486688926839,1.030249184346,1.))REPRESENTATION_ITEM(''));
#329=EDGE_CURVE('',#38,#324,#328,.T.);
#330=ORIENTED_EDGE('',*,*,#329,.T.);
#331=CARTESIAN_POINT('',(1.7763568394003E-15,-0.5,-6.9282032302755));
#332=DIRECTION('',(-7.401486830835E-17,-1.,0.));
#333=VECTOR('',#332,6.);
#334=LINE('',#331,#333);
#335=EDGE_CURVE('',#324,#308,#334,.T.);
#336=ORIENTED_EDGE('',*,*,#335,.T.);
#337=EDGE_LOOP('',(#314,#315,#321,#322,#330,#336));
#338=FACE_OUTER_BOUND('',#337,.T.);
#339=ADVANCED_FACE('',(#338),#306,.T.);
#340=CARTESIAN_POINT('',(3.,-3.25,-5.1961524227066));
#341=DIRECTION('',(0.86602540378444,0.,0.5));
#342=DIRECTION('',(0.5,0.,-0.86602540378444));
#343=AXIS2_PLACEMENT_3D('',#340,#342,#341);
#344=PLANE('',#343);
#345=CARTESIAN_POINT('',(6.,-6.5,-3.4641016151378));
#346=VERTEX_POINT('',#345);
#347=CARTESIAN_POINT('',(6.,-6.5,-3.4641016151378));
#348=DIRECTION('',(-0.86602540378444,0.,-0.49999999999999));
#349=VECTOR('',#348,6.9282032302755);
#350=LINE('',#347,#349);
#351=EDGE_CURVE('',#346,#308,#350,.T.);
#352=ORIENTED_EDGE('',*,*,#351,.T.);
#353=ORIENTED_EDGE('',*,*,#335,.F.);
#354=CARTESIAN_POINT('',(3.5527136788005E-15,-0.5,-6.9282032302755));
#355=CARTESIAN_POINT('',(0.65746128945612,-0.18367878962563,-6.5486177778263));
#356=CARTESIAN_POINT('',(1.2579847610448,-8.4695791578879E-16,-6.2019053898498));
#357=(BOUNDED_CURVE()B_SPLINE_CURVE(2,(#354,#355,#356),.HYPERBOLIC_ARC.,.F.,.U.)B_SPLINE_CURVE_WITH_KNOTS((3,3),(0.,1.),.UNSPECIFIED.)CURVE()GEOMETRIC_REPRESENTATION_ITEM()RATIONAL_B_SPLINE_CURVE((1.,1.030249184346,1.0486688926839))REPRESENTATION_ITEM(''));
#358=EDGE_CURVE('',#324,#36,#357,.T.);
#359=ORIENTED_EDGE('',*,*,#358,.T.);
#360=ORIENTED_EDGE('',*,*,#135,.F.);
#361=CARTESIAN_POINT('',(6.,-0.5,-3.4641016151378));
#362=VERTEX_POINT('',#361);
#363=CARTESIAN_POINT('',(4.7420152389552,-4.234789578944E-16,-4.1903994555634));
#364=CARTESIAN_POINT('',(5.3425387105439,-0.18367878962563,-3.843687067587));
#365=CARTESIAN_POINT('',(6.,-0.5,-3.4641016151377));
#366=(BOUNDED_CURVE()B_SPLINE_CURVE(2,(#363,#364,#365),.HYPERBOLIC_ARC.,.F.,.U.)B_SPLINE_CURVE_WITH_KNOTS((3,3),(0.,1.),.UNSPECIFIED.)CURVE()GEOMETRIC_REPRESENTATION_ITEM()RATIONAL_B_SPLINE_CURVE((1.0486688926839,1.030249184346,1.))REPRESENTATION_ITEM(''));
#367=EDGE_CURVE('',#123,#362,#366,.T.);
#368=ORIENTED_EDGE('',*,*,#367,.T.);
#369=CARTESIAN_POINT('',(6.,-0.5,-3.4641016151378));
#370=DIRECTION('',(0.,-1.,0.));
#371=VECTOR('',#370,6.);
#372=LINE('',#369,#371);
#373=EDGE_CURVE('',#362,#346,#372,.T.);
#374=ORIENTED_EDGE('',*,*,#373,.T.);
#375=EDGE_LOOP('',(#352,#353,#359,#360,#368,#374));
#376=FACE_OUTER_BOUND('',#375,.T.);
#377=ADVANCED_FACE('',(#376),#344,.T.);
#378=CARTESIAN_POINT('',(6.,-3.25,0.));
#379=DIRECTION('',(0.,0.,1.));
#380=DIRECTION('',(1.,0.,-0.));
#381=AXIS2_PLACEMENT_3D('',#378,#380,#379);
#382=PLANE('',#381);
#383=CARTESIAN_POINT('',(6.,-6.5,3.4641016151378));
#384=DIRECTION('',(0.,0.,-1.));
#385=VECTOR('',#384,6.9282032302756);
#386=LINE('',#383,#385);
#387=EDGE_CURVE('',#187,#346,#386,.T.);
#388=ORIENTED_EDGE('',*,*,#387,.T.);
#389=ORIENTED_EDGE('',*,*,#373,.F.);
#390=CARTESIAN_POINT('',(6.,-0.5,-3.4641016151378));
#391=CARTESIAN_POINT('',(6.,-0.18367878962563,-2.7049307102393));
#392=CARTESIAN_POINT('',(6.,-8.4695791578879E-16,-2.0115059342864));
#393=(BOUNDED_CURVE()B_SPLINE_CURVE(2,(#390,#391,#392),.HYPERBOLIC_ARC.,.F.,.U.)B_SPLINE_CURVE_WITH_KNOTS((3,3),(0.,1.),.UNSPECIFIED.)CURVE()GEOMETRIC_REPRESENTATION_ITEM()RATIONAL_B_SPLINE_CURVE((1.,1.030249184346,1.0486688926839))REPRESENTATION_ITEM(''));
#394=EDGE_CURVE('',#362,#115,#393,.T.);
#395=ORIENTED_EDGE('',*,*,#394,.T.);
#396=ORIENTED_EDGE('',*,*,#120,.F.);
#397=CARTESIAN_POINT('',(6.,-8.4695791578879E-16,2.0115059342864));
#398=CARTESIAN_POINT('',(6.,-0.18367878962563,2.7049307102393));
#399=CARTESIAN_POINT('',(6.,-0.5,3.4641016151378));
#400=(BOUNDED_CURVE()B_SPLINE_CURVE(2,(#397,#398,#399),.HYPERBOLIC_ARC.,.F.,.U.)B_SPLINE_CURVE_WITH_KNOTS((3,3),(0.,1.),.UNSPECIFIED.)CURVE()GEOMETRIC_REPRESENTATION_ITEM()RATIONAL_B_SPLINE_CURVE((1.0486688926839,1.030249184346,1.))REPRESENTATION_ITEM(''));
#401=EDGE_CURVE('',#106,#195,#400,.T.);
#402=ORIENTED_EDGE('',*,*,#401,.T.);
#403=ORIENTED_EDGE('',*,*,#200,.F.);
#404=EDGE_LOOP('',(#388,#389,#395,#396,#402,#403));
#405=FACE_OUTER_BOUND('',#404,.T.);
#406=ADVANCED_FACE('',(#405),#382,.T.);
#407=CARTESIAN_POINT('',(4.4408920985006E-15,5.2735026918963,-6.6613381477509E-16));
#408=DIRECTION('',(-0.86602540378443,0.,-0.50000000000001));
#409=DIRECTION('',(-0.,-1.,-0.));
#410=AXIS2_PLACEMENT_3D('',#407,#409,#408);
#411=CONICAL_SURFACE('',#410,0.,0.87605805059819);
#412=ORIENTED_EDGE('',*,*,#112,.F.);
#413=ORIENTED_EDGE('',*,*,#206,.F.);
#414=ORIENTED_EDGE('',*,*,#401,.F.);
#415=EDGE_LOOP('',(#412,#413,#414));
#416=FACE_OUTER_BOUND('',#415,.T.);
#417=ADVANCED_FACE('',(#416),#411,.T.);
#418=CARTESIAN_POINT('',(4.4408920985006E-15,5.2735026918963,-6.6613381477509E-16));
#419=DIRECTION('',(1.0263014277178E-15,-2.7483700086253E-17,-1.));
#420=DIRECTION('',(8.5785432195513E-17,-1.,2.7483700086253E-17));
#421=AXIS2_PLACEMENT_3D('',#418,#420,#419);
#422=CONICAL_SURFACE('',#421,0.,0.87605805059819);
#423=ORIENTED_EDGE('',*,*,#95,.F.);
#424=ORIENTED_EDGE('',*,*,#244,.F.);
#425=ORIENTED_EDGE('',*,*,#215,.F.);
#426=EDGE_LOOP('',(#423,#424,#425));
#427=FACE_OUTER_BOUND('',#426,.T.);
#428=ADVANCED_FACE('',(#427),#422,.T.);
#429=CARTESIAN_POINT('',(4.4408920985006E-15,5.2735026918963,-6.6613381477509E-16));
#430=DIRECTION('',(0.86602540377995,1.3251732069291E-16,-0.50000000000778));
#431=DIRECTION('',(1.3475372786357E-16,-1.,-3.1634338217528E-17));
#432=AXIS2_PLACEMENT_3D('',#429,#431,#430);
#433=CONICAL_SURFACE('',#432,0.,0.87605805059819);
#434=ORIENTED_EDGE('',*,*,#78,.F.);
#435=ORIENTED_EDGE('',*,*,#282,.F.);
#436=ORIENTED_EDGE('',*,*,#253,.F.);
#437=EDGE_LOOP('',(#434,#435,#436));
#438=FACE_OUTER_BOUND('',#437,.T.);
#439=ADVANCED_FACE('',(#438),#433,.T.);
#440=CARTESIAN_POINT('',(4.4408920985006E-15,5.2735026918963,-6.6613381477509E-16));
#441=DIRECTION('',(0.86602540378444,0.,0.50000000000001));
#442=DIRECTION('',(-0.,-1.,-0.));
#443=AXIS2_PLACEMENT_3D('',#440,#442,#441);
#444=CONICAL_SURFACE('',#443,0.,0.87605805059819);
#445=ORIENTED_EDGE('',*,*,#61,.F.);
#446=ORIENTED_EDGE('',*,*,#320,.F.);
#447=ORIENTED_EDGE('',*,*,#291,.F.);
#448=EDGE_LOOP('',(#445,#446,#447));
#449=FACE_OUTER_BOUND('',#448,.T.);
#450=ADVANCED_FACE('',(#449),#444,.T.);
#451=CARTESIAN_POINT('',(7.8825834748386E-15,5.2735026918962,-1.2168044349892E-13));
#452=DIRECTION('',(1.057711648148E-15,1.4538306303907E-16,1.));
#453=DIRECTION('',(2.3836960575943E-16,-1.,1.4538306303907E-16));
#454=AXIS2_PLACEMENT_3D('',#451,#453,#452);
#455=CONICAL_SURFACE('',#454,0.,0.87605805059819);
#456=ORIENTED_EDGE('',*,*,#329,.F.);
#457=ORIENTED_EDGE('',*,*,#44,.F.);
#458=ORIENTED_EDGE('',*,*,#358,.F.);
#459=EDGE_LOOP('',(#456,#457,#458));
#460=FACE_OUTER_BOUND('',#459,.T.);
#461=ADVANCED_FACE('',(#460),#455,.T.);
#462=CARTESIAN_POINT('',(4.4408920985006E-15,5.2735026918963,-6.6613381477509E-16));
#463=DIRECTION('',(-0.86602540378444,0.,0.5));
#464=DIRECTION('',(-0.,-1.,-0.));
#465=AXIS2_PLACEMENT_3D('',#462,#464,#463);
#466=CONICAL_SURFACE('',#465,0.,0.87605805059819);
#467=ORIENTED_EDGE('',*,*,#129,.F.);
#468=ORIENTED_EDGE('',*,*,#394,.F.);
#469=ORIENTED_EDGE('',*,*,#367,.F.);
#470=EDGE_LOOP('',(#467,#468,#469));
#471=FACE_OUTER_BOUND('',#470,.T.);
#472=ADVANCED_FACE('',(#471),#466,.T.);
#473=CARTESIAN_POINT('',(-2.2742750443837E-15,-10.,1.65));
#474=CARTESIAN_POINT('',(1.65,-10.,1.65));
#475=CARTESIAN_POINT('',(1.65,-10.,2.2624822217785E-15));
#476=CARTESIAN_POINT('',(1.65,-10.,-1.65));
#477=CARTESIAN_POINT('',(-2.0722083225243E-15,-10.,-1.65));
#478=CARTESIAN_POINT('',(-1.65,-10.,-1.65));
#479=CARTESIAN_POINT('',(-1.65,-10.,1.8583487780598E-15));
#480=CARTESIAN_POINT('',(-1.65,-10.,1.65));
#481=CARTESIAN_POINT('',(-2.2742750443837E-15,-10.,1.65));
#482=CARTESIAN_POINT('',(8.2089217578345E-16,1.5,1.65));
#483=CARTESIAN_POINT('',(1.65,1.5,1.65));
#484=CARTESIAN_POINT('',(1.65,1.5,-8.3268499838864E-16));
#485=CARTESIAN_POINT('',(1.65,1.5,-1.65));
#486=CARTESIAN_POINT('',(1.0229588976428E-15,1.5,-1.65));
#487=CARTESIAN_POINT('',(-1.65,1.5,-1.65));
#488=CARTESIAN_POINT('',(-1.65,1.5,-1.2368184421073E-15));
#489=CARTESIAN_POINT('',(-1.65,1.5,1.65));
#490=CARTESIAN_POINT('',(8.2089217578345E-16,1.5,1.65));
#491=(BOUNDED_SURFACE()B_SPLINE_SURFACE(1,2,((#473,#474,#475,#476,#477,#478,#479,#480,#481),(#482,#483,#484,#485,#486,#487,#488,#489,#490)),.UNSPECIFIED.,.F.,.T.,.U.)B_SPLINE_SURFACE_WITH_KNOTS((2,2),(3,2,2,2,3),(-0.4375,1.),(0.,0.25,0.5,0.75,1.),.UNSPECIFIED.)GEOMETRIC_REPRESENTATION_ITEM()RATIONAL_B_SPLINE_SURFACE(((1.,0.70710678118655,1.,0.70710678118655,1.,0.70710678118655,1.,0.70710678118655,1.),(1.,0.70710678118655,1.,0.70710678118655,1.,0.70710678118655,1.,0.70710678118655,1.)))REPRESENTATION_ITEM('')SURFACE());
#492=ORIENTED_EDGE('',*,*,#146,.F.);
#493=CARTESIAN_POINT('',(4.0792946741241E-16,1.1102230246252E-15,1.65));
#494=DIRECTION('',(-2.2738734861624E-16,-1.,0.));
#495=VECTOR('',#494,5.7);
#496=LINE('',#493,#495);
#497=EDGE_CURVE('',#140,#168,#496,.T.);
#498=ORIENTED_EDGE('',*,*,#497,.T.);
#499=ORIENTED_EDGE('',*,*,#174,.F.);
#500=ORIENTED_EDGE('',*,*,#497,.F.);
#501=EDGE_LOOP('',(#492,#498,#499,#500));
#502=FACE_OUTER_BOUND('',#501,.T.);
#503=ADVANCED_FACE('',(#502),#491,.T.);
#504=CARTESIAN_POINT('',(2.6794919243112,-6.5,3.5527136788005E-15));
#505=DIRECTION('',(-1.,0.,-1.4234208012425E-16));
#506=DIRECTION('',(0.,1.,0.));
#507=AXIS2_PLACEMENT_3D('',#504,#506,#505);
#508=PLANE('',#507);
#509=CARTESIAN_POINT('',(-9.8,-6.5,-1.2356809999524E-15));
#510=VERTEX_POINT('',#509);
#511=CARTESIAN_POINT('',(8.8817841970013E-15,-6.5,-1.8637179834259E-15));
#512=DIRECTION('',(-1.,-9.6128109715333E-17,6.4085406476889E-17));
#513=DIRECTION('',(-9.6128109715333E-17,1.,9.6128109715333E-17));
#514=AXIS2_PLACEMENT_3D('',#511,#513,#512);
#515=CIRCLE('',#514,9.8);
#516=EDGE_CURVE('',#510,#510,#515,.T.);
#517=ORIENTED_EDGE('',*,*,#516,.T.);
#518=EDGE_LOOP('',(#517));
#519=FACE_OUTER_BOUND('',#518,.T.);
#520=ORIENTED_EDGE('',*,*,#313,.F.);
#521=ORIENTED_EDGE('',*,*,#351,.F.);
#522=ORIENTED_EDGE('',*,*,#387,.F.);
#523=ORIENTED_EDGE('',*,*,#192,.F.);
#524=ORIENTED_EDGE('',*,*,#237,.F.);
#525=ORIENTED_EDGE('',*,*,#275,.F.);
#526=EDGE_LOOP('',(#520,#521,#522,#523,#524,#525));
#527=FACE_BOUND('',#526,.T.);
#528=ADVANCED_FACE('',(#519,#527),#508,.T.);
#529=CARTESIAN_POINT('',(-6.1874921777191,-14.4,8.8039938256368));
#530=DIRECTION('',(2.1316282072803E-15,-1.,-1.4210854715202E-15));
#531=DIRECTION('',(-5.7277236185569E-16,-5.7277236185569E-16,-1.));
#532=AXIS2_PLACEMENT_3D('',#529,#531,#530);
#533=CYLINDRICAL_SURFACE('',#532,1.25);
#534=CARTESIAN_POINT('',(-6.1874921777191,-15.65,-0.5));
#535=VERTEX_POINT('',#534);
#536=CARTESIAN_POINT('',(-6.1874921777191,-15.65,7.8558857266786));
#537=VERTEX_POINT('',#536);
#538=CARTESIAN_POINT('',(-6.1874921777191,-15.65,-0.5));
#539=DIRECTION('',(-6.3776249370981E-16,-2.1258749790327E-16,1.));
#540=VECTOR('',#539,8.3558857266786);
#541=LINE('',#538,#540);
#542=EDGE_CURVE('',#535,#537,#541,.T.);
#543=ORIENTED_EDGE('',*,*,#542,.F.);
#544=CARTESIAN_POINT('',(-6.1874921777191,-14.4,-0.5));
#545=DIRECTION('',(2.8421709430404E-15,-1.,-4.4408920985006E-17));
#546=DIRECTION('',(-5.98255057986E-16,-9.8686491077828E-18,-1.));
#547=AXIS2_PLACEMENT_3D('',#544,#546,#545);
#548=CIRCLE('',#547,1.25);
#549=EDGE_CURVE('',#535,#535,#548,.T.);
#550=ORIENTED_EDGE('',*,*,#549,.F.);
#551=ORIENTED_EDGE('',*,*,#542,.T.);
#552=CARTESIAN_POINT('',(-6.1874921777191,-15.65,7.8558857266807));
#553=CARTESIAN_POINT('',(-6.3634830059632,-15.65,7.7172709465022));
#554=CARTESIAN_POINT('',(-6.8774816131869,-15.538498022146,7.2836848162863));
#555=CARTESIAN_POINT('',(-7.3177493706755,-15.103740477153,6.8168859129472));
#556=CARTESIAN_POINT('',(-7.5265388222939,-14.101216813723,6.586403393407));
#557=CARTESIAN_POINT('',(-7.2542143287217,-13.615039552548,6.9010946675212));
#558=CARTESIAN_POINT('',(-6.5220131030091,-13.11453690755,7.5977234367554));
#559=CARTESIAN_POINT('',(-6.0153965860444,-13.065020144144,8.005700989857));
#560=CARTESIAN_POINT('',(-5.1288583213803,-13.558843794913,8.6017032065074));
#561=CARTESIAN_POINT('',(-4.8330342557214,-14.112289336427,8.7559933929781));
#562=CARTESIAN_POINT('',(-5.0735317750325,-15.115001647119,8.6181772106517));
#563=CARTESIAN_POINT('',(-5.5130075529607,-15.551358607546,8.3616945063464));
#564=CARTESIAN_POINT('',(-6.0219615558007,-15.65,7.9862617866092));
#565=CARTESIAN_POINT('',(-6.1874921777191,-15.65,7.8558857266807));
#566=B_SPLINE_CURVE_WITH_KNOTS('',3,(#552,#553,#554,#555,#556,#557,#558,#559,#560,#561,#562,#563,#564,#565),.UNSPECIFIED.,.T.,.U.,(4,1,2,2,2,2,1,4),(0.,0.3333333333333,1.,1.8222622104522,2.6662587484362,3.5376757585866,4.1747250131508,4.4932496404329),.UNSPECIFIED.);
#567=EDGE_CURVE('',#537,#537,#566,.T.);
#568=ORIENTED_EDGE('',*,*,#567,.T.);
#569=EDGE_LOOP('',(#543,#550,#551,#568));
#570=FACE_OUTER_BOUND('',#569,.F.);
#571=ADVANCED_FACE('',(#570),#533,.F.);
#572=CARTESIAN_POINT('',(-6.1874921777191,-14.4,-0.5));
#573=DIRECTION('',(-1.1102230246252E-15,1.,-1.0408340855861E-16));
#574=DIRECTION('',(-4.4408920985006E-16,0.,-1.));
#575=AXIS2_PLACEMENT_3D('',#572,#574,#573);
#576=CYLINDRICAL_SURFACE('',#575,1.6);
#577=CARTESIAN_POINT('',(-6.1874921777191,-12.8,-0.5));
#578=VERTEX_POINT('',#577);
#579=CARTESIAN_POINT('',(-6.1874921777191,-14.4,-0.5));
#580=DIRECTION('',(8.3074831400487E-33,1.,1.5392229640031E-17));
#581=DIRECTION('',(-5.3971928267255E-16,1.5392229640031E-17,-1.));
#582=AXIS2_PLACEMENT_3D('',#579,#581,#580);
#583=CIRCLE('',#582,1.6);
#584=EDGE_CURVE('',#578,#578,#583,.T.);
#585=ORIENTED_EDGE('',*,*,#584,.F.);
#586=CARTESIAN_POINT('',(-6.1874921777191,-12.8,-4.5));
#587=VERTEX_POINT('',#586);
#588=CARTESIAN_POINT('',(-6.1874921777191,-12.8,-0.5));
#589=DIRECTION('',(0.,0.,-1.));
#590=VECTOR('',#589,4.);
#591=LINE('',#588,#590);
#592=EDGE_CURVE('',#578,#587,#591,.T.);
#593=ORIENTED_EDGE('',*,*,#592,.T.);
#594=CARTESIAN_POINT('',(-6.1874921777191,-14.4,-4.5));
#595=DIRECTION('',(-4.1822972268704E-31,1.,-4.2619627436478E-16));
#596=DIRECTION('',(-9.8130778667736E-16,-4.2619627436478E-16,-1.));
#597=AXIS2_PLACEMENT_3D('',#594,#596,#595);
#598=CIRCLE('',#597,1.6);
#599=EDGE_CURVE('',#587,#587,#598,.T.);
#600=ORIENTED_EDGE('',*,*,#599,.T.);
#601=ORIENTED_EDGE('',*,*,#592,.F.);
#602=EDGE_LOOP('',(#585,#593,#600,#601));
#603=FACE_OUTER_BOUND('',#602,.T.);
#604=ADVANCED_FACE('',(#603),#576,.F.);
#605=CARTESIAN_POINT('',(-3.2873656054256,-16.634296541761,-9.5));
#606=DIRECTION('',(-9.9380096050287E-17,1.,0.));
#607=DIRECTION('',(-1.,-9.9380096050287E-17,5.7731597280508E-16));
#608=AXIS2_PLACEMENT_3D('',#605,#607,#606);
#609=PLANE('',#608);
#610=CARTESIAN_POINT('',(-3.2873656054256,-14.4,-4.5));
#611=VERTEX_POINT('',#610);
#612=CARTESIAN_POINT('',(-3.2873656054256,-14.4,-9.2442166099823));
#613=VERTEX_POINT('',#612);
#614=CARTESIAN_POINT('',(-3.2873656054256,-14.4,-4.5));
#615=DIRECTION('',(0.,0.,-1.));
#616=VECTOR('',#615,4.7442166099823);
#617=LINE('',#614,#616);
#618=EDGE_CURVE('',#611,#613,#617,.T.);
#619=ORIENTED_EDGE('',*,*,#618,.T.);
#620=CARTESIAN_POINT('',(-3.2873656054256,-17.3,-9.2442166099823));
#621=VERTEX_POINT('',#620);
#622=CARTESIAN_POINT('',(-3.2873656054256,-14.4,-9.2442166099823));
#623=DIRECTION('',(0.,-1.,0.));
#624=VECTOR('',#623,2.9);
#625=LINE('',#622,#624);
#626=EDGE_CURVE('',#613,#621,#625,.T.);
#627=ORIENTED_EDGE('',*,*,#626,.T.);
#628=CARTESIAN_POINT('',(-3.2873656054256,-17.3,-4.5));
#629=VERTEX_POINT('',#628);
#630=CARTESIAN_POINT('',(-3.2873656054256,-17.3,-9.2442166099823));
#631=DIRECTION('',(0.,0.,1.));
#632=VECTOR('',#631,4.7442166099823);
#633=LINE('',#630,#632);
#634=EDGE_CURVE('',#621,#629,#633,.T.);
#635=ORIENTED_EDGE('',*,*,#634,.T.);
#636=CARTESIAN_POINT('',(-3.2873656054256,-17.3,-4.5));
#637=DIRECTION('',(0.,1.,0.));
#638=VECTOR('',#637,2.9);
#639=LINE('',#636,#638);
#640=EDGE_CURVE('',#629,#611,#639,.T.);
#641=ORIENTED_EDGE('',*,*,#640,.T.);
#642=EDGE_LOOP('',(#619,#627,#635,#641));
#643=FACE_OUTER_BOUND('',#642,.T.);
#644=ADVANCED_FACE('',(#643),#609,.T.);
#645=CARTESIAN_POINT('',(-6.1874921777191,-14.4,-4.5));
#646=DIRECTION('',(4.3644580636977E-05,0.99999999904758,0.));
#647=DIRECTION('',(-9.3606436290378E-16,0.,-1.));
#648=AXIS2_PLACEMENT_3D('',#645,#647,#646);
#649=CYLINDRICAL_SURFACE('',#648,2.9001265722935);
#650=CARTESIAN_POINT('',(-6.1873656026635,-11.499873430469,-4.5));
#651=VERTEX_POINT('',#650);
#652=CARTESIAN_POINT('',(-6.1874921777191,-14.4,-4.5));
#653=DIRECTION('',(1.,0.,-6.1251010779004E-16));
#654=DIRECTION('',(5.8353762671036E-16,-2.8997949412116E-17,1.));
#655=AXIS2_PLACEMENT_3D('',#652,#654,#653);
#656=CIRCLE('',#655,2.9001265722935);
#657=EDGE_CURVE('',#611,#651,#656,.T.);
#658=ORIENTED_EDGE('',*,*,#657,.T.);
#659=CARTESIAN_POINT('',(-6.1873656026635,-11.499873430469,-7.5997863202986));
#660=VERTEX_POINT('',#659);
#661=CARTESIAN_POINT('',(-6.1873656026635,-11.499873430469,-4.5));
#662=DIRECTION('',(0.,0.,-1.));
#663=VECTOR('',#662,3.0997863202986);
#664=LINE('',#661,#663);
#665=EDGE_CURVE('',#651,#660,#664,.T.);
#666=ORIENTED_EDGE('',*,*,#665,.T.);
#667=CARTESIAN_POINT('',(-6.1873656026635,-11.499873430469,-7.5997863202986));
#668=CARTESIAN_POINT('',(-6.1420723124064,-11.49987139671,-7.6366552625738));
#669=CARTESIAN_POINT('',(-6.0568623364241,-11.502545283668,-7.7043621706199));
#670=CARTESIAN_POINT('',(-5.9576828681819,-11.508376209775,-7.7816265779228));
#671=CARTESIAN_POINT('',(-5.8044842214671,-11.523726472171,-7.8974626957946));
#672=CARTESIAN_POINT('',(-5.580235981085,-11.56103594959,-8.059063920168));
#673=CARTESIAN_POINT('',(-5.3213421208681,-11.628985988435,-8.233427882488));
#674=CARTESIAN_POINT('',(-5.0710700231664,-11.720110840449,-8.3913866965093));
#675=CARTESIAN_POINT('',(-4.8312095209678,-11.8331249979,-8.5332443520401));
#676=CARTESIAN_POINT('',(-4.60063629968,-11.968787985562,-8.660899026922));
#677=CARTESIAN_POINT('',(-4.3790423396814,-12.128589344933,-8.7753858162849));
#678=CARTESIAN_POINT('',(-4.1907975433887,-12.293697248989,-8.8666121508145));
#679=CARTESIAN_POINT('',(-4.0134408903819,-12.47533012753,-8.948799392608));
#680=CARTESIAN_POINT('',(-3.8352574436347,-12.697629403982,-9.0272118545718));
#681=CARTESIAN_POINT('',(-3.6800845705941,-12.935857233699,-9.0925088959708));
#682=CARTESIAN_POINT('',(-3.5493264233332,-13.187242871646,-9.1452924166706));
#683=CARTESIAN_POINT('',(-3.4446180478159,-13.447729545032,-9.1860430698317));
#684=CARTESIAN_POINT('',(-3.3654750496292,-13.716807542481,-9.2157976779755));
#685=CARTESIAN_POINT('',(-3.3203902917794,-13.9524612067,-9.2323056683144));
#686=CARTESIAN_POINT('',(-3.2982002924542,-14.13546077027,-9.2403345142466));
#687=CARTESIAN_POINT('',(-3.2873660834864,-14.310161737182,-9.2442188640078));
#688=CARTESIAN_POINT('',(-3.2873656054256,-14.4,-9.2442166099823));
#689=B_SPLINE_CURVE_WITH_KNOTS('',2,(#667,#668,#669,#670,#671,#672,#673,#674,#675,#676,#677,#678,#679,#680,#681,#682,#683,#684,#685,#686,#687,#688),.UNSPECIFIED.,.F.,.U.,(3,1,1,1,1,1,1,1,1,1,1,1,1,1,1,1,1,1,1,1,3),(0.,0.023611777528222,0.044014682779751,0.074496227452051,0.12189451536658,0.18720243071873,0.25088145016711,0.31232352730292,0.37228661304741,0.43208527516157,0.49184621510515,0.53974704999062,0.59964360283313,0.65898721024925,0.71748822533911,0.77529799633759,0.83209338358298,0.8891211563425,0.9292476144502,0.96368978312483,1.),.UNSPECIFIED.);
#690=EDGE_CURVE('',#660,#613,#689,.T.);
#691=ORIENTED_EDGE('',*,*,#690,.T.);
#692=ORIENTED_EDGE('',*,*,#618,.F.);
#693=EDGE_LOOP('',(#658,#666,#691,#692));
#694=FACE_OUTER_BOUND('',#693,.T.);
#695=ADVANCED_FACE('',(#694),#649,.F.);
#696=CARTESIAN_POINT('',(-9.2565526930137,-11.499873430469,-9.5));
#697=DIRECTION('',(-1.,-5.7877111662084E-16,5.7877111662084E-16));
#698=DIRECTION('',(5.7877111662084E-16,-1.,-4.1124161253138E-31));
#699=AXIS2_PLACEMENT_3D('',#696,#698,#697);
#700=PLANE('',#699);
#701=CARTESIAN_POINT('',(-8.7057445724941,-11.499873430469,-4.499999999376));
#702=VERTEX_POINT('',#701);
#703=CARTESIAN_POINT('',(-6.1873656026635,-11.499873430469,-4.5));
#704=DIRECTION('',(-1.,0.,2.4777859661977E-10));
#705=VECTOR('',#704,2.5183789698306);
#706=LINE('',#703,#705);
#707=EDGE_CURVE('',#651,#702,#706,.T.);
#708=ORIENTED_EDGE('',*,*,#707,.T.);
#709=CARTESIAN_POINT('',(-8.70574457217,-11.499873430469,-4.5));
#710=CARTESIAN_POINT('',(-8.6455726693095,-11.499873430469,-4.6152213649628));
#711=CARTESIAN_POINT('',(-8.4678196067028,-11.499873430469,-4.9391651808381));
#712=CARTESIAN_POINT('',(-8.1984503094694,-11.499873430469,-5.3758519254573));
#713=CARTESIAN_POINT('',(-7.8856322134053,-11.499873430469,-5.8250971788569));
#714=CARTESIAN_POINT('',(-7.548251856239,-11.499873430469,-6.2560971751048));
#715=CARTESIAN_POINT('',(-7.1871896738914,-11.499873430469,-6.6677730104733));
#716=CARTESIAN_POINT('',(-6.6123523360312,-11.499873430469,-7.2536808838719));
#717=CARTESIAN_POINT('',(-6.1873656026635,-11.499873430469,-7.5997863202986));
#718=B_SPLINE_CURVE_WITH_KNOTS('',2,(#709,#710,#711,#712,#713,#714,#715,#716,#717),.UNSPECIFIED.,.F.,.U.,(3,1,1,1,1,1,1,3),(0.34208178646133,0.38461614042119,0.46295212309899,0.55246002649751,0.64197953454601,0.73151417293937,0.82105938509913,1.),.UNSPECIFIED.);
#719=EDGE_CURVE('',#702,#660,#718,.T.);
#720=ORIENTED_EDGE('',*,*,#719,.T.);
#721=ORIENTED_EDGE('',*,*,#665,.F.);
#722=EDGE_LOOP('',(#708,#720,#721));
#723=FACE_OUTER_BOUND('',#722,.T.);
#724=ADVANCED_FACE('',(#723),#700,.T.);
#725=CARTESIAN_POINT('',(-7.8065526943948,-11.553158983254,-4.5));
#726=DIRECTION('',(0.,1.,0.));
#727=DIRECTION('',(-5.8960499015502E-16,0.,-1.));
#728=AXIS2_PLACEMENT_3D('',#725,#727,#726);
#729=PLANE('',#728);
#730=ORIENTED_EDGE('',*,*,#640,.F.);
#731=CARTESIAN_POINT('',(-8.7302855497459,-17.3,-4.5));
#732=VERTEX_POINT('',#731);
#733=CARTESIAN_POINT('',(-3.2873656054256,-17.3,-4.5));
#734=DIRECTION('',(-1.,0.,0.));
#735=VECTOR('',#734,5.4429199443203);
#736=LINE('',#733,#735);
#737=EDGE_CURVE('',#629,#732,#736,.T.);
#738=ORIENTED_EDGE('',*,*,#737,.T.);
#739=CARTESIAN_POINT('',(-8.7302855497459,-11.478087293628,-4.5));
#740=VERTEX_POINT('',#739);
#741=CARTESIAN_POINT('',(-8.7302855497459,-17.3,-4.5));
#742=DIRECTION('',(0.,1.,0.));
#743=VECTOR('',#742,5.821912706372);
#744=LINE('',#741,#743);
#745=EDGE_CURVE('',#732,#740,#744,.T.);
#746=ORIENTED_EDGE('',*,*,#745,.T.);
#747=CARTESIAN_POINT('',(-8.7302855497459,-11.478087293628,-4.5));
#748=CARTESIAN_POINT('',(-8.7180170528762,-11.4889826056,-4.5000000000067));
#749=CARTESIAN_POINT('',(-8.7057445724941,-11.499873430469,-4.499999999376));
#750=B_SPLINE_CURVE_WITH_KNOTS('',2,(#747,#748,#749),.UNSPECIFIED.,.F.,.U.,(3,3),(0.,1.),.UNSPECIFIED.);
#751=EDGE_CURVE('',#740,#702,#750,.T.);
#752=ORIENTED_EDGE('',*,*,#751,.T.);
#753=ORIENTED_EDGE('',*,*,#707,.F.);
#754=ORIENTED_EDGE('',*,*,#657,.F.);
#755=EDGE_LOOP('',(#730,#738,#746,#752,#753,#754));
#756=FACE_OUTER_BOUND('',#755,.T.);
#757=ORIENTED_EDGE('',*,*,#599,.F.);
#758=EDGE_LOOP('',(#757));
#759=FACE_BOUND('',#758,.T.);
#760=ADVANCED_FACE('',(#756,#759),#729,.T.);
#761=CARTESIAN_POINT('',(-8.8743902711347,-12.55,-4.4102516097569));
#762=DIRECTION('',(0.84883661970008,0.,-0.52865526863556));
#763=DIRECTION('',(-0.52865526863556,-0.,-0.84883661970008));
#764=AXIS2_PLACEMENT_3D('',#761,#763,#762);
#765=PLANE('',#764);
#766=ORIENTED_EDGE('',*,*,#745,.F.);
#767=CARTESIAN_POINT('',(-9.0184949925234,-17.479496780486,-4.3205032195139));
#768=VERTEX_POINT('',#767);
#769=CARTESIAN_POINT('',(-8.7302855497459,-17.3,-4.5));
#770=DIRECTION('',(-0.75042616572391,-0.46736525854874,0.467365258549));
#771=VECTOR('',#770,0.38406102551005);
#772=LINE('',#769,#771);
#773=EDGE_CURVE('',#732,#768,#772,.T.);
#774=ORIENTED_EDGE('',*,*,#773,.T.);
#775=CARTESIAN_POINT('',(-9.0184984181177,-11.299844899756,-4.3205048663547));
#776=VERTEX_POINT('',#775);
#777=CARTESIAN_POINT('',(-9.0184984181177,-11.299844899756,-4.3205048663547));
#778=DIRECTION('',(5.543345102611E-07,-0.99999999999981,2.6649410541465E-07));
#779=VECTOR('',#778,6.1796518807312);
#780=LINE('',#777,#779);
#781=EDGE_CURVE('',#776,#768,#780,.T.);
#782=ORIENTED_EDGE('',*,*,#781,.F.);
#783=CARTESIAN_POINT('',(-9.0184984181177,-11.299844899756,-4.3205048663547));
#784=CARTESIAN_POINT('',(-8.9144111481966,-11.366026886212,-4.3853227737923));
#785=CARTESIAN_POINT('',(-8.8348524470565,-11.415178900627,-4.4348757582965));
#786=CARTESIAN_POINT('',(-8.7302855497459,-11.478087293628,-4.5));
#787=B_SPLINE_CURVE_WITH_KNOTS('',3,(#783,#784,#785,#786),.UNSPECIFIED.,.F.,.U.,(4,4),(0.,1.),.UNSPECIFIED.);
#788=EDGE_CURVE('',#776,#740,#787,.T.);
#789=ORIENTED_EDGE('',*,*,#788,.T.);
#790=EDGE_LOOP('',(#766,#774,#782,#789));
#791=FACE_OUTER_BOUND('',#790,.T.);
#792=ADVANCED_FACE('',(#791),#765,.T.);
#793=CARTESIAN_POINT('',(-6.3136232677479,-11.29987343086,-7.7548798335598));
#794=CARTESIAN_POINT('',(-6.6794092169001,-11.299873620803,-7.4570907237863));
#795=CARTESIAN_POINT('',(-7.1506448744574,-11.299873193759,-7.0144795347739));
#796=CARTESIAN_POINT('',(-7.7072424830098,-11.299873743176,-6.379854514738));
#797=CARTESIAN_POINT('',(-8.0438982025278,-11.299872526156,-5.9497847637182));
#798=CARTESIAN_POINT('',(-8.3614638367626,-11.299877504773,-5.4937385559051));
#799=CARTESIAN_POINT('',(-8.6346385768686,-11.299862818744,-5.0530090194776));
#800=CARTESIAN_POINT('',(-8.8752490041783,-11.29991119298,-4.6156004075851));
#801=CARTESIAN_POINT('',(-9.0708806531965,-11.299758820558,-4.2165684878133));
#802=CARTESIAN_POINT('',(-9.2289714013319,-11.300599647981,-3.8562072959051));
#803=CARTESIAN_POINT('',(-9.3523824340874,-11.306081230361,-3.5445458923308));
#804=CARTESIAN_POINT('',(-9.4468619664004,-11.318174695655,-3.2829917673446));
#805=CARTESIAN_POINT('',(-9.517013873018,-11.337314855757,-3.0723241843084));
#806=CARTESIAN_POINT('',(-9.5674378306529,-11.361840293421,-2.9104461091475));
#807=CARTESIAN_POINT('',(-9.5997559221971,-11.387843574868,-2.8013444588121));
#808=CARTESIAN_POINT('',(-9.6205234052091,-11.412546098296,-2.728813651669));
#809=CARTESIAN_POINT('',(-9.6353343086831,-11.439194931562,-2.6760596252198));
#810=CARTESIAN_POINT('',(-9.6444595829907,-11.463027195175,-2.6428498530191));
#811=CARTESIAN_POINT('',(-9.6471279247253,-11.496369877919,-2.6330443984075));
#812=CARTESIAN_POINT('',(-6.1873656026635,-11.499873430469,-7.5997863202986));
#813=CARTESIAN_POINT('',(-6.5457930863986,-11.499873430469,-7.3079663755757));
#814=CARTESIAN_POINT('',(-7.0076464515807,-11.499873430469,-6.8741692034402));
#815=CARTESIAN_POINT('',(-7.553082890532,-11.499873430469,-6.2522718640839));
#816=CARTESIAN_POINT('',(-7.8830544273784,-11.499873430469,-5.8307487922273));
#817=CARTESIAN_POINT('',(-8.1940899795775,-11.499873430469,-5.3840382721133));
#818=CARTESIAN_POINT('',(-8.4623251951459,-11.499873430469,-4.9514982112228));
#819=CARTESIAN_POINT('',(-8.6963659390149,-11.499873430469,-4.5248920589126));
#820=CARTESIAN_POINT('',(-8.8936503341305,-11.499873430469,-4.1273611719967));
#821=CARTESIAN_POINT('',(-9.070961212249,-11.499873430469,-3.7765652748698));
#822=CARTESIAN_POINT('',(-9.2211036044972,-11.499873430469,-3.4783971366785));
#823=CARTESIAN_POINT('',(-9.3453588798918,-11.499873430469,-3.2318435536593));
#824=CARTESIAN_POINT('',(-9.4442218805979,-11.499873430469,-3.0356441404701));
#825=CARTESIAN_POINT('',(-9.5194858538209,-11.499873430469,-2.8862829462853));
#826=CARTESIAN_POINT('',(-9.5698741432939,-11.499873430469,-2.7862869336053));
#827=CARTESIAN_POINT('',(-9.6032269979822,-11.499873430469,-2.7200979356483));
#828=CARTESIAN_POINT('',(-9.6274260891407,-11.499873430469,-2.672074647627));
#829=CARTESIAN_POINT('',(-9.642619730965,-11.499873430469,-2.6419227455798));
#830=CARTESIAN_POINT('',(-9.6471005180756,-11.499873430469,-2.6330305881074));
#831=B_SPLINE_SURFACE_WITH_KNOTS('',1,3,((#793,#794,#795,#796,#797,#798,#799,#800,#801,#802,#803,#804,#805,#806,#807,#808,#809,#810,#811),(#812,#813,#814,#815,#816,#817,#818,#819,#820,#821,#822,#823,#824,#825,#826,#827,#828,#829,#830)),.UNSPECIFIED.,.F.,.F.,.U.,(2,2),(4,1,1,1,1,1,1,1,1,1,1,1,1,1,1,1,4),(0.,0.26649598825437),(0.,1.4175748676579,1.9401664984288,2.5373070713141,3.0597441477691,3.61019922175,4.097537282882,4.5565511040826,4.9593444653921,5.2923873915107,5.5729852060974,5.8013819227992,5.9648639115296,6.0864050997929,6.1493056920395,6.1968889073718,6.26142301123),.UNSPECIFIED.);
#832=CARTESIAN_POINT('',(-6.3136232677479,-11.29987343086,-7.7548798335598));
#833=VERTEX_POINT('',#832);
#834=CARTESIAN_POINT('',(-6.3136232677479,-11.29987343086,-7.7548798335598));
#835=CARTESIAN_POINT('',(-6.7473000770151,-11.299873432813,-7.4017231591619));
#836=CARTESIAN_POINT('',(-7.3338686280915,-11.299873427603,-6.8038523339911));
#837=CARTESIAN_POINT('',(-7.7022994850274,-11.29987345591,-6.3837747489091));
#838=CARTESIAN_POINT('',(-8.0465602698247,-11.299873327195,-5.9439753351069));
#839=CARTESIAN_POINT('',(-8.3657890925685,-11.299874328224,-5.4855746540781));
#840=CARTESIAN_POINT('',(-8.6405408741668,-11.29987006928,-5.0399160790494));
#841=CARTESIAN_POINT('',(-8.8801069025038,-11.29989705908,-4.6051292266432));
#842=CARTESIAN_POINT('',(-9.0045710212411,-11.299813403775,-4.3495667451081));
#843=CARTESIAN_POINT('',(-9.0184949925234,-11.299822663254,-4.3205032195139));
#844=B_SPLINE_CURVE_WITH_KNOTS('',2,(#834,#835,#836,#837,#838,#839,#840,#841,#842,#843),.UNSPECIFIED.,.F.,.U.,(3,1,1,1,1,1,1,1,3),(0.2953484682768,0.47381898981844,0.56312806623557,0.65242696733858,0.74171055427756,0.83098288872547,0.90911228794437,0.98969460204407,1.),.UNSPECIFIED.);
#845=EDGE_CURVE('',#833,#776,#844,.T.);
#846=ORIENTED_EDGE('',*,*,#845,.F.);
#847=CARTESIAN_POINT('',(-6.3136232677479,-11.29987343086,-7.7548798335598));
#848=DIRECTION('',(0.44640221809722,-0.7071288969681,0.54835552586854));
#849=VECTOR('',#848,0.28283386588573);
#850=LINE('',#847,#849);
#851=EDGE_CURVE('',#833,#660,#850,.T.);
#852=ORIENTED_EDGE('',*,*,#851,.T.);
#853=ORIENTED_EDGE('',*,*,#719,.F.);
#854=ORIENTED_EDGE('',*,*,#751,.F.);
#855=ORIENTED_EDGE('',*,*,#788,.F.);
#856=EDGE_LOOP('',(#846,#852,#853,#854,#855));
#857=FACE_OUTER_BOUND('',#856,.T.);
#858=ADVANCED_FACE('',(#857),#831,.T.);
#859=CARTESIAN_POINT('',(-3.0978332445576,-14.4,-9.508071791321));
#860=CARTESIAN_POINT('',(-3.0978329700455,-14.303004714939,-9.5080705299418));
#861=CARTESIAN_POINT('',(-3.1056704519113,-14.136651061653,-9.5055256884389));
#862=CARTESIAN_POINT('',(-3.138015171369,-13.882689957683,-9.4949121455447));
#863=CARTESIAN_POINT('',(-3.1893610293733,-13.632452465826,-9.4778494814668));
#864=CARTESIAN_POINT('',(-3.2753330550943,-13.347586591411,-9.4486051325707));
#865=CARTESIAN_POINT('',(-3.3932529793903,-13.066658421606,-9.407064256586));
#866=CARTESIAN_POINT('',(-3.5469242789226,-12.785485534484,-9.3503703734179));
#867=CARTESIAN_POINT('',(-3.7206180426987,-12.532755766357,-9.2828446887026));
#868=CARTESIAN_POINT('',(-3.9179553604877,-12.29866381502,-9.2013589865489));
#869=CARTESIAN_POINT('',(-4.1237473292094,-12.09505040041,-9.1111466316637));
#870=CARTESIAN_POINT('',(-4.3440109636593,-11.912875335403,-9.0083662777324));
#871=CARTESIAN_POINT('',(-4.5874540070987,-11.746395046456,-8.8872057960514));
#872=CARTESIAN_POINT('',(-4.8412444958221,-11.607442942174,-8.751726557711));
#873=CARTESIAN_POINT('',(-5.1154044394323,-11.489661881182,-8.594533576465));
#874=CARTESIAN_POINT('',(-5.3856751765801,-11.402769102328,-8.4279968311993));
#875=CARTESIAN_POINT('',(-5.6541789635478,-11.343267701773,-8.2500073443344));
#876=CARTESIAN_POINT('',(-5.8788522866874,-11.313425043196,-8.0907507528754));
#877=CARTESIAN_POINT('',(-6.0508761788257,-11.301716513851,-7.9622366364692));
#878=CARTESIAN_POINT('',(-6.1892673623299,-11.299279301251,-7.8550170260133));
#879=CARTESIAN_POINT('',(-6.2690806626888,-11.300037121068,-7.7911339848618));
#880=CARTESIAN_POINT('',(-6.3136232677479,-11.29987343086,-7.7548798335598));
#881=CARTESIAN_POINT('',(-3.2873656054256,-14.4,-9.2442166099823));
#882=CARTESIAN_POINT('',(-3.2873634601119,-14.311778288531,-9.2442166906663));
#883=CARTESIAN_POINT('',(-3.2942812729823,-14.160400109944,-9.2417548421127));
#884=CARTESIAN_POINT('',(-3.323075903133,-13.929223909864,-9.2313383768124));
#885=CARTESIAN_POINT('',(-3.3689128384292,-13.701614897148,-9.214536272449));
#886=CARTESIAN_POINT('',(-3.4448427603741,-13.443455491478,-9.18599718143));
#887=CARTESIAN_POINT('',(-3.5476801439469,-13.188131972543,-9.146029837837));
#888=CARTESIAN_POINT('',(-3.681390472658,-12.93127999568,-9.0920554206573));
#889=CARTESIAN_POINT('',(-3.8331898847988,-12.698526807042,-9.0282546199929));
#890=CARTESIAN_POINT('',(-4.0070666404439,-12.48171170138,-8.9517394139691));
#891=CARTESIAN_POINT('',(-4.1897176316142,-12.292285674671,-8.8674724212636));
#892=CARTESIAN_POINT('',(-4.3860865435306,-12.122340645357,-8.7720307822225));
#893=CARTESIAN_POINT('',(-4.6025871065033,-11.966234039346,-8.6601936092771));
#894=CARTESIAN_POINT('',(-4.8293110839361,-11.832941022933,-8.5347352459521));
#895=CARTESIAN_POINT('',(-5.075934693179,-11.716934521352,-8.3888245274528));
#896=CARTESIAN_POINT('',(-5.3213254343166,-11.627952697796,-8.2338899829201));
#897=CARTESIAN_POINT('',(-5.5679163868092,-11.563446740318,-8.0677466216272));
#898=CARTESIAN_POINT('',(-5.7747539893628,-11.527224190666,-7.9196588599176));
#899=CARTESIAN_POINT('',(-5.9365734899575,-11.50981203999,-7.7979609922285));
#900=CARTESIAN_POINT('',(-6.0638560304637,-11.501704585427,-7.6991559194613));
#901=CARTESIAN_POINT('',(-6.144137415658,-11.499860177023,-7.63498886573));
#902=CARTESIAN_POINT('',(-6.1873656026635,-11.499873430469,-7.5997863202986));
#903=B_SPLINE_SURFACE_WITH_KNOTS('',1,3,((#859,#860,#861,#862,#863,#864,#865,#866,#867,#868,#869,#870,#871,#872,#873,#874,#875,#876,#877,#878,#879,#880),(#881,#882,#883,#884,#885,#886,#887,#888,#889,#890,#891,#892,#893,#894,#895,#896,#897,#898,#899,#900,#901,#902)),.UNSPECIFIED.,.F.,.F.,.U.,(2,2),(4,1,1,1,1,1,1,1,1,1,1,1,1,1,1,1,1,1,1,4),(0.,0.32036066398093),(0.,0.29029778784394,0.49788069177636,0.76652376957784,1.0554419323569,1.3885155804946,1.6828401192583,2.0247364306653,2.3260460478191,2.6291401308547,2.931875876679,3.2346001436769,3.5804332453453,3.88809638821,4.2460845483048,4.5711893446173,4.8772795137969,5.0826412151162,5.2269912798693,5.4046303691322),.UNSPECIFIED.);
#904=CARTESIAN_POINT('',(-3.0978332445576,-14.4,-9.508071791321));
#905=VERTEX_POINT('',#904);
#906=CARTESIAN_POINT('',(-3.0978332445576,-14.4,-9.508071791321));
#907=CARTESIAN_POINT('',(-3.0978401612267,-14.301254366631,-9.5080702416055));
#908=CARTESIAN_POINT('',(-3.1100670253275,-14.109261824713,-9.5040815032392));
#909=CARTESIAN_POINT('',(-3.1350062654818,-13.908132390246,-9.4958951280269));
#910=CARTESIAN_POINT('',(-3.1856145202204,-13.648725399496,-9.4790956749559));
#911=CARTESIAN_POINT('',(-3.2751956565305,-13.352217282829,-9.4486137190667));
#912=CARTESIAN_POINT('',(-3.3951021961723,-13.06584429035,-9.406285987373));
#913=CARTESIAN_POINT('',(-3.5452512101289,-12.790831245983,-9.3508891975308));
#914=CARTESIAN_POINT('',(-3.7227488551662,-12.532026187242,-9.2817758647485));
#915=CARTESIAN_POINT('',(-3.9250082062518,-12.291937860099,-9.1982623343995));
#916=CARTESIAN_POINT('',(-4.124913193156,-12.096573888004,-9.1101687864635));
#917=CARTESIAN_POINT('',(-4.3363231322868,-11.919445525603,-9.0118833573448));
#918=CARTESIAN_POINT('',(-4.5848777970501,-11.749469462917,-8.8881661898632));
#919=CARTESIAN_POINT('',(-4.842771782896,-11.608018450812,-8.7504086759323));
#920=CARTESIAN_POINT('',(-5.1093048455637,-11.493240817518,-8.597669582428));
#921=CARTESIAN_POINT('',(-5.3849348726217,-11.404069441303,-8.4279257805268));
#922=CARTESIAN_POINT('',(-5.6672884850419,-11.341340489561,-8.2408470221456));
#923=CARTESIAN_POINT('',(-5.9098117739691,-11.310930421365,-8.0678259881358));
#924=CARTESIAN_POINT('',(-6.0742588010602,-11.30127420739,-7.9441705346176));
#925=CARTESIAN_POINT('',(-6.1793479429,-11.299706910474,-7.8624700993649));
#926=CARTESIAN_POINT('',(-6.2673390976693,-11.299917543004,-7.7925620154066));
#927=CARTESIAN_POINT('',(-6.3136232677479,-11.29987343086,-7.7548798335598));
#928=B_SPLINE_CURVE_WITH_KNOTS('',2,(#906,#907,#908,#909,#910,#911,#912,#913,#914,#915,#916,#917,#918,#919,#920,#921,#922,#923,#924,#925,#926,#927),.UNSPECIFIED.,.F.,.U.,(3,1,1,1,1,1,1,1,1,1,1,1,1,1,1,1,1,1,1,1,3),(0.,0.03657916897378,0.07127064285823,0.11171052802922,0.1693260912919,0.22681188859729,0.28533255533112,0.34447584521899,0.40431070264859,0.4646218619751,0.51282700711934,0.5730361469367,0.6332399196576,0.69330527647999,0.7545747482877,0.81764518850092,0.88204722153008,0.92855296713036,0.95835393425373,0.97788234681318,1.),.UNSPECIFIED.);
#929=EDGE_CURVE('',#905,#833,#928,.T.);
#930=ORIENTED_EDGE('',*,*,#929,.F.);
#931=CARTESIAN_POINT('',(-3.0978332445576,-14.4,-9.508071791321));
#932=DIRECTION('',(-0.58340555932664,0.,0.81218098558559));
#933=VECTOR('',#932,0.32487239423422);
#934=LINE('',#931,#933);
#935=EDGE_CURVE('',#905,#613,#934,.T.);
#936=ORIENTED_EDGE('',*,*,#935,.T.);
#937=ORIENTED_EDGE('',*,*,#690,.F.);
#938=ORIENTED_EDGE('',*,*,#851,.F.);
#939=EDGE_LOOP('',(#930,#936,#937,#938));
#940=FACE_OUTER_BOUND('',#939,.T.);
#941=ADVANCED_FACE('',(#940),#903,.T.);
#942=CARTESIAN_POINT('',(-3.1925994249916,-16.105,-9.3761442006516));
#943=DIRECTION('',(-0.58340555932661,0.,0.81218098558561));
#944=DIRECTION('',(-0.81218098558561,1.0522079253608E-14,-0.58340555932661));
#945=AXIS2_PLACEMENT_3D('',#942,#944,#943);
#946=PLANE('',#945);
#947=CARTESIAN_POINT('',(-3.0978332445576,-17.3,-9.508071791321));
#948=VERTEX_POINT('',#947);
#949=CARTESIAN_POINT('',(-3.0978332445576,-17.3,-9.508071791321));
#950=DIRECTION('',(0.,1.,0.));
#951=VECTOR('',#950,2.9);
#952=LINE('',#949,#951);
#953=EDGE_CURVE('',#948,#905,#952,.T.);
#954=ORIENTED_EDGE('',*,*,#953,.F.);
#955=CARTESIAN_POINT('',(-3.1923745080179,-17.394991057656,-9.3764573034187));
#956=VERTEX_POINT('',#955);
#957=CARTESIAN_POINT('',(-3.097833244558,-17.3,-9.5080717913209));
#958=CARTESIAN_POINT('',(-3.1322844185678,-17.334816878239,-9.460111006555));
#959=CARTESIAN_POINT('',(-3.1622892197169,-17.365011156173,-9.4183401859355));
#960=CARTESIAN_POINT('',(-3.1923744967,-17.394991108665,-9.3764573318581));
#961=B_SPLINE_CURVE_WITH_KNOTS('',3,(#957,#958,#959,#960),.UNSPECIFIED.,.F.,.U.,(4,4),(0.49992090378897,1.),.UNSPECIFIED.);
#962=EDGE_CURVE('',#948,#956,#961,.T.);
#963=ORIENTED_EDGE('',*,*,#962,.T.);
#964=CARTESIAN_POINT('',(-3.1923745080179,-17.394991057656,-9.3764573034187));
#965=DIRECTION('',(-0.50391764867651,0.50391743779797,0.70152278597025));
#966=VECTOR('',#965,0.18850520051676);
#967=LINE('',#964,#966);
#968=EDGE_CURVE('',#956,#621,#967,.T.);
#969=ORIENTED_EDGE('',*,*,#968,.T.);
#970=ORIENTED_EDGE('',*,*,#626,.F.);
#971=ORIENTED_EDGE('',*,*,#935,.F.);
#972=EDGE_LOOP('',(#954,#963,#969,#970,#971));
#973=FACE_OUTER_BOUND('',#972,.T.);
#974=ADVANCED_FACE('',(#973),#946,.T.);
#975=CARTESIAN_POINT('',(2.6794919243112,-17.5,7.105427357601E-15));
#976=DIRECTION('',(-1.,0.,-1.402351834574E-16));
#977=DIRECTION('',(0.,-1.,-0.));
#978=AXIS2_PLACEMENT_3D('',#975,#977,#976);
#979=PLANE('',#978);
#980=CARTESIAN_POINT('',(-9.0282888744213,-17.5,-4.3));
#981=VERTEX_POINT('',#980);
#982=CARTESIAN_POINT('',(-9.9874921777191,-17.5,-0.5));
#983=VERTEX_POINT('',#982);
#984=CARTESIAN_POINT('',(-1.7763568394003E-14,-17.5,-4.8849813083507E-15));
#985=DIRECTION('',(-0.90282888744213,-1.0658141036402E-15,-0.43));
#986=DIRECTION('',(-1.5268489534701E-15,1.,-3.8541014731717E-16));
#987=AXIS2_PLACEMENT_3D('',#984,#986,#985);
#988=CIRCLE('',#987,10.);
#989=EDGE_CURVE('',#981,#983,#988,.T.);
#990=ORIENTED_EDGE('',*,*,#989,.F.);
#991=CARTESIAN_POINT('',(-3.0873656054256,-17.5,-4.3));
#992=VERTEX_POINT('',#991);
#993=CARTESIAN_POINT('',(-9.0282888744213,-17.5,-4.3));
#994=DIRECTION('',(1.,0.,0.));
#995=VECTOR('',#994,5.9409232689957);
#996=LINE('',#993,#995);
#997=EDGE_CURVE('',#981,#992,#996,.T.);
#998=ORIENTED_EDGE('',*,*,#997,.T.);
#999=CARTESIAN_POINT('',(-3.0873656015738,-17.5,-9.3009770305113));
#1000=VERTEX_POINT('',#999);
#1001=CARTESIAN_POINT('',(-3.0873656054256,-17.5,-4.3));
#1002=DIRECTION('',(7.7020953877969E-10,0.,-1.));
#1003=VECTOR('',#1002,5.0009770305113);
#1004=LINE('',#1001,#1003);
#1005=EDGE_CURVE('',#992,#1000,#1004,.T.);
#1006=ORIENTED_EDGE('',*,*,#1005,.T.);
#1007=CARTESIAN_POINT('',(9.7872367799727,-17.5,-0.5));
#1008=VERTEX_POINT('',#1007);
#1009=CARTESIAN_POINT('',(2.2204460492503E-16,-17.5,-5.3290705182008E-15));
#1010=DIRECTION('',(-0.31503730615203,-7.2504360761695E-16,-0.94907928843299));
#1011=DIRECTION('',(-1.2125915676141E-16,-1.,8.6317871432024E-16));
#1012=AXIS2_PLACEMENT_3D('',#1009,#1011,#1010);
#1013=CIRCLE('',#1012,9.8000000040755);
#1014=EDGE_CURVE('',#1000,#1008,#1013,.T.);
#1015=ORIENTED_EDGE('',*,*,#1014,.T.);
#1016=CARTESIAN_POINT('',(9.7872367718982,-17.5,0.49999999999991));
#1017=VERTEX_POINT('',#1016);
#1018=CARTESIAN_POINT('',(9.787236679015,-17.499999907599,0.49999999999999));
#1019=DIRECTION('',(0.,0.,-1.));
#1020=VECTOR('',#1019,1.);
#1021=LINE('',#1018,#1020);
#1022=EDGE_CURVE('',#1017,#1008,#1021,.T.);
#1023=ORIENTED_EDGE('',*,*,#1022,.F.);
#1024=CARTESIAN_POINT('',(-9.7872365862032,-17.5,0.5));
#1025=VERTEX_POINT('',#1024);
#1026=CARTESIAN_POINT('',(5.3290705182008E-15,-17.5,0.));
#1027=DIRECTION('',(0.99869761091595,3.6252179710968E-16,0.051020407199258));
#1028=DIRECTION('',(3.4042474370248E-16,-1.,3.5825994641708E-16));
#1029=AXIS2_PLACEMENT_3D('',#1026,#1028,#1027);
#1030=CIRCLE('',#1029,9.8000001851631);
#1031=EDGE_CURVE('',#1017,#1025,#1030,.T.);
#1032=ORIENTED_EDGE('',*,*,#1031,.T.);
#1033=CARTESIAN_POINT('',(-9.7872365862991,-17.5,-0.49999999999999));
#1034=VERTEX_POINT('',#1033);
#1035=CARTESIAN_POINT('',(-9.7872365861072,-17.5,0.50000000000001));
#1036=DIRECTION('',(0.,0.,-1.));
#1037=VECTOR('',#1036,1.);
#1038=LINE('',#1035,#1037);
#1039=EDGE_CURVE('',#1025,#1034,#1038,.T.);
#1040=ORIENTED_EDGE('',*,*,#1039,.T.);
#1041=CARTESIAN_POINT('',(-9.9874921777191,-17.5,-0.5));
#1042=DIRECTION('',(1.,0.,0.));
#1043=VECTOR('',#1042,0.20025559146798);
#1044=LINE('',#1041,#1043);
#1045=EDGE_CURVE('',#983,#1034,#1044,.T.);
#1046=ORIENTED_EDGE('',*,*,#1045,.F.);
#1047=EDGE_LOOP('',(#990,#998,#1006,#1015,#1023,#1032,#1040,#1046));
#1048=FACE_OUTER_BOUND('',#1047,.T.);
#1049=CARTESIAN_POINT('',(-2.6494873309373,-17.499999812019,-0.51982684349207));
#1050=VERTEX_POINT('',#1049);
#1051=CARTESIAN_POINT('',(2.6494894370508,-17.5,-0.51981370096919));
#1052=VERTEX_POINT('',#1051);
#1053=CARTESIAN_POINT('',(2.4424906541753E-15,-17.5,-8.8817841970013E-16));
#1054=DIRECTION('',(-0.98129139911859,1.3158198810372E-15,-0.19252841352868));
#1055=DIRECTION('',(0.,-1.,0.));
#1056=AXIS2_PLACEMENT_3D('',#1053,#1055,#1054);
#1057=CIRCLE('',#1056,2.7);
#1058=EDGE_CURVE('',#1050,#1052,#1057,.T.);
#1059=ORIENTED_EDGE('',*,*,#1058,.F.);
#1060=CARTESIAN_POINT('',(-2.6494895298403,-17.5,0.5198130642967));
#1061=VERTEX_POINT('',#1060);
#1062=CARTESIAN_POINT('',(-2.6494897427832,-17.5,0.51981310590905));
#1063=DIRECTION('',(4.2715655160374E-16,0.,-1.));
#1064=VECTOR('',#1063,1.0396404039286);
#1065=LINE('',#1062,#1064);
#1066=EDGE_CURVE('',#1061,#1050,#1065,.T.);
#1067=ORIENTED_EDGE('',*,*,#1066,.F.);
#1068=CARTESIAN_POINT('',(2.6494896409009,-17.5,0.51981374026723));
#1069=VERTEX_POINT('',#1068);
#1070=CARTESIAN_POINT('',(2.8865798640254E-15,-17.5,-2.2204460492503E-16));
#1071=DIRECTION('',(0.98129234639033,0.,0.19252358534934));
#1072=DIRECTION('',(-0.,-1.,0.));
#1073=AXIS2_PLACEMENT_3D('',#1070,#1072,#1071);
#1074=CIRCLE('',#1073,2.7);
#1075=EDGE_CURVE('',#1069,#1061,#1074,.T.);
#1076=ORIENTED_EDGE('',*,*,#1075,.F.);
#1077=CARTESIAN_POINT('',(2.6494897427832,-17.5,0.51981376020857));
#1078=DIRECTION('',(0.,0.,-1.));
#1079=VECTOR('',#1078,1.0396274811232);
#1080=LINE('',#1077,#1079);
#1081=EDGE_CURVE('',#1069,#1052,#1080,.T.);
#1082=ORIENTED_EDGE('',*,*,#1081,.T.);
#1083=EDGE_LOOP('',(#1059,#1067,#1076,#1082));
#1084=FACE_BOUND('',#1083,.T.);
#1085=ADVANCED_FACE('',(#1048,#1084),#979,.T.);
#1086=CARTESIAN_POINT('',(-7.8951233608028E-15,3.3000000000002,1.2553930933154E-14));
#1087=DIRECTION('',(-1.,-2.0557115226126E-16,-1.0408039686418E-15));
#1088=DIRECTION('',(2.0557115226126E-16,-1.,-3.3705380458836E-16));
#1089=AXIS2_PLACEMENT_3D('',#1086,#1088,#1087);
#1090=CONICAL_SURFACE('',#1089,0.,0.78539816339744);
#1091=ORIENTED_EDGE('',*,*,#516,.F.);
#1092=CARTESIAN_POINT('',(-10.,-6.7,1.2246467991474E-15));
#1093=VERTEX_POINT('',#1092);
#1094=CARTESIAN_POINT('',(-9.8,-6.5,-1.2356809999524E-15));
#1095=DIRECTION('',(-0.70710678118655,-0.70710678118655,8.6985723534262E-15));
#1096=VECTOR('',#1095,0.28284271247462);
#1097=LINE('',#1094,#1096);
#1098=EDGE_CURVE('',#510,#1093,#1097,.T.);
#1099=ORIENTED_EDGE('',*,*,#1098,.T.);
#1100=CARTESIAN_POINT('',(3.5527136788005E-15,-6.7,4.364831716515E-15));
#1101=DIRECTION('',(-1.,-0.,-3.1401849173676E-16));
#1102=DIRECTION('',(0.,-1.,0.));
#1103=AXIS2_PLACEMENT_3D('',#1100,#1102,#1101);
#1104=CIRCLE('',#1103,10.);
#1105=EDGE_CURVE('',#1093,#1093,#1104,.T.);
#1106=ORIENTED_EDGE('',*,*,#1105,.F.);
#1107=ORIENTED_EDGE('',*,*,#1098,.F.);
#1108=EDGE_LOOP('',(#1091,#1099,#1106,#1107));
#1109=FACE_OUTER_BOUND('',#1108,.T.);
#1110=ADVANCED_FACE('',(#1109),#1090,.T.);
#1111=CARTESIAN_POINT('',(5.3375670215435,-17.4,-4.4));
#1112=DIRECTION('',(0.,0.70710678118655,-0.70710678118655));
#1113=DIRECTION('',(-4.1531471471005E-16,-0.70710678118655,-0.70710678118655));
#1114=AXIS2_PLACEMENT_3D('',#1111,#1113,#1112);
#1115=PLANE('',#1114);
#1116=CARTESIAN_POINT('',(-3.2873656054256,-17.3,-4.5));
#1117=DIRECTION('',(0.57735026918963,-0.57735026918962,0.57735026918963));
#1118=VECTOR('',#1117,0.34641016151378);
#1119=LINE('',#1116,#1118);
#1120=EDGE_CURVE('',#629,#992,#1119,.T.);
#1121=ORIENTED_EDGE('',*,*,#1120,.T.);
#1122=ORIENTED_EDGE('',*,*,#997,.F.);
#1123=CARTESIAN_POINT('',(-9.0184949925234,-17.479496780486,-4.3205032195139));
#1124=CARTESIAN_POINT('',(-9.0234035804787,-17.489742826756,-4.3102571732444));
#1125=CARTESIAN_POINT('',(-9.0282888744213,-17.5,-4.3));
#1126=(BOUNDED_CURVE()B_SPLINE_CURVE(2,(#1123,#1124,#1125),.UNSPECIFIED.,.F.,.U.)B_SPLINE_CURVE_WITH_KNOTS((3,3),(0.,0.1023320069175),.UNSPECIFIED.)CURVE()GEOMETRIC_REPRESENTATION_ITEM()RATIONAL_B_SPLINE_CURVE((0.82187668999889,0.8221658545712,0.82245618247129))REPRESENTATION_ITEM(''));
#1127=EDGE_CURVE('',#768,#981,#1126,.T.);
#1128=ORIENTED_EDGE('',*,*,#1127,.F.);
#1129=ORIENTED_EDGE('',*,*,#773,.F.);
#1130=ORIENTED_EDGE('',*,*,#737,.F.);
#1131=EDGE_LOOP('',(#1121,#1122,#1128,#1129,#1130));
#1132=FACE_OUTER_BOUND('',#1131,.T.);
#1133=ADVANCED_FACE('',(#1132),#1115,.T.);
#1134=CARTESIAN_POINT('',(-3.1873656054257,-17.4,2.386401106799));
#1135=DIRECTION('',(-0.70710678118655,0.70710678118654,-1.2560739427564E-14));
#1136=DIRECTION('',(-0.70710678118654,-0.70710678118655,5.0721951543827E-16));
#1137=AXIS2_PLACEMENT_3D('',#1134,#1136,#1135);
#1138=PLANE('',#1137);
#1139=CARTESIAN_POINT('',(-3.1923745025995,-17.394991023323,-9.3764572630579));
#1140=CARTESIAN_POINT('',(-3.1398341578961,-17.4475314771,-9.3388170665367));
#1141=CARTESIAN_POINT('',(-3.0873656028577,-17.5,-9.3009770343792));
#1142=B_SPLINE_CURVE_WITH_KNOTS('',2,(#1139,#1140,#1141),.UNSPECIFIED.,.F.,.U.,(3,3),(0.,0.99999984099905),.UNSPECIFIED.);
#1143=EDGE_CURVE('',#956,#1000,#1142,.T.);
#1144=ORIENTED_EDGE('',*,*,#1143,.T.);
#1145=ORIENTED_EDGE('',*,*,#1005,.F.);
#1146=ORIENTED_EDGE('',*,*,#1120,.F.);
#1147=ORIENTED_EDGE('',*,*,#634,.F.);
#1148=ORIENTED_EDGE('',*,*,#968,.F.);
#1149=EDGE_LOOP('',(#1144,#1145,#1146,#1147,#1148));
#1150=FACE_OUTER_BOUND('',#1149,.T.);
#1151=ADVANCED_FACE('',(#1150),#1138,.T.);
#1152=CARTESIAN_POINT('',(4.4408920985006E-15,-27.299999999999,1.7763568394003E-14));
#1153=DIRECTION('',(-1.,8.730882005765E-17,-2.0419727817896E-15));
#1154=DIRECTION('',(8.730882005765E-17,1.,1.4315126247457E-16));
#1155=AXIS2_PLACEMENT_3D('',#1152,#1154,#1153);
#1156=CONICAL_SURFACE('',#1155,0.,0.78539816339749);
#1157=ORIENTED_EDGE('',*,*,#1031,.F.);
#1158=CARTESIAN_POINT('',(9.8547308486719,-17.432593040734,0.49999999999999));
#1159=VERTEX_POINT('',#1158);
#1160=CARTESIAN_POINT('',(9.8547308486719,-17.432593040734,0.49999999999999));
#1161=CARTESIAN_POINT('',(9.8208681011509,-17.466412286661,0.49999999999999));
#1162=CARTESIAN_POINT('',(9.787236679015,-17.499999907599,0.49999999999999));
#1163=(BOUNDED_CURVE()B_SPLINE_CURVE(2,(#1160,#1161,#1162),.HYPERBOLIC_ARC.,.F.,.U.)B_SPLINE_CURVE_WITH_KNOTS((3,3),(6.5912388066079E-07,0.47762465619615),.UNSPECIFIED.)CURVE()GEOMETRIC_REPRESENTATION_ITEM()RATIONAL_B_SPLINE_CURVE((1.0127894121698,1.0161040183988,1.019417466583))REPRESENTATION_ITEM(''));
#1164=EDGE_CURVE('',#1159,#1017,#1163,.T.);
#1165=ORIENTED_EDGE('',*,*,#1164,.F.);
#1166=CARTESIAN_POINT('',(9.8547308486719,-17.432593040734,-0.50000000000001));
#1167=VERTEX_POINT('',#1166);
#1168=CARTESIAN_POINT('',(-89.152692630159,71.714091475175,5.3637139174612E-09));
#1169=DIRECTION('',(0.74314482547717,-0.66913060635911,-4.4956850742128E-11));
#1170=DIRECTION('',(-0.66913060635911,-0.74314482547717,-1.0512424264419E-15));
#1171=AXIS2_PLACEMENT_3D('',#1168,#1170,#1169);
#1172=ELLIPSE('',#1171,133.23660517176,43.076537994821);
#1173=TRIMMED_CURVE('',#1172,(PARAMETER_VALUE(6.2715777999221)),(PARAMETER_VALUE(0.011607507286527)),.T.,.PARAMETER.);
#1174=EDGE_CURVE('',#1167,#1159,#1173,.T.);
#1175=ORIENTED_EDGE('',*,*,#1174,.F.);
#1176=CARTESIAN_POINT('',(9.7872362195493,-17.499999416054,-0.50002059982938));
#1177=CARTESIAN_POINT('',(9.8209839656665,-17.46629666366,-0.49999656665671));
#1178=CARTESIAN_POINT('',(9.8547308486719,-17.432593040734,-0.50000000000001));
#1179=B_SPLINE_CURVE_WITH_KNOTS('',2,(#1176,#1177,#1178),.UNSPECIFIED.,.F.,.U.,(3,3),(0.,0.99999133688869),.UNSPECIFIED.);
#1180=EDGE_CURVE('',#1008,#1167,#1179,.T.);
#1181=ORIENTED_EDGE('',*,*,#1180,.F.);
#1182=ORIENTED_EDGE('',*,*,#1014,.F.);
#1183=ORIENTED_EDGE('',*,*,#1143,.F.);
#1184=ORIENTED_EDGE('',*,*,#962,.F.);
#1185=CARTESIAN_POINT('',(-9.9874921777191,-17.3,0.5));
#1186=VERTEX_POINT('',#1185);
#1187=CARTESIAN_POINT('',(4.4408920985006E-15,-17.3,-4.4408920985006E-15));
#1188=DIRECTION('',(-0.99874921777191,0.,0.05));
#1189=DIRECTION('',(-1.8544043294689E-16,1.,1.4757737340951E-16));
#1190=AXIS2_PLACEMENT_3D('',#1187,#1189,#1188);
#1191=CIRCLE('',#1190,10.);
#1192=EDGE_CURVE('',#1186,#948,#1191,.T.);
#1193=ORIENTED_EDGE('',*,*,#1192,.F.);
#1194=CARTESIAN_POINT('',(-9.7872365862991,-17.5,0.50000000002642));
#1195=CARTESIAN_POINT('',(-9.8373011365686,-17.450000653257,0.50000000002642));
#1196=CARTESIAN_POINT('',(-9.9374288052893,-17.350000526091,0.50000000000015));
#1197=CARTESIAN_POINT('',(-9.9874921777191,-17.3,0.5));
#1198=B_SPLINE_CURVE_WITH_KNOTS('',3,(#1194,#1195,#1196,#1197),.UNSPECIFIED.,.F.,.U.,(4,4),(0.,1.),.UNSPECIFIED.);
#1199=EDGE_CURVE('',#1025,#1186,#1198,.T.);
#1200=ORIENTED_EDGE('',*,*,#1199,.F.);
#1201=EDGE_LOOP('',(#1157,#1165,#1175,#1181,#1182,#1183,#1184,#1193,#1200));
#1202=FACE_OUTER_BOUND('',#1201,.T.);
#1203=ADVANCED_FACE('',(#1202),#1156,.T.);
#1204=CARTESIAN_POINT('',(-1.7763568394003E-15,-6.7,-1.7763568394003E-15));
#1205=DIRECTION('',(-1.,0.,5.5171004025285E-17));
#1206=DIRECTION('',(0.,-1.,0.));
#1207=AXIS2_PLACEMENT_3D('',#1204,#1206,#1205);
#1208=CYLINDRICAL_SURFACE('',#1207,10.);
#1209=CARTESIAN_POINT('',(-10.,-11.,9.9412292109002E-16));
#1210=VERTEX_POINT('',#1209);
#1211=CARTESIAN_POINT('',(-9.9874921777191,-11.,-0.50000000000007));
#1212=VERTEX_POINT('',#1211);
#1213=CARTESIAN_POINT('',(4.3876013933186E-13,-10.999999999999,4.8849813083507E-14));
#1214=DIRECTION('',(-1.,-6.7501559897207E-14,-5.0074459882652E-15));
#1215=DIRECTION('',(6.7671760027763E-14,-1.,1.4959187395648E-15));
#1216=AXIS2_PLACEMENT_3D('',#1213,#1215,#1214);
#1217=CIRCLE('',#1216,10.);
#1218=EDGE_CURVE('',#1210,#1212,#1217,.T.);
#1219=ORIENTED_EDGE('',*,*,#1218,.F.);
#1220=CARTESIAN_POINT('',(-10.,-11.,-1.2246467991474E-15));
#1221=DIRECTION('',(0.,1.,5.6960316239414E-16));
#1222=VECTOR('',#1221,4.3);
#1223=LINE('',#1220,#1222);
#1224=EDGE_CURVE('',#1210,#1093,#1223,.T.);
#1225=ORIENTED_EDGE('',*,*,#1224,.T.);
#1226=ORIENTED_EDGE('',*,*,#1105,.T.);
#1227=ORIENTED_EDGE('',*,*,#1224,.F.);
#1228=CARTESIAN_POINT('',(-9.9874921777191,-11.,0.50000000000001));
#1229=VERTEX_POINT('',#1228);
#1230=CARTESIAN_POINT('',(-3.0198066269804E-14,-11.,-1.7763568394003E-15));
#1231=DIRECTION('',(-0.99874921776909,1.7763568394002E-16,0.050000000056251));
#1232=DIRECTION('',(-1.7049375901763E-16,-1.,1.3082446257621E-16));
#1233=AXIS2_PLACEMENT_3D('',#1230,#1232,#1231);
#1234=CIRCLE('',#1233,10.);
#1235=EDGE_CURVE('',#1229,#1210,#1234,.T.);
#1236=ORIENTED_EDGE('',*,*,#1235,.F.);
#1237=CARTESIAN_POINT('',(-9.9874921777191,-11.,0.50000000000001));
#1238=DIRECTION('',(0.,-1.,-1.5860328923217E-15));
#1239=VECTOR('',#1238,6.3);
#1240=LINE('',#1237,#1239);
#1241=EDGE_CURVE('',#1229,#1186,#1240,.T.);
#1242=ORIENTED_EDGE('',*,*,#1241,.T.);
#1243=ORIENTED_EDGE('',*,*,#1192,.T.);
#1244=ORIENTED_EDGE('',*,*,#953,.T.);
#1245=ORIENTED_EDGE('',*,*,#929,.T.);
#1246=ORIENTED_EDGE('',*,*,#845,.T.);
#1247=ORIENTED_EDGE('',*,*,#781,.T.);
#1248=ORIENTED_EDGE('',*,*,#1127,.T.);
#1249=ORIENTED_EDGE('',*,*,#989,.T.);
#1250=CARTESIAN_POINT('',(-9.9874921777191,-17.3,-0.49999999999999));
#1251=VERTEX_POINT('',#1250);
#1252=CARTESIAN_POINT('',(-9.9874921777191,-17.5,-0.5));
#1253=DIRECTION('',(0.,1.,1.3877787807843E-15));
#1254=VECTOR('',#1253,0.19999999999959);
#1255=LINE('',#1252,#1254);
#1256=EDGE_CURVE('',#983,#1251,#1255,.T.);
#1257=ORIENTED_EDGE('',*,*,#1256,.T.);
#1258=CARTESIAN_POINT('',(-9.9874921777191,-17.3,-0.5));
#1259=DIRECTION('',(0.,1.,1.3305053707809E-15));
#1260=VECTOR('',#1259,6.3000000000004);
#1261=LINE('',#1258,#1260);
#1262=EDGE_CURVE('',#1251,#1212,#1261,.T.);
#1263=ORIENTED_EDGE('',*,*,#1262,.T.);
#1264=EDGE_LOOP('',(#1219,#1225,#1226,#1227,#1236,#1242,#1243,#1244,#1245,#1246,#1247,#1248,#1249,#1257,#1263));
#1265=FACE_OUTER_BOUND('',#1264,.T.);
#1266=ORIENTED_EDGE('',*,*,#567,.T.);
#1267=EDGE_LOOP('',(#1266));
#1268=FACE_BOUND('',#1267,.T.);
#1269=ADVANCED_FACE('',(#1265,#1268),#1208,.T.);
#1270=CARTESIAN_POINT('',(1.7763568394003E-15,-5.7,-1.3322676295502E-15));
#1271=DIRECTION('',(-1.,0.,7.1225724124847E-16));
#1272=DIRECTION('',(-3.7634678800853E-17,-1.,-1.7776721723012E-16));
#1273=AXIS2_PLACEMENT_3D('',#1270,#1272,#1271);
#1274=CYLINDRICAL_SURFACE('',#1273,2.5);
#1275=CARTESIAN_POINT('',(2.4494897427832,-10.764883999992,-0.5));
#1276=VERTEX_POINT('',#1275);
#1277=CARTESIAN_POINT('',(2.4494897427832,-10.764883999992,0.5));
#1278=VERTEX_POINT('',#1277);
#1279=CARTESIAN_POINT('',(-1.6693446625027E-10,-8.5593535289731,-1.2238987601165E-11));
#1280=DIRECTION('',(0.74314482547739,-0.66913060635886,8.1528117590324E-12));
#1281=DIRECTION('',(-0.66913060635886,-0.74314482547739,1.193489751472E-15));
#1282=AXIS2_PLACEMENT_3D('',#1279,#1281,#1280);
#1283=ELLIPSE('',#1282,3.3640818242406,2.5000000000834);
#1284=TRIMMED_CURVE('',#1283,(PARAMETER_VALUE(6.0818273863901)),(PARAMETER_VALUE(0.20135792077751)),.T.,.PARAMETER.);
#1285=EDGE_CURVE('',#1276,#1278,#1284,.T.);
#1286=ORIENTED_EDGE('',*,*,#1285,.T.);
#1287=CARTESIAN_POINT('',(2.449489739337,-17.3,0.50000001688296));
#1288=VERTEX_POINT('',#1287);
#1289=CARTESIAN_POINT('',(2.4494897427832,-10.764883999992,0.5));
#1290=DIRECTION('',(0.,-1.,0.));
#1291=VECTOR('',#1290,6.535116000008);
#1292=LINE('',#1289,#1291);
#1293=EDGE_CURVE('',#1278,#1288,#1292,.T.);
#1294=ORIENTED_EDGE('',*,*,#1293,.T.);
#1295=CARTESIAN_POINT('',(-2.4494896659341,-17.3,0.50000037648158));
#1296=VERTEX_POINT('',#1295);
#1297=CARTESIAN_POINT('',(1.3322676295502E-15,-17.3,-1.7763568394003E-15));
#1298=DIRECTION('',(0.97979589159932,0.,0.20000002701274));
#1299=DIRECTION('',(1.1798814968715E-15,-1.,5.7538962795776E-16));
#1300=AXIS2_PLACEMENT_3D('',#1297,#1299,#1298);
#1301=CIRCLE('',#1300,2.5);
#1302=EDGE_CURVE('',#1288,#1296,#1301,.T.);
#1303=ORIENTED_EDGE('',*,*,#1302,.T.);
#1304=CARTESIAN_POINT('',(-2.4494897427832,-11.,0.5));
#1305=VERTEX_POINT('',#1304);
#1306=CARTESIAN_POINT('',(-2.4494897427832,-17.3,0.5));
#1307=DIRECTION('',(0.,1.,0.));
#1308=VECTOR('',#1307,6.3);
#1309=LINE('',#1306,#1308);
#1310=EDGE_CURVE('',#1296,#1305,#1309,.T.);
#1311=ORIENTED_EDGE('',*,*,#1310,.T.);
#1312=CARTESIAN_POINT('',(-2.5,-11.,3.5692682735312E-17));
#1313=VERTEX_POINT('',#1312);
#1314=CARTESIAN_POINT('',(-3.1530333899354E-14,-11.,2.4980018054066E-16));
#1315=DIRECTION('',(-1.,7.1054273576011E-14,-2.9743638331573E-16));
#1316=DIRECTION('',(7.0898679892866E-14,1.,-6.7803956504768E-15));
#1317=AXIS2_PLACEMENT_3D('',#1314,#1316,#1315);
#1318=CIRCLE('',#1317,2.5);
#1319=EDGE_CURVE('',#1313,#1305,#1318,.T.);
#1320=ORIENTED_EDGE('',*,*,#1319,.F.);
#1321=CARTESIAN_POINT('',(-2.5,-11.,-4.9379077774866E-16));
#1322=DIRECTION('',(-2.5137125085853E-16,1.,1.3546764425172E-16));
#1323=VECTOR('',#1322,5.3);
#1324=LINE('',#1321,#1323);
#1325=EDGE_CURVE('',#1313,#157,#1324,.T.);
#1326=ORIENTED_EDGE('',*,*,#1325,.T.);
#1327=ORIENTED_EDGE('',*,*,#163,.F.);
#1328=ORIENTED_EDGE('',*,*,#1325,.F.);
#1329=CARTESIAN_POINT('',(-2.4494897427832,-11.,-0.49999999999987));
#1330=VERTEX_POINT('',#1329);
#1331=CARTESIAN_POINT('',(-2.0428103653103E-14,-11.,-1.6653345369377E-15));
#1332=DIRECTION('',(-0.97979589711332,3.9790393202566E-14,-0.19999999999979));
#1333=DIRECTION('',(3.9122957529007E-14,1.,8.4247842990993E-15));
#1334=AXIS2_PLACEMENT_3D('',#1331,#1333,#1332);
#1335=CIRCLE('',#1334,2.5);
#1336=EDGE_CURVE('',#1330,#1313,#1335,.T.);
#1337=ORIENTED_EDGE('',*,*,#1336,.F.);
#1338=CARTESIAN_POINT('',(-2.449489739312,-17.3,-0.50000001700526));
#1339=VERTEX_POINT('',#1338);
#1340=CARTESIAN_POINT('',(-2.4494897427832,-11.,-0.5));
#1341=DIRECTION('',(0.,-1.,0.));
#1342=VECTOR('',#1341,6.3);
#1343=LINE('',#1340,#1342);
#1344=EDGE_CURVE('',#1330,#1339,#1343,.T.);
#1345=ORIENTED_EDGE('',*,*,#1344,.T.);
#1346=CARTESIAN_POINT('',(2.4494897425933,-17.3,-0.50000000093024));
#1347=VERTEX_POINT('',#1346);
#1348=CARTESIAN_POINT('',(1.9984014443253E-15,-17.3,-1.5543122344752E-15));
#1349=DIRECTION('',(-0.97979589155938,-1.4210854715202E-15,-0.20000002720842));
#1350=DIRECTION('',(2.8488707524185E-16,-1.,-5.5995710140861E-16));
#1351=AXIS2_PLACEMENT_3D('',#1348,#1350,#1349);
#1352=CIRCLE('',#1351,2.5);
#1353=EDGE_CURVE('',#1339,#1347,#1352,.T.);
#1354=ORIENTED_EDGE('',*,*,#1353,.T.);
#1355=CARTESIAN_POINT('',(2.4494897427832,-17.3,-0.5));
#1356=DIRECTION('',(0.,1.,0.));
#1357=VECTOR('',#1356,6.535116000008);
#1358=LINE('',#1355,#1357);
#1359=EDGE_CURVE('',#1347,#1276,#1358,.T.);
#1360=ORIENTED_EDGE('',*,*,#1359,.T.);
#1361=EDGE_LOOP('',(#1286,#1294,#1303,#1311,#1320,#1326,#1327,#1328,#1337,#1345,#1354,#1360));
#1362=FACE_OUTER_BOUND('',#1361,.T.);
#1363=ADVANCED_FACE('',(#1362),#1274,.F.);
#1364=CARTESIAN_POINT('',(-0.028949158250063,-13.75,-0.5));
#1365=DIRECTION('',(-1.,0.,5.4906108108277E-16));
#1366=DIRECTION('',(5.4906108108277E-16,0.,1.));
#1367=AXIS2_PLACEMENT_3D('',#1364,#1366,#1365);
#1368=PLANE('',#1367);
#1369=ORIENTED_EDGE('',*,*,#1045,.T.);
#1370=CARTESIAN_POINT('',(-9.7872365862991,-17.5,-0.49999999999999));
#1371=DIRECTION('',(-0.70755817446818,0.70665509956644,3.9227238100372E-16));
#1372=VECTOR('',#1371,0.28302350060547);
#1373=LINE('',#1370,#1372);
#1374=EDGE_CURVE('',#1034,#1251,#1373,.T.);
#1375=ORIENTED_EDGE('',*,*,#1374,.T.);
#1376=ORIENTED_EDGE('',*,*,#1256,.F.);
#1377=EDGE_LOOP('',(#1369,#1375,#1376));
#1378=FACE_OUTER_BOUND('',#1377,.T.);
#1379=ADVANCED_FACE('',(#1378),#1368,.T.);
#1380=CARTESIAN_POINT('',(-6.1125136681972,-11.,-0.25));
#1381=DIRECTION('',(1.,0.,2.1452479615608E-16));
#1382=DIRECTION('',(0.,-1.,0.));
#1383=AXIS2_PLACEMENT_3D('',#1380,#1382,#1381);
#1384=PLANE('',#1383);
#1385=ORIENTED_EDGE('',*,*,#1218,.T.);
#1386=CARTESIAN_POINT('',(-9.9874921777191,-11.,0.50000000000001));
#1387=DIRECTION('',(0.,0.,-1.));
#1388=VECTOR('',#1387,1.);
#1389=LINE('',#1386,#1388);
#1390=EDGE_CURVE('',#1229,#1212,#1389,.T.);
#1391=ORIENTED_EDGE('',*,*,#1390,.F.);
#1392=ORIENTED_EDGE('',*,*,#1235,.T.);
#1393=EDGE_LOOP('',(#1385,#1391,#1392));
#1394=FACE_OUTER_BOUND('',#1393,.T.);
#1395=ADVANCED_FACE('',(#1394),#1384,.T.);
#1396=CARTESIAN_POINT('',(6.1521102957276,-14.098738520363,-3.1641356201817E-15));
#1397=DIRECTION('',(0.74314482547743,-0.66913060635881,-4.1223627848039E-16));
#1398=DIRECTION('',(0.66913060635881,0.74314482547743,-2.9715368226438E-16));
#1399=AXIS2_PLACEMENT_3D('',#1396,#1398,#1397);
#1400=PLANE('',#1399);
#1401=CARTESIAN_POINT('',(2.4494897427832,-10.764883999992,0.5));
#1402=DIRECTION('',(-4.4408920985006E-16,0.,-1.));
#1403=VECTOR('',#1402,1.);
#1404=LINE('',#1401,#1403);
#1405=EDGE_CURVE('',#1278,#1276,#1404,.T.);
#1406=ORIENTED_EDGE('',*,*,#1405,.F.);
#1407=ORIENTED_EDGE('',*,*,#1285,.F.);
#1408=EDGE_LOOP('',(#1406,#1407));
#1409=FACE_OUTER_BOUND('',#1408,.T.);
#1410=ADVANCED_FACE('',(#1409),#1400,.T.);
#1411=CARTESIAN_POINT('',(2.4494897427832,-14.132441999996,-1.3322676295502E-15));
#1412=DIRECTION('',(0.,1.,0.));
#1413=DIRECTION('',(-1.,0.,4.4408920985006E-16));
#1414=AXIS2_PLACEMENT_3D('',#1411,#1413,#1412);
#1415=PLANE('',#1414);
#1416=ORIENTED_EDGE('',*,*,#1359,.F.);
#1417=CARTESIAN_POINT('',(2.4494897427832,-17.3,0.5));
#1418=DIRECTION('',(-4.4408920985006E-16,0.,-1.));
#1419=VECTOR('',#1418,1.);
#1420=LINE('',#1417,#1419);
#1421=EDGE_CURVE('',#1288,#1347,#1420,.T.);
#1422=ORIENTED_EDGE('',*,*,#1421,.F.);
#1423=ORIENTED_EDGE('',*,*,#1293,.F.);
#1424=ORIENTED_EDGE('',*,*,#1405,.T.);
#1425=EDGE_LOOP('',(#1416,#1422,#1423,#1424));
#1426=FACE_OUTER_BOUND('',#1425,.T.);
#1427=ADVANCED_FACE('',(#1426),#1415,.T.);
#1428=CARTESIAN_POINT('',(-2.4494897427832,-14.25,1.3322676295502E-15));
#1429=DIRECTION('',(0.,-1.,0.));
#1430=DIRECTION('',(1.,0.,-4.4408920985006E-16));
#1431=AXIS2_PLACEMENT_3D('',#1428,#1430,#1429);
#1432=PLANE('',#1431);
#1433=ORIENTED_EDGE('',*,*,#1310,.F.);
#1434=CARTESIAN_POINT('',(-2.4494897427832,-17.3,0.5));
#1435=DIRECTION('',(4.4408920985006E-16,0.,-1.));
#1436=VECTOR('',#1435,1.);
#1437=LINE('',#1434,#1436);
#1438=EDGE_CURVE('',#1296,#1339,#1437,.T.);
#1439=ORIENTED_EDGE('',*,*,#1438,.T.);
#1440=ORIENTED_EDGE('',*,*,#1344,.F.);
#1441=CARTESIAN_POINT('',(-2.4494897427832,-11.,0.5));
#1442=DIRECTION('',(-4.4408920985006E-16,0.,-1.));
#1443=VECTOR('',#1442,1.);
#1444=LINE('',#1441,#1443);
#1445=EDGE_CURVE('',#1305,#1330,#1444,.T.);
#1446=ORIENTED_EDGE('',*,*,#1445,.F.);
#1447=EDGE_LOOP('',(#1433,#1439,#1440,#1446));
#1448=FACE_OUTER_BOUND('',#1447,.T.);
#1449=ADVANCED_FACE('',(#1448),#1432,.T.);
#1450=CARTESIAN_POINT('',(-6.2184909602511,-11.,3.441691376338E-15));
#1451=DIRECTION('',(1.,0.,-5.5967712003153E-16));
#1452=DIRECTION('',(0.,1.,0.));
#1453=AXIS2_PLACEMENT_3D('',#1450,#1452,#1451);
#1454=PLANE('',#1453);
#1455=ORIENTED_EDGE('',*,*,#1445,.T.);
#1456=ORIENTED_EDGE('',*,*,#1336,.T.);
#1457=ORIENTED_EDGE('',*,*,#1319,.T.);
#1458=EDGE_LOOP('',(#1455,#1456,#1457));
#1459=FACE_OUTER_BOUND('',#1458,.T.);
#1460=ADVANCED_FACE('',(#1459),#1454,.T.);
#1461=CARTESIAN_POINT('',(-9.9874921777191,-14.15,5.5511151231258E-15));
#1462=DIRECTION('',(0.,1.,0.));
#1463=DIRECTION('',(-1.,0.,0.));
#1464=AXIS2_PLACEMENT_3D('',#1461,#1463,#1462);
#1465=PLANE('',#1464);
#1466=ORIENTED_EDGE('',*,*,#1241,.F.);
#1467=ORIENTED_EDGE('',*,*,#1390,.T.);
#1468=ORIENTED_EDGE('',*,*,#1262,.F.);
#1469=CARTESIAN_POINT('',(-9.9874921777191,-17.3,0.50000000000001));
#1470=DIRECTION('',(0.,0.,-1.));
#1471=VECTOR('',#1470,1.);
#1472=LINE('',#1469,#1471);
#1473=EDGE_CURVE('',#1186,#1251,#1472,.T.);
#1474=ORIENTED_EDGE('',*,*,#1473,.F.);
#1475=EDGE_LOOP('',(#1466,#1467,#1468,#1474));
#1476=FACE_OUTER_BOUND('',#1475,.T.);
#1477=ADVANCED_FACE('',(#1476),#1465,.T.);
#1478=CARTESIAN_POINT('',(-9.8873643820091,-17.4,5.5511151231258E-15));
#1479=DIRECTION('',(-0.70755817446818,0.70665509956644,3.9227238100372E-16));
#1480=DIRECTION('',(-0.70665509956644,-0.70755817446818,-0.));
#1481=AXIS2_PLACEMENT_3D('',#1478,#1480,#1479);
#1482=PLANE('',#1481);
#1483=ORIENTED_EDGE('',*,*,#1199,.T.);
#1484=ORIENTED_EDGE('',*,*,#1473,.T.);
#1485=ORIENTED_EDGE('',*,*,#1374,.F.);
#1486=ORIENTED_EDGE('',*,*,#1039,.F.);
#1487=EDGE_LOOP('',(#1483,#1484,#1485,#1486));
#1488=FACE_OUTER_BOUND('',#1487,.T.);
#1489=ADVANCED_FACE('',(#1488),#1482,.T.);
#1490=CARTESIAN_POINT('',(9.8209837638435,-17.466296474167,-5.4400928206633E-15));
#1491=DIRECTION('',(-0.70756424548295,-0.70664902074095,0.));
#1492=DIRECTION('',(0.70664902074095,-0.70756424548295,0.));
#1493=AXIS2_PLACEMENT_3D('',#1490,#1492,#1491);
#1494=PLANE('',#1493);
#1495=ORIENTED_EDGE('',*,*,#1164,.T.);
#1496=ORIENTED_EDGE('',*,*,#1022,.T.);
#1497=ORIENTED_EDGE('',*,*,#1180,.T.);
#1498=ORIENTED_EDGE('',*,*,#1174,.T.);
#1499=EDGE_LOOP('',(#1495,#1496,#1497,#1498));
#1500=FACE_OUTER_BOUND('',#1499,.T.);
#1501=ADVANCED_FACE('',(#1500),#1494,.T.);
#1502=CARTESIAN_POINT('',(-6.2184909602512,-14.769001217468,-0.5));
#1503=DIRECTION('',(1.,-2.1423047656709E-16,-5.6235500098862E-16));
#1504=DIRECTION('',(-5.6235500098862E-16,-0.,-1.));
#1505=AXIS2_PLACEMENT_3D('',#1502,#1504,#1503);
#1506=PLANE('',#1505);
#1507=ORIENTED_EDGE('',*,*,#584,.T.);
#1508=EDGE_LOOP('',(#1507));
#1509=FACE_OUTER_BOUND('',#1508,.T.);
#1510=ORIENTED_EDGE('',*,*,#549,.F.);
#1511=EDGE_LOOP('',(#1510));
#1512=FACE_BOUND('',#1511,.T.);
#1513=ADVANCED_FACE('',(#1509,#1512),#1506,.T.);
#1514=CARTESIAN_POINT('',(-1.0117406081272E-15,-17.3,-4.5603251558533E-15));
#1515=DIRECTION('',(-1.,-1.0264211370408E-15,9.749278239677E-16));
#1516=DIRECTION('',(1.0264211370408E-15,-1.,7.5831595870107E-16));
#1517=AXIS2_PLACEMENT_3D('',#1514,#1516,#1515);
#1518=CONICAL_SURFACE('',#1517,2.5,0.78539816339748);
#1519=ORIENTED_EDGE('',*,*,#1353,.F.);
#1520=CARTESIAN_POINT('',(-2.4494897358408,-17.3,-0.50000003401052));
#1521=CARTESIAN_POINT('',(-2.4994847329192,-17.349994997078,-0.50505055503579));
#1522=CARTESIAN_POINT('',(-2.5994860081823,-17.44999570302,-0.51493025008169));
#1523=CARTESIAN_POINT('',(-2.6494878842553,-17.499999624038,-0.5198269704568));
#1524=B_SPLINE_CURVE_WITH_KNOTS('',3,(#1520,#1521,#1522,#1523),.UNSPECIFIED.,.F.,.U.,(4,4),(0.,0.99999749378442),.UNSPECIFIED.);
#1525=EDGE_CURVE('',#1339,#1050,#1524,.T.);
#1526=ORIENTED_EDGE('',*,*,#1525,.T.);
#1527=ORIENTED_EDGE('',*,*,#1058,.T.);
#1528=CARTESIAN_POINT('',(2.4494897424034,-17.3,-0.50000000186047));
#1529=CARTESIAN_POINT('',(2.5276157541502,-17.378126011747,-0.50789233181777));
#1530=CARTESIAN_POINT('',(2.5762976689938,-17.426807718546,-0.51267306587697));
#1531=CARTESIAN_POINT('',(2.6494895389616,-17.5,-0.5198137209146));
#1532=B_SPLINE_CURVE_WITH_KNOTS('',3,(#1528,#1529,#1530,#1531),.UNSPECIFIED.,.F.,.U.,(4,4),(0.,1.),.UNSPECIFIED.);
#1533=EDGE_CURVE('',#1347,#1052,#1532,.T.);
#1534=ORIENTED_EDGE('',*,*,#1533,.F.);
#1535=EDGE_LOOP('',(#1519,#1526,#1527,#1534));
#1536=FACE_OUTER_BOUND('',#1535,.T.);
#1537=ADVANCED_FACE('',(#1536),#1518,.F.);
#1538=CARTESIAN_POINT('',(-2.5494897427832,-17.4,-0.18264961476601));
#1539=DIRECTION('',(-0.70710678118654,-0.70710678118655,0.));
#1540=DIRECTION('',(0.70710678118655,-0.70710678118654,-1.4745145761E-17));
#1541=AXIS2_PLACEMENT_3D('',#1538,#1540,#1539);
#1542=PLANE('',#1541);
#1543=ORIENTED_EDGE('',*,*,#1438,.F.);
#1544=CARTESIAN_POINT('',(-2.449489589085,-17.3,0.50000075296317));
#1545=CARTESIAN_POINT('',(-2.5272078999347,-17.37771831085,0.50785192084027));
#1546=CARTESIAN_POINT('',(-2.5765294543707,-17.427039567865,0.51269633598527));
#1547=CARTESIAN_POINT('',(-2.6494896008213,-17.5,0.51981307816748));
#1548=B_SPLINE_CURVE_WITH_KNOTS('',3,(#1544,#1545,#1546,#1547),.UNSPECIFIED.,.F.,.U.,(4,4),(0.,1.),.UNSPECIFIED.);
#1549=EDGE_CURVE('',#1296,#1061,#1548,.T.);
#1550=ORIENTED_EDGE('',*,*,#1549,.T.);
#1551=ORIENTED_EDGE('',*,*,#1066,.T.);
#1552=ORIENTED_EDGE('',*,*,#1525,.F.);
#1553=EDGE_LOOP('',(#1543,#1550,#1551,#1552));
#1554=FACE_OUTER_BOUND('',#1553,.T.);
#1555=ADVANCED_FACE('',(#1554),#1542,.T.);
#1556=CARTESIAN_POINT('',(2.5494897427832,-17.4,-0.18264961476601));
#1557=DIRECTION('',(-0.70710678118655,0.70710678118654,0.));
#1558=DIRECTION('',(-0.70710678118654,-0.70710678118655,1.4745145761E-17));
#1559=AXIS2_PLACEMENT_3D('',#1556,#1558,#1557);
#1560=PLANE('',#1559);
#1561=ORIENTED_EDGE('',*,*,#1421,.T.);
#1562=ORIENTED_EDGE('',*,*,#1533,.T.);
#1563=ORIENTED_EDGE('',*,*,#1081,.F.);
#1564=CARTESIAN_POINT('',(2.4494897358907,-17.3,0.50000003376592));
#1565=CARTESIAN_POINT('',(2.5276042436837,-17.378114507793,0.50789120261571));
#1566=CARTESIAN_POINT('',(2.5763042108441,-17.426814260491,0.51267370471009));
#1567=CARTESIAN_POINT('',(2.6494895390186,-17.5,0.5198137203259));
#1568=B_SPLINE_CURVE_WITH_KNOTS('',3,(#1564,#1565,#1566,#1567),.UNSPECIFIED.,.F.,.U.,(4,4),(0.,1.),.UNSPECIFIED.);
#1569=EDGE_CURVE('',#1288,#1069,#1568,.T.);
#1570=ORIENTED_EDGE('',*,*,#1569,.F.);
#1571=EDGE_LOOP('',(#1561,#1562,#1563,#1570));
#1572=FACE_OUTER_BOUND('',#1571,.T.);
#1573=ADVANCED_FACE('',(#1572),#1560,.T.);
#1574=CARTESIAN_POINT('',(-7.8969600320209E-16,-17.3,-3.2280575263031E-15));
#1575=DIRECTION('',(-1.,-1.0264211370408E-15,4.8149536857874E-16));
#1576=DIRECTION('',(1.0264211370408E-15,-1.,7.5831595870107E-16));
#1577=AXIS2_PLACEMENT_3D('',#1574,#1576,#1575);
#1578=CONICAL_SURFACE('',#1577,2.5,0.78539816339747);
#1579=ORIENTED_EDGE('',*,*,#1302,.F.);
#1580=ORIENTED_EDGE('',*,*,#1569,.T.);
#1581=ORIENTED_EDGE('',*,*,#1075,.T.);
#1582=ORIENTED_EDGE('',*,*,#1549,.F.);
#1583=EDGE_LOOP('',(#1579,#1580,#1581,#1582));
#1584=FACE_OUTER_BOUND('',#1583,.T.);
#1585=ADVANCED_FACE('',(#1584),#1578,.F.);
#1586=CLOSED_SHELL('',(#150,#178,#225,#263,#301,#339,#377,#406,#417,#428,#439,#450,#461,#472,#503,#528,#571,#604,#644,#695,#724,#760,#792,#858,#941,#974,#1085,#1110,#1133,#1151,#1203,#1269,#1363,#1379,#1395,#1410,#1427,#1449,#1460,#1477,#1489,#1501,#1513,#1537,#1555,#1573,#1585));
#1587=COLOUR_RGB('',0.745098,0.901961,0.960784);
#1588=FILL_AREA_STYLE_COLOUR('',#1587);
#1589=FILL_AREA_STYLE('',(#1588));
#1590=SURFACE_STYLE_FILL_AREA(#1589);
#1591=SURFACE_SIDE_STYLE('',(#1590));
#1592=SURFACE_STYLE_USAGE(.BOTH.,#1591);
#1593=PRESENTATION_STYLE_ASSIGNMENT((#1592));
#1594=OVER_RIDING_STYLED_ITEM('',(#1593),#150,#1586);
#1595=OVER_RIDING_STYLED_ITEM('',(#1593),#178,#1586);
#1596=OVER_RIDING_STYLED_ITEM('',(#1593),#225,#1586);
#1597=OVER_RIDING_STYLED_ITEM('',(#1593),#263,#1586);
#1598=OVER_RIDING_STYLED_ITEM('',(#1593),#301,#1586);
#1599=OVER_RIDING_STYLED_ITEM('',(#1593),#339,#1586);
#1600=OVER_RIDING_STYLED_ITEM('',(#1593),#377,#1586);
#1601=OVER_RIDING_STYLED_ITEM('',(#1593),#406,#1586);
#1602=OVER_RIDING_STYLED_ITEM('',(#1593),#417,#1586);
#1603=OVER_RIDING_STYLED_ITEM('',(#1593),#428,#1586);
#1604=OVER_RIDING_STYLED_ITEM('',(#1593),#439,#1586);
#1605=OVER_RIDING_STYLED_ITEM('',(#1593),#450,#1586);
#1606=OVER_RIDING_STYLED_ITEM('',(#1593),#461,#1586);
#1607=OVER_RIDING_STYLED_ITEM('',(#1593),#472,#1586);
#1608=COLOUR_RGB('',0.54902,0.54902,0.921569);
#1609=FILL_AREA_STYLE_COLOUR('',#1608);
#1610=FILL_AREA_STYLE('',(#1609));
#1611=SURFACE_STYLE_FILL_AREA(#1610);
#1612=SURFACE_SIDE_STYLE('',(#1611));
#1613=SURFACE_STYLE_USAGE(.BOTH.,#1612);
#1614=PRESENTATION_STYLE_ASSIGNMENT((#1613));
#1615=OVER_RIDING_STYLED_ITEM('',(#1614),#503,#1586);
#1616=OVER_RIDING_STYLED_ITEM('',(#1593),#528,#1586);
#1617=OVER_RIDING_STYLED_ITEM('',(#1593),#571,#1586);
#1618=OVER_RIDING_STYLED_ITEM('',(#1593),#604,#1586);
#1619=OVER_RIDING_STYLED_ITEM('',(#1593),#644,#1586);
#1620=OVER_RIDING_STYLED_ITEM('',(#1593),#695,#1586);
#1621=OVER_RIDING_STYLED_ITEM('',(#1593),#724,#1586);
#1622=OVER_RIDING_STYLED_ITEM('',(#1593),#760,#1586);
#1623=OVER_RIDING_STYLED_ITEM('',(#1593),#792,#1586);
#1624=OVER_RIDING_STYLED_ITEM('',(#1593),#858,#1586);
#1625=OVER_RIDING_STYLED_ITEM('',(#1593),#941,#1586);
#1626=OVER_RIDING_STYLED_ITEM('',(#1593),#974,#1586);
#1627=OVER_RIDING_STYLED_ITEM('',(#1593),#1085,#1586);
#1628=OVER_RIDING_STYLED_ITEM('',(#1593),#1110,#1586);
#1629=OVER_RIDING_STYLED_ITEM('',(#1593),#1133,#1586);
#1630=OVER_RIDING_STYLED_ITEM('',(#1593),#1151,#1586);
#1631=OVER_RIDING_STYLED_ITEM('',(#1593),#1203,#1586);
#1632=OVER_RIDING_STYLED_ITEM('',(#1593),#1269,#1586);
#1633=OVER_RIDING_STYLED_ITEM('',(#1593),#1363,#1586);
#1634=OVER_RIDING_STYLED_ITEM('',(#1593),#1379,#1586);
#1635=OVER_RIDING_STYLED_ITEM('',(#1593),#1395,#1586);
#1636=OVER_RIDING_STYLED_ITEM('',(#1593),#1410,#1586);
#1637=OVER_RIDING_STYLED_ITEM('',(#1593),#1427,#1586);
#1638=OVER_RIDING_STYLED_ITEM('',(#1593),#1449,#1586);
#1639=OVER_RIDING_STYLED_ITEM('',(#1593),#1460,#1586);
#1640=OVER_RIDING_STYLED_ITEM('',(#1593),#1477,#1586);
#1641=OVER_RIDING_STYLED_ITEM('',(#1593),#1489,#1586);
#1642=OVER_RIDING_STYLED_ITEM('',(#1593),#1501,#1586);
#1643=OVER_RIDING_STYLED_ITEM('',(#1593),#1513,#1586);
#1644=OVER_RIDING_STYLED_ITEM('',(#1593),#1537,#1586);
#1645=OVER_RIDING_STYLED_ITEM('',(#1593),#1555,#1586);
#1646=OVER_RIDING_STYLED_ITEM('',(#1593),#1573,#1586);
#1647=OVER_RIDING_STYLED_ITEM('',(#1593),#1585,#1586);
#1648=MANIFOLD_SOLID_BREP('S1',#1586);
#1649=ADVANCED_BREP_SHAPE_REPRESENTATION('',(#1648),#5);
#1650=SHAPE_REPRESENTATION_RELATIONSHIP('NONE', 'NONE', #28, #1649);
#1651=PRESENTATION_LAYER_ASSIGNMENT('Í¼²ã000','',(#1648));
#1652=MECHANICAL_DESIGN_GEOMETRIC_PRESENTATION_REPRESENTATION('',(#1594,#1595,#1596,#1597,#1598,#1599,#1600,#1601,#1602,#1603,#1604,#1605,#1606,#1607,#1615,#1616,#1617,#1618,#1619,#1620,#1621,#1622,#1623,#1624,#1625,#1626,#1627,#1628,#1629,#1630,#1631,#1632,#1633,#1634,#1635,#1636,#1637,#1638,#1639,#1640,#1641,#1642,#1643,#1644,#1645,#1646,#1647),#5);
ENDSEC;
END-ISO-10303-21;
