ISO-10303-21;
HEADER;
FILE_DESCRIPTION(
  ('This file contains a STEP AP42 implementation'
    ,'as created by ZW3D STEP Interface translator.')
  ,'2;1'
  );
FILE_NAME(
  'ÖáÖ±¾¶6mm-Áù½ÇÁªÖáÆ÷£¨±§½ôÊ½£©.stp'
  ,'24 514.141016',
  (''),
  ('ZWCAD Software Co.'),
  'Version 1.0',
  'ZW3D to STEP translator',
  ''
  );
FILE_SCHEMA(('AUTOMOTIVE_DESIGN { 1 0 10303 214 1 1 1 1 }'));
ENDSEC;

DATA;

/**File Base Unit**/
#1 = (LENGTH_UNIT()NAMED_UNIT(*)SI_UNIT(.MILLI.,.METRE.));
#2 = (NAMED_UNIT(*)PLANE_ANGLE_UNIT()SI_UNIT($,.RADIAN.));
#3 = (NAMED_UNIT(*)SI_UNIT($,.STERADIAN.)SOLID_ANGLE_UNIT());
#4 = UNCERTAINTY_MEASURE_WITH_UNIT(LENGTH_MEASURE(0.01),#1,'DISTANCE_ACCURACY_VALUE','Maximum Tolerance applied to model');
#5 = (GEOMETRIC_REPRESENTATION_CONTEXT(3)GLOBAL_UNCERTAINTY_ASSIGNED_CONTEXT((#4))GLOBAL_UNIT_ASSIGNED_CONTEXT((#1,#2,#3))REPRESENTATION_CONTEXT('STEP 203','TOP_LEVEL_ASSEMBLY_PART'));

/**product_definition_shape**/
#6=APPLICATION_CONTEXT('mechanical parts and assemblies' );
#7=DESIGN_CONTEXT('NONE',#6,'design');
#8=MECHANICAL_CONTEXT('NONE',#6,'mechanical');
#9=PRODUCT('0','Part','',(#8));
#10=PRODUCT_DEFINITION_FORMATION_WITH_SPECIFIED_SOURCE('ANY','',#9,.NOT_KNOWN.);
#11=PRODUCT_DEFINITION('UNKNOWN','',#10,#7);
#12=PRODUCT_DEFINITION_SHAPE('NONE','NONE',#11);
#13=PRODUCT_RELATED_PRODUCT_CATEGORY('detail','',(#9));
/**geometry information**/
#14=CARTESIAN_POINT('',(0.,0.,0.));
#15=DIRECTION('',(0.,0.,1.));
#16=DIRECTION('',(1.,0.,0.));
#17=AXIS2_PLACEMENT_3D('',#14,#15,#16);
#18=APPLICATION_CONTEXT('part');
#19=MECHANICAL_CONTEXT('none',#18,'component');
#20=PRODUCT('ÖáÖ±¾¶6mm-Áù½ÇÁªÖáÆ÷£¨±§½ôÊ½£©','ÖáÖ±¾¶6mm-Áù½ÇÁªÖáÆ÷£¨±§½ôÊ½£©','',(#19));
#21=PRODUCT_RELATED_PRODUCT_CATEGORY('detail','',(#20));
#22=PRODUCT_DEFINITION_FORMATION_WITH_SPECIFIED_SOURCE('ANY','UNSPECIFIED',#20,.NOT_KNOWN.);
#23=APPLICATION_CONTEXT('part');
#24=APPLICATION_PROTOCOL_DEFINITION('international standard','config_control_design',1994,#23);
#25=DESIGN_CONTEXT('detailed',#23,'design');
#26=PRODUCT_DEFINITION('','UNSPECIFIED',#22,#25);
#27=PRODUCT_DEFINITION_SHAPE('NONE','NONE',#26);
#28=SHAPE_REPRESENTATION('ÖáÖ±¾¶6mm-Áù½ÇÁªÖáÆ÷£¨±§½ôÊ½£©',(#17),#5);
#29=SHAPE_DEFINITION_REPRESENTATION(#27,#28);
#30=CARTESIAN_POINT('',(0.92820323027551,0.,-1.7763568394003E-15));
#31=DIRECTION('',(1.,0.,0.));
#32=DIRECTION('',(-0.,1.,0.));
#33=AXIS2_PLACEMENT_3D('',#30,#32,#31);
#34=PLANE('',#33);
#35=CARTESIAN_POINT('',(1.2579847610448,3.7490927222831E-18,-6.2019053898498));
#36=VERTEX_POINT('',#35);
#37=CARTESIAN_POINT('',(-1.2579847610448,3.7493752143339E-18,-6.2019053898498));
#38=VERTEX_POINT('',#37);
#39=CARTESIAN_POINT('',(-4.5239893041965E-15,7.5108506851092E-18,-2.1316282072803E-14));
#40=DIRECTION('',(0.19879019609015,-1.7043080470251E-33,-0.98004206947377));
#41=DIRECTION('',(1.2785067225649E-48,1.,-1.8108320785625E-33));
#42=AXIS2_PLACEMENT_3D('',#39,#41,#40);
#43=CIRCLE('',#42,6.3282032302755);
#44=EDGE_CURVE('',#36,#38,#43,.T.);
#45=ORIENTED_EDGE('',*,*,#44,.T.);
#46=CARTESIAN_POINT('',(-4.7420152389552,-4.2025661092995E-16,-4.1903994555634));
#47=VERTEX_POINT('',#46);
#48=CARTESIAN_POINT('',(-1.2579847610448,3.7493752143339E-18,-6.2019053898498));
#49=DIRECTION('',(-0.86602540378444,-1.0539516163414E-16,0.49999999999999));
#50=VECTOR('',#49,4.0230118685728);
#51=LINE('',#48,#50);
#52=EDGE_CURVE('',#38,#47,#51,.T.);
#53=ORIENTED_EDGE('',*,*,#52,.T.);
#54=CARTESIAN_POINT('',(-5.9999999999999,2.1529781277974E-16,-2.0115059342866));
#55=VERTEX_POINT('',#54);
#56=CARTESIAN_POINT('',(-2.6645352591004E-14,7.5108506851092E-18,-1.8207657603853E-14));
#57=DIRECTION('',(-0.74934623089669,1.2173628907322E-33,-0.66217839457425));
#58=DIRECTION('',(1.0729971350685E-33,1.,6.1949518477152E-34));
#59=AXIS2_PLACEMENT_3D('',#56,#58,#57);
#60=CIRCLE('',#59,6.3282032302755);
#61=EDGE_CURVE('',#47,#55,#60,.T.);
#62=ORIENTED_EDGE('',*,*,#61,.T.);
#63=CARTESIAN_POINT('',(-5.9999999999999,2.1549490428975E-16,2.0115059342866));
#64=VERTEX_POINT('',#63);
#65=CARTESIAN_POINT('',(-5.9999999999999,2.1529781277974E-16,-2.0115059342866));
#66=DIRECTION('',(0.,4.8991033695334E-20,1.));
#67=VECTOR('',#66,4.0230118685732);
#68=LINE('',#65,#67);
#69=EDGE_CURVE('',#55,#64,#68,.T.);
#70=ORIENTED_EDGE('',*,*,#69,.T.);
#71=CARTESIAN_POINT('',(-4.7420152387226,3.7554277004033E-18,4.1903994558267));
#72=VERTEX_POINT('',#71);
#73=CARTESIAN_POINT('',(1.4210854715202E-14,7.5108506851092E-18,-4.8849813083507E-15));
#74=DIRECTION('',(-0.94813642698683,-7.3041773443931E-34,0.31786367489956));
#75=DIRECTION('',(-9.079206524847E-34,1.,5.2418823314848E-34));
#76=AXIS2_PLACEMENT_3D('',#73,#75,#74);
#77=CIRCLE('',#76,6.3282032302755);
#78=EDGE_CURVE('',#64,#72,#77,.T.);
#79=ORIENTED_EDGE('',*,*,#78,.T.);
#80=CARTESIAN_POINT('',(-1.2579847610448,2.1503492426013E-16,6.2019053898498));
#81=VERTEX_POINT('',#80);
#82=CARTESIAN_POINT('',(-4.7420152387226,3.7554277004033E-18,4.1903994558267));
#83=DIRECTION('',(0.86602540379833,5.2517741304147E-17,0.49999999997594));
#84=VECTOR('',#83,4.0230118682398);
#85=LINE('',#82,#84);
#86=EDGE_CURVE('',#72,#81,#85,.T.);
#87=ORIENTED_EDGE('',*,*,#86,.T.);
#88=CARTESIAN_POINT('',(1.2579847610448,3.7520007846875E-18,6.2019053898498));
#89=VERTEX_POINT('',#88);
#90=CARTESIAN_POINT('',(-1.95360591988E-15,7.5108506851092E-18,-2.7533531010704E-14));
#91=DIRECTION('',(-0.19879019609015,-1.2173628907322E-33,0.98004206947377));
#92=DIRECTION('',(5.3831862002733E-49,1.,1.5249112240527E-33));
#93=AXIS2_PLACEMENT_3D('',#90,#92,#91);
#94=CIRCLE('',#93,6.3282032302755);
#95=EDGE_CURVE('',#81,#89,#94,.T.);
#96=ORIENTED_EDGE('',*,*,#95,.T.);
#97=CARTESIAN_POINT('',(4.7420152389551,3.7688906466611E-18,4.1903994555635));
#98=VERTEX_POINT('',#97);
#99=CARTESIAN_POINT('',(1.2579847610448,3.7520007846875E-18,6.2019053898498));
#100=DIRECTION('',(0.86602540378445,4.1983127381605E-21,-0.49999999999999));
#101=VECTOR('',#100,4.0230118685727);
#102=LINE('',#99,#101);
#103=EDGE_CURVE('',#89,#98,#102,.T.);
#104=ORIENTED_EDGE('',*,*,#103,.T.);
#105=CARTESIAN_POINT('',(5.9999999999999,3.7554253425546E-18,2.0115059342866));
#106=VERTEX_POINT('',#105);
#107=CARTESIAN_POINT('',(1.7763568394003E-14,7.5108506851092E-18,1.3766765505352E-14));
#108=DIRECTION('',(0.74934623089667,-2.1912532033179E-33,0.66217839457426));
#109=DIRECTION('',(1.8158413055003E-33,1.,1.0483764665363E-33));
#110=AXIS2_PLACEMENT_3D('',#107,#109,#108);
#111=CIRCLE('',#110,6.3282032302755);
#112=EDGE_CURVE('',#98,#106,#111,.T.);
#113=ORIENTED_EDGE('',*,*,#112,.T.);
#114=CARTESIAN_POINT('',(5.9999999999999,3.7569047679425E-18,-2.0115059342866));
#115=VERTEX_POINT('',#114);
#116=CARTESIAN_POINT('',(5.9999999999999,3.7554253425546E-18,2.0115059342866));
#117=DIRECTION('',(0.,3.6774074654299E-22,-1.));
#118=VECTOR('',#117,4.0230118685732);
#119=LINE('',#116,#118);
#120=EDGE_CURVE('',#106,#115,#119,.T.);
#121=ORIENTED_EDGE('',*,*,#120,.T.);
#122=CARTESIAN_POINT('',(4.7420152389552,3.7554253425546E-18,-4.1903994555634));
#123=VERTEX_POINT('',#122);
#124=CARTESIAN_POINT('',(-1.1546319456102E-14,7.5108506851092E-18,7.9936057773011E-15));
#125=DIRECTION('',(0.94813642698683,2.4347257814644E-34,-0.31786367489956));
#126=DIRECTION('',(-4.952294469547E-34,1.,2.8592085450993E-34));
#127=AXIS2_PLACEMENT_3D('',#124,#126,#125);
#128=CIRCLE('',#127,6.3282032302755);
#129=EDGE_CURVE('',#115,#123,#128,.T.);
#130=ORIENTED_EDGE('',*,*,#129,.T.);
#131=CARTESIAN_POINT('',(4.7420152389552,3.7554253425546E-18,-4.1903994555634));
#132=DIRECTION('',(-0.86602540378444,-1.5740993261714E-21,-0.49999999999999));
#133=VECTOR('',#132,4.0230118685728);
#134=LINE('',#131,#133);
#135=EDGE_CURVE('',#123,#36,#134,.T.);
#136=ORIENTED_EDGE('',*,*,#135,.T.);
#137=EDGE_LOOP('',(#45,#53,#62,#70,#79,#87,#96,#104,#113,#121,#130,#136));
#138=FACE_OUTER_BOUND('',#137,.T.);
#139=CARTESIAN_POINT('',(4.0792946741241E-16,1.1102230246252E-15,1.65));
#140=VERTEX_POINT('',#139);
#141=CARTESIAN_POINT('',(4.864340903466E-16,1.6462861212869E-15,-6.6613381477509E-16));
#142=DIRECTION('',(-4.7578559354054E-17,-3.2488672524957E-16,1.));
#143=DIRECTION('',(-8.6317667658298E-16,-1.,-3.2488672524957E-16));
#144=AXIS2_PLACEMENT_3D('',#141,#143,#142);
#145=CIRCLE('',#144,1.65);
#146=EDGE_CURVE('',#140,#140,#145,.T.);
#147=ORIENTED_EDGE('',*,*,#146,.T.);
#148=EDGE_LOOP('',(#147));
#149=FACE_BOUND('',#148,.T.);
#150=ADVANCED_FACE('',(#138,#149),#34,.T.);
#151=CARTESIAN_POINT('',(0.,-5.7,-3.5527136788005E-15));
#152=DIRECTION('',(1.,0.,0.));
#153=DIRECTION('',(0.,-1.,0.));
#154=AXIS2_PLACEMENT_3D('',#151,#153,#152);
#155=PLANE('',#154);
#156=CARTESIAN_POINT('',(3.,-5.7,-1.7871142065334E-15));
#157=VERTEX_POINT('',#156);
#158=CARTESIAN_POINT('',(-8.8817841970013E-16,-5.7,-2.886178927612E-15));
#159=DIRECTION('',(1.,-4.6948709738445E-16,3.6635490702621E-16));
#160=DIRECTION('',(-4.6948709738445E-16,-1.,4.1869132231567E-16));
#161=AXIS2_PLACEMENT_3D('',#158,#160,#159);
#162=CIRCLE('',#161,3.);
#163=EDGE_CURVE('',#157,#157,#162,.T.);
#164=ORIENTED_EDGE('',*,*,#163,.T.);
#165=EDGE_LOOP('',(#164));
#166=FACE_OUTER_BOUND('',#165,.T.);
#167=CARTESIAN_POINT('',(-8.8817841970013E-16,-5.7,1.65));
#168=VERTEX_POINT('',#167);
#169=CARTESIAN_POINT('',(-1.0451876655685E-15,-5.7,-1.3322676295502E-15));
#170=DIRECTION('',(9.5157118708107E-17,3.8062847483243E-16,1.));
#171=DIRECTION('',(-3.8062847483243E-16,1.,-3.8062847483243E-16));
#172=AXIS2_PLACEMENT_3D('',#169,#171,#170);
#173=CIRCLE('',#172,1.65);
#174=EDGE_CURVE('',#168,#168,#173,.T.);
#175=ORIENTED_EDGE('',*,*,#174,.T.);
#176=EDGE_LOOP('',(#175));
#177=FACE_BOUND('',#176,.T.);
#178=ADVANCED_FACE('',(#166,#177),#155,.T.);
#179=CARTESIAN_POINT('',(3.,-3.25,5.1961524227066));
#180=DIRECTION('',(-0.86602540378444,0.,0.5));
#181=DIRECTION('',(0.5,0.,0.86602540378444));
#182=AXIS2_PLACEMENT_3D('',#179,#181,#180);
#183=PLANE('',#182);
#184=CARTESIAN_POINT('',(-3.9968028886506E-15,-6.5,6.9282032302755));
#185=VERTEX_POINT('',#184);
#186=CARTESIAN_POINT('',(6.,-6.5,3.4641016151378));
#187=VERTEX_POINT('',#186);
#188=CARTESIAN_POINT('',(-3.9968028886506E-15,-6.5,6.9282032302755));
#189=DIRECTION('',(0.86602540378444,0.,-0.49999999999999));
#190=VECTOR('',#189,6.9282032302755);
#191=LINE('',#188,#190);
#192=EDGE_CURVE('',#185,#187,#191,.T.);
#193=ORIENTED_EDGE('',*,*,#192,.T.);
#194=CARTESIAN_POINT('',(6.,-0.5,3.4641016151378));
#195=VERTEX_POINT('',#194);
#196=CARTESIAN_POINT('',(6.,-6.5,3.4641016151378));
#197=DIRECTION('',(0.,1.,0.));
#198=VECTOR('',#197,6.);
#199=LINE('',#196,#198);
#200=EDGE_CURVE('',#187,#195,#199,.T.);
#201=ORIENTED_EDGE('',*,*,#200,.T.);
#202=CARTESIAN_POINT('',(6.,-0.5,3.4641016151377));
#203=CARTESIAN_POINT('',(5.3425387105439,-0.18367878962563,3.843687067587));
#204=CARTESIAN_POINT('',(4.7420152389552,0.,4.1903994555634));
#205=(BOUNDED_CURVE()B_SPLINE_CURVE(2,(#202,#203,#204),.HYPERBOLIC_ARC.,.F.,.U.)B_SPLINE_CURVE_WITH_KNOTS((3,3),(0.,1.),.UNSPECIFIED.)CURVE()GEOMETRIC_REPRESENTATION_ITEM()RATIONAL_B_SPLINE_CURVE((1.,1.030249184346,1.0486688926839))REPRESENTATION_ITEM(''));
#206=EDGE_CURVE('',#195,#98,#205,.T.);
#207=ORIENTED_EDGE('',*,*,#206,.T.);
#208=ORIENTED_EDGE('',*,*,#103,.F.);
#209=CARTESIAN_POINT('',(-5.519254741926E-15,-0.5,6.9282032302755));
#210=VERTEX_POINT('',#209);
#211=CARTESIAN_POINT('',(1.2579847610448,0.,6.2019053898498));
#212=CARTESIAN_POINT('',(0.65746128945611,-0.18367878962563,6.5486177778263));
#213=CARTESIAN_POINT('',(-5.3290705182008E-15,-0.5,6.9282032302755));
#214=(BOUNDED_CURVE()B_SPLINE_CURVE(2,(#211,#212,#213),.HYPERBOLIC_ARC.,.F.,.U.)B_SPLINE_CURVE_WITH_KNOTS((3,3),(0.,1.),.UNSPECIFIED.)CURVE()GEOMETRIC_REPRESENTATION_ITEM()RATIONAL_B_SPLINE_CURVE((1.0486688926839,1.030249184346,1.))REPRESENTATION_ITEM(''));
#215=EDGE_CURVE('',#89,#210,#214,.T.);
#216=ORIENTED_EDGE('',*,*,#215,.T.);
#217=CARTESIAN_POINT('',(-5.519254741926E-15,-0.5,6.9282032302755));
#218=DIRECTION('',(2.537419755459E-16,-1.,0.));
#219=VECTOR('',#218,6.);
#220=LINE('',#217,#219);
#221=EDGE_CURVE('',#210,#185,#220,.T.);
#222=ORIENTED_EDGE('',*,*,#221,.T.);
#223=EDGE_LOOP('',(#193,#201,#207,#208,#216,#222));
#224=FACE_OUTER_BOUND('',#223,.T.);
#225=ADVANCED_FACE('',(#224),#183,.T.);
#226=CARTESIAN_POINT('',(-3.,-3.25,5.1961524227066));
#227=DIRECTION('',(-0.86602540378444,0.,-0.5));
#228=DIRECTION('',(-0.5,0.,0.86602540378444));
#229=AXIS2_PLACEMENT_3D('',#226,#228,#227);
#230=PLANE('',#229);
#231=CARTESIAN_POINT('',(-6.,-6.5,3.4641016151378));
#232=VERTEX_POINT('',#231);
#233=CARTESIAN_POINT('',(-6.,-6.5,3.4641016151378));
#234=DIRECTION('',(0.86602540378444,0.,0.49999999999999));
#235=VECTOR('',#234,6.9282032302755);
#236=LINE('',#233,#235);
#237=EDGE_CURVE('',#232,#185,#236,.T.);
#238=ORIENTED_EDGE('',*,*,#237,.T.);
#239=ORIENTED_EDGE('',*,*,#221,.F.);
#240=CARTESIAN_POINT('',(-1.3322676295502E-15,-0.5,6.9282032302755));
#241=CARTESIAN_POINT('',(-0.65746128945612,-0.18367878962563,6.5486177778263));
#242=CARTESIAN_POINT('',(-1.2579847610448,4.234789578944E-16,6.2019053898498));
#243=(BOUNDED_CURVE()B_SPLINE_CURVE(2,(#240,#241,#242),.HYPERBOLIC_ARC.,.F.,.U.)B_SPLINE_CURVE_WITH_KNOTS((3,3),(0.,1.),.UNSPECIFIED.)CURVE()GEOMETRIC_REPRESENTATION_ITEM()RATIONAL_B_SPLINE_CURVE((1.,1.030249184346,1.0486688926839))REPRESENTATION_ITEM(''));
#244=EDGE_CURVE('',#210,#81,#243,.T.);
#245=ORIENTED_EDGE('',*,*,#244,.T.);
#246=ORIENTED_EDGE('',*,*,#86,.F.);
#247=CARTESIAN_POINT('',(-6.,-0.5,3.4641016151378));
#248=VERTEX_POINT('',#247);
#249=CARTESIAN_POINT('',(-4.7420152389552,4.234789578944E-16,4.1903994555634));
#250=CARTESIAN_POINT('',(-5.3425387105439,-0.18367878962563,3.843687067587));
#251=CARTESIAN_POINT('',(-6.,-0.5,3.4641016151378));
#252=(BOUNDED_CURVE()B_SPLINE_CURVE(2,(#249,#250,#251),.HYPERBOLIC_ARC.,.F.,.U.)B_SPLINE_CURVE_WITH_KNOTS((3,3),(0.,1.),.UNSPECIFIED.)CURVE()GEOMETRIC_REPRESENTATION_ITEM()RATIONAL_B_SPLINE_CURVE((1.0486688926839,1.030249184346,1.))REPRESENTATION_ITEM(''));
#253=EDGE_CURVE('',#72,#248,#252,.T.);
#254=ORIENTED_EDGE('',*,*,#253,.T.);
#255=CARTESIAN_POINT('',(-6.,-0.5,3.4641016151378));
#256=DIRECTION('',(0.,-1.,0.));
#257=VECTOR('',#256,6.);
#258=LINE('',#255,#257);
#259=EDGE_CURVE('',#248,#232,#258,.T.);
#260=ORIENTED_EDGE('',*,*,#259,.T.);
#261=EDGE_LOOP('',(#238,#239,#245,#246,#254,#260));
#262=FACE_OUTER_BOUND('',#261,.T.);
#263=ADVANCED_FACE('',(#262),#230,.T.);
#264=CARTESIAN_POINT('',(-6.,-3.25,-2.2204460492503E-15));
#265=DIRECTION('',(5.1279004970228E-16,0.,-1.));
#266=DIRECTION('',(-1.,-0.,-5.1279004970228E-16));
#267=AXIS2_PLACEMENT_3D('',#264,#266,#265);
#268=PLANE('',#267);
#269=CARTESIAN_POINT('',(-6.,-6.5,-3.4641016151378));
#270=VERTEX_POINT('',#269);
#271=CARTESIAN_POINT('',(-6.,-6.5,-3.4641016151378));
#272=DIRECTION('',(0.,0.,1.));
#273=VECTOR('',#272,6.9282032302756);
#274=LINE('',#271,#273);
#275=EDGE_CURVE('',#270,#232,#274,.T.);
#276=ORIENTED_EDGE('',*,*,#275,.T.);
#277=ORIENTED_EDGE('',*,*,#259,.F.);
#278=CARTESIAN_POINT('',(-6.,-0.5,3.4641016151377));
#279=CARTESIAN_POINT('',(-6.,-0.18367878962563,2.7049307102393));
#280=CARTESIAN_POINT('',(-6.,4.234789578944E-16,2.0115059342864));
#281=(BOUNDED_CURVE()B_SPLINE_CURVE(2,(#278,#279,#280),.HYPERBOLIC_ARC.,.F.,.U.)B_SPLINE_CURVE_WITH_KNOTS((3,3),(0.,1.),.UNSPECIFIED.)CURVE()GEOMETRIC_REPRESENTATION_ITEM()RATIONAL_B_SPLINE_CURVE((1.,1.030249184346,1.0486688926839))REPRESENTATION_ITEM(''));
#282=EDGE_CURVE('',#248,#64,#281,.T.);
#283=ORIENTED_EDGE('',*,*,#282,.T.);
#284=ORIENTED_EDGE('',*,*,#69,.F.);
#285=CARTESIAN_POINT('',(-6.,-0.5,-3.4641016151378));
#286=VERTEX_POINT('',#285);
#287=CARTESIAN_POINT('',(-6.,4.234789578944E-16,-2.0115059342864));
#288=CARTESIAN_POINT('',(-6.,-0.18367878962563,-2.7049307102393));
#289=CARTESIAN_POINT('',(-6.,-0.5,-3.4641016151377));
#290=(BOUNDED_CURVE()B_SPLINE_CURVE(2,(#287,#288,#289),.HYPERBOLIC_ARC.,.F.,.U.)B_SPLINE_CURVE_WITH_KNOTS((3,3),(0.,1.),.UNSPECIFIED.)CURVE()GEOMETRIC_REPRESENTATION_ITEM()RATIONAL_B_SPLINE_CURVE((1.0486688926839,1.030249184346,1.))REPRESENTATION_ITEM(''));
#291=EDGE_CURVE('',#55,#286,#290,.T.);
#292=ORIENTED_EDGE('',*,*,#291,.T.);
#293=CARTESIAN_POINT('',(-6.,-0.5,-3.4641016151378));
#294=DIRECTION('',(0.,-1.,0.));
#295=VECTOR('',#294,6.);
#296=LINE('',#293,#295);
#297=EDGE_CURVE('',#286,#270,#296,.T.);
#298=ORIENTED_EDGE('',*,*,#297,.T.);
#299=EDGE_LOOP('',(#276,#277,#283,#284,#292,#298));
#300=FACE_OUTER_BOUND('',#299,.T.);
#301=ADVANCED_FACE('',(#300),#268,.T.);
#302=CARTESIAN_POINT('',(-3.,-3.25,-5.1961524227066));
#303=DIRECTION('',(0.86602540378444,0.,-0.5));
#304=DIRECTION('',(-0.5,-0.,-0.86602540378444));
#305=AXIS2_PLACEMENT_3D('',#302,#304,#303);
#306=PLANE('',#305);
#307=CARTESIAN_POINT('',(1.3322676295502E-15,-6.5,-6.9282032302755));
#308=VERTEX_POINT('',#307);
#309=CARTESIAN_POINT('',(1.3322676295502E-15,-6.5,-6.9282032302755));
#310=DIRECTION('',(-0.86602540378444,0.,0.49999999999999));
#311=VECTOR('',#310,6.9282032302755);
#312=LINE('',#309,#311);
#313=EDGE_CURVE('',#308,#270,#312,.T.);
#314=ORIENTED_EDGE('',*,*,#313,.T.);
#315=ORIENTED_EDGE('',*,*,#297,.F.);
#316=CARTESIAN_POINT('',(-6.,-0.5,-3.4641016151378));
#317=CARTESIAN_POINT('',(-5.3425387105439,-0.18367878962563,-3.843687067587));
#318=CARTESIAN_POINT('',(-4.7420152389551,-8.4695791578879E-16,-4.1903994555635));
#319=(BOUNDED_CURVE()B_SPLINE_CURVE(2,(#316,#317,#318),.HYPERBOLIC_ARC.,.F.,.U.)B_SPLINE_CURVE_WITH_KNOTS((3,3),(0.,1.),.UNSPECIFIED.)CURVE()GEOMETRIC_REPRESENTATION_ITEM()RATIONAL_B_SPLINE_CURVE((1.,1.030249184346,1.0486688926839))REPRESENTATION_ITEM(''));
#320=EDGE_CURVE('',#286,#47,#319,.T.);
#321=ORIENTED_EDGE('',*,*,#320,.T.);
#322=ORIENTED_EDGE('',*,*,#52,.F.);
#323=CARTESIAN_POINT('',(1.7763568394003E-15,-0.5,-6.9282032302755));
#324=VERTEX_POINT('',#323);
#325=CARTESIAN_POINT('',(-1.2579847610448,4.234789578944E-16,-6.2019053898498));
#326=CARTESIAN_POINT('',(-0.65746128945612,-0.18367878962563,-6.5486177778263));
#327=CARTESIAN_POINT('',(4.4408920985006E-16,-0.5,-6.9282032302755));
#328=(BOUNDED_CURVE()B_SPLINE_CURVE(2,(#325,#326,#327),.HYPERBOLIC_ARC.,.F.,.U.)B_SPLINE_CURVE_WITH_KNOTS((3,3),(0.,1.),.UNSPECIFIED.)CURVE()GEOMETRIC_REPRESENTATION_ITEM()RATIONAL_B_SPLINE_CURVE((1.0486688926839,1.030249184346,1.))REPRESENTATION_ITEM(''));
#329=EDGE_CURVE('',#38,#324,#328,.T.);
#330=ORIENTED_EDGE('',*,*,#329,.T.);
#331=CARTESIAN_POINT('',(1.7763568394003E-15,-0.5,-6.9282032302755));
#332=DIRECTION('',(-7.401486830835E-17,-1.,0.));
#333=VECTOR('',#332,6.);
#334=LINE('',#331,#333);
#335=EDGE_CURVE('',#324,#308,#334,.T.);
#336=ORIENTED_EDGE('',*,*,#335,.T.);
#337=EDGE_LOOP('',(#314,#315,#321,#322,#330,#336));
#338=FACE_OUTER_BOUND('',#337,.T.);
#339=ADVANCED_FACE('',(#338),#306,.T.);
#340=CARTESIAN_POINT('',(3.,-3.25,-5.1961524227066));
#341=DIRECTION('',(0.86602540378444,0.,0.5));
#342=DIRECTION('',(0.5,0.,-0.86602540378444));
#343=AXIS2_PLACEMENT_3D('',#340,#342,#341);
#344=PLANE('',#343);
#345=CARTESIAN_POINT('',(6.,-6.5,-3.4641016151378));
#346=VERTEX_POINT('',#345);
#347=CARTESIAN_POINT('',(6.,-6.5,-3.4641016151378));
#348=DIRECTION('',(-0.86602540378444,0.,-0.49999999999999));
#349=VECTOR('',#348,6.9282032302755);
#350=LINE('',#347,#349);
#351=EDGE_CURVE('',#346,#308,#350,.T.);
#352=ORIENTED_EDGE('',*,*,#351,.T.);
#353=ORIENTED_EDGE('',*,*,#335,.F.);
#354=CARTESIAN_POINT('',(3.5527136788005E-15,-0.5,-6.9282032302755));
#355=CARTESIAN_POINT('',(0.65746128945612,-0.18367878962563,-6.5486177778263));
#356=CARTESIAN_POINT('',(1.2579847610448,-8.4695791578879E-16,-6.2019053898498));
#357=(BOUNDED_CURVE()B_SPLINE_CURVE(2,(#354,#355,#356),.HYPERBOLIC_ARC.,.F.,.U.)B_SPLINE_CURVE_WITH_KNOTS((3,3),(0.,1.),.UNSPECIFIED.)CURVE()GEOMETRIC_REPRESENTATION_ITEM()RATIONAL_B_SPLINE_CURVE((1.,1.030249184346,1.0486688926839))REPRESENTATION_ITEM(''));
#358=EDGE_CURVE('',#324,#36,#357,.T.);
#359=ORIENTED_EDGE('',*,*,#358,.T.);
#360=ORIENTED_EDGE('',*,*,#135,.F.);
#361=CARTESIAN_POINT('',(6.,-0.5,-3.4641016151378));
#362=VERTEX_POINT('',#361);
#363=CARTESIAN_POINT('',(4.7420152389552,-4.234789578944E-16,-4.1903994555634));
#364=CARTESIAN_POINT('',(5.3425387105439,-0.18367878962563,-3.843687067587));
#365=CARTESIAN_POINT('',(6.,-0.5,-3.4641016151377));
#366=(BOUNDED_CURVE()B_SPLINE_CURVE(2,(#363,#364,#365),.HYPERBOLIC_ARC.,.F.,.U.)B_SPLINE_CURVE_WITH_KNOTS((3,3),(0.,1.),.UNSPECIFIED.)CURVE()GEOMETRIC_REPRESENTATION_ITEM()RATIONAL_B_SPLINE_CURVE((1.0486688926839,1.030249184346,1.))REPRESENTATION_ITEM(''));
#367=EDGE_CURVE('',#123,#362,#366,.T.);
#368=ORIENTED_EDGE('',*,*,#367,.T.);
#369=CARTESIAN_POINT('',(6.,-0.5,-3.4641016151378));
#370=DIRECTION('',(0.,-1.,0.));
#371=VECTOR('',#370,6.);
#372=LINE('',#369,#371);
#373=EDGE_CURVE('',#362,#346,#372,.T.);
#374=ORIENTED_EDGE('',*,*,#373,.T.);
#375=EDGE_LOOP('',(#352,#353,#359,#360,#368,#374));
#376=FACE_OUTER_BOUND('',#375,.T.);
#377=ADVANCED_FACE('',(#376),#344,.T.);
#378=CARTESIAN_POINT('',(6.,-3.25,0.));
#379=DIRECTION('',(0.,0.,1.));
#380=DIRECTION('',(1.,0.,-0.));
#381=AXIS2_PLACEMENT_3D('',#378,#380,#379);
#382=PLANE('',#381);
#383=CARTESIAN_POINT('',(6.,-6.5,3.4641016151378));
#384=DIRECTION('',(0.,0.,-1.));
#385=VECTOR('',#384,6.9282032302756);
#386=LINE('',#383,#385);
#387=EDGE_CURVE('',#187,#346,#386,.T.);
#388=ORIENTED_EDGE('',*,*,#387,.T.);
#389=ORIENTED_EDGE('',*,*,#373,.F.);
#390=CARTESIAN_POINT('',(6.,-0.5,-3.4641016151378));
#391=CARTESIAN_POINT('',(6.,-0.18367878962563,-2.7049307102393));
#392=CARTESIAN_POINT('',(6.,-8.4695791578879E-16,-2.0115059342864));
#393=(BOUNDED_CURVE()B_SPLINE_CURVE(2,(#390,#391,#392),.HYPERBOLIC_ARC.,.F.,.U.)B_SPLINE_CURVE_WITH_KNOTS((3,3),(0.,1.),.UNSPECIFIED.)CURVE()GEOMETRIC_REPRESENTATION_ITEM()RATIONAL_B_SPLINE_CURVE((1.,1.030249184346,1.0486688926839))REPRESENTATION_ITEM(''));
#394=EDGE_CURVE('',#362,#115,#393,.T.);
#395=ORIENTED_EDGE('',*,*,#394,.T.);
#396=ORIENTED_EDGE('',*,*,#120,.F.);
#397=CARTESIAN_POINT('',(6.,-8.4695791578879E-16,2.0115059342864));
#398=CARTESIAN_POINT('',(6.,-0.18367878962563,2.7049307102393));
#399=CARTESIAN_POINT('',(6.,-0.5,3.4641016151378));
#400=(BOUNDED_CURVE()B_SPLINE_CURVE(2,(#397,#398,#399),.HYPERBOLIC_ARC.,.F.,.U.)B_SPLINE_CURVE_WITH_KNOTS((3,3),(0.,1.),.UNSPECIFIED.)CURVE()GEOMETRIC_REPRESENTATION_ITEM()RATIONAL_B_SPLINE_CURVE((1.0486688926839,1.030249184346,1.))REPRESENTATION_ITEM(''));
#401=EDGE_CURVE('',#106,#195,#400,.T.);
#402=ORIENTED_EDGE('',*,*,#401,.T.);
#403=ORIENTED_EDGE('',*,*,#200,.F.);
#404=EDGE_LOOP('',(#388,#389,#395,#396,#402,#403));
#405=FACE_OUTER_BOUND('',#404,.T.);
#406=ADVANCED_FACE('',(#405),#382,.T.);
#407=CARTESIAN_POINT('',(4.4408920985006E-15,5.2735026918963,-6.6613381477509E-16));
#408=DIRECTION('',(-0.86602540378443,0.,-0.50000000000001));
#409=DIRECTION('',(-0.,-1.,-0.));
#410=AXIS2_PLACEMENT_3D('',#407,#409,#408);
#411=CONICAL_SURFACE('',#410,0.,0.87605805059819);
#412=ORIENTED_EDGE('',*,*,#112,.F.);
#413=ORIENTED_EDGE('',*,*,#206,.F.);
#414=ORIENTED_EDGE('',*,*,#401,.F.);
#415=EDGE_LOOP('',(#412,#413,#414));
#416=FACE_OUTER_BOUND('',#415,.T.);
#417=ADVANCED_FACE('',(#416),#411,.T.);
#418=CARTESIAN_POINT('',(4.4408920985006E-15,5.2735026918963,-6.6613381477509E-16));
#419=DIRECTION('',(1.1908264898071E-15,-9.0287769189246E-17,-1.));
#420=DIRECTION('',(2.8181705074501E-16,-1.,9.0287769189247E-17));
#421=AXIS2_PLACEMENT_3D('',#418,#420,#419);
#422=CONICAL_SURFACE('',#421,0.,0.87605805059819);
#423=ORIENTED_EDGE('',*,*,#95,.F.);
#424=ORIENTED_EDGE('',*,*,#244,.F.);
#425=ORIENTED_EDGE('',*,*,#215,.F.);
#426=EDGE_LOOP('',(#423,#424,#425));
#427=FACE_OUTER_BOUND('',#426,.T.);
#428=ADVANCED_FACE('',(#427),#422,.T.);
#429=CARTESIAN_POINT('',(4.4408920985006E-15,5.2735026918963,-6.6613381477509E-16));
#430=DIRECTION('',(0.86602540377994,6.0237220554791E-17,-0.50000000000778));
#431=DIRECTION('',(1.4118657949082E-16,-1.,1.2406788791218E-16));
#432=AXIS2_PLACEMENT_3D('',#429,#431,#430);
#433=CONICAL_SURFACE('',#432,0.,0.87605805059819);
#434=ORIENTED_EDGE('',*,*,#78,.F.);
#435=ORIENTED_EDGE('',*,*,#282,.F.);
#436=ORIENTED_EDGE('',*,*,#253,.F.);
#437=EDGE_LOOP('',(#434,#435,#436));
#438=FACE_OUTER_BOUND('',#437,.T.);
#439=ADVANCED_FACE('',(#438),#433,.T.);
#440=CARTESIAN_POINT('',(4.4408920985006E-15,5.2735026918963,-6.6613381477509E-16));
#441=DIRECTION('',(0.86602540378444,0.,0.50000000000001));
#442=DIRECTION('',(-0.,-1.,-0.));
#443=AXIS2_PLACEMENT_3D('',#440,#442,#441);
#444=CONICAL_SURFACE('',#443,0.,0.87605805059819);
#445=ORIENTED_EDGE('',*,*,#61,.F.);
#446=ORIENTED_EDGE('',*,*,#320,.F.);
#447=ORIENTED_EDGE('',*,*,#291,.F.);
#448=EDGE_LOOP('',(#445,#446,#447));
#449=FACE_OUTER_BOUND('',#448,.T.);
#450=ADVANCED_FACE('',(#449),#444,.T.);
#451=CARTESIAN_POINT('',(7.8825834748386E-15,5.2735026918962,-1.2168044349892E-13));
#452=DIRECTION('',(1.3145301570387E-15,1.1940088487451E-16,1.));
#453=DIRECTION('',(1.9576930943611E-16,-1.,1.1940088487451E-16));
#454=AXIS2_PLACEMENT_3D('',#451,#453,#452);
#455=CONICAL_SURFACE('',#454,0.,0.87605805059819);
#456=ORIENTED_EDGE('',*,*,#329,.F.);
#457=ORIENTED_EDGE('',*,*,#44,.F.);
#458=ORIENTED_EDGE('',*,*,#358,.F.);
#459=EDGE_LOOP('',(#456,#457,#458));
#460=FACE_OUTER_BOUND('',#459,.T.);
#461=ADVANCED_FACE('',(#460),#455,.T.);
#462=CARTESIAN_POINT('',(4.4408920985006E-15,5.2735026918963,-6.6613381477509E-16));
#463=DIRECTION('',(-0.86602540378444,0.,0.5));
#464=DIRECTION('',(-0.,-1.,-0.));
#465=AXIS2_PLACEMENT_3D('',#462,#464,#463);
#466=CONICAL_SURFACE('',#465,0.,0.87605805059819);
#467=ORIENTED_EDGE('',*,*,#129,.F.);
#468=ORIENTED_EDGE('',*,*,#394,.F.);
#469=ORIENTED_EDGE('',*,*,#367,.F.);
#470=EDGE_LOOP('',(#467,#468,#469));
#471=FACE_OUTER_BOUND('',#470,.T.);
#472=ADVANCED_FACE('',(#471),#466,.T.);
#473=CARTESIAN_POINT('',(-2.2742750443837E-15,-10.,1.65));
#474=CARTESIAN_POINT('',(1.65,-10.,1.65));
#475=CARTESIAN_POINT('',(1.65,-10.,2.2624822217785E-15));
#476=CARTESIAN_POINT('',(1.65,-10.,-1.65));
#477=CARTESIAN_POINT('',(-2.0722083225243E-15,-10.,-1.65));
#478=CARTESIAN_POINT('',(-1.65,-10.,-1.65));
#479=CARTESIAN_POINT('',(-1.65,-10.,1.8583487780598E-15));
#480=CARTESIAN_POINT('',(-1.65,-10.,1.65));
#481=CARTESIAN_POINT('',(-2.2742750443837E-15,-10.,1.65));
#482=CARTESIAN_POINT('',(8.2089217578345E-16,1.5,1.65));
#483=CARTESIAN_POINT('',(1.65,1.5,1.65));
#484=CARTESIAN_POINT('',(1.65,1.5,-8.3268499838864E-16));
#485=CARTESIAN_POINT('',(1.65,1.5,-1.65));
#486=CARTESIAN_POINT('',(1.0229588976428E-15,1.5,-1.65));
#487=CARTESIAN_POINT('',(-1.65,1.5,-1.65));
#488=CARTESIAN_POINT('',(-1.65,1.5,-1.2368184421073E-15));
#489=CARTESIAN_POINT('',(-1.65,1.5,1.65));
#490=CARTESIAN_POINT('',(8.2089217578345E-16,1.5,1.65));
#491=(BOUNDED_SURFACE()B_SPLINE_SURFACE(1,2,((#473,#474,#475,#476,#477,#478,#479,#480,#481),(#482,#483,#484,#485,#486,#487,#488,#489,#490)),.UNSPECIFIED.,.F.,.T.,.U.)B_SPLINE_SURFACE_WITH_KNOTS((2,2),(3,2,2,2,3),(-0.4375,1.),(0.,0.25,0.5,0.75,1.),.UNSPECIFIED.)GEOMETRIC_REPRESENTATION_ITEM()RATIONAL_B_SPLINE_SURFACE(((1.,0.70710678118655,1.,0.70710678118655,1.,0.70710678118655,1.,0.70710678118655,1.),(1.,0.70710678118655,1.,0.70710678118655,1.,0.70710678118655,1.,0.70710678118655,1.)))REPRESENTATION_ITEM('')SURFACE());
#492=ORIENTED_EDGE('',*,*,#146,.F.);
#493=CARTESIAN_POINT('',(4.0792946741241E-16,1.1102230246252E-15,1.65));
#494=DIRECTION('',(-2.2738734861624E-16,-1.,0.));
#495=VECTOR('',#494,5.7);
#496=LINE('',#493,#495);
#497=EDGE_CURVE('',#140,#168,#496,.T.);
#498=ORIENTED_EDGE('',*,*,#497,.T.);
#499=ORIENTED_EDGE('',*,*,#174,.F.);
#500=ORIENTED_EDGE('',*,*,#497,.F.);
#501=EDGE_LOOP('',(#492,#498,#499,#500));
#502=FACE_OUTER_BOUND('',#501,.T.);
#503=ADVANCED_FACE('',(#502),#491,.T.);
#504=CARTESIAN_POINT('',(2.6794919243112,-6.5,0.));
#505=DIRECTION('',(-1.,0.,-1.4234208012425E-16));
#506=DIRECTION('',(0.,1.,0.));
#507=AXIS2_PLACEMENT_3D('',#504,#506,#505);
#508=PLANE('',#507);
#509=CARTESIAN_POINT('',(-9.8,-6.5,-1.2356809999524E-15));
#510=VERTEX_POINT('',#509);
#511=CARTESIAN_POINT('',(1.5987211554602E-14,-6.5,-1.8637179834259E-15));
#512=DIRECTION('',(-1.,-9.6128109715333E-17,6.4085406476889E-17));
#513=DIRECTION('',(-9.6128109715333E-17,1.,9.6128109715333E-17));
#514=AXIS2_PLACEMENT_3D('',#511,#513,#512);
#515=CIRCLE('',#514,9.8);
#516=EDGE_CURVE('',#510,#510,#515,.T.);
#517=ORIENTED_EDGE('',*,*,#516,.T.);
#518=EDGE_LOOP('',(#517));
#519=FACE_OUTER_BOUND('',#518,.T.);
#520=ORIENTED_EDGE('',*,*,#237,.F.);
#521=ORIENTED_EDGE('',*,*,#275,.F.);
#522=ORIENTED_EDGE('',*,*,#313,.F.);
#523=ORIENTED_EDGE('',*,*,#351,.F.);
#524=ORIENTED_EDGE('',*,*,#387,.F.);
#525=ORIENTED_EDGE('',*,*,#192,.F.);
#526=EDGE_LOOP('',(#520,#521,#522,#523,#524,#525));
#527=FACE_BOUND('',#526,.T.);
#528=ADVANCED_FACE('',(#519,#527),#508,.T.);
#529=CARTESIAN_POINT('',(-6.1874921777191,-14.4,8.8038110516423));
#530=DIRECTION('',(0.,-1.,0.));
#531=DIRECTION('',(-5.727836140073E-16,-7.6371148534307E-16,-1.));
#532=AXIS2_PLACEMENT_3D('',#529,#531,#530);
#533=CYLINDRICAL_SURFACE('',#532,1.25);
#534=CARTESIAN_POINT('',(-6.1874921777191,-15.65,7.8558857266786));
#535=VERTEX_POINT('',#534);
#536=CARTESIAN_POINT('',(-6.1874921777191,-15.65,7.8558857266807));
#537=CARTESIAN_POINT('',(-6.0219615558007,-15.65,7.9862617866092));
#538=CARTESIAN_POINT('',(-5.5130075529608,-15.551358607546,8.3616945063464));
#539=CARTESIAN_POINT('',(-5.0735317750322,-15.115001647118,8.6181772106519));
#540=CARTESIAN_POINT('',(-4.8330342557214,-14.112289336427,8.7559933929781));
#541=CARTESIAN_POINT('',(-5.1288583213803,-13.558843794913,8.6017032065074));
#542=CARTESIAN_POINT('',(-6.0153965860444,-13.065020144144,8.005700989857));
#543=CARTESIAN_POINT('',(-6.5220131030091,-13.11453690755,7.5977234367553));
#544=CARTESIAN_POINT('',(-7.2542143287217,-13.615039552548,6.9010946675212));
#545=CARTESIAN_POINT('',(-7.5265388222939,-14.101216813723,6.586403393407));
#546=CARTESIAN_POINT('',(-7.3177493706754,-15.103740477153,6.8168859129472));
#547=CARTESIAN_POINT('',(-6.8774816131869,-15.538498022146,7.2836848162863));
#548=CARTESIAN_POINT('',(-6.3634830059632,-15.65,7.7172709465022));
#549=CARTESIAN_POINT('',(-6.1874921777191,-15.65,7.8558857266807));
#550=B_SPLINE_CURVE_WITH_KNOTS('',3,(#536,#537,#538,#539,#540,#541,#542,#543,#544,#545,#546,#547,#548,#549),.UNSPECIFIED.,.T.,.U.,(4,1,2,2,2,2,1,4),(0.,0.3185246272809,0.9555738818426,1.8269908919925,2.670987429976,3.4932496404278,4.1599163070945,4.4932496404278),.UNSPECIFIED.);
#551=EDGE_CURVE('',#535,#535,#550,.T.);
#552=ORIENTED_EDGE('',*,*,#551,.T.);
#553=CARTESIAN_POINT('',(-6.1874921777191,-15.65,-0.5));
#554=VERTEX_POINT('',#553);
#555=CARTESIAN_POINT('',(-6.1874921777191,-15.65,7.8558857266786));
#556=DIRECTION('',(0.,0.,-1.));
#557=VECTOR('',#556,8.3558857266786);
#558=LINE('',#555,#557);
#559=EDGE_CURVE('',#535,#554,#558,.T.);
#560=ORIENTED_EDGE('',*,*,#559,.T.);
#561=CARTESIAN_POINT('',(-6.1874921777191,-14.4,-0.5));
#562=DIRECTION('',(3.9745342502886E-32,-1.,9.7361592362738E-17));
#563=DIRECTION('',(-4.0822403925778E-16,-9.7361592362738E-17,-1.));
#564=AXIS2_PLACEMENT_3D('',#561,#563,#562);
#565=CIRCLE('',#564,1.25);
#566=EDGE_CURVE('',#554,#554,#565,.T.);
#567=ORIENTED_EDGE('',*,*,#566,.T.);
#568=ORIENTED_EDGE('',*,*,#559,.F.);
#569=EDGE_LOOP('',(#552,#560,#567,#568));
#570=FACE_OUTER_BOUND('',#569,.T.);
#571=ADVANCED_FACE('',(#570),#533,.F.);
#572=CARTESIAN_POINT('',(-6.1874921777191,-14.4,-0.5));
#573=DIRECTION('',(-1.1102230246252E-15,1.,-1.0408340855861E-16));
#574=DIRECTION('',(-4.4408920985006E-16,0.,-1.));
#575=AXIS2_PLACEMENT_3D('',#572,#574,#573);
#576=CYLINDRICAL_SURFACE('',#575,1.6);
#577=CARTESIAN_POINT('',(-6.1874921777191,-12.8,-0.5));
#578=VERTEX_POINT('',#577);
#579=CARTESIAN_POINT('',(-6.1874921777191,-14.4,-0.5));
#580=DIRECTION('',(-3.9252311467094E-16,1.,-1.5392229640031E-17));
#581=DIRECTION('',(5.3971928267255E-16,1.5392229640031E-17,1.));
#582=AXIS2_PLACEMENT_3D('',#579,#581,#580);
#583=CIRCLE('',#582,1.6);
#584=EDGE_CURVE('',#578,#578,#583,.T.);
#585=ORIENTED_EDGE('',*,*,#584,.T.);
#586=CARTESIAN_POINT('',(-6.1874921777191,-12.8,-4.5));
#587=VERTEX_POINT('',#586);
#588=CARTESIAN_POINT('',(-6.1874921777191,-12.8,-0.5));
#589=DIRECTION('',(0.,0.,-1.));
#590=VECTOR('',#589,4.);
#591=LINE('',#588,#590);
#592=EDGE_CURVE('',#578,#587,#591,.T.);
#593=ORIENTED_EDGE('',*,*,#592,.T.);
#594=CARTESIAN_POINT('',(-6.1874921777191,-14.4,-4.5));
#595=DIRECTION('',(3.9252311467094E-16,1.,-6.2245783170025E-16));
#596=DIRECTION('',(-1.1775693440128E-15,-6.2245783170025E-16,-1.));
#597=AXIS2_PLACEMENT_3D('',#594,#596,#595);
#598=CIRCLE('',#597,1.6);
#599=EDGE_CURVE('',#587,#587,#598,.T.);
#600=ORIENTED_EDGE('',*,*,#599,.T.);
#601=ORIENTED_EDGE('',*,*,#592,.F.);
#602=EDGE_LOOP('',(#585,#593,#600,#601));
#603=FACE_OUTER_BOUND('',#602,.T.);
#604=ADVANCED_FACE('',(#603),#576,.F.);
#605=CARTESIAN_POINT('',(-3.2873656054256,-16.634296541761,-9.5));
#606=DIRECTION('',(-9.9380096050287E-17,1.,0.));
#607=DIRECTION('',(-1.,-9.9380096050287E-17,5.7731597280508E-16));
#608=AXIS2_PLACEMENT_3D('',#605,#607,#606);
#609=PLANE('',#608);
#610=CARTESIAN_POINT('',(-3.2873656054256,-14.4,-4.5));
#611=VERTEX_POINT('',#610);
#612=CARTESIAN_POINT('',(-3.2873656054256,-14.4,-9.2442166099823));
#613=VERTEX_POINT('',#612);
#614=CARTESIAN_POINT('',(-3.2873656054256,-14.4,-4.5));
#615=DIRECTION('',(0.,0.,-1.));
#616=VECTOR('',#615,4.7442166099823);
#617=LINE('',#614,#616);
#618=EDGE_CURVE('',#611,#613,#617,.T.);
#619=ORIENTED_EDGE('',*,*,#618,.T.);
#620=CARTESIAN_POINT('',(-3.2873656054256,-17.3,-9.2442166099823));
#621=VERTEX_POINT('',#620);
#622=CARTESIAN_POINT('',(-3.2873656054256,-14.4,-9.2442166099823));
#623=DIRECTION('',(0.,-1.,0.));
#624=VECTOR('',#623,2.9);
#625=LINE('',#622,#624);
#626=EDGE_CURVE('',#613,#621,#625,.T.);
#627=ORIENTED_EDGE('',*,*,#626,.T.);
#628=CARTESIAN_POINT('',(-3.2873656054256,-17.3,-4.5));
#629=VERTEX_POINT('',#628);
#630=CARTESIAN_POINT('',(-3.2873656054256,-17.3,-9.2442166099823));
#631=DIRECTION('',(0.,0.,1.));
#632=VECTOR('',#631,4.7442166099823);
#633=LINE('',#630,#632);
#634=EDGE_CURVE('',#621,#629,#633,.T.);
#635=ORIENTED_EDGE('',*,*,#634,.T.);
#636=CARTESIAN_POINT('',(-3.2873656054256,-17.3,-4.5));
#637=DIRECTION('',(0.,1.,0.));
#638=VECTOR('',#637,2.9);
#639=LINE('',#636,#638);
#640=EDGE_CURVE('',#629,#611,#639,.T.);
#641=ORIENTED_EDGE('',*,*,#640,.T.);
#642=EDGE_LOOP('',(#619,#627,#635,#641));
#643=FACE_OUTER_BOUND('',#642,.T.);
#644=ADVANCED_FACE('',(#643),#609,.T.);
#645=CARTESIAN_POINT('',(-6.1874921777191,-14.4,-4.5));
#646=DIRECTION('',(4.364458064157E-05,0.99999999904758,3.0625505389502E-16));
#647=DIRECTION('',(-9.3606436290378E-16,0.,-1.));
#648=AXIS2_PLACEMENT_3D('',#645,#647,#646);
#649=CYLINDRICAL_SURFACE('',#648,2.9001265722935);
#650=CARTESIAN_POINT('',(-6.1873656026635,-11.499873430469,-4.5));
#651=VERTEX_POINT('',#650);
#652=CARTESIAN_POINT('',(-6.1874921777191,-14.4,-4.5));
#653=DIRECTION('',(1.,0.,-6.1251010779004E-16));
#654=DIRECTION('',(5.8353762671036E-16,-2.8997949412116E-17,1.));
#655=AXIS2_PLACEMENT_3D('',#652,#654,#653);
#656=CIRCLE('',#655,2.9001265722935);
#657=EDGE_CURVE('',#611,#651,#656,.T.);
#658=ORIENTED_EDGE('',*,*,#657,.T.);
#659=CARTESIAN_POINT('',(-6.1873656026635,-11.499873430469,-7.5997863202986));
#660=VERTEX_POINT('',#659);
#661=CARTESIAN_POINT('',(-6.1873656026635,-11.499873430469,-4.5));
#662=DIRECTION('',(0.,0.,-1.));
#663=VECTOR('',#662,3.0997863202986);
#664=LINE('',#661,#663);
#665=EDGE_CURVE('',#651,#660,#664,.T.);
#666=ORIENTED_EDGE('',*,*,#665,.T.);
#667=CARTESIAN_POINT('',(-6.1873656026635,-11.499873430469,-7.5997863202986));
#668=CARTESIAN_POINT('',(-6.1420723124064,-11.49987139671,-7.6366552625738));
#669=CARTESIAN_POINT('',(-6.0568623364241,-11.502545283668,-7.7043621706199));
#670=CARTESIAN_POINT('',(-5.9576828681819,-11.508376209775,-7.7816265779228));
#671=CARTESIAN_POINT('',(-5.8044842214671,-11.523726472171,-7.8974626957946));
#672=CARTESIAN_POINT('',(-5.580235981085,-11.56103594959,-8.059063920168));
#673=CARTESIAN_POINT('',(-5.3213421208681,-11.628985988435,-8.233427882488));
#674=CARTESIAN_POINT('',(-5.0710700231664,-11.720110840449,-8.3913866965093));
#675=CARTESIAN_POINT('',(-4.8312095209678,-11.8331249979,-8.5332443520401));
#676=CARTESIAN_POINT('',(-4.60063629968,-11.968787985562,-8.660899026922));
#677=CARTESIAN_POINT('',(-4.3790423396814,-12.128589344933,-8.7753858162849));
#678=CARTESIAN_POINT('',(-4.1907975433887,-12.293697248989,-8.8666121508145));
#679=CARTESIAN_POINT('',(-4.0134408903819,-12.47533012753,-8.948799392608));
#680=CARTESIAN_POINT('',(-3.8352574436347,-12.697629403982,-9.0272118545718));
#681=CARTESIAN_POINT('',(-3.6800845705941,-12.935857233699,-9.0925088959708));
#682=CARTESIAN_POINT('',(-3.5493264233332,-13.187242871646,-9.1452924166706));
#683=CARTESIAN_POINT('',(-3.4446180478159,-13.447729545032,-9.1860430698317));
#684=CARTESIAN_POINT('',(-3.3654750496292,-13.716807542481,-9.2157976779755));
#685=CARTESIAN_POINT('',(-3.3203902917794,-13.9524612067,-9.2323056683144));
#686=CARTESIAN_POINT('',(-3.2982002924542,-14.13546077027,-9.2403345142466));
#687=CARTESIAN_POINT('',(-3.2873660834864,-14.310161737182,-9.2442188640078));
#688=CARTESIAN_POINT('',(-3.2873656054256,-14.4,-9.2442166099823));
#689=B_SPLINE_CURVE_WITH_KNOTS('',2,(#667,#668,#669,#670,#671,#672,#673,#674,#675,#676,#677,#678,#679,#680,#681,#682,#683,#684,#685,#686,#687,#688),.UNSPECIFIED.,.F.,.U.,(3,1,1,1,1,1,1,1,1,1,1,1,1,1,1,1,1,1,1,1,3),(0.,0.023611777528222,0.044014682779751,0.074496227452051,0.12189451536658,0.18720243071873,0.25088145016711,0.31232352730292,0.37228661304741,0.43208527516157,0.49184621510515,0.53974704999062,0.59964360283313,0.65898721024925,0.71748822533911,0.77529799633759,0.83209338358298,0.8891211563425,0.9292476144502,0.96368978312483,1.),.UNSPECIFIED.);
#690=EDGE_CURVE('',#660,#613,#689,.T.);
#691=ORIENTED_EDGE('',*,*,#690,.T.);
#692=ORIENTED_EDGE('',*,*,#618,.F.);
#693=EDGE_LOOP('',(#658,#666,#691,#692));
#694=FACE_OUTER_BOUND('',#693,.T.);
#695=ADVANCED_FACE('',(#694),#649,.F.);
#696=CARTESIAN_POINT('',(-9.2565526930137,-11.499873430469,-9.5));
#697=DIRECTION('',(-1.,-5.7877111662084E-16,5.7877111662084E-16));
#698=DIRECTION('',(5.7877111662084E-16,-1.,-4.1124161253138E-31));
#699=AXIS2_PLACEMENT_3D('',#696,#698,#697);
#700=PLANE('',#699);
#701=CARTESIAN_POINT('',(-8.7057445724941,-11.499873430469,-4.499999999376));
#702=VERTEX_POINT('',#701);
#703=CARTESIAN_POINT('',(-6.1873656026635,-11.499873430469,-4.5));
#704=DIRECTION('',(-1.,0.,2.4777859661977E-10));
#705=VECTOR('',#704,2.5183789698306);
#706=LINE('',#703,#705);
#707=EDGE_CURVE('',#651,#702,#706,.T.);
#708=ORIENTED_EDGE('',*,*,#707,.T.);
#709=CARTESIAN_POINT('',(-8.70574457217,-11.499873430469,-4.5));
#710=CARTESIAN_POINT('',(-8.6455726693095,-11.499873430469,-4.6152213649628));
#711=CARTESIAN_POINT('',(-8.4678196067028,-11.499873430469,-4.9391651808381));
#712=CARTESIAN_POINT('',(-8.1984503094694,-11.499873430469,-5.3758519254573));
#713=CARTESIAN_POINT('',(-7.8856322134053,-11.499873430469,-5.8250971788569));
#714=CARTESIAN_POINT('',(-7.548251856239,-11.499873430469,-6.2560971751048));
#715=CARTESIAN_POINT('',(-7.1871896738914,-11.499873430469,-6.6677730104733));
#716=CARTESIAN_POINT('',(-6.6123523360312,-11.499873430469,-7.2536808838719));
#717=CARTESIAN_POINT('',(-6.1873656026635,-11.499873430469,-7.5997863202986));
#718=B_SPLINE_CURVE_WITH_KNOTS('',2,(#709,#710,#711,#712,#713,#714,#715,#716,#717),.UNSPECIFIED.,.F.,.U.,(3,1,1,1,1,1,1,3),(0.34208178646133,0.38461614042119,0.46295212309899,0.55246002649751,0.64197953454601,0.73151417293937,0.82105938509913,1.),.UNSPECIFIED.);
#719=EDGE_CURVE('',#702,#660,#718,.T.);
#720=ORIENTED_EDGE('',*,*,#719,.T.);
#721=ORIENTED_EDGE('',*,*,#665,.F.);
#722=EDGE_LOOP('',(#708,#720,#721));
#723=FACE_OUTER_BOUND('',#722,.T.);
#724=ADVANCED_FACE('',(#723),#700,.T.);
#725=CARTESIAN_POINT('',(-7.8065526943948,-11.553158983254,-4.5));
#726=DIRECTION('',(0.,1.,0.));
#727=DIRECTION('',(-5.8960499015502E-16,0.,-1.));
#728=AXIS2_PLACEMENT_3D('',#725,#727,#726);
#729=PLANE('',#728);
#730=ORIENTED_EDGE('',*,*,#640,.F.);
#731=CARTESIAN_POINT('',(-8.7302855497459,-17.3,-4.5));
#732=VERTEX_POINT('',#731);
#733=CARTESIAN_POINT('',(-3.2873656054256,-17.3,-4.5));
#734=DIRECTION('',(-1.,0.,0.));
#735=VECTOR('',#734,5.4429199443203);
#736=LINE('',#733,#735);
#737=EDGE_CURVE('',#629,#732,#736,.T.);
#738=ORIENTED_EDGE('',*,*,#737,.T.);
#739=CARTESIAN_POINT('',(-8.7302855497459,-11.478087293628,-4.5));
#740=VERTEX_POINT('',#739);
#741=CARTESIAN_POINT('',(-8.7302855497459,-17.3,-4.5));
#742=DIRECTION('',(0.,1.,0.));
#743=VECTOR('',#742,5.821912706372);
#744=LINE('',#741,#743);
#745=EDGE_CURVE('',#732,#740,#744,.T.);
#746=ORIENTED_EDGE('',*,*,#745,.T.);
#747=CARTESIAN_POINT('',(-8.7302855497459,-11.478087293628,-4.5));
#748=CARTESIAN_POINT('',(-8.7180170528762,-11.4889826056,-4.5000000000067));
#749=CARTESIAN_POINT('',(-8.7057445724941,-11.499873430469,-4.499999999376));
#750=B_SPLINE_CURVE_WITH_KNOTS('',2,(#747,#748,#749),.UNSPECIFIED.,.F.,.U.,(3,3),(0.,1.),.UNSPECIFIED.);
#751=EDGE_CURVE('',#740,#702,#750,.T.);
#752=ORIENTED_EDGE('',*,*,#751,.T.);
#753=ORIENTED_EDGE('',*,*,#707,.F.);
#754=ORIENTED_EDGE('',*,*,#657,.F.);
#755=EDGE_LOOP('',(#730,#738,#746,#752,#753,#754));
#756=FACE_OUTER_BOUND('',#755,.T.);
#757=ORIENTED_EDGE('',*,*,#599,.F.);
#758=EDGE_LOOP('',(#757));
#759=FACE_BOUND('',#758,.T.);
#760=ADVANCED_FACE('',(#756,#759),#729,.T.);
#761=CARTESIAN_POINT('',(-8.8743902711347,-12.55,-4.4102516097569));
#762=DIRECTION('',(0.84883661970008,0.,-0.52865526863556));
#763=DIRECTION('',(-0.52865526863556,-0.,-0.84883661970008));
#764=AXIS2_PLACEMENT_3D('',#761,#763,#762);
#765=PLANE('',#764);
#766=ORIENTED_EDGE('',*,*,#745,.F.);
#767=CARTESIAN_POINT('',(-8.8747139157796,-17.389949727665,-4.4100500484192));
#768=VERTEX_POINT('',#767);
#769=CARTESIAN_POINT('',(-8.7302855497459,-17.3,-4.5));
#770=DIRECTION('',(-0.75042659009034,-0.46736433614053,0.46736549957106));
#771=VECTOR('',#770,0.19246168504812);
#772=LINE('',#769,#771);
#773=EDGE_CURVE('',#732,#768,#772,.T.);
#774=ORIENTED_EDGE('',*,*,#773,.T.);
#775=CARTESIAN_POINT('',(-9.0184952705405,-17.300000600967,-4.3205030553254));
#776=VERTEX_POINT('',#775);
#777=CARTESIAN_POINT('',(-8.8747139157796,-17.389949727665,-4.4100500484192));
#778=CARTESIAN_POINT('',(-8.9227766024368,-17.360229119581,-4.3801166194946));
#779=CARTESIAN_POINT('',(-8.9707239511024,-17.330228789616,-4.3502550230474));
#780=CARTESIAN_POINT('',(-9.0184952705405,-17.300000600967,-4.3205030553254));
#781=B_SPLINE_CURVE_WITH_KNOTS('',3,(#777,#778,#779,#780),.UNSPECIFIED.,.F.,.U.,(4,4),(3.3147926993572E-06,0.50007518049534),.UNSPECIFIED.);
#782=EDGE_CURVE('',#768,#776,#781,.T.);
#783=ORIENTED_EDGE('',*,*,#782,.T.);
#784=CARTESIAN_POINT('',(-9.0184984181177,-11.299844899756,-4.3205048663547));
#785=VERTEX_POINT('',#784);
#786=CARTESIAN_POINT('',(-9.0184952705405,-17.300000600967,-4.3205030553254));
#787=DIRECTION('',(-5.2458258693741E-07,0.99999999999982,-3.0183038408365E-07));
#788=VECTOR('',#787,6.0001557012121);
#789=LINE('',#786,#788);
#790=EDGE_CURVE('',#776,#785,#789,.T.);
#791=ORIENTED_EDGE('',*,*,#790,.T.);
#792=CARTESIAN_POINT('',(-9.0184984181177,-11.299844899756,-4.3205048663547));
#793=CARTESIAN_POINT('',(-8.9144111481966,-11.366026886212,-4.3853227737923));
#794=CARTESIAN_POINT('',(-8.8348524470565,-11.415178900627,-4.4348757582965));
#795=CARTESIAN_POINT('',(-8.7302855497459,-11.478087293628,-4.5));
#796=B_SPLINE_CURVE_WITH_KNOTS('',3,(#792,#793,#794,#795),.UNSPECIFIED.,.F.,.U.,(4,4),(0.,1.),.UNSPECIFIED.);
#797=EDGE_CURVE('',#785,#740,#796,.T.);
#798=ORIENTED_EDGE('',*,*,#797,.T.);
#799=EDGE_LOOP('',(#766,#774,#783,#791,#798));
#800=FACE_OUTER_BOUND('',#799,.T.);
#801=ADVANCED_FACE('',(#800),#765,.T.);
#802=CARTESIAN_POINT('',(-6.3136232677479,-11.29987343086,-7.7548798335598));
#803=CARTESIAN_POINT('',(-6.6794092169001,-11.299873620803,-7.4570907237863));
#804=CARTESIAN_POINT('',(-7.1506448744574,-11.299873193759,-7.0144795347739));
#805=CARTESIAN_POINT('',(-7.7072424830098,-11.299873743176,-6.379854514738));
#806=CARTESIAN_POINT('',(-8.0438982025278,-11.299872526156,-5.9497847637182));
#807=CARTESIAN_POINT('',(-8.3614638367626,-11.299877504773,-5.4937385559051));
#808=CARTESIAN_POINT('',(-8.6346385768686,-11.299862818744,-5.0530090194776));
#809=CARTESIAN_POINT('',(-8.8752490041783,-11.29991119298,-4.6156004075851));
#810=CARTESIAN_POINT('',(-9.0708806531965,-11.299758820558,-4.2165684878133));
#811=CARTESIAN_POINT('',(-9.2289714013319,-11.300599647981,-3.8562072959051));
#812=CARTESIAN_POINT('',(-9.3523824340874,-11.306081230361,-3.5445458923308));
#813=CARTESIAN_POINT('',(-9.4468619664004,-11.318174695655,-3.2829917673446));
#814=CARTESIAN_POINT('',(-9.517013873018,-11.337314855757,-3.0723241843084));
#815=CARTESIAN_POINT('',(-9.5674378306529,-11.361840293421,-2.9104461091475));
#816=CARTESIAN_POINT('',(-9.5997559221971,-11.387843574868,-2.8013444588121));
#817=CARTESIAN_POINT('',(-9.6205234052091,-11.412546098296,-2.728813651669));
#818=CARTESIAN_POINT('',(-9.6353343086831,-11.439194931562,-2.6760596252198));
#819=CARTESIAN_POINT('',(-9.6444595829907,-11.463027195175,-2.6428498530191));
#820=CARTESIAN_POINT('',(-9.6471279247253,-11.496369877919,-2.6330443984075));
#821=CARTESIAN_POINT('',(-6.1873656026635,-11.499873430469,-7.5997863202986));
#822=CARTESIAN_POINT('',(-6.5457930863986,-11.499873430469,-7.3079663755757));
#823=CARTESIAN_POINT('',(-7.0076464515807,-11.499873430469,-6.8741692034402));
#824=CARTESIAN_POINT('',(-7.553082890532,-11.499873430469,-6.2522718640839));
#825=CARTESIAN_POINT('',(-7.8830544273784,-11.499873430469,-5.8307487922273));
#826=CARTESIAN_POINT('',(-8.1940899795775,-11.499873430469,-5.3840382721133));
#827=CARTESIAN_POINT('',(-8.4623251951459,-11.499873430469,-4.9514982112228));
#828=CARTESIAN_POINT('',(-8.6963659390149,-11.499873430469,-4.5248920589126));
#829=CARTESIAN_POINT('',(-8.8936503341305,-11.499873430469,-4.1273611719967));
#830=CARTESIAN_POINT('',(-9.070961212249,-11.499873430469,-3.7765652748698));
#831=CARTESIAN_POINT('',(-9.2211036044972,-11.499873430469,-3.4783971366785));
#832=CARTESIAN_POINT('',(-9.3453588798918,-11.499873430469,-3.2318435536593));
#833=CARTESIAN_POINT('',(-9.4442218805979,-11.499873430469,-3.0356441404701));
#834=CARTESIAN_POINT('',(-9.5194858538209,-11.499873430469,-2.8862829462853));
#835=CARTESIAN_POINT('',(-9.5698741432939,-11.499873430469,-2.7862869336053));
#836=CARTESIAN_POINT('',(-9.6032269979822,-11.499873430469,-2.7200979356483));
#837=CARTESIAN_POINT('',(-9.6274260891407,-11.499873430469,-2.672074647627));
#838=CARTESIAN_POINT('',(-9.642619730965,-11.499873430469,-2.6419227455798));
#839=CARTESIAN_POINT('',(-9.6471005180756,-11.499873430469,-2.6330305881074));
#840=B_SPLINE_SURFACE_WITH_KNOTS('',1,3,((#802,#803,#804,#805,#806,#807,#808,#809,#810,#811,#812,#813,#814,#815,#816,#817,#818,#819,#820),(#821,#822,#823,#824,#825,#826,#827,#828,#829,#830,#831,#832,#833,#834,#835,#836,#837,#838,#839)),.UNSPECIFIED.,.F.,.F.,.U.,(2,2),(4,1,1,1,1,1,1,1,1,1,1,1,1,1,1,1,4),(0.,0.26649598825437),(0.,1.4175748676579,1.9401664984288,2.5373070713141,3.0597441477691,3.61019922175,4.097537282882,4.5565511040826,4.9593444653921,5.2923873915107,5.5729852060974,5.8013819227992,5.9648639115296,6.0864050997929,6.1493056920395,6.1968889073718,6.26142301123),.UNSPECIFIED.);
#841=CARTESIAN_POINT('',(-6.3136232677479,-11.29987343086,-7.7548798335598));
#842=VERTEX_POINT('',#841);
#843=CARTESIAN_POINT('',(-9.0184949925234,-11.299822663254,-4.3205032195139));
#844=CARTESIAN_POINT('',(-9.0045710212411,-11.299813403775,-4.3495667451081));
#845=CARTESIAN_POINT('',(-8.8801069025038,-11.29989705908,-4.6051292266432));
#846=CARTESIAN_POINT('',(-8.6405408741668,-11.29987006928,-5.0399160790494));
#847=CARTESIAN_POINT('',(-8.3657890925685,-11.299874328224,-5.4855746540781));
#848=CARTESIAN_POINT('',(-8.0465602698247,-11.299873327195,-5.9439753351069));
#849=CARTESIAN_POINT('',(-7.7022994850274,-11.29987345591,-6.3837747489091));
#850=CARTESIAN_POINT('',(-7.3338686280915,-11.299873427603,-6.8038523339911));
#851=CARTESIAN_POINT('',(-6.7473000770151,-11.299873432813,-7.4017231591619));
#852=CARTESIAN_POINT('',(-6.3136232677479,-11.29987343086,-7.7548798335598));
#853=B_SPLINE_CURVE_WITH_KNOTS('',2,(#843,#844,#845,#846,#847,#848,#849,#850,#851,#852),.UNSPECIFIED.,.F.,.U.,(3,1,1,1,1,1,1,1,3),(0.2953484682768,0.30565386623273,0.38623618033243,0.46436557955133,0.55363791399924,0.64292150093822,0.73222040204123,0.82152947845836,1.),.UNSPECIFIED.);
#854=EDGE_CURVE('',#785,#842,#853,.T.);
#855=ORIENTED_EDGE('',*,*,#854,.T.);
#856=CARTESIAN_POINT('',(-6.3136232677479,-11.29987343086,-7.7548798335598));
#857=DIRECTION('',(0.44640221809722,-0.7071288969681,0.54835552586854));
#858=VECTOR('',#857,0.28283386588573);
#859=LINE('',#856,#858);
#860=EDGE_CURVE('',#842,#660,#859,.T.);
#861=ORIENTED_EDGE('',*,*,#860,.T.);
#862=ORIENTED_EDGE('',*,*,#719,.F.);
#863=ORIENTED_EDGE('',*,*,#751,.F.);
#864=ORIENTED_EDGE('',*,*,#797,.F.);
#865=EDGE_LOOP('',(#855,#861,#862,#863,#864));
#866=FACE_OUTER_BOUND('',#865,.T.);
#867=ADVANCED_FACE('',(#866),#840,.T.);
#868=CARTESIAN_POINT('',(-3.0978332445576,-14.4,-9.508071791321));
#869=CARTESIAN_POINT('',(-3.0978329700455,-14.303004714939,-9.5080705299418));
#870=CARTESIAN_POINT('',(-3.1056704519113,-14.136651061653,-9.5055256884389));
#871=CARTESIAN_POINT('',(-3.138015171369,-13.882689957683,-9.4949121455447));
#872=CARTESIAN_POINT('',(-3.1893610293733,-13.632452465826,-9.4778494814668));
#873=CARTESIAN_POINT('',(-3.2753330550943,-13.347586591411,-9.4486051325707));
#874=CARTESIAN_POINT('',(-3.3932529793903,-13.066658421606,-9.407064256586));
#875=CARTESIAN_POINT('',(-3.5469242789226,-12.785485534484,-9.3503703734179));
#876=CARTESIAN_POINT('',(-3.7206180426987,-12.532755766357,-9.2828446887026));
#877=CARTESIAN_POINT('',(-3.9179553604877,-12.29866381502,-9.2013589865489));
#878=CARTESIAN_POINT('',(-4.1237473292094,-12.09505040041,-9.1111466316637));
#879=CARTESIAN_POINT('',(-4.3440109636593,-11.912875335403,-9.0083662777324));
#880=CARTESIAN_POINT('',(-4.5874540070987,-11.746395046456,-8.8872057960514));
#881=CARTESIAN_POINT('',(-4.8412444958221,-11.607442942174,-8.751726557711));
#882=CARTESIAN_POINT('',(-5.1154044394323,-11.489661881182,-8.594533576465));
#883=CARTESIAN_POINT('',(-5.3856751765801,-11.402769102328,-8.4279968311993));
#884=CARTESIAN_POINT('',(-5.6541789635478,-11.343267701773,-8.2500073443344));
#885=CARTESIAN_POINT('',(-5.8788522866874,-11.313425043196,-8.0907507528754));
#886=CARTESIAN_POINT('',(-6.0508761788257,-11.301716513851,-7.9622366364692));
#887=CARTESIAN_POINT('',(-6.1892673623299,-11.299279301251,-7.8550170260133));
#888=CARTESIAN_POINT('',(-6.2690806626888,-11.300037121068,-7.7911339848618));
#889=CARTESIAN_POINT('',(-6.3136232677479,-11.29987343086,-7.7548798335598));
#890=CARTESIAN_POINT('',(-3.2873656054256,-14.4,-9.2442166099823));
#891=CARTESIAN_POINT('',(-3.2873634601119,-14.311778288531,-9.2442166906663));
#892=CARTESIAN_POINT('',(-3.2942812729823,-14.160400109944,-9.2417548421127));
#893=CARTESIAN_POINT('',(-3.323075903133,-13.929223909864,-9.2313383768124));
#894=CARTESIAN_POINT('',(-3.3689128384292,-13.701614897148,-9.214536272449));
#895=CARTESIAN_POINT('',(-3.4448427603741,-13.443455491478,-9.18599718143));
#896=CARTESIAN_POINT('',(-3.5476801439469,-13.188131972543,-9.146029837837));
#897=CARTESIAN_POINT('',(-3.681390472658,-12.93127999568,-9.0920554206573));
#898=CARTESIAN_POINT('',(-3.8331898847988,-12.698526807042,-9.0282546199929));
#899=CARTESIAN_POINT('',(-4.0070666404439,-12.48171170138,-8.9517394139691));
#900=CARTESIAN_POINT('',(-4.1897176316142,-12.292285674671,-8.8674724212636));
#901=CARTESIAN_POINT('',(-4.3860865435306,-12.122340645357,-8.7720307822225));
#902=CARTESIAN_POINT('',(-4.6025871065033,-11.966234039346,-8.6601936092771));
#903=CARTESIAN_POINT('',(-4.8293110839361,-11.832941022933,-8.5347352459521));
#904=CARTESIAN_POINT('',(-5.075934693179,-11.716934521352,-8.3888245274528));
#905=CARTESIAN_POINT('',(-5.3213254343166,-11.627952697796,-8.2338899829201));
#906=CARTESIAN_POINT('',(-5.5679163868092,-11.563446740318,-8.0677466216272));
#907=CARTESIAN_POINT('',(-5.7747539893628,-11.527224190666,-7.9196588599176));
#908=CARTESIAN_POINT('',(-5.9365734899575,-11.50981203999,-7.7979609922285));
#909=CARTESIAN_POINT('',(-6.0638560304637,-11.501704585427,-7.6991559194613));
#910=CARTESIAN_POINT('',(-6.144137415658,-11.499860177023,-7.63498886573));
#911=CARTESIAN_POINT('',(-6.1873656026635,-11.499873430469,-7.5997863202986));
#912=B_SPLINE_SURFACE_WITH_KNOTS('',1,3,((#868,#869,#870,#871,#872,#873,#874,#875,#876,#877,#878,#879,#880,#881,#882,#883,#884,#885,#886,#887,#888,#889),(#890,#891,#892,#893,#894,#895,#896,#897,#898,#899,#900,#901,#902,#903,#904,#905,#906,#907,#908,#909,#910,#911)),.UNSPECIFIED.,.F.,.F.,.U.,(2,2),(4,1,1,1,1,1,1,1,1,1,1,1,1,1,1,1,1,1,1,4),(0.,0.32036066398093),(0.,0.29029778784394,0.49788069177636,0.76652376957784,1.0554419323569,1.3885155804946,1.6828401192583,2.0247364306653,2.3260460478191,2.6291401308547,2.931875876679,3.2346001436769,3.5804332453453,3.88809638821,4.2460845483048,4.5711893446173,4.8772795137969,5.0826412151162,5.2269912798693,5.4046303691322),.UNSPECIFIED.);
#913=CARTESIAN_POINT('',(-3.0978332445576,-14.4,-9.508071791321));
#914=VERTEX_POINT('',#913);
#915=CARTESIAN_POINT('',(-6.3136232677479,-11.29987343086,-7.7548798335598));
#916=CARTESIAN_POINT('',(-6.2673390976693,-11.299917543004,-7.7925620154066));
#917=CARTESIAN_POINT('',(-6.1793479429,-11.299706910474,-7.8624700993649));
#918=CARTESIAN_POINT('',(-6.0742588010602,-11.30127420739,-7.9441705346176));
#919=CARTESIAN_POINT('',(-5.9098117739691,-11.310930421365,-8.0678259881358));
#920=CARTESIAN_POINT('',(-5.6672884850419,-11.341340489561,-8.2408470221456));
#921=CARTESIAN_POINT('',(-5.3849348726217,-11.404069441303,-8.4279257805268));
#922=CARTESIAN_POINT('',(-5.1093048455637,-11.493240817518,-8.597669582428));
#923=CARTESIAN_POINT('',(-4.842771782896,-11.608018450812,-8.7504086759323));
#924=CARTESIAN_POINT('',(-4.5848777970501,-11.749469462917,-8.8881661898632));
#925=CARTESIAN_POINT('',(-4.3363231322868,-11.919445525603,-9.0118833573448));
#926=CARTESIAN_POINT('',(-4.124913193156,-12.096573888004,-9.1101687864635));
#927=CARTESIAN_POINT('',(-3.9250082062518,-12.291937860099,-9.1982623343995));
#928=CARTESIAN_POINT('',(-3.7227488551662,-12.532026187242,-9.2817758647485));
#929=CARTESIAN_POINT('',(-3.5452512101289,-12.790831245983,-9.3508891975308));
#930=CARTESIAN_POINT('',(-3.3951021961723,-13.06584429035,-9.406285987373));
#931=CARTESIAN_POINT('',(-3.2751956565305,-13.352217282829,-9.4486137190667));
#932=CARTESIAN_POINT('',(-3.1856145202204,-13.648725399496,-9.4790956749559));
#933=CARTESIAN_POINT('',(-3.1350062654818,-13.908132390246,-9.4958951280269));
#934=CARTESIAN_POINT('',(-3.1100670253275,-14.109261824713,-9.5040815032392));
#935=CARTESIAN_POINT('',(-3.0978401612267,-14.301254366631,-9.5080702416055));
#936=CARTESIAN_POINT('',(-3.0978332445576,-14.4,-9.508071791321));
#937=B_SPLINE_CURVE_WITH_KNOTS('',2,(#915,#916,#917,#918,#919,#920,#921,#922,#923,#924,#925,#926,#927,#928,#929,#930,#931,#932,#933,#934,#935,#936),.UNSPECIFIED.,.F.,.U.,(3,1,1,1,1,1,1,1,1,1,1,1,1,1,1,1,1,1,1,1,3),(0.,0.02211765318682,0.04164606574627,0.07144703286964,0.11795277846992,0.18235481149908,0.2454252517123,0.30669472352001,0.3667600803424,0.4269638530633,0.48717299288066,0.5353781380249,0.59568929735141,0.65552415478101,0.71466744466888,0.77318811140271,0.8306739087081,0.88828947197078,0.92872935714177,0.96342083102622,1.),.UNSPECIFIED.);
#938=EDGE_CURVE('',#842,#914,#937,.T.);
#939=ORIENTED_EDGE('',*,*,#938,.T.);
#940=CARTESIAN_POINT('',(-3.0978332445576,-14.4,-9.508071791321));
#941=DIRECTION('',(-0.58340555932664,0.,0.81218098558559));
#942=VECTOR('',#941,0.32487239423422);
#943=LINE('',#940,#942);
#944=EDGE_CURVE('',#914,#613,#943,.T.);
#945=ORIENTED_EDGE('',*,*,#944,.T.);
#946=ORIENTED_EDGE('',*,*,#690,.F.);
#947=ORIENTED_EDGE('',*,*,#860,.F.);
#948=EDGE_LOOP('',(#939,#945,#946,#947));
#949=FACE_OUTER_BOUND('',#948,.T.);
#950=ADVANCED_FACE('',(#949),#912,.T.);
#951=CARTESIAN_POINT('',(-3.1925994249916,-16.105,-9.3761442006516));
#952=DIRECTION('',(-0.58340555932661,0.,0.81218098558561));
#953=DIRECTION('',(-0.81218098558561,1.0522079253608E-14,-0.58340555932661));
#954=AXIS2_PLACEMENT_3D('',#951,#953,#952);
#955=PLANE('',#954);
#956=CARTESIAN_POINT('',(-3.0978332445576,-17.3,-9.508071791321));
#957=VERTEX_POINT('',#956);
#958=CARTESIAN_POINT('',(-3.0978332445576,-14.4,-9.508071791321));
#959=DIRECTION('',(0.,-1.,0.));
#960=VECTOR('',#959,2.9);
#961=LINE('',#958,#960);
#962=EDGE_CURVE('',#914,#957,#961,.T.);
#963=ORIENTED_EDGE('',*,*,#962,.T.);
#964=CARTESIAN_POINT('',(-3.1923745080179,-17.394991057656,-9.3764573034187));
#965=VERTEX_POINT('',#964);
#966=CARTESIAN_POINT('',(-3.097833244558,-17.3,-9.5080717913209));
#967=CARTESIAN_POINT('',(-3.1322844185678,-17.334816878239,-9.460111006555));
#968=CARTESIAN_POINT('',(-3.1622892197169,-17.365011156173,-9.4183401859355));
#969=CARTESIAN_POINT('',(-3.1923744967,-17.394991108665,-9.3764573318581));
#970=B_SPLINE_CURVE_WITH_KNOTS('',3,(#966,#967,#968,#969),.UNSPECIFIED.,.F.,.U.,(4,4),(0.49992090378897,1.),.UNSPECIFIED.);
#971=EDGE_CURVE('',#957,#965,#970,.T.);
#972=ORIENTED_EDGE('',*,*,#971,.T.);
#973=CARTESIAN_POINT('',(-3.1923745080179,-17.394991057656,-9.3764573034187));
#974=DIRECTION('',(-0.50391764867651,0.50391743779797,0.70152278597025));
#975=VECTOR('',#974,0.18850520051676);
#976=LINE('',#973,#975);
#977=EDGE_CURVE('',#965,#621,#976,.T.);
#978=ORIENTED_EDGE('',*,*,#977,.T.);
#979=ORIENTED_EDGE('',*,*,#626,.F.);
#980=ORIENTED_EDGE('',*,*,#944,.F.);
#981=EDGE_LOOP('',(#963,#972,#978,#979,#980));
#982=FACE_OUTER_BOUND('',#981,.T.);
#983=ADVANCED_FACE('',(#982),#955,.T.);
#984=CARTESIAN_POINT('',(2.6794919243112,-17.5,7.105427357601E-15));
#985=DIRECTION('',(-1.,0.,-1.4248780756809E-16));
#986=DIRECTION('',(0.,-1.,-0.));
#987=AXIS2_PLACEMENT_3D('',#984,#986,#985);
#988=PLANE('',#987);
#989=CARTESIAN_POINT('',(-3.0873656054256,-17.5,-4.3));
#990=VERTEX_POINT('',#989);
#991=CARTESIAN_POINT('',(-3.0873656015738,-17.5,-9.3009770305113));
#992=VERTEX_POINT('',#991);
#993=CARTESIAN_POINT('',(-3.0873656054256,-17.5,-4.3));
#994=DIRECTION('',(7.7020953877969E-10,0.,-1.));
#995=VECTOR('',#994,5.0009770305113);
#996=LINE('',#993,#995);
#997=EDGE_CURVE('',#990,#992,#996,.T.);
#998=ORIENTED_EDGE('',*,*,#997,.T.);
#999=CARTESIAN_POINT('',(9.7872367799727,-17.5,-0.5));
#1000=VERTEX_POINT('',#999);
#1001=CARTESIAN_POINT('',(-6.6613381477509E-16,-17.5,-1.7763568394003E-15));
#1002=DIRECTION('',(-0.31503730615203,-1.0875654114254E-15,-0.94907928843299));
#1003=DIRECTION('',(-1.6673134054195E-16,-1.,1.1868707322453E-15));
#1004=AXIS2_PLACEMENT_3D('',#1001,#1003,#1002);
#1005=CIRCLE('',#1004,9.8000000040755);
#1006=EDGE_CURVE('',#992,#1000,#1005,.T.);
#1007=ORIENTED_EDGE('',*,*,#1006,.T.);
#1008=CARTESIAN_POINT('',(9.7872367718982,-17.5,0.49999999999991));
#1009=VERTEX_POINT('',#1008);
#1010=CARTESIAN_POINT('',(9.7872367799727,-17.5,-0.5));
#1011=DIRECTION('',(-8.0744992914113E-09,0.,1.));
#1012=VECTOR('',#1011,0.99999999999991);
#1013=LINE('',#1010,#1012);
#1014=EDGE_CURVE('',#1000,#1009,#1013,.T.);
#1015=ORIENTED_EDGE('',*,*,#1014,.T.);
#1016=CARTESIAN_POINT('',(-9.7872365862032,-17.5,0.5));
#1017=VERTEX_POINT('',#1016);
#1018=CARTESIAN_POINT('',(5.3290705182008E-15,-17.5,1.7763568394003E-15));
#1019=DIRECTION('',(0.99869761091595,7.2504359421936E-16,0.051020407199267));
#1020=DIRECTION('',(4.5389965826977E-16,-1.,4.7767992855602E-16));
#1021=AXIS2_PLACEMENT_3D('',#1018,#1020,#1019);
#1022=CIRCLE('',#1021,9.8000001851631);
#1023=EDGE_CURVE('',#1009,#1017,#1022,.T.);
#1024=ORIENTED_EDGE('',*,*,#1023,.T.);
#1025=CARTESIAN_POINT('',(-9.7872365862991,-17.5,-0.49999999999999));
#1026=VERTEX_POINT('',#1025);
#1027=CARTESIAN_POINT('',(-9.7872365862032,-17.5,0.5));
#1028=DIRECTION('',(-9.5900176688702E-11,0.,-1.));
#1029=VECTOR('',#1028,0.99999999999999);
#1030=LINE('',#1027,#1029);
#1031=EDGE_CURVE('',#1017,#1026,#1030,.T.);
#1032=ORIENTED_EDGE('',*,*,#1031,.T.);
#1033=CARTESIAN_POINT('',(-8.8062520531369,-17.499998875029,-4.2999999449497));
#1034=VERTEX_POINT('',#1033);
#1035=CARTESIAN_POINT('',(6.9409189597636E-05,-17.5,4.0740112821069E-06));
#1036=DIRECTION('',(-0.99869760812083,8.7004629490902E-15,-0.051020461912185));
#1037=DIRECTION('',(-8.1691968577299E-15,-1.,-3.043830708105E-15));
#1038=AXIS2_PLACEMENT_3D('',#1035,#1037,#1036);
#1039=CIRCLE('',#1038,9.8000679722598);
#1040=EDGE_CURVE('',#1026,#1034,#1039,.T.);
#1041=ORIENTED_EDGE('',*,*,#1040,.T.);
#1042=CARTESIAN_POINT('',(-8.8062520531369,-17.499998875029,-4.2999999449497));
#1043=DIRECTION('',(0.99999999999998,-1.9671154694124E-07,-9.6260521927521E-09));
#1044=VECTOR('',#1043,5.7188864477114);
#1045=LINE('',#1042,#1044);
#1046=EDGE_CURVE('',#1034,#990,#1045,.T.);
#1047=ORIENTED_EDGE('',*,*,#1046,.T.);
#1048=EDGE_LOOP('',(#998,#1007,#1015,#1024,#1032,#1041,#1047));
#1049=FACE_OUTER_BOUND('',#1048,.T.);
#1050=CARTESIAN_POINT('',(3.2,-17.5,-2.0851287677008E-14));
#1051=VERTEX_POINT('',#1050);
#1052=CARTESIAN_POINT('',(-1.6875389974302E-14,-17.5,-1.9752222955929E-14));
#1053=DIRECTION('',(1.,-1.3680535005207E-15,-3.4345772533708E-16));
#1054=DIRECTION('',(1.3680535005207E-15,1.,1.9626155733547E-15));
#1055=AXIS2_PLACEMENT_3D('',#1052,#1054,#1053);
#1056=CIRCLE('',#1055,3.2);
#1057=EDGE_CURVE('',#1051,#1051,#1056,.T.);
#1058=ORIENTED_EDGE('',*,*,#1057,.T.);
#1059=EDGE_LOOP('',(#1058));
#1060=FACE_BOUND('',#1059,.T.);
#1061=ADVANCED_FACE('',(#1049,#1060),#988,.T.);
#1062=CARTESIAN_POINT('',(-7.8951233608028E-15,3.3000000000002,1.2553930933154E-14));
#1063=DIRECTION('',(-1.,-3.0562451300056E-16,-8.7675679797567E-16));
#1064=DIRECTION('',(3.0562451300056E-16,-1.,-5.0110097525449E-16));
#1065=AXIS2_PLACEMENT_3D('',#1062,#1064,#1063);
#1066=CONICAL_SURFACE('',#1065,0.,0.78539816339744);
#1067=ORIENTED_EDGE('',*,*,#516,.F.);
#1068=CARTESIAN_POINT('',(-10.,-6.7,1.2246467991474E-15));
#1069=VERTEX_POINT('',#1068);
#1070=CARTESIAN_POINT('',(-9.8,-6.5,-1.2356809999524E-15));
#1071=DIRECTION('',(-0.70710678118655,-0.70710678118655,8.6985723534262E-15));
#1072=VECTOR('',#1071,0.28284271247462);
#1073=LINE('',#1070,#1072);
#1074=EDGE_CURVE('',#510,#1069,#1073,.T.);
#1075=ORIENTED_EDGE('',*,*,#1074,.T.);
#1076=CARTESIAN_POINT('',(0.,-6.7,6.2489426669355E-15));
#1077=DIRECTION('',(-1.,-0.,-5.0242958677881E-16));
#1078=DIRECTION('',(0.,1.,-0.));
#1079=AXIS2_PLACEMENT_3D('',#1076,#1078,#1077);
#1080=CIRCLE('',#1079,10.);
#1081=EDGE_CURVE('',#1069,#1069,#1080,.T.);
#1082=ORIENTED_EDGE('',*,*,#1081,.T.);
#1083=ORIENTED_EDGE('',*,*,#1074,.F.);
#1084=EDGE_LOOP('',(#1067,#1075,#1082,#1083));
#1085=FACE_OUTER_BOUND('',#1084,.T.);
#1086=ADVANCED_FACE('',(#1085),#1066,.T.);
#1087=CARTESIAN_POINT('',(5.3375670215435,-17.4,-4.4));
#1088=DIRECTION('',(0.,0.70710678118655,-0.70710678118654));
#1089=DIRECTION('',(-3.9770764603121E-16,-0.70710678118654,-0.70710678118655));
#1090=AXIS2_PLACEMENT_3D('',#1087,#1089,#1088);
#1091=PLANE('',#1090);
#1092=CARTESIAN_POINT('',(-3.2873656054256,-17.3,-4.5));
#1093=DIRECTION('',(0.57735026918963,-0.57735026918962,0.57735026918963));
#1094=VECTOR('',#1093,0.34641016151378);
#1095=LINE('',#1092,#1094);
#1096=EDGE_CURVE('',#629,#990,#1095,.T.);
#1097=ORIENTED_EDGE('',*,*,#1096,.T.);
#1098=ORIENTED_EDGE('',*,*,#1046,.F.);
#1099=CARTESIAN_POINT('',(-8.8062520531369,-17.499998875029,-4.2999999449497));
#1100=CARTESIAN_POINT('',(-8.8405671727762,-17.44500099118,-4.3549992056243));
#1101=CARTESIAN_POINT('',(-8.8747140539328,-17.389950034188,-4.4100499693885));
#1102=B_SPLINE_CURVE_WITH_KNOTS('',2,(#1099,#1100,#1101),.UNSPECIFIED.,.F.,.U.,(3,3),(0.,0.99998977270093),.UNSPECIFIED.);
#1103=EDGE_CURVE('',#1034,#768,#1102,.T.);
#1104=ORIENTED_EDGE('',*,*,#1103,.T.);
#1105=ORIENTED_EDGE('',*,*,#773,.F.);
#1106=ORIENTED_EDGE('',*,*,#737,.F.);
#1107=EDGE_LOOP('',(#1097,#1098,#1104,#1105,#1106));
#1108=FACE_OUTER_BOUND('',#1107,.T.);
#1109=ADVANCED_FACE('',(#1108),#1091,.T.);
#1110=CARTESIAN_POINT('',(-3.1873656054257,-17.4,2.386401106799));
#1111=DIRECTION('',(-0.70710678118655,0.70710678118654,-1.2560739427564E-14));
#1112=DIRECTION('',(-0.70710678118654,-0.70710678118655,4.9387163345307E-16));
#1113=AXIS2_PLACEMENT_3D('',#1110,#1112,#1111);
#1114=PLANE('',#1113);
#1115=CARTESIAN_POINT('',(-3.1923745025995,-17.394991023323,-9.3764572630579));
#1116=CARTESIAN_POINT('',(-3.1398341578961,-17.4475314771,-9.3388170665367));
#1117=CARTESIAN_POINT('',(-3.0873656028577,-17.5,-9.3009770343792));
#1118=B_SPLINE_CURVE_WITH_KNOTS('',2,(#1115,#1116,#1117),.UNSPECIFIED.,.F.,.U.,(3,3),(0.,0.99999984099905),.UNSPECIFIED.);
#1119=EDGE_CURVE('',#965,#992,#1118,.T.);
#1120=ORIENTED_EDGE('',*,*,#1119,.T.);
#1121=ORIENTED_EDGE('',*,*,#997,.F.);
#1122=ORIENTED_EDGE('',*,*,#1096,.F.);
#1123=ORIENTED_EDGE('',*,*,#634,.F.);
#1124=ORIENTED_EDGE('',*,*,#977,.F.);
#1125=EDGE_LOOP('',(#1120,#1121,#1122,#1123,#1124));
#1126=FACE_OUTER_BOUND('',#1125,.T.);
#1127=ADVANCED_FACE('',(#1126),#1114,.T.);
#1128=CARTESIAN_POINT('',(4.4408920985006E-15,-27.299999999999,1.7763568394003E-14));
#1129=DIRECTION('',(-1.,0.,-1.898821519315E-15));
#1130=DIRECTION('',(-0.,1.,-0.));
#1131=AXIS2_PLACEMENT_3D('',#1128,#1130,#1129);
#1132=CONICAL_SURFACE('',#1131,0.,0.78539816339749);
#1133=ORIENTED_EDGE('',*,*,#1023,.F.);
#1134=CARTESIAN_POINT('',(9.8547308486719,-17.432593040734,0.49999999999999));
#1135=VERTEX_POINT('',#1134);
#1136=CARTESIAN_POINT('',(9.7872366793157,-17.499999907299,0.49999999999999));
#1137=CARTESIAN_POINT('',(9.8208681013023,-17.46641228651,0.49999999999999));
#1138=CARTESIAN_POINT('',(9.8547308486719,-17.432593040734,0.49999999999999));
#1139=(BOUNDED_CURVE()B_SPLINE_CURVE(2,(#1136,#1137,#1138),.HYPERBOLIC_ARC.,.F.,.U.)B_SPLINE_CURVE_WITH_KNOTS((3,3),(6.5912388066079E-07,0.47762465405408),.UNSPECIFIED.)CURVE()GEOMETRIC_REPRESENTATION_ITEM()RATIONAL_B_SPLINE_CURVE((1.0194174665533,1.0161040183839,1.0127894121698))REPRESENTATION_ITEM(''));
#1140=EDGE_CURVE('',#1009,#1135,#1139,.T.);
#1141=ORIENTED_EDGE('',*,*,#1140,.T.);
#1142=CARTESIAN_POINT('',(9.8547308486719,-17.432593040734,-0.50000000000001));
#1143=VERTEX_POINT('',#1142);
#1144=CARTESIAN_POINT('',(-89.152717310571,71.714113697514,-1.1070760641552E-08));
#1145=DIRECTION('',(0.74314482547718,-0.66913060635909,9.2787652561377E-11));
#1146=DIRECTION('',(0.66913060635909,0.74314482547718,1.0512424264419E-15));
#1147=AXIS2_PLACEMENT_3D('',#1144,#1146,#1145);
#1148=ELLIPSE('',#1147,133.23663838253,43.076543363446);
#1149=TRIMMED_CURVE('',#1148,(PARAMETER_VALUE(6.2715778013843)),(PARAMETER_VALUE(0.011607505855282)),.T.,.PARAMETER.);
#1150=EDGE_CURVE('',#1135,#1143,#1149,.T.);
#1151=ORIENTED_EDGE('',*,*,#1150,.T.);
#1152=CARTESIAN_POINT('',(9.8547308486719,-17.432593040734,-0.50000000000001));
#1153=CARTESIAN_POINT('',(9.8209839656665,-17.46629666366,-0.49999656665671));
#1154=CARTESIAN_POINT('',(9.7872362195493,-17.499999416054,-0.50002059982938));
#1155=B_SPLINE_CURVE_WITH_KNOTS('',2,(#1152,#1153,#1154),.UNSPECIFIED.,.F.,.U.,(3,3),(0.,0.99999133688869),.UNSPECIFIED.);
#1156=EDGE_CURVE('',#1143,#1000,#1155,.T.);
#1157=ORIENTED_EDGE('',*,*,#1156,.T.);
#1158=ORIENTED_EDGE('',*,*,#1006,.F.);
#1159=ORIENTED_EDGE('',*,*,#1119,.F.);
#1160=ORIENTED_EDGE('',*,*,#971,.F.);
#1161=CARTESIAN_POINT('',(-9.9874921777191,-17.3,0.5));
#1162=VERTEX_POINT('',#1161);
#1163=CARTESIAN_POINT('',(7.105427357601E-15,-17.3,-1.0658141036402E-14));
#1164=DIRECTION('',(-0.30978332445576,0.,-0.9508071791321));
#1165=DIRECTION('',(2.5469593952145E-16,-1.,2.0511919909717E-16));
#1166=AXIS2_PLACEMENT_3D('',#1163,#1165,#1164);
#1167=CIRCLE('',#1166,10.);
#1168=EDGE_CURVE('',#957,#1162,#1167,.T.);
#1169=ORIENTED_EDGE('',*,*,#1168,.T.);
#1170=CARTESIAN_POINT('',(-9.9874921777191,-17.3,0.5));
#1171=CARTESIAN_POINT('',(-9.9374288052893,-17.350000526091,0.50000000000015));
#1172=CARTESIAN_POINT('',(-9.8373011365686,-17.450000653257,0.50000000002642));
#1173=CARTESIAN_POINT('',(-9.7872365862991,-17.5,0.50000000002642));
#1174=B_SPLINE_CURVE_WITH_KNOTS('',3,(#1170,#1171,#1172,#1173),.UNSPECIFIED.,.F.,.U.,(4,4),(0.,1.),.UNSPECIFIED.);
#1175=EDGE_CURVE('',#1162,#1017,#1174,.T.);
#1176=ORIENTED_EDGE('',*,*,#1175,.T.);
#1177=EDGE_LOOP('',(#1133,#1141,#1151,#1157,#1158,#1159,#1160,#1169,#1176));
#1178=FACE_OUTER_BOUND('',#1177,.T.);
#1179=ADVANCED_FACE('',(#1178),#1132,.T.);
#1180=CARTESIAN_POINT('',(-3.9968028886506E-15,-6.7,-1.7763568394003E-15));
#1181=DIRECTION('',(-1.,0.,5.517100402528E-17));
#1182=DIRECTION('',(4.1895208476419E-17,-1.,0.));
#1183=AXIS2_PLACEMENT_3D('',#1180,#1182,#1181);
#1184=CYLINDRICAL_SURFACE('',#1183,10.);
#1185=CARTESIAN_POINT('',(-9.9874921777191,-11.,-0.50000000000007));
#1186=VERTEX_POINT('',#1185);
#1187=CARTESIAN_POINT('',(-10.,-11.,1.3802485991411E-15));
#1188=VERTEX_POINT('',#1187);
#1189=CARTESIAN_POINT('',(-1.5880630144238E-12,-10.999999999998,-6.0840221749459E-14));
#1190=DIRECTION('',(-0.99874921777191,-1.4406253967538E-13,-0.050000000000009));
#1191=DIRECTION('',(-1.4469527415303E-13,1.,3.4857818096123E-15));
#1192=AXIS2_PLACEMENT_3D('',#1189,#1191,#1190);
#1193=CIRCLE('',#1192,9.9999999999984);
#1194=EDGE_CURVE('',#1186,#1188,#1193,.T.);
#1195=ORIENTED_EDGE('',*,*,#1194,.T.);
#1196=CARTESIAN_POINT('',(-10.,-11.,1.3802485991411E-15));
#1197=DIRECTION('',(0.,1.,-3.6186465114814E-17));
#1198=VECTOR('',#1197,4.3);
#1199=LINE('',#1196,#1198);
#1200=EDGE_CURVE('',#1188,#1069,#1199,.T.);
#1201=ORIENTED_EDGE('',*,*,#1200,.T.);
#1202=ORIENTED_EDGE('',*,*,#1081,.F.);
#1203=ORIENTED_EDGE('',*,*,#1200,.F.);
#1204=CARTESIAN_POINT('',(-9.9874921777191,-11.,0.5));
#1205=VERTEX_POINT('',#1204);
#1206=CARTESIAN_POINT('',(-1.6537882174816E-12,-11.000000000001,6.3948846218409E-14));
#1207=DIRECTION('',(-1.,1.2434497875804E-13,-6.2450045135175E-15));
#1208=DIRECTION('',(1.242089247658E-13,1.,-3.1071663133469E-15));
#1209=AXIS2_PLACEMENT_3D('',#1206,#1208,#1207);
#1210=CIRCLE('',#1209,9.9999999999984);
#1211=EDGE_CURVE('',#1188,#1205,#1210,.T.);
#1212=ORIENTED_EDGE('',*,*,#1211,.T.);
#1213=CARTESIAN_POINT('',(-9.9874921777191,-11.,0.5));
#1214=DIRECTION('',(0.,-1.,0.));
#1215=VECTOR('',#1214,6.3);
#1216=LINE('',#1213,#1215);
#1217=EDGE_CURVE('',#1205,#1162,#1216,.T.);
#1218=ORIENTED_EDGE('',*,*,#1217,.T.);
#1219=ORIENTED_EDGE('',*,*,#1168,.F.);
#1220=ORIENTED_EDGE('',*,*,#962,.F.);
#1221=ORIENTED_EDGE('',*,*,#938,.F.);
#1222=ORIENTED_EDGE('',*,*,#854,.F.);
#1223=ORIENTED_EDGE('',*,*,#790,.F.);
#1224=CARTESIAN_POINT('',(-9.9874921777191,-17.3,-0.49999999999999));
#1225=VERTEX_POINT('',#1224);
#1226=CARTESIAN_POINT('',(4.4408920985006E-14,-17.30000000002,3.5527136788005E-15));
#1227=DIRECTION('',(-0.90184951083953,1.9124257389144E-12,-0.43205029776463));
#1228=DIRECTION('',(1.891039727015E-12,1.,4.7869593363444E-13));
#1229=AXIS2_PLACEMENT_3D('',#1226,#1228,#1227);
#1230=CIRCLE('',#1229,10.000000179792);
#1231=EDGE_CURVE('',#776,#1225,#1230,.T.);
#1232=ORIENTED_EDGE('',*,*,#1231,.T.);
#1233=CARTESIAN_POINT('',(-9.9874921777191,-17.3,-0.49999999999999));
#1234=DIRECTION('',(0.,1.,-1.2705885726266E-14));
#1235=VECTOR('',#1234,6.3);
#1236=LINE('',#1233,#1235);
#1237=EDGE_CURVE('',#1225,#1186,#1236,.T.);
#1238=ORIENTED_EDGE('',*,*,#1237,.T.);
#1239=EDGE_LOOP('',(#1195,#1201,#1202,#1203,#1212,#1218,#1219,#1220,#1221,#1222,#1223,#1232,#1238));
#1240=FACE_OUTER_BOUND('',#1239,.T.);
#1241=ORIENTED_EDGE('',*,*,#551,.F.);
#1242=EDGE_LOOP('',(#1241));
#1243=FACE_BOUND('',#1242,.T.);
#1244=ADVANCED_FACE('',(#1240,#1243),#1184,.T.);
#1245=CARTESIAN_POINT('',(6.6613381477509E-15,-5.7,3.1086244689504E-15));
#1246=DIRECTION('',(1.,-2.0724163126336E-15,-6.0277150190503E-16));
#1247=DIRECTION('',(-1.9524611812373E-15,-1.,-1.9043323478025E-15));
#1248=AXIS2_PLACEMENT_3D('',#1245,#1247,#1246);
#1249=CYLINDRICAL_SURFACE('',#1248,3.);
#1250=CARTESIAN_POINT('',(3.,-17.3,2.2117854404933E-17));
#1251=VERTEX_POINT('',#1250);
#1252=CARTESIAN_POINT('',(3.,-5.7,-1.7871142065334E-15));
#1253=DIRECTION('',(0.,-1.,1.5596828111537E-16));
#1254=VECTOR('',#1253,11.6);
#1255=LINE('',#1252,#1254);
#1256=EDGE_CURVE('',#157,#1251,#1255,.T.);
#1257=ORIENTED_EDGE('',*,*,#1256,.T.);
#1258=CARTESIAN_POINT('',(-1.5543122344752E-14,-17.3,-1.8976000895669E-14));
#1259=DIRECTION('',(1.,-2.0216205375648E-15,6.3327062500245E-15));
#1260=DIRECTION('',(-2.0216205375648E-15,-1.,-8.3738264463136E-16));
#1261=AXIS2_PLACEMENT_3D('',#1258,#1260,#1259);
#1262=CIRCLE('',#1261,3.);
#1263=EDGE_CURVE('',#1251,#1251,#1262,.T.);
#1264=ORIENTED_EDGE('',*,*,#1263,.T.);
#1265=ORIENTED_EDGE('',*,*,#1256,.F.);
#1266=ORIENTED_EDGE('',*,*,#163,.F.);
#1267=EDGE_LOOP('',(#1257,#1264,#1265,#1266));
#1268=FACE_OUTER_BOUND('',#1267,.T.);
#1269=ADVANCED_FACE('',(#1268),#1249,.F.);
#1270=CARTESIAN_POINT('',(-6.3977691335613,-11.,-0.24999999999999));
#1271=DIRECTION('',(1.,0.,4.0066558350259E-16));
#1272=DIRECTION('',(0.,-1.,0.));
#1273=AXIS2_PLACEMENT_3D('',#1270,#1272,#1271);
#1274=PLANE('',#1273);
#1275=ORIENTED_EDGE('',*,*,#1194,.F.);
#1276=CARTESIAN_POINT('',(-9.9874921777191,-11.,-0.50000000000007));
#1277=DIRECTION('',(0.,0.,1.));
#1278=VECTOR('',#1277,1.0000000000001);
#1279=LINE('',#1276,#1278);
#1280=EDGE_CURVE('',#1186,#1205,#1279,.T.);
#1281=ORIENTED_EDGE('',*,*,#1280,.T.);
#1282=ORIENTED_EDGE('',*,*,#1211,.F.);
#1283=EDGE_LOOP('',(#1275,#1281,#1282));
#1284=FACE_OUTER_BOUND('',#1283,.T.);
#1285=ADVANCED_FACE('',(#1284),#1274,.T.);
#1286=CARTESIAN_POINT('',(-9.9874921777191,-14.15,5.4400928206633E-15));
#1287=DIRECTION('',(0.,1.,0.));
#1288=DIRECTION('',(-1.,0.,0.));
#1289=AXIS2_PLACEMENT_3D('',#1286,#1288,#1287);
#1290=PLANE('',#1289);
#1291=ORIENTED_EDGE('',*,*,#1217,.F.);
#1292=ORIENTED_EDGE('',*,*,#1280,.F.);
#1293=ORIENTED_EDGE('',*,*,#1237,.F.);
#1294=CARTESIAN_POINT('',(-9.9874921777191,-17.3,-0.49999999999999));
#1295=DIRECTION('',(0.,0.,1.));
#1296=VECTOR('',#1295,0.99999999999999);
#1297=LINE('',#1294,#1296);
#1298=EDGE_CURVE('',#1225,#1162,#1297,.T.);
#1299=ORIENTED_EDGE('',*,*,#1298,.T.);
#1300=EDGE_LOOP('',(#1291,#1292,#1293,#1299));
#1301=FACE_OUTER_BOUND('',#1300,.T.);
#1302=ADVANCED_FACE('',(#1301),#1290,.T.);
#1303=CARTESIAN_POINT('',(-9.8873643820091,-17.4,5.3290705182008E-15));
#1304=DIRECTION('',(-0.70755817446818,0.70665509956645,7.8454476163124E-16));
#1305=DIRECTION('',(-0.70665509956645,-0.70755817446818,1.2552716191456E-15));
#1306=AXIS2_PLACEMENT_3D('',#1303,#1305,#1304);
#1307=PLANE('',#1306);
#1308=ORIENTED_EDGE('',*,*,#1175,.F.);
#1309=ORIENTED_EDGE('',*,*,#1298,.F.);
#1310=CARTESIAN_POINT('',(-9.7872365862991,-17.5,-0.49999999999999));
#1311=DIRECTION('',(-0.70755817446818,0.70665509956644,0.));
#1312=VECTOR('',#1311,0.28302350060547);
#1313=LINE('',#1310,#1312);
#1314=EDGE_CURVE('',#1026,#1225,#1313,.T.);
#1315=ORIENTED_EDGE('',*,*,#1314,.F.);
#1316=ORIENTED_EDGE('',*,*,#1031,.F.);
#1317=EDGE_LOOP('',(#1308,#1309,#1315,#1316));
#1318=FACE_OUTER_BOUND('',#1317,.T.);
#1319=ADVANCED_FACE('',(#1318),#1307,.T.);
#1320=CARTESIAN_POINT('',(9.8209837638435,-17.466296474167,-5.4400928206633E-15));
#1321=DIRECTION('',(-0.70756424548294,-0.70664902074096,0.));
#1322=DIRECTION('',(0.70664902074096,-0.70756424548294,0.));
#1323=AXIS2_PLACEMENT_3D('',#1320,#1322,#1321);
#1324=PLANE('',#1323);
#1325=ORIENTED_EDGE('',*,*,#1140,.F.);
#1326=ORIENTED_EDGE('',*,*,#1014,.F.);
#1327=ORIENTED_EDGE('',*,*,#1156,.F.);
#1328=ORIENTED_EDGE('',*,*,#1150,.F.);
#1329=EDGE_LOOP('',(#1325,#1326,#1327,#1328));
#1330=FACE_OUTER_BOUND('',#1329,.T.);
#1331=ADVANCED_FACE('',(#1330),#1324,.T.);
#1332=CARTESIAN_POINT('',(-6.4727660346345,-14.514726143085,-0.5));
#1333=DIRECTION('',(1.,0.,-5.447252631289E-16));
#1334=DIRECTION('',(-5.447252631289E-16,-0.,-1.));
#1335=AXIS2_PLACEMENT_3D('',#1332,#1334,#1333);
#1336=PLANE('',#1335);
#1337=ORIENTED_EDGE('',*,*,#584,.F.);
#1338=EDGE_LOOP('',(#1337));
#1339=FACE_OUTER_BOUND('',#1338,.T.);
#1340=ORIENTED_EDGE('',*,*,#566,.F.);
#1341=EDGE_LOOP('',(#1340));
#1342=FACE_BOUND('',#1341,.T.);
#1343=ADVANCED_FACE('',(#1339,#1342),#1336,.T.);
#1344=CARTESIAN_POINT('',(-9.9874921775924,-17.3,0.50000000253129));
#1345=CARTESIAN_POINT('',(-9.4998435798583,-17.3,10.240773063783));
#1346=CARTESIAN_POINT('',(0.25007813924061,-17.3,9.9968725571688));
#1347=CARTESIAN_POINT('',(9.9999998583395,-17.3,9.7529720505543));
#1348=CARTESIAN_POINT('',(10.,-17.3,1.45248508443E-07));
#1349=CARTESIAN_POINT('',(10.00000014166,-17.3,-9.7529717600573));
#1350=CARTESIAN_POINT('',(0.25007842964678,-17.3,-9.9968725499041));
#1351=CARTESIAN_POINT('',(-9.4998432823669,-17.3,-10.240773339751));
#1352=CARTESIAN_POINT('',(-9.9874921630675,-17.3,-0.50000029266497));
#1353=CARTESIAN_POINT('',(-10.127134084634,-17.3,2.2893432692123));
#1354=CARTESIAN_POINT('',(-10.266776006201,-17.3,5.0786868310896));
#1355=CARTESIAN_POINT('',(-9.7877423340404,-17.5,0.49000000248065));
#1356=CARTESIAN_POINT('',(-9.3098467082611,-17.5,10.035957602507));
#1357=CARTESIAN_POINT('',(0.24507657645578,-17.5,9.7969351060253));
#1358=CARTESIAN_POINT('',(9.7999998611726,-17.5,9.5579126095431));
#1359=CARTESIAN_POINT('',(9.7999999999999,-17.5,1.4234354761555E-07));
#1360=CARTESIAN_POINT('',(9.8000001388272,-17.5,-9.557912324856));
#1361=CARTESIAN_POINT('',(0.24507686105385,-17.5,-9.7969350989059));
#1362=CARTESIAN_POINT('',(-9.3098464167195,-17.5,-10.035957872956));
#1363=CARTESIAN_POINT('',(-9.7877423198061,-17.5,-0.49000028681167));
#1364=CARTESIAN_POINT('',(-9.9245914029413,-17.5,2.243556403828));
#1365=CARTESIAN_POINT('',(-10.061440486077,-17.5,4.9771130944678));
#1366=(BOUNDED_SURFACE()B_SPLINE_SURFACE(1,2,((#1344,#1345,#1346,#1347,#1348,#1349,#1350,#1351,#1352,#1353,#1354),(#1355,#1356,#1357,#1358,#1359,#1360,#1361,#1362,#1363,#1364,#1365)),.RULED_SURF.,.F.,.F.,.U.)B_SPLINE_SURFACE_WITH_KNOTS((2,2),(3,2,2,2,2,3),(0.,0.34358140868529),(0.,19.002147462647,38.004294925294,57.006442387941,76.008589850588,83.609448835646),.UNSPECIFIED.)GEOMETRIC_REPRESENTATION_ITEM()RATIONAL_B_SPLINE_SURFACE(((1.,0.71589378696996,1.,0.71589378696996,1.,0.71589378696996,1.,0.71589378696996,1.,1.,1.),(1.,0.71589378696996,1.,0.71589378696996,1.,0.71589378696996,1.,0.71589378696996,1.,1.,1.)))REPRESENTATION_ITEM('')SURFACE());
#1367=ORIENTED_EDGE('',*,*,#782,.F.);
#1368=ORIENTED_EDGE('',*,*,#1103,.F.);
#1369=ORIENTED_EDGE('',*,*,#1040,.F.);
#1370=ORIENTED_EDGE('',*,*,#1314,.T.);
#1371=ORIENTED_EDGE('',*,*,#1231,.F.);
#1372=EDGE_LOOP('',(#1367,#1368,#1369,#1370,#1371));
#1373=FACE_OUTER_BOUND('',#1372,.T.);
#1374=ADVANCED_FACE('',(#1373),#1366,.T.);
#1375=CARTESIAN_POINT('',(-9.0262970262814E-15,-14.3,-2.7219500981795E-14));
#1376=DIRECTION('',(1.,-2.6119699769476E-15,3.0583918357367E-15));
#1377=DIRECTION('',(-2.6119699769476E-15,-1.,-1.0683251779909E-15));
#1378=AXIS2_PLACEMENT_3D('',#1375,#1377,#1376);
#1379=CONICAL_SURFACE('',#1378,0.,0.78539816339742);
#1380=ORIENTED_EDGE('',*,*,#1057,.F.);
#1381=CARTESIAN_POINT('',(3.2,-17.5,-2.0851287677008E-14));
#1382=DIRECTION('',(-0.70710678118655,0.70710678118655,7.3798632988594E-14));
#1383=VECTOR('',#1382,0.28284271247462);
#1384=LINE('',#1381,#1383);
#1385=EDGE_CURVE('',#1051,#1251,#1384,.T.);
#1386=ORIENTED_EDGE('',*,*,#1385,.T.);
#1387=ORIENTED_EDGE('',*,*,#1263,.F.);
#1388=ORIENTED_EDGE('',*,*,#1385,.F.);
#1389=EDGE_LOOP('',(#1380,#1386,#1387,#1388));
#1390=FACE_OUTER_BOUND('',#1389,.T.);
#1391=ADVANCED_FACE('',(#1390),#1379,.F.);
#1392=CLOSED_SHELL('',(#150,#178,#225,#263,#301,#339,#377,#406,#417,#428,#439,#450,#461,#472,#503,#528,#571,#604,#644,#695,#724,#760,#801,#867,#950,#983,#1061,#1086,#1109,#1127,#1179,#1244,#1269,#1285,#1302,#1319,#1331,#1343,#1374,#1391));
#1393=COLOUR_RGB('',0.745098,0.901961,0.960784);
#1394=FILL_AREA_STYLE_COLOUR('',#1393);
#1395=FILL_AREA_STYLE('',(#1394));
#1396=SURFACE_STYLE_FILL_AREA(#1395);
#1397=SURFACE_SIDE_STYLE('',(#1396));
#1398=SURFACE_STYLE_USAGE(.BOTH.,#1397);
#1399=PRESENTATION_STYLE_ASSIGNMENT((#1398));
#1400=OVER_RIDING_STYLED_ITEM('',(#1399),#150,#1392);
#1401=OVER_RIDING_STYLED_ITEM('',(#1399),#178,#1392);
#1402=OVER_RIDING_STYLED_ITEM('',(#1399),#225,#1392);
#1403=OVER_RIDING_STYLED_ITEM('',(#1399),#263,#1392);
#1404=OVER_RIDING_STYLED_ITEM('',(#1399),#301,#1392);
#1405=OVER_RIDING_STYLED_ITEM('',(#1399),#339,#1392);
#1406=OVER_RIDING_STYLED_ITEM('',(#1399),#377,#1392);
#1407=OVER_RIDING_STYLED_ITEM('',(#1399),#406,#1392);
#1408=OVER_RIDING_STYLED_ITEM('',(#1399),#417,#1392);
#1409=OVER_RIDING_STYLED_ITEM('',(#1399),#428,#1392);
#1410=OVER_RIDING_STYLED_ITEM('',(#1399),#439,#1392);
#1411=OVER_RIDING_STYLED_ITEM('',(#1399),#450,#1392);
#1412=OVER_RIDING_STYLED_ITEM('',(#1399),#461,#1392);
#1413=OVER_RIDING_STYLED_ITEM('',(#1399),#472,#1392);
#1414=COLOUR_RGB('',0.54902,0.54902,0.921569);
#1415=FILL_AREA_STYLE_COLOUR('',#1414);
#1416=FILL_AREA_STYLE('',(#1415));
#1417=SURFACE_STYLE_FILL_AREA(#1416);
#1418=SURFACE_SIDE_STYLE('',(#1417));
#1419=SURFACE_STYLE_USAGE(.BOTH.,#1418);
#1420=PRESENTATION_STYLE_ASSIGNMENT((#1419));
#1421=OVER_RIDING_STYLED_ITEM('',(#1420),#503,#1392);
#1422=OVER_RIDING_STYLED_ITEM('',(#1399),#528,#1392);
#1423=OVER_RIDING_STYLED_ITEM('',(#1399),#571,#1392);
#1424=OVER_RIDING_STYLED_ITEM('',(#1399),#604,#1392);
#1425=OVER_RIDING_STYLED_ITEM('',(#1399),#644,#1392);
#1426=OVER_RIDING_STYLED_ITEM('',(#1399),#695,#1392);
#1427=OVER_RIDING_STYLED_ITEM('',(#1399),#724,#1392);
#1428=OVER_RIDING_STYLED_ITEM('',(#1399),#760,#1392);
#1429=OVER_RIDING_STYLED_ITEM('',(#1399),#801,#1392);
#1430=OVER_RIDING_STYLED_ITEM('',(#1399),#867,#1392);
#1431=OVER_RIDING_STYLED_ITEM('',(#1399),#950,#1392);
#1432=OVER_RIDING_STYLED_ITEM('',(#1399),#983,#1392);
#1433=OVER_RIDING_STYLED_ITEM('',(#1399),#1061,#1392);
#1434=OVER_RIDING_STYLED_ITEM('',(#1399),#1086,#1392);
#1435=OVER_RIDING_STYLED_ITEM('',(#1399),#1109,#1392);
#1436=OVER_RIDING_STYLED_ITEM('',(#1399),#1127,#1392);
#1437=OVER_RIDING_STYLED_ITEM('',(#1399),#1179,#1392);
#1438=OVER_RIDING_STYLED_ITEM('',(#1399),#1244,#1392);
#1439=OVER_RIDING_STYLED_ITEM('',(#1399),#1269,#1392);
#1440=OVER_RIDING_STYLED_ITEM('',(#1399),#1285,#1392);
#1441=OVER_RIDING_STYLED_ITEM('',(#1399),#1302,#1392);
#1442=OVER_RIDING_STYLED_ITEM('',(#1399),#1319,#1392);
#1443=OVER_RIDING_STYLED_ITEM('',(#1399),#1331,#1392);
#1444=OVER_RIDING_STYLED_ITEM('',(#1399),#1343,#1392);
#1445=OVER_RIDING_STYLED_ITEM('',(#1399),#1374,#1392);
#1446=OVER_RIDING_STYLED_ITEM('',(#1399),#1391,#1392);
#1447=MANIFOLD_SOLID_BREP('S1',#1392);
#1448=ADVANCED_BREP_SHAPE_REPRESENTATION('',(#1447),#5);
#1449=SHAPE_REPRESENTATION_RELATIONSHIP('NONE', 'NONE', #28, #1448);
#1450=PRESENTATION_LAYER_ASSIGNMENT('Í¼²ã000','',(#1447));
#1451=MECHANICAL_DESIGN_GEOMETRIC_PRESENTATION_REPRESENTATION('',(#1400,#1401,#1402,#1403,#1404,#1405,#1406,#1407,#1408,#1409,#1410,#1411,#1412,#1413,#1421,#1422,#1423,#1424,#1425,#1426,#1427,#1428,#1429,#1430,#1431,#1432,#1433,#1434,#1435,#1436,#1437,#1438,#1439,#1440,#1441,#1442,#1443,#1444,#1445,#1446),#5);
ENDSEC;
END-ISO-10303-21;
