ISO-10303-21;
HEADER;
FILE_DESCRIPTION(
  ('This file contains a STEP AP42 implementation'
    ,'as created by ZW3D STEP Interface translator.')
  ,'2;1'
  );
FILE_NAME(
  '8mm±§½ôÊ½Áù½ÇÁªÖáÆ÷.stp'
  ,'25 512.173342',
  (''),
  ('ZWCAD Software Co.'),
  'Version 1.0',
  'ZW3D to STEP translator',
  ''
  );
FILE_SCHEMA(('AUTOMOTIVE_DESIGN { 1 0 10303 214 1 1 1 1 }'));
ENDSEC;

DATA;

/**File Base Unit**/
#1 = (LENGTH_UNIT()NAMED_UNIT(*)SI_UNIT(.MILLI.,.METRE.));
#2 = (NAMED_UNIT(*)PLANE_ANGLE_UNIT()SI_UNIT($,.RADIAN.));
#3 = (NAMED_UNIT(*)SI_UNIT($,.STERADIAN.)SOLID_ANGLE_UNIT());
#4 = UNCERTAINTY_MEASURE_WITH_UNIT(LENGTH_MEASURE(0.01),#1,'DISTANCE_ACCURACY_VALUE','Maximum Tolerance applied to model');
#5 = (GEOMETRIC_REPRESENTATION_CONTEXT(3)GLOBAL_UNCERTAINTY_ASSIGNED_CONTEXT((#4))GLOBAL_UNIT_ASSIGNED_CONTEXT((#1,#2,#3))REPRESENTATION_CONTEXT('STEP 203','TOP_LEVEL_ASSEMBLY_PART'));

/**product_definition_shape**/
#6=APPLICATION_CONTEXT('mechanical parts and assemblies' );
#7=DESIGN_CONTEXT('NONE',#6,'design');
#8=MECHANICAL_CONTEXT('NONE',#6,'mechanical');
#9=PRODUCT('0','Part','',(#8));
#10=PRODUCT_DEFINITION_FORMATION_WITH_SPECIFIED_SOURCE('ANY','',#9,.NOT_KNOWN.);
#11=PRODUCT_DEFINITION('UNKNOWN','',#10,#7);
#12=PRODUCT_DEFINITION_SHAPE('NONE','NONE',#11);
#13=PRODUCT_RELATED_PRODUCT_CATEGORY('detail','',(#9));
/**geometry information**/
#14=CARTESIAN_POINT('',(0.,0.,0.));
#15=DIRECTION('',(0.,0.,1.));
#16=DIRECTION('',(1.,0.,0.));
#17=AXIS2_PLACEMENT_3D('',#14,#15,#16);
#18=APPLICATION_CONTEXT('part');
#19=MECHANICAL_CONTEXT('none',#18,'component');
#20=PRODUCT('8mm±§½ôÊ½Áù½ÇÁªÖáÆ÷','8mm±§½ôÊ½Áù½ÇÁªÖáÆ÷','',(#19));
#21=PRODUCT_RELATED_PRODUCT_CATEGORY('detail','',(#20));
#22=PRODUCT_DEFINITION_FORMATION_WITH_SPECIFIED_SOURCE('ANY','UNSPECIFIED',#20,.NOT_KNOWN.);
#23=APPLICATION_CONTEXT('part');
#24=APPLICATION_PROTOCOL_DEFINITION('international standard','config_control_design',1994,#23);
#25=DESIGN_CONTEXT('detailed',#23,'design');
#26=PRODUCT_DEFINITION('','UNSPECIFIED',#22,#25);
#27=PRODUCT_DEFINITION_SHAPE('NONE','NONE',#26);
#28=SHAPE_REPRESENTATION('8mm±§½ôÊ½Áù½ÇÁªÖáÆ÷',(#17),#5);
#29=SHAPE_DEFINITION_REPRESENTATION(#27,#28);
#30=CARTESIAN_POINT('',(0.,-0.92820323027551,1.1367211149151E-16));
#31=DIRECTION('',(1.,0.,0.));
#32=DIRECTION('',(-0.,1.2246467991474E-16,1.));
#33=AXIS2_PLACEMENT_3D('',#30,#32,#31);
#34=PLANE('',#33);
#35=CARTESIAN_POINT('',(-2.4492935982949E-16,-4.,-1.7867651802561E-15));
#36=VERTEX_POINT('',#35);
#37=CARTESIAN_POINT('',(-2.4492935982947E-16,6.2172489379009E-15,4.0434666966663E-15));
#38=DIRECTION('',(6.5551490704517E-31,-1.,-8.0963875095327E-16));
#39=DIRECTION('',(-8.0963875095327E-16,-8.0963875095327E-16,1.));
#40=AXIS2_PLACEMENT_3D('',#37,#39,#38);
#41=CIRCLE('',#40,4.);
#42=EDGE_CURVE('',#36,#36,#41,.T.);
#43=ORIENTED_EDGE('',*,*,#42,.T.);
#44=EDGE_LOOP('',(#43));
#45=FACE_OUTER_BOUND('',#44,.T.);
#46=CARTESIAN_POINT('',(-1.3322676295502E-15,-1.65,2.0206672185931E-16));
#47=VERTEX_POINT('',#46);
#48=CARTESIAN_POINT('',(-8.6123989194507E-16,-2.2204460492503E-16,1.2325951644078E-31));
#49=DIRECTION('',(-2.8547135612432E-16,-1.,1.2246467991474E-16));
#50=DIRECTION('',(-3.2664710085729E-33,-1.2246467991474E-16,-1.));
#51=AXIS2_PLACEMENT_3D('',#48,#50,#49);
#52=CIRCLE('',#51,1.65);
#53=EDGE_CURVE('',#47,#47,#52,.T.);
#54=ORIENTED_EDGE('',*,*,#53,.T.);
#55=EDGE_LOOP('',(#54));
#56=FACE_BOUND('',#55,.T.);
#57=ADVANCED_FACE('',(#45,#56),#34,.T.);
#58=CARTESIAN_POINT('',(0.,-0.92820323027551,-6.5));
#59=DIRECTION('',(1.,0.,0.));
#60=DIRECTION('',(0.,-1.2819751242557E-16,-1.));
#61=AXIS2_PLACEMENT_3D('',#58,#60,#59);
#62=PLANE('',#61);
#63=CARTESIAN_POINT('',(-4.5726793215308,-4.079887088389,-6.5));
#64=VERTEX_POINT('',#63);
#65=CARTESIAN_POINT('',(-5.8196255238824,-1.920112911611,-6.5));
#66=VERTEX_POINT('',#65);
#67=CARTESIAN_POINT('',(-4.5726793215308,-4.079887088389,-6.5));
#68=DIRECTION('',(-0.50000000000001,0.86602540378444,0.));
#69=VECTOR('',#68,2.4938924047032);
#70=LINE('',#67,#69);
#71=EDGE_CURVE('',#64,#66,#70,.T.);
#72=ORIENTED_EDGE('',*,*,#71,.T.);
#73=CARTESIAN_POINT('',(-5.8196255238825,1.9201129116107,-6.5));
#74=VERTEX_POINT('',#73);
#75=CARTESIAN_POINT('',(-5.3290705182008E-15,6.6751973140406E-15,-6.5));
#76=DIRECTION('',(-0.94964630009844,-0.31332396127546,1.4493292508842E-16));
#77=DIRECTION('',(-1.7989358946286E-16,-4.8263312934119E-30,-1.));
#78=AXIS2_PLACEMENT_3D('',#75,#77,#76);
#79=CIRCLE('',#78,6.1282032302755);
#80=EDGE_CURVE('',#66,#74,#79,.T.);
#81=ORIENTED_EDGE('',*,*,#80,.T.);
#82=CARTESIAN_POINT('',(-4.5726793256379,4.0798870837859,-6.5));
#83=VERTEX_POINT('',#82);
#84=CARTESIAN_POINT('',(-5.8196255238825,1.9201129116107,-6.5));
#85=DIRECTION('',(0.49999999956407,0.86602540403612,0.));
#86=VECTOR('',#85,2.4938923986635);
#87=LINE('',#84,#86);
#88=EDGE_CURVE('',#74,#83,#87,.T.);
#89=ORIENTED_EDGE('',*,*,#88,.T.);
#90=CARTESIAN_POINT('',(-1.2469462023515,6.,-6.5));
#91=VERTEX_POINT('',#90);
#92=CARTESIAN_POINT('',(-1.0214051826551E-14,1.1546319456102E-14,-6.5));
#93=DIRECTION('',(-0.74616966079833,0.66575583910628,0.));
#94=DIRECTION('',(8.9946794528117E-17,-1.5579241791957E-16,-1.));
#95=AXIS2_PLACEMENT_3D('',#92,#94,#93);
#96=CIRCLE('',#95,6.1282032302755);
#97=EDGE_CURVE('',#83,#91,#96,.T.);
#98=ORIENTED_EDGE('',*,*,#97,.T.);
#99=CARTESIAN_POINT('',(1.2469462023516,6.,-6.5));
#100=VERTEX_POINT('',#99);
#101=CARTESIAN_POINT('',(-1.2469462023515,6.,-6.5));
#102=DIRECTION('',(1.,0.,0.));
#103=VECTOR('',#102,2.4938924047031);
#104=LINE('',#101,#103);
#105=EDGE_CURVE('',#91,#100,#104,.T.);
#106=ORIENTED_EDGE('',*,*,#105,.T.);
#107=CARTESIAN_POINT('',(4.5726793215308,4.079887088389,-6.5));
#108=VERTEX_POINT('',#107);
#109=CARTESIAN_POINT('',(4.8849813083507E-15,1.7763568394003E-15,-6.5));
#110=DIRECTION('',(0.2034766399703,0.97907980113288,-1.4493292508842E-16));
#111=DIRECTION('',(-8.9946794731418E-17,-1.5579241845278E-16,-1.));
#112=AXIS2_PLACEMENT_3D('',#109,#111,#110);
#113=CIRCLE('',#112,6.1282032302755);
#114=EDGE_CURVE('',#100,#108,#113,.T.);
#115=ORIENTED_EDGE('',*,*,#114,.T.);
#116=CARTESIAN_POINT('',(5.8196255238824,1.920112911611,-6.5));
#117=VERTEX_POINT('',#116);
#118=CARTESIAN_POINT('',(4.5726793215308,4.079887088389,-6.5));
#119=DIRECTION('',(0.50000000000001,-0.86602540378444,0.));
#120=VECTOR('',#119,2.4938924047032);
#121=LINE('',#118,#120);
#122=EDGE_CURVE('',#108,#117,#121,.T.);
#123=ORIENTED_EDGE('',*,*,#122,.T.);
#124=CARTESIAN_POINT('',(5.8196255238824,-1.920112911611,-6.5));
#125=VERTEX_POINT('',#124);
#126=CARTESIAN_POINT('',(-8.8817841970013E-16,1.8729071269311E-15,-6.5));
#127=DIRECTION('',(0.94964630009844,0.31332396127546,-8.6959755053052E-16));
#128=DIRECTION('',(-8.9946794731415E-16,2.0803152126771E-31,-1.));
#129=AXIS2_PLACEMENT_3D('',#126,#128,#127);
#130=CIRCLE('',#129,6.1282032302755);
#131=EDGE_CURVE('',#117,#125,#130,.T.);
#132=ORIENTED_EDGE('',*,*,#131,.T.);
#133=CARTESIAN_POINT('',(4.5726793215308,-4.079887088389,-6.5));
#134=VERTEX_POINT('',#133);
#135=CARTESIAN_POINT('',(5.8196255238824,-1.920112911611,-6.5));
#136=DIRECTION('',(-0.50000000000001,-0.86602540378444,0.));
#137=VECTOR('',#136,2.4938924047032);
#138=LINE('',#135,#137);
#139=EDGE_CURVE('',#125,#134,#138,.T.);
#140=ORIENTED_EDGE('',*,*,#139,.T.);
#141=CARTESIAN_POINT('',(1.2469462023516,-6.,-6.5));
#142=VERTEX_POINT('',#141);
#143=CARTESIAN_POINT('',(1.0214051826551E-14,-1.5987211554602E-14,-6.5));
#144=DIRECTION('',(0.74616966012814,-0.66575583985742,-2.8986585017684E-16));
#145=DIRECTION('',(-1.3492019209713E-16,2.3368862767918E-16,-1.));
#146=AXIS2_PLACEMENT_3D('',#143,#145,#144);
#147=CIRCLE('',#146,6.1282032302754);
#148=EDGE_CURVE('',#134,#142,#147,.T.);
#149=ORIENTED_EDGE('',*,*,#148,.T.);
#150=CARTESIAN_POINT('',(-1.2469462023514,-6.,-6.5));
#151=VERTEX_POINT('',#150);
#152=CARTESIAN_POINT('',(1.2469462023516,-6.,-6.5));
#153=DIRECTION('',(-1.,0.,0.));
#154=VECTOR('',#153,2.493892404703);
#155=LINE('',#152,#154);
#156=EDGE_CURVE('',#142,#151,#155,.T.);
#157=ORIENTED_EDGE('',*,*,#156,.T.);
#158=CARTESIAN_POINT('',(-1.7763568394003E-15,-3.5527136788005E-15,-6.5));
#159=DIRECTION('',(-0.20347663997027,-0.97907980113288,-2.3189268014147E-15));
#160=DIRECTION('',(1.3042285236054E-15,2.2589900675652E-15,-1.));
#161=AXIS2_PLACEMENT_3D('',#158,#160,#159);
#162=CIRCLE('',#161,6.1282032302755);
#163=EDGE_CURVE('',#151,#64,#162,.T.);
#164=ORIENTED_EDGE('',*,*,#163,.T.);
#165=EDGE_LOOP('',(#72,#81,#89,#98,#106,#115,#123,#132,#140,#149,#157,#164));
#166=FACE_OUTER_BOUND('',#165,.T.);
#167=CARTESIAN_POINT('',(-9.342574198273E-16,-1.65,-6.5));
#168=VERTEX_POINT('',#167);
#169=CARTESIAN_POINT('',(-1.4052851574324E-15,-2.2204460492503E-16,-6.5));
#170=DIRECTION('',(2.8547135612432E-16,-1.,-6.5305521830473E-17));
#171=DIRECTION('',(1.1418854244973E-15,-6.5305521830472E-17,1.));
#172=AXIS2_PLACEMENT_3D('',#169,#171,#170);
#173=CIRCLE('',#172,1.65);
#174=EDGE_CURVE('',#168,#168,#173,.T.);
#175=ORIENTED_EDGE('',*,*,#174,.T.);
#176=EDGE_LOOP('',(#175));
#177=FACE_BOUND('',#176,.T.);
#178=ADVANCED_FACE('',(#166,#177),#62,.T.);
#179=CARTESIAN_POINT('',(5.1961524227066,-3.,-3.25));
#180=DIRECTION('',(-0.5,-0.86602540378444,1.2819751242557E-16));
#181=DIRECTION('',(0.86602540378444,-0.5,6.832141690001E-17));
#182=AXIS2_PLACEMENT_3D('',#179,#181,#180);
#183=PLANE('',#182);
#184=CARTESIAN_POINT('',(6.9282032302755,4.2144662123773E-15,-5.1612325571025E-31));
#185=VERTEX_POINT('',#184);
#186=CARTESIAN_POINT('',(3.4641016151378,-6.,7.3478807948841E-16));
#187=VERTEX_POINT('',#186);
#188=CARTESIAN_POINT('',(6.9282032302755,4.2144662123773E-15,-5.1612325571025E-31));
#189=DIRECTION('',(-0.49999999999999,-0.86602540378444,1.0605752387249E-16));
#190=VECTOR('',#189,6.9282032302755);
#191=LINE('',#188,#190);
#192=EDGE_CURVE('',#185,#187,#191,.T.);
#193=ORIENTED_EDGE('',*,*,#192,.T.);
#194=CARTESIAN_POINT('',(3.4641016151378,-6.,-5.9));
#195=VERTEX_POINT('',#194);
#196=CARTESIAN_POINT('',(3.4641016151378,-6.,7.3478807948841E-16));
#197=DIRECTION('',(0.,0.,-1.));
#198=VECTOR('',#197,5.9);
#199=LINE('',#196,#198);
#200=EDGE_CURVE('',#187,#195,#199,.T.);
#201=ORIENTED_EDGE('',*,*,#200,.T.);
#202=CARTESIAN_POINT('',(3.4641016151378,-6.,-5.9));
#203=CARTESIAN_POINT('',(4.0523531887733,-4.981118386831,-6.3411886802266));
#204=CARTESIAN_POINT('',(4.5726793215308,-4.079887088389,-6.5));
#205=(BOUNDED_CURVE()B_SPLINE_CURVE(2,(#202,#203,#204),.HYPERBOLIC_ARC.,.F.,.U.)B_SPLINE_CURVE_WITH_KNOTS((3,3),(0.,1.),.UNSPECIFIED.)CURVE()GEOMETRIC_REPRESENTATION_ITEM()RATIONAL_B_SPLINE_CURVE((1.,1.0476704925597,1.065961955354))REPRESENTATION_ITEM(''));
#206=EDGE_CURVE('',#195,#134,#205,.T.);
#207=ORIENTED_EDGE('',*,*,#206,.T.);
#208=ORIENTED_EDGE('',*,*,#139,.F.);
#209=CARTESIAN_POINT('',(6.9282032302755,2.705584535015E-15,-5.9));
#210=VERTEX_POINT('',#209);
#211=CARTESIAN_POINT('',(5.8196255238824,-1.920112911611,-6.5));
#212=CARTESIAN_POINT('',(6.33995165664,-1.018881613169,-6.3411886802266));
#213=CARTESIAN_POINT('',(6.9282032302755,1.7763568394003E-15,-5.9));
#214=(BOUNDED_CURVE()B_SPLINE_CURVE(2,(#211,#212,#213),.HYPERBOLIC_ARC.,.F.,.U.)B_SPLINE_CURVE_WITH_KNOTS((3,3),(0.,1.),.UNSPECIFIED.)CURVE()GEOMETRIC_REPRESENTATION_ITEM()RATIONAL_B_SPLINE_CURVE((1.065961955354,1.0476704925597,1.))REPRESENTATION_ITEM(''));
#215=EDGE_CURVE('',#125,#210,#214,.T.);
#216=ORIENTED_EDGE('',*,*,#215,.T.);
#217=CARTESIAN_POINT('',(6.9282032302755,2.705584535015E-15,-5.9));
#218=DIRECTION('',(0.,2.5574265718005E-16,1.));
#219=VECTOR('',#218,5.9);
#220=LINE('',#217,#219);
#221=EDGE_CURVE('',#210,#185,#220,.T.);
#222=ORIENTED_EDGE('',*,*,#221,.T.);
#223=EDGE_LOOP('',(#193,#201,#207,#208,#216,#222));
#224=FACE_OUTER_BOUND('',#223,.T.);
#225=ADVANCED_FACE('',(#224),#183,.T.);
#226=CARTESIAN_POINT('',(-1.3322676295502E-15,-6.,-3.25));
#227=DIRECTION('',(-1.,3.8459253727671E-16,0.));
#228=DIRECTION('',(-3.8459253727671E-16,-1.,1.3664283380002E-16));
#229=AXIS2_PLACEMENT_3D('',#226,#228,#227);
#230=PLANE('',#229);
#231=CARTESIAN_POINT('',(-3.4641016151378,-6.,7.3478807948841E-16));
#232=VERTEX_POINT('',#231);
#233=CARTESIAN_POINT('',(3.4641016151378,-6.,7.3478807948841E-16));
#234=DIRECTION('',(-1.,0.,0.));
#235=VECTOR('',#234,6.9282032302756);
#236=LINE('',#233,#235);
#237=EDGE_CURVE('',#187,#232,#236,.T.);
#238=ORIENTED_EDGE('',*,*,#237,.T.);
#239=CARTESIAN_POINT('',(-3.4641016151378,-6.,-5.9));
#240=VERTEX_POINT('',#239);
#241=CARTESIAN_POINT('',(-3.4641016151378,-6.,7.3478807948841E-16));
#242=DIRECTION('',(0.,0.,-1.));
#243=VECTOR('',#242,5.9);
#244=LINE('',#241,#243);
#245=EDGE_CURVE('',#232,#240,#244,.T.);
#246=ORIENTED_EDGE('',*,*,#245,.T.);
#247=CARTESIAN_POINT('',(-3.4641016151377,-6.,-5.9));
#248=CARTESIAN_POINT('',(-2.2875984678667,-6.,-6.3411886802266));
#249=CARTESIAN_POINT('',(-1.2469462023516,-6.,-6.5));
#250=(BOUNDED_CURVE()B_SPLINE_CURVE(2,(#247,#248,#249),.HYPERBOLIC_ARC.,.F.,.U.)B_SPLINE_CURVE_WITH_KNOTS((3,3),(0.,1.),.UNSPECIFIED.)CURVE()GEOMETRIC_REPRESENTATION_ITEM()RATIONAL_B_SPLINE_CURVE((1.,1.0476704925597,1.065961955354))REPRESENTATION_ITEM(''));
#251=EDGE_CURVE('',#240,#151,#250,.T.);
#252=ORIENTED_EDGE('',*,*,#251,.T.);
#253=ORIENTED_EDGE('',*,*,#156,.F.);
#254=CARTESIAN_POINT('',(1.2469462023516,-6.,-6.5));
#255=CARTESIAN_POINT('',(2.2875984678667,-6.,-6.3411886802266));
#256=CARTESIAN_POINT('',(3.4641016151377,-6.,-5.9));
#257=(BOUNDED_CURVE()B_SPLINE_CURVE(2,(#254,#255,#256),.HYPERBOLIC_ARC.,.F.,.U.)B_SPLINE_CURVE_WITH_KNOTS((3,3),(0.,1.),.UNSPECIFIED.)CURVE()GEOMETRIC_REPRESENTATION_ITEM()RATIONAL_B_SPLINE_CURVE((1.065961955354,1.0476704925597,1.))REPRESENTATION_ITEM(''));
#258=EDGE_CURVE('',#142,#195,#257,.T.);
#259=ORIENTED_EDGE('',*,*,#258,.T.);
#260=ORIENTED_EDGE('',*,*,#200,.F.);
#261=EDGE_LOOP('',(#238,#246,#252,#253,#259,#260));
#262=FACE_OUTER_BOUND('',#261,.T.);
#263=ADVANCED_FACE('',(#262),#230,.T.);
#264=CARTESIAN_POINT('',(-5.1961524227066,-3.,-3.25));
#265=DIRECTION('',(-0.5,0.86602540378444,-1.2819751242557E-16));
#266=DIRECTION('',(-0.86602540378444,-0.5,6.832141690001E-17));
#267=AXIS2_PLACEMENT_3D('',#264,#266,#265);
#268=PLANE('',#267);
#269=CARTESIAN_POINT('',(-6.9282032302755,-3.3660060213973E-15,4.122168500015E-31));
#270=VERTEX_POINT('',#269);
#271=CARTESIAN_POINT('',(-3.4641016151378,-6.,7.3478807948841E-16));
#272=DIRECTION('',(-0.49999999999999,0.86602540378444,-1.0605752387249E-16));
#273=VECTOR('',#272,6.9282032302755);
#274=LINE('',#271,#273);
#275=EDGE_CURVE('',#232,#270,#274,.T.);
#276=ORIENTED_EDGE('',*,*,#275,.T.);
#277=CARTESIAN_POINT('',(-6.9282032302755,-5.7731597280508E-15,-5.9));
#278=VERTEX_POINT('',#277);
#279=CARTESIAN_POINT('',(-6.9282032302755,-3.3660060213973E-15,4.122168500015E-31));
#280=DIRECTION('',(0.,-4.0799215367008E-16,-1.));
#281=VECTOR('',#280,5.9);
#282=LINE('',#279,#281);
#283=EDGE_CURVE('',#270,#278,#282,.T.);
#284=ORIENTED_EDGE('',*,*,#283,.T.);
#285=CARTESIAN_POINT('',(-6.9282032302755,-1.8651746813703E-14,-5.9));
#286=CARTESIAN_POINT('',(-6.33995165664,-1.0188816131691,-6.3411886802266));
#287=CARTESIAN_POINT('',(-5.8196255238824,-1.920112911611,-6.5));
#288=(BOUNDED_CURVE()B_SPLINE_CURVE(2,(#285,#286,#287),.HYPERBOLIC_ARC.,.F.,.U.)B_SPLINE_CURVE_WITH_KNOTS((3,3),(0.,1.),.UNSPECIFIED.)CURVE()GEOMETRIC_REPRESENTATION_ITEM()RATIONAL_B_SPLINE_CURVE((1.,1.0476704925597,1.065961955354))REPRESENTATION_ITEM(''));
#289=EDGE_CURVE('',#278,#66,#288,.T.);
#290=ORIENTED_EDGE('',*,*,#289,.T.);
#291=ORIENTED_EDGE('',*,*,#71,.F.);
#292=CARTESIAN_POINT('',(-4.5726793215308,-4.079887088389,-6.5));
#293=CARTESIAN_POINT('',(-4.0523531887733,-4.9811183868309,-6.3411886802266));
#294=CARTESIAN_POINT('',(-3.4641016151378,-6.,-5.9));
#295=(BOUNDED_CURVE()B_SPLINE_CURVE(2,(#292,#293,#294),.HYPERBOLIC_ARC.,.F.,.U.)B_SPLINE_CURVE_WITH_KNOTS((3,3),(0.,1.),.UNSPECIFIED.)CURVE()GEOMETRIC_REPRESENTATION_ITEM()RATIONAL_B_SPLINE_CURVE((1.065961955354,1.0476704925597,1.))REPRESENTATION_ITEM(''));
#296=EDGE_CURVE('',#64,#240,#295,.T.);
#297=ORIENTED_EDGE('',*,*,#296,.T.);
#298=ORIENTED_EDGE('',*,*,#245,.F.);
#299=EDGE_LOOP('',(#276,#284,#290,#291,#297,#298));
#300=FACE_OUTER_BOUND('',#299,.T.);
#301=ADVANCED_FACE('',(#300),#268,.T.);
#302=CARTESIAN_POINT('',(-5.1961524227066,3.,-3.25));
#303=DIRECTION('',(0.5,0.86602540378444,-1.2819751242557E-16));
#304=DIRECTION('',(-0.86602540378444,0.5,-6.832141690001E-17));
#305=AXIS2_PLACEMENT_3D('',#302,#304,#303);
#306=PLANE('',#305);
#307=CARTESIAN_POINT('',(-3.4641016151378,6.,-7.3478807948841E-16));
#308=VERTEX_POINT('',#307);
#309=CARTESIAN_POINT('',(-6.9282032302755,-3.3660060213973E-15,4.122168500015E-31));
#310=DIRECTION('',(0.49999999999999,0.86602540378444,-1.0605752387249E-16));
#311=VECTOR('',#310,6.9282032302755);
#312=LINE('',#309,#311);
#313=EDGE_CURVE('',#270,#308,#312,.T.);
#314=ORIENTED_EDGE('',*,*,#313,.T.);
#315=CARTESIAN_POINT('',(-3.4641016151378,6.,-5.9));
#316=VERTEX_POINT('',#315);
#317=CARTESIAN_POINT('',(-3.4641016151378,6.,-7.3478807948841E-16));
#318=DIRECTION('',(0.,0.,-1.));
#319=VECTOR('',#318,5.9);
#320=LINE('',#317,#319);
#321=EDGE_CURVE('',#308,#316,#320,.T.);
#322=ORIENTED_EDGE('',*,*,#321,.T.);
#323=CARTESIAN_POINT('',(-3.4641016151378,6.,-5.9));
#324=CARTESIAN_POINT('',(-4.0523531887733,4.9811183868309,-6.3411886802266));
#325=CARTESIAN_POINT('',(-4.5726793215308,4.079887088389,-6.5));
#326=(BOUNDED_CURVE()B_SPLINE_CURVE(2,(#323,#324,#325),.HYPERBOLIC_ARC.,.F.,.U.)B_SPLINE_CURVE_WITH_KNOTS((3,3),(0.,1.),.UNSPECIFIED.)CURVE()GEOMETRIC_REPRESENTATION_ITEM()RATIONAL_B_SPLINE_CURVE((1.,1.0476704925597,1.065961955354))REPRESENTATION_ITEM(''));
#327=EDGE_CURVE('',#316,#83,#326,.T.);
#328=ORIENTED_EDGE('',*,*,#327,.T.);
#329=ORIENTED_EDGE('',*,*,#88,.F.);
#330=CARTESIAN_POINT('',(-5.8196255238824,1.920112911611,-6.5));
#331=CARTESIAN_POINT('',(-6.33995165664,1.0188816131691,-6.3411886802266));
#332=CARTESIAN_POINT('',(-6.9282032302755,7.105427357601E-15,-5.9));
#333=(BOUNDED_CURVE()B_SPLINE_CURVE(2,(#330,#331,#332),.HYPERBOLIC_ARC.,.F.,.U.)B_SPLINE_CURVE_WITH_KNOTS((3,3),(0.,1.),.UNSPECIFIED.)CURVE()GEOMETRIC_REPRESENTATION_ITEM()RATIONAL_B_SPLINE_CURVE((1.065961955354,1.0476704925597,1.))REPRESENTATION_ITEM(''));
#334=EDGE_CURVE('',#74,#278,#333,.T.);
#335=ORIENTED_EDGE('',*,*,#334,.T.);
#336=ORIENTED_EDGE('',*,*,#283,.F.);
#337=EDGE_LOOP('',(#314,#322,#328,#329,#335,#336));
#338=FACE_OUTER_BOUND('',#337,.T.);
#339=ADVANCED_FACE('',(#338),#306,.T.);
#340=CARTESIAN_POINT('',(-8.8817841970013E-16,6.,-3.25));
#341=DIRECTION('',(1.,3.8459253727671E-16,0.));
#342=DIRECTION('',(-3.8459253727671E-16,1.,-1.3664283380002E-16));
#343=AXIS2_PLACEMENT_3D('',#340,#342,#341);
#344=PLANE('',#343);
#345=CARTESIAN_POINT('',(3.4641016151378,6.,-7.3478807948841E-16));
#346=VERTEX_POINT('',#345);
#347=CARTESIAN_POINT('',(-3.4641016151378,6.,-7.3478807948841E-16));
#348=DIRECTION('',(1.,0.,0.));
#349=VECTOR('',#348,6.9282032302756);
#350=LINE('',#347,#349);
#351=EDGE_CURVE('',#308,#346,#350,.T.);
#352=ORIENTED_EDGE('',*,*,#351,.T.);
#353=CARTESIAN_POINT('',(3.4641016151378,6.,-5.9));
#354=VERTEX_POINT('',#353);
#355=CARTESIAN_POINT('',(3.4641016151378,6.,-7.3478807948841E-16));
#356=DIRECTION('',(0.,0.,-1.));
#357=VECTOR('',#356,5.9);
#358=LINE('',#355,#357);
#359=EDGE_CURVE('',#346,#354,#358,.T.);
#360=ORIENTED_EDGE('',*,*,#359,.T.);
#361=CARTESIAN_POINT('',(3.4641016151377,6.,-5.9));
#362=CARTESIAN_POINT('',(2.2875984678667,6.,-6.3411886802266));
#363=CARTESIAN_POINT('',(1.2469462023516,6.,-6.5));
#364=(BOUNDED_CURVE()B_SPLINE_CURVE(2,(#361,#362,#363),.HYPERBOLIC_ARC.,.F.,.U.)B_SPLINE_CURVE_WITH_KNOTS((3,3),(0.,1.),.UNSPECIFIED.)CURVE()GEOMETRIC_REPRESENTATION_ITEM()RATIONAL_B_SPLINE_CURVE((1.,1.0476704925597,1.065961955354))REPRESENTATION_ITEM(''));
#365=EDGE_CURVE('',#354,#100,#364,.T.);
#366=ORIENTED_EDGE('',*,*,#365,.T.);
#367=ORIENTED_EDGE('',*,*,#105,.F.);
#368=CARTESIAN_POINT('',(-1.2469462023516,6.,-6.5));
#369=CARTESIAN_POINT('',(-2.2875984678667,6.,-6.3411886802266));
#370=CARTESIAN_POINT('',(-3.4641016151377,6.,-5.9));
#371=(BOUNDED_CURVE()B_SPLINE_CURVE(2,(#368,#369,#370),.HYPERBOLIC_ARC.,.F.,.U.)B_SPLINE_CURVE_WITH_KNOTS((3,3),(0.,1.),.UNSPECIFIED.)CURVE()GEOMETRIC_REPRESENTATION_ITEM()RATIONAL_B_SPLINE_CURVE((1.065961955354,1.0476704925597,1.))REPRESENTATION_ITEM(''));
#372=EDGE_CURVE('',#91,#316,#371,.T.);
#373=ORIENTED_EDGE('',*,*,#372,.T.);
#374=ORIENTED_EDGE('',*,*,#321,.F.);
#375=EDGE_LOOP('',(#352,#360,#366,#367,#373,#374));
#376=FACE_OUTER_BOUND('',#375,.T.);
#377=ADVANCED_FACE('',(#376),#344,.T.);
#378=CARTESIAN_POINT('',(5.1961524227066,3.,-3.25));
#379=DIRECTION('',(0.5,-0.86602540378444,1.2819751242557E-16));
#380=DIRECTION('',(0.86602540378444,0.5,-1.9581091645797E-16));
#381=AXIS2_PLACEMENT_3D('',#378,#380,#379);
#382=PLANE('',#381);
#383=CARTESIAN_POINT('',(3.4641016151378,6.,-7.3478807948841E-16));
#384=DIRECTION('',(0.49999999999999,-0.86602540378444,1.0605752387249E-16));
#385=VECTOR('',#384,6.9282032302755);
#386=LINE('',#383,#385);
#387=EDGE_CURVE('',#346,#185,#386,.T.);
#388=ORIENTED_EDGE('',*,*,#387,.T.);
#389=ORIENTED_EDGE('',*,*,#221,.F.);
#390=CARTESIAN_POINT('',(6.9282032302755,6.2172489379009E-15,-5.9));
#391=CARTESIAN_POINT('',(6.33995165664,1.018881613169,-6.3411886802266));
#392=CARTESIAN_POINT('',(5.8196255238824,1.920112911611,-6.5));
#393=(BOUNDED_CURVE()B_SPLINE_CURVE(2,(#390,#391,#392),.HYPERBOLIC_ARC.,.F.,.U.)B_SPLINE_CURVE_WITH_KNOTS((3,3),(0.,1.),.UNSPECIFIED.)CURVE()GEOMETRIC_REPRESENTATION_ITEM()RATIONAL_B_SPLINE_CURVE((1.,1.0476704925597,1.065961955354))REPRESENTATION_ITEM(''));
#394=EDGE_CURVE('',#210,#117,#393,.T.);
#395=ORIENTED_EDGE('',*,*,#394,.T.);
#396=ORIENTED_EDGE('',*,*,#122,.F.);
#397=CARTESIAN_POINT('',(4.5726793215308,4.079887088389,-6.5));
#398=CARTESIAN_POINT('',(4.0523531887733,4.981118386831,-6.3411886802266));
#399=CARTESIAN_POINT('',(3.4641016151378,6.,-5.9));
#400=(BOUNDED_CURVE()B_SPLINE_CURVE(2,(#397,#398,#399),.HYPERBOLIC_ARC.,.F.,.U.)B_SPLINE_CURVE_WITH_KNOTS((3,3),(0.,1.),.UNSPECIFIED.)CURVE()GEOMETRIC_REPRESENTATION_ITEM()RATIONAL_B_SPLINE_CURVE((1.065961955354,1.0476704925597,1.))REPRESENTATION_ITEM(''));
#401=EDGE_CURVE('',#108,#354,#400,.T.);
#402=ORIENTED_EDGE('',*,*,#401,.T.);
#403=ORIENTED_EDGE('',*,*,#359,.F.);
#404=EDGE_LOOP('',(#388,#389,#395,#396,#402,#403));
#405=FACE_OUTER_BOUND('',#404,.T.);
#406=ADVANCED_FACE('',(#405),#382,.T.);
#407=CARTESIAN_POINT('',(2.2204460492503E-16,-7.105427357601E-15,-11.096152422707));
#408=DIRECTION('',(-0.5,0.86602540378444,1.7444408075594E-17));
#409=DIRECTION('',(-2.4390110664149E-18,-2.1551231092347E-17,1.));
#410=AXIS2_PLACEMENT_3D('',#407,#409,#408);
#411=CONICAL_SURFACE('',#410,0.,0.92729521800162);
#412=ORIENTED_EDGE('',*,*,#206,.F.);
#413=ORIENTED_EDGE('',*,*,#258,.F.);
#414=ORIENTED_EDGE('',*,*,#148,.F.);
#415=EDGE_LOOP('',(#412,#413,#414));
#416=FACE_OUTER_BOUND('',#415,.T.);
#417=ADVANCED_FACE('',(#416),#411,.T.);
#418=CARTESIAN_POINT('',(2.2204460492503E-16,-7.105427357601E-15,-11.096152422707));
#419=DIRECTION('',(0.5,0.86602540378444,0.));
#420=DIRECTION('',(-0.,-0.,1.));
#421=AXIS2_PLACEMENT_3D('',#418,#420,#419);
#422=CONICAL_SURFACE('',#421,0.,0.92729521800162);
#423=ORIENTED_EDGE('',*,*,#251,.F.);
#424=ORIENTED_EDGE('',*,*,#296,.F.);
#425=ORIENTED_EDGE('',*,*,#163,.F.);
#426=EDGE_LOOP('',(#423,#424,#425));
#427=FACE_OUTER_BOUND('',#426,.T.);
#428=ADVANCED_FACE('',(#427),#422,.T.);
#429=CARTESIAN_POINT('',(2.2204460492503E-16,-7.105427357601E-15,-11.096152422707));
#430=DIRECTION('',(1.,7.3624128603512E-15,1.008973993605E-17));
#431=DIRECTION('',(-1.0089739936051E-17,3.149331052362E-17,1.));
#432=AXIS2_PLACEMENT_3D('',#429,#431,#430);
#433=CONICAL_SURFACE('',#432,0.,0.92729521800162);
#434=ORIENTED_EDGE('',*,*,#289,.F.);
#435=ORIENTED_EDGE('',*,*,#334,.F.);
#436=ORIENTED_EDGE('',*,*,#80,.F.);
#437=EDGE_LOOP('',(#434,#435,#436));
#438=FACE_OUTER_BOUND('',#437,.T.);
#439=ADVANCED_FACE('',(#438),#433,.T.);
#440=CARTESIAN_POINT('',(2.2204460492503E-16,-7.105427357601E-15,-11.096152422707));
#441=DIRECTION('',(0.50000000013971,-0.86602540370378,1.7444408067931E-17));
#442=DIRECTION('',(2.4390110618668E-18,2.1551231083273E-17,1.));
#443=AXIS2_PLACEMENT_3D('',#440,#442,#441);
#444=CONICAL_SURFACE('',#443,0.,0.92729521800162);
#445=ORIENTED_EDGE('',*,*,#327,.F.);
#446=ORIENTED_EDGE('',*,*,#372,.F.);
#447=ORIENTED_EDGE('',*,*,#97,.F.);
#448=EDGE_LOOP('',(#445,#446,#447));
#449=FACE_OUTER_BOUND('',#448,.T.);
#450=ADVANCED_FACE('',(#449),#444,.T.);
#451=CARTESIAN_POINT('',(2.2204460492503E-16,-7.105427357601E-15,-11.096152422707));
#452=DIRECTION('',(-0.5,-0.86602540378444,3.4888816151189E-17));
#453=DIRECTION('',(3.9766838284018E-17,1.7326740005094E-17,1.));
#454=AXIS2_PLACEMENT_3D('',#451,#453,#452);
#455=CONICAL_SURFACE('',#454,0.,0.92729521800162);
#456=ORIENTED_EDGE('',*,*,#365,.F.);
#457=ORIENTED_EDGE('',*,*,#401,.F.);
#458=ORIENTED_EDGE('',*,*,#114,.F.);
#459=EDGE_LOOP('',(#456,#457,#458));
#460=FACE_OUTER_BOUND('',#459,.T.);
#461=ADVANCED_FACE('',(#460),#455,.T.);
#462=CARTESIAN_POINT('',(3.4149381535906E-13,-5.3288558182887E-14,-11.096152422707));
#463=DIRECTION('',(-1.,-5.4368255544577E-15,-2.5756887532288E-14));
#464=DIRECTION('',(-2.5756887532288E-14,4.3171902510287E-15,1.));
#465=AXIS2_PLACEMENT_3D('',#462,#464,#463);
#466=CONICAL_SURFACE('',#465,0.,0.92729521800163);
#467=ORIENTED_EDGE('',*,*,#215,.F.);
#468=ORIENTED_EDGE('',*,*,#131,.F.);
#469=ORIENTED_EDGE('',*,*,#394,.F.);
#470=EDGE_LOOP('',(#467,#468,#469));
#471=FACE_OUTER_BOUND('',#470,.T.);
#472=ADVANCED_FACE('',(#471),#466,.T.);
#473=CARTESIAN_POINT('',(-1.1102230246252E-15,-1.6098233857065E-15,8.4968817126927E-16));
#474=DIRECTION('',(-1.3457248783341E-16,-1.,2.3327423291429E-17));
#475=DIRECTION('',(6.1232339957368E-17,-9.3941948237513E-17,-1.));
#476=AXIS2_PLACEMENT_3D('',#473,#475,#474);
#477=CYLINDRICAL_SURFACE('',#476,1.65);
#478=CARTESIAN_POINT('',(-1.3322676295502E-15,-1.65,2.0206672185931E-16));
#479=DIRECTION('',(6.1232339957369E-17,0.,-1.));
#480=VECTOR('',#479,6.5);
#481=LINE('',#478,#480);
#482=EDGE_CURVE('',#47,#168,#481,.T.);
#483=ORIENTED_EDGE('',*,*,#482,.T.);
#484=ORIENTED_EDGE('',*,*,#174,.F.);
#485=ORIENTED_EDGE('',*,*,#482,.F.);
#486=ORIENTED_EDGE('',*,*,#53,.F.);
#487=EDGE_LOOP('',(#483,#484,#485,#486));
#488=FACE_OUTER_BOUND('',#487,.T.);
#489=ADVANCED_FACE('',(#488),#477,.F.);
#490=CARTESIAN_POINT('',(-3.5723395348041,-3.5527136788005E-15,0.));
#491=DIRECTION('',(1.,0.,0.));
#492=DIRECTION('',(0.,0.,-1.));
#493=AXIS2_PLACEMENT_3D('',#490,#492,#491);
#494=PLANE('',#493);
#495=CARTESIAN_POINT('',(13.8,-3.5914733529708E-11,7.2164496600635E-16));
#496=VERTEX_POINT('',#495);
#497=CARTESIAN_POINT('',(7.105427357601E-15,2.7823034480994E-14,-2.3613366386052E-15));
#498=DIRECTION('',(1.,-2.6045330843615E-12,2.2340446410228E-16));
#499=DIRECTION('',(2.234044641029E-16,2.3717718922895E-16,-1.));
#500=AXIS2_PLACEMENT_3D('',#497,#499,#498);
#501=CIRCLE('',#500,13.8);
#502=EDGE_CURVE('',#496,#496,#501,.T.);
#503=ORIENTED_EDGE('',*,*,#502,.T.);
#504=EDGE_LOOP('',(#503));
#505=FACE_OUTER_BOUND('',#504,.T.);
#506=ORIENTED_EDGE('',*,*,#275,.F.);
#507=ORIENTED_EDGE('',*,*,#237,.F.);
#508=ORIENTED_EDGE('',*,*,#192,.F.);
#509=ORIENTED_EDGE('',*,*,#387,.F.);
#510=ORIENTED_EDGE('',*,*,#351,.F.);
#511=ORIENTED_EDGE('',*,*,#313,.F.);
#512=EDGE_LOOP('',(#506,#507,#508,#509,#510,#511));
#513=FACE_BOUND('',#512,.T.);
#514=ADVANCED_FACE('',(#505,#513),#494,.T.);
#515=CARTESIAN_POINT('',(1.5099033134902E-14,2.8421709430404E-14,0.2));
#516=DIRECTION('',(1.,-2.6045745787956E-12,4.9563527885052E-17));
#517=DIRECTION('',(-2.8467257041671E-16,-2.3633171552925E-16,1.));
#518=AXIS2_PLACEMENT_3D('',#515,#517,#516);
#519=CYLINDRICAL_SURFACE('',#518,14.);
#520=CARTESIAN_POINT('',(14.,-8.8817841970037E-16,8.));
#521=VERTEX_POINT('',#520);
#522=CARTESIAN_POINT('',(5.7084353079303,-12.783339404677,8.));
#523=VERTEX_POINT('',#522);
#524=CARTESIAN_POINT('',(1.5987211554602E-14,-9.7699626167014E-15,8.));
#525=DIRECTION('',(1.,6.3441315692864E-16,-6.3441315692866E-17));
#526=DIRECTION('',(-4.1316708805447E-17,2.6798957070515E-17,-1.));
#527=AXIS2_PLACEMENT_3D('',#524,#526,#525);
#528=CIRCLE('',#527,14.);
#529=EDGE_CURVE('',#521,#523,#528,.T.);
#530=ORIENTED_EDGE('',*,*,#529,.T.);
#531=CARTESIAN_POINT('',(5.7084353079303,-12.783339404677,9.));
#532=VERTEX_POINT('',#531);
#533=CARTESIAN_POINT('',(5.7084353079303,-12.783339404677,8.));
#534=DIRECTION('',(0.,0.,1.));
#535=VECTOR('',#534,1.);
#536=LINE('',#533,#535);
#537=EDGE_CURVE('',#523,#532,#536,.T.);
#538=ORIENTED_EDGE('',*,*,#537,.T.);
#539=CARTESIAN_POINT('',(14.,-1.1430036792042E-15,9.));
#540=VERTEX_POINT('',#539);
#541=CARTESIAN_POINT('',(1.5987211554602E-14,-6.2172489379009E-15,9.));
#542=DIRECTION('',(0.40774537913789,-0.91309567176266,-1.2688263138573E-16));
#543=DIRECTION('',(1.4607473330376E-16,4.4211353578591E-17,1.));
#544=AXIS2_PLACEMENT_3D('',#541,#543,#542);
#545=CIRCLE('',#544,14.);
#546=EDGE_CURVE('',#532,#540,#545,.T.);
#547=ORIENTED_EDGE('',*,*,#546,.T.);
#548=CARTESIAN_POINT('',(14.,-1.7145055188063E-15,15.8));
#549=VERTEX_POINT('',#548);
#550=CARTESIAN_POINT('',(14.,-1.1430036792042E-15,9.));
#551=DIRECTION('',(0.,-8.4044388176779E-17,1.));
#552=VECTOR('',#551,6.8);
#553=LINE('',#550,#552);
#554=EDGE_CURVE('',#540,#549,#553,.T.);
#555=ORIENTED_EDGE('',*,*,#554,.T.);
#556=CARTESIAN_POINT('',(-0.50000000010651,13.991068579629,15.8));
#557=VERTEX_POINT('',#556);
#558=CARTESIAN_POINT('',(-8.8817841970013E-15,8.8817841970013E-15,15.8));
#559=DIRECTION('',(1.,-7.568778368434E-16,0.));
#560=DIRECTION('',(1.4114065423538E-16,-1.3504502164602E-16,-1.));
#561=AXIS2_PLACEMENT_3D('',#558,#560,#559);
#562=CIRCLE('',#561,14.);
#563=EDGE_CURVE('',#549,#557,#562,.T.);
#564=ORIENTED_EDGE('',*,*,#563,.T.);
#565=CARTESIAN_POINT('',(-0.5,13.991068579633,8.));
#566=VERTEX_POINT('',#565);
#567=CARTESIAN_POINT('',(-0.50000000010651,13.991068579629,15.8));
#568=DIRECTION('',(1.3655131156863E-11,5.1286610286274E-13,-1.));
#569=VECTOR('',#568,7.8);
#570=LINE('',#567,#569);
#571=EDGE_CURVE('',#557,#566,#570,.T.);
#572=ORIENTED_EDGE('',*,*,#571,.T.);
#573=CARTESIAN_POINT('',(-2.8421709430404E-14,8.7752027866372E-13,8.));
#574=DIRECTION('',(-0.035714285714287,0.99936204140237,6.9785447262158E-16));
#575=DIRECTION('',(-1.2702971204794E-15,5.400912644988E-16,-1.));
#576=AXIS2_PLACEMENT_3D('',#573,#575,#574);
#577=CIRCLE('',#576,13.999999999999);
#578=EDGE_CURVE('',#566,#521,#577,.T.);
#579=ORIENTED_EDGE('',*,*,#578,.T.);
#580=CARTESIAN_POINT('',(14.,-2.2204460492509E-17,0.2));
#581=VERTEX_POINT('',#580);
#582=CARTESIAN_POINT('',(14.,-8.8817841970037E-16,8.));
#583=DIRECTION('',(0.,1.1102230246255E-16,-1.));
#584=VECTOR('',#583,7.8);
#585=LINE('',#582,#584);
#586=EDGE_CURVE('',#521,#581,#585,.T.);
#587=ORIENTED_EDGE('',*,*,#586,.T.);
#588=CARTESIAN_POINT('',(7.105427357601E-15,2.1331052977605E-14,0.2));
#589=DIRECTION('',(1.,-1.52523267415E-15,2.2608928868741E-16));
#590=DIRECTION('',(-2.2608928868741E-16,-3.8271003680417E-16,1.));
#591=AXIS2_PLACEMENT_3D('',#588,#590,#589);
#592=CIRCLE('',#591,14.);
#593=EDGE_CURVE('',#581,#581,#592,.T.);
#594=ORIENTED_EDGE('',*,*,#593,.T.);
#595=ORIENTED_EDGE('',*,*,#586,.F.);
#596=EDGE_LOOP('',(#530,#538,#547,#555,#564,#572,#579,#587,#594,#595));
#597=FACE_OUTER_BOUND('',#596,.T.);
#598=CARTESIAN_POINT('',(-5.910734159734,12.691068579633,12.2));
#599=VERTEX_POINT('',#598);
#600=CARTESIAN_POINT('',(-5.910734159734,12.691068579633,12.2));
#601=CARTESIAN_POINT('',(-5.910734159734,12.691068579633,12.369825928704));
#602=CARTESIAN_POINT('',(-6.0068243993282,12.646315542643,12.879303714816));
#603=CARTESIAN_POINT('',(-6.3498940778973,12.479554665848,13.315608169487));
#604=CARTESIAN_POINT('',(-7.162773132185,12.047808106667,14.146228129345));
#605=CARTESIAN_POINT('',(-7.9725212679421,11.538875224699,14.583878038246));
#606=CARTESIAN_POINT('',(-9.4350342550955,10.39302372949,15.120184334115));
#607=CARTESIAN_POINT('',(-10.24389785554,9.5981859450442,15.216904166416));
#608=CARTESIAN_POINT('',(-11.694575437708,7.8019435664971,14.560898996958));
#609=CARTESIAN_POINT('',(-12.186598123791,6.8910685796332,13.556519526745));
#610=CARTESIAN_POINT('',(-12.186598123791,6.8910685796332,11.035925771767));
#611=CARTESIAN_POINT('',(-11.823992257536,7.5674699496736,10.112022324097));
#612=CARTESIAN_POINT('',(-10.642352875565,9.1440145740297,9.2473430025781));
#613=CARTESIAN_POINT('',(-9.9146674474358,9.933709843531,9.2262535299767));
#614=CARTESIAN_POINT('',(-8.473678454013,11.182019087104,9.5799518254089));
#615=CARTESIAN_POINT('',(-7.673215936114,11.736053433497,9.9498603376277));
#616=CARTESIAN_POINT('',(-6.6739903732802,12.31239590215,10.733537583182));
#617=CARTESIAN_POINT('',(-6.0836223616233,12.610547684619,11.288814017195));
#618=CARTESIAN_POINT('',(-5.910734159734,12.691068579633,11.972203504299));
#619=CARTESIAN_POINT('',(-5.910734159734,12.691068579633,12.2));
#620=B_SPLINE_CURVE_WITH_KNOTS('',3,(#600,#601,#602,#603,#604,#605,#606,#607,#608,#609,#610,#611,#612,#613,#614,#615,#616,#617,#618,#619),.UNSPECIFIED.,.T.,.U.,(4,1,2,2,2,2,2,2,2,1,4),(0.,0.23876728907085,0.71630186721256,2.0263947165163,3.6116685421272,5.5771305266417,7.2637583986596,8.7845386015841,10.193718434283,10.86038510095,11.193718434283),.UNSPECIFIED.);
#621=EDGE_CURVE('',#599,#599,#620,.T.);
#622=ORIENTED_EDGE('',*,*,#621,.T.);
#623=EDGE_LOOP('',(#622));
#624=FACE_BOUND('',#623,.T.);
#625=ADVANCED_FACE('',(#597,#624),#519,.T.);
#626=CARTESIAN_POINT('',(-1.7763568394003E-15,1.3322676295502E-15,-3.9201312323401E-15));
#627=DIRECTION('',(2.6192299847688E-16,-1.,9.1854388384899E-17));
#628=DIRECTION('',(0.,-2.1576810448111E-17,1.));
#629=AXIS2_PLACEMENT_3D('',#626,#628,#627);
#630=CYLINDRICAL_SURFACE('',#629,4.);
#631=CARTESIAN_POINT('',(-0.5,3.9686269665969,8.));
#632=VERTEX_POINT('',#631);
#633=CARTESIAN_POINT('',(-0.50000008898937,3.9686269553853,15.800000144199));
#634=VERTEX_POINT('',#633);
#635=CARTESIAN_POINT('',(-0.5,3.9686269665969,8.));
#636=DIRECTION('',(0.,0.,1.));
#637=VECTOR('',#636,7.8);
#638=LINE('',#635,#637);
#639=EDGE_CURVE('',#632,#634,#638,.T.);
#640=ORIENTED_EDGE('',*,*,#639,.F.);
#641=CARTESIAN_POINT('',(0.5,3.9686269665969,8.));
#642=VERTEX_POINT('',#641);
#643=CARTESIAN_POINT('',(3.5527136788005E-15,-2.6645352591004E-14,8.));
#644=DIRECTION('',(0.12499992436983,0.99215675117772,-1.3100631690577E-14));
#645=DIRECTION('',(1.4351868224198E-15,1.2877152478362E-14,1.));
#646=AXIS2_PLACEMENT_3D('',#643,#645,#644);
#647=CIRCLE('',#646,4.);
#648=EDGE_CURVE('',#642,#632,#647,.T.);
#649=ORIENTED_EDGE('',*,*,#648,.F.);
#650=CARTESIAN_POINT('',(0.49999984033453,3.9686269867129,15.800000144199));
#651=VERTEX_POINT('',#650);
#652=CARTESIAN_POINT('',(0.5,3.9686269665969,15.8));
#653=DIRECTION('',(-1.4233628520835E-17,-1.9357734788336E-15,-1.));
#654=VECTOR('',#653,7.8);
#655=LINE('',#652,#654);
#656=EDGE_CURVE('',#651,#642,#655,.T.);
#657=ORIENTED_EDGE('',*,*,#656,.F.);
#658=CARTESIAN_POINT('',(2.9246225855319E-09,-4.0000001436489,15.800000432432));
#659=VERTEX_POINT('',#658);
#660=CARTESIAN_POINT('',(5.8492459014133E-09,-4.0000002872979,15.800000864863));
#661=CARTESIAN_POINT('',(0.2509832962728,-3.9999949266693,15.800000262993));
#662=CARTESIAN_POINT('',(0.5,-3.9686269665969,15.8));
#663=CARTESIAN_POINT('',(4.,-3.5276684147528,15.8));
#664=CARTESIAN_POINT('',(4.,-3.4972025275692E-15,15.8));
#665=CARTESIAN_POINT('',(4.,3.5276684147528,15.8));
#666=CARTESIAN_POINT('',(0.5,3.9686269665969,15.8));
#667=(BOUNDED_CURVE()B_SPLINE_CURVE(2,(#660,#661,#662,#663,#664,#665,#666),.UNSPECIFIED.,.F.,.U.)B_SPLINE_CURVE_WITH_KNOTS((3,2,2,3),(0.98052095139746,1.0279524193717,1.5279524193717,2.0279524193717),.UNSPECIFIED.)CURVE()GEOMETRIC_REPRESENTATION_ITEM()RATIONAL_B_SPLINE_CURVE((1.,1.,1.,0.75,1.,0.75,1.))REPRESENTATION_ITEM(''));
#668=EDGE_CURVE('',#659,#651,#667,.T.);
#669=ORIENTED_EDGE('',*,*,#668,.F.);
#670=CARTESIAN_POINT('',(-7.2866484549273E-16,-4.,15.8));
#671=DIRECTION('',(3.0616169978687E-17,-5.6213824031654E-17,-1.));
#672=VECTOR('',#671,15.8);
#673=LINE('',#670,#672);
#674=EDGE_CURVE('',#659,#36,#673,.T.);
#675=ORIENTED_EDGE('',*,*,#674,.T.);
#676=ORIENTED_EDGE('',*,*,#42,.T.);
#677=ORIENTED_EDGE('',*,*,#674,.F.);
#678=CARTESIAN_POINT('',(-2.2204460492503E-15,2.6645352591004E-15,15.8));
#679=DIRECTION('',(-0.1250000444947,0.99215673604342,1.3322676295502E-15));
#680=DIRECTION('',(4.2417986696882E-16,-7.7211766663898E-16,1.));
#681=AXIS2_PLACEMENT_3D('',#678,#680,#679);
#682=CIRCLE('',#681,4.);
#683=EDGE_CURVE('',#634,#659,#682,.T.);
#684=ORIENTED_EDGE('',*,*,#683,.F.);
#685=EDGE_LOOP('',(#640,#649,#657,#669,#675,#676,#677,#684));
#686=FACE_OUTER_BOUND('',#685,.F.);
#687=ADVANCED_FACE('',(#686),#630,.F.);
#688=CARTESIAN_POINT('',(0.61279600784477,3.467837633602,8.));
#689=DIRECTION('',(0.,1.,2.1861269927908E-16));
#690=DIRECTION('',(0.,-2.1861269927908E-16,1.));
#691=AXIS2_PLACEMENT_3D('',#688,#690,#689);
#692=PLANE('',#691);
#693=ORIENTED_EDGE('',*,*,#529,.F.);
#694=ORIENTED_EDGE('',*,*,#578,.F.);
#695=CARTESIAN_POINT('',(-0.5,13.790939054321,8.));
#696=VERTEX_POINT('',#695);
#697=CARTESIAN_POINT('',(-0.5,13.991068579633,8.));
#698=DIRECTION('',(0.,-1.,0.));
#699=VECTOR('',#698,0.20012952531183);
#700=LINE('',#697,#699);
#701=EDGE_CURVE('',#566,#696,#700,.T.);
#702=ORIENTED_EDGE('',*,*,#701,.T.);
#703=CARTESIAN_POINT('',(0.5,13.790939054321,8.));
#704=VERTEX_POINT('',#703);
#705=CARTESIAN_POINT('',(0.5,13.790939054321,8.));
#706=DIRECTION('',(-1.,0.,0.));
#707=VECTOR('',#706,1.);
#708=LINE('',#705,#707);
#709=EDGE_CURVE('',#704,#696,#708,.T.);
#710=ORIENTED_EDGE('',*,*,#709,.F.);
#711=CARTESIAN_POINT('',(5.6239001946549,-12.602053269232,8.));
#712=VERTEX_POINT('',#711);
#713=CARTESIAN_POINT('',(1.5987211554602E-14,3.1086244689504E-14,8.));
#714=DIRECTION('',(0.40752899961268,-0.91319226588637,-3.861645303044E-16));
#715=DIRECTION('',(1.0181204156565E-16,-2.8619810657794E-16,1.));
#716=AXIS2_PLACEMENT_3D('',#713,#715,#714);
#717=CIRCLE('',#716,13.8);
#718=EDGE_CURVE('',#712,#704,#717,.T.);
#719=ORIENTED_EDGE('',*,*,#718,.F.);
#720=CARTESIAN_POINT('',(5.6239001946549,-12.602053269232,8.));
#721=DIRECTION('',(0.4226182617407,-0.90630778703665,0.));
#722=VECTOR('',#721,0.20002711886432);
#723=LINE('',#720,#722);
#724=EDGE_CURVE('',#712,#523,#723,.T.);
#725=ORIENTED_EDGE('',*,*,#724,.T.);
#726=EDGE_LOOP('',(#693,#694,#702,#710,#719,#725));
#727=FACE_OUTER_BOUND('',#726,.T.);
#728=ADVANCED_FACE('',(#727),#692,.T.);
#729=CARTESIAN_POINT('',(3.5943545873609,-8.2496786689003,8.5));
#730=DIRECTION('',(0.4226182617407,-0.90630778703665,0.));
#731=DIRECTION('',(0.90630778703665,0.4226182617407,0.));
#732=AXIS2_PLACEMENT_3D('',#729,#731,#730);
#733=PLANE('',#732);
#734=ORIENTED_EDGE('',*,*,#537,.F.);
#735=ORIENTED_EDGE('',*,*,#724,.F.);
#736=CARTESIAN_POINT('',(5.6239001946549,-12.602053269232,9.));
#737=VERTEX_POINT('',#736);
#738=CARTESIAN_POINT('',(5.623900194655,-12.602053269232,8.));
#739=DIRECTION('',(0.,0.,1.));
#740=VECTOR('',#739,1.);
#741=LINE('',#738,#740);
#742=EDGE_CURVE('',#712,#737,#741,.T.);
#743=ORIENTED_EDGE('',*,*,#742,.T.);
#744=CARTESIAN_POINT('',(5.6239001946549,-12.602053269232,9.));
#745=DIRECTION('',(0.4226182617407,-0.90630778703665,0.));
#746=VECTOR('',#745,0.20002711886421);
#747=LINE('',#744,#746);
#748=EDGE_CURVE('',#737,#532,#747,.T.);
#749=ORIENTED_EDGE('',*,*,#748,.T.);
#750=EDGE_LOOP('',(#734,#735,#743,#749));
#751=FACE_OUTER_BOUND('',#750,.T.);
#752=ADVANCED_FACE('',(#751),#733,.T.);
#753=CARTESIAN_POINT('',(0.61279600784477,0.60386458747798,9.));
#754=DIRECTION('',(0.,1.,0.));
#755=DIRECTION('',(0.,0.,-1.));
#756=AXIS2_PLACEMENT_3D('',#753,#755,#754);
#757=PLANE('',#756);
#758=CARTESIAN_POINT('',(0.5,13.991068579633,9.));
#759=VERTEX_POINT('',#758);
#760=CARTESIAN_POINT('',(1.7763568394003E-14,-1.0658141036402E-14,9.));
#761=DIRECTION('',(0.035714285714285,0.99936204140237,2.5376526277147E-16));
#762=DIRECTION('',(2.2151133573758E-16,3.4070020061202E-16,-1.));
#763=AXIS2_PLACEMENT_3D('',#760,#762,#761);
#764=CIRCLE('',#763,14.);
#765=EDGE_CURVE('',#759,#540,#764,.T.);
#766=ORIENTED_EDGE('',*,*,#765,.T.);
#767=ORIENTED_EDGE('',*,*,#546,.F.);
#768=ORIENTED_EDGE('',*,*,#748,.F.);
#769=CARTESIAN_POINT('',(0.5,13.790939054321,9.));
#770=VERTEX_POINT('',#769);
#771=CARTESIAN_POINT('',(1.5987211554602E-14,3.1086244689504E-14,9.));
#772=DIRECTION('',(0.40752899961268,-0.91319226588637,-3.861645303044E-16));
#773=DIRECTION('',(1.6757828861682E-16,-3.204073275998E-16,1.));
#774=AXIS2_PLACEMENT_3D('',#771,#773,#772);
#775=CIRCLE('',#774,13.8);
#776=EDGE_CURVE('',#737,#770,#775,.T.);
#777=ORIENTED_EDGE('',*,*,#776,.T.);
#778=CARTESIAN_POINT('',(0.5,13.790939054321,9.));
#779=DIRECTION('',(-1.1095044800562E-15,1.,0.));
#780=VECTOR('',#779,0.20012952531187);
#781=LINE('',#778,#780);
#782=EDGE_CURVE('',#770,#759,#781,.T.);
#783=ORIENTED_EDGE('',*,*,#782,.T.);
#784=EDGE_LOOP('',(#766,#767,#768,#777,#783));
#785=FACE_OUTER_BOUND('',#784,.T.);
#786=ADVANCED_FACE('',(#785),#757,.T.);
#787=CARTESIAN_POINT('',(0.,4.4408920985006E-14,9.));
#788=DIRECTION('',(0.035714285586474,0.99936204140694,5.0753052554293E-16));
#789=DIRECTION('',(-8.408306730617E-16,-7.8368684091188E-16,1.));
#790=AXIS2_PLACEMENT_3D('',#787,#789,#788);
#791=CYLINDRICAL_SURFACE('',#790,14.);
#792=ORIENTED_EDGE('',*,*,#554,.F.);
#793=ORIENTED_EDGE('',*,*,#765,.F.);
#794=CARTESIAN_POINT('',(0.5,13.991068579633,15.8));
#795=VERTEX_POINT('',#794);
#796=CARTESIAN_POINT('',(0.5,13.991068579633,9.));
#797=DIRECTION('',(0.,0.,1.));
#798=VECTOR('',#797,6.8);
#799=LINE('',#796,#798);
#800=EDGE_CURVE('',#759,#795,#799,.T.);
#801=ORIENTED_EDGE('',*,*,#800,.T.);
#802=CARTESIAN_POINT('',(0.,1.0658141036402E-14,15.8));
#803=DIRECTION('',(0.035714285714286,0.99936204140237,1.2688263138573E-16));
#804=DIRECTION('',(-8.1415043265841E-17,-7.8557479568703E-17,-1.));
#805=AXIS2_PLACEMENT_3D('',#802,#804,#803);
#806=CIRCLE('',#805,14.);
#807=EDGE_CURVE('',#795,#549,#806,.T.);
#808=ORIENTED_EDGE('',*,*,#807,.T.);
#809=EDGE_LOOP('',(#792,#793,#801,#808));
#810=FACE_OUTER_BOUND('',#809,.T.);
#811=CARTESIAN_POINT('',(10.006746527664,9.7910685796332,10.95));
#812=VERTEX_POINT('',#811);
#813=CARTESIAN_POINT('',(10.006746527664,9.7910685796332,10.95));
#814=CARTESIAN_POINT('',(10.17929134612,9.6147229388168,10.95));
#815=CARTESIAN_POINT('',(10.682941232951,9.0720028607855,11.061952026126));
#816=CARTESIAN_POINT('',(11.065486419856,8.5765231558589,11.591811884953));
#817=CARTESIAN_POINT('',(11.11552627732,8.5115626857078,12.634897522479));
#818=CARTESIAN_POINT('',(10.906740418428,8.7883788533296,13.044149431771));
#819=CARTESIAN_POINT('',(10.191794492042,9.6208598518789,13.572437322666));
#820=CARTESIAN_POINT('',(9.5550154921866,10.251046633244,13.487365348909));
#821=CARTESIAN_POINT('',(8.7049898930084,10.97597575437,12.798311590283));
#822=CARTESIAN_POINT('',(8.459815005742,11.159499636041,12.283442680248));
#823=CARTESIAN_POINT('',(8.8905781355529,10.817128783725,11.380279068916));
#824=CARTESIAN_POINT('',(9.3955213210475,10.394570448919,11.034786746256));
#825=CARTESIAN_POINT('',(9.8565880254853,9.9445347777358,10.95));
#826=CARTESIAN_POINT('',(10.006746527664,9.7910685796332,10.95));
#827=B_SPLINE_CURVE_WITH_KNOTS('',3,(#813,#814,#815,#816,#817,#818,#819,#820,#821,#822,#823,#824,#825,#826),.UNSPECIFIED.,.T.,.U.,(4,1,2,2,2,2,1,4),(0.,0.3333333333333,1.,1.644173590062,2.6107606539132,3.3906912215965,3.9485991301727,4.2275530844608),.UNSPECIFIED.);
#828=EDGE_CURVE('',#812,#812,#827,.T.);
#829=ORIENTED_EDGE('',*,*,#828,.T.);
#830=EDGE_LOOP('',(#829));
#831=FACE_BOUND('',#830,.T.);
#832=ADVANCED_FACE('',(#810,#831),#791,.T.);
#833=CARTESIAN_POINT('',(-2.9865383976109E-14,-3.7008774254283E-15,29.800000000001));
#834=DIRECTION('',(0.035714285714287,0.99936204140237,1.1868129148042E-17));
#835=DIRECTION('',(2.8419574026809E-16,1.7193781734122E-18,-1.));
#836=AXIS2_PLACEMENT_3D('',#833,#835,#834);
#837=CONICAL_SURFACE('',#836,0.,0.78539816339742);
#838=ORIENTED_EDGE('',*,*,#807,.F.);
#839=CARTESIAN_POINT('',(0.5,13.790939054321,16.));
#840=VERTEX_POINT('',#839);
#841=CARTESIAN_POINT('',(0.5,13.991068579633,15.8));
#842=CARTESIAN_POINT('',(0.5,13.890283926598,15.900720356599));
#843=CARTESIAN_POINT('',(0.5,13.790939054321,16.));
#844=(BOUNDED_CURVE()B_SPLINE_CURVE(2,(#841,#842,#843),.HYPERBOLIC_ARC.,.F.,.U.)B_SPLINE_CURVE_WITH_KNOTS((3,3),(0.,1.),.UNSPECIFIED.)CURVE()GEOMETRIC_REPRESENTATION_ITEM()RATIONAL_B_SPLINE_CURVE((1.,1.0069948191224,1.013986013986))REPRESENTATION_ITEM(''));
#845=EDGE_CURVE('',#795,#840,#844,.T.);
#846=ORIENTED_EDGE('',*,*,#845,.T.);
#847=CARTESIAN_POINT('',(-0.5,13.790939054321,16.));
#848=VERTEX_POINT('',#847);
#849=CARTESIAN_POINT('',(-1.7763568394003E-15,0.,16.));
#850=DIRECTION('',(0.036231884057972,0.99934340973342,2.5744302020294E-16));
#851=DIRECTION('',(1.6309708027572E-16,1.544636961411E-16,-1.));
#852=AXIS2_PLACEMENT_3D('',#849,#851,#850);
#853=CIRCLE('',#852,13.8);
#854=EDGE_CURVE('',#840,#848,#853,.T.);
#855=ORIENTED_EDGE('',*,*,#854,.T.);
#856=CARTESIAN_POINT('',(-0.5,13.790939054321,16.));
#857=CARTESIAN_POINT('',(-0.5,13.890283926598,15.900720356599));
#858=CARTESIAN_POINT('',(-0.5,13.991068579633,15.8));
#859=(BOUNDED_CURVE()B_SPLINE_CURVE(2,(#856,#857,#858),.HYPERBOLIC_ARC.,.F.,.U.)B_SPLINE_CURVE_WITH_KNOTS((3,3),(0.,1.),.UNSPECIFIED.)CURVE()GEOMETRIC_REPRESENTATION_ITEM()RATIONAL_B_SPLINE_CURVE((1.013986013986,1.0069948191224,1.))REPRESENTATION_ITEM(''));
#860=EDGE_CURVE('',#848,#557,#859,.T.);
#861=ORIENTED_EDGE('',*,*,#860,.T.);
#862=ORIENTED_EDGE('',*,*,#563,.F.);
#863=EDGE_LOOP('',(#838,#846,#855,#861,#862));
#864=FACE_OUTER_BOUND('',#863,.T.);
#865=ADVANCED_FACE('',(#864),#837,.T.);
#866=CARTESIAN_POINT('',(-0.5,0.36529041576565,12.05));
#867=DIRECTION('',(0.,1.,0.));
#868=DIRECTION('',(1.,0.,-2.7412914188275E-17));
#869=AXIS2_PLACEMENT_3D('',#866,#868,#867);
#870=PLANE('',#869);
#871=CARTESIAN_POINT('',(-0.49999998871852,4.1701319765691,16.000000002465));
#872=VERTEX_POINT('',#871);
#873=CARTESIAN_POINT('',(-0.5,13.790939054321,16.));
#874=DIRECTION('',(0.,-1.,0.));
#875=VECTOR('',#874,9.6208070012513);
#876=LINE('',#873,#875);
#877=EDGE_CURVE('',#848,#872,#876,.T.);
#878=ORIENTED_EDGE('',*,*,#877,.T.);
#879=CARTESIAN_POINT('',(-0.49999999041063,4.1701319391748,15.99999996554));
#880=CARTESIAN_POINT('',(-0.50000000364828,4.11976309996,15.949992563689));
#881=CARTESIAN_POINT('',(-0.50000000000001,4.0190128156734,15.849990659918));
#882=CARTESIAN_POINT('',(-0.5,3.9686270994917,15.800000131852));
#883=B_SPLINE_CURVE_WITH_KNOTS('',3,(#879,#880,#881,#882),.UNSPECIFIED.,.F.,.U.,(4,4),(2.2969905210085E-07,0.99999912081719),.UNSPECIFIED.);
#884=EDGE_CURVE('',#872,#634,#883,.T.);
#885=ORIENTED_EDGE('',*,*,#884,.T.);
#886=CARTESIAN_POINT('',(-0.5,13.790939054321,15.8));
#887=VERTEX_POINT('',#886);
#888=CARTESIAN_POINT('',(-0.5,3.9686269665969,15.8));
#889=DIRECTION('',(0.,1.,-1.8084915481563E-16));
#890=VECTOR('',#889,9.8223120877243);
#891=LINE('',#888,#890);
#892=EDGE_CURVE('',#634,#887,#891,.T.);
#893=ORIENTED_EDGE('',*,*,#892,.T.);
#894=CARTESIAN_POINT('',(-0.5,13.790939054321,15.8));
#895=DIRECTION('',(0.,0.,-1.));
#896=VECTOR('',#895,7.8);
#897=LINE('',#894,#896);
#898=EDGE_CURVE('',#887,#696,#897,.T.);
#899=ORIENTED_EDGE('',*,*,#898,.T.);
#900=ORIENTED_EDGE('',*,*,#701,.F.);
#901=ORIENTED_EDGE('',*,*,#571,.F.);
#902=ORIENTED_EDGE('',*,*,#860,.F.);
#903=EDGE_LOOP('',(#878,#885,#893,#899,#900,#901,#902));
#904=FACE_OUTER_BOUND('',#903,.T.);
#905=ADVANCED_FACE('',(#904),#870,.T.);
#906=CARTESIAN_POINT('',(-4.5,9.7910685796332,12.2));
#907=DIRECTION('',(0.,1.,1.225073682345E-15));
#908=DIRECTION('',(-1.,0.,0.));
#909=AXIS2_PLACEMENT_3D('',#906,#908,#907);
#910=CYLINDRICAL_SURFACE('',#909,2.9);
#911=CARTESIAN_POINT('',(-4.5,12.691068579633,12.2));
#912=VERTEX_POINT('',#911);
#913=CARTESIAN_POINT('',(-4.5,9.7910685796332,12.2));
#914=DIRECTION('',(-4.3312895411969E-16,1.,-1.8760069089682E-31));
#915=DIRECTION('',(1.,4.3312895411969E-16,4.3312895411969E-16));
#916=AXIS2_PLACEMENT_3D('',#913,#915,#914);
#917=CIRCLE('',#916,2.8999999999998);
#918=EDGE_CURVE('',#912,#912,#917,.T.);
#919=ORIENTED_EDGE('',*,*,#918,.T.);
#920=CARTESIAN_POINT('',(-4.5,12.691068579633,12.2));
#921=DIRECTION('',(-1.,0.,0.));
#922=VECTOR('',#921,1.410734159734);
#923=LINE('',#920,#922);
#924=EDGE_CURVE('',#912,#599,#923,.T.);
#925=ORIENTED_EDGE('',*,*,#924,.T.);
#926=ORIENTED_EDGE('',*,*,#621,.F.);
#927=ORIENTED_EDGE('',*,*,#924,.F.);
#928=EDGE_LOOP('',(#919,#925,#926,#927));
#929=FACE_OUTER_BOUND('',#928,.T.);
#930=ADVANCED_FACE('',(#929),#910,.F.);
#931=CARTESIAN_POINT('',(-4.4037163212627E-15,2.2196081927871E-15,11.8));
#932=DIRECTION('',(0.11904760929295,0.99288854697878,6.5389834025837E-16));
#933=DIRECTION('',(-5.3310331034464E-16,-5.9466258066153E-16,1.));
#934=AXIS2_PLACEMENT_3D('',#931,#933,#932);
#935=CONICAL_SURFACE('',#934,3.1306259757359E-15,0.78539816339746);
#936=CARTESIAN_POINT('',(0.49999998456503,4.1701319770679,16.000000002465));
#937=VERTEX_POINT('',#936);
#938=CARTESIAN_POINT('',(0.49999999040681,4.1701319396771,15.999999966037));
#939=CARTESIAN_POINT('',(0.50000000364972,4.1197631111494,15.949992574799));
#940=CARTESIAN_POINT('',(0.50000000000001,4.0190128579308,15.849990701862));
#941=CARTESIAN_POINT('',(0.5,3.968627131066,15.800000163179));
#942=B_SPLINE_CURVE_WITH_KNOTS('',3,(#938,#939,#940,#941),.UNSPECIFIED.,.F.,.U.,(4,4),(2.2638391165941E-07,0.9999989119335),.UNSPECIFIED.);
#943=EDGE_CURVE('',#937,#651,#942,.T.);
#944=ORIENTED_EDGE('',*,*,#943,.T.);
#945=ORIENTED_EDGE('',*,*,#668,.F.);
#946=ORIENTED_EDGE('',*,*,#683,.F.);
#947=ORIENTED_EDGE('',*,*,#884,.F.);
#948=CARTESIAN_POINT('',(-1.3322676295502E-15,-2.2204460492503E-16,16.));
#949=DIRECTION('',(-0.11904761452584,0.99288854635136,0.));
#950=DIRECTION('',(0.,0.,1.));
#951=AXIS2_PLACEMENT_3D('',#948,#950,#949);
#952=CIRCLE('',#951,4.2000001595285);
#953=EDGE_CURVE('',#872,#937,#952,.T.);
#954=ORIENTED_EDGE('',*,*,#953,.T.);
#955=EDGE_LOOP('',(#944,#945,#946,#947,#954));
#956=FACE_OUTER_BOUND('',#955,.T.);
#957=ADVANCED_FACE('',(#956),#935,.F.);
#958=CARTESIAN_POINT('',(0.5,0.36529041576564,12.05));
#959=DIRECTION('',(0.,1.,0.));
#960=DIRECTION('',(-1.,0.,0.));
#961=AXIS2_PLACEMENT_3D('',#958,#960,#959);
#962=PLANE('',#961);
#963=ORIENTED_EDGE('',*,*,#943,.F.);
#964=CARTESIAN_POINT('',(0.5,4.1701320530713,16.));
#965=DIRECTION('',(0.,1.,0.));
#966=VECTOR('',#965,9.6208070012497);
#967=LINE('',#964,#966);
#968=EDGE_CURVE('',#937,#840,#967,.T.);
#969=ORIENTED_EDGE('',*,*,#968,.T.);
#970=ORIENTED_EDGE('',*,*,#845,.F.);
#971=ORIENTED_EDGE('',*,*,#800,.F.);
#972=ORIENTED_EDGE('',*,*,#782,.F.);
#973=CARTESIAN_POINT('',(0.5,13.790939054321,15.8));
#974=VERTEX_POINT('',#973);
#975=CARTESIAN_POINT('',(0.5,13.790939054321,15.8));
#976=DIRECTION('',(0.,0.,-1.));
#977=VECTOR('',#976,6.8);
#978=LINE('',#975,#977);
#979=EDGE_CURVE('',#974,#770,#978,.T.);
#980=ORIENTED_EDGE('',*,*,#979,.F.);
#981=CARTESIAN_POINT('',(0.5,3.9686270068288,15.8));
#982=DIRECTION('',(0.,1.,-1.8084915555638E-16));
#983=VECTOR('',#982,9.8223120474924);
#984=LINE('',#981,#983);
#985=EDGE_CURVE('',#651,#974,#984,.T.);
#986=ORIENTED_EDGE('',*,*,#985,.F.);
#987=EDGE_LOOP('',(#963,#969,#970,#971,#972,#980,#986));
#988=FACE_OUTER_BOUND('',#987,.T.);
#989=ADVANCED_FACE('',(#988),#962,.T.);
#990=CARTESIAN_POINT('',(-3.7512886940357,-1.0658141036402E-14,16.));
#991=DIRECTION('',(1.,0.,0.));
#992=DIRECTION('',(0.,0.,1.));
#993=AXIS2_PLACEMENT_3D('',#990,#992,#991);
#994=PLANE('',#993);
#995=ORIENTED_EDGE('',*,*,#854,.F.);
#996=ORIENTED_EDGE('',*,*,#968,.F.);
#997=ORIENTED_EDGE('',*,*,#953,.F.);
#998=ORIENTED_EDGE('',*,*,#877,.F.);
#999=EDGE_LOOP('',(#995,#996,#997,#998));
#1000=FACE_OUTER_BOUND('',#999,.T.);
#1001=ADVANCED_FACE('',(#1000),#994,.T.);
#1002=CARTESIAN_POINT('',(-0.5,9.7910685796332,12.2));
#1003=DIRECTION('',(6.9388939039072E-17,1.,0.));
#1004=DIRECTION('',(-1.,0.,0.));
#1005=AXIS2_PLACEMENT_3D('',#1002,#1004,#1003);
#1006=CYLINDRICAL_SURFACE('',#1005,1.6);
#1007=CARTESIAN_POINT('',(-0.5,11.391068579633,12.2));
#1008=VERTEX_POINT('',#1007);
#1009=CARTESIAN_POINT('',(-0.5,9.7910685796332,12.2));
#1010=DIRECTION('',(-4.9065389333874E-17,1.,3.9252311467099E-16));
#1011=DIRECTION('',(-1.,-4.9065389333874E-17,4.9065389333874E-17));
#1012=AXIS2_PLACEMENT_3D('',#1009,#1011,#1010);
#1013=CIRCLE('',#1012,1.5999999999998);
#1014=EDGE_CURVE('',#1008,#1008,#1013,.T.);
#1015=ORIENTED_EDGE('',*,*,#1014,.F.);
#1016=CARTESIAN_POINT('',(-4.5,11.391068579633,12.2));
#1017=VERTEX_POINT('',#1016);
#1018=CARTESIAN_POINT('',(-0.5,11.391068579633,12.2));
#1019=DIRECTION('',(-1.,0.,0.));
#1020=VECTOR('',#1019,4.);
#1021=LINE('',#1018,#1020);
#1022=EDGE_CURVE('',#1008,#1017,#1021,.T.);
#1023=ORIENTED_EDGE('',*,*,#1022,.T.);
#1024=CARTESIAN_POINT('',(-4.5,9.7910685796332,12.2));
#1025=DIRECTION('',(-7.8504622934198E-16,1.,3.9252311467099E-16));
#1026=DIRECTION('',(-1.,-7.8504622934199E-16,7.8504622934199E-16));
#1027=AXIS2_PLACEMENT_3D('',#1024,#1026,#1025);
#1028=CIRCLE('',#1027,1.5999999999998);
#1029=EDGE_CURVE('',#1017,#1017,#1028,.T.);
#1030=ORIENTED_EDGE('',*,*,#1029,.T.);
#1031=ORIENTED_EDGE('',*,*,#1022,.F.);
#1032=EDGE_LOOP('',(#1015,#1023,#1030,#1031));
#1033=FACE_OUTER_BOUND('',#1032,.T.);
#1034=ADVANCED_FACE('',(#1033),#1006,.F.);
#1035=CARTESIAN_POINT('',(-4.5,9.014015921583,12.2));
#1036=DIRECTION('',(0.,1.,0.));
#1037=DIRECTION('',(-1.,0.,0.));
#1038=AXIS2_PLACEMENT_3D('',#1035,#1037,#1036);
#1039=PLANE('',#1038);
#1040=ORIENTED_EDGE('',*,*,#918,.F.);
#1041=EDGE_LOOP('',(#1040));
#1042=FACE_OUTER_BOUND('',#1041,.T.);
#1043=ORIENTED_EDGE('',*,*,#1029,.F.);
#1044=EDGE_LOOP('',(#1043));
#1045=FACE_BOUND('',#1044,.T.);
#1046=ADVANCED_FACE('',(#1042,#1045),#1039,.T.);
#1047=CARTESIAN_POINT('',(11.106179336633,9.7910685796332,12.2));
#1048=DIRECTION('',(-8.5265128291212E-15,0.,-1.));
#1049=DIRECTION('',(-1.,1.9896848258509E-15,7.6526339455806E-15));
#1050=AXIS2_PLACEMENT_3D('',#1047,#1049,#1048);
#1051=CYLINDRICAL_SURFACE('',#1050,1.25);
#1052=CARTESIAN_POINT('',(-0.5,9.7910685796333,10.95));
#1053=VERTEX_POINT('',#1052);
#1054=CARTESIAN_POINT('',(-0.5,9.7910685796333,10.95));
#1055=DIRECTION('',(1.,-1.149663835148E-14,3.3813642210234E-16));
#1056=VECTOR('',#1055,10.506746527664);
#1057=LINE('',#1054,#1056);
#1058=EDGE_CURVE('',#1053,#812,#1057,.T.);
#1059=ORIENTED_EDGE('',*,*,#1058,.F.);
#1060=CARTESIAN_POINT('',(-0.5,9.7910685796332,12.2));
#1061=DIRECTION('',(0.,9.9475983006413E-14,-1.));
#1062=DIRECTION('',(-1.,-0.,0.));
#1063=AXIS2_PLACEMENT_3D('',#1060,#1062,#1061);
#1064=CIRCLE('',#1063,1.25);
#1065=EDGE_CURVE('',#1053,#1053,#1064,.T.);
#1066=ORIENTED_EDGE('',*,*,#1065,.F.);
#1067=ORIENTED_EDGE('',*,*,#1058,.T.);
#1068=ORIENTED_EDGE('',*,*,#828,.T.);
#1069=EDGE_LOOP('',(#1059,#1066,#1067,#1068));
#1070=FACE_OUTER_BOUND('',#1069,.F.);
#1071=ADVANCED_FACE('',(#1070),#1051,.F.);
#1072=CARTESIAN_POINT('',(1.8811917864525E-14,2.2542025227104E-14,-13.8));
#1073=DIRECTION('',(1.,-2.603971889579E-12,2.903429637295E-16));
#1074=DIRECTION('',(-2.9034296372998E-16,-1.827117734896E-16,1.));
#1075=AXIS2_PLACEMENT_3D('',#1072,#1074,#1073);
#1076=CONICAL_SURFACE('',#1075,0.,0.78539816339744);
#1077=ORIENTED_EDGE('',*,*,#502,.F.);
#1078=CARTESIAN_POINT('',(13.8,-3.5914733529708E-11,7.2164496600635E-16));
#1079=DIRECTION('',(0.70710678118655,1.269776796122E-10,0.70710678118655));
#1080=VECTOR('',#1079,0.28284271247462);
#1081=LINE('',#1078,#1080);
#1082=EDGE_CURVE('',#496,#581,#1081,.T.);
#1083=ORIENTED_EDGE('',*,*,#1082,.T.);
#1084=ORIENTED_EDGE('',*,*,#593,.F.);
#1085=ORIENTED_EDGE('',*,*,#1082,.F.);
#1086=EDGE_LOOP('',(#1077,#1083,#1084,#1085));
#1087=FACE_OUTER_BOUND('',#1086,.T.);
#1088=ADVANCED_FACE('',(#1087),#1076,.T.);
#1089=CARTESIAN_POINT('',(2.1316282072803E-14,2.4868995751604E-14,8.));
#1090=DIRECTION('',(0.40752899961268,-0.91319226588637,0.));
#1091=DIRECTION('',(0.,0.,1.));
#1092=AXIS2_PLACEMENT_3D('',#1089,#1091,#1090);
#1093=CYLINDRICAL_SURFACE('',#1092,13.8);
#1094=ORIENTED_EDGE('',*,*,#718,.T.);
#1095=CARTESIAN_POINT('',(0.5,13.790939054321,8.));
#1096=DIRECTION('',(0.,0.,1.));
#1097=VECTOR('',#1096,1.);
#1098=LINE('',#1095,#1097);
#1099=EDGE_CURVE('',#704,#770,#1098,.T.);
#1100=ORIENTED_EDGE('',*,*,#1099,.T.);
#1101=ORIENTED_EDGE('',*,*,#776,.F.);
#1102=ORIENTED_EDGE('',*,*,#742,.F.);
#1103=EDGE_LOOP('',(#1094,#1100,#1101,#1102));
#1104=FACE_OUTER_BOUND('',#1103,.T.);
#1105=ADVANCED_FACE('',(#1104),#1093,.T.);
#1106=CARTESIAN_POINT('',(1.1102230246252E-16,3.9686269665969,11.9));
#1107=DIRECTION('',(0.,0.,1.));
#1108=DIRECTION('',(0.,-1.,0.));
#1109=AXIS2_PLACEMENT_3D('',#1106,#1108,#1107);
#1110=PLANE('',#1109);
#1111=ORIENTED_EDGE('',*,*,#656,.F.);
#1112=CARTESIAN_POINT('',(0.49999968066897,3.9686269665969,15.8));
#1113=DIRECTION('',(-1.,0.,0.));
#1114=VECTOR('',#1113,0.99999968066897);
#1115=LINE('',#1112,#1114);
#1116=EDGE_CURVE('',#651,#634,#1115,.T.);
#1117=ORIENTED_EDGE('',*,*,#1116,.T.);
#1118=ORIENTED_EDGE('',*,*,#639,.F.);
#1119=CARTESIAN_POINT('',(0.5,3.9686269665969,8.));
#1120=DIRECTION('',(-1.,0.,0.));
#1121=VECTOR('',#1120,1.);
#1122=LINE('',#1119,#1121);
#1123=EDGE_CURVE('',#642,#632,#1122,.T.);
#1124=ORIENTED_EDGE('',*,*,#1123,.F.);
#1125=EDGE_LOOP('',(#1111,#1117,#1118,#1124));
#1126=FACE_OUTER_BOUND('',#1125,.T.);
#1127=ADVANCED_FACE('',(#1126),#1110,.T.);
#1128=CARTESIAN_POINT('',(0.,8.879783010459,8.));
#1129=DIRECTION('',(0.,-1.,-2.7127373222344E-16));
#1130=DIRECTION('',(0.,2.7127373222344E-16,-1.));
#1131=AXIS2_PLACEMENT_3D('',#1128,#1130,#1129);
#1132=PLANE('',#1131);
#1133=ORIENTED_EDGE('',*,*,#1123,.T.);
#1134=ORIENTED_EDGE('',*,*,#648,.F.);
#1135=EDGE_LOOP('',(#1133,#1134));
#1136=FACE_OUTER_BOUND('',#1135,.T.);
#1137=ADVANCED_FACE('',(#1136),#1132,.T.);
#1138=CARTESIAN_POINT('',(0.,8.879783010459,15.8));
#1139=DIRECTION('',(0.,1.,-1.8084915481563E-16));
#1140=DIRECTION('',(0.,1.8084915481563E-16,1.));
#1141=AXIS2_PLACEMENT_3D('',#1138,#1140,#1139);
#1142=PLANE('',#1141);
#1143=ORIENTED_EDGE('',*,*,#985,.T.);
#1144=CARTESIAN_POINT('',(0.5,13.790939054321,15.8));
#1145=DIRECTION('',(-1.,0.,0.));
#1146=VECTOR('',#1145,1.);
#1147=LINE('',#1144,#1146);
#1148=EDGE_CURVE('',#974,#887,#1147,.T.);
#1149=ORIENTED_EDGE('',*,*,#1148,.T.);
#1150=ORIENTED_EDGE('',*,*,#892,.F.);
#1151=ORIENTED_EDGE('',*,*,#1116,.F.);
#1152=EDGE_LOOP('',(#1143,#1149,#1150,#1151));
#1153=FACE_OUTER_BOUND('',#1152,.T.);
#1154=ADVANCED_FACE('',(#1153),#1142,.T.);
#1155=CARTESIAN_POINT('',(0.,13.790939054321,11.9));
#1156=DIRECTION('',(0.,0.,-1.));
#1157=DIRECTION('',(0.,1.,0.));
#1158=AXIS2_PLACEMENT_3D('',#1155,#1157,#1156);
#1159=PLANE('',#1158);
#1160=ORIENTED_EDGE('',*,*,#979,.T.);
#1161=ORIENTED_EDGE('',*,*,#1099,.F.);
#1162=ORIENTED_EDGE('',*,*,#709,.T.);
#1163=ORIENTED_EDGE('',*,*,#898,.F.);
#1164=ORIENTED_EDGE('',*,*,#1148,.F.);
#1165=EDGE_LOOP('',(#1160,#1161,#1162,#1163,#1164));
#1166=FACE_OUTER_BOUND('',#1165,.T.);
#1167=ADVANCED_FACE('',(#1166),#1159,.T.);
#1168=CARTESIAN_POINT('',(-0.5,8.879783010459,12.911156043862));
#1169=DIRECTION('',(0.,-1.,1.6440832255966E-16));
#1170=DIRECTION('',(-1.,0.,0.));
#1171=AXIS2_PLACEMENT_3D('',#1168,#1170,#1169);
#1172=PLANE('',#1171);
#1173=ORIENTED_EDGE('',*,*,#1014,.T.);
#1174=EDGE_LOOP('',(#1173));
#1175=FACE_OUTER_BOUND('',#1174,.T.);
#1176=ORIENTED_EDGE('',*,*,#1065,.F.);
#1177=EDGE_LOOP('',(#1176));
#1178=FACE_BOUND('',#1177,.T.);
#1179=ADVANCED_FACE('',(#1175,#1178),#1172,.T.);
#1180=CLOSED_SHELL('',(#57,#178,#225,#263,#301,#339,#377,#406,#417,#428,#439,#450,#461,#472,#489,#514,#625,#687,#728,#752,#786,#832,#865,#905,#930,#957,#989,#1001,#1034,#1046,#1071,#1088,#1105,#1127,#1137,#1154,#1167,#1179));
#1181=COLOUR_RGB('',0.745098,0.901961,0.960784);
#1182=FILL_AREA_STYLE_COLOUR('',#1181);
#1183=FILL_AREA_STYLE('',(#1182));
#1184=SURFACE_STYLE_FILL_AREA(#1183);
#1185=SURFACE_SIDE_STYLE('',(#1184));
#1186=SURFACE_STYLE_USAGE(.BOTH.,#1185);
#1187=PRESENTATION_STYLE_ASSIGNMENT((#1186));
#1188=OVER_RIDING_STYLED_ITEM('',(#1187),#57,#1180);
#1189=OVER_RIDING_STYLED_ITEM('',(#1187),#178,#1180);
#1190=OVER_RIDING_STYLED_ITEM('',(#1187),#225,#1180);
#1191=OVER_RIDING_STYLED_ITEM('',(#1187),#263,#1180);
#1192=OVER_RIDING_STYLED_ITEM('',(#1187),#301,#1180);
#1193=OVER_RIDING_STYLED_ITEM('',(#1187),#339,#1180);
#1194=OVER_RIDING_STYLED_ITEM('',(#1187),#377,#1180);
#1195=OVER_RIDING_STYLED_ITEM('',(#1187),#406,#1180);
#1196=OVER_RIDING_STYLED_ITEM('',(#1187),#417,#1180);
#1197=OVER_RIDING_STYLED_ITEM('',(#1187),#428,#1180);
#1198=OVER_RIDING_STYLED_ITEM('',(#1187),#439,#1180);
#1199=OVER_RIDING_STYLED_ITEM('',(#1187),#450,#1180);
#1200=OVER_RIDING_STYLED_ITEM('',(#1187),#461,#1180);
#1201=OVER_RIDING_STYLED_ITEM('',(#1187),#472,#1180);
#1202=COLOUR_RGB('',0.54902,0.54902,0.921569);
#1203=FILL_AREA_STYLE_COLOUR('',#1202);
#1204=FILL_AREA_STYLE('',(#1203));
#1205=SURFACE_STYLE_FILL_AREA(#1204);
#1206=SURFACE_SIDE_STYLE('',(#1205));
#1207=SURFACE_STYLE_USAGE(.BOTH.,#1206);
#1208=PRESENTATION_STYLE_ASSIGNMENT((#1207));
#1209=OVER_RIDING_STYLED_ITEM('',(#1208),#489,#1180);
#1210=OVER_RIDING_STYLED_ITEM('',(#1187),#514,#1180);
#1211=OVER_RIDING_STYLED_ITEM('',(#1187),#625,#1180);
#1212=OVER_RIDING_STYLED_ITEM('',(#1187),#687,#1180);
#1213=OVER_RIDING_STYLED_ITEM('',(#1187),#728,#1180);
#1214=OVER_RIDING_STYLED_ITEM('',(#1187),#752,#1180);
#1215=OVER_RIDING_STYLED_ITEM('',(#1187),#786,#1180);
#1216=OVER_RIDING_STYLED_ITEM('',(#1187),#832,#1180);
#1217=OVER_RIDING_STYLED_ITEM('',(#1187),#865,#1180);
#1218=OVER_RIDING_STYLED_ITEM('',(#1187),#905,#1180);
#1219=OVER_RIDING_STYLED_ITEM('',(#1187),#930,#1180);
#1220=OVER_RIDING_STYLED_ITEM('',(#1187),#957,#1180);
#1221=OVER_RIDING_STYLED_ITEM('',(#1187),#989,#1180);
#1222=OVER_RIDING_STYLED_ITEM('',(#1187),#1001,#1180);
#1223=OVER_RIDING_STYLED_ITEM('',(#1187),#1034,#1180);
#1224=OVER_RIDING_STYLED_ITEM('',(#1187),#1046,#1180);
#1225=OVER_RIDING_STYLED_ITEM('',(#1208),#1071,#1180);
#1226=OVER_RIDING_STYLED_ITEM('',(#1187),#1088,#1180);
#1227=OVER_RIDING_STYLED_ITEM('',(#1187),#1105,#1180);
#1228=OVER_RIDING_STYLED_ITEM('',(#1187),#1127,#1180);
#1229=OVER_RIDING_STYLED_ITEM('',(#1187),#1137,#1180);
#1230=OVER_RIDING_STYLED_ITEM('',(#1187),#1154,#1180);
#1231=OVER_RIDING_STYLED_ITEM('',(#1187),#1167,#1180);
#1232=OVER_RIDING_STYLED_ITEM('',(#1187),#1179,#1180);
#1233=MANIFOLD_SOLID_BREP('S5',#1180);
#1234=ADVANCED_BREP_SHAPE_REPRESENTATION('',(#1233),#5);
#1235=SHAPE_REPRESENTATION_RELATIONSHIP('NONE', 'NONE', #28, #1234);
#1236=PRESENTATION_LAYER_ASSIGNMENT('Í¼²ã000','',(#1233));
#1237=MECHANICAL_DESIGN_GEOMETRIC_PRESENTATION_REPRESENTATION('',(#1188,#1189,#1190,#1191,#1192,#1193,#1194,#1195,#1196,#1197,#1198,#1199,#1200,#1201,#1209,#1210,#1211,#1212,#1213,#1214,#1215,#1216,#1217,#1218,#1219,#1220,#1221,#1222,#1223,#1224,#1225,#1226,#1227,#1228,#1229,#1230,#1231,#1232),#5);
ENDSEC;
END-ISO-10303-21;
