ISO-10303-21;
HEADER;
FILE_DESCRIPTION (( 'STEP AP214' ),
    '1' );
FILE_NAME ('zhuangzhouchenggai.STEP',
    '2026-07-22T05:03:53',
    ( '' ),
    ( '' ),
    'SwSTEP 2.0',
    'SolidWorks 2020',
    '' );
FILE_SCHEMA (( 'AUTOMOTIVE_DESIGN' ));
ENDSEC;

DATA;
#1 = EDGE_CURVE ( 'NONE', #426, #17, #182, .T. ) ;
#2 = DIRECTION ( 'NONE',  ( 4.317690434736800086E-16, -2.091248278345654774E-16, 1.000000000000000000 ) ) ;
#3 = CARTESIAN_POINT ( 'NONE',  ( -2.162340604379435760, 0.2168705081328383133, 36.10000000000000142 ) ) ;
#4 = CARTESIAN_POINT ( 'NONE',  ( -0.3699452929419735359, 1.579146162661065000, 35.60000000000000142 ) ) ;
#5 = PLANE ( 'NONE',  #463 ) ;
#6 = VERTEX_POINT ( 'NONE', #404 ) ;
#7 = EDGE_LOOP ( 'NONE', ( #149, #595, #620, #505, #353, #495 ) ) ;
#8 = EDGE_CURVE ( 'NONE', #478, #47, #676, .T. ) ;
#9 = DIRECTION ( 'NONE',  ( 1.000000000000000000, 0.000000000000000000, 0.000000000000000000 ) ) ;
#10 = CARTESIAN_POINT ( 'NONE',  ( 1.973295339546130123, -2.842525108462383265, 41.94118868022663804 ) ) ;
#11 = AXIS2_PLACEMENT_3D ( 'NONE', #438, #656, #441 ) ;
#12 = EDGE_LOOP ( 'NONE', ( #536, #275 ) ) ;
#13 = EDGE_CURVE ( 'NONE', #412, #532, #72, .T. ) ;
#14 = DIRECTION ( 'NONE',  ( -1.000000000000000000, 0.000000000000000000, 5.203724748890980500E-16 ) ) ;
#15 = ORIENTED_EDGE ( 'NONE', *, *, #13, .T. ) ;
#16 = SURFACE_SIDE_STYLE ('',( #86 ) ) ;
#17 = VERTEX_POINT ( 'NONE', #419 ) ;
#18 =( NAMED_UNIT ( * ) PLANE_ANGLE_UNIT ( ) SI_UNIT ( $, .RADIAN. ) );
#19 = FACE_OUTER_BOUND ( 'NONE', #508, .T. ) ;
#20 = CIRCLE ( 'NONE', #238, 14.00000000000000533 ) ;
#21 = EDGE_CURVE ( 'NONE', #522, #173, #645, .T. ) ;
#22 = VECTOR ( 'NONE', #615, 1000.000000000000227 ) ;
#23 = VERTEX_POINT ( 'NONE', #241 ) ;
#24 = UNCERTAINTY_MEASURE_WITH_UNIT (LENGTH_MEASURE( 1.000000000000000082E-05 ), #85, 'distance_accuracy_value', 'NONE');
#25 = EDGE_CURVE ( 'NONE', #47, #592, #132, .T. ) ;
#26 = EDGE_CURVE ( 'NONE', #673, #405, #681, .T. ) ;
#27 = CARTESIAN_POINT ( 'NONE',  ( -3.672340604379409790, 0.2168705081328125006, 45.69615242270700861 ) ) ;
#28 = VECTOR ( 'NONE', #572, 1000.000000000000000 ) ;
#29 = AXIS2_PLACEMENT_3D ( 'NONE', #649, #158, #37 ) ;
#30 = ADVANCED_FACE ( 'NONE', ( #584 ), #87, .T. ) ;
#31 = VERTEX_POINT ( 'NONE', #184 ) ;
#32 = CARTESIAN_POINT ( 'NONE',  ( -3.672340604379414675, 0.2168705081328000106, 42.10000000000000142 ) ) ;
#33 = ORIENTED_EDGE ( 'NONE', *, *, #659, .F. ) ;
#34 = CARTESIAN_POINT ( 'NONE',  ( -2.758043692458484575, 7.084480074557820473, 41.50000000000000000 ) ) ;
#35 = DIRECTION ( 'NONE',  ( 0.000000000000000000, 0.000000000000000000, 1.000000000000000000 ) ) ;
#36 = VERTEX_POINT ( 'NONE', #519 ) ;
#37 = DIRECTION ( 'NONE',  ( -1.000000000000000000, 0.000000000000000000, 3.648209202895493362E-16 ) ) ;
#38 = CARTESIAN_POINT ( 'NONE',  ( -10.07701340813691893, -2.425129922754515110, 41.50000000000000000 ) ) ;
#39 = ADVANCED_FACE ( 'NONE', ( #79 ), #302, .F. ) ;
#40 = AXIS2_PLACEMENT_3D ( 'NONE', #186, #420, #408 ) ;
#41 = ORIENTED_EDGE ( 'NONE', *, *, #233, .T. ) ;
#42 = DIRECTION ( 'NONE',  ( 0.9244348918302186524, 0.3813399149929783127, -5.203724748891098829E-16 ) ) ;
#43 = ORIENTED_EDGE ( 'NONE', *, *, #153, .T. ) ;
#44 = EDGE_LOOP ( 'NONE', ( #197, #367, #617, #346, #43, #520 ) ) ;
#45 = LINE ( 'NONE', #534, #134 ) ;
#46 = CARTESIAN_POINT ( 'NONE',  ( -4.807659516648370435, 6.238990217919670123, 42.10000000000000142 ) ) ;
#47 = VERTEX_POINT ( 'NONE', #634 ) ;
#48 = CARTESIAN_POINT ( 'NONE',  ( 2.732332199378095350, 2.858870939020150104, 41.50000000000000000 ) ) ;
#49 = CARTESIAN_POINT ( 'NONE',  ( -3.672340604379441320, 0.2168705081328372031, 16.60000000000000497 ) ) ;
#50 = AXIS2_PLACEMENT_3D ( 'NONE', #498, #553, #328 ) ;
#51 = EDGE_LOOP ( 'NONE', ( #455, #252, #709, #635, #335, #320 ) ) ;
#52 = CARTESIAN_POINT ( 'NONE',  ( -3.318379663449945394, -0.6411929446433820567, 42.10000000000000142 ) ) ;
#53 = ADVANCED_FACE ( 'NONE', ( #587 ), #409, .T. ) ;
#54 =( BOUNDED_CURVE ( )  B_SPLINE_CURVE ( 2, ( #322, #95, #637 ),
 .UNSPECIFIED., .F., .F. ) 
 B_SPLINE_CURVE_WITH_KNOTS ( ( 3, 3 ),
 ( 0.000000000000000000, 1.000000000000000000 ),
 .UNSPECIFIED. ) 
 CURVE ( )  GEOMETRIC_REPRESENTATION_ITEM ( )  RATIONAL_B_SPLINE_CURVE ( ( 1.065961955353999846, 1.047670492559700017, 1.000000000000000000 ) ) 
 REPRESENTATION_ITEM ( '' )  );
#55 = CARTESIAN_POINT ( 'NONE',  ( -3.672340604379435991, 0.2168705081328383133, 36.10000000000000142 ) ) ;
#56 = CARTESIAN_POINT ( 'NONE',  ( -4.807659516648370435, 6.238990217919670123, 42.10000000000000142 ) ) ;
#57 = LINE ( 'NONE', #502, #351 ) ;
#58 = AXIS2_PLACEMENT_3D ( 'NONE', #181, #668, #452 ) ;
#59 = EDGE_LOOP ( 'NONE', ( #93, #566, #687, #154, #15, #541, #613, #150, #390, #104, #68, #291 ) ) ;
#60 = FACE_BOUND ( 'NONE', #7, .T. ) ;
#61 = CARTESIAN_POINT ( 'NONE',  ( 2.275183743417625415, -0.5749338441923449450, 38.85000000000000142 ) ) ;
#62 = EDGE_CURVE ( 'NONE', #466, #462, #691, .T. ) ;
#63 = EDGE_LOOP ( 'NONE', ( #303, #545, #287, #237, #162, #579 ) ) ;
#64 = CARTESIAN_POINT ( 'NONE',  ( -8.075115936530613325, 4.891127253839774980, 41.94118868022663804 ) ) ;
#65 = DIRECTION ( 'NONE',  ( 0.5614631137962500240, -0.8275017654641101394, 2.264576954506540649E-15 ) ) ;
#66 = PRODUCT ( 'zhuangzhouchenggai', 'zhuangzhouchenggai', '', ( #513 ) ) ;
#67 = VERTEX_POINT ( 'NONE', #693 ) ;
#68 = ORIENTED_EDGE ( 'NONE', *, *, #659, .T. ) ;
#69 = FILL_AREA_STYLE ('',( #246 ) ) ;
#70 = CARTESIAN_POINT ( 'NONE',  ( 5.837659395620557135, 0.2168705081328188289, 16.60000000000000142 ) ) ;
#71 = AXIS2_PLACEMENT_3D ( 'NONE', #675, #106, #647 ) ;
#72 = LINE ( 'NONE', #56, #83 ) ;
#73 = ORIENTED_EDGE ( 'NONE', *, *, #413, .T. ) ;
#74 =( NAMED_UNIT ( * ) SI_UNIT ( $, .STERADIAN. ) SOLID_ANGLE_UNIT ( ) );
#75 = ORIENTED_EDGE ( 'NONE', *, *, #224, .T. ) ;
#76 = MECHANICAL_DESIGN_GEOMETRIC_PRESENTATION_REPRESENTATION (  '', ( #468 ), #480 ) ;
#77 = DIRECTION ( 'NONE',  ( -5.133165871148269903E-17, 1.244369511365991872E-16, -1.000000000000000000 ) ) ;
#78 = ADVANCED_FACE ( 'NONE', ( #539 ), #533, .T. ) ;
#79 = FACE_OUTER_BOUND ( 'NONE', #255, .T. ) ;
#80 = ORIENTED_EDGE ( 'NONE', *, *, #259, .T. ) ;
#81 = PRESENTATION_STYLE_ASSIGNMENT (( #521 ) ) ;
#82 = LINE ( 'NONE', #418, #694 ) ;
#83 = VECTOR ( 'NONE', #290, 1000.000000000000227 ) ;
#84 = VERTEX_POINT ( 'NONE', #214 ) ;
#85 =( LENGTH_UNIT ( ) NAMED_UNIT ( * ) SI_UNIT ( .MILLI., .METRE. ) );
#86 = SURFACE_STYLE_FILL_AREA ( #624 ) ;
#87 = PLANE ( 'NONE',  #166 ) ;
#88 = EDGE_CURVE ( 'NONE', #673, #157, #551, .T. ) ;
#89 = EDGE_LOOP ( 'NONE', ( #103, #144, #363, #209 ) ) ;
#90 = ORIENTED_EDGE ( 'NONE', *, *, #118, .T. ) ;
#91 = DIRECTION ( 'NONE',  ( 4.508805430770679661E-16, 3.059241734961475062E-16, 1.000000000000000000 ) ) ;
#92 = AXIS2_PLACEMENT_3D ( 'NONE', #341, #337, #170 ) ;
#93 = ORIENTED_EDGE ( 'NONE', *, *, #361, .T. ) ;
#94 = LINE ( 'NONE', #434, #282 ) ;
#95 = CARTESIAN_POINT ( 'NONE',  ( -9.144672900540456340, -3.142695831527555494, 41.94118868022663804 ) ) ;
#96 = VECTOR ( 'NONE', #609, 1000.000000000000000 ) ;
#97 = VERTEX_POINT ( 'NONE', #643 ) ;
#98 = CARTESIAN_POINT ( 'NONE',  ( -7.113100672026289040, 5.287969500308549620, 42.10000000000000142 ) ) ;
#99 = ORIENTED_EDGE ( 'NONE', *, *, #343, .T. ) ;
#100 = PLANE ( 'NONE',  #671 ) ;
#101 = EDGE_CURVE ( 'NONE', #412, #466, #477, .T. ) ;
#102 = VECTOR ( 'NONE', #654, 1000.000000000000000 ) ;
#103 = ORIENTED_EDGE ( 'NONE', *, *, #614, .F. ) ;
#104 = ORIENTED_EDGE ( 'NONE', *, *, #446, .T. ) ;
#105 = DIRECTION ( 'NONE',  ( -1.000000000000000000, 0.000000000000000000, 5.203724748890980500E-16 ) ) ;
#106 = DIRECTION ( 'NONE',  ( 0.3813399149929783682, -0.9244348918302186524, -2.397581931095334993E-16 ) ) ;
#107 = AXIS2_PLACEMENT_3D ( 'NONE', #292, #192, #456 ) ;
#108 = PLANE ( 'NONE',  #215 ) ;
#109 = EDGE_CURVE ( 'NONE', #560, #228, #327, .T. ) ;
#110 = CARTESIAN_POINT ( 'NONE',  ( -3.672340604379435991, 0.2168705081328383133, 42.10000000000000142 ) ) ;
#111 = CARTESIAN_POINT ( 'NONE',  ( -3.672340604379420004, 0.2168705081328179962, 27.59999999999999787 ) ) ;
#112 = CIRCLE ( 'NONE', #146, 9.510000000000003340 ) ;
#113 = VERTEX_POINT ( 'NONE', #211 ) ;
#114 = CARTESIAN_POINT ( 'NONE',  ( -0.2315805367327245234, -4.854228484042989678, 42.10000000000000142 ) ) ;
#115 = ORIENTED_EDGE ( 'NONE', *, *, #623, .F. ) ;
#116 = CARTESIAN_POINT ( 'NONE',  ( 1.799991691781593683, 3.576436847793283746, 41.94118868022663804 ) ) ;
#117 = CARTESIAN_POINT ( 'NONE',  ( -3.672340604379414675, 0.2168705081328209938, 42.10000000000000142 ) ) ;
#118 = EDGE_CURVE ( 'NONE', #228, #6, #552, .T. ) ;
#119 = PLANE ( 'NONE',  #92 ) ;
#120 = CARTESIAN_POINT ( 'NONE',  ( -3.672340604379684681, 0.2168705081326534889, 45.69615242270700861 ) ) ;
#121 = ORIENTED_EDGE ( 'NONE', *, *, #446, .F. ) ;
#122 = AXIS2_PLACEMENT_3D ( 'NONE', #496, #610, #385 ) ;
#123 = CARTESIAN_POINT ( 'NONE',  ( 0.7304347277717826437, -4.457386237574143095, 41.94118868022663804 ) ) ;
#124 = DIRECTION ( 'NONE',  ( -5.203724748890980500E-16, -1.031153593095747949E-16, -1.000000000000000000 ) ) ;
#125 = ORIENTED_EDGE ( 'NONE', *, *, #439, .T. ) ;
#126 =( NAMED_UNIT ( * ) SI_UNIT ( $, .STERADIAN. ) SOLID_ANGLE_UNIT ( ) );
#127 = CARTESIAN_POINT ( 'NONE',  ( -10.07701340813691893, -2.425129922754515110, 41.50000000000000000 ) ) ;
#128 = CARTESIAN_POINT ( 'NONE',  ( -13.18234060437941935, 0.2168705081328179962, 27.60000000000000142 ) ) ;
#129 = VERTEX_POINT ( 'NONE', #38 ) ;
#130 = ADVANCED_FACE ( 'NONE', ( #383 ), #160, .T. ) ;
#131 = DIRECTION ( 'NONE',  ( -4.850459879049159875E-16, 6.457502346219369057E-17, -1.000000000000000000 ) ) ;
#132 = LINE ( 'NONE', #128, #511 ) ;
#133 = EDGE_LOOP ( 'NONE', ( #376, #432, #125, #544 ) ) ;
#134 = VECTOR ( 'NONE', #424, 1000.000000000000000 ) ;
#135 = CARTESIAN_POINT ( 'NONE',  ( -3.672340604379435991, 0.2168705081328383133, 36.10000000000000142 ) ) ;
#136 = UNCERTAINTY_MEASURE_WITH_UNIT (LENGTH_MEASURE( 1.000000000000000082E-05 ), #556, 'distance_accuracy_value', 'NONE');
#137 = EDGE_CURVE ( 'NONE', #97, #129, #54, .T. ) ;
#138 = DIRECTION ( 'NONE',  ( 1.000000000000000000, 0.000000000000000000, 0.000000000000000000 ) ) ;
#139 = VERTEX_POINT ( 'NONE', #251 ) ;
#140 = DIRECTION ( 'NONE',  ( -0.9244348918302213169, -0.3813399149929719845, 0.000000000000000000 ) ) ;
#141 = ADVANCED_FACE ( 'NONE', ( #147 ), #156, .T. ) ;
#142 = EDGE_LOOP ( 'NONE', ( #339, #115 ) ) ;
#143 = CARTESIAN_POINT ( 'NONE',  ( -3.672340604379409790, 0.2168705081328125006, 45.69615242270700861 ) ) ;
#144 = ORIENTED_EDGE ( 'NONE', *, *, #165, .F. ) ;
#145 = FACE_OUTER_BOUND ( 'NONE', #473, .T. ) ;
#146 = AXIS2_PLACEMENT_3D ( 'NONE', #411, #189, #684 ) ;
#147 = FACE_OUTER_BOUND ( 'NONE', #44, .T. ) ;
#148 = ADVANCED_BREP_SHAPE_REPRESENTATION ( 'zhuangzhouchenggai', ( #352, #107 ), #398 ) ;
#149 = ORIENTED_EDGE ( 'NONE', *, *, #259, .F. ) ;
#150 = ORIENTED_EDGE ( 'NONE', *, *, #307, .T. ) ;
#151 = CARTESIAN_POINT ( 'NONE',  ( -4.586637516300349660, -6.650739058292180594, 35.60000000000000142 ) ) ;
#152 = DIRECTION ( 'NONE',  ( 5.203724748890980500E-16, 1.031153593095749921E-16, 1.000000000000000000 ) ) ;
#153 = EDGE_CURVE ( 'NONE', #113, #17, #204, .T. ) ;
#154 = ORIENTED_EDGE ( 'NONE', *, *, #650, .T. ) ;
#155 = FACE_OUTER_BOUND ( 'NONE', #295, .T. ) ;
#156 = PLANE ( 'NONE',  #206 ) ;
#157 = VERTEX_POINT ( 'NONE', #205 ) ;
#158 = DIRECTION ( 'NONE',  ( -5.203724748890980500E-16, -1.031153593095747949E-16, -1.000000000000000000 ) ) ;
#159 = EDGE_CURVE ( 'NONE', #173, #522, #20, .T. ) ;
#160 = CYLINDRICAL_SURFACE ( 'NONE', #336, 13.99999999999999289 ) ;
#161 = AXIS2_PLACEMENT_3D ( 'NONE', #377, #91, #479 ) ;
#162 = ORIENTED_EDGE ( 'NONE', *, *, #699, .T. ) ;
#163 = CARTESIAN_POINT ( 'NONE',  ( -13.18234060437944066, 0.2168705081328372031, 16.60000000000000853 ) ) ;
#164 = CARTESIAN_POINT ( 'NONE',  ( -3.845644252143959108, 6.635832464388492724, 41.94118868022663804 ) ) ;
#165 = EDGE_CURVE ( 'NONE', #23, #512, #207, .T. ) ;
#166 = AXIS2_PLACEMENT_3D ( 'NONE', #306, #422, #672 ) ;
#167 = PLANE ( 'NONE',  #345 ) ;
#168 = DIRECTION ( 'NONE',  ( 0.9244348918302207618, 0.3813399149929733722, 2.602085213965115032E-14 ) ) ;
#169 = ORIENTED_EDGE ( 'NONE', *, *, #109, .F. ) ;
#170 = DIRECTION ( 'NONE',  ( -0.7924674997760268180, 0.6099141429731999020, 0.000000000000000000 ) ) ;
#171 = DIRECTION ( 'NONE',  ( -0.000000000000000000, -0.000000000000000000, 1.000000000000000000 ) ) ;
#172 =( BOUNDED_CURVE ( )  B_SPLINE_CURVE ( 2, ( #428, #688, #210 ),
 .UNSPECIFIED., .F., .T. ) 
 B_SPLINE_CURVE_WITH_KNOTS ( ( 3, 3 ),
 ( 0.000000000000000000, 1.000000000000000000 ),
 .UNSPECIFIED. ) 
 CURVE ( )  GEOMETRIC_REPRESENTATION_ITEM ( )  RATIONAL_B_SPLINE_CURVE ( ( 1.000000000000000000, 1.047670492559700017, 1.065961955353999846 ) ) 
 REPRESENTATION_ITEM ( '' )  );
#173 = VERTEX_POINT ( 'NONE', #664 ) ;
#174 = VECTOR ( 'NONE', #195, 1000.000000000000227 ) ;
#175 = EDGE_CURVE ( 'NONE', #488, #270, #677, .T. ) ;
#176 = DIRECTION ( 'NONE',  ( -1.543548650507615084E-15, 1.689339384203604947E-15, 1.000000000000000000 ) ) ;
#177 = COLOUR_RGB ( '',1.000000000000000000, 1.000000000000000000, 1.000000000000000000 ) ;
#178 = DIRECTION ( 'NONE',  ( -3.648209202895489910E-16, -1.031153593095747949E-16, -1.000000000000000000 ) ) ;
#179 = CARTESIAN_POINT ( 'NONE',  ( -5.182340604379436222, 0.2168705081328385076, 36.10000000000000142 ) ) ;
#180 = ORIENTED_EDGE ( 'NONE', *, *, #361, .F. ) ;
#181 = CARTESIAN_POINT ( 'NONE',  ( -3.672340604379435991, 0.2168705081328383133, 36.10000000000000142 ) ) ;
#182 = LINE ( 'NONE', #273, #96 ) ;
#183 = ORIENTED_EDGE ( 'NONE', *, *, #343, .F. ) ;
#184 = CARTESIAN_POINT ( 'NONE',  ( -5.182340604379436222, 0.2168705081328385076, 42.10000000000000142 ) ) ;
#185 = ADVANCED_FACE ( 'NONE', ( #347 ), #5, .T. ) ;
#186 = CARTESIAN_POINT ( 'NONE',  ( -3.672340604379409790, 0.2168705081328269890, 42.10000000000000142 ) ) ;
#187 = CONICAL_SURFACE ( 'NONE', #487, 1.333333333333382331, 0.9272952180016300616 ) ;
#188 = ORIENTED_EDGE ( 'NONE', *, *, #689, .F. ) ;
#189 = DIRECTION ( 'NONE',  ( -5.203724748890980500E-16, -1.031153593095747949E-16, -1.000000000000000000 ) ) ;
#190 = CARTESIAN_POINT ( 'NONE',  ( -3.672340604379435991, 0.2168705081328383133, 36.10000000000000142 ) ) ;
#191 = EDGE_LOOP ( 'NONE', ( #221, #423, #641, #33, #99, #169 ) ) ;
#192 = DIRECTION ( 'NONE',  ( 0.000000000000000000, 0.000000000000000000, 1.000000000000000000 ) ) ;
#193 = EDGE_CURVE ( 'NONE', #36, #231, #279, .T. ) ;
#194 = VECTOR ( 'NONE', #42, 1000.000000000000227 ) ;
#195 = DIRECTION ( 'NONE',  ( 0.1319673920541995504, 0.9912540579661770490, -1.708857167621604823E-16 ) ) ;
#196 =( NAMED_UNIT ( * ) PLANE_ANGLE_UNIT ( ) SI_UNIT ( $, .RADIAN. ) );
#197 = ORIENTED_EDGE ( 'NONE', *, *, #278, .T. ) ;
#198 = CARTESIAN_POINT ( 'NONE',  ( -3.672340604379441320, 0.2168705081328372031, 16.60000000000000497 ) ) ;
#199 = EDGE_LOOP ( 'NONE', ( #308, #312, #582 ) ) ;
#200 = EDGE_CURVE ( 'NONE', #373, #592, #325, .T. ) ;
#201 = EDGE_LOOP ( 'NONE', ( #358, #73, #515, #470 ) ) ;
#202 = EDGE_LOOP ( 'NONE', ( #531, #632, #588, #350 ) ) ;
#203 = CARTESIAN_POINT ( 'NONE',  ( 0.9753085927927410692, 4.211145382447779362, 42.10000000000000142 ) ) ;
#204 =( BOUNDED_CURVE ( )  B_SPLINE_CURVE ( 2, ( #371, #590, #597 ),
 .UNSPECIFIED., .F., .F. ) 
 B_SPLINE_CURVE_WITH_KNOTS ( ( 3, 3 ),
 ( 0.000000000000000000, 1.000000000000000000 ),
 .UNSPECIFIED. ) 
 CURVE ( )  GEOMETRIC_REPRESENTATION_ITEM ( )  RATIONAL_B_SPLINE_CURVE ( ( 1.065961955353999846, 1.047670492559700017, 1.000000000000000000 ) ) 
 REPRESENTATION_ITEM ( '' )  );
#205 = CARTESIAN_POINT ( 'NONE',  ( -2.758043692458489904, 7.084480074557820473, 35.60000000000000142 ) ) ;
#206 = AXIS2_PLACEMENT_3D ( 'NONE', #491, #706, #697 ) ;
#207 = CIRCLE ( 'NONE', #605, 14.00000000000000000 ) ;
#208 = ORIENTED_EDGE ( 'NONE', *, *, #159, .T. ) ;
#209 = ORIENTED_EDGE ( 'NONE', *, *, #159, .F. ) ;
#210 = CARTESIAN_POINT ( 'NONE',  ( 2.439739981773854538, 0.6611066389541789823, 42.10000000000000142 ) ) ;
#211 = CARTESIAN_POINT ( 'NONE',  ( -9.455308713820231858, 2.244715343604505087, 42.10000000000000142 ) ) ;
#212 = CARTESIAN_POINT ( 'NONE',  ( -3.672340604379409790, 0.2168705081328125006, 45.69615242270700861 ) ) ;
#213 = EDGE_CURVE ( 'NONE', #157, #426, #621, .T. ) ;
#214 = CARTESIAN_POINT ( 'NONE',  ( 0.9753085927927410692, 4.211145382447779362, 42.10000000000000142 ) ) ;
#215 = AXIS2_PLACEMENT_3D ( 'NONE', #4, #437, #326 ) ;
#216 = DIRECTION ( 'NONE',  ( 1.000000000000000000, 0.000000000000000000, -5.692593033797759729E-16 ) ) ;
#217 = DIRECTION ( 'NONE',  ( 0.9912540579661781592, -0.1319673920541915846, -5.705348792389159055E-16 ) ) ;
#218 = EDGE_LOOP ( 'NONE', ( #450, #260, #549 ) ) ;
#219 = DIRECTION ( 'NONE',  ( 0.9244348918302186524, 0.3813399149929783127, -5.203724748891098829E-16 ) ) ;
#220 = CARTESIAN_POINT ( 'NONE',  ( -0.2315805367327245234, -4.854228484042989678, 42.10000000000000142 ) ) ;
#221 = ORIENTED_EDGE ( 'NONE', *, *, #421, .T. ) ;
#222 = CARTESIAN_POINT ( 'NONE',  ( -9.162716496216079420, 4.442479643670445455, 41.50000000000000000 ) ) ;
#223 = FACE_OUTER_BOUND ( 'NONE', #249, .T. ) ;
#224 = EDGE_CURVE ( 'NONE', #488, #31, #268, .T. ) ;
#225 = FACE_OUTER_BOUND ( 'NONE', #388, .T. ) ;
#226 = DIRECTION ( 'NONE',  ( -5.203724748890980500E-16, -1.031153593095747949E-16, -1.000000000000000000 ) ) ;
#227 = ORIENTED_EDGE ( 'NONE', *, *, #548, .F. ) ;
#228 = VERTEX_POINT ( 'NONE', #448 ) ;
#229 = CARTESIAN_POINT ( 'NONE',  ( 9.269747881229710273, 5.555629318068245226, 35.39999999999999147 ) ) ;
#230 = CARTESIAN_POINT ( 'NONE',  ( 1.818035287457254734, -4.008738627404804689, 41.50000000000000000 ) ) ;
#231 = VERTEX_POINT ( 'NONE', #114 ) ;
#232 = PRESENTATION_STYLE_ASSIGNMENT (( #235 ) ) ;
#233 = EDGE_CURVE ( 'NONE', #270, #488, #262, .T. ) ;
#234 = APPLICATION_PROTOCOL_DEFINITION ( 'draft international standard', 'automotive_design', 1998, #576 ) ;
#235 = SURFACE_STYLE_USAGE ( .BOTH. , #16 ) ;
#236 = DIRECTION ( 'NONE',  ( -0.000000000000000000, -0.000000000000000000, 1.000000000000000000 ) ) ;
#237 = ORIENTED_EDGE ( 'NONE', *, *, #492, .F. ) ;
#238 = AXIS2_PLACEMENT_3D ( 'NONE', #535, #431, #318 ) ;
#239 = DIRECTION ( 'NONE',  ( 0.1319673920541915013, 0.9912540579661781592, 0.000000000000000000 ) ) ;
#240 = AXIS2_PLACEMENT_3D ( 'NONE', #49, #226, #406 ) ;
#241 = CARTESIAN_POINT ( 'NONE',  ( -16.61442908998859735, -5.121888301802569821, 35.60000000000000142 ) ) ;
#242 = ADVANCED_FACE ( 'NONE', ( #223 ), #619, .T. ) ;
#243 = EDGE_LOOP ( 'NONE', ( #628, #570 ) ) ;
#244 = LINE ( 'NONE', #517, #28 ) ;
#245 = ADVANCED_FACE ( 'NONE', ( #342 ), #272, .T. ) ;
#246 = FILL_AREA_STYLE_COLOUR ( '', #177 ) ;
#247 = AXIS2_PLACEMENT_3D ( 'NONE', #110, #386, #9 ) ;
#248 = CARTESIAN_POINT ( 'NONE',  ( -4.807659516648370435, 6.238990217919670123, 42.10000000000000142 ) ) ;
#249 = EDGE_LOOP ( 'NONE', ( #80, #459, #481, #180, #606, #704 ) ) ;
#250 = DIRECTION ( 'NONE',  ( 0.7924674997760315920, -0.6099141429731936848, -3.494867581269567962E-16 ) ) ;
#251 = CARTESIAN_POINT ( 'NONE',  ( -2.537021692110544624, -5.805249201654070212, 42.10000000000000142 ) ) ;
#252 = ORIENTED_EDGE ( 'NONE', *, *, #1, .T. ) ;
#253 = CARTESIAN_POINT ( 'NONE',  ( -3.672340604379439988, 0.2168705081328375084, 35.60000000000000142 ) ) ;
#254 = ADVANCED_FACE ( 'NONE', ( #391 ), #187, .T. ) ;
#255 = EDGE_LOOP ( 'NONE', ( #695, #75, #622, #442 ) ) ;
#256 = CARTESIAN_POINT ( 'NONE',  ( -4.586637516300349660, -6.650739058292180594, 35.60000000000000142 ) ) ;
#257 = VECTOR ( 'NONE', #542, 1000.000000000000000 ) ;
#258 = DIRECTION ( 'NONE',  ( -0.9244348918292254469, -0.3813399149953862199, 4.956352788505165240E-16 ) ) ;
#259 = EDGE_CURVE ( 'NONE', #67, #673, #57, .T. ) ;
#260 = ORIENTED_EDGE ( 'NONE', *, *, #307, .F. ) ;
#261 = CARTESIAN_POINT ( 'NONE',  ( -1.001020080320929928, 5.732205628440849132, 42.10000000000000142 ) ) ;
#262 = CIRCLE ( 'NONE', #665, 1.510000000000000009 ) ;
#263 = ADVANCED_FACE ( 'NONE', ( #387 ), #608, .F. ) ;
#264 = EDGE_LOOP ( 'NONE', ( #188, #454, #599 ) ) ;
#265 = DIRECTION ( 'NONE',  ( 0.7924674997760269290, -0.6099141429731999020, 0.000000000000000000 ) ) ;
#266 = CARTESIAN_POINT ( 'NONE',  ( -1.825703184861981132, 6.366914165784693047, 41.94118868022663804 ) ) ;
#267 = FACE_OUTER_BOUND ( 'NONE', #12, .T. ) ;
#268 = LINE ( 'NONE', #179, #400 ) ;
#269 = AXIS2_PLACEMENT_3D ( 'NONE', #212, #305, #636 ) ;
#270 = VERTEX_POINT ( 'NONE', #3 ) ;
#271 = DIRECTION ( 'NONE',  ( 5.692593033797759729E-16, -1.539489422245989796E-17, 1.000000000000000000 ) ) ;
#272 = PLANE ( 'NONE',  #11 ) ;
#273 = CARTESIAN_POINT ( 'NONE',  ( -9.162716496216090079, 4.442479643670445455, 35.60000000000000142 ) ) ;
#274 = VECTOR ( 'NONE', #573, 1000.000000000000000 ) ;
#275 = ORIENTED_EDGE ( 'NONE', *, *, #483, .T. ) ;
#276 =( NAMED_UNIT ( * ) PLANE_ANGLE_UNIT ( ) SI_UNIT ( $, .RADIAN. ) );
#277 = DIRECTION ( 'NONE',  ( 0.1319673920541829804, 0.9912540579661792695, -6.482819288966131053E-17 ) ) ;
#278 = EDGE_CURVE ( 'NONE', #426, #585, #443, .T. ) ;
#279 =( BOUNDED_CURVE ( )  B_SPLINE_CURVE ( 2, ( #658, #123, #220 ),
 .UNSPECIFIED., .F., .F. ) 
 B_SPLINE_CURVE_WITH_KNOTS ( ( 3, 3 ),
 ( 0.000000000000000000, 1.000000000000000000 ),
 .UNSPECIFIED. ) 
 CURVE ( )  GEOMETRIC_REPRESENTATION_ITEM ( )  RATIONAL_B_SPLINE_CURVE ( ( 1.000000000000000000, 1.047670492559700017, 1.065961955353999846 ) ) 
 REPRESENTATION_ITEM ( '' )  );
#280 = CARTESIAN_POINT ( 'NONE',  ( -9.455308713820231858, 2.244715343604505087, 42.10000000000000142 ) ) ;
#281 = DIRECTION ( 'NONE',  ( 2.236894466735920225E-14, 1.400907428172894121E-14, -1.000000000000000000 ) ) ;
#282 = VECTOR ( 'NONE', #529, 1000.000000000000000 ) ;
#283 = VECTOR ( 'NONE', #250, 1000.000000000000114 ) ;
#284 = CARTESIAN_POINT ( 'NONE',  ( -7.113100672026289040, 5.287969500308549620, 42.10000000000000142 ) ) ;
#285 =( BOUNDED_CURVE ( )  B_SPLINE_CURVE ( 2, ( #507, #10, #230 ),
 .UNSPECIFIED., .F., .F. ) 
 B_SPLINE_CURVE_WITH_KNOTS ( ( 3, 3 ),
 ( 0.000000000000000000, 1.000000000000000000 ),
 .UNSPECIFIED. ) 
 CURVE ( )  GEOMETRIC_REPRESENTATION_ITEM ( )  RATIONAL_B_SPLINE_CURVE ( ( 1.065961955353999846, 1.047670492559700017, 1.000000000000000000 ) ) 
 REPRESENTATION_ITEM ( '' )  );
#286 = PRODUCT_DEFINITION_FORMATION_WITH_SPECIFIED_SOURCE ( 'ÈÎºÎ', '', #66, .NOT_KNOWN. ) ;
#287 = ORIENTED_EDGE ( 'NONE', *, *, #62, .T. ) ;
#288 = EDGE_CURVE ( 'NONE', #231, #340, #638, .T. ) ;
#289 = CARTESIAN_POINT ( 'NONE',  ( -2.537021692110544624, -5.805249201654070212, 42.10000000000000142 ) ) ;
#290 = DIRECTION ( 'NONE',  ( -0.9244348918302186524, -0.3813399149929783127, 5.203724748891098829E-16 ) ) ;
#291 = ORIENTED_EDGE ( 'NONE', *, *, #288, .T. ) ;
#292 = CARTESIAN_POINT ( 'NONE',  ( 0.000000000000000000, 0.000000000000000000, 0.000000000000000000 ) ) ;
#293 = CARTESIAN_POINT ( 'NONE',  ( -3.499036956614870242, -6.202091448122850181, 41.94118868022663804 ) ) ;
#294 = CONICAL_SURFACE ( 'NONE', #503, 1.333333333333354132, 0.9272952180016122981 ) ;
#295 = EDGE_LOOP ( 'NONE', ( #297, #208 ) ) ;
#296 = SURFACE_SIDE_STYLE ('',( #667 ) ) ;
#297 = ORIENTED_EDGE ( 'NONE', *, *, #21, .T. ) ;
#298 = CLOSED_SHELL ( 'NONE', ( #669, #39, #130, #662, #254, #581, #78, #333, #591, #378, #141, #30, #245, #242, #53, #683, #644, #629, #395, #185, #571, #389, #263 ) ) ;
#299 = VERTEX_POINT ( 'NONE', #396 ) ;
#300 = APPLICATION_PROTOCOL_DEFINITION ( 'draft international standard', 'automotive_design', 1998, #510 ) ;
#301 = DIRECTION ( 'NONE',  ( 0.7924674997760212669, -0.6099141429732071185, -4.555442819994411521E-16 ) ) ;
#302 = CYLINDRICAL_SURFACE ( 'NONE', #625, 1.510000000000000009 ) ;
#303 = ORIENTED_EDGE ( 'NONE', *, *, #88, .T. ) ;
#304 = VECTOR ( 'NONE', #219, 1000.000000000000227 ) ;
#305 = DIRECTION ( 'NONE',  ( -2.434155774714019943E-16, -3.162722758730579962E-16, -1.000000000000000000 ) ) ;
#306 = CARTESIAN_POINT ( 'NONE',  ( -5.960380094337289769, 5.763479859114129411, 38.85000000000000142 ) ) ;
#307 = EDGE_CURVE ( 'NONE', #666, #97, #344, .T. ) ;
#308 = ORIENTED_EDGE ( 'NONE', *, *, #62, .F. ) ;
#309 = DIRECTION ( 'NONE',  ( 7.985202894771380160E-16, 8.713505458888300423E-16, 1.000000000000000000 ) ) ;
#310 = CARTESIAN_POINT ( 'NONE',  ( -3.672340604379409790, 0.2168705081328125006, 45.69615242270700861 ) ) ;
#311 = AXIS2_PLACEMENT_3D ( 'NONE', #310, #379, #315 ) ;
#312 = ORIENTED_EDGE ( 'NONE', *, *, #101, .F. ) ;
#313 = DIRECTION ( 'NONE',  ( -4.073818314343295195E-16, -3.121553629568790236E-16, -1.000000000000000000 ) ) ;
#314 =( BOUNDED_CURVE ( )  B_SPLINE_CURVE ( 2, ( #127, #679, #626 ),
 .UNSPECIFIED., .F., .F. ) 
 B_SPLINE_CURVE_WITH_KNOTS ( ( 3, 3 ),
 ( 0.000000000000000000, 1.000000000000000000 ),
 .UNSPECIFIED. ) 
 CURVE ( )  GEOMETRIC_REPRESENTATION_ITEM ( )  RATIONAL_B_SPLINE_CURVE ( ( 1.000000000000000000, 1.047670492559700017, 1.065961955353999846 ) ) 
 REPRESENTATION_ITEM ( '' )  );
#315 = DIRECTION ( 'NONE',  ( -0.1319673922141026412, -0.9912540579448888556, 0.000000000000000000 ) ) ;
#316 = EDGE_LOOP ( 'NONE', ( #616, #504, #417, #516 ) ) ;
#317 = CARTESIAN_POINT ( 'NONE',  ( -5.182340604379436222, 0.2168705081328385076, 36.10000000000000142 ) ) ;
#318 = DIRECTION ( 'NONE',  ( -1.000000000000000000, 0.000000000000000000, 4.956352788505161296E-16 ) ) ;
#319 = EDGE_CURVE ( 'NONE', #340, #36, #285, .T. ) ;
#320 = ORIENTED_EDGE ( 'NONE', *, *, #461, .F. ) ;
#321 = DIRECTION ( 'NONE',  ( -0.4359059936702397442, -0.8999922025675338721, 1.132288477253290046E-15 ) ) ;
#322 = CARTESIAN_POINT ( 'NONE',  ( -8.319989801551360031, -3.777404366182385065, 42.10000000000000142 ) ) ;
#323 =( GEOMETRIC_REPRESENTATION_CONTEXT ( 3 ) GLOBAL_UNCERTAINTY_ASSIGNED_CONTEXT ( ( #24 ) ) GLOBAL_UNIT_ASSIGNED_CONTEXT ( ( #85, #18, #126 ) ) REPRESENTATION_CONTEXT ( 'NONE', 'WORKASPACE' ) );
#324 = AXIS2_PLACEMENT_3D ( 'NONE', #577, #530, #627 ) ;
#325 = CIRCLE ( 'NONE', #240, 9.509999999999999787 ) ;
#326 = DIRECTION ( 'NONE',  ( 1.000000000000000000, 0.000000000000000000, -5.203724748890980500E-16 ) ) ;
#327 = LINE ( 'NONE', #476, #711 ) ;
#328 = DIRECTION ( 'NONE',  ( 1.000000000000000000, 0.000000000000000000, 0.000000000000000000 ) ) ;
#329 = DIRECTION ( 'NONE',  ( -1.000000000000000000, 0.000000000000000000, 3.648209202895493362E-16 ) ) ;
#330 = AXIS2_PLACEMENT_3D ( 'NONE', #27, #77, #140 ) ;
#331 = CARTESIAN_POINT ( 'NONE',  ( -3.672340604379433326, 0.2168705081328388407, 32.59999999999999432 ) ) ;
#332 = DIRECTION ( 'NONE',  ( -0.1319673920541995504, -0.9912540579661770490, 1.708857167621604823E-16 ) ) ;
#333 = ADVANCED_FACE ( 'NONE', ( #670 ), #457, .T. ) ;
#334 = DIRECTION ( 'NONE',  ( 1.000000000000000000, 0.000000000000000000, -0.000000000000000000 ) ) ;
#335 = ORIENTED_EDGE ( 'NONE', *, *, #101, .T. ) ;
#336 = AXIS2_PLACEMENT_3D ( 'NONE', #601, #690, #258 ) ;
#337 = DIRECTION ( 'NONE',  ( -0.6099141429731999020, -0.7924674997760268180, 3.307766861293825048E-16 ) ) ;
#338 = DIRECTION ( 'NONE',  ( -0.9973691074665146372, -0.07249043710344016400, 1.132288477253269733E-15 ) ) ;
#339 = ORIENTED_EDGE ( 'NONE', *, *, #602, .F. ) ;
#340 = VERTEX_POINT ( 'NONE', #467 ) ;
#341 = CARTESIAN_POINT ( 'NONE',  ( -7.331825462218580114, -4.537934490523329423, 38.85000000000000142 ) ) ;
#342 = FACE_OUTER_BOUND ( 'NONE', #63, .T. ) ;
#343 = EDGE_CURVE ( 'NONE', #139, #228, #464, .T. ) ;
#344 = CIRCLE ( 'NONE', #392, 6.128203230275512503 ) ;
#345 = AXIS2_PLACEMENT_3D ( 'NONE', #52, #271, #216 ) ;
#346 = ORIENTED_EDGE ( 'NONE', *, *, #639, .F. ) ;
#347 = FACE_OUTER_BOUND ( 'NONE', #700, .T. ) ;
#348 = DIRECTION ( 'NONE',  ( -1.000000000000000000, 0.000000000000000000, 7.296418405790983765E-16 ) ) ;
#349 = PRODUCT_RELATED_PRODUCT_CATEGORY ( 'part', '', ( #66 ) ) ;
#350 = ORIENTED_EDGE ( 'NONE', *, *, #538, .F. ) ;
#351 = VECTOR ( 'NONE', #277, 1000.000000000000227 ) ;
#352 = MANIFOLD_SOLID_BREP ( 'NONE', #298 ) ;
#353 = ORIENTED_EDGE ( 'NONE', *, *, #213, .F. ) ;
#354 = FACE_OUTER_BOUND ( 'NONE', #243, .T. ) ;
#355 = ORIENTED_EDGE ( 'NONE', *, *, #699, .F. ) ;
#356 = DIRECTION ( 'NONE',  ( -0.000000000000000000, -0.000000000000000000, 1.000000000000000000 ) ) ;
#357 = EDGE_CURVE ( 'NONE', #67, #36, #244, .T. ) ;
#358 = ORIENTED_EDGE ( 'NONE', *, *, #8, .F. ) ;
#359 =( NAMED_UNIT ( * ) SI_UNIT ( $, .STERADIAN. ) SOLID_ANGLE_UNIT ( ) );
#360 = PLANE ( 'NONE',  #416 ) ;
#361 = EDGE_CURVE ( 'NONE', #340, #425, #567, .T. ) ;
#362 = EDGE_CURVE ( 'NONE', #425, #84, #368, .T. ) ;
#363 = ORIENTED_EDGE ( 'NONE', *, *, #538, .T. ) ;
#364 =( BOUNDED_CURVE ( )  B_SPLINE_CURVE ( 2, ( #550, #116, #48 ),
 .UNSPECIFIED., .F., .F. ) 
 B_SPLINE_CURVE_WITH_KNOTS ( ( 3, 3 ),
 ( 0.000000000000000000, 1.000000000000000000 ),
 .UNSPECIFIED. ) 
 CURVE ( )  GEOMETRIC_REPRESENTATION_ITEM ( )  RATIONAL_B_SPLINE_CURVE ( ( 1.065961955353999846, 1.047670492559700017, 1.000000000000000000 ) ) 
 REPRESENTATION_ITEM ( '' )  );
#365 = DIRECTION ( 'NONE',  ( 1.000000000000000000, 0.000000000000000000, 0.000000000000000000 ) ) ;
#366 = EDGE_CURVE ( 'NONE', #129, #666, #314, .T. ) ;
#367 = ORIENTED_EDGE ( 'NONE', *, *, #471, .F. ) ;
#368 = CIRCLE ( 'NONE', #40, 6.128203230275512503 ) ;
#369 = CIRCLE ( 'NONE', #161, 6.128203230275510727 ) ;
#370 = CARTESIAN_POINT ( 'NONE',  ( 2.439739981773854538, 0.6611066389541789823, 42.10000000000000142 ) ) ;
#371 = CARTESIAN_POINT ( 'NONE',  ( -9.455308713820231858, 2.244715343604505087, 42.10000000000000142 ) ) ;
#372 = EDGE_CURVE ( 'NONE', #47, #478, #112, .T. ) ;
#373 = VERTEX_POINT ( 'NONE', #70 ) ;
#374 = LINE ( 'NONE', #692, #283 ) ;
#375 = CARTESIAN_POINT ( 'NONE',  ( -4.586637516300339890, -6.650739058292180594, 41.50000000000000000 ) ) ;
#376 = ORIENTED_EDGE ( 'NONE', *, *, #224, .F. ) ;
#377 = CARTESIAN_POINT ( 'NONE',  ( -3.672340604379420004, 0.2168705081328185236, 42.10000000000000142 ) ) ;
#378 = ADVANCED_FACE ( 'NONE', ( #19 ), #294, .T. ) ;
#379 = DIRECTION ( 'NONE',  ( -5.105962770685489300E-16, 6.797657837453419190E-17, -1.000000000000000000 ) ) ;
#380 = ORIENTED_EDGE ( 'NONE', *, *, #193, .F. ) ;
#381 = DIRECTION ( 'NONE',  ( -5.203724748890980500E-16, -1.031153593095747949E-16, -1.000000000000000000 ) ) ;
#382 = CONICAL_SURFACE ( 'NONE', #458, 1.333333333333354354, 0.9272952180016122981 ) ;
#383 = FACE_OUTER_BOUND ( 'NONE', #202, .T. ) ;
#384 = ORIENTED_EDGE ( 'NONE', *, *, #200, .F. ) ;
#385 = DIRECTION ( 'NONE',  ( -0.9244348918292254469, -0.3813399149953862199, 4.956352788505165240E-16 ) ) ;
#386 = DIRECTION ( 'NONE',  ( 0.000000000000000000, 0.000000000000000000, 1.000000000000000000 ) ) ;
#387 = FACE_OUTER_BOUND ( 'NONE', #316, .T. ) ;
#388 = EDGE_LOOP ( 'NONE', ( #574, #397, #90, #561, #528, #407 ) ) ;
#389 = ADVANCED_FACE ( 'NONE', ( #354 ), #360, .T. ) ;
#390 = ORIENTED_EDGE ( 'NONE', *, *, #518, .T. ) ;
#391 = FACE_OUTER_BOUND ( 'NONE', #218, .T. ) ;
#392 = AXIS2_PLACEMENT_3D ( 'NONE', #117, #559, #338 ) ;
#393 =( BOUNDED_CURVE ( )  B_SPLINE_CURVE ( 2, ( #222, #64, #284 ),
 .UNSPECIFIED., .F., .T. ) 
 B_SPLINE_CURVE_WITH_KNOTS ( ( 3, 3 ),
 ( 0.000000000000000000, 1.000000000000000000 ),
 .UNSPECIFIED. ) 
 CURVE ( )  GEOMETRIC_REPRESENTATION_ITEM ( )  RATIONAL_B_SPLINE_CURVE ( ( 1.000000000000000000, 1.047670492559700017, 1.065961955353999846 ) ) 
 REPRESENTATION_ITEM ( '' )  );
#394 = FACE_BOUND ( 'NONE', #142, .T. ) ;
#395 = ADVANCED_FACE ( 'NONE', ( #465 ), #414, .F. ) ;
#396 = CARTESIAN_POINT ( 'NONE',  ( -2.162340604379435760, 0.2168705081328383133, 42.10000000000000142 ) ) ;
#397 = ORIENTED_EDGE ( 'NONE', *, *, #109, .T. ) ;
#398 =( GEOMETRIC_REPRESENTATION_CONTEXT ( 3 ) GLOBAL_UNCERTAINTY_ASSIGNED_CONTEXT ( ( #136 ) ) GLOBAL_UNIT_ASSIGNED_CONTEXT ( ( #556, #276, #359 ) ) REPRESENTATION_CONTEXT ( 'NONE', 'WORKASPACE' ) );
#399 = AXIS2_PLACEMENT_3D ( 'NONE', #331, #124, #348 ) ;
#400 = VECTOR ( 'NONE', #171, 1000.000000000000000 ) ;
#401 = DIRECTION ( 'NONE',  ( -4.073818314343295195E-16, -3.121553629568790236E-16, -1.000000000000000000 ) ) ;
#402 = DIRECTION ( 'NONE',  ( 1.000000000000000000, 0.000000000000000000, 0.000000000000000000 ) ) ;
#403 = EDGE_CURVE ( 'NONE', #585, #560, #82, .T. ) ;
#404 = CARTESIAN_POINT ( 'NONE',  ( -6.343661122885800197, -5.298464614864280442, 42.10000000000000142 ) ) ;
#405 = VERTEX_POINT ( 'NONE', #526 ) ;
#406 = DIRECTION ( 'NONE',  ( -1.000000000000000000, 0.000000000000000000, 3.648209202895493362E-16 ) ) ;
#407 = ORIENTED_EDGE ( 'NONE', *, *, #471, .T. ) ;
#408 = DIRECTION ( 'NONE',  ( 0.9973691074665146372, 0.07249043710344006686, -1.132288477253269733E-15 ) ) ;
#409 = PLANE ( 'NONE',  #71 ) ;
#410 = SHAPE_DEFINITION_REPRESENTATION ( #453, #148 ) ;
#411 = CARTESIAN_POINT ( 'NONE',  ( -3.672340604379433326, 0.2168705081328388407, 32.59999999999999432 ) ) ;
#412 = VERTEX_POINT ( 'NONE', #248 ) ;
#413 = EDGE_CURVE ( 'NONE', #478, #373, #472, .T. ) ;
#414 = CYLINDRICAL_SURFACE ( 'NONE', #578, 1.510000000000000009 ) ;
#415 = PRODUCT_DEFINITION_CONTEXT ( 'detailed design', #510, 'design' ) ;
#416 = AXIS2_PLACEMENT_3D ( 'NONE', #583, #575, #14 ) ;
#417 = ORIENTED_EDGE ( 'NONE', *, *, #25, .T. ) ;
#418 = CARTESIAN_POINT ( 'NONE',  ( -10.07701340813691893, -2.425129922754515110, 35.60000000000000142 ) ) ;
#419 = CARTESIAN_POINT ( 'NONE',  ( -9.162716496216079420, 4.442479643670445455, 41.50000000000000000 ) ) ;
#420 = DIRECTION ( 'NONE',  ( 1.120502900931596051E-15, 2.032474851332204961E-16, 1.000000000000000000 ) ) ;
#421 = EDGE_CURVE ( 'NONE', #560, #67, #596, .T. ) ;
#422 = DIRECTION ( 'NONE',  ( -0.3813399149929779242, 0.9244348918302188745, 2.397581931095329569E-16 ) ) ;
#423 = ORIENTED_EDGE ( 'NONE', *, *, #357, .T. ) ;
#424 = DIRECTION ( 'NONE',  ( 5.203724748890980500E-16, 1.031153593095749921E-16, 1.000000000000000000 ) ) ;
#425 = VERTEX_POINT ( 'NONE', #370 ) ;
#426 = VERTEX_POINT ( 'NONE', #589 ) ;
#427 = CIRCLE ( 'NONE', #29, 9.509999999999999787 ) ;
#428 = CARTESIAN_POINT ( 'NONE',  ( 2.732332199378095350, 2.858870939020150104, 41.50000000000000000 ) ) ;
#429 = CARTESIAN_POINT ( 'NONE',  ( -1.001020080320929928, 5.732205628440849132, 42.10000000000000142 ) ) ;
#430 = DIRECTION ( 'NONE',  ( -0.7924674994690161789, 0.6099141433721020356, 3.494867579260610900E-16 ) ) ;
#431 = DIRECTION ( 'NONE',  ( -5.203724748890980500E-16, -1.031153593095747949E-16, -1.000000000000000000 ) ) ;
#432 = ORIENTED_EDGE ( 'NONE', *, *, #233, .F. ) ;
#433 = CARTESIAN_POINT ( 'NONE',  ( -16.61442908998859025, -5.121888301802565380, 35.40000000000000568 ) ) ;
#434 = CARTESIAN_POINT ( 'NONE',  ( -2.162340604379435760, 0.2168705081328383133, 36.10000000000000142 ) ) ;
#435 = CIRCLE ( 'NONE', #527, 6.128203230275499180 ) ;
#436 = CARTESIAN_POINT ( 'NONE',  ( -3.672340604379439988, 0.2168705081328375084, 35.60000000000000142 ) ) ;
#437 = DIRECTION ( 'NONE',  ( 5.203724748890980500E-16, 1.031153593095749921E-16, 1.000000000000000000 ) ) ;
#438 = CARTESIAN_POINT ( 'NONE',  ( -0.01285574654024539999, 4.971675506788970189, 38.85000000000000142 ) ) ;
#439 = EDGE_CURVE ( 'NONE', #270, #299, #94, .T. ) ;
#440 = CYLINDRICAL_SURFACE ( 'NONE', #493, 9.509999999999999787 ) ;
#441 = DIRECTION ( 'NONE',  ( -5.423331954837410398E-16, 0.000000000000000000, -1.000000000000000000 ) ) ;
#442 = ORIENTED_EDGE ( 'NONE', *, *, #439, .F. ) ;
#443 = LINE ( 'NONE', #563, #22 ) ;
#444 = AXIS2_PLACEMENT_3D ( 'NONE', #32, #309, #321 ) ;
#445 = EDGE_LOOP ( 'NONE', ( #227, #384 ) ) ;
#446 = EDGE_CURVE ( 'NONE', #6, #139, #685, .T. ) ;
#447 = FACE_OUTER_BOUND ( 'NONE', #89, .T. ) ;
#448 = CARTESIAN_POINT ( 'NONE',  ( -4.586637516300339890, -6.650739058292180594, 41.50000000000000000 ) ) ;
#449 = AXIS2_PLACEMENT_3D ( 'NONE', #61, #217, #497 ) ;
#450 = ORIENTED_EDGE ( 'NONE', *, *, #137, .F. ) ;
#451 = CYLINDRICAL_SURFACE ( 'NONE', #122, 13.99999999999999289 ) ;
#452 = DIRECTION ( 'NONE',  ( 1.000000000000000000, 0.000000000000000000, 0.000000000000000000 ) ) ;
#453 = PRODUCT_DEFINITION_SHAPE ( 'NONE', 'NONE',  #475 ) ;
#454 = ORIENTED_EDGE ( 'NONE', *, *, #153, .F. ) ;
#455 = ORIENTED_EDGE ( 'NONE', *, *, #213, .T. ) ;
#456 = DIRECTION ( 'NONE',  ( 1.000000000000000000, 0.000000000000000000, 0.000000000000000000 ) ) ;
#457 = CONICAL_SURFACE ( 'NONE', #330, 1.333333333333353909, 0.9272952180016122981 ) ;
#458 = AXIS2_PLACEMENT_3D ( 'NONE', #705, #586, #265 ) ;
#459 = ORIENTED_EDGE ( 'NONE', *, *, #26, .T. ) ;
#460 = CARTESIAN_POINT ( 'NONE',  ( 2.110627505061400289, -1.810974327338869871, 42.10000000000000142 ) ) ;
#461 = EDGE_CURVE ( 'NONE', #157, #466, #45, .T. ) ;
#462 = VERTEX_POINT ( 'NONE', #261 ) ;
#463 = AXIS2_PLACEMENT_3D ( 'NONE', #55, #712, #334 ) ;
#464 =( BOUNDED_CURVE ( )  B_SPLINE_CURVE ( 2, ( #289, #293, #514 ),
 .UNSPECIFIED., .F., .T. ) 
 B_SPLINE_CURVE_WITH_KNOTS ( ( 3, 3 ),
 ( 0.000000000000000000, 1.000000000000000000 ),
 .UNSPECIFIED. ) 
 CURVE ( )  GEOMETRIC_REPRESENTATION_ITEM ( )  RATIONAL_B_SPLINE_CURVE ( ( 1.065961955353999846, 1.047670492559700017, 1.000000000000000000 ) ) 
 REPRESENTATION_ITEM ( '' )  );
#465 = FACE_OUTER_BOUND ( 'NONE', #133, .T. ) ;
#466 = VERTEX_POINT ( 'NONE', #34 ) ;
#467 = CARTESIAN_POINT ( 'NONE',  ( 2.110627505061400289, -1.810974327338869871, 42.10000000000000142 ) ) ;
#468 = STYLED_ITEM ( 'NONE', ( #232 ), #352 ) ;
#469 = VECTOR ( 'NONE', #332, 1000.000000000000227 ) ;
#470 = ORIENTED_EDGE ( 'NONE', *, *, #25, .F. ) ;
#471 = EDGE_CURVE ( 'NONE', #129, #585, #485, .T. ) ;
#472 = LINE ( 'NONE', #642, #257 ) ;
#473 = EDGE_LOOP ( 'NONE', ( #380, #557, #678 ) ) ;
#474 = CARTESIAN_POINT ( 'NONE',  ( -16.61442908998860091, -5.121888301802572485, 16.60000000000001208 ) ) ;
#475 = PRODUCT_DEFINITION ( 'Î´Öª', '', #286, #415 ) ;
#476 = CARTESIAN_POINT ( 'NONE',  ( -4.586637516300349660, -6.650739058292180594, 35.60000000000000142 ) ) ;
#477 =( BOUNDED_CURVE ( )  B_SPLINE_CURVE ( 2, ( #46, #164, #703 ),
 .UNSPECIFIED., .F., .F. ) 
 B_SPLINE_CURVE_WITH_KNOTS ( ( 3, 3 ),
 ( 0.000000000000000000, 1.000000000000000000 ),
 .UNSPECIFIED. ) 
 CURVE ( )  GEOMETRIC_REPRESENTATION_ITEM ( )  RATIONAL_B_SPLINE_CURVE ( ( 1.065961955353999846, 1.047670492559700017, 1.000000000000000000 ) ) 
 REPRESENTATION_ITEM ( '' )  );
#478 = VERTEX_POINT ( 'NONE', #702 ) ;
#479 = DIRECTION ( 'NONE',  ( -0.5614631137962740048, 0.8275017654640938192, 0.000000000000000000 ) ) ;
#480 =( GEOMETRIC_REPRESENTATION_CONTEXT ( 3 ) GLOBAL_UNCERTAINTY_ASSIGNED_CONTEXT ( ( #680 ) ) GLOBAL_UNIT_ASSIGNED_CONTEXT ( ( #674, #196, #74 ) ) REPRESENTATION_CONTEXT ( 'NONE', 'WORKASPACE' ) );
#481 = ORIENTED_EDGE ( 'NONE', *, *, #525, .T. ) ;
#482 = FACE_BOUND ( 'NONE', #445, .T. ) ;
#483 = EDGE_CURVE ( 'NONE', #512, #23, #540, .T. ) ;
#484 = ORIENTED_EDGE ( 'NONE', *, *, #118, .F. ) ;
#485 = LINE ( 'NONE', #593, #102 ) ;
#486 = CARTESIAN_POINT ( 'NONE',  ( 2.732332199378090021, 2.858870939020154989, 35.60000000000000142 ) ) ;
#487 = AXIS2_PLACEMENT_3D ( 'NONE', #120, #281, #168 ) ;
#488 = VERTEX_POINT ( 'NONE', #317 ) ;
#489 = ORIENTED_EDGE ( 'NONE', *, *, #362, .F. ) ;
#490 = CARTESIAN_POINT ( 'NONE',  ( -10.07701340813691893, -2.425129922754515110, 35.60000000000000142 ) ) ;
#491 = CARTESIAN_POINT ( 'NONE',  ( -9.619864952176449435, 1.008674860457980049, 38.85000000000000142 ) ) ;
#492 = EDGE_CURVE ( 'NONE', #84, #462, #537, .T. ) ;
#493 = AXIS2_PLACEMENT_3D ( 'NONE', #663, #178, #657 ) ;
#494 = CARTESIAN_POINT ( 'NONE',  ( -3.672340604379435991, 0.2168705081328383133, 36.10000000000000142 ) ) ;
#495 = ORIENTED_EDGE ( 'NONE', *, *, #88, .F. ) ;
#496 = CARTESIAN_POINT ( 'NONE',  ( -3.672340604379439988, 0.2168705081328385076, 35.39999999999999858 ) ) ;
#497 = DIRECTION ( 'NONE',  ( 0.000000000000000000, 4.323301918436255535E-15, -1.000000000000000000 ) ) ;
#498 = CARTESIAN_POINT ( 'NONE',  ( -3.672340604379435991, 0.2168705081328383133, 42.10000000000000142 ) ) ;
#499 = DIRECTION ( 'NONE',  ( -3.648209202895489910E-16, -1.031153593095747949E-16, -1.000000000000000000 ) ) ;
#500 = EDGE_CURVE ( 'NONE', #532, #113, #369, .T. ) ;
#501 = FACE_OUTER_BOUND ( 'NONE', #201, .T. ) ;
#502 = CARTESIAN_POINT ( 'NONE',  ( 1.818035287457249849, -4.008738627404804689, 35.60000000000000142 ) ) ;
#503 = AXIS2_PLACEMENT_3D ( 'NONE', #143, #131, #239 ) ;
#504 = ORIENTED_EDGE ( 'NONE', *, *, #372, .F. ) ;
#505 = ORIENTED_EDGE ( 'NONE', *, *, #278, .F. ) ;
#506 = LINE ( 'NONE', #707, #304 ) ;
#507 = CARTESIAN_POINT ( 'NONE',  ( 2.110627505061400289, -1.810974327338869871, 42.10000000000000142 ) ) ;
#508 = EDGE_LOOP ( 'NONE', ( #484, #183, #121 ) ) ;
#509 = PRESENTATION_LAYER_ASSIGNMENT (  '', '', ( #698 ) ) ;
#510 = APPLICATION_CONTEXT ( 'automotive_design' ) ;
#511 = VECTOR ( 'NONE', #524, 1000.000000000000000 ) ;
#512 = VERTEX_POINT ( 'NONE', #600 ) ;
#513 = PRODUCT_CONTEXT ( 'NONE', #576, 'mechanical' ) ;
#514 = CARTESIAN_POINT ( 'NONE',  ( -4.586637516300339890, -6.650739058292180594, 41.50000000000000000 ) ) ;
#515 = ORIENTED_EDGE ( 'NONE', *, *, #200, .T. ) ;
#516 = ORIENTED_EDGE ( 'NONE', *, *, #548, .T. ) ;
#517 = CARTESIAN_POINT ( 'NONE',  ( 1.818035287457249849, -4.008738627404804689, 35.60000000000000142 ) ) ;
#518 = EDGE_CURVE ( 'NONE', #97, #6, #374, .T. ) ;
#519 = CARTESIAN_POINT ( 'NONE',  ( 1.818035287457254734, -4.008738627404804689, 41.50000000000000000 ) ) ;
#520 = ORIENTED_EDGE ( 'NONE', *, *, #1, .F. ) ;
#521 = SURFACE_STYLE_USAGE ( .BOTH. , #296 ) ;
#522 = VERTEX_POINT ( 'NONE', #474 ) ;
#523 = AXIS2_PLACEMENT_3D ( 'NONE', #111, #499, #329 ) ;
#524 = DIRECTION ( 'NONE',  ( -3.648209202895489910E-16, -1.031153593095747949E-16, -1.000000000000000000 ) ) ;
#525 = EDGE_CURVE ( 'NONE', #405, #425, #172, .T. ) ;
#526 = CARTESIAN_POINT ( 'NONE',  ( 2.732332199378095350, 2.858870939020150104, 41.50000000000000000 ) ) ;
#527 = AXIS2_PLACEMENT_3D ( 'NONE', #603, #2, #710 ) ;
#528 = ORIENTED_EDGE ( 'NONE', *, *, #137, .T. ) ;
#529 = DIRECTION ( 'NONE',  ( -0.000000000000000000, -0.000000000000000000, 1.000000000000000000 ) ) ;
#530 = DIRECTION ( 'NONE',  ( -5.203724748890980500E-16, -1.031153593095747949E-16, -1.000000000000000000 ) ) ;
#531 = ORIENTED_EDGE ( 'NONE', *, *, #483, .F. ) ;
#532 = VERTEX_POINT ( 'NONE', #98 ) ;
#533 = CONICAL_SURFACE ( 'NONE', #311, 1.333333333333354132, 0.9272952180016122981 ) ;
#534 = CARTESIAN_POINT ( 'NONE',  ( -2.758043692458489904, 7.084480074557820473, 35.60000000000000142 ) ) ;
#535 = CARTESIAN_POINT ( 'NONE',  ( -3.672340604379441320, 0.2168705081328372031, 16.60000000000000497 ) ) ;
#536 = ORIENTED_EDGE ( 'NONE', *, *, #165, .T. ) ;
#537 = LINE ( 'NONE', #203, #598 ) ;
#538 = EDGE_CURVE ( 'NONE', #23, #522, #696, .T. ) ;
#539 = FACE_OUTER_BOUND ( 'NONE', #199, .T. ) ;
#540 = CIRCLE ( 'NONE', #631, 14.00000000000000000 ) ;
#541 = ORIENTED_EDGE ( 'NONE', *, *, #500, .T. ) ;
#542 = DIRECTION ( 'NONE',  ( -3.648209202895489910E-16, -1.031153593095747949E-16, -1.000000000000000000 ) ) ;
#543 = DIRECTION ( 'NONE',  ( 1.000000000000000000, 0.000000000000000000, 0.000000000000000000 ) ) ;
#544 = ORIENTED_EDGE ( 'NONE', *, *, #602, .T. ) ;
#545 = ORIENTED_EDGE ( 'NONE', *, *, #461, .T. ) ;
#546 = FACE_OUTER_BOUND ( 'NONE', #264, .T. ) ;
#547 = CARTESIAN_POINT ( 'NONE',  ( -2.758043692458484575, 7.084480074557820473, 41.50000000000000000 ) ) ;
#548 = EDGE_CURVE ( 'NONE', #592, #373, #427, .T. ) ;
#549 = ORIENTED_EDGE ( 'NONE', *, *, #366, .F. ) ;
#550 = CARTESIAN_POINT ( 'NONE',  ( 0.9753085927927409582, 4.211145382447779362, 42.10000000000000142 ) ) ;
#551 = LINE ( 'NONE', #486, #569 ) ;
#552 =( BOUNDED_CURVE ( )  B_SPLINE_CURVE ( 2, ( #375, #594, #651 ),
 .UNSPECIFIED., .F., .T. ) 
 B_SPLINE_CURVE_WITH_KNOTS ( ( 3, 3 ),
 ( 0.000000000000000000, 1.000000000000000000 ),
 .UNSPECIFIED. ) 
 CURVE ( )  GEOMETRIC_REPRESENTATION_ITEM ( )  RATIONAL_B_SPLINE_CURVE ( ( 1.000000000000000000, 1.047670492559700017, 1.065961955353999846 ) ) 
 REPRESENTATION_ITEM ( '' )  );
#553 = DIRECTION ( 'NONE',  ( 0.000000000000000000, 0.000000000000000000, 1.000000000000000000 ) ) ;
#554 = VECTOR ( 'NONE', #313, 1000.000000000000000 ) ;
#555 = CARTESIAN_POINT ( 'NONE',  ( -2.758043692458489904, 7.084480074557820473, 35.60000000000000142 ) ) ;
#556 =( LENGTH_UNIT ( ) NAMED_UNIT ( * ) SI_UNIT ( .MILLI., .METRE. ) );
#557 = ORIENTED_EDGE ( 'NONE', *, *, #319, .F. ) ;
#558 = CARTESIAN_POINT ( 'NONE',  ( -9.784421190532679447, -0.2273656226885419906, 42.10000000000000142 ) ) ;
#559 = DIRECTION ( 'NONE',  ( 1.104159215084207867E-15, 4.281142126308805040E-16, 1.000000000000000000 ) ) ;
#560 = VERTEX_POINT ( 'NONE', #256 ) ;
#561 = ORIENTED_EDGE ( 'NONE', *, *, #518, .F. ) ;
#562 = CARTESIAN_POINT ( 'NONE',  ( 2.732332199378090021, 2.858870939020154989, 35.60000000000000142 ) ) ;
#563 = CARTESIAN_POINT ( 'NONE',  ( -9.162716496216090079, 4.442479643670445455, 35.60000000000000142 ) ) ;
#564 = AXIS2_PLACEMENT_3D ( 'NONE', #661, #176, #65 ) ;
#565 = CONICAL_SURFACE ( 'NONE', #269, 1.333333333333354354, 0.9272952180016122981 ) ;
#566 = ORIENTED_EDGE ( 'NONE', *, *, #362, .T. ) ;
#567 = LINE ( 'NONE', #460, #174 ) ;
#568 = MECHANICAL_DESIGN_GEOMETRIC_PRESENTATION_REPRESENTATION (  '', ( #698 ), #323 ) ;
#569 = VECTOR ( 'NONE', #604, 1000.000000000000000 ) ;
#570 = ORIENTED_EDGE ( 'NONE', *, *, #8, .T. ) ;
#571 = ADVANCED_FACE ( 'NONE', ( #155, #482 ), #100, .T. ) ;
#572 = DIRECTION ( 'NONE',  ( 5.203724748890980500E-16, 1.031153593095749921E-16, 1.000000000000000000 ) ) ;
#573 = DIRECTION ( 'NONE',  ( 6.759561680874489811E-16, -2.740468231360035408E-16, 1.000000000000000000 ) ) ;
#574 = ORIENTED_EDGE ( 'NONE', *, *, #403, .T. ) ;
#575 = DIRECTION ( 'NONE',  ( -5.203724748890980500E-16, -1.031153593095747949E-16, -1.000000000000000000 ) ) ;
#576 = APPLICATION_CONTEXT ( 'automotive_design' ) ;
#577 = CARTESIAN_POINT ( 'NONE',  ( -3.672340604379441320, 0.2168705081328372031, 16.60000000000000497 ) ) ;
#578 = AXIS2_PLACEMENT_3D ( 'NONE', #135, #356, #580 ) ;
#579 = ORIENTED_EDGE ( 'NONE', *, *, #26, .F. ) ;
#580 = DIRECTION ( 'NONE',  ( 1.000000000000000000, 0.000000000000000000, 0.000000000000000000 ) ) ;
#581 = ADVANCED_FACE ( 'NONE', ( #546 ), #382, .T. ) ;
#582 = ORIENTED_EDGE ( 'NONE', *, *, #650, .F. ) ;
#583 = CARTESIAN_POINT ( 'NONE',  ( -3.672340604379433326, 0.2168705081328388407, 32.59999999999999432 ) ) ;
#584 = FACE_OUTER_BOUND ( 'NONE', #51, .T. ) ;
#585 = VERTEX_POINT ( 'NONE', #490 ) ;
#586 = DIRECTION ( 'NONE',  ( -2.591365549740880248E-16, -3.366986979836469885E-16, -1.000000000000000000 ) ) ;
#587 = FACE_OUTER_BOUND ( 'NONE', #191, .T. ) ;
#588 = ORIENTED_EDGE ( 'NONE', *, *, #21, .F. ) ;
#589 = CARTESIAN_POINT ( 'NONE',  ( -9.162716496216090079, 4.442479643670445455, 35.60000000000000142 ) ) ;
#590 = CARTESIAN_POINT ( 'NONE',  ( -9.317976548304997664, 3.276266124728111073, 41.94118868022663804 ) ) ;
#591 = ADVANCED_FACE ( 'NONE', ( #145 ), #565, .T. ) ;
#592 = VERTEX_POINT ( 'NONE', #163 ) ;
#593 = CARTESIAN_POINT ( 'NONE',  ( -10.07701340813691893, -2.425129922754515110, 41.50000000000000000 ) ) ;
#594 = CARTESIAN_POINT ( 'NONE',  ( -5.518978023896808693, -5.933173149519146428, 41.94118868022663804 ) ) ;
#595 = ORIENTED_EDGE ( 'NONE', *, *, #421, .F. ) ;
#596 = LINE ( 'NONE', #151, #194 ) ;
#597 = CARTESIAN_POINT ( 'NONE',  ( -9.162716496216079420, 4.442479643670445455, 41.50000000000000000 ) ) ;
#598 = VECTOR ( 'NONE', #430, 999.9999999999998863 ) ;
#599 = ORIENTED_EDGE ( 'NONE', *, *, #500, .F. ) ;
#600 = CARTESIAN_POINT ( 'NONE',  ( 9.269747881229715603, 5.555629318068245226, 35.60000000000000142 ) ) ;
#601 = CARTESIAN_POINT ( 'NONE',  ( -3.672340604379439988, 0.2168705081328385076, 35.39999999999999858 ) ) ;
#602 = EDGE_CURVE ( 'NONE', #299, #31, #640, .T. ) ;
#603 = CARTESIAN_POINT ( 'NONE',  ( -3.672340604379409790, 0.2168705081328330120, 42.10000000000000142 ) ) ;
#604 = DIRECTION ( 'NONE',  ( -0.7924674997760212669, 0.6099141429732071185, 4.555442819994411521E-16 ) ) ;
#605 = AXIS2_PLACEMENT_3D ( 'NONE', #436, #35, #543 ) ;
#606 = ORIENTED_EDGE ( 'NONE', *, *, #319, .T. ) ;
#607 = LINE ( 'NONE', #229, #653 ) ;
#608 = CYLINDRICAL_SURFACE ( 'NONE', #523, 9.509999999999999787 ) ;
#609 = DIRECTION ( 'NONE',  ( 5.203724748890980500E-16, 1.031153593095749921E-16, 1.000000000000000000 ) ) ;
#610 = DIRECTION ( 'NONE',  ( -4.073818314343295195E-16, -3.121553629568790236E-16, -1.000000000000000000 ) ) ;
#611 = PRESENTATION_LAYER_ASSIGNMENT (  '', '', ( #468 ) ) ;
#612 = DIRECTION ( 'NONE',  ( -0.9244348918302186524, -0.3813399149929783127, 5.203724748891098829E-16 ) ) ;
#613 = ORIENTED_EDGE ( 'NONE', *, *, #639, .T. ) ;
#614 = EDGE_CURVE ( 'NONE', #512, #173, #607, .T. ) ;
#615 = DIRECTION ( 'NONE',  ( -0.1319673920541829804, -0.9912540579661792695, 6.482819288966131053E-17 ) ) ;
#616 = ORIENTED_EDGE ( 'NONE', *, *, #413, .F. ) ;
#617 = ORIENTED_EDGE ( 'NONE', *, *, #366, .T. ) ;
#618 = LINE ( 'NONE', #280, #469 ) ;
#619 = PLANE ( 'NONE',  #449 ) ;
#620 = ORIENTED_EDGE ( 'NONE', *, *, #403, .F. ) ;
#621 = LINE ( 'NONE', #555, #701 ) ;
#622 = ORIENTED_EDGE ( 'NONE', *, *, #623, .T. ) ;
#623 = EDGE_CURVE ( 'NONE', #31, #299, #686, .T. ) ;
#624 = FILL_AREA_STYLE ('',( #630 ) ) ;
#625 = AXIS2_PLACEMENT_3D ( 'NONE', #190, #236, #138 ) ;
#626 = CARTESIAN_POINT ( 'NONE',  ( -9.784421190532679447, -0.2273656226885419906, 42.10000000000000142 ) ) ;
#627 = DIRECTION ( 'NONE',  ( -1.000000000000000000, 0.000000000000000000, 4.956352788505161296E-16 ) ) ;
#628 = ORIENTED_EDGE ( 'NONE', *, *, #372, .T. ) ;
#629 = ADVANCED_FACE ( 'NONE', ( #447 ), #451, .T. ) ;
#630 = FILL_AREA_STYLE_COLOUR ( '', #652 ) ;
#631 = AXIS2_PLACEMENT_3D ( 'NONE', #253, #646, #365 ) ;
#632 = ORIENTED_EDGE ( 'NONE', *, *, #614, .T. ) ;
#633 = CARTESIAN_POINT ( 'NONE',  ( 2.732332199378090021, 2.858870939020154989, 35.60000000000000142 ) ) ;
#634 = CARTESIAN_POINT ( 'NONE',  ( -13.18234060437943533, 0.2168705081328388407, 32.60000000000000142 ) ) ;
#635 = ORIENTED_EDGE ( 'NONE', *, *, #13, .F. ) ;
#636 = DIRECTION ( 'NONE',  ( -0.7924674997760269290, 0.6099141429731999020, 0.000000000000000000 ) ) ;
#637 = CARTESIAN_POINT ( 'NONE',  ( -10.07701340813691893, -2.425129922754515110, 41.50000000000000000 ) ) ;
#638 = CIRCLE ( 'NONE', #564, 6.128203230275508950 ) ;
#639 = EDGE_CURVE ( 'NONE', #113, #666, #618, .T. ) ;
#640 = CIRCLE ( 'NONE', #247, 1.510000000000000009 ) ;
#641 = ORIENTED_EDGE ( 'NONE', *, *, #193, .T. ) ;
#642 = CARTESIAN_POINT ( 'NONE',  ( 5.837659395620580227, 0.2168705081328191620, 27.59999999999999432 ) ) ;
#643 = CARTESIAN_POINT ( 'NONE',  ( -8.319989801551360031, -3.777404366182385065, 42.10000000000000142 ) ) ;
#644 = ADVANCED_FACE ( 'NONE', ( #394, #655 ), #167, .T. ) ;
#645 = CIRCLE ( 'NONE', #324, 14.00000000000000533 ) ;
#646 = DIRECTION ( 'NONE',  ( 0.000000000000000000, 0.000000000000000000, 1.000000000000000000 ) ) ;
#647 = DIRECTION ( 'NONE',  ( 0.000000000000000000, 2.593564946849360324E-16, -1.000000000000000000 ) ) ;
#648 = ORIENTED_EDGE ( 'NONE', *, *, #175, .T. ) ;
#649 = CARTESIAN_POINT ( 'NONE',  ( -3.672340604379441320, 0.2168705081328372031, 16.60000000000000497 ) ) ;
#650 = EDGE_CURVE ( 'NONE', #462, #412, #435, .T. ) ;
#651 = CARTESIAN_POINT ( 'NONE',  ( -6.343661122885800197, -5.298464614864280442, 42.10000000000000142 ) ) ;
#652 = COLOUR_RGB ( '',1.000000000000000000, 1.000000000000000000, 1.000000000000000000 ) ;
#653 = VECTOR ( 'NONE', #401, 1000.000000000000000 ) ;
#654 = DIRECTION ( 'NONE',  ( -6.178973580382169431E-16, 1.333020763170373874E-16, -1.000000000000000000 ) ) ;
#655 = FACE_OUTER_BOUND ( 'NONE', #59, .T. ) ;
#656 = DIRECTION ( 'NONE',  ( 0.6099141429731999020, 0.7924674997760268180, -3.307766861293828007E-16 ) ) ;
#657 = DIRECTION ( 'NONE',  ( -1.000000000000000000, 0.000000000000000000, 3.648209202895493362E-16 ) ) ;
#658 = CARTESIAN_POINT ( 'NONE',  ( 1.818035287457254734, -4.008738627404804689, 41.50000000000000000 ) ) ;
#659 = EDGE_CURVE ( 'NONE', #139, #231, #506, .T. ) ;
#660 = ORIENTED_EDGE ( 'NONE', *, *, #525, .F. ) ;
#661 = CARTESIAN_POINT ( 'NONE',  ( -3.672340604379409790, 0.2168705081328160256, 42.10000000000000142 ) ) ;
#662 = ADVANCED_FACE ( 'NONE', ( #60, #267 ), #108, .T. ) ;
#663 = CARTESIAN_POINT ( 'NONE',  ( -3.672340604379420004, 0.2168705081328179962, 27.59999999999999787 ) ) ;
#664 = CARTESIAN_POINT ( 'NONE',  ( 9.269747881229719155, 5.555629318068245226, 16.59999999999999787 ) ) ;
#665 = AXIS2_PLACEMENT_3D ( 'NONE', #494, #708, #402 ) ;
#666 = VERTEX_POINT ( 'NONE', #558 ) ;
#667 = SURFACE_STYLE_FILL_AREA ( #69 ) ;
#668 = DIRECTION ( 'NONE',  ( 0.000000000000000000, 0.000000000000000000, 1.000000000000000000 ) ) ;
#669 = ADVANCED_FACE ( 'NONE', ( #501 ), #440, .F. ) ;
#670 = FACE_OUTER_BOUND ( 'NONE', #682, .T. ) ;
#671 = AXIS2_PLACEMENT_3D ( 'NONE', #198, #381, #105 ) ;
#672 = DIRECTION ( 'NONE',  ( 6.287256688404829903E-16, 0.000000000000000000, 1.000000000000000000 ) ) ;
#673 = VERTEX_POINT ( 'NONE', #562 ) ;
#674 =( LENGTH_UNIT ( ) NAMED_UNIT ( * ) SI_UNIT ( .MILLI., .METRE. ) );
#675 = CARTESIAN_POINT ( 'NONE',  ( -1.384301114421544243, -5.329738842848489533, 38.85000000000000142 ) ) ;
#676 = CIRCLE ( 'NONE', #399, 9.510000000000003340 ) ;
#677 = CIRCLE ( 'NONE', #58, 1.510000000000000009 ) ;
#678 = ORIENTED_EDGE ( 'NONE', *, *, #288, .F. ) ;
#679 = CARTESIAN_POINT ( 'NONE',  ( -9.921753356047995354, -1.258916403812188944, 41.94118868022663804 ) ) ;
#680 = UNCERTAINTY_MEASURE_WITH_UNIT (LENGTH_MEASURE( 1.000000000000000082E-05 ), #674, 'distance_accuracy_value', 'NONE');
#681 = LINE ( 'NONE', #633, #274 ) ;
#682 = EDGE_LOOP ( 'NONE', ( #660, #355, #489 ) ) ;
#683 = ADVANCED_FACE ( 'NONE', ( #225 ), #119, .T. ) ;
#684 = DIRECTION ( 'NONE',  ( -1.000000000000000000, 0.000000000000000000, 7.296418405790983765E-16 ) ) ;
#685 = CIRCLE ( 'NONE', #444, 6.128203230275402369 ) ;
#686 = CIRCLE ( 'NONE', #50, 1.510000000000000009 ) ;
#687 = ORIENTED_EDGE ( 'NONE', *, *, #492, .T. ) ;
#688 = CARTESIAN_POINT ( 'NONE',  ( 2.577072147289219295, 1.692657420077733121, 41.94118868022663804 ) ) ;
#689 = EDGE_CURVE ( 'NONE', #17, #532, #393, .T. ) ;
#690 = DIRECTION ( 'NONE',  ( -4.073818314343295195E-16, -3.121553629568790236E-16, -1.000000000000000000 ) ) ;
#691 =( BOUNDED_CURVE ( )  B_SPLINE_CURVE ( 2, ( #547, #266, #429 ),
 .UNSPECIFIED., .F., .F. ) 
 B_SPLINE_CURVE_WITH_KNOTS ( ( 3, 3 ),
 ( 0.000000000000000000, 1.000000000000000000 ),
 .UNSPECIFIED. ) 
 CURVE ( )  GEOMETRIC_REPRESENTATION_ITEM ( )  RATIONAL_B_SPLINE_CURVE ( ( 1.000000000000000000, 1.047670492559700017, 1.065961955353999846 ) ) 
 REPRESENTATION_ITEM ( '' )  );
#692 = CARTESIAN_POINT ( 'NONE',  ( -8.319989801551360031, -3.777404366182385065, 42.10000000000000142 ) ) ;
#693 = CARTESIAN_POINT ( 'NONE',  ( 1.818035287457249849, -4.008738627404804689, 35.60000000000000142 ) ) ;
#694 = VECTOR ( 'NONE', #301, 1000.000000000000000 ) ;
#695 = ORIENTED_EDGE ( 'NONE', *, *, #175, .F. ) ;
#696 = LINE ( 'NONE', #433, #554 ) ;
#697 = DIRECTION ( 'NONE',  ( 7.041831235768750728E-16, 0.000000000000000000, 1.000000000000000000 ) ) ;
#698 = STYLED_ITEM ( 'NONE', ( #81 ), #148 ) ;
#699 = EDGE_CURVE ( 'NONE', #84, #405, #364, .T. ) ;
#700 = EDGE_LOOP ( 'NONE', ( #41, #648 ) ) ;
#701 = VECTOR ( 'NONE', #612, 1000.000000000000227 ) ;
#702 = CARTESIAN_POINT ( 'NONE',  ( 5.837659395620569569, 0.2168705081328188289, 32.59999999999998721 ) ) ;
#703 = CARTESIAN_POINT ( 'NONE',  ( -2.758043692458484575, 7.084480074557820473, 41.50000000000000000 ) ) ;
#704 = ORIENTED_EDGE ( 'NONE', *, *, #357, .F. ) ;
#705 = CARTESIAN_POINT ( 'NONE',  ( -3.672340604379409790, 0.2168705081328125006, 45.69615242270700861 ) ) ;
#706 = DIRECTION ( 'NONE',  ( -0.9912540579661781592, 0.1319673920541915846, 6.980243787968761375E-16 ) ) ;
#707 = CARTESIAN_POINT ( 'NONE',  ( -2.537021692110544624, -5.805249201654070212, 42.10000000000000142 ) ) ;
#708 = DIRECTION ( 'NONE',  ( 0.000000000000000000, 0.000000000000000000, 1.000000000000000000 ) ) ;
#709 = ORIENTED_EDGE ( 'NONE', *, *, #689, .T. ) ;
#710 = DIRECTION ( 'NONE',  ( 0.4359059945762270849, 0.8999922021287242169, 0.000000000000000000 ) ) ;
#711 = VECTOR ( 'NONE', #152, 1000.000000000000000 ) ;
#712 = DIRECTION ( 'NONE',  ( 0.000000000000000000, 0.000000000000000000, 1.000000000000000000 ) ) ;
ENDSEC;
END-ISO-10303-21;
