ISO-10303-21;
HEADER;
FILE_DESCRIPTION(
  ('This file contains a STEP AP42 implementation'
    ,'as created by ZW3D STEP Interface translator.')
  ,'2;1'
  );
FILE_NAME(
  'ÖáÖ±¾¶5mm-Áù½ÇÁªÖáÆ÷.stp'
  ,'24 514.14 957',
  (''),
  ('ZWCAD Software Co.'),
  'Version 1.0',
  'ZW3D to STEP translator',
  ''
  );
FILE_SCHEMA(('AUTOMOTIVE_DESIGN { 1 0 10303 214 1 1 1 1 }'));
ENDSEC;

DATA;

/**File Base Unit**/
#1 = (LENGTH_UNIT()NAMED_UNIT(*)SI_UNIT(.MILLI.,.METRE.));
#2 = (NAMED_UNIT(*)PLANE_ANGLE_UNIT()SI_UNIT($,.RADIAN.));
#3 = (NAMED_UNIT(*)SI_UNIT($,.STERADIAN.)SOLID_ANGLE_UNIT());
#4 = UNCERTAINTY_MEASURE_WITH_UNIT(LENGTH_MEASURE(0.01),#1,'DISTANCE_ACCURACY_VALUE','Maximum Tolerance applied to model');
#5 = (GEOMETRIC_REPRESENTATION_CONTEXT(3)GLOBAL_UNCERTAINTY_ASSIGNED_CONTEXT((#4))GLOBAL_UNIT_ASSIGNED_CONTEXT((#1,#2,#3))REPRESENTATION_CONTEXT('STEP 203','TOP_LEVEL_ASSEMBLY_PART'));

/**product_definition_shape**/
#6=APPLICATION_CONTEXT('mechanical parts and assemblies' );
#7=DESIGN_CONTEXT('NONE',#6,'design');
#8=MECHANICAL_CONTEXT('NONE',#6,'mechanical');
#9=PRODUCT('0','Part','',(#8));
#10=PRODUCT_DEFINITION_FORMATION_WITH_SPECIFIED_SOURCE('ANY','',#9,.NOT_KNOWN.);
#11=PRODUCT_DEFINITION('UNKNOWN','',#10,#7);
#12=PRODUCT_DEFINITION_SHAPE('NONE','NONE',#11);
#13=PRODUCT_RELATED_PRODUCT_CATEGORY('detail','',(#9));
/**geometry information**/
#14=CARTESIAN_POINT('',(0.,0.,0.));
#15=DIRECTION('',(0.,0.,1.));
#16=DIRECTION('',(1.,0.,0.));
#17=AXIS2_PLACEMENT_3D('',#14,#15,#16);
#18=APPLICATION_CONTEXT('part');
#19=MECHANICAL_CONTEXT('none',#18,'component');
#20=PRODUCT('ÖáÖ±¾¶5mm-Áù½ÇÁªÖáÆ÷','ÖáÖ±¾¶5mm-Áù½ÇÁªÖáÆ÷','',(#19));
#21=PRODUCT_RELATED_PRODUCT_CATEGORY('detail','',(#20));
#22=PRODUCT_DEFINITION_FORMATION_WITH_SPECIFIED_SOURCE('ANY','UNSPECIFIED',#20,.NOT_KNOWN.);
#23=APPLICATION_CONTEXT('part');
#24=APPLICATION_PROTOCOL_DEFINITION('international standard','config_control_design',1994,#23);
#25=DESIGN_CONTEXT('detailed',#23,'design');
#26=PRODUCT_DEFINITION('','UNSPECIFIED',#22,#25);
#27=PRODUCT_DEFINITION_SHAPE('NONE','NONE',#26);
#28=SHAPE_REPRESENTATION('ÖáÖ±¾¶5mm-Áù½ÇÁªÖáÆ÷',(#17),#5);
#29=SHAPE_DEFINITION_REPRESENTATION(#27,#28);
#30=CARTESIAN_POINT('',(0.,0.,0.9282032302755));
#31=DIRECTION('',(0.,1.,0.));
#32=DIRECTION('',(-1.,0.,0.));
#33=AXIS2_PLACEMENT_3D('',#30,#32,#31);
#34=PLANE('',#33);
#35=CARTESIAN_POINT('',(7.1550877749646E-17,5.2941945361998,2.8301860781338));
#36=VERTEX_POINT('',#35);
#37=CARTESIAN_POINT('',(7.1550874146735E-17,5.2941945351146,-2.8301860801638));
#38=VERTEX_POINT('',#37);
#39=CARTESIAN_POINT('',(1.4310175549929E-16,-8.8817841970013E-16,1.4080536199009E-15));
#40=DIRECTION('',(-4.1064582261403E-33,0.88189493727282,0.47144598801196));
#41=DIRECTION('',(-1.,-2.1730959961489E-33,4.1662495719556E-43));
#42=AXIS2_PLACEMENT_3D('',#39,#41,#40);
#43=CIRCLE('',#42,6.0032032302755);
#44=EDGE_CURVE('',#36,#38,#43,.T.);
#45=ORIENTED_EDGE('',*,*,#44,.T.);
#46=CARTESIAN_POINT('',(7.1550877749646E-17,5.0981103092157,-3.169813921835));
#47=VERTEX_POINT('',#46);
#48=CARTESIAN_POINT('',(7.1550874146735E-17,5.2941945351146,-2.8301860801638));
#49=DIRECTION('',(9.1871515639067E-24,-0.50000000016397,-0.86602540368977));
#50=VECTOR('',#49,0.39216845166919);
#51=LINE('',#48,#50);
#52=EDGE_CURVE('',#38,#47,#51,.T.);
#53=ORIENTED_EDGE('',*,*,#52,.T.);
#54=CARTESIAN_POINT('',(7.1550874805803E-17,0.19608422704055,-5.9999999999914));
#55=VERTEX_POINT('',#54);
#56=CARTESIAN_POINT('',(1.4310175549929E-16,3.9968028886506E-15,-6.2172489379009E-15));
#57=DIRECTION('',(4.1064582261402E-33,0.84923167076949,-0.52802042513718));
#58=DIRECTION('',(-1.,2.1730959978435E-33,-3.7639126779391E-33));
#59=AXIS2_PLACEMENT_3D('',#56,#58,#57);
#60=CIRCLE('',#59,6.0032032302756);
#61=EDGE_CURVE('',#47,#55,#60,.T.);
#62=ORIENTED_EDGE('',*,*,#61,.T.);
#63=CARTESIAN_POINT('',(7.1550874039776E-17,-0.19608422704969,-5.9999999999911));
#64=VERTEX_POINT('',#63);
#65=CARTESIAN_POINT('',(7.1550874805803E-17,0.19608422704055,-5.9999999999914));
#66=DIRECTION('',(-1.9533110976398E-24,-1.,7.6549835339271E-13));
#67=VECTOR('',#66,0.39216845409024);
#68=LINE('',#65,#67);
#69=EDGE_CURVE('',#55,#64,#68,.T.);
#70=ORIENTED_EDGE('',*,*,#69,.T.);
#71=CARTESIAN_POINT('',(7.1550700183991E-17,-5.0981103092511,-3.1698139217781));
#72=VERTEX_POINT('',#71);
#73=CARTESIAN_POINT('',(1.4310175549929E-16,-1.3322676295502E-15,0.));
#74=DIRECTION('',(8.2129164522805E-33,-0.032663266514249,-0.99946641315285));
#75=DIRECTION('',(-1.,-4.3461919956512E-33,-7.5278253557057E-33));
#76=AXIS2_PLACEMENT_3D('',#73,#75,#74);
#77=CIRCLE('',#76,6.0032032302755);
#78=EDGE_CURVE('',#64,#72,#77,.T.);
#79=ORIENTED_EDGE('',*,*,#78,.T.);
#80=CARTESIAN_POINT('',(7.1550880996664E-17,-5.2941945362002,-2.8301860781331));
#81=VERTEX_POINT('',#80);
#82=CARTESIAN_POINT('',(7.1550700183991E-17,-5.0981103092511,-3.1698139217781));
#83=DIRECTION('',(4.6105868842045E-22,-0.49999999999305,0.86602540378845));
#84=VECTOR('',#83,0.39216845390365);
#85=LINE('',#82,#84);
#86=EDGE_CURVE('',#72,#81,#85,.T.);
#87=ORIENTED_EDGE('',*,*,#86,.T.);
#88=CARTESIAN_POINT('',(7.1550892408457E-17,-5.2941945364326,2.8301860776984));
#89=VERTEX_POINT('',#88);
#90=CARTESIAN_POINT('',(1.4310175549929E-16,1.7763568394003E-15,6.2745901491028E-16));
#91=DIRECTION('',(0.,-0.88189493727288,-0.47144598801184));
#92=DIRECTION('',(-1.,0.,0.));
#93=AXIS2_PLACEMENT_3D('',#90,#92,#91);
#94=CIRCLE('',#93,6.0032032302755);
#95=EDGE_CURVE('',#81,#89,#94,.T.);
#96=ORIENTED_EDGE('',*,*,#95,.T.);
#97=CARTESIAN_POINT('',(7.1550877749646E-17,-5.098110309216,3.1698139218345));
#98=VERTEX_POINT('',#97);
#99=CARTESIAN_POINT('',(7.1550892408457E-17,-5.2941945364326,2.8301860776984));
#100=DIRECTION('',(-3.7378863172105E-23,0.49999999996238,0.86602540380616));
#101=VECTOR('',#100,0.3921684544627);
#102=LINE('',#99,#101);
#103=EDGE_CURVE('',#89,#98,#102,.T.);
#104=ORIENTED_EDGE('',*,*,#103,.T.);
#105=CARTESIAN_POINT('',(7.1550877749646E-17,-0.19608422704045,5.9999999999914));
#106=VERTEX_POINT('',#105);
#107=CARTESIAN_POINT('',(1.4310175549929E-16,-1.3322676295502E-15,4.4408920985006E-15));
#108=DIRECTION('',(0.,-0.84923167076955,0.5280204251371));
#109=DIRECTION('',(-1.,0.,0.));
#110=AXIS2_PLACEMENT_3D('',#107,#109,#108);
#111=CIRCLE('',#110,6.0032032302756);
#112=EDGE_CURVE('',#98,#106,#111,.T.);
#113=ORIENTED_EDGE('',*,*,#112,.T.);
#114=CARTESIAN_POINT('',(7.1550880563308E-17,0.19608422704043,5.9999999999914));
#115=VERTEX_POINT('',#114);
#116=CARTESIAN_POINT('',(7.1550877749646E-17,-0.19608422704045,5.9999999999914));
#117=DIRECTION('',(7.1746260116749E-24,1.,0.));
#118=VECTOR('',#117,0.39216845408088);
#119=LINE('',#116,#118);
#120=EDGE_CURVE('',#106,#115,#119,.T.);
#121=ORIENTED_EDGE('',*,*,#120,.T.);
#122=CARTESIAN_POINT('',(7.1550912633465E-17,5.0981103091654,3.1698139219159));
#123=VERTEX_POINT('',#122);
#124=CARTESIAN_POINT('',(1.4310175549929E-16,-1.3322676295502E-15,0.));
#125=DIRECTION('',(4.1064582261403E-33,0.032663266512707,0.9994664131529));
#126=DIRECTION('',(-1.,1.0865479989412E-33,1.8819563390377E-33));
#127=AXIS2_PLACEMENT_3D('',#124,#126,#125);
#128=CIRCLE('',#127,6.0032032302755);
#129=EDGE_CURVE('',#115,#123,#128,.T.);
#130=ORIENTED_EDGE('',*,*,#129,.T.);
#131=CARTESIAN_POINT('',(7.1550912633465E-17,5.0981103091654,3.1698139219159));
#132=DIRECTION('',(-8.8951109245343E-23,0.50000000000481,-0.86602540378166));
#133=VECTOR('',#132,0.39216845406503);
#134=LINE('',#131,#133);
#135=EDGE_CURVE('',#123,#36,#134,.T.);
#136=ORIENTED_EDGE('',*,*,#135,.T.);
#137=EDGE_LOOP('',(#45,#53,#62,#70,#79,#87,#96,#104,#113,#121,#130,#136));
#138=FACE_OUTER_BOUND('',#137,.T.);
#139=CARTESIAN_POINT('',(1.9984014443253E-15,1.0088562317499E-15,-1.65));
#140=VERTEX_POINT('',#139);
#141=CARTESIAN_POINT('',(9.6437208230329E-16,1.1658654776183E-15,-1.1102230246252E-15));
#142=DIRECTION('',(4.9211197399816E-16,-9.5157118708108E-17,-1.));
#143=DIRECTION('',(1.,-3.1532295300196E-16,4.9211197399816E-16));
#144=AXIS2_PLACEMENT_3D('',#141,#143,#142);
#145=CIRCLE('',#144,1.65);
#146=EDGE_CURVE('',#140,#140,#145,.T.);
#147=ORIENTED_EDGE('',*,*,#146,.T.);
#148=EDGE_LOOP('',(#147));
#149=FACE_BOUND('',#148,.T.);
#150=ADVANCED_FACE('',(#138,#149),#34,.T.);
#151=CARTESIAN_POINT('',(3.,5.1961524227066,3.));
#152=DIRECTION('',(0.,-0.5,0.86602540378444));
#153=DIRECTION('',(-0.,0.86602540378444,0.5));
#154=AXIS2_PLACEMENT_3D('',#151,#153,#152);
#155=PLANE('',#154);
#156=CARTESIAN_POINT('',(6.,5.0981103092158,3.1698139218348));
#157=VERTEX_POINT('',#156);
#158=CARTESIAN_POINT('',(6.,5.2941945351145,2.830186080164));
#159=VERTEX_POINT('',#158);
#160=CARTESIAN_POINT('',(6.,5.0981103092158,3.1698139218348));
#161=DIRECTION('',(0.,0.50000000016404,-0.86602540368973));
#162=VECTOR('',#161,0.39216845166874);
#163=LINE('',#160,#162);
#164=EDGE_CURVE('',#157,#159,#163,.T.);
#165=ORIENTED_EDGE('',*,*,#164,.T.);
#166=CARTESIAN_POINT('',(5.,6.9282032302755,4.9712179609854E-15));
#167=VERTEX_POINT('',#166);
#168=CARTESIAN_POINT('',(6.,5.2941945360945,2.8301860783307));
#169=CARTESIAN_POINT('',(5.9464277948594,6.0527575200306,1.5163164494124));
#170=CARTESIAN_POINT('',(5.,6.9282032302755,1.0658141036402E-14));
#171=(BOUNDED_CURVE()B_SPLINE_CURVE(2,(#168,#169,#170),.HYPERBOLIC_ARC.,.F.,.U.)B_SPLINE_CURVE_WITH_KNOTS((3,3),(0.,1.),.UNSPECIFIED.)CURVE()GEOMETRIC_REPRESENTATION_ITEM()RATIONAL_B_SPLINE_CURVE((1.0770627625188,1.0726344746246,1.))REPRESENTATION_ITEM(''));
#172=EDGE_CURVE('',#159,#167,#171,.T.);
#173=ORIENTED_EDGE('',*,*,#172,.T.);
#174=CARTESIAN_POINT('',(1.,6.9282032302755,5.5157123914571E-15));
#175=VERTEX_POINT('',#174);
#176=CARTESIAN_POINT('',(5.,6.9282032302755,4.9712179609854E-15));
#177=DIRECTION('',(-1.,0.,1.3612360761792E-16));
#178=VECTOR('',#177,4.);
#179=LINE('',#176,#178);
#180=EDGE_CURVE('',#167,#175,#179,.T.);
#181=ORIENTED_EDGE('',*,*,#180,.T.);
#182=CARTESIAN_POINT('',(1.,6.9282032302755,7.105427357601E-15));
#183=CARTESIAN_POINT('',(0.053572205140716,6.0527575200307,1.5163164494123));
#184=CARTESIAN_POINT('',(0.,5.2941945360947,2.8301860783304));
#185=(BOUNDED_CURVE()B_SPLINE_CURVE(2,(#182,#183,#184),.HYPERBOLIC_ARC.,.F.,.U.)B_SPLINE_CURVE_WITH_KNOTS((3,3),(0.,1.),.UNSPECIFIED.)CURVE()GEOMETRIC_REPRESENTATION_ITEM()RATIONAL_B_SPLINE_CURVE((1.,1.0726344746246,1.0770627625188))REPRESENTATION_ITEM(''));
#186=EDGE_CURVE('',#175,#36,#185,.T.);
#187=ORIENTED_EDGE('',*,*,#186,.T.);
#188=ORIENTED_EDGE('',*,*,#135,.F.);
#189=CARTESIAN_POINT('',(1.,3.4641016151377,6.));
#190=VERTEX_POINT('',#189);
#191=CARTESIAN_POINT('',(0.,5.0981103093185,3.1698139216696));
#192=CARTESIAN_POINT('',(0.053572205140716,4.3395473253826,4.4836835505877));
#193=CARTESIAN_POINT('',(1.,3.4641016151377,6.));
#194=(BOUNDED_CURVE()B_SPLINE_CURVE(2,(#191,#192,#193),.HYPERBOLIC_ARC.,.F.,.U.)B_SPLINE_CURVE_WITH_KNOTS((3,3),(0.,1.),.UNSPECIFIED.)CURVE()GEOMETRIC_REPRESENTATION_ITEM()RATIONAL_B_SPLINE_CURVE((1.0770627625188,1.0726344746246,1.))REPRESENTATION_ITEM(''));
#195=EDGE_CURVE('',#123,#190,#194,.T.);
#196=ORIENTED_EDGE('',*,*,#195,.T.);
#197=CARTESIAN_POINT('',(5.,3.4641016151377,6.));
#198=VERTEX_POINT('',#197);
#199=CARTESIAN_POINT('',(1.,3.4641016151377,6.));
#200=DIRECTION('',(1.,0.,0.));
#201=VECTOR('',#200,4.);
#202=LINE('',#199,#201);
#203=EDGE_CURVE('',#190,#198,#202,.T.);
#204=ORIENTED_EDGE('',*,*,#203,.T.);
#205=CARTESIAN_POINT('',(5.,3.4641016151377,6.));
#206=CARTESIAN_POINT('',(5.9464277948594,4.3395473253827,4.4836835505876));
#207=CARTESIAN_POINT('',(6.,5.0981103093187,3.1698139216693));
#208=(BOUNDED_CURVE()B_SPLINE_CURVE(2,(#205,#206,#207),.HYPERBOLIC_ARC.,.F.,.U.)B_SPLINE_CURVE_WITH_KNOTS((3,3),(0.,1.),.UNSPECIFIED.)CURVE()GEOMETRIC_REPRESENTATION_ITEM()RATIONAL_B_SPLINE_CURVE((1.,1.0726344746246,1.0770627625188))REPRESENTATION_ITEM(''));
#209=EDGE_CURVE('',#198,#157,#208,.T.);
#210=ORIENTED_EDGE('',*,*,#209,.T.);
#211=EDGE_LOOP('',(#165,#173,#181,#187,#188,#196,#204,#210));
#212=FACE_OUTER_BOUND('',#211,.T.);
#213=ADVANCED_FACE('',(#212),#155,.T.);
#214=CARTESIAN_POINT('',(3.,-1.2434497875802E-14,6.));
#215=DIRECTION('',(0.,-1.,-1.5383701491068E-15));
#216=DIRECTION('',(0.,-1.5383701491068E-15,1.));
#217=AXIS2_PLACEMENT_3D('',#214,#216,#215);
#218=PLANE('',#217);
#219=CARTESIAN_POINT('',(6.,-0.19608422704937,5.9999999999911));
#220=VERTEX_POINT('',#219);
#221=CARTESIAN_POINT('',(6.,0.19608422704019,5.9999999999914));
#222=VERTEX_POINT('',#221);
#223=CARTESIAN_POINT('',(6.,-0.19608422704937,5.9999999999911));
#224=DIRECTION('',(0.,1.,7.6549835339403E-13));
#225=VECTOR('',#224,0.39216845408956);
#226=LINE('',#223,#225);
#227=EDGE_CURVE('',#220,#222,#226,.T.);
#228=ORIENTED_EDGE('',*,*,#227,.T.);
#229=CARTESIAN_POINT('',(6.,0.19608422677574,6.));
#230=CARTESIAN_POINT('',(5.9464277948594,1.7132101946479,6.));
#231=CARTESIAN_POINT('',(5.,3.4641016151377,6.));
#232=(BOUNDED_CURVE()B_SPLINE_CURVE(2,(#229,#230,#231),.HYPERBOLIC_ARC.,.F.,.U.)B_SPLINE_CURVE_WITH_KNOTS((3,3),(0.,1.),.UNSPECIFIED.)CURVE()GEOMETRIC_REPRESENTATION_ITEM()RATIONAL_B_SPLINE_CURVE((1.0770627625188,1.0726344746246,1.))REPRESENTATION_ITEM(''));
#233=EDGE_CURVE('',#222,#198,#232,.T.);
#234=ORIENTED_EDGE('',*,*,#233,.T.);
#235=ORIENTED_EDGE('',*,*,#203,.F.);
#236=CARTESIAN_POINT('',(1.,3.4641016151377,6.));
#237=CARTESIAN_POINT('',(0.053572205140693,1.713210194648,6.));
#238=CARTESIAN_POINT('',(-8.2463014283682E-16,0.19608422677606,6.));
#239=(BOUNDED_CURVE()B_SPLINE_CURVE(2,(#236,#237,#238),.HYPERBOLIC_ARC.,.F.,.U.)B_SPLINE_CURVE_WITH_KNOTS((3,3),(0.,1.),.UNSPECIFIED.)CURVE()GEOMETRIC_REPRESENTATION_ITEM()RATIONAL_B_SPLINE_CURVE((1.,1.0726344746246,1.0770627625188))REPRESENTATION_ITEM(''));
#240=EDGE_CURVE('',#190,#115,#239,.T.);
#241=ORIENTED_EDGE('',*,*,#240,.T.);
#242=ORIENTED_EDGE('',*,*,#120,.F.);
#243=CARTESIAN_POINT('',(1.,-3.4641016151378,6.));
#244=VERTEX_POINT('',#243);
#245=CARTESIAN_POINT('',(-8.2463014283682E-16,-0.19608422677608,6.));
#246=CARTESIAN_POINT('',(0.053572205140693,-1.7132101946481,6.));
#247=CARTESIAN_POINT('',(1.,-3.4641016151378,6.));
#248=(BOUNDED_CURVE()B_SPLINE_CURVE(2,(#245,#246,#247),.HYPERBOLIC_ARC.,.F.,.U.)B_SPLINE_CURVE_WITH_KNOTS((3,3),(0.,1.),.UNSPECIFIED.)CURVE()GEOMETRIC_REPRESENTATION_ITEM()RATIONAL_B_SPLINE_CURVE((1.0770627625188,1.0726344746246,1.))REPRESENTATION_ITEM(''));
#249=EDGE_CURVE('',#106,#244,#248,.T.);
#250=ORIENTED_EDGE('',*,*,#249,.T.);
#251=CARTESIAN_POINT('',(5.,-3.4641016151378,6.));
#252=VERTEX_POINT('',#251);
#253=CARTESIAN_POINT('',(1.,-3.4641016151378,6.));
#254=DIRECTION('',(1.,0.,0.));
#255=VECTOR('',#254,4.);
#256=LINE('',#253,#255);
#257=EDGE_CURVE('',#244,#252,#256,.T.);
#258=ORIENTED_EDGE('',*,*,#257,.T.);
#259=CARTESIAN_POINT('',(5.,-3.4641016151378,6.));
#260=CARTESIAN_POINT('',(5.9464277948594,-1.7132101946479,6.));
#261=CARTESIAN_POINT('',(6.,-0.19608422677576,6.));
#262=(BOUNDED_CURVE()B_SPLINE_CURVE(2,(#259,#260,#261),.HYPERBOLIC_ARC.,.F.,.U.)B_SPLINE_CURVE_WITH_KNOTS((3,3),(0.,1.),.UNSPECIFIED.)CURVE()GEOMETRIC_REPRESENTATION_ITEM()RATIONAL_B_SPLINE_CURVE((1.,1.0726344746246,1.0770627625188))REPRESENTATION_ITEM(''));
#263=EDGE_CURVE('',#252,#220,#262,.T.);
#264=ORIENTED_EDGE('',*,*,#263,.T.);
#265=EDGE_LOOP('',(#228,#234,#235,#241,#242,#250,#258,#264));
#266=FACE_OUTER_BOUND('',#265,.T.);
#267=ADVANCED_FACE('',(#266),#218,.T.);
#268=CARTESIAN_POINT('',(3.,-5.1961524227066,3.));
#269=DIRECTION('',(0.,-0.5,-0.86602540378444));
#270=DIRECTION('',(0.,-0.86602540378444,0.5));
#271=AXIS2_PLACEMENT_3D('',#268,#270,#269);
#272=PLANE('',#271);
#273=CARTESIAN_POINT('',(6.,-5.2941945361997,2.8301860781341));
#274=VERTEX_POINT('',#273);
#275=CARTESIAN_POINT('',(6.,-5.0981103092866,3.1698139217209));
#276=VERTEX_POINT('',#275);
#277=CARTESIAN_POINT('',(6.,-5.2941945361997,2.8301860781341));
#278=DIRECTION('',(0.,0.49999999998847,0.8660254037911));
#279=VECTOR('',#278,0.39216845383525);
#280=LINE('',#277,#279);
#281=EDGE_CURVE('',#274,#276,#280,.T.);
#282=ORIENTED_EDGE('',*,*,#281,.T.);
#283=CARTESIAN_POINT('',(6.,-5.0981103093188,3.1698139216692));
#284=CARTESIAN_POINT('',(5.9464277948594,-4.3395473253827,4.4836835505875));
#285=CARTESIAN_POINT('',(5.,-3.4641016151378,6.));
#286=(BOUNDED_CURVE()B_SPLINE_CURVE(2,(#283,#284,#285),.HYPERBOLIC_ARC.,.F.,.U.)B_SPLINE_CURVE_WITH_KNOTS((3,3),(0.,1.),.UNSPECIFIED.)CURVE()GEOMETRIC_REPRESENTATION_ITEM()RATIONAL_B_SPLINE_CURVE((1.0770627625188,1.0726344746246,1.))REPRESENTATION_ITEM(''));
#287=EDGE_CURVE('',#276,#252,#286,.T.);
#288=ORIENTED_EDGE('',*,*,#287,.T.);
#289=ORIENTED_EDGE('',*,*,#257,.F.);
#290=CARTESIAN_POINT('',(1.,-3.4641016151378,6.));
#291=CARTESIAN_POINT('',(0.053572205140672,-4.3395473253826,4.4836835505876));
#292=CARTESIAN_POINT('',(0.,-5.0981103093186,3.1698139216694));
#293=(BOUNDED_CURVE()B_SPLINE_CURVE(2,(#290,#291,#292),.HYPERBOLIC_ARC.,.F.,.U.)B_SPLINE_CURVE_WITH_KNOTS((3,3),(0.,1.),.UNSPECIFIED.)CURVE()GEOMETRIC_REPRESENTATION_ITEM()RATIONAL_B_SPLINE_CURVE((1.,1.0726344746246,1.0770627625188))REPRESENTATION_ITEM(''));
#294=EDGE_CURVE('',#244,#98,#293,.T.);
#295=ORIENTED_EDGE('',*,*,#294,.T.);
#296=ORIENTED_EDGE('',*,*,#103,.F.);
#297=CARTESIAN_POINT('',(1.,-6.9282032302755,-1.086712744501E-14));
#298=VERTEX_POINT('',#297);
#299=CARTESIAN_POINT('',(0.,-5.2941945360946,2.8301860783306));
#300=CARTESIAN_POINT('',(0.053572205140672,-6.0527575200306,1.5163164494123));
#301=CARTESIAN_POINT('',(1.,-6.9282032302755,-6.6613381477509E-15));
#302=(BOUNDED_CURVE()B_SPLINE_CURVE(2,(#299,#300,#301),.HYPERBOLIC_ARC.,.F.,.U.)B_SPLINE_CURVE_WITH_KNOTS((3,3),(0.,1.),.UNSPECIFIED.)CURVE()GEOMETRIC_REPRESENTATION_ITEM()RATIONAL_B_SPLINE_CURVE((1.0770627625188,1.0726344746246,1.))REPRESENTATION_ITEM(''));
#303=EDGE_CURVE('',#89,#298,#302,.T.);
#304=ORIENTED_EDGE('',*,*,#303,.T.);
#305=CARTESIAN_POINT('',(5.,-6.9282032302755,-1.1854019874919E-14));
#306=VERTEX_POINT('',#305);
#307=CARTESIAN_POINT('',(1.,-6.9282032302755,-1.086712744501E-14));
#308=DIRECTION('',(1.,0.,-2.4672310747725E-16));
#309=VECTOR('',#308,4.);
#310=LINE('',#307,#309);
#311=EDGE_CURVE('',#298,#306,#310,.T.);
#312=ORIENTED_EDGE('',*,*,#311,.T.);
#313=CARTESIAN_POINT('',(5.,-6.9282032302755,-7.5495165674511E-15));
#314=CARTESIAN_POINT('',(5.9464277948594,-6.0527575200306,1.5163164494125));
#315=CARTESIAN_POINT('',(6.,-5.2941945360945,2.8301860783308));
#316=(BOUNDED_CURVE()B_SPLINE_CURVE(2,(#313,#314,#315),.HYPERBOLIC_ARC.,.F.,.U.)B_SPLINE_CURVE_WITH_KNOTS((3,3),(0.,1.),.UNSPECIFIED.)CURVE()GEOMETRIC_REPRESENTATION_ITEM()RATIONAL_B_SPLINE_CURVE((1.,1.0726344746246,1.0770627625188))REPRESENTATION_ITEM(''));
#317=EDGE_CURVE('',#306,#274,#316,.T.);
#318=ORIENTED_EDGE('',*,*,#317,.T.);
#319=EDGE_LOOP('',(#282,#288,#289,#295,#296,#304,#312,#318));
#320=FACE_OUTER_BOUND('',#319,.T.);
#321=ADVANCED_FACE('',(#320),#272,.T.);
#322=CARTESIAN_POINT('',(3.,-5.1961524227066,-3.));
#323=DIRECTION('',(0.,0.5,-0.86602540378444));
#324=DIRECTION('',(0.,-0.86602540378444,-0.5));
#325=AXIS2_PLACEMENT_3D('',#322,#324,#323);
#326=PLANE('',#325);
#327=CARTESIAN_POINT('',(6.,-5.0981103092167,-3.1698139218334));
#328=VERTEX_POINT('',#327);
#329=CARTESIAN_POINT('',(6.,-5.2941945361997,-2.830186078134));
#330=VERTEX_POINT('',#329);
#331=CARTESIAN_POINT('',(6.,-5.0981103092167,-3.1698139218334));
#332=DIRECTION('',(0.,-0.49999999999782,0.8660254037857));
#333=VECTOR('',#332,0.39216845396771);
#334=LINE('',#331,#333);
#335=EDGE_CURVE('',#328,#330,#334,.T.);
#336=ORIENTED_EDGE('',*,*,#335,.T.);
#337=CARTESIAN_POINT('',(6.,-5.2941945360945,-2.8301860783308));
#338=CARTESIAN_POINT('',(5.9464277948594,-6.0527575200306,-1.5163164494125));
#339=CARTESIAN_POINT('',(5.,-6.9282032302755,-1.1546319456102E-14));
#340=(BOUNDED_CURVE()B_SPLINE_CURVE(2,(#337,#338,#339),.HYPERBOLIC_ARC.,.F.,.U.)B_SPLINE_CURVE_WITH_KNOTS((3,3),(0.,1.),.UNSPECIFIED.)CURVE()GEOMETRIC_REPRESENTATION_ITEM()RATIONAL_B_SPLINE_CURVE((1.0770627625188,1.0726344746246,1.))REPRESENTATION_ITEM(''));
#341=EDGE_CURVE('',#330,#306,#340,.T.);
#342=ORIENTED_EDGE('',*,*,#341,.T.);
#343=ORIENTED_EDGE('',*,*,#311,.F.);
#344=CARTESIAN_POINT('',(1.,-6.9282032302755,-1.2434497875802E-14));
#345=CARTESIAN_POINT('',(0.053572205140704,-6.0527575200307,-1.5163164494123));
#346=CARTESIAN_POINT('',(0.,-5.2941945360947,-2.8301860783305));
#347=(BOUNDED_CURVE()B_SPLINE_CURVE(2,(#344,#345,#346),.HYPERBOLIC_ARC.,.F.,.U.)B_SPLINE_CURVE_WITH_KNOTS((3,3),(0.,1.),.UNSPECIFIED.)CURVE()GEOMETRIC_REPRESENTATION_ITEM()RATIONAL_B_SPLINE_CURVE((1.,1.0726344746246,1.0770627625188))REPRESENTATION_ITEM(''));
#348=EDGE_CURVE('',#298,#81,#347,.T.);
#349=ORIENTED_EDGE('',*,*,#348,.T.);
#350=ORIENTED_EDGE('',*,*,#86,.F.);
#351=CARTESIAN_POINT('',(1.,-3.4641016151377,-6.));
#352=VERTEX_POINT('',#351);
#353=CARTESIAN_POINT('',(0.,-5.0981103093186,-3.1698139216695));
#354=CARTESIAN_POINT('',(0.053572205140704,-4.3395473253826,-4.4836835505877));
#355=CARTESIAN_POINT('',(1.,-3.4641016151377,-6.));
#356=(BOUNDED_CURVE()B_SPLINE_CURVE(2,(#353,#354,#355),.HYPERBOLIC_ARC.,.F.,.U.)B_SPLINE_CURVE_WITH_KNOTS((3,3),(0.,1.),.UNSPECIFIED.)CURVE()GEOMETRIC_REPRESENTATION_ITEM()RATIONAL_B_SPLINE_CURVE((1.0770627625188,1.0726344746246,1.))REPRESENTATION_ITEM(''));
#357=EDGE_CURVE('',#72,#352,#356,.T.);
#358=ORIENTED_EDGE('',*,*,#357,.T.);
#359=CARTESIAN_POINT('',(5.,-3.4641016151377,-6.));
#360=VERTEX_POINT('',#359);
#361=CARTESIAN_POINT('',(1.,-3.4641016151377,-6.));
#362=DIRECTION('',(1.,0.,0.));
#363=VECTOR('',#362,4.);
#364=LINE('',#361,#363);
#365=EDGE_CURVE('',#352,#360,#364,.T.);
#366=ORIENTED_EDGE('',*,*,#365,.T.);
#367=CARTESIAN_POINT('',(5.,-3.4641016151377,-6.));
#368=CARTESIAN_POINT('',(5.9464277948594,-4.3395473253827,-4.4836835505875));
#369=CARTESIAN_POINT('',(6.,-5.0981103093188,-3.1698139216692));
#370=(BOUNDED_CURVE()B_SPLINE_CURVE(2,(#367,#368,#369),.HYPERBOLIC_ARC.,.F.,.U.)B_SPLINE_CURVE_WITH_KNOTS((3,3),(0.,1.),.UNSPECIFIED.)CURVE()GEOMETRIC_REPRESENTATION_ITEM()RATIONAL_B_SPLINE_CURVE((1.,1.0726344746246,1.0770627625188))REPRESENTATION_ITEM(''));
#371=EDGE_CURVE('',#360,#328,#370,.T.);
#372=ORIENTED_EDGE('',*,*,#371,.T.);
#373=EDGE_LOOP('',(#336,#342,#343,#349,#350,#358,#366,#372));
#374=FACE_OUTER_BOUND('',#373,.T.);
#375=ADVANCED_FACE('',(#374),#326,.T.);
#376=CARTESIAN_POINT('',(3.,8.8817841970013E-15,-6.));
#377=DIRECTION('',(0.,1.,1.5383701491068E-15));
#378=DIRECTION('',(0.,1.5383701491068E-15,-1.));
#379=AXIS2_PLACEMENT_3D('',#376,#378,#377);
#380=PLANE('',#379);
#381=ORIENTED_EDGE('',*,*,#365,.F.);
#382=CARTESIAN_POINT('',(1.,-3.4641016151377,-6.));
#383=CARTESIAN_POINT('',(0.053572205140723,-1.7132101946481,-6.));
#384=CARTESIAN_POINT('',(4.1231507141841E-16,-0.19608422677617,-6.));
#385=(BOUNDED_CURVE()B_SPLINE_CURVE(2,(#382,#383,#384),.HYPERBOLIC_ARC.,.F.,.U.)B_SPLINE_CURVE_WITH_KNOTS((3,3),(0.,1.),.UNSPECIFIED.)CURVE()GEOMETRIC_REPRESENTATION_ITEM()RATIONAL_B_SPLINE_CURVE((1.,1.0726344746246,1.0770627625188))REPRESENTATION_ITEM(''));
#386=EDGE_CURVE('',#352,#64,#385,.T.);
#387=ORIENTED_EDGE('',*,*,#386,.T.);
#388=ORIENTED_EDGE('',*,*,#69,.F.);
#389=CARTESIAN_POINT('',(1.,3.4641016151378,-6.));
#390=VERTEX_POINT('',#389);
#391=CARTESIAN_POINT('',(0.,0.1960842267762,-6.));
#392=CARTESIAN_POINT('',(0.053572205140723,1.7132101946481,-6.));
#393=CARTESIAN_POINT('',(1.,3.4641016151378,-6.));
#394=(BOUNDED_CURVE()B_SPLINE_CURVE(2,(#391,#392,#393),.HYPERBOLIC_ARC.,.F.,.U.)B_SPLINE_CURVE_WITH_KNOTS((3,3),(0.,1.),.UNSPECIFIED.)CURVE()GEOMETRIC_REPRESENTATION_ITEM()RATIONAL_B_SPLINE_CURVE((1.0770627625188,1.0726344746246,1.))REPRESENTATION_ITEM(''));
#395=EDGE_CURVE('',#55,#390,#394,.T.);
#396=ORIENTED_EDGE('',*,*,#395,.T.);
#397=CARTESIAN_POINT('',(5.,3.4641016151378,-6.));
#398=VERTEX_POINT('',#397);
#399=CARTESIAN_POINT('',(1.,3.4641016151378,-6.));
#400=DIRECTION('',(1.,0.,0.));
#401=VECTOR('',#400,4.);
#402=LINE('',#399,#401);
#403=EDGE_CURVE('',#390,#398,#402,.T.);
#404=ORIENTED_EDGE('',*,*,#403,.T.);
#405=CARTESIAN_POINT('',(6.,0.19608422704019,-5.9999999999914));
#406=VERTEX_POINT('',#405);
#407=CARTESIAN_POINT('',(5.,3.4641016151378,-6.));
#408=CARTESIAN_POINT('',(5.9464277948594,1.7132101946479,-6.));
#409=CARTESIAN_POINT('',(6.,0.19608422677571,-6.));
#410=(BOUNDED_CURVE()B_SPLINE_CURVE(2,(#407,#408,#409),.HYPERBOLIC_ARC.,.F.,.U.)B_SPLINE_CURVE_WITH_KNOTS((3,3),(0.,1.),.UNSPECIFIED.)CURVE()GEOMETRIC_REPRESENTATION_ITEM()RATIONAL_B_SPLINE_CURVE((1.,1.0726344746246,1.0770627625188))REPRESENTATION_ITEM(''));
#411=EDGE_CURVE('',#398,#406,#410,.T.);
#412=ORIENTED_EDGE('',*,*,#411,.T.);
#413=CARTESIAN_POINT('',(6.,-0.19608422704016,-5.9999999999914));
#414=VERTEX_POINT('',#413);
#415=CARTESIAN_POINT('',(6.,0.19608422704019,-5.9999999999914));
#416=DIRECTION('',(0.,-1.,0.));
#417=VECTOR('',#416,0.39216845408035);
#418=LINE('',#415,#417);
#419=EDGE_CURVE('',#406,#414,#418,.T.);
#420=ORIENTED_EDGE('',*,*,#419,.T.);
#421=CARTESIAN_POINT('',(6.,-0.19608422677568,-6.));
#422=CARTESIAN_POINT('',(5.9464277948594,-1.7132101946478,-6.));
#423=CARTESIAN_POINT('',(5.,-3.4641016151377,-6.));
#424=(BOUNDED_CURVE()B_SPLINE_CURVE(2,(#421,#422,#423),.HYPERBOLIC_ARC.,.F.,.U.)B_SPLINE_CURVE_WITH_KNOTS((3,3),(0.,1.),.UNSPECIFIED.)CURVE()GEOMETRIC_REPRESENTATION_ITEM()RATIONAL_B_SPLINE_CURVE((1.0770627625188,1.0726344746246,1.))REPRESENTATION_ITEM(''));
#425=EDGE_CURVE('',#414,#360,#424,.T.);
#426=ORIENTED_EDGE('',*,*,#425,.T.);
#427=EDGE_LOOP('',(#381,#387,#388,#396,#404,#412,#420,#426));
#428=FACE_OUTER_BOUND('',#427,.T.);
#429=ADVANCED_FACE('',(#428),#380,.T.);
#430=CARTESIAN_POINT('',(3.,5.1961524227066,-3.));
#431=DIRECTION('',(0.,0.5,0.86602540378444));
#432=DIRECTION('',(0.,0.86602540378444,-0.5));
#433=AXIS2_PLACEMENT_3D('',#430,#432,#431);
#434=PLANE('',#433);
#435=ORIENTED_EDGE('',*,*,#403,.F.);
#436=CARTESIAN_POINT('',(1.,3.4641016151378,-6.));
#437=CARTESIAN_POINT('',(0.053572205140716,4.3395473253826,-4.4836835505877));
#438=CARTESIAN_POINT('',(0.,5.0981103093186,-3.1698139216696));
#439=(BOUNDED_CURVE()B_SPLINE_CURVE(2,(#436,#437,#438),.HYPERBOLIC_ARC.,.F.,.U.)B_SPLINE_CURVE_WITH_KNOTS((3,3),(0.,1.),.UNSPECIFIED.)CURVE()GEOMETRIC_REPRESENTATION_ITEM()RATIONAL_B_SPLINE_CURVE((1.,1.0726344746246,1.0770627625188))REPRESENTATION_ITEM(''));
#440=EDGE_CURVE('',#390,#47,#439,.T.);
#441=ORIENTED_EDGE('',*,*,#440,.T.);
#442=ORIENTED_EDGE('',*,*,#52,.F.);
#443=CARTESIAN_POINT('',(0.,5.2941945360947,-2.8301860783304));
#444=CARTESIAN_POINT('',(0.053572205140715,6.0527575200307,-1.5163164494123));
#445=CARTESIAN_POINT('',(1.,6.9282032302755,1.1102230246252E-14));
#446=(BOUNDED_CURVE()B_SPLINE_CURVE(2,(#443,#444,#445),.HYPERBOLIC_ARC.,.F.,.U.)B_SPLINE_CURVE_WITH_KNOTS((3,3),(0.,1.),.UNSPECIFIED.)CURVE()GEOMETRIC_REPRESENTATION_ITEM()RATIONAL_B_SPLINE_CURVE((1.0770627625188,1.0726344746246,1.))REPRESENTATION_ITEM(''));
#447=EDGE_CURVE('',#38,#175,#446,.T.);
#448=ORIENTED_EDGE('',*,*,#447,.T.);
#449=ORIENTED_EDGE('',*,*,#180,.F.);
#450=CARTESIAN_POINT('',(6.,5.2941945361996,-2.8301860781341));
#451=VERTEX_POINT('',#450);
#452=CARTESIAN_POINT('',(5.,6.9282032302755,5.7731597280508E-15));
#453=CARTESIAN_POINT('',(5.9464277948594,6.0527575200306,-1.5163164494125));
#454=CARTESIAN_POINT('',(6.,5.2941945360945,-2.8301860783308));
#455=(BOUNDED_CURVE()B_SPLINE_CURVE(2,(#452,#453,#454),.HYPERBOLIC_ARC.,.F.,.U.)B_SPLINE_CURVE_WITH_KNOTS((3,3),(0.,1.),.UNSPECIFIED.)CURVE()GEOMETRIC_REPRESENTATION_ITEM()RATIONAL_B_SPLINE_CURVE((1.,1.0726344746246,1.0770627625188))REPRESENTATION_ITEM(''));
#456=EDGE_CURVE('',#167,#451,#455,.T.);
#457=ORIENTED_EDGE('',*,*,#456,.T.);
#458=CARTESIAN_POINT('',(6.,5.0981103092159,-3.1698139218347));
#459=VERTEX_POINT('',#458);
#460=CARTESIAN_POINT('',(6.,5.2941945361996,-2.8301860781341));
#461=DIRECTION('',(0.,-0.49999999999783,-0.86602540378569));
#462=VECTOR('',#461,0.3921684539691);
#463=LINE('',#460,#462);
#464=EDGE_CURVE('',#451,#459,#463,.T.);
#465=ORIENTED_EDGE('',*,*,#464,.T.);
#466=CARTESIAN_POINT('',(6.,5.0981103093188,-3.1698139216692));
#467=CARTESIAN_POINT('',(5.9464277948594,4.3395473253827,-4.4836835505875));
#468=CARTESIAN_POINT('',(5.,3.4641016151378,-6.));
#469=(BOUNDED_CURVE()B_SPLINE_CURVE(2,(#466,#467,#468),.HYPERBOLIC_ARC.,.F.,.U.)B_SPLINE_CURVE_WITH_KNOTS((3,3),(0.,1.),.UNSPECIFIED.)CURVE()GEOMETRIC_REPRESENTATION_ITEM()RATIONAL_B_SPLINE_CURVE((1.0770627625188,1.0726344746246,1.))REPRESENTATION_ITEM(''));
#470=EDGE_CURVE('',#459,#398,#469,.T.);
#471=ORIENTED_EDGE('',*,*,#470,.T.);
#472=EDGE_LOOP('',(#435,#441,#442,#448,#449,#457,#465,#471));
#473=FACE_OUTER_BOUND('',#472,.T.);
#474=ADVANCED_FACE('',(#473),#434,.T.);
#475=CARTESIAN_POINT('',(-6.4899494381357,3.7052525006568E-16,2.8549555601068E-15));
#476=DIRECTION('',(0.,-0.49999999999941,-0.86602540378478));
#477=DIRECTION('',(1.,-0.,-0.));
#478=AXIS2_PLACEMENT_3D('',#475,#477,#476);
#479=CONICAL_SURFACE('',#478,0.,0.74645682030041);
#480=ORIENTED_EDGE('',*,*,#129,.F.);
#481=ORIENTED_EDGE('',*,*,#240,.F.);
#482=ORIENTED_EDGE('',*,*,#195,.F.);
#483=EDGE_LOOP('',(#480,#481,#482));
#484=FACE_OUTER_BOUND('',#483,.T.);
#485=ADVANCED_FACE('',(#484),#479,.T.);
#486=CARTESIAN_POINT('',(-6.4899494381357,3.7052525006568E-16,2.8549555601068E-15));
#487=DIRECTION('',(3.3471736298545E-17,0.50000000000162,-0.8660254037835));
#488=DIRECTION('',(1.,-1.0241196277491E-16,-2.0477742352127E-17));
#489=AXIS2_PLACEMENT_3D('',#486,#488,#487);
#490=CONICAL_SURFACE('',#489,0.,0.74645682030041);
#491=ORIENTED_EDGE('',*,*,#112,.F.);
#492=ORIENTED_EDGE('',*,*,#294,.F.);
#493=ORIENTED_EDGE('',*,*,#249,.F.);
#494=EDGE_LOOP('',(#491,#492,#493));
#495=FACE_OUTER_BOUND('',#494,.T.);
#496=ADVANCED_FACE('',(#495),#490,.T.);
#497=CARTESIAN_POINT('',(-6.4899494381357,3.7052525006568E-16,2.8549555601068E-15));
#498=DIRECTION('',(7.802945459963E-17,1.,1.3098870800769E-11));
#499=DIRECTION('',(1.,-7.8029454600385E-17,5.7647858695877E-17));
#500=AXIS2_PLACEMENT_3D('',#497,#499,#498);
#501=CONICAL_SURFACE('',#500,0.,0.74645682030041);
#502=ORIENTED_EDGE('',*,*,#95,.F.);
#503=ORIENTED_EDGE('',*,*,#348,.F.);
#504=ORIENTED_EDGE('',*,*,#303,.F.);
#505=EDGE_LOOP('',(#502,#503,#504));
#506=FACE_OUTER_BOUND('',#505,.T.);
#507=ADVANCED_FACE('',(#506),#501,.T.);
#508=CARTESIAN_POINT('',(-6.4899494381357,3.7052525006568E-16,2.8549555601068E-15));
#509=DIRECTION('',(-1.1884599711486E-16,0.50000000000336,0.8660254037825));
#510=DIRECTION('',(1.,2.8370740132616E-17,1.2085168240024E-16));
#511=AXIS2_PLACEMENT_3D('',#508,#510,#509);
#512=CONICAL_SURFACE('',#511,0.,0.74645682030041);
#513=ORIENTED_EDGE('',*,*,#78,.F.);
#514=ORIENTED_EDGE('',*,*,#386,.F.);
#515=ORIENTED_EDGE('',*,*,#357,.F.);
#516=EDGE_LOOP('',(#513,#514,#515));
#517=FACE_OUTER_BOUND('',#516,.T.);
#518=ADVANCED_FACE('',(#517),#512,.T.);
#519=CARTESIAN_POINT('',(-6.4899494381357,3.7052525006568E-16,2.8549555601068E-15));
#520=DIRECTION('',(-6.6943472597091E-17,-0.50000000000161,0.86602540378351));
#521=DIRECTION('',(1.,-2.0482392554982E-16,-4.0955484704252E-17));
#522=AXIS2_PLACEMENT_3D('',#519,#521,#520);
#523=CONICAL_SURFACE('',#522,0.,0.74645682030041);
#524=ORIENTED_EDGE('',*,*,#61,.F.);
#525=ORIENTED_EDGE('',*,*,#440,.F.);
#526=ORIENTED_EDGE('',*,*,#395,.F.);
#527=EDGE_LOOP('',(#524,#525,#526));
#528=FACE_OUTER_BOUND('',#527,.T.);
#529=ADVANCED_FACE('',(#528),#523,.T.);
#530=CARTESIAN_POINT('',(-6.4899494381358,-7.7180934074153E-14,2.183075913477E-14));
#531=DIRECTION('',(-3.4270995822195E-16,-1.,6.1178247252451E-11));
#532=DIRECTION('',(1.,-3.4270995821337E-16,1.4017223796705E-16));
#533=AXIS2_PLACEMENT_3D('',#530,#532,#531);
#534=CONICAL_SURFACE('',#533,0.,0.74645682030041);
#535=ORIENTED_EDGE('',*,*,#186,.F.);
#536=ORIENTED_EDGE('',*,*,#447,.F.);
#537=ORIENTED_EDGE('',*,*,#44,.F.);
#538=EDGE_LOOP('',(#535,#536,#537));
#539=FACE_OUTER_BOUND('',#538,.T.);
#540=ADVANCED_FACE('',(#539),#534,.T.);
#541=CARTESIAN_POINT('',(12.489949438136,-1.1135961179201E-15,-4.3947471840785E-15));
#542=DIRECTION('',(1.1017069939975E-16,1.,-2.4122781071383E-15));
#543=DIRECTION('',(-1.,1.1017069939975E-16,2.5092451262973E-16));
#544=AXIS2_PLACEMENT_3D('',#541,#543,#542);
#545=CONICAL_SURFACE('',#544,0.,0.74645682030041);
#546=CARTESIAN_POINT('',(6.,-9.7699626167014E-15,1.2694438414308E-15));
#547=DIRECTION('',(2.9590149979292E-16,-0.8818949372728,-0.47144598801199));
#548=DIRECTION('',(-1.,-3.9147017303938E-16,1.5691166502482E-16));
#549=AXIS2_PLACEMENT_3D('',#546,#548,#547);
#550=CIRCLE('',#549,6.0032032302755);
#551=EDGE_CURVE('',#330,#274,#550,.T.);
#552=ORIENTED_EDGE('',*,*,#551,.T.);
#553=ORIENTED_EDGE('',*,*,#317,.F.);
#554=ORIENTED_EDGE('',*,*,#341,.F.);
#555=EDGE_LOOP('',(#552,#553,#554));
#556=FACE_OUTER_BOUND('',#555,.T.);
#557=ADVANCED_FACE('',(#556),#545,.T.);
#558=CARTESIAN_POINT('',(12.489949438136,-1.1135961179201E-15,-4.3947471840785E-15));
#559=DIRECTION('',(1.6238058755799E-16,0.50000000000164,0.86602540378349));
#560=DIRECTION('',(-1.,-4.9476402277789E-17,2.160661660495E-16));
#561=AXIS2_PLACEMENT_3D('',#558,#560,#559);
#562=CONICAL_SURFACE('',#561,0.,0.74645682030041);
#563=CARTESIAN_POINT('',(6.,3.5527136788005E-15,1.7763568394003E-15));
#564=DIRECTION('',(-2.9590149979292E-16,-0.032663266512662,-0.9994664131529));
#565=DIRECTION('',(-1.,1.1744105191348E-16,2.0341386880569E-16));
#566=AXIS2_PLACEMENT_3D('',#563,#565,#564);
#567=CIRCLE('',#566,6.0032032302755);
#568=EDGE_CURVE('',#414,#328,#567,.T.);
#569=ORIENTED_EDGE('',*,*,#568,.T.);
#570=ORIENTED_EDGE('',*,*,#371,.F.);
#571=ORIENTED_EDGE('',*,*,#425,.F.);
#572=EDGE_LOOP('',(#569,#570,#571));
#573=FACE_OUTER_BOUND('',#572,.T.);
#574=ADVANCED_FACE('',(#573),#562,.T.);
#575=CARTESIAN_POINT('',(12.489949438136,-1.1135961179201E-15,-4.3947471840785E-15));
#576=DIRECTION('',(2.033727978962E-16,-0.50000000000161,0.86602540378351));
#577=DIRECTION('',(-1.,9.1490596586352E-18,2.4011689127945E-16));
#578=AXIS2_PLACEMENT_3D('',#575,#577,#576);
#579=CONICAL_SURFACE('',#578,0.,0.74645682030041);
#580=CARTESIAN_POINT('',(6.,3.5527136788005E-15,-2.6645352591004E-15));
#581=DIRECTION('',(2.9590149979292E-16,0.84923167076953,-0.52802042513713));
#582=DIRECTION('',(-1.,1.1744105191351E-16,-2.0341386880581E-16));
#583=AXIS2_PLACEMENT_3D('',#580,#582,#581);
#584=CIRCLE('',#583,6.0032032302755);
#585=EDGE_CURVE('',#459,#406,#584,.T.);
#586=ORIENTED_EDGE('',*,*,#585,.T.);
#587=ORIENTED_EDGE('',*,*,#411,.F.);
#588=ORIENTED_EDGE('',*,*,#470,.F.);
#589=EDGE_LOOP('',(#586,#587,#588));
#590=FACE_OUTER_BOUND('',#589,.T.);
#591=ADVANCED_FACE('',(#590),#579,.T.);
#592=CARTESIAN_POINT('',(12.489949438136,-9.6091426185099E-14,2.3920428772932E-14));
#593=DIRECTION('',(-7.1927438912197E-15,-1.,-6.1166112444618E-11));
#594=DIRECTION('',(-1.,7.1927438913475E-15,-2.0888747879243E-15));
#595=AXIS2_PLACEMENT_3D('',#592,#594,#593);
#596=CONICAL_SURFACE('',#595,0.,0.7464568203004);
#597=ORIENTED_EDGE('',*,*,#172,.F.);
#598=CARTESIAN_POINT('',(6.,1.7763568394003E-15,-1.3122307831143E-15));
#599=DIRECTION('',(2.9590149979292E-16,0.88189493709203,0.47144598835014));
#600=DIRECTION('',(-1.,1.5658806906583E-16,1.5691166499856E-16));
#601=AXIS2_PLACEMENT_3D('',#598,#600,#599);
#602=CIRCLE('',#601,6.0032032302755);
#603=EDGE_CURVE('',#159,#451,#602,.T.);
#604=ORIENTED_EDGE('',*,*,#603,.T.);
#605=ORIENTED_EDGE('',*,*,#456,.F.);
#606=EDGE_LOOP('',(#597,#604,#605));
#607=FACE_OUTER_BOUND('',#606,.T.);
#608=ADVANCED_FACE('',(#607),#596,.T.);
#609=CARTESIAN_POINT('',(12.489949438136,-1.1135961179201E-15,-4.3947471840785E-15));
#610=DIRECTION('',(-2.7285865059822E-16,-0.5000000000016,-0.86602540378352));
#611=DIRECTION('',(-1.,1.5395864011345E-17,3.0618122451614E-16));
#612=AXIS2_PLACEMENT_3D('',#609,#611,#610);
#613=CONICAL_SURFACE('',#612,0.,0.74645682030041);
#614=CARTESIAN_POINT('',(6.,0.,2.6645352591004E-15));
#615=DIRECTION('',(1.4795074989646E-16,0.032663266512666,0.9994664131529));
#616=DIRECTION('',(-1.,1.5658806921802E-16,2.712184917411E-16));
#617=AXIS2_PLACEMENT_3D('',#614,#616,#615);
#618=CIRCLE('',#617,6.0032032302755);
#619=EDGE_CURVE('',#222,#157,#618,.T.);
#620=ORIENTED_EDGE('',*,*,#619,.T.);
#621=ORIENTED_EDGE('',*,*,#209,.F.);
#622=ORIENTED_EDGE('',*,*,#233,.F.);
#623=EDGE_LOOP('',(#620,#621,#622));
#624=FACE_OUTER_BOUND('',#623,.T.);
#625=ADVANCED_FACE('',(#624),#613,.T.);
#626=CARTESIAN_POINT('',(12.489949438136,-1.1135961179201E-15,-4.3947471840785E-15));
#627=DIRECTION('',(-2.1550096899066E-16,0.5000000000049,-0.86602540378161));
#628=DIRECTION('',(-1.,1.0241702778587E-16,3.0796958347813E-16));
#629=AXIS2_PLACEMENT_3D('',#626,#628,#627);
#630=CONICAL_SURFACE('',#629,0.,0.74645682030041);
#631=CARTESIAN_POINT('',(6.,-1.7763568394003E-15,0.));
#632=DIRECTION('',(1.4795074989646E-16,-0.84923167078131,0.52802042511818));
#633=DIRECTION('',(-1.,-1.5658806921475E-16,2.7121849172796E-16));
#634=AXIS2_PLACEMENT_3D('',#631,#633,#632);
#635=CIRCLE('',#634,6.0032032302755);
#636=EDGE_CURVE('',#276,#220,#635,.T.);
#637=ORIENTED_EDGE('',*,*,#636,.T.);
#638=ORIENTED_EDGE('',*,*,#263,.F.);
#639=ORIENTED_EDGE('',*,*,#287,.F.);
#640=EDGE_LOOP('',(#637,#638,#639));
#641=FACE_OUTER_BOUND('',#640,.T.);
#642=ADVANCED_FACE('',(#641),#630,.T.);
#643=CARTESIAN_POINT('',(6.,0.049999999999999,-1.7763568394003E-15));
#644=DIRECTION('',(-6.4762812638765E-17,1.,1.2952562527753E-16));
#645=DIRECTION('',(1.,6.4762812638765E-17,7.401486830845E-17));
#646=AXIS2_PLACEMENT_3D('',#643,#645,#644);
#647=PLANE('',#646);
#648=ORIENTED_EDGE('',*,*,#281,.F.);
#649=ORIENTED_EDGE('',*,*,#551,.F.);
#650=ORIENTED_EDGE('',*,*,#335,.F.);
#651=ORIENTED_EDGE('',*,*,#568,.F.);
#652=ORIENTED_EDGE('',*,*,#419,.F.);
#653=ORIENTED_EDGE('',*,*,#585,.F.);
#654=ORIENTED_EDGE('',*,*,#464,.F.);
#655=ORIENTED_EDGE('',*,*,#603,.F.);
#656=ORIENTED_EDGE('',*,*,#164,.F.);
#657=ORIENTED_EDGE('',*,*,#619,.F.);
#658=ORIENTED_EDGE('',*,*,#227,.F.);
#659=ORIENTED_EDGE('',*,*,#636,.F.);
#660=EDGE_LOOP('',(#648,#649,#650,#651,#652,#653,#654,#655,#656,#657,#658,#659));
#661=FACE_OUTER_BOUND('',#660,.T.);
#662=CARTESIAN_POINT('',(6.,5.5,-1.9721522630525E-31));
#663=VERTEX_POINT('',#662);
#664=CARTESIAN_POINT('',(6.,-3.5527136788005E-15,-2.1514388324209E-31));
#665=DIRECTION('',(5.7094271224865E-17,1.,3.2597558066984E-33));
#666=DIRECTION('',(-1.,5.7094271224865E-17,-5.7094271224865E-17));
#667=AXIS2_PLACEMENT_3D('',#664,#666,#665);
#668=CIRCLE('',#667,5.5);
#669=EDGE_CURVE('',#663,#663,#668,.T.);
#670=ORIENTED_EDGE('',*,*,#669,.T.);
#671=EDGE_LOOP('',(#670));
#672=FACE_BOUND('',#671,.T.);
#673=ADVANCED_FACE('',(#661,#672),#647,.T.);
#674=CARTESIAN_POINT('',(22.800000000001,-4.9100610802793E-15,3.7915797935055E-15));
#675=DIRECTION('',(5.0687648227678E-16,1.,-3.819628494833E-16));
#676=DIRECTION('',(-1.,5.0687648227678E-16,-3.074152947904E-16));
#677=AXIS2_PLACEMENT_3D('',#674,#676,#675);
#678=CONICAL_SURFACE('',#677,0.,0.7853981633974);
#679=CARTESIAN_POINT('',(17.5,5.3,-3.2297397080005E-17));
#680=VERTEX_POINT('',#679);
#681=CARTESIAN_POINT('',(17.3,5.5,-1.3471114790621E-15));
#682=VERTEX_POINT('',#681);
#683=CARTESIAN_POINT('',(17.5,5.3,-3.2297397080005E-17));
#684=DIRECTION('',(-0.70710678118655,0.70710678118655,-4.6485697668455E-15));
#685=VECTOR('',#684,0.28284271247462);
#686=LINE('',#683,#685);
#687=EDGE_CURVE('',#680,#682,#686,.T.);
#688=ORIENTED_EDGE('',*,*,#687,.T.);
#689=CARTESIAN_POINT('',(17.3,1.7763568394003E-15,-3.2312224294826E-15));
#690=DIRECTION('',(-4.1757085670063E-16,1.,3.4256562734919E-16));
#691=DIRECTION('',(1.,4.1757085670063E-16,-2.2837708489946E-16));
#692=AXIS2_PLACEMENT_3D('',#689,#691,#690);
#693=CIRCLE('',#692,5.5);
#694=EDGE_CURVE('',#682,#682,#693,.T.);
#695=ORIENTED_EDGE('',*,*,#694,.T.);
#696=ORIENTED_EDGE('',*,*,#687,.F.);
#697=CARTESIAN_POINT('',(17.5,0.,-9.7435287229027E-16));
#698=DIRECTION('',(-0.,1.,1.7774631607741E-16));
#699=DIRECTION('',(-1.,0.,-0.));
#700=AXIS2_PLACEMENT_3D('',#697,#699,#698);
#701=CIRCLE('',#700,5.3);
#702=EDGE_CURVE('',#680,#680,#701,.T.);
#703=ORIENTED_EDGE('',*,*,#702,.T.);
#704=EDGE_LOOP('',(#688,#695,#696,#703));
#705=FACE_OUTER_BOUND('',#704,.T.);
#706=ADVANCED_FACE('',(#705),#678,.T.);
#707=CARTESIAN_POINT('',(17.5,-1.4737205583712,-3.5527136788005E-15));
#708=DIRECTION('',(0.,1.,0.));
#709=DIRECTION('',(1.,0.,0.));
#710=AXIS2_PLACEMENT_3D('',#707,#709,#708);
#711=PLANE('',#710);
#712=ORIENTED_EDGE('',*,*,#702,.F.);
#713=EDGE_LOOP('',(#712));
#714=FACE_OUTER_BOUND('',#713,.T.);
#715=CARTESIAN_POINT('',(17.5,2.7,-8.0341781869159E-16));
#716=VERTEX_POINT('',#715);
#717=CARTESIAN_POINT('',(17.5,0.,2.0227486069392E-15));
#718=DIRECTION('',(-0.,1.,-1.0467283057892E-15));
#719=DIRECTION('',(-1.,0.,0.));
#720=AXIS2_PLACEMENT_3D('',#717,#719,#718);
#721=CIRCLE('',#720,2.7);
#722=EDGE_CURVE('',#716,#716,#721,.T.);
#723=ORIENTED_EDGE('',*,*,#722,.T.);
#724=EDGE_LOOP('',(#723));
#725=FACE_BOUND('',#724,.T.);
#726=ADVANCED_FACE('',(#714,#725),#711,.T.);
#727=CARTESIAN_POINT('',(14.8,4.5769941728916E-15,-6.0120258427558E-15));
#728=DIRECTION('',(9.2847958516157E-16,1.,9.1716479789538E-16));
#729=DIRECTION('',(1.,-9.2847958516157E-16,1.0119492850913E-15));
#730=AXIS2_PLACEMENT_3D('',#727,#729,#728);
#731=CONICAL_SURFACE('',#730,0.,0.78539816339742);
#732=ORIENTED_EDGE('',*,*,#722,.F.);
#733=CARTESIAN_POINT('',(17.3,2.5,-1.9721522630525E-31));
#734=VERTEX_POINT('',#733);
#735=CARTESIAN_POINT('',(17.5,2.7,-8.0341781869159E-16));
#736=DIRECTION('',(-0.70710678118655,-0.70710678118655,2.8405109386146E-15));
#737=VECTOR('',#736,0.28284271247462);
#738=LINE('',#735,#737);
#739=EDGE_CURVE('',#716,#734,#738,.T.);
#740=ORIENTED_EDGE('',*,*,#739,.T.);
#741=CARTESIAN_POINT('',(17.3,-1.7763568394003E-15,9.4205547521025E-16));
#742=DIRECTION('',(-2.0959216359315E-15,1.,-3.768221900841E-16));
#743=DIRECTION('',(-1.,-2.0959216359315E-15,3.5170071074517E-15));
#744=AXIS2_PLACEMENT_3D('',#741,#743,#742);
#745=CIRCLE('',#744,2.5);
#746=EDGE_CURVE('',#734,#734,#745,.T.);
#747=ORIENTED_EDGE('',*,*,#746,.T.);
#748=ORIENTED_EDGE('',*,*,#739,.F.);
#749=EDGE_LOOP('',(#732,#740,#747,#748));
#750=FACE_OUTER_BOUND('',#749,.T.);
#751=ADVANCED_FACE('',(#750),#731,.F.);
#752=CARTESIAN_POINT('',(6.,-2.2204460492503E-16,-1.7763568394003E-15));
#753=DIRECTION('',(-1.6148698540002E-16,1.,3.2297397080004E-16));
#754=DIRECTION('',(1.,1.9649965037613E-17,0.));
#755=AXIS2_PLACEMENT_3D('',#752,#754,#753);
#756=CYLINDRICAL_SURFACE('',#755,5.5);
#757=ORIENTED_EDGE('',*,*,#669,.F.);
#758=CARTESIAN_POINT('',(6.,5.5,-1.9721522630525E-31));
#759=DIRECTION('',(1.,0.,-1.1921340522673E-16));
#760=VECTOR('',#759,11.3);
#761=LINE('',#758,#760);
#762=EDGE_CURVE('',#663,#682,#761,.T.);
#763=ORIENTED_EDGE('',*,*,#762,.T.);
#764=ORIENTED_EDGE('',*,*,#694,.F.);
#765=ORIENTED_EDGE('',*,*,#762,.F.);
#766=EDGE_LOOP('',(#757,#763,#764,#765));
#767=FACE_OUTER_BOUND('',#766,.T.);
#768=CARTESIAN_POINT('',(13.,-1.65,-5.2466656077932));
#769=VERTEX_POINT('',#768);
#770=CARTESIAN_POINT('',(13.,-1.65,-5.2466656077932));
#771=CARTESIAN_POINT('',(13.227042698561,-1.65,-5.2466656077932));
#772=CARTESIAN_POINT('',(13.908170794242,-1.5094134900827,-5.2908780197714));
#773=CARTESIAN_POINT('',(14.403688356921,-0.97407328877395,-5.4292969547631));
#774=CARTESIAN_POINT('',(14.753256444371,0.0014476945132825,-5.5285298018486));
#775=CARTESIAN_POINT('',(14.640882946486,0.61546310228848,-5.4847327593588));
#776=CARTESIAN_POINT('',(13.885428704475,1.5077172529357,-5.3084221622629));
#777=CARTESIAN_POINT('',(13.315292388594,1.7186567749268,-5.2253938251429));
#778=CARTESIAN_POINT('',(11.946608935692,1.5063097601113,-5.291307810551));
#779=CARTESIAN_POINT('',(11.35,0.81909455379868,-5.5));
#780=CARTESIAN_POINT('',(11.35,-0.82675691937195,-5.5));
#781=CARTESIAN_POINT('',(11.960011667319,-1.5258653079081,-5.2853498047015));
#782=CARTESIAN_POINT('',(12.8299304671,-1.6419303068034,-5.2492009034561));
#783=CARTESIAN_POINT('',(12.902783120714,-1.6483890133606,-5.2471722396531));
#784=CARTESIAN_POINT('',(12.975695780179,-1.65,-5.2466656077932));
#785=CARTESIAN_POINT('',(13.,-1.65,-5.2466656077932));
#786=B_SPLINE_CURVE_WITH_KNOTS('',3,(#770,#771,#772,#773,#774,#775,#776,#777,#778,#779,#780,#781,#782,#783,#784,#785),.UNSPECIFIED.,.T.,.U.,(4,1,2,2,2,2,2,1,4),(0.,0.3333333333333,1.,1.891165135607,2.7641363897144,3.9937673037136,5.2349010186282,5.3076080044526,5.3439614973648),.UNSPECIFIED.);
#787=EDGE_CURVE('',#769,#769,#786,.T.);
#788=ORIENTED_EDGE('',*,*,#787,.T.);
#789=EDGE_LOOP('',(#788));
#790=FACE_BOUND('',#789,.T.);
#791=CARTESIAN_POINT('',(13.,-1.65,5.2466656077932));
#792=VERTEX_POINT('',#791);
#793=CARTESIAN_POINT('',(13.,-1.65,5.2466656077932));
#794=CARTESIAN_POINT('',(12.772957301439,-1.65,5.2466656077932));
#795=CARTESIAN_POINT('',(12.091829205758,-1.5094134900827,5.2908780197714));
#796=CARTESIAN_POINT('',(11.596311643079,-0.97407328877394,5.4292969547631));
#797=CARTESIAN_POINT('',(11.257270819464,-0.027930178171558,5.5255413987309));
#798=CARTESIAN_POINT('',(11.347980285882,0.55243548153675,5.4908528269167));
#799=CARTESIAN_POINT('',(12.075009360837,1.5106700168704,5.3141665201245));
#800=CARTESIAN_POINT('',(12.721083660645,1.7498063759641,5.2162200654449));
#801=CARTESIAN_POINT('',(14.118418920342,1.4446325247002,5.309772361641));
#802=CARTESIAN_POINT('',(14.65,0.76961701114431,5.5));
#803=CARTESIAN_POINT('',(14.65,-0.82675691937196,5.5));
#804=CARTESIAN_POINT('',(14.039988332681,-1.5258653079081,5.2853498047015));
#805=CARTESIAN_POINT('',(13.1700695329,-1.6419303068034,5.2492009034561));
#806=CARTESIAN_POINT('',(13.097216879286,-1.6483890133606,5.2471722396531));
#807=CARTESIAN_POINT('',(13.024304219821,-1.65,5.2466656077932));
#808=CARTESIAN_POINT('',(13.,-1.65,5.2466656077932));
#809=B_SPLINE_CURVE_WITH_KNOTS('',3,(#793,#794,#795,#796,#797,#798,#799,#800,#801,#802,#803,#804,#805,#806,#807,#808),.UNSPECIFIED.,.T.,.U.,(4,1,2,2,2,2,2,1,4),(0.,0.3333333338886,1.0000000016658,1.844250940896,2.8184349906312,4.001651359756,5.2727151534076,5.3471754763796,5.3844056378656),.UNSPECIFIED.);
#810=EDGE_CURVE('',#792,#792,#809,.T.);
#811=ORIENTED_EDGE('',*,*,#810,.T.);
#812=EDGE_LOOP('',(#811));
#813=FACE_BOUND('',#812,.T.);
#814=ADVANCED_FACE('',(#767,#790,#813),#756,.T.);
#815=CARTESIAN_POINT('',(6.,-1.6653345369377E-15,1.3322676295502E-15));
#816=DIRECTION('',(-3.5527136788005E-16,1.,-7.7783641164953E-16));
#817=DIRECTION('',(1.,-9.8249825188067E-18,0.));
#818=AXIS2_PLACEMENT_3D('',#815,#817,#816);
#819=CYLINDRICAL_SURFACE('',#818,2.5);
#820=CARTESIAN_POINT('',(6.,2.5,-6.1232339957368E-16));
#821=VERTEX_POINT('',#820);
#822=CARTESIAN_POINT('',(6.,-1.3322676295502E-15,1.8998245343204E-15));
#823=DIRECTION('',(1.256073966947E-16,1.,-1.0048591735576E-15));
#824=DIRECTION('',(-1.,1.256073966947E-16,-1.256073966947E-16));
#825=AXIS2_PLACEMENT_3D('',#822,#824,#823);
#826=CIRCLE('',#825,2.5);
#827=EDGE_CURVE('',#821,#821,#826,.T.);
#828=ORIENTED_EDGE('',*,*,#827,.T.);
#829=CARTESIAN_POINT('',(6.,2.5,-6.1232339957368E-16));
#830=DIRECTION('',(1.,0.,5.4187911466697E-17));
#831=VECTOR('',#830,11.3);
#832=LINE('',#829,#831);
#833=EDGE_CURVE('',#821,#734,#832,.T.);
#834=ORIENTED_EDGE('',*,*,#833,.T.);
#835=ORIENTED_EDGE('',*,*,#746,.F.);
#836=ORIENTED_EDGE('',*,*,#833,.F.);
#837=EDGE_LOOP('',(#828,#834,#835,#836));
#838=FACE_OUTER_BOUND('',#837,.T.);
#839=CARTESIAN_POINT('',(13.,-1.65,-1.8781639970993));
#840=VERTEX_POINT('',#839);
#841=CARTESIAN_POINT('',(13.,-1.65,-1.8781639970993));
#842=CARTESIAN_POINT('',(12.829870168543,-1.65,-1.8781639970993));
#843=CARTESIAN_POINT('',(12.319480674174,-1.5710613830415,-1.9475129560734));
#844=CARTESIAN_POINT('',(11.899080160909,-1.26809147806,-2.1711969333981));
#845=CARTESIAN_POINT('',(11.408116830914,-0.64678217416944,-2.4498321752671));
#846=CARTESIAN_POINT('',(11.28348191603,-0.16078991662623,-2.5432718570551));
#847=CARTESIAN_POINT('',(11.492322476512,0.86567191594508,-2.4070195383172));
#848=CARTESIAN_POINT('',(11.851550868737,1.2939262608916,-2.1555869108361));
#849=CARTESIAN_POINT('',(12.630929964077,1.6424031641619,-1.8925110049748));
#850=CARTESIAN_POINT('',(12.965719302119,1.6868854932701,-1.8471793330681));
#851=CARTESIAN_POINT('',(13.897162137811,1.5076012082695,-1.9997555676385));
#852=CARTESIAN_POINT('',(14.373420021478,1.0873879226495,-2.3222093518502));
#853=CARTESIAN_POINT('',(14.748063027429,-0.016658214795415,-2.5618104260892));
#854=CARTESIAN_POINT('',(14.637656584636,-0.58885636339109,-2.475809852079));
#855=CARTESIAN_POINT('',(14.100919839091,-1.2680914780597,-2.1711969333982));
#856=CARTESIAN_POINT('',(13.680519325826,-1.5710613830416,-1.9475129560734));
#857=CARTESIAN_POINT('',(13.170129831457,-1.65,-1.8781639970993));
#858=CARTESIAN_POINT('',(13.,-1.65,-1.8781639970993));
#859=B_SPLINE_CURVE_WITH_KNOTS('',3,(#841,#842,#843,#844,#845,#846,#847,#848,#849,#850,#851,#852,#853,#854,#855,#856,#857,#858),.UNSPECIFIED.,.T.,.U.,(4,1,2,2,2,2,2,2,1,4),(0.,0.3333333333333,1.,2.0233280311546,3.1447653963431,3.8635529035922,5.0789343002837,6.2718267162843,6.9452696692048,7.2819911456651),.UNSPECIFIED.);
#860=EDGE_CURVE('',#840,#840,#859,.T.);
#861=ORIENTED_EDGE('',*,*,#860,.T.);
#862=EDGE_LOOP('',(#861));
#863=FACE_BOUND('',#862,.T.);
#864=CARTESIAN_POINT('',(13.,-1.65,1.8781639970993));
#865=VERTEX_POINT('',#864);
#866=CARTESIAN_POINT('',(13.,-1.65,1.8781639970993));
#867=CARTESIAN_POINT('',(13.170129831457,-1.65,1.8781639970993));
#868=CARTESIAN_POINT('',(13.680519325827,-1.5710613830414,1.9475129560735));
#869=CARTESIAN_POINT('',(14.100919839091,-1.2680914780601,2.171196933398));
#870=CARTESIAN_POINT('',(14.637656584636,-0.5888563633911,2.475809852079));
#871=CARTESIAN_POINT('',(14.748063027429,-0.016658214795417,2.5618104260892));
#872=CARTESIAN_POINT('',(14.373420021478,1.0873879226495,2.3222093518502));
#873=CARTESIAN_POINT('',(13.897162137811,1.5076012082695,1.9997555676385));
#874=CARTESIAN_POINT('',(12.84111293986,1.7108697483507,1.8267680218973));
#875=CARTESIAN_POINT('',(12.396161593985,1.5973207457836,1.9470027746395));
#876=CARTESIAN_POINT('',(11.591516680996,1.0204453849482,2.3136410623421));
#877=CARTESIAN_POINT('',(11.318386217549,0.49345276634614,2.5208441723205));
#878=CARTESIAN_POINT('',(11.388661462998,-0.71042105714991,2.4745070472495));
#879=CARTESIAN_POINT('',(11.749551254835,-1.2178618234965,2.2061888469148));
#880=CARTESIAN_POINT('',(12.403934151109,-1.5471938926081,1.9658156109808));
#881=CARTESIAN_POINT('',(12.65097618224,-1.6292356320402,1.8964058583992));
#882=CARTESIAN_POINT('',(12.91274404556,-1.65,1.8781639970993));
#883=CARTESIAN_POINT('',(13.,-1.65,1.8781639970993));
#884=B_SPLINE_CURVE_WITH_KNOTS('',3,(#866,#867,#868,#869,#870,#871,#872,#873,#874,#875,#876,#877,#878,#879,#880,#881,#882,#883),.UNSPECIFIED.,.T.,.U.,(4,1,2,2,2,2,2,2,1,4),(0.,0.3333333333333,1.,2.180889349598,3.3840413923149,4.3517416166662,5.5617774295002,6.8224236098463,7.1834775928858,7.3640045844055),.UNSPECIFIED.);
#885=EDGE_CURVE('',#865,#865,#884,.T.);
#886=ORIENTED_EDGE('',*,*,#885,.T.);
#887=EDGE_LOOP('',(#886));
#888=FACE_BOUND('',#887,.T.);
#889=ADVANCED_FACE('',(#838,#863,#888),#819,.F.);
#890=CARTESIAN_POINT('',(13.,4.0523140398818E-15,5.5997862319005));
#891=DIRECTION('',(0.,-1.,5.3828995133341E-16));
#892=DIRECTION('',(4.5694532447386E-16,-6.9969752810059E-16,-1.));
#893=AXIS2_PLACEMENT_3D('',#890,#892,#891);
#894=CYLINDRICAL_SURFACE('',#893,1.65);
#895=CARTESIAN_POINT('',(13.,-1.65,1.8781639970993));
#896=DIRECTION('',(0.,0.,1.));
#897=VECTOR('',#896,3.3685016106939);
#898=LINE('',#895,#897);
#899=EDGE_CURVE('',#865,#792,#898,.T.);
#900=ORIENTED_EDGE('',*,*,#899,.T.);
#901=ORIENTED_EDGE('',*,*,#810,.F.);
#902=ORIENTED_EDGE('',*,*,#899,.F.);
#903=ORIENTED_EDGE('',*,*,#885,.F.);
#904=EDGE_LOOP('',(#900,#901,#902,#903));
#905=FACE_OUTER_BOUND('',#904,.T.);
#906=ADVANCED_FACE('',(#905),#894,.F.);
#907=CARTESIAN_POINT('',(6.,0.05,0.));
#908=DIRECTION('',(0.,1.,0.));
#909=DIRECTION('',(1.,0.,0.));
#910=AXIS2_PLACEMENT_3D('',#907,#909,#908);
#911=PLANE('',#910);
#912=ORIENTED_EDGE('',*,*,#827,.F.);
#913=EDGE_LOOP('',(#912));
#914=FACE_OUTER_BOUND('',#913,.T.);
#915=CARTESIAN_POINT('',(6.,-1.3322676295502E-15,-1.65));
#916=VERTEX_POINT('',#915);
#917=CARTESIAN_POINT('',(6.,-8.6123989194507E-16,1.5543122344752E-15));
#918=DIRECTION('',(-3.2652760915236E-17,-2.8547135612432E-16,-1.));
#919=DIRECTION('',(-1.,5.7094271224865E-16,3.2652760915236E-17));
#920=AXIS2_PLACEMENT_3D('',#917,#919,#918);
#921=CIRCLE('',#920,1.65);
#922=EDGE_CURVE('',#916,#916,#921,.T.);
#923=ORIENTED_EDGE('',*,*,#922,.T.);
#924=EDGE_LOOP('',(#923));
#925=FACE_BOUND('',#924,.T.);
#926=ADVANCED_FACE('',(#914,#925),#911,.T.);
#927=CARTESIAN_POINT('',(6.,-2.2204460492503E-16,2.1649348980191E-15));
#928=DIRECTION('',(-5.3828995133341E-16,-6.7286243916676E-16,-1.));
#929=DIRECTION('',(-1.,3.9018731021667E-16,-3.23815048849E-16));
#930=AXIS2_PLACEMENT_3D('',#927,#929,#928);
#931=CYLINDRICAL_SURFACE('',#930,1.65);
#932=CARTESIAN_POINT('',(6.,-1.3322676295502E-15,-1.65));
#933=DIRECTION('',(-1.,3.9018731021668E-16,0.));
#934=VECTOR('',#933,6.);
#935=LINE('',#932,#934);
#936=EDGE_CURVE('',#916,#140,#935,.T.);
#937=ORIENTED_EDGE('',*,*,#936,.T.);
#938=ORIENTED_EDGE('',*,*,#146,.F.);
#939=ORIENTED_EDGE('',*,*,#936,.F.);
#940=ORIENTED_EDGE('',*,*,#922,.F.);
#941=EDGE_LOOP('',(#937,#938,#939,#940));
#942=FACE_OUTER_BOUND('',#941,.T.);
#943=ADVANCED_FACE('',(#942),#931,.F.);
#944=CARTESIAN_POINT('',(13.,4.5519144009631E-15,-1.7087750123715));
#945=DIRECTION('',(0.,-1.,0.));
#946=DIRECTION('',(0.,8.5546843906509E-17,-1.));
#947=AXIS2_PLACEMENT_3D('',#944,#946,#945);
#948=CYLINDRICAL_SURFACE('',#947,1.65);
#949=CARTESIAN_POINT('',(13.,-1.65,-1.8781639970993));
#950=DIRECTION('',(0.,0.,-1.));
#951=VECTOR('',#950,3.3685016106939);
#952=LINE('',#949,#951);
#953=EDGE_CURVE('',#840,#769,#952,.T.);
#954=ORIENTED_EDGE('',*,*,#953,.T.);
#955=ORIENTED_EDGE('',*,*,#787,.F.);
#956=ORIENTED_EDGE('',*,*,#953,.F.);
#957=ORIENTED_EDGE('',*,*,#860,.F.);
#958=EDGE_LOOP('',(#954,#955,#956,#957));
#959=FACE_OUTER_BOUND('',#958,.T.);
#960=ADVANCED_FACE('',(#959),#948,.F.);
#961=CLOSED_SHELL('',(#150,#213,#267,#321,#375,#429,#474,#485,#496,#507,#518,#529,#540,#557,#574,#591,#608,#625,#642,#673,#706,#726,#751,#814,#889,#906,#926,#943,#960));
#962=COLOUR_RGB('',0.745098,0.901961,0.960784);
#963=FILL_AREA_STYLE_COLOUR('',#962);
#964=FILL_AREA_STYLE('',(#963));
#965=SURFACE_STYLE_FILL_AREA(#964);
#966=SURFACE_SIDE_STYLE('',(#965));
#967=SURFACE_STYLE_USAGE(.BOTH.,#966);
#968=PRESENTATION_STYLE_ASSIGNMENT((#967));
#969=OVER_RIDING_STYLED_ITEM('',(#968),#150,#961);
#970=OVER_RIDING_STYLED_ITEM('',(#968),#213,#961);
#971=OVER_RIDING_STYLED_ITEM('',(#968),#267,#961);
#972=OVER_RIDING_STYLED_ITEM('',(#968),#321,#961);
#973=OVER_RIDING_STYLED_ITEM('',(#968),#375,#961);
#974=OVER_RIDING_STYLED_ITEM('',(#968),#429,#961);
#975=OVER_RIDING_STYLED_ITEM('',(#968),#474,#961);
#976=OVER_RIDING_STYLED_ITEM('',(#968),#485,#961);
#977=OVER_RIDING_STYLED_ITEM('',(#968),#496,#961);
#978=OVER_RIDING_STYLED_ITEM('',(#968),#507,#961);
#979=OVER_RIDING_STYLED_ITEM('',(#968),#518,#961);
#980=OVER_RIDING_STYLED_ITEM('',(#968),#529,#961);
#981=OVER_RIDING_STYLED_ITEM('',(#968),#540,#961);
#982=OVER_RIDING_STYLED_ITEM('',(#968),#557,#961);
#983=OVER_RIDING_STYLED_ITEM('',(#968),#574,#961);
#984=OVER_RIDING_STYLED_ITEM('',(#968),#591,#961);
#985=OVER_RIDING_STYLED_ITEM('',(#968),#608,#961);
#986=OVER_RIDING_STYLED_ITEM('',(#968),#625,#961);
#987=OVER_RIDING_STYLED_ITEM('',(#968),#642,#961);
#988=OVER_RIDING_STYLED_ITEM('',(#968),#673,#961);
#989=OVER_RIDING_STYLED_ITEM('',(#968),#706,#961);
#990=OVER_RIDING_STYLED_ITEM('',(#968),#726,#961);
#991=OVER_RIDING_STYLED_ITEM('',(#968),#751,#961);
#992=OVER_RIDING_STYLED_ITEM('',(#968),#814,#961);
#993=OVER_RIDING_STYLED_ITEM('',(#968),#889,#961);
#994=COLOUR_RGB('',0.54902,0.54902,0.921569);
#995=FILL_AREA_STYLE_COLOUR('',#994);
#996=FILL_AREA_STYLE('',(#995));
#997=SURFACE_STYLE_FILL_AREA(#996);
#998=SURFACE_SIDE_STYLE('',(#997));
#999=SURFACE_STYLE_USAGE(.BOTH.,#998);
#1000=PRESENTATION_STYLE_ASSIGNMENT((#999));
#1001=OVER_RIDING_STYLED_ITEM('',(#1000),#906,#961);
#1002=OVER_RIDING_STYLED_ITEM('',(#968),#926,#961);
#1003=OVER_RIDING_STYLED_ITEM('',(#1000),#943,#961);
#1004=OVER_RIDING_STYLED_ITEM('',(#1000),#960,#961);
#1005=MANIFOLD_SOLID_BREP('S1',#961);
#1006=ADVANCED_BREP_SHAPE_REPRESENTATION('',(#1005),#5);
#1007=SHAPE_REPRESENTATION_RELATIONSHIP('NONE', 'NONE', #28, #1006);
#1008=PRESENTATION_LAYER_ASSIGNMENT('Í¼²ã000','',(#1005));
#1009=MECHANICAL_DESIGN_GEOMETRIC_PRESENTATION_REPRESENTATION('',(#969,#970,#971,#972,#973,#974,#975,#976,#977,#978,#979,#980,#981,#982,#983,#984,#985,#986,#987,#988,#989,#990,#991,#992,#993,#1001,#1002,#1003,#1004),#5);
ENDSEC;
END-ISO-10303-21;
