ISO-10303-21;
HEADER;
FILE_DESCRIPTION(
  ('This file contains a STEP AP42 implementation'
    ,'as created by ZW3D STEP Interface translator.')
  ,'2;1'
  );
FILE_NAME(
  'ÖáÖ±¾¶8mm-Áù½ÇÁªÖáÆ÷.stp'
  ,'24 514.141023',
  (''),
  ('ZWCAD Software Co.'),
  'Version 1.0',
  'ZW3D to STEP translator',
  ''
  );
FILE_SCHEMA(('AUTOMOTIVE_DESIGN { 1 0 10303 214 1 1 1 1 }'));
ENDSEC;

DATA;

/**File Base Unit**/
#1 = (LENGTH_UNIT()NAMED_UNIT(*)SI_UNIT(.MILLI.,.METRE.));
#2 = (NAMED_UNIT(*)PLANE_ANGLE_UNIT()SI_UNIT($,.RADIAN.));
#3 = (NAMED_UNIT(*)SI_UNIT($,.STERADIAN.)SOLID_ANGLE_UNIT());
#4 = UNCERTAINTY_MEASURE_WITH_UNIT(LENGTH_MEASURE(0.01),#1,'DISTANCE_ACCURACY_VALUE','Maximum Tolerance applied to model');
#5 = (GEOMETRIC_REPRESENTATION_CONTEXT(3)GLOBAL_UNCERTAINTY_ASSIGNED_CONTEXT((#4))GLOBAL_UNIT_ASSIGNED_CONTEXT((#1,#2,#3))REPRESENTATION_CONTEXT('STEP 203','TOP_LEVEL_ASSEMBLY_PART'));

/**product_definition_shape**/
#6=APPLICATION_CONTEXT('mechanical parts and assemblies' );
#7=DESIGN_CONTEXT('NONE',#6,'design');
#8=MECHANICAL_CONTEXT('NONE',#6,'mechanical');
#9=PRODUCT('0','Part','',(#8));
#10=PRODUCT_DEFINITION_FORMATION_WITH_SPECIFIED_SOURCE('ANY','',#9,.NOT_KNOWN.);
#11=PRODUCT_DEFINITION('UNKNOWN','',#10,#7);
#12=PRODUCT_DEFINITION_SHAPE('NONE','NONE',#11);
#13=PRODUCT_RELATED_PRODUCT_CATEGORY('detail','',(#9));
/**geometry information**/
#14=CARTESIAN_POINT('',(0.,0.,0.));
#15=DIRECTION('',(0.,0.,1.));
#16=DIRECTION('',(1.,0.,0.));
#17=AXIS2_PLACEMENT_3D('',#14,#15,#16);
#18=APPLICATION_CONTEXT('part');
#19=MECHANICAL_CONTEXT('none',#18,'component');
#20=PRODUCT('ÖáÖ±¾¶8mm-Áù½ÇÁªÖáÆ÷','ÖáÖ±¾¶8mm-Áù½ÇÁªÖáÆ÷','',(#19));
#21=PRODUCT_RELATED_PRODUCT_CATEGORY('detail','',(#20));
#22=PRODUCT_DEFINITION_FORMATION_WITH_SPECIFIED_SOURCE('ANY','UNSPECIFIED',#20,.NOT_KNOWN.);
#23=APPLICATION_CONTEXT('part');
#24=APPLICATION_PROTOCOL_DEFINITION('international standard','config_control_design',1994,#23);
#25=DESIGN_CONTEXT('detailed',#23,'design');
#26=PRODUCT_DEFINITION('','UNSPECIFIED',#22,#25);
#27=PRODUCT_DEFINITION_SHAPE('NONE','NONE',#26);
#28=SHAPE_REPRESENTATION('ÖáÖ±¾¶8mm-Áù½ÇÁªÖáÆ÷',(#17),#5);
#29=SHAPE_DEFINITION_REPRESENTATION(#27,#28);
#30=CARTESIAN_POINT('',(0.,0.,0.9282032302755));
#31=DIRECTION('',(0.,1.,0.));
#32=DIRECTION('',(-1.,0.,0.));
#33=AXIS2_PLACEMENT_3D('',#30,#32,#31);
#34=PLANE('',#33);
#35=CARTESIAN_POINT('',(7.1550877749646E-17,5.2941945361998,2.8301860781338));
#36=VERTEX_POINT('',#35);
#37=CARTESIAN_POINT('',(7.1550874146735E-17,5.2941945351146,-2.8301860801638));
#38=VERTEX_POINT('',#37);
#39=CARTESIAN_POINT('',(1.4310175549929E-16,0.,1.0560305310188E-15));
#40=DIRECTION('',(-2.0532291130701E-32,0.88189493727282,0.47144598801196));
#41=DIRECTION('',(-1.,-2.8250247949936E-32,5.4161200107488E-42));
#42=AXIS2_PLACEMENT_3D('',#39,#41,#40);
#43=CIRCLE('',#42,6.0032032302755);
#44=EDGE_CURVE('',#36,#38,#43,.T.);
#45=ORIENTED_EDGE('',*,*,#44,.T.);
#46=CARTESIAN_POINT('',(7.1550877749646E-17,5.0981103092157,-3.169813921835));
#47=VERTEX_POINT('',#46);
#48=CARTESIAN_POINT('',(7.1550874146735E-17,5.2941945351146,-2.8301860801638));
#49=DIRECTION('',(9.1871515639067E-24,-0.50000000016397,-0.86602540368977));
#50=VECTOR('',#49,0.39216845166919);
#51=LINE('',#48,#50);
#52=EDGE_CURVE('',#38,#47,#51,.T.);
#53=ORIENTED_EDGE('',*,*,#52,.T.);
#54=CARTESIAN_POINT('',(7.1550874805803E-17,0.19608422704055,-5.9999999999914));
#55=VERTEX_POINT('',#54);
#56=CARTESIAN_POINT('',(1.4310175549929E-16,6.6613381477509E-15,-9.7699626167014E-15));
#57=DIRECTION('',(-4.1064582261403E-33,0.84923167076949,-0.52802042513718));
#58=DIRECTION('',(-1.,-2.1730959978435E-33,3.7639126779391E-33));
#59=AXIS2_PLACEMENT_3D('',#56,#58,#57);
#60=CIRCLE('',#59,6.0032032302755);
#61=EDGE_CURVE('',#47,#55,#60,.T.);
#62=ORIENTED_EDGE('',*,*,#61,.T.);
#63=CARTESIAN_POINT('',(7.1550874039776E-17,-0.19608422704969,-5.9999999999911));
#64=VERTEX_POINT('',#63);
#65=CARTESIAN_POINT('',(7.1550874805803E-17,0.19608422704055,-5.9999999999914));
#66=DIRECTION('',(-1.9533110976398E-24,-1.,7.6549835339271E-13));
#67=VECTOR('',#66,0.39216845409024);
#68=LINE('',#65,#67);
#69=EDGE_CURVE('',#55,#64,#68,.T.);
#70=ORIENTED_EDGE('',*,*,#69,.T.);
#71=CARTESIAN_POINT('',(7.1550700183991E-17,-5.0981103092511,-3.1698139217781));
#72=VERTEX_POINT('',#71);
#73=CARTESIAN_POINT('',(1.4310175549929E-16,-4.4408920985006E-16,3.5527136788005E-15));
#74=DIRECTION('',(8.2129164522804E-33,-0.032663266514249,-0.99946641315285));
#75=DIRECTION('',(-1.,-3.2596439967384E-33,-5.6458690167793E-33));
#76=AXIS2_PLACEMENT_3D('',#73,#75,#74);
#77=CIRCLE('',#76,6.0032032302756);
#78=EDGE_CURVE('',#64,#72,#77,.T.);
#79=ORIENTED_EDGE('',*,*,#78,.T.);
#80=CARTESIAN_POINT('',(7.1550880996664E-17,-5.2941945362002,-2.8301860781331));
#81=VERTEX_POINT('',#80);
#82=CARTESIAN_POINT('',(7.1550700183991E-17,-5.0981103092511,-3.1698139217781));
#83=DIRECTION('',(4.6105868842045E-22,-0.49999999999305,0.86602540378845));
#84=VECTOR('',#83,0.39216845390365);
#85=LINE('',#82,#84);
#86=EDGE_CURVE('',#72,#81,#85,.T.);
#87=ORIENTED_EDGE('',*,*,#86,.T.);
#88=CARTESIAN_POINT('',(7.1550892408457E-17,-5.2941945364326,2.8301860776984));
#89=VERTEX_POINT('',#88);
#90=CARTESIAN_POINT('',(1.4310175549929E-16,1.7763568394003E-15,3.9147920493448E-16));
#91=DIRECTION('',(0.,-0.88189493727288,-0.47144598801184));
#92=DIRECTION('',(-1.,0.,0.));
#93=AXIS2_PLACEMENT_3D('',#90,#92,#91);
#94=CIRCLE('',#93,6.0032032302755);
#95=EDGE_CURVE('',#81,#89,#94,.T.);
#96=ORIENTED_EDGE('',*,*,#95,.T.);
#97=CARTESIAN_POINT('',(7.1550877749646E-17,-5.098110309216,3.1698139218345));
#98=VERTEX_POINT('',#97);
#99=CARTESIAN_POINT('',(7.1550892408457E-17,-5.2941945364326,2.8301860776984));
#100=DIRECTION('',(-3.7378863172105E-23,0.49999999996238,0.86602540380616));
#101=VECTOR('',#100,0.3921684544627);
#102=LINE('',#99,#101);
#103=EDGE_CURVE('',#89,#98,#102,.T.);
#104=ORIENTED_EDGE('',*,*,#103,.T.);
#105=CARTESIAN_POINT('',(7.1550877749646E-17,-0.19608422704045,5.9999999999914));
#106=VERTEX_POINT('',#105);
#107=CARTESIAN_POINT('',(1.4310175549929E-16,4.4408920985006E-16,4.4408920985006E-15));
#108=DIRECTION('',(-8.2129164522805E-33,-0.84923167076955,0.5280204251371));
#109=DIRECTION('',(-1.,3.2596439967648E-33,-5.6458690169072E-33));
#110=AXIS2_PLACEMENT_3D('',#107,#109,#108);
#111=CIRCLE('',#110,6.0032032302755);
#112=EDGE_CURVE('',#98,#106,#111,.T.);
#113=ORIENTED_EDGE('',*,*,#112,.T.);
#114=CARTESIAN_POINT('',(7.1550880563308E-17,0.19608422704043,5.9999999999914));
#115=VERTEX_POINT('',#114);
#116=CARTESIAN_POINT('',(7.1550877749646E-17,-0.19608422704045,5.9999999999914));
#117=DIRECTION('',(7.1746260116749E-24,1.,0.));
#118=VECTOR('',#117,0.39216845408088);
#119=LINE('',#116,#118);
#120=EDGE_CURVE('',#106,#115,#119,.T.);
#121=ORIENTED_EDGE('',*,*,#120,.T.);
#122=CARTESIAN_POINT('',(7.1550912633465E-17,5.0981103091654,3.1698139219159));
#123=VERTEX_POINT('',#122);
#124=CARTESIAN_POINT('',(1.4310175549929E-16,0.,1.7763568394003E-15));
#125=DIRECTION('',(2.0532291130701E-32,0.032663266512706,0.9994664131529));
#126=DIRECTION('',(-1.,9.7789319904706E-33,1.6937607051339E-32));
#127=AXIS2_PLACEMENT_3D('',#124,#126,#125);
#128=CIRCLE('',#127,6.0032032302755);
#129=EDGE_CURVE('',#115,#123,#128,.T.);
#130=ORIENTED_EDGE('',*,*,#129,.T.);
#131=CARTESIAN_POINT('',(7.1550912633465E-17,5.0981103091654,3.1698139219159));
#132=DIRECTION('',(-8.8951109245343E-23,0.50000000000481,-0.86602540378166));
#133=VECTOR('',#132,0.39216845406503);
#134=LINE('',#131,#133);
#135=EDGE_CURVE('',#123,#36,#134,.T.);
#136=ORIENTED_EDGE('',*,*,#135,.T.);
#137=EDGE_LOOP('',(#45,#53,#62,#70,#79,#87,#96,#104,#113,#121,#130,#136));
#138=FACE_OUTER_BOUND('',#137,.T.);
#139=CARTESIAN_POINT('',(0.,1.0088562317499E-15,-1.65));
#140=VERTEX_POINT('',#139);
#141=CARTESIAN_POINT('',(3.678955472469E-16,5.3782849414477E-16,-2.2204460492503E-15));
#142=DIRECTION('',(-2.2296699833145E-16,2.8547135612432E-16,-1.));
#143=DIRECTION('',(1.,-7.6125694966486E-16,-2.2296699833145E-16));
#144=AXIS2_PLACEMENT_3D('',#141,#143,#142);
#145=CIRCLE('',#144,1.65);
#146=EDGE_CURVE('',#140,#140,#145,.T.);
#147=ORIENTED_EDGE('',*,*,#146,.T.);
#148=EDGE_LOOP('',(#147));
#149=FACE_BOUND('',#148,.T.);
#150=ADVANCED_FACE('',(#138,#149),#34,.T.);
#151=CARTESIAN_POINT('',(3.,5.1961524227066,3.));
#152=DIRECTION('',(0.,-0.5,0.86602540378444));
#153=DIRECTION('',(-0.,0.86602540378444,0.5));
#154=AXIS2_PLACEMENT_3D('',#151,#153,#152);
#155=PLANE('',#154);
#156=CARTESIAN_POINT('',(6.,5.0981103092158,3.1698139218348));
#157=VERTEX_POINT('',#156);
#158=CARTESIAN_POINT('',(6.,5.2941945351145,2.830186080164));
#159=VERTEX_POINT('',#158);
#160=CARTESIAN_POINT('',(6.,5.0981103092158,3.1698139218348));
#161=DIRECTION('',(0.,0.50000000016404,-0.86602540368973));
#162=VECTOR('',#161,0.39216845166874);
#163=LINE('',#160,#162);
#164=EDGE_CURVE('',#157,#159,#163,.T.);
#165=ORIENTED_EDGE('',*,*,#164,.T.);
#166=CARTESIAN_POINT('',(5.,6.9282032302755,4.9712179609854E-15));
#167=VERTEX_POINT('',#166);
#168=CARTESIAN_POINT('',(6.,5.2941945360945,2.8301860783307));
#169=CARTESIAN_POINT('',(5.9464277948594,6.0527575200306,1.5163164494124));
#170=CARTESIAN_POINT('',(5.,6.9282032302755,1.0658141036402E-14));
#171=(BOUNDED_CURVE()B_SPLINE_CURVE(2,(#168,#169,#170),.HYPERBOLIC_ARC.,.F.,.U.)B_SPLINE_CURVE_WITH_KNOTS((3,3),(0.,1.),.UNSPECIFIED.)CURVE()GEOMETRIC_REPRESENTATION_ITEM()RATIONAL_B_SPLINE_CURVE((1.0770627625188,1.0726344746246,1.))REPRESENTATION_ITEM(''));
#172=EDGE_CURVE('',#159,#167,#171,.T.);
#173=ORIENTED_EDGE('',*,*,#172,.T.);
#174=CARTESIAN_POINT('',(1.,6.9282032302755,5.5157123914571E-15));
#175=VERTEX_POINT('',#174);
#176=CARTESIAN_POINT('',(5.,6.9282032302755,4.9712179609854E-15));
#177=DIRECTION('',(-1.,0.,1.3612360761792E-16));
#178=VECTOR('',#177,4.);
#179=LINE('',#176,#178);
#180=EDGE_CURVE('',#167,#175,#179,.T.);
#181=ORIENTED_EDGE('',*,*,#180,.T.);
#182=CARTESIAN_POINT('',(1.,6.9282032302755,7.105427357601E-15));
#183=CARTESIAN_POINT('',(0.053572205140716,6.0527575200307,1.5163164494123));
#184=CARTESIAN_POINT('',(0.,5.2941945360947,2.8301860783304));
#185=(BOUNDED_CURVE()B_SPLINE_CURVE(2,(#182,#183,#184),.HYPERBOLIC_ARC.,.F.,.U.)B_SPLINE_CURVE_WITH_KNOTS((3,3),(0.,1.),.UNSPECIFIED.)CURVE()GEOMETRIC_REPRESENTATION_ITEM()RATIONAL_B_SPLINE_CURVE((1.,1.0726344746246,1.0770627625188))REPRESENTATION_ITEM(''));
#186=EDGE_CURVE('',#175,#36,#185,.T.);
#187=ORIENTED_EDGE('',*,*,#186,.T.);
#188=ORIENTED_EDGE('',*,*,#135,.F.);
#189=CARTESIAN_POINT('',(1.,3.4641016151377,6.));
#190=VERTEX_POINT('',#189);
#191=CARTESIAN_POINT('',(0.,5.0981103093185,3.1698139216696));
#192=CARTESIAN_POINT('',(0.053572205140716,4.3395473253826,4.4836835505877));
#193=CARTESIAN_POINT('',(1.,3.4641016151377,6.));
#194=(BOUNDED_CURVE()B_SPLINE_CURVE(2,(#191,#192,#193),.HYPERBOLIC_ARC.,.F.,.U.)B_SPLINE_CURVE_WITH_KNOTS((3,3),(0.,1.),.UNSPECIFIED.)CURVE()GEOMETRIC_REPRESENTATION_ITEM()RATIONAL_B_SPLINE_CURVE((1.0770627625188,1.0726344746246,1.))REPRESENTATION_ITEM(''));
#195=EDGE_CURVE('',#123,#190,#194,.T.);
#196=ORIENTED_EDGE('',*,*,#195,.T.);
#197=CARTESIAN_POINT('',(5.,3.4641016151377,6.));
#198=VERTEX_POINT('',#197);
#199=CARTESIAN_POINT('',(1.,3.4641016151377,6.));
#200=DIRECTION('',(1.,0.,0.));
#201=VECTOR('',#200,4.);
#202=LINE('',#199,#201);
#203=EDGE_CURVE('',#190,#198,#202,.T.);
#204=ORIENTED_EDGE('',*,*,#203,.T.);
#205=CARTESIAN_POINT('',(5.,3.4641016151377,6.));
#206=CARTESIAN_POINT('',(5.9464277948594,4.3395473253827,4.4836835505876));
#207=CARTESIAN_POINT('',(6.,5.0981103093187,3.1698139216693));
#208=(BOUNDED_CURVE()B_SPLINE_CURVE(2,(#205,#206,#207),.HYPERBOLIC_ARC.,.F.,.U.)B_SPLINE_CURVE_WITH_KNOTS((3,3),(0.,1.),.UNSPECIFIED.)CURVE()GEOMETRIC_REPRESENTATION_ITEM()RATIONAL_B_SPLINE_CURVE((1.,1.0726344746246,1.0770627625188))REPRESENTATION_ITEM(''));
#209=EDGE_CURVE('',#198,#157,#208,.T.);
#210=ORIENTED_EDGE('',*,*,#209,.T.);
#211=EDGE_LOOP('',(#165,#173,#181,#187,#188,#196,#204,#210));
#212=FACE_OUTER_BOUND('',#211,.T.);
#213=ADVANCED_FACE('',(#212),#155,.T.);
#214=CARTESIAN_POINT('',(3.,-1.2434497875802E-14,6.));
#215=DIRECTION('',(0.,-1.,-1.5383701491068E-15));
#216=DIRECTION('',(0.,-1.5383701491068E-15,1.));
#217=AXIS2_PLACEMENT_3D('',#214,#216,#215);
#218=PLANE('',#217);
#219=CARTESIAN_POINT('',(6.,-0.19608422704937,5.9999999999911));
#220=VERTEX_POINT('',#219);
#221=CARTESIAN_POINT('',(6.,0.19608422704019,5.9999999999914));
#222=VERTEX_POINT('',#221);
#223=CARTESIAN_POINT('',(6.,-0.19608422704937,5.9999999999911));
#224=DIRECTION('',(0.,1.,7.6549835339403E-13));
#225=VECTOR('',#224,0.39216845408956);
#226=LINE('',#223,#225);
#227=EDGE_CURVE('',#220,#222,#226,.T.);
#228=ORIENTED_EDGE('',*,*,#227,.T.);
#229=CARTESIAN_POINT('',(6.,0.19608422677574,6.));
#230=CARTESIAN_POINT('',(5.9464277948594,1.7132101946479,6.));
#231=CARTESIAN_POINT('',(5.,3.4641016151377,6.));
#232=(BOUNDED_CURVE()B_SPLINE_CURVE(2,(#229,#230,#231),.HYPERBOLIC_ARC.,.F.,.U.)B_SPLINE_CURVE_WITH_KNOTS((3,3),(0.,1.),.UNSPECIFIED.)CURVE()GEOMETRIC_REPRESENTATION_ITEM()RATIONAL_B_SPLINE_CURVE((1.0770627625188,1.0726344746246,1.))REPRESENTATION_ITEM(''));
#233=EDGE_CURVE('',#222,#198,#232,.T.);
#234=ORIENTED_EDGE('',*,*,#233,.T.);
#235=ORIENTED_EDGE('',*,*,#203,.F.);
#236=CARTESIAN_POINT('',(1.,3.4641016151377,6.));
#237=CARTESIAN_POINT('',(0.053572205140693,1.713210194648,6.));
#238=CARTESIAN_POINT('',(-8.2463014283682E-16,0.19608422677606,6.));
#239=(BOUNDED_CURVE()B_SPLINE_CURVE(2,(#236,#237,#238),.HYPERBOLIC_ARC.,.F.,.U.)B_SPLINE_CURVE_WITH_KNOTS((3,3),(0.,1.),.UNSPECIFIED.)CURVE()GEOMETRIC_REPRESENTATION_ITEM()RATIONAL_B_SPLINE_CURVE((1.,1.0726344746246,1.0770627625188))REPRESENTATION_ITEM(''));
#240=EDGE_CURVE('',#190,#115,#239,.T.);
#241=ORIENTED_EDGE('',*,*,#240,.T.);
#242=ORIENTED_EDGE('',*,*,#120,.F.);
#243=CARTESIAN_POINT('',(1.,-3.4641016151378,6.));
#244=VERTEX_POINT('',#243);
#245=CARTESIAN_POINT('',(-8.2463014283682E-16,-0.19608422677608,6.));
#246=CARTESIAN_POINT('',(0.053572205140693,-1.7132101946481,6.));
#247=CARTESIAN_POINT('',(1.,-3.4641016151378,6.));
#248=(BOUNDED_CURVE()B_SPLINE_CURVE(2,(#245,#246,#247),.HYPERBOLIC_ARC.,.F.,.U.)B_SPLINE_CURVE_WITH_KNOTS((3,3),(0.,1.),.UNSPECIFIED.)CURVE()GEOMETRIC_REPRESENTATION_ITEM()RATIONAL_B_SPLINE_CURVE((1.0770627625188,1.0726344746246,1.))REPRESENTATION_ITEM(''));
#249=EDGE_CURVE('',#106,#244,#248,.T.);
#250=ORIENTED_EDGE('',*,*,#249,.T.);
#251=CARTESIAN_POINT('',(5.,-3.4641016151378,6.));
#252=VERTEX_POINT('',#251);
#253=CARTESIAN_POINT('',(1.,-3.4641016151378,6.));
#254=DIRECTION('',(1.,0.,0.));
#255=VECTOR('',#254,4.);
#256=LINE('',#253,#255);
#257=EDGE_CURVE('',#244,#252,#256,.T.);
#258=ORIENTED_EDGE('',*,*,#257,.T.);
#259=CARTESIAN_POINT('',(5.,-3.4641016151378,6.));
#260=CARTESIAN_POINT('',(5.9464277948594,-1.7132101946479,6.));
#261=CARTESIAN_POINT('',(6.,-0.19608422677576,6.));
#262=(BOUNDED_CURVE()B_SPLINE_CURVE(2,(#259,#260,#261),.HYPERBOLIC_ARC.,.F.,.U.)B_SPLINE_CURVE_WITH_KNOTS((3,3),(0.,1.),.UNSPECIFIED.)CURVE()GEOMETRIC_REPRESENTATION_ITEM()RATIONAL_B_SPLINE_CURVE((1.,1.0726344746246,1.0770627625188))REPRESENTATION_ITEM(''));
#263=EDGE_CURVE('',#252,#220,#262,.T.);
#264=ORIENTED_EDGE('',*,*,#263,.T.);
#265=EDGE_LOOP('',(#228,#234,#235,#241,#242,#250,#258,#264));
#266=FACE_OUTER_BOUND('',#265,.T.);
#267=ADVANCED_FACE('',(#266),#218,.T.);
#268=CARTESIAN_POINT('',(3.,-5.1961524227066,3.));
#269=DIRECTION('',(0.,-0.5,-0.86602540378444));
#270=DIRECTION('',(0.,-0.86602540378444,0.5));
#271=AXIS2_PLACEMENT_3D('',#268,#270,#269);
#272=PLANE('',#271);
#273=CARTESIAN_POINT('',(6.,-5.2941945361997,2.8301860781341));
#274=VERTEX_POINT('',#273);
#275=CARTESIAN_POINT('',(6.,-5.0981103092866,3.1698139217209));
#276=VERTEX_POINT('',#275);
#277=CARTESIAN_POINT('',(6.,-5.2941945361997,2.8301860781341));
#278=DIRECTION('',(0.,0.49999999998847,0.8660254037911));
#279=VECTOR('',#278,0.39216845383525);
#280=LINE('',#277,#279);
#281=EDGE_CURVE('',#274,#276,#280,.T.);
#282=ORIENTED_EDGE('',*,*,#281,.T.);
#283=CARTESIAN_POINT('',(6.,-5.0981103093188,3.1698139216692));
#284=CARTESIAN_POINT('',(5.9464277948594,-4.3395473253827,4.4836835505875));
#285=CARTESIAN_POINT('',(5.,-3.4641016151378,6.));
#286=(BOUNDED_CURVE()B_SPLINE_CURVE(2,(#283,#284,#285),.HYPERBOLIC_ARC.,.F.,.U.)B_SPLINE_CURVE_WITH_KNOTS((3,3),(0.,1.),.UNSPECIFIED.)CURVE()GEOMETRIC_REPRESENTATION_ITEM()RATIONAL_B_SPLINE_CURVE((1.0770627625188,1.0726344746246,1.))REPRESENTATION_ITEM(''));
#287=EDGE_CURVE('',#276,#252,#286,.T.);
#288=ORIENTED_EDGE('',*,*,#287,.T.);
#289=ORIENTED_EDGE('',*,*,#257,.F.);
#290=CARTESIAN_POINT('',(1.,-3.4641016151378,6.));
#291=CARTESIAN_POINT('',(0.053572205140672,-4.3395473253826,4.4836835505876));
#292=CARTESIAN_POINT('',(0.,-5.0981103093186,3.1698139216694));
#293=(BOUNDED_CURVE()B_SPLINE_CURVE(2,(#290,#291,#292),.HYPERBOLIC_ARC.,.F.,.U.)B_SPLINE_CURVE_WITH_KNOTS((3,3),(0.,1.),.UNSPECIFIED.)CURVE()GEOMETRIC_REPRESENTATION_ITEM()RATIONAL_B_SPLINE_CURVE((1.,1.0726344746246,1.0770627625188))REPRESENTATION_ITEM(''));
#294=EDGE_CURVE('',#244,#98,#293,.T.);
#295=ORIENTED_EDGE('',*,*,#294,.T.);
#296=ORIENTED_EDGE('',*,*,#103,.F.);
#297=CARTESIAN_POINT('',(1.,-6.9282032302755,-1.086712744501E-14));
#298=VERTEX_POINT('',#297);
#299=CARTESIAN_POINT('',(0.,-5.2941945360946,2.8301860783306));
#300=CARTESIAN_POINT('',(0.053572205140672,-6.0527575200306,1.5163164494123));
#301=CARTESIAN_POINT('',(1.,-6.9282032302755,-6.6613381477509E-15));
#302=(BOUNDED_CURVE()B_SPLINE_CURVE(2,(#299,#300,#301),.HYPERBOLIC_ARC.,.F.,.U.)B_SPLINE_CURVE_WITH_KNOTS((3,3),(0.,1.),.UNSPECIFIED.)CURVE()GEOMETRIC_REPRESENTATION_ITEM()RATIONAL_B_SPLINE_CURVE((1.0770627625188,1.0726344746246,1.))REPRESENTATION_ITEM(''));
#303=EDGE_CURVE('',#89,#298,#302,.T.);
#304=ORIENTED_EDGE('',*,*,#303,.T.);
#305=CARTESIAN_POINT('',(5.,-6.9282032302755,-1.1854019874919E-14));
#306=VERTEX_POINT('',#305);
#307=CARTESIAN_POINT('',(1.,-6.9282032302755,-1.086712744501E-14));
#308=DIRECTION('',(1.,0.,-2.4672310747725E-16));
#309=VECTOR('',#308,4.);
#310=LINE('',#307,#309);
#311=EDGE_CURVE('',#298,#306,#310,.T.);
#312=ORIENTED_EDGE('',*,*,#311,.T.);
#313=CARTESIAN_POINT('',(5.,-6.9282032302755,-7.5495165674511E-15));
#314=CARTESIAN_POINT('',(5.9464277948594,-6.0527575200306,1.5163164494125));
#315=CARTESIAN_POINT('',(6.,-5.2941945360945,2.8301860783308));
#316=(BOUNDED_CURVE()B_SPLINE_CURVE(2,(#313,#314,#315),.HYPERBOLIC_ARC.,.F.,.U.)B_SPLINE_CURVE_WITH_KNOTS((3,3),(0.,1.),.UNSPECIFIED.)CURVE()GEOMETRIC_REPRESENTATION_ITEM()RATIONAL_B_SPLINE_CURVE((1.,1.0726344746246,1.0770627625188))REPRESENTATION_ITEM(''));
#317=EDGE_CURVE('',#306,#274,#316,.T.);
#318=ORIENTED_EDGE('',*,*,#317,.T.);
#319=EDGE_LOOP('',(#282,#288,#289,#295,#296,#304,#312,#318));
#320=FACE_OUTER_BOUND('',#319,.T.);
#321=ADVANCED_FACE('',(#320),#272,.T.);
#322=CARTESIAN_POINT('',(3.,-5.1961524227066,-3.));
#323=DIRECTION('',(0.,0.5,-0.86602540378444));
#324=DIRECTION('',(0.,-0.86602540378444,-0.5));
#325=AXIS2_PLACEMENT_3D('',#322,#324,#323);
#326=PLANE('',#325);
#327=CARTESIAN_POINT('',(6.,-5.0981103092167,-3.1698139218334));
#328=VERTEX_POINT('',#327);
#329=CARTESIAN_POINT('',(6.,-5.2941945361997,-2.830186078134));
#330=VERTEX_POINT('',#329);
#331=CARTESIAN_POINT('',(6.,-5.0981103092167,-3.1698139218334));
#332=DIRECTION('',(0.,-0.49999999999782,0.8660254037857));
#333=VECTOR('',#332,0.39216845396771);
#334=LINE('',#331,#333);
#335=EDGE_CURVE('',#328,#330,#334,.T.);
#336=ORIENTED_EDGE('',*,*,#335,.T.);
#337=CARTESIAN_POINT('',(6.,-5.2941945360945,-2.8301860783308));
#338=CARTESIAN_POINT('',(5.9464277948594,-6.0527575200306,-1.5163164494125));
#339=CARTESIAN_POINT('',(5.,-6.9282032302755,-1.1546319456102E-14));
#340=(BOUNDED_CURVE()B_SPLINE_CURVE(2,(#337,#338,#339),.HYPERBOLIC_ARC.,.F.,.U.)B_SPLINE_CURVE_WITH_KNOTS((3,3),(0.,1.),.UNSPECIFIED.)CURVE()GEOMETRIC_REPRESENTATION_ITEM()RATIONAL_B_SPLINE_CURVE((1.0770627625188,1.0726344746246,1.))REPRESENTATION_ITEM(''));
#341=EDGE_CURVE('',#330,#306,#340,.T.);
#342=ORIENTED_EDGE('',*,*,#341,.T.);
#343=ORIENTED_EDGE('',*,*,#311,.F.);
#344=CARTESIAN_POINT('',(1.,-6.9282032302755,-1.2434497875802E-14));
#345=CARTESIAN_POINT('',(0.053572205140704,-6.0527575200307,-1.5163164494123));
#346=CARTESIAN_POINT('',(0.,-5.2941945360947,-2.8301860783305));
#347=(BOUNDED_CURVE()B_SPLINE_CURVE(2,(#344,#345,#346),.HYPERBOLIC_ARC.,.F.,.U.)B_SPLINE_CURVE_WITH_KNOTS((3,3),(0.,1.),.UNSPECIFIED.)CURVE()GEOMETRIC_REPRESENTATION_ITEM()RATIONAL_B_SPLINE_CURVE((1.,1.0726344746246,1.0770627625188))REPRESENTATION_ITEM(''));
#348=EDGE_CURVE('',#298,#81,#347,.T.);
#349=ORIENTED_EDGE('',*,*,#348,.T.);
#350=ORIENTED_EDGE('',*,*,#86,.F.);
#351=CARTESIAN_POINT('',(1.,-3.4641016151377,-6.));
#352=VERTEX_POINT('',#351);
#353=CARTESIAN_POINT('',(0.,-5.0981103093186,-3.1698139216695));
#354=CARTESIAN_POINT('',(0.053572205140704,-4.3395473253826,-4.4836835505877));
#355=CARTESIAN_POINT('',(1.,-3.4641016151377,-6.));
#356=(BOUNDED_CURVE()B_SPLINE_CURVE(2,(#353,#354,#355),.HYPERBOLIC_ARC.,.F.,.U.)B_SPLINE_CURVE_WITH_KNOTS((3,3),(0.,1.),.UNSPECIFIED.)CURVE()GEOMETRIC_REPRESENTATION_ITEM()RATIONAL_B_SPLINE_CURVE((1.0770627625188,1.0726344746246,1.))REPRESENTATION_ITEM(''));
#357=EDGE_CURVE('',#72,#352,#356,.T.);
#358=ORIENTED_EDGE('',*,*,#357,.T.);
#359=CARTESIAN_POINT('',(5.,-3.4641016151377,-6.));
#360=VERTEX_POINT('',#359);
#361=CARTESIAN_POINT('',(1.,-3.4641016151377,-6.));
#362=DIRECTION('',(1.,0.,0.));
#363=VECTOR('',#362,4.);
#364=LINE('',#361,#363);
#365=EDGE_CURVE('',#352,#360,#364,.T.);
#366=ORIENTED_EDGE('',*,*,#365,.T.);
#367=CARTESIAN_POINT('',(5.,-3.4641016151377,-6.));
#368=CARTESIAN_POINT('',(5.9464277948594,-4.3395473253827,-4.4836835505875));
#369=CARTESIAN_POINT('',(6.,-5.0981103093188,-3.1698139216692));
#370=(BOUNDED_CURVE()B_SPLINE_CURVE(2,(#367,#368,#369),.HYPERBOLIC_ARC.,.F.,.U.)B_SPLINE_CURVE_WITH_KNOTS((3,3),(0.,1.),.UNSPECIFIED.)CURVE()GEOMETRIC_REPRESENTATION_ITEM()RATIONAL_B_SPLINE_CURVE((1.,1.0726344746246,1.0770627625188))REPRESENTATION_ITEM(''));
#371=EDGE_CURVE('',#360,#328,#370,.T.);
#372=ORIENTED_EDGE('',*,*,#371,.T.);
#373=EDGE_LOOP('',(#336,#342,#343,#349,#350,#358,#366,#372));
#374=FACE_OUTER_BOUND('',#373,.T.);
#375=ADVANCED_FACE('',(#374),#326,.T.);
#376=CARTESIAN_POINT('',(3.,8.8817841970013E-15,-6.));
#377=DIRECTION('',(0.,1.,1.5383701491068E-15));
#378=DIRECTION('',(0.,1.5383701491068E-15,-1.));
#379=AXIS2_PLACEMENT_3D('',#376,#378,#377);
#380=PLANE('',#379);
#381=ORIENTED_EDGE('',*,*,#365,.F.);
#382=CARTESIAN_POINT('',(1.,-3.4641016151377,-6.));
#383=CARTESIAN_POINT('',(0.053572205140723,-1.7132101946481,-6.));
#384=CARTESIAN_POINT('',(4.1231507141841E-16,-0.19608422677617,-6.));
#385=(BOUNDED_CURVE()B_SPLINE_CURVE(2,(#382,#383,#384),.HYPERBOLIC_ARC.,.F.,.U.)B_SPLINE_CURVE_WITH_KNOTS((3,3),(0.,1.),.UNSPECIFIED.)CURVE()GEOMETRIC_REPRESENTATION_ITEM()RATIONAL_B_SPLINE_CURVE((1.,1.0726344746246,1.0770627625188))REPRESENTATION_ITEM(''));
#386=EDGE_CURVE('',#352,#64,#385,.T.);
#387=ORIENTED_EDGE('',*,*,#386,.T.);
#388=ORIENTED_EDGE('',*,*,#69,.F.);
#389=CARTESIAN_POINT('',(1.,3.4641016151378,-6.));
#390=VERTEX_POINT('',#389);
#391=CARTESIAN_POINT('',(0.,0.1960842267762,-6.));
#392=CARTESIAN_POINT('',(0.053572205140723,1.7132101946481,-6.));
#393=CARTESIAN_POINT('',(1.,3.4641016151378,-6.));
#394=(BOUNDED_CURVE()B_SPLINE_CURVE(2,(#391,#392,#393),.HYPERBOLIC_ARC.,.F.,.U.)B_SPLINE_CURVE_WITH_KNOTS((3,3),(0.,1.),.UNSPECIFIED.)CURVE()GEOMETRIC_REPRESENTATION_ITEM()RATIONAL_B_SPLINE_CURVE((1.0770627625188,1.0726344746246,1.))REPRESENTATION_ITEM(''));
#395=EDGE_CURVE('',#55,#390,#394,.T.);
#396=ORIENTED_EDGE('',*,*,#395,.T.);
#397=CARTESIAN_POINT('',(5.,3.4641016151378,-6.));
#398=VERTEX_POINT('',#397);
#399=CARTESIAN_POINT('',(1.,3.4641016151378,-6.));
#400=DIRECTION('',(1.,0.,0.));
#401=VECTOR('',#400,4.);
#402=LINE('',#399,#401);
#403=EDGE_CURVE('',#390,#398,#402,.T.);
#404=ORIENTED_EDGE('',*,*,#403,.T.);
#405=CARTESIAN_POINT('',(6.,0.19608422704019,-5.9999999999914));
#406=VERTEX_POINT('',#405);
#407=CARTESIAN_POINT('',(5.,3.4641016151378,-6.));
#408=CARTESIAN_POINT('',(5.9464277948594,1.7132101946479,-6.));
#409=CARTESIAN_POINT('',(6.,0.19608422677571,-6.));
#410=(BOUNDED_CURVE()B_SPLINE_CURVE(2,(#407,#408,#409),.HYPERBOLIC_ARC.,.F.,.U.)B_SPLINE_CURVE_WITH_KNOTS((3,3),(0.,1.),.UNSPECIFIED.)CURVE()GEOMETRIC_REPRESENTATION_ITEM()RATIONAL_B_SPLINE_CURVE((1.,1.0726344746246,1.0770627625188))REPRESENTATION_ITEM(''));
#411=EDGE_CURVE('',#398,#406,#410,.T.);
#412=ORIENTED_EDGE('',*,*,#411,.T.);
#413=CARTESIAN_POINT('',(6.,-0.19608422704016,-5.9999999999914));
#414=VERTEX_POINT('',#413);
#415=CARTESIAN_POINT('',(6.,0.19608422704019,-5.9999999999914));
#416=DIRECTION('',(0.,-1.,0.));
#417=VECTOR('',#416,0.39216845408035);
#418=LINE('',#415,#417);
#419=EDGE_CURVE('',#406,#414,#418,.T.);
#420=ORIENTED_EDGE('',*,*,#419,.T.);
#421=CARTESIAN_POINT('',(6.,-0.19608422677568,-6.));
#422=CARTESIAN_POINT('',(5.9464277948594,-1.7132101946478,-6.));
#423=CARTESIAN_POINT('',(5.,-3.4641016151377,-6.));
#424=(BOUNDED_CURVE()B_SPLINE_CURVE(2,(#421,#422,#423),.HYPERBOLIC_ARC.,.F.,.U.)B_SPLINE_CURVE_WITH_KNOTS((3,3),(0.,1.),.UNSPECIFIED.)CURVE()GEOMETRIC_REPRESENTATION_ITEM()RATIONAL_B_SPLINE_CURVE((1.0770627625188,1.0726344746246,1.))REPRESENTATION_ITEM(''));
#425=EDGE_CURVE('',#414,#360,#424,.T.);
#426=ORIENTED_EDGE('',*,*,#425,.T.);
#427=EDGE_LOOP('',(#381,#387,#388,#396,#404,#412,#420,#426));
#428=FACE_OUTER_BOUND('',#427,.T.);
#429=ADVANCED_FACE('',(#428),#380,.T.);
#430=CARTESIAN_POINT('',(3.,5.1961524227066,-3.));
#431=DIRECTION('',(0.,0.5,0.86602540378444));
#432=DIRECTION('',(0.,0.86602540378444,-0.5));
#433=AXIS2_PLACEMENT_3D('',#430,#432,#431);
#434=PLANE('',#433);
#435=ORIENTED_EDGE('',*,*,#403,.F.);
#436=CARTESIAN_POINT('',(1.,3.4641016151378,-6.));
#437=CARTESIAN_POINT('',(0.053572205140716,4.3395473253826,-4.4836835505877));
#438=CARTESIAN_POINT('',(0.,5.0981103093186,-3.1698139216696));
#439=(BOUNDED_CURVE()B_SPLINE_CURVE(2,(#436,#437,#438),.HYPERBOLIC_ARC.,.F.,.U.)B_SPLINE_CURVE_WITH_KNOTS((3,3),(0.,1.),.UNSPECIFIED.)CURVE()GEOMETRIC_REPRESENTATION_ITEM()RATIONAL_B_SPLINE_CURVE((1.,1.0726344746246,1.0770627625188))REPRESENTATION_ITEM(''));
#440=EDGE_CURVE('',#390,#47,#439,.T.);
#441=ORIENTED_EDGE('',*,*,#440,.T.);
#442=ORIENTED_EDGE('',*,*,#52,.F.);
#443=CARTESIAN_POINT('',(0.,5.2941945360947,-2.8301860783304));
#444=CARTESIAN_POINT('',(0.053572205140715,6.0527575200307,-1.5163164494123));
#445=CARTESIAN_POINT('',(1.,6.9282032302755,1.1102230246252E-14));
#446=(BOUNDED_CURVE()B_SPLINE_CURVE(2,(#443,#444,#445),.HYPERBOLIC_ARC.,.F.,.U.)B_SPLINE_CURVE_WITH_KNOTS((3,3),(0.,1.),.UNSPECIFIED.)CURVE()GEOMETRIC_REPRESENTATION_ITEM()RATIONAL_B_SPLINE_CURVE((1.0770627625188,1.0726344746246,1.))REPRESENTATION_ITEM(''));
#447=EDGE_CURVE('',#38,#175,#446,.T.);
#448=ORIENTED_EDGE('',*,*,#447,.T.);
#449=ORIENTED_EDGE('',*,*,#180,.F.);
#450=CARTESIAN_POINT('',(6.,5.2941945361996,-2.8301860781341));
#451=VERTEX_POINT('',#450);
#452=CARTESIAN_POINT('',(5.,6.9282032302755,5.7731597280508E-15));
#453=CARTESIAN_POINT('',(5.9464277948594,6.0527575200306,-1.5163164494125));
#454=CARTESIAN_POINT('',(6.,5.2941945360945,-2.8301860783308));
#455=(BOUNDED_CURVE()B_SPLINE_CURVE(2,(#452,#453,#454),.HYPERBOLIC_ARC.,.F.,.U.)B_SPLINE_CURVE_WITH_KNOTS((3,3),(0.,1.),.UNSPECIFIED.)CURVE()GEOMETRIC_REPRESENTATION_ITEM()RATIONAL_B_SPLINE_CURVE((1.,1.0726344746246,1.0770627625188))REPRESENTATION_ITEM(''));
#456=EDGE_CURVE('',#167,#451,#455,.T.);
#457=ORIENTED_EDGE('',*,*,#456,.T.);
#458=CARTESIAN_POINT('',(6.,5.0981103092159,-3.1698139218347));
#459=VERTEX_POINT('',#458);
#460=CARTESIAN_POINT('',(6.,5.2941945361996,-2.8301860781341));
#461=DIRECTION('',(0.,-0.49999999999783,-0.86602540378569));
#462=VECTOR('',#461,0.3921684539691);
#463=LINE('',#460,#462);
#464=EDGE_CURVE('',#451,#459,#463,.T.);
#465=ORIENTED_EDGE('',*,*,#464,.T.);
#466=CARTESIAN_POINT('',(6.,5.0981103093188,-3.1698139216692));
#467=CARTESIAN_POINT('',(5.9464277948594,4.3395473253827,-4.4836835505875));
#468=CARTESIAN_POINT('',(5.,3.4641016151378,-6.));
#469=(BOUNDED_CURVE()B_SPLINE_CURVE(2,(#466,#467,#468),.HYPERBOLIC_ARC.,.F.,.U.)B_SPLINE_CURVE_WITH_KNOTS((3,3),(0.,1.),.UNSPECIFIED.)CURVE()GEOMETRIC_REPRESENTATION_ITEM()RATIONAL_B_SPLINE_CURVE((1.0770627625188,1.0726344746246,1.))REPRESENTATION_ITEM(''));
#470=EDGE_CURVE('',#459,#398,#469,.T.);
#471=ORIENTED_EDGE('',*,*,#470,.T.);
#472=EDGE_LOOP('',(#435,#441,#442,#448,#449,#457,#465,#471));
#473=FACE_OUTER_BOUND('',#472,.T.);
#474=ADVANCED_FACE('',(#473),#434,.T.);
#475=CARTESIAN_POINT('',(-6.4899494381357,3.7052525006568E-16,2.8549555601068E-15));
#476=DIRECTION('',(6.5079475543134E-17,-0.49999999999941,-0.86602540378478));
#477=DIRECTION('',(1.,7.4178641324968E-17,3.2320246910043E-17));
#478=AXIS2_PLACEMENT_3D('',#475,#477,#476);
#479=CONICAL_SURFACE('',#478,0.,0.74645682030041);
#480=ORIENTED_EDGE('',*,*,#129,.F.);
#481=ORIENTED_EDGE('',*,*,#240,.F.);
#482=ORIENTED_EDGE('',*,*,#195,.F.);
#483=EDGE_LOOP('',(#480,#481,#482));
#484=FACE_OUTER_BOUND('',#483,.T.);
#485=ADVANCED_FACE('',(#484),#479,.T.);
#486=CARTESIAN_POINT('',(-6.4899494381357,3.7052525006568E-16,2.8549555601068E-15));
#487=DIRECTION('',(1.5567393678569E-16,0.50000000000162,-0.8660254037835));
#488=DIRECTION('',(1.,-5.9868720063231E-17,1.4519155697356E-16));
#489=AXIS2_PLACEMENT_3D('',#486,#488,#487);
#490=CONICAL_SURFACE('',#489,0.,0.74645682030041);
#491=ORIENTED_EDGE('',*,*,#112,.F.);
#492=ORIENTED_EDGE('',*,*,#294,.F.);
#493=ORIENTED_EDGE('',*,*,#249,.F.);
#494=EDGE_LOOP('',(#491,#492,#493));
#495=FACE_OUTER_BOUND('',#494,.T.);
#496=ADVANCED_FACE('',(#495),#490,.T.);
#497=CARTESIAN_POINT('',(-6.4899494381357,3.7052525006568E-16,2.8549555601068E-15));
#498=DIRECTION('',(6.1907089706369E-17,1.,1.3098923581914E-11));
#499=DIRECTION('',(1.,-6.1907089706968E-17,4.5736717986527E-17));
#500=AXIS2_PLACEMENT_3D('',#497,#499,#498);
#501=CONICAL_SURFACE('',#500,0.,0.74645682030041);
#502=ORIENTED_EDGE('',*,*,#95,.F.);
#503=ORIENTED_EDGE('',*,*,#348,.F.);
#504=ORIENTED_EDGE('',*,*,#303,.F.);
#505=EDGE_LOOP('',(#502,#503,#504));
#506=FACE_OUTER_BOUND('',#505,.T.);
#507=ADVANCED_FACE('',(#506),#501,.T.);
#508=CARTESIAN_POINT('',(-6.4899494381357,3.7052525006568E-16,2.8549555601068E-15));
#509=DIRECTION('',(-2.5514985699425E-17,0.50000000000336,0.8660254037825));
#510=DIRECTION('',(1.,-5.2552065927015E-17,5.9803117133636E-17));
#511=AXIS2_PLACEMENT_3D('',#508,#510,#509);
#512=CONICAL_SURFACE('',#511,0.,0.74645682030041);
#513=ORIENTED_EDGE('',*,*,#78,.F.);
#514=ORIENTED_EDGE('',*,*,#386,.F.);
#515=ORIENTED_EDGE('',*,*,#357,.F.);
#516=EDGE_LOOP('',(#513,#514,#515));
#517=FACE_OUTER_BOUND('',#516,.T.);
#518=ADVANCED_FACE('',(#517),#512,.T.);
#519=CARTESIAN_POINT('',(-6.4899494381357,3.7052525006568E-16,2.8549555601068E-15));
#520=DIRECTION('',(2.8099008288566E-17,-0.50000000000161,0.86602540378351));
#521=DIRECTION('',(1.,-3.3046653806999E-16,-2.2324088471245E-16));
#522=AXIS2_PLACEMENT_3D('',#519,#521,#520);
#523=CONICAL_SURFACE('',#522,0.,0.74645682030041);
#524=ORIENTED_EDGE('',*,*,#61,.F.);
#525=ORIENTED_EDGE('',*,*,#440,.F.);
#526=ORIENTED_EDGE('',*,*,#395,.F.);
#527=EDGE_LOOP('',(#524,#525,#526));
#528=FACE_OUTER_BOUND('',#527,.T.);
#529=ADVANCED_FACE('',(#528),#523,.T.);
#530=CARTESIAN_POINT('',(-6.4899494381358,-7.7180934074153E-14,2.183075913477E-14));
#531=DIRECTION('',(-2.7189958248575E-16,-1.,6.117803788059E-11));
#532=DIRECTION('',(1.,-2.7189958247895E-16,1.1120999569744E-16));
#533=AXIS2_PLACEMENT_3D('',#530,#532,#531);
#534=CONICAL_SURFACE('',#533,0.,0.74645682030041);
#535=ORIENTED_EDGE('',*,*,#186,.F.);
#536=ORIENTED_EDGE('',*,*,#447,.F.);
#537=ORIENTED_EDGE('',*,*,#44,.F.);
#538=EDGE_LOOP('',(#535,#536,#537));
#539=FACE_OUTER_BOUND('',#538,.T.);
#540=ADVANCED_FACE('',(#539),#534,.T.);
#541=CARTESIAN_POINT('',(12.489949438136,-1.1135961179201E-15,-4.3947471840785E-15));
#542=DIRECTION('',(3.7635866016125E-17,1.,-2.5402203923225E-15));
#543=DIRECTION('',(-1.,3.7635866016125E-17,1.1747359424362E-16));
#544=AXIS2_PLACEMENT_3D('',#541,#543,#542);
#545=CONICAL_SURFACE('',#544,0.,0.74645682030041);
#546=CARTESIAN_POINT('',(6.,-6.2172489379009E-15,3.255246011917E-16));
#547=DIRECTION('',(4.4385224968938E-16,-0.8818949372728,-0.47144598801199));
#548=DIRECTION('',(-1.,-7.8294034607875E-16,1.5691166502482E-16));
#549=AXIS2_PLACEMENT_3D('',#546,#548,#547);
#550=CIRCLE('',#549,6.0032032302755);
#551=EDGE_CURVE('',#330,#274,#550,.T.);
#552=ORIENTED_EDGE('',*,*,#551,.T.);
#553=ORIENTED_EDGE('',*,*,#317,.F.);
#554=ORIENTED_EDGE('',*,*,#341,.F.);
#555=EDGE_LOOP('',(#552,#553,#554));
#556=FACE_OUTER_BOUND('',#555,.T.);
#557=ADVANCED_FACE('',(#556),#545,.T.);
#558=CARTESIAN_POINT('',(12.489949438136,-1.1135961179201E-15,-4.3947471840785E-15));
#559=DIRECTION('',(1.9523842662939E-16,0.50000000000164,0.86602540378349));
#560=DIRECTION('',(-1.,-2.729749734511E-17,2.4120213378199E-16));
#561=AXIS2_PLACEMENT_3D('',#558,#560,#559);
#562=CONICAL_SURFACE('',#561,0.,0.74645682030041);
#563=CARTESIAN_POINT('',(6.,4.8849813083507E-15,6.2172489379009E-15));
#564=DIRECTION('',(-7.3975374948231E-16,-0.032663266512662,-0.9994664131529));
#565=DIRECTION('',(-1.,3.5232315574043E-16,6.1024160641707E-16));
#566=AXIS2_PLACEMENT_3D('',#563,#565,#564);
#567=CIRCLE('',#566,6.0032032302755);
#568=EDGE_CURVE('',#414,#328,#567,.T.);
#569=ORIENTED_EDGE('',*,*,#568,.T.);
#570=ORIENTED_EDGE('',*,*,#371,.F.);
#571=ORIENTED_EDGE('',*,*,#425,.F.);
#572=EDGE_LOOP('',(#569,#570,#571));
#573=FACE_OUTER_BOUND('',#572,.T.);
#574=ADVANCED_FACE('',(#573),#562,.T.);
#575=CARTESIAN_POINT('',(12.489949438136,-1.1135961179201E-15,-4.3947471840785E-15));
#576=DIRECTION('',(1.416244326414E-16,-0.50000000000161,0.86602540378351));
#577=DIRECTION('',(-1.,8.3477556456353E-17,2.1172959831043E-16));
#578=AXIS2_PLACEMENT_3D('',#575,#577,#576);
#579=CONICAL_SURFACE('',#578,0.,0.74645682030041);
#580=CARTESIAN_POINT('',(6.,3.9968028886506E-15,-3.5527136788005E-15));
#581=DIRECTION('',(7.3975374948231E-16,0.84923167076953,-0.52802042513713));
#582=DIRECTION('',(-1.,3.5232315574054E-16,-6.1024160641743E-16));
#583=AXIS2_PLACEMENT_3D('',#580,#582,#581);
#584=CIRCLE('',#583,6.0032032302755);
#585=EDGE_CURVE('',#459,#406,#584,.T.);
#586=ORIENTED_EDGE('',*,*,#585,.T.);
#587=ORIENTED_EDGE('',*,*,#411,.F.);
#588=ORIENTED_EDGE('',*,*,#470,.F.);
#589=EDGE_LOOP('',(#586,#587,#588));
#590=FACE_OUTER_BOUND('',#589,.T.);
#591=ADVANCED_FACE('',(#590),#579,.T.);
#592=CARTESIAN_POINT('',(12.489949438136,-9.6091426185099E-14,2.3920428772932E-14));
#593=DIRECTION('',(-7.2523429668417E-15,-1.,-6.1165860883379E-11));
#594=DIRECTION('',(-1.,7.2523429669637E-15,-1.9948028234281E-15));
#595=AXIS2_PLACEMENT_3D('',#592,#594,#593);
#596=CONICAL_SURFACE('',#595,0.,0.7464568203004);
#597=ORIENTED_EDGE('',*,*,#172,.F.);
#598=CARTESIAN_POINT('',(6.,9.7699626167014E-15,-1.9021803066321E-15));
#599=DIRECTION('',(5.9180299958585E-16,0.88189493709203,0.47144598835014));
#600=DIRECTION('',(-1.,7.0464631090153E-16,1.5691166510363E-16));
#601=AXIS2_PLACEMENT_3D('',#598,#600,#599);
#602=CIRCLE('',#601,6.0032032302755);
#603=EDGE_CURVE('',#159,#451,#602,.T.);
#604=ORIENTED_EDGE('',*,*,#603,.T.);
#605=ORIENTED_EDGE('',*,*,#456,.F.);
#606=EDGE_LOOP('',(#597,#604,#605));
#607=FACE_OUTER_BOUND('',#606,.T.);
#608=ADVANCED_FACE('',(#607),#596,.T.);
#609=CARTESIAN_POINT('',(12.489949438136,-1.1135961179201E-15,-4.3947471840785E-15));
#610=DIRECTION('',(-3.5091236341508E-16,-0.5000000000016,-0.86602540378352));
#611=DIRECTION('',(-1.,3.2571222718104E-17,3.8639369075554E-16));
#612=AXIS2_PLACEMENT_3D('',#609,#611,#610);
#613=CONICAL_SURFACE('',#612,0.,0.74645682030041);
#614=CARTESIAN_POINT('',(6.,0.,1.7763568394003E-15));
#615=DIRECTION('',(2.9590149979292E-16,0.032663266512666,0.9994664131529));
#616=DIRECTION('',(-1.,1.5658806921802E-16,2.7121849174109E-16));
#617=AXIS2_PLACEMENT_3D('',#614,#616,#615);
#618=CIRCLE('',#617,6.0032032302755);
#619=EDGE_CURVE('',#222,#157,#618,.T.);
#620=ORIENTED_EDGE('',*,*,#619,.T.);
#621=ORIENTED_EDGE('',*,*,#209,.F.);
#622=ORIENTED_EDGE('',*,*,#233,.F.);
#623=EDGE_LOOP('',(#620,#621,#622));
#624=FACE_OUTER_BOUND('',#623,.T.);
#625=ADVANCED_FACE('',(#624),#613,.T.);
#626=CARTESIAN_POINT('',(12.489949438136,-1.1135961179201E-15,-4.3947471840785E-15));
#627=DIRECTION('',(-1.9265440404025E-16,0.5000000000049,-0.86602540378161));
#628=DIRECTION('',(-1.,1.8858168830936E-16,3.313358325782E-16));
#629=AXIS2_PLACEMENT_3D('',#626,#628,#627);
#630=CONICAL_SURFACE('',#629,0.,0.74645682030041);
#631=CARTESIAN_POINT('',(6.,-1.3322676295502E-15,-2.6645352591004E-15));
#632=DIRECTION('',(-1.4795074989646E-16,-0.84923167078131,0.52802042511818));
#633=DIRECTION('',(-1.,7.8294034607377E-17,-1.3560924586398E-16));
#634=AXIS2_PLACEMENT_3D('',#631,#633,#632);
#635=CIRCLE('',#634,6.0032032302756);
#636=EDGE_CURVE('',#276,#220,#635,.T.);
#637=ORIENTED_EDGE('',*,*,#636,.T.);
#638=ORIENTED_EDGE('',*,*,#263,.F.);
#639=ORIENTED_EDGE('',*,*,#287,.F.);
#640=EDGE_LOOP('',(#637,#638,#639));
#641=FACE_OUTER_BOUND('',#640,.T.);
#642=ADVANCED_FACE('',(#641),#630,.T.);
#643=CARTESIAN_POINT('',(6.,-8.8817841970013E-16,1.3877787807814E-15));
#644=DIRECTION('',(-5.3828995133341E-16,-2.6914497566671E-16,-1.));
#645=DIRECTION('',(-1.,3.9018731021667E-16,-3.4231876592609E-16));
#646=AXIS2_PLACEMENT_3D('',#643,#645,#644);
#647=CYLINDRICAL_SURFACE('',#646,1.65);
#648=CARTESIAN_POINT('',(6.,-1.3322676295502E-15,-1.65));
#649=VERTEX_POINT('',#648);
#650=CARTESIAN_POINT('',(6.,-1.3322676295502E-15,-1.65));
#651=DIRECTION('',(-1.,3.9018731021668E-16,0.));
#652=VECTOR('',#651,6.);
#653=LINE('',#650,#652);
#654=EDGE_CURVE('',#649,#140,#653,.T.);
#655=ORIENTED_EDGE('',*,*,#654,.T.);
#656=ORIENTED_EDGE('',*,*,#146,.F.);
#657=ORIENTED_EDGE('',*,*,#654,.F.);
#658=CARTESIAN_POINT('',(6.,-1.1752583836818E-15,2.4424906541753E-15));
#659=DIRECTION('',(4.1328123574767E-16,-9.5157118708108E-17,-1.));
#660=DIRECTION('',(1.,-9.5157118708107E-16,4.1328123574767E-16));
#661=AXIS2_PLACEMENT_3D('',#658,#660,#659);
#662=CIRCLE('',#661,1.65);
#663=EDGE_CURVE('',#649,#649,#662,.T.);
#664=ORIENTED_EDGE('',*,*,#663,.T.);
#665=EDGE_LOOP('',(#655,#656,#657,#664));
#666=FACE_OUTER_BOUND('',#665,.T.);
#667=ADVANCED_FACE('',(#666),#647,.F.);
#668=CARTESIAN_POINT('',(6.,0.,0.050889059708373));
#669=DIRECTION('',(0.,1.,0.));
#670=DIRECTION('',(1.,0.,0.));
#671=AXIS2_PLACEMENT_3D('',#668,#670,#669);
#672=PLANE('',#671);
#673=ORIENTED_EDGE('',*,*,#281,.F.);
#674=ORIENTED_EDGE('',*,*,#551,.F.);
#675=ORIENTED_EDGE('',*,*,#335,.F.);
#676=ORIENTED_EDGE('',*,*,#568,.F.);
#677=ORIENTED_EDGE('',*,*,#419,.F.);
#678=ORIENTED_EDGE('',*,*,#585,.F.);
#679=ORIENTED_EDGE('',*,*,#464,.F.);
#680=ORIENTED_EDGE('',*,*,#603,.F.);
#681=ORIENTED_EDGE('',*,*,#164,.F.);
#682=ORIENTED_EDGE('',*,*,#619,.F.);
#683=ORIENTED_EDGE('',*,*,#227,.F.);
#684=ORIENTED_EDGE('',*,*,#636,.F.);
#685=EDGE_LOOP('',(#673,#674,#675,#676,#677,#678,#679,#680,#681,#682,#683,#684));
#686=FACE_OUTER_BOUND('',#685,.T.);
#687=CARTESIAN_POINT('',(6.,5.9,-1.9721522630525E-31));
#688=VERTEX_POINT('',#687);
#689=CARTESIAN_POINT('',(6.,2.6645352591004E-15,-3.1401849173676E-16));
#690=DIRECTION('',(5.3223473175721E-17,1.,5.3223473175721E-17));
#691=DIRECTION('',(-1.,5.3223473175721E-17,-5.3223473175721E-17));
#692=AXIS2_PLACEMENT_3D('',#689,#691,#690);
#693=CIRCLE('',#692,5.9);
#694=EDGE_CURVE('',#688,#688,#693,.T.);
#695=ORIENTED_EDGE('',*,*,#694,.T.);
#696=EDGE_LOOP('',(#695));
#697=FACE_BOUND('',#696,.T.);
#698=ADVANCED_FACE('',(#686,#697),#672,.T.);
#699=CARTESIAN_POINT('',(6.,0.,0.050889059708375));
#700=DIRECTION('',(0.,1.,0.));
#701=DIRECTION('',(1.,0.,0.));
#702=AXIS2_PLACEMENT_3D('',#699,#701,#700);
#703=PLANE('',#702);
#704=CARTESIAN_POINT('',(6.,4.,-9.7971743931788E-16));
#705=VERTEX_POINT('',#704);
#706=CARTESIAN_POINT('',(6.,-5.3290705182008E-15,2.1604674780497E-15));
#707=DIRECTION('',(2.8707996398168E-16,1.,-7.8504622934189E-16));
#708=DIRECTION('',(1.,-2.8707996398168E-16,1.5700924586838E-16));
#709=AXIS2_PLACEMENT_3D('',#706,#708,#707);
#710=CIRCLE('',#709,4.);
#711=EDGE_CURVE('',#705,#705,#710,.T.);
#712=ORIENTED_EDGE('',*,*,#711,.T.);
#713=EDGE_LOOP('',(#712));
#714=FACE_OUTER_BOUND('',#713,.T.);
#715=ORIENTED_EDGE('',*,*,#663,.F.);
#716=EDGE_LOOP('',(#715));
#717=FACE_BOUND('',#716,.T.);
#718=ADVANCED_FACE('',(#714,#717),#703,.T.);
#719=CARTESIAN_POINT('',(6.,2.2204460492503E-15,-3.5527136788005E-15));
#720=DIRECTION('',(1.5053871520341E-16,1.,6.0215486081364E-16));
#721=DIRECTION('',(1.,-3.9299930075227E-17,0.));
#722=AXIS2_PLACEMENT_3D('',#719,#721,#720);
#723=CYLINDRICAL_SURFACE('',#722,5.9);
#724=ORIENTED_EDGE('',*,*,#694,.F.);
#725=CARTESIAN_POINT('',(17.3,5.9,-1.4450832229939E-15));
#726=VERTEX_POINT('',#725);
#727=CARTESIAN_POINT('',(6.,5.9,-1.9721522630525E-31));
#728=DIRECTION('',(1.,0.,-1.2788347106141E-16));
#729=VECTOR('',#728,11.3);
#730=LINE('',#727,#729);
#731=EDGE_CURVE('',#688,#726,#730,.T.);
#732=ORIENTED_EDGE('',*,*,#731,.T.);
#733=CARTESIAN_POINT('',(17.3,1.5987211554602E-14,-3.0151756816777E-15));
#734=DIRECTION('',(-1.5267840662152E-15,1.,2.6611736587861E-16));
#735=DIRECTION('',(-1.,-1.5267840662152E-15,2.1289389270289E-15));
#736=AXIS2_PLACEMENT_3D('',#733,#735,#734);
#737=CIRCLE('',#736,5.9);
#738=EDGE_CURVE('',#726,#726,#737,.T.);
#739=ORIENTED_EDGE('',*,*,#738,.T.);
#740=ORIENTED_EDGE('',*,*,#731,.F.);
#741=EDGE_LOOP('',(#724,#732,#739,#740));
#742=FACE_OUTER_BOUND('',#741,.T.);
#743=CARTESIAN_POINT('',(13.,-1.65,5.6645829502267));
#744=VERTEX_POINT('',#743);
#745=CARTESIAN_POINT('',(13.,-1.65,5.6645829502268));
#746=CARTESIAN_POINT('',(12.774959812308,-1.65,5.6645829502268));
#747=CARTESIAN_POINT('',(12.099839249231,-1.5118824925185,5.7048143122435));
#748=CARTESIAN_POINT('',(11.605067215543,-0.98516492643193,5.8319501783467));
#749=CARTESIAN_POINT('',(11.255443345662,-0.039474941864086,5.9240938941182));
#750=CARTESIAN_POINT('',(11.344670131778,0.54949564210005,5.8920602718014));
#751=CARTESIAN_POINT('',(12.074375316366,1.5082177183685,5.7272946191186));
#752=CARTESIAN_POINT('',(12.71925626306,1.7506790261797,5.636131663724));
#753=CARTESIAN_POINT('',(14.107618163613,1.4464269018458,5.7225331679314));
#754=CARTESIAN_POINT('',(14.65,0.77943688461587,5.9));
#755=CARTESIAN_POINT('',(14.65,-0.83355570833555,5.9));
#756=CARTESIAN_POINT('',(14.030114297927,-1.5363883280119,5.6974254957699));
#757=CARTESIAN_POINT('',(13.155940915427,-1.6432182624209,5.6665567474459));
#758=CARTESIAN_POINT('',(13.089135054717,-1.6486457287535,5.6649774272035));
#759=CARTESIAN_POINT('',(13.022283763679,-1.65,5.6645829502268));
#760=CARTESIAN_POINT('',(13.,-1.65,5.6645829502268));
#761=B_SPLINE_CURVE_WITH_KNOTS('',3,(#745,#746,#747,#748,#749,#750,#751,#752,#753,#754,#755,#756,#757,#758,#759,#760),.UNSPECIFIED.,.T.,.U.,(4,1,2,2,2,2,2,1,4),(0.,0.3333333310757,0.9999999932271,1.8598509227215,2.8326158047438,3.9902213618804,5.2282032167264,5.2941492867185,5.3271223217146),.UNSPECIFIED.);
#762=EDGE_CURVE('',#744,#744,#761,.T.);
#763=ORIENTED_EDGE('',*,*,#762,.T.);
#764=EDGE_LOOP('',(#763));
#765=FACE_BOUND('',#764,.T.);
#766=CARTESIAN_POINT('',(13.,-1.65,-5.6645829502268));
#767=VERTEX_POINT('',#766);
#768=CARTESIAN_POINT('',(13.,-1.65,-5.6645829502268));
#769=CARTESIAN_POINT('',(13.225040187692,-1.65,-5.6645829502268));
#770=CARTESIAN_POINT('',(13.900160750769,-1.5118824925185,-5.7048143122435));
#771=CARTESIAN_POINT('',(14.394932784457,-0.98516492643181,-5.8319501783467));
#772=CARTESIAN_POINT('',(14.754994697563,-0.011241306271718,-5.9268448507062));
#773=CARTESIAN_POINT('',(14.644704589335,0.60932904626929,-5.8866265638319));
#774=CARTESIAN_POINT('',(13.850992393273,1.5501138443921,-5.7141419929493));
#775=CARTESIAN_POINT('',(13.19967827964,1.7608812417935,-5.6337581615339));
#776=CARTESIAN_POINT('',(11.854105688145,1.4021168362925,-5.7344497304808));
#777=CARTESIAN_POINT('',(11.35,0.7506706326052,-5.9));
#778=CARTESIAN_POINT('',(11.35,-0.83355570268997,-5.9));
#779=CARTESIAN_POINT('',(11.969885702073,-1.5363883280119,-5.6974254957699));
#780=CARTESIAN_POINT('',(12.844059084573,-1.6432182624209,-5.6665567474459));
#781=CARTESIAN_POINT('',(12.910864945283,-1.6486457287535,-5.6649774272035));
#782=CARTESIAN_POINT('',(12.977716236321,-1.65,-5.6645829502268));
#783=CARTESIAN_POINT('',(13.,-1.65,-5.6645829502268));
#784=B_SPLINE_CURVE_WITH_KNOTS('',3,(#768,#769,#770,#771,#772,#773,#774,#775,#776,#777,#778,#779,#780,#781,#782,#783),.UNSPECIFIED.,.T.,.U.,(4,1,2,2,2,2,2,1,4),(0.,0.3333333333333,1.,1.9054252169572,2.8735546186837,3.9905244294272,5.2308241228448,5.2968936618071,5.3299284312882),.UNSPECIFIED.);
#785=EDGE_CURVE('',#767,#767,#784,.T.);
#786=ORIENTED_EDGE('',*,*,#785,.T.);
#787=EDGE_LOOP('',(#786));
#788=FACE_BOUND('',#787,.T.);
#789=ADVANCED_FACE('',(#742,#765,#788),#723,.T.);
#790=CARTESIAN_POINT('',(6.,-1.7763568394003E-15,2.6645352591004E-15));
#791=DIRECTION('',(0.,1.,-9.1106317460454E-16));
#792=DIRECTION('',(1.,3.9299930075227E-17,3.490534978854E-32));
#793=AXIS2_PLACEMENT_3D('',#790,#792,#791);
#794=CYLINDRICAL_SURFACE('',#793,4.);
#795=ORIENTED_EDGE('',*,*,#711,.F.);
#796=CARTESIAN_POINT('',(17.3,4.,-1.9721522630525E-31));
#797=VERTEX_POINT('',#796);
#798=CARTESIAN_POINT('',(6.,4.,-9.7971743931788E-16));
#799=DIRECTION('',(1.,0.,8.6700658346715E-17));
#800=VECTOR('',#799,11.3);
#801=LINE('',#798,#800);
#802=EDGE_CURVE('',#705,#797,#801,.T.);
#803=ORIENTED_EDGE('',*,*,#802,.T.);
#804=CARTESIAN_POINT('',(17.3,-5.3290705182008E-15,1.8841109504205E-15));
#805=DIRECTION('',(-2.6014143622661E-16,1.,-4.7102773760513E-16));
#806=DIRECTION('',(1.,2.6014143622661E-16,-6.2803698347351E-16));
#807=AXIS2_PLACEMENT_3D('',#804,#806,#805);
#808=CIRCLE('',#807,4.);
#809=EDGE_CURVE('',#797,#797,#808,.T.);
#810=ORIENTED_EDGE('',*,*,#809,.T.);
#811=ORIENTED_EDGE('',*,*,#802,.F.);
#812=EDGE_LOOP('',(#795,#803,#810,#811));
#813=FACE_OUTER_BOUND('',#812,.T.);
#814=CARTESIAN_POINT('',(13.,-1.65,3.6438304022004));
#815=VERTEX_POINT('',#814);
#816=CARTESIAN_POINT('',(13.,-1.65,3.6438304022004));
#817=CARTESIAN_POINT('',(13.235188185917,-1.65,3.6438304022004));
#818=CARTESIAN_POINT('',(13.940752743666,-1.4991450469235,3.7121405717478));
#819=CARTESIAN_POINT('',(14.437578555801,-0.92850380084403,3.9151589052808));
#820=CARTESIAN_POINT('',(14.748362858483,0.059071577187304,4.0383935958049));
#821=CARTESIAN_POINT('',(14.621769114761,0.64886554749457,3.9725502225758));
#822=CARTESIAN_POINT('',(13.859289844943,1.5270517954252,3.7258619329526));
#823=CARTESIAN_POINT('',(13.272148528115,1.7337798363965,3.6068792196169));
#824=CARTESIAN_POINT('',(12.023654887677,1.4911036915228,3.71434863801));
#825=CARTESIAN_POINT('',(11.504638316876,0.97252357223164,3.9370511482789));
#826=CARTESIAN_POINT('',(11.281405768095,-0.2082013453288,4.0277984945995));
#827=CARTESIAN_POINT('',(11.431525650281,-0.72541055218874,3.9536077347404));
#828=CARTESIAN_POINT('',(11.976599003796,-1.3284067787241,3.7800385678243));
#829=CARTESIAN_POINT('',(12.379247193897,-1.5843180602924,3.6735725110681));
#830=CARTESIAN_POINT('',(12.844811798474,-1.65,3.6438304022004));
#831=CARTESIAN_POINT('',(13.,-1.65,3.6438304022004));
#832=B_SPLINE_CURVE_WITH_KNOTS('',3,(#816,#817,#818,#819,#820,#821,#822,#823,#824,#825,#826,#827,#828,#829,#830,#831),.UNSPECIFIED.,.T.,.U.,(4,1,2,2,2,2,2,1,4),(0.,0.3333333333333,1.,1.8531310661496,2.7307075964143,3.719732042203,4.4841141566866,4.9293572492462,5.1519787955259),.UNSPECIFIED.);
#833=EDGE_CURVE('',#815,#815,#832,.T.);
#834=ORIENTED_EDGE('',*,*,#833,.T.);
#835=EDGE_LOOP('',(#834));
#836=FACE_BOUND('',#835,.T.);
#837=CARTESIAN_POINT('',(13.,-1.65,-3.6438304022004));
#838=VERTEX_POINT('',#837);
#839=CARTESIAN_POINT('',(13.,-1.65,-3.6438304022004));
#840=CARTESIAN_POINT('',(12.764811814083,-1.65,-3.6438304022004));
#841=CARTESIAN_POINT('',(12.059247256334,-1.4991450469235,-3.7121405717478));
#842=CARTESIAN_POINT('',(11.562421444199,-0.928503800844,-3.9151589052808));
#843=CARTESIAN_POINT('',(11.265362421682,0.015456926671356,-4.0329511373575));
#844=CARTESIAN_POINT('',(11.360153174647,0.55945745279306,-3.9848187898011));
#845=CARTESIAN_POINT('',(11.985258807379,1.4009629009207,-3.7712633840632));
#846=CARTESIAN_POINT('',(12.472684758269,1.65,-3.6438304022004));
#847=CARTESIAN_POINT('',(13.877724663393,1.65,-3.6438304022004));
#848=CARTESIAN_POINT('',(14.593441520265,0.96698345917753,-3.9767054169843));
#849=CARTESIAN_POINT('',(14.682491352912,-0.47538810169709,-4.0133805158571));
#850=CARTESIAN_POINT('',(14.417971322118,-1.0180016670646,-3.8840374550103));
#851=CARTESIAN_POINT('',(13.771727383795,-1.4752016325871,-3.7205270775551));
#852=CARTESIAN_POINT('',(13.455819742439,-1.6145843799551,-3.6598673102406));
#853=CARTESIAN_POINT('',(13.11395493561,-1.65,-3.6438304022004));
#854=CARTESIAN_POINT('',(13.,-1.65,-3.6438304022004));
#855=B_SPLINE_CURVE_WITH_KNOTS('',3,(#839,#840,#841,#842,#843,#844,#845,#846,#847,#848,#849,#850,#851,#852,#853,#854),.UNSPECIFIED.,.T.,.U.,(4,1,2,2,2,2,2,1,4),(0.,0.3333333333334,1.,1.786011686256,2.5582774959636,3.8437263019761,4.7009753784207,5.0350691107119,5.2021159768574),.UNSPECIFIED.);
#856=EDGE_CURVE('',#838,#838,#855,.T.);
#857=ORIENTED_EDGE('',*,*,#856,.T.);
#858=EDGE_LOOP('',(#857));
#859=FACE_BOUND('',#858,.T.);
#860=ADVANCED_FACE('',(#813,#836,#859),#794,.F.);
#861=CARTESIAN_POINT('',(23.200000000001,-4.6880164753543E-15,2.9034013738053E-15));
#862=DIRECTION('',(4.1602766230641E-16,1.,-1.5670936006145E-16));
#863=DIRECTION('',(-1.,4.1602766230641E-16,-3.3539256770213E-16));
#864=AXIS2_PLACEMENT_3D('',#861,#863,#862);
#865=CONICAL_SURFACE('',#864,0.,0.7853981633974);
#866=CARTESIAN_POINT('',(17.5,5.7,-3.0107743040682E-17));
#867=VERTEX_POINT('',#866);
#868=CARTESIAN_POINT('',(17.5,5.7,-3.0107743040682E-17));
#869=DIRECTION('',(-0.70710678118655,0.70710678118655,-5.0026937854381E-15));
#870=VECTOR('',#869,0.28284271247462);
#871=LINE('',#868,#870);
#872=EDGE_CURVE('',#867,#726,#871,.T.);
#873=ORIENTED_EDGE('',*,*,#872,.T.);
#874=ORIENTED_EDGE('',*,*,#738,.F.);
#875=ORIENTED_EDGE('',*,*,#872,.F.);
#876=CARTESIAN_POINT('',(17.5,-4.4408920985006E-15,-6.5814472651419E-16));
#877=DIRECTION('',(-0.,1.,1.1018192692518E-16));
#878=DIRECTION('',(-1.,0.,-0.));
#879=AXIS2_PLACEMENT_3D('',#876,#878,#877);
#880=CIRCLE('',#879,5.7);
#881=EDGE_CURVE('',#867,#867,#880,.T.);
#882=ORIENTED_EDGE('',*,*,#881,.T.);
#883=EDGE_LOOP('',(#873,#874,#875,#882));
#884=FACE_OUTER_BOUND('',#883,.T.);
#885=ADVANCED_FACE('',(#884),#865,.T.);
#886=CARTESIAN_POINT('',(13.,7.8825834748386E-15,-3.4975586373561));
#887=DIRECTION('',(0.,-1.,2.691449756667E-16));
#888=DIRECTION('',(0.,4.0032806476967E-16,-1.));
#889=AXIS2_PLACEMENT_3D('',#886,#888,#887);
#890=CYLINDRICAL_SURFACE('',#889,1.65);
#891=CARTESIAN_POINT('',(13.,-1.65,-3.6438304022004));
#892=DIRECTION('',(0.,0.,-1.));
#893=VECTOR('',#892,2.0207525480264);
#894=LINE('',#891,#893);
#895=EDGE_CURVE('',#838,#767,#894,.T.);
#896=ORIENTED_EDGE('',*,*,#895,.T.);
#897=ORIENTED_EDGE('',*,*,#785,.F.);
#898=ORIENTED_EDGE('',*,*,#895,.F.);
#899=ORIENTED_EDGE('',*,*,#856,.F.);
#900=EDGE_LOOP('',(#896,#897,#898,#899));
#901=FACE_OUTER_BOUND('',#900,.T.);
#902=ADVANCED_FACE('',(#901),#890,.F.);
#903=CARTESIAN_POINT('',(13.,3.1086244689504E-15,5.9936605865712));
#904=DIRECTION('',(0.,-1.,0.));
#905=DIRECTION('',(7.1945850850081E-16,-7.1945850850081E-16,-1.));
#906=AXIS2_PLACEMENT_3D('',#903,#905,#904);
#907=CYLINDRICAL_SURFACE('',#906,1.65);
#908=CARTESIAN_POINT('',(13.,-1.65,3.6438304022004));
#909=DIRECTION('',(0.,0.,1.));
#910=VECTOR('',#909,2.0207525480263);
#911=LINE('',#908,#910);
#912=EDGE_CURVE('',#815,#744,#911,.T.);
#913=ORIENTED_EDGE('',*,*,#912,.T.);
#914=ORIENTED_EDGE('',*,*,#762,.F.);
#915=ORIENTED_EDGE('',*,*,#912,.F.);
#916=ORIENTED_EDGE('',*,*,#833,.F.);
#917=EDGE_LOOP('',(#913,#914,#915,#916));
#918=FACE_OUTER_BOUND('',#917,.T.);
#919=ADVANCED_FACE('',(#918),#907,.F.);
#920=CARTESIAN_POINT('',(13.3,5.5761948950543E-15,-6.0120258427558E-15));
#921=DIRECTION('',(1.0863665832623E-15,1.,1.2995737170321E-15));
#922=DIRECTION('',(1.,-1.0863665832623E-15,-1.4478901024235E-16));
#923=AXIS2_PLACEMENT_3D('',#920,#922,#921);
#924=CONICAL_SURFACE('',#923,0.,0.78539816339742);
#925=CARTESIAN_POINT('',(17.5,4.2,-1.1619300742388E-15));
#926=VERTEX_POINT('',#925);
#927=CARTESIAN_POINT('',(17.5,-8.8817841970013E-16,1.3502178596552E-15));
#928=DIRECTION('',(-0.,1.,-5.9813046045096E-16));
#929=DIRECTION('',(1.,0.,-0.));
#930=AXIS2_PLACEMENT_3D('',#927,#929,#928);
#931=CIRCLE('',#930,4.2);
#932=EDGE_CURVE('',#926,#926,#931,.T.);
#933=ORIENTED_EDGE('',*,*,#932,.T.);
#934=CARTESIAN_POINT('',(17.5,4.2,-1.1619300742388E-15));
#935=DIRECTION('',(-0.70710678118655,-0.70710678118655,4.1080431737942E-15));
#936=VECTOR('',#935,0.28284271247462);
#937=LINE('',#934,#936);
#938=EDGE_CURVE('',#926,#797,#937,.T.);
#939=ORIENTED_EDGE('',*,*,#938,.T.);
#940=ORIENTED_EDGE('',*,*,#809,.F.);
#941=ORIENTED_EDGE('',*,*,#938,.F.);
#942=EDGE_LOOP('',(#933,#939,#940,#941));
#943=FACE_OUTER_BOUND('',#942,.T.);
#944=ADVANCED_FACE('',(#943),#924,.F.);
#945=CARTESIAN_POINT('',(17.5,-1.5809002353436,-3.5527136788005E-15));
#946=DIRECTION('',(0.,1.,0.));
#947=DIRECTION('',(1.,0.,0.));
#948=AXIS2_PLACEMENT_3D('',#945,#947,#946);
#949=PLANE('',#948);
#950=ORIENTED_EDGE('',*,*,#881,.F.);
#951=EDGE_LOOP('',(#950));
#952=FACE_OUTER_BOUND('',#951,.T.);
#953=ORIENTED_EDGE('',*,*,#932,.F.);
#954=EDGE_LOOP('',(#953));
#955=FACE_BOUND('',#954,.T.);
#956=ADVANCED_FACE('',(#952,#955),#949,.T.);
#957=CLOSED_SHELL('',(#150,#213,#267,#321,#375,#429,#474,#485,#496,#507,#518,#529,#540,#557,#574,#591,#608,#625,#642,#667,#698,#718,#789,#860,#885,#902,#919,#944,#956));
#958=COLOUR_RGB('',0.745098,0.901961,0.960784);
#959=FILL_AREA_STYLE_COLOUR('',#958);
#960=FILL_AREA_STYLE('',(#959));
#961=SURFACE_STYLE_FILL_AREA(#960);
#962=SURFACE_SIDE_STYLE('',(#961));
#963=SURFACE_STYLE_USAGE(.BOTH.,#962);
#964=PRESENTATION_STYLE_ASSIGNMENT((#963));
#965=OVER_RIDING_STYLED_ITEM('',(#964),#150,#957);
#966=OVER_RIDING_STYLED_ITEM('',(#964),#213,#957);
#967=OVER_RIDING_STYLED_ITEM('',(#964),#267,#957);
#968=OVER_RIDING_STYLED_ITEM('',(#964),#321,#957);
#969=OVER_RIDING_STYLED_ITEM('',(#964),#375,#957);
#970=OVER_RIDING_STYLED_ITEM('',(#964),#429,#957);
#971=OVER_RIDING_STYLED_ITEM('',(#964),#474,#957);
#972=OVER_RIDING_STYLED_ITEM('',(#964),#485,#957);
#973=OVER_RIDING_STYLED_ITEM('',(#964),#496,#957);
#974=OVER_RIDING_STYLED_ITEM('',(#964),#507,#957);
#975=OVER_RIDING_STYLED_ITEM('',(#964),#518,#957);
#976=OVER_RIDING_STYLED_ITEM('',(#964),#529,#957);
#977=OVER_RIDING_STYLED_ITEM('',(#964),#540,#957);
#978=OVER_RIDING_STYLED_ITEM('',(#964),#557,#957);
#979=OVER_RIDING_STYLED_ITEM('',(#964),#574,#957);
#980=OVER_RIDING_STYLED_ITEM('',(#964),#591,#957);
#981=OVER_RIDING_STYLED_ITEM('',(#964),#608,#957);
#982=OVER_RIDING_STYLED_ITEM('',(#964),#625,#957);
#983=OVER_RIDING_STYLED_ITEM('',(#964),#642,#957);
#984=COLOUR_RGB('',0.54902,0.54902,0.921569);
#985=FILL_AREA_STYLE_COLOUR('',#984);
#986=FILL_AREA_STYLE('',(#985));
#987=SURFACE_STYLE_FILL_AREA(#986);
#988=SURFACE_SIDE_STYLE('',(#987));
#989=SURFACE_STYLE_USAGE(.BOTH.,#988);
#990=PRESENTATION_STYLE_ASSIGNMENT((#989));
#991=OVER_RIDING_STYLED_ITEM('',(#990),#667,#957);
#992=OVER_RIDING_STYLED_ITEM('',(#964),#698,#957);
#993=OVER_RIDING_STYLED_ITEM('',(#964),#718,#957);
#994=OVER_RIDING_STYLED_ITEM('',(#964),#789,#957);
#995=OVER_RIDING_STYLED_ITEM('',(#964),#860,#957);
#996=OVER_RIDING_STYLED_ITEM('',(#964),#885,#957);
#997=OVER_RIDING_STYLED_ITEM('',(#990),#902,#957);
#998=OVER_RIDING_STYLED_ITEM('',(#990),#919,#957);
#999=OVER_RIDING_STYLED_ITEM('',(#964),#944,#957);
#1000=OVER_RIDING_STYLED_ITEM('',(#964),#956,#957);
#1001=MANIFOLD_SOLID_BREP('S1',#957);
#1002=ADVANCED_BREP_SHAPE_REPRESENTATION('',(#1001),#5);
#1003=SHAPE_REPRESENTATION_RELATIONSHIP('NONE', 'NONE', #28, #1002);
#1004=PRESENTATION_LAYER_ASSIGNMENT('Í¼²ã000','',(#1001));
#1005=MECHANICAL_DESIGN_GEOMETRIC_PRESENTATION_REPRESENTATION('',(#965,#966,#967,#968,#969,#970,#971,#972,#973,#974,#975,#976,#977,#978,#979,#980,#981,#982,#983,#991,#992,#993,#994,#995,#996,#997,#998,#999,#1000),#5);
ENDSEC;
END-ISO-10303-21;
