ISO-10303-21;
HEADER;
FILE_DESCRIPTION(
  ('This file contains a STEP AP42 implementation'
    ,'as created by ZW3D STEP Interface translator.')
  ,'2;1'
  );
FILE_NAME(
  'ÖáÖ±¾¶3mm-Áù½ÇÁªÖáÆ÷.stp'
  ,'24 514.14 940',
  (''),
  ('ZWCAD Software Co.'),
  'Version 1.0',
  'ZW3D to STEP translator',
  ''
  );
FILE_SCHEMA(('AUTOMOTIVE_DESIGN { 1 0 10303 214 1 1 1 1 }'));
ENDSEC;

DATA;

/**File Base Unit**/
#1 = (LENGTH_UNIT()NAMED_UNIT(*)SI_UNIT(.MILLI.,.METRE.));
#2 = (NAMED_UNIT(*)PLANE_ANGLE_UNIT()SI_UNIT($,.RADIAN.));
#3 = (NAMED_UNIT(*)SI_UNIT($,.STERADIAN.)SOLID_ANGLE_UNIT());
#4 = UNCERTAINTY_MEASURE_WITH_UNIT(LENGTH_MEASURE(0.01),#1,'DISTANCE_ACCURACY_VALUE','Maximum Tolerance applied to model');
#5 = (GEOMETRIC_REPRESENTATION_CONTEXT(3)GLOBAL_UNCERTAINTY_ASSIGNED_CONTEXT((#4))GLOBAL_UNIT_ASSIGNED_CONTEXT((#1,#2,#3))REPRESENTATION_CONTEXT('STEP 203','TOP_LEVEL_ASSEMBLY_PART'));

/**product_definition_shape**/
#6=APPLICATION_CONTEXT('mechanical parts and assemblies' );
#7=DESIGN_CONTEXT('NONE',#6,'design');
#8=MECHANICAL_CONTEXT('NONE',#6,'mechanical');
#9=PRODUCT('0','Part','',(#8));
#10=PRODUCT_DEFINITION_FORMATION_WITH_SPECIFIED_SOURCE('ANY','',#9,.NOT_KNOWN.);
#11=PRODUCT_DEFINITION('UNKNOWN','',#10,#7);
#12=PRODUCT_DEFINITION_SHAPE('NONE','NONE',#11);
#13=PRODUCT_RELATED_PRODUCT_CATEGORY('detail','',(#9));
/**geometry information**/
#14=CARTESIAN_POINT('',(0.,0.,0.));
#15=DIRECTION('',(0.,0.,1.));
#16=DIRECTION('',(1.,0.,0.));
#17=AXIS2_PLACEMENT_3D('',#14,#15,#16);
#18=APPLICATION_CONTEXT('part');
#19=MECHANICAL_CONTEXT('none',#18,'component');
#20=PRODUCT('ÖáÖ±¾¶3mm-Áù½ÇÁªÖáÆ÷','ÖáÖ±¾¶3mm-Áù½ÇÁªÖáÆ÷','',(#19));
#21=PRODUCT_RELATED_PRODUCT_CATEGORY('detail','',(#20));
#22=PRODUCT_DEFINITION_FORMATION_WITH_SPECIFIED_SOURCE('ANY','UNSPECIFIED',#20,.NOT_KNOWN.);
#23=APPLICATION_CONTEXT('part');
#24=APPLICATION_PROTOCOL_DEFINITION('international standard','config_control_design',1994,#23);
#25=DESIGN_CONTEXT('detailed',#23,'design');
#26=PRODUCT_DEFINITION('','UNSPECIFIED',#22,#25);
#27=PRODUCT_DEFINITION_SHAPE('NONE','NONE',#26);
#28=SHAPE_REPRESENTATION('ÖáÖ±¾¶3mm-Áù½ÇÁªÖáÆ÷',(#17),#5);
#29=SHAPE_DEFINITION_REPRESENTATION(#27,#28);
#30=CARTESIAN_POINT('',(0.,0.,0.9282032302755));
#31=DIRECTION('',(0.,1.,0.));
#32=DIRECTION('',(-1.,0.,0.));
#33=AXIS2_PLACEMENT_3D('',#30,#32,#31);
#34=PLANE('',#33);
#35=CARTESIAN_POINT('',(7.1550877749646E-17,5.2941945361998,2.8301860781338));
#36=VERTEX_POINT('',#35);
#37=CARTESIAN_POINT('',(7.1550874146735E-17,5.2941945351146,-2.8301860801638));
#38=VERTEX_POINT('',#37);
#39=CARTESIAN_POINT('',(1.4310175549929E-16,0.,1.0560305310188E-15));
#40=DIRECTION('',(-2.0532291130701E-32,0.88189493727282,0.47144598801196));
#41=DIRECTION('',(-1.,-2.8250247949936E-32,5.4161200107488E-42));
#42=AXIS2_PLACEMENT_3D('',#39,#41,#40);
#43=CIRCLE('',#42,6.0032032302755);
#44=EDGE_CURVE('',#36,#38,#43,.T.);
#45=ORIENTED_EDGE('',*,*,#44,.T.);
#46=CARTESIAN_POINT('',(7.1550877749646E-17,5.0981103092157,-3.169813921835));
#47=VERTEX_POINT('',#46);
#48=CARTESIAN_POINT('',(7.1550874146735E-17,5.2941945351146,-2.8301860801638));
#49=DIRECTION('',(9.1871515639067E-24,-0.50000000016397,-0.86602540368977));
#50=VECTOR('',#49,0.39216845166919);
#51=LINE('',#48,#50);
#52=EDGE_CURVE('',#38,#47,#51,.T.);
#53=ORIENTED_EDGE('',*,*,#52,.T.);
#54=CARTESIAN_POINT('',(7.1550874805803E-17,0.19608422704055,-5.9999999999914));
#55=VERTEX_POINT('',#54);
#56=CARTESIAN_POINT('',(1.4310175549929E-16,6.6613381477509E-15,-9.7699626167014E-15));
#57=DIRECTION('',(-4.1064582261403E-33,0.84923167076949,-0.52802042513718));
#58=DIRECTION('',(-1.,-2.1730959978435E-33,3.7639126779391E-33));
#59=AXIS2_PLACEMENT_3D('',#56,#58,#57);
#60=CIRCLE('',#59,6.0032032302755);
#61=EDGE_CURVE('',#47,#55,#60,.T.);
#62=ORIENTED_EDGE('',*,*,#61,.T.);
#63=CARTESIAN_POINT('',(7.1550874039776E-17,-0.19608422704969,-5.9999999999911));
#64=VERTEX_POINT('',#63);
#65=CARTESIAN_POINT('',(7.1550874805803E-17,0.19608422704055,-5.9999999999914));
#66=DIRECTION('',(-1.9533110976398E-24,-1.,7.6549835339271E-13));
#67=VECTOR('',#66,0.39216845409024);
#68=LINE('',#65,#67);
#69=EDGE_CURVE('',#55,#64,#68,.T.);
#70=ORIENTED_EDGE('',*,*,#69,.T.);
#71=CARTESIAN_POINT('',(7.1550700183991E-17,-5.0981103092511,-3.1698139217781));
#72=VERTEX_POINT('',#71);
#73=CARTESIAN_POINT('',(1.4310175549929E-16,-4.4408920985006E-16,3.5527136788005E-15));
#74=DIRECTION('',(8.2129164522804E-33,-0.032663266514249,-0.99946641315285));
#75=DIRECTION('',(-1.,-3.2596439967384E-33,-5.6458690167793E-33));
#76=AXIS2_PLACEMENT_3D('',#73,#75,#74);
#77=CIRCLE('',#76,6.0032032302756);
#78=EDGE_CURVE('',#64,#72,#77,.T.);
#79=ORIENTED_EDGE('',*,*,#78,.T.);
#80=CARTESIAN_POINT('',(7.1550880996664E-17,-5.2941945362002,-2.8301860781331));
#81=VERTEX_POINT('',#80);
#82=CARTESIAN_POINT('',(7.1550700183991E-17,-5.0981103092511,-3.1698139217781));
#83=DIRECTION('',(4.6105868842045E-22,-0.49999999999305,0.86602540378845));
#84=VECTOR('',#83,0.39216845390365);
#85=LINE('',#82,#84);
#86=EDGE_CURVE('',#72,#81,#85,.T.);
#87=ORIENTED_EDGE('',*,*,#86,.T.);
#88=CARTESIAN_POINT('',(7.1550892408457E-17,-5.2941945364326,2.8301860776984));
#89=VERTEX_POINT('',#88);
#90=CARTESIAN_POINT('',(1.4310175549929E-16,1.7763568394003E-15,3.9147920493448E-16));
#91=DIRECTION('',(0.,-0.88189493727288,-0.47144598801184));
#92=DIRECTION('',(-1.,0.,0.));
#93=AXIS2_PLACEMENT_3D('',#90,#92,#91);
#94=CIRCLE('',#93,6.0032032302755);
#95=EDGE_CURVE('',#81,#89,#94,.T.);
#96=ORIENTED_EDGE('',*,*,#95,.T.);
#97=CARTESIAN_POINT('',(7.1550877749646E-17,-5.098110309216,3.1698139218345));
#98=VERTEX_POINT('',#97);
#99=CARTESIAN_POINT('',(7.1550892408457E-17,-5.2941945364326,2.8301860776984));
#100=DIRECTION('',(-3.7378863172105E-23,0.49999999996238,0.86602540380616));
#101=VECTOR('',#100,0.3921684544627);
#102=LINE('',#99,#101);
#103=EDGE_CURVE('',#89,#98,#102,.T.);
#104=ORIENTED_EDGE('',*,*,#103,.T.);
#105=CARTESIAN_POINT('',(7.1550877749646E-17,-0.19608422704045,5.9999999999914));
#106=VERTEX_POINT('',#105);
#107=CARTESIAN_POINT('',(1.4310175549929E-16,4.4408920985006E-16,4.4408920985006E-15));
#108=DIRECTION('',(-8.2129164522805E-33,-0.84923167076955,0.5280204251371));
#109=DIRECTION('',(-1.,3.2596439967648E-33,-5.6458690169072E-33));
#110=AXIS2_PLACEMENT_3D('',#107,#109,#108);
#111=CIRCLE('',#110,6.0032032302755);
#112=EDGE_CURVE('',#98,#106,#111,.T.);
#113=ORIENTED_EDGE('',*,*,#112,.T.);
#114=CARTESIAN_POINT('',(7.1550880563308E-17,0.19608422704043,5.9999999999914));
#115=VERTEX_POINT('',#114);
#116=CARTESIAN_POINT('',(7.1550877749646E-17,-0.19608422704045,5.9999999999914));
#117=DIRECTION('',(7.1746260116749E-24,1.,0.));
#118=VECTOR('',#117,0.39216845408088);
#119=LINE('',#116,#118);
#120=EDGE_CURVE('',#106,#115,#119,.T.);
#121=ORIENTED_EDGE('',*,*,#120,.T.);
#122=CARTESIAN_POINT('',(7.1550912633465E-17,5.0981103091654,3.1698139219159));
#123=VERTEX_POINT('',#122);
#124=CARTESIAN_POINT('',(1.4310175549929E-16,0.,1.7763568394003E-15));
#125=DIRECTION('',(2.0532291130701E-32,0.032663266512706,0.9994664131529));
#126=DIRECTION('',(-1.,9.7789319904706E-33,1.6937607051339E-32));
#127=AXIS2_PLACEMENT_3D('',#124,#126,#125);
#128=CIRCLE('',#127,6.0032032302755);
#129=EDGE_CURVE('',#115,#123,#128,.T.);
#130=ORIENTED_EDGE('',*,*,#129,.T.);
#131=CARTESIAN_POINT('',(7.1550912633465E-17,5.0981103091654,3.1698139219159));
#132=DIRECTION('',(-8.8951109245343E-23,0.50000000000481,-0.86602540378166));
#133=VECTOR('',#132,0.39216845406503);
#134=LINE('',#131,#133);
#135=EDGE_CURVE('',#123,#36,#134,.T.);
#136=ORIENTED_EDGE('',*,*,#135,.T.);
#137=EDGE_LOOP('',(#45,#53,#62,#70,#79,#87,#96,#104,#113,#121,#130,#136));
#138=FACE_OUTER_BOUND('',#137,.T.);
#139=CARTESIAN_POINT('',(0.,1.0088562317499E-15,-1.65));
#140=VERTEX_POINT('',#139);
#141=CARTESIAN_POINT('',(3.678955472469E-16,5.3782849414477E-16,-2.2204460492503E-15));
#142=DIRECTION('',(-2.2296699833145E-16,2.8547135612432E-16,-1.));
#143=DIRECTION('',(1.,-7.6125694966486E-16,-2.2296699833145E-16));
#144=AXIS2_PLACEMENT_3D('',#141,#143,#142);
#145=CIRCLE('',#144,1.65);
#146=EDGE_CURVE('',#140,#140,#145,.T.);
#147=ORIENTED_EDGE('',*,*,#146,.T.);
#148=EDGE_LOOP('',(#147));
#149=FACE_BOUND('',#148,.T.);
#150=ADVANCED_FACE('',(#138,#149),#34,.T.);
#151=CARTESIAN_POINT('',(6.,0.,0.9282032302755));
#152=DIRECTION('',(0.,1.,0.));
#153=DIRECTION('',(1.,0.,0.));
#154=AXIS2_PLACEMENT_3D('',#151,#153,#152);
#155=PLANE('',#154);
#156=CARTESIAN_POINT('',(6.,-5.0981103092866,3.1698139217209));
#157=VERTEX_POINT('',#156);
#158=CARTESIAN_POINT('',(6.,-5.2941945361997,2.8301860781341));
#159=VERTEX_POINT('',#158);
#160=CARTESIAN_POINT('',(6.,-5.0981103092866,3.1698139217209));
#161=DIRECTION('',(0.,-0.49999999998847,-0.8660254037911));
#162=VECTOR('',#161,0.39216845383525);
#163=LINE('',#160,#162);
#164=EDGE_CURVE('',#157,#159,#163,.T.);
#165=ORIENTED_EDGE('',*,*,#164,.T.);
#166=CARTESIAN_POINT('',(6.,-5.2941945361997,-2.830186078134));
#167=VERTEX_POINT('',#166);
#168=CARTESIAN_POINT('',(6.,-7.105427357601E-15,3.255246011917E-16));
#169=DIRECTION('',(7.3975374948231E-16,-0.88189493727279,0.471445988012));
#170=DIRECTION('',(1.,7.0464631147088E-16,-1.5691166502482E-16));
#171=AXIS2_PLACEMENT_3D('',#168,#170,#169);
#172=CIRCLE('',#171,6.0032032302755);
#173=EDGE_CURVE('',#159,#167,#172,.T.);
#174=ORIENTED_EDGE('',*,*,#173,.T.);
#175=CARTESIAN_POINT('',(6.,-5.0981103092167,-3.1698139218334));
#176=VERTEX_POINT('',#175);
#177=CARTESIAN_POINT('',(6.,-5.2941945361997,-2.830186078134));
#178=DIRECTION('',(0.,0.49999999999782,-0.8660254037857));
#179=VECTOR('',#178,0.39216845396771);
#180=LINE('',#177,#179);
#181=EDGE_CURVE('',#167,#176,#180,.T.);
#182=ORIENTED_EDGE('',*,*,#181,.T.);
#183=CARTESIAN_POINT('',(6.,-0.19608422704016,-5.9999999999914));
#184=VERTEX_POINT('',#183);
#185=CARTESIAN_POINT('',(6.,4.8849813083507E-15,6.2172489379009E-15));
#186=DIRECTION('',(-7.3975374948231E-16,-0.84923167076966,-0.52802042513692));
#187=DIRECTION('',(1.,-3.5232315574043E-16,-6.1024160641707E-16));
#188=AXIS2_PLACEMENT_3D('',#185,#187,#186);
#189=CIRCLE('',#188,6.0032032302755);
#190=EDGE_CURVE('',#176,#184,#189,.T.);
#191=ORIENTED_EDGE('',*,*,#190,.T.);
#192=CARTESIAN_POINT('',(6.,0.19608422704019,-5.9999999999914));
#193=VERTEX_POINT('',#192);
#194=CARTESIAN_POINT('',(6.,-0.19608422704016,-5.9999999999914));
#195=DIRECTION('',(0.,1.,0.));
#196=VECTOR('',#195,0.39216845408035);
#197=LINE('',#194,#196);
#198=EDGE_CURVE('',#184,#193,#197,.T.);
#199=ORIENTED_EDGE('',*,*,#198,.T.);
#200=CARTESIAN_POINT('',(6.,5.0981103092159,-3.1698139218347));
#201=VERTEX_POINT('',#200);
#202=CARTESIAN_POINT('',(6.,3.9968028886506E-15,-2.6645352591004E-15));
#203=DIRECTION('',(7.3975374948231E-16,0.032663266512666,-0.9994664131529));
#204=DIRECTION('',(1.,-3.5232315574054E-16,6.1024160641743E-16));
#205=AXIS2_PLACEMENT_3D('',#202,#204,#203);
#206=CIRCLE('',#205,6.0032032302755);
#207=EDGE_CURVE('',#193,#201,#206,.T.);
#208=ORIENTED_EDGE('',*,*,#207,.T.);
#209=CARTESIAN_POINT('',(6.,5.2941945361996,-2.8301860781341));
#210=VERTEX_POINT('',#209);
#211=CARTESIAN_POINT('',(6.,5.0981103092159,-3.1698139218347));
#212=DIRECTION('',(0.,0.49999999999783,0.86602540378569));
#213=VECTOR('',#212,0.3921684539691);
#214=LINE('',#211,#213);
#215=EDGE_CURVE('',#201,#210,#214,.T.);
#216=ORIENTED_EDGE('',*,*,#215,.T.);
#217=CARTESIAN_POINT('',(6.,5.2941945351145,2.830186080164));
#218=VERTEX_POINT('',#217);
#219=CARTESIAN_POINT('',(6.,8.8817841970013E-15,-1.9021803066321E-15));
#220=DIRECTION('',(4.4385224968939E-16,0.88189493727279,-0.47144598801201));
#221=DIRECTION('',(1.,-7.0464631090153E-16,-1.5691166510363E-16));
#222=AXIS2_PLACEMENT_3D('',#219,#221,#220);
#223=CIRCLE('',#222,6.0032032302755);
#224=EDGE_CURVE('',#210,#218,#223,.T.);
#225=ORIENTED_EDGE('',*,*,#224,.T.);
#226=CARTESIAN_POINT('',(6.,5.0981103092158,3.1698139218348));
#227=VERTEX_POINT('',#226);
#228=CARTESIAN_POINT('',(6.,5.2941945351145,2.830186080164));
#229=DIRECTION('',(0.,-0.50000000016404,0.86602540368973));
#230=VECTOR('',#229,0.39216845166874);
#231=LINE('',#228,#230);
#232=EDGE_CURVE('',#218,#227,#231,.T.);
#233=ORIENTED_EDGE('',*,*,#232,.T.);
#234=CARTESIAN_POINT('',(6.,0.19608422704019,5.9999999999914));
#235=VERTEX_POINT('',#234);
#236=CARTESIAN_POINT('',(6.,0.,1.7763568394003E-15));
#237=DIRECTION('',(2.9590149979292E-16,0.84923167076951,0.52802042513715));
#238=DIRECTION('',(1.,-1.5658806921802E-16,-2.7121849174109E-16));
#239=AXIS2_PLACEMENT_3D('',#236,#238,#237);
#240=CIRCLE('',#239,6.0032032302755);
#241=EDGE_CURVE('',#227,#235,#240,.T.);
#242=ORIENTED_EDGE('',*,*,#241,.T.);
#243=CARTESIAN_POINT('',(6.,-0.19608422704937,5.9999999999911));
#244=VERTEX_POINT('',#243);
#245=CARTESIAN_POINT('',(6.,0.19608422704019,5.9999999999914));
#246=DIRECTION('',(0.,-1.,-7.6549835339403E-13));
#247=VECTOR('',#246,0.39216845408956);
#248=LINE('',#245,#247);
#249=EDGE_CURVE('',#235,#244,#248,.T.);
#250=ORIENTED_EDGE('',*,*,#249,.T.);
#251=CARTESIAN_POINT('',(6.,-1.3322676295502E-15,-2.6645352591004E-15));
#252=DIRECTION('',(-1.4795074989646E-16,-0.032663266514195,0.99946641315285));
#253=DIRECTION('',(1.,-7.8294034607377E-17,1.3560924586398E-16));
#254=AXIS2_PLACEMENT_3D('',#251,#253,#252);
#255=CIRCLE('',#254,6.0032032302756);
#256=EDGE_CURVE('',#244,#157,#255,.T.);
#257=ORIENTED_EDGE('',*,*,#256,.T.);
#258=EDGE_LOOP('',(#165,#174,#182,#191,#199,#208,#216,#225,#233,#242,#250,#257));
#259=FACE_OUTER_BOUND('',#258,.T.);
#260=CARTESIAN_POINT('',(6.,5.5,-1.9721522630525E-31));
#261=VERTEX_POINT('',#260);
#262=CARTESIAN_POINT('',(6.,-1.7763568394003E-15,3.1401849173675E-16));
#263=DIRECTION('',(2.2837708489946E-16,1.,-5.7094271224864E-17));
#264=DIRECTION('',(-1.,2.2837708489946E-16,-2.2837708489946E-16));
#265=AXIS2_PLACEMENT_3D('',#262,#264,#263);
#266=CIRCLE('',#265,5.5);
#267=EDGE_CURVE('',#261,#261,#266,.T.);
#268=ORIENTED_EDGE('',*,*,#267,.T.);
#269=EDGE_LOOP('',(#268));
#270=FACE_BOUND('',#269,.T.);
#271=ADVANCED_FACE('',(#259,#270),#155,.T.);
#272=CARTESIAN_POINT('',(3.,5.1961524227066,3.));
#273=DIRECTION('',(0.,-0.5,0.86602540378444));
#274=DIRECTION('',(-0.,0.86602540378444,0.5));
#275=AXIS2_PLACEMENT_3D('',#272,#274,#273);
#276=PLANE('',#275);
#277=ORIENTED_EDGE('',*,*,#232,.F.);
#278=CARTESIAN_POINT('',(5.,6.9282032302755,4.9712179609854E-15));
#279=VERTEX_POINT('',#278);
#280=CARTESIAN_POINT('',(6.,5.2941945360945,2.8301860783307));
#281=CARTESIAN_POINT('',(5.9464277948594,6.0527575200306,1.5163164494124));
#282=CARTESIAN_POINT('',(5.,6.9282032302755,1.0658141036402E-14));
#283=(BOUNDED_CURVE()B_SPLINE_CURVE(2,(#280,#281,#282),.HYPERBOLIC_ARC.,.F.,.U.)B_SPLINE_CURVE_WITH_KNOTS((3,3),(0.,1.),.UNSPECIFIED.)CURVE()GEOMETRIC_REPRESENTATION_ITEM()RATIONAL_B_SPLINE_CURVE((1.0770627625188,1.0726344746246,1.))REPRESENTATION_ITEM(''));
#284=EDGE_CURVE('',#218,#279,#283,.T.);
#285=ORIENTED_EDGE('',*,*,#284,.T.);
#286=CARTESIAN_POINT('',(1.,6.9282032302755,5.5157123914571E-15));
#287=VERTEX_POINT('',#286);
#288=CARTESIAN_POINT('',(5.,6.9282032302755,4.9712179609854E-15));
#289=DIRECTION('',(-1.,0.,1.3612360761792E-16));
#290=VECTOR('',#289,4.);
#291=LINE('',#288,#290);
#292=EDGE_CURVE('',#279,#287,#291,.T.);
#293=ORIENTED_EDGE('',*,*,#292,.T.);
#294=CARTESIAN_POINT('',(1.,6.9282032302755,7.105427357601E-15));
#295=CARTESIAN_POINT('',(0.053572205140716,6.0527575200307,1.5163164494123));
#296=CARTESIAN_POINT('',(0.,5.2941945360947,2.8301860783304));
#297=(BOUNDED_CURVE()B_SPLINE_CURVE(2,(#294,#295,#296),.HYPERBOLIC_ARC.,.F.,.U.)B_SPLINE_CURVE_WITH_KNOTS((3,3),(0.,1.),.UNSPECIFIED.)CURVE()GEOMETRIC_REPRESENTATION_ITEM()RATIONAL_B_SPLINE_CURVE((1.,1.0726344746246,1.0770627625188))REPRESENTATION_ITEM(''));
#298=EDGE_CURVE('',#287,#36,#297,.T.);
#299=ORIENTED_EDGE('',*,*,#298,.T.);
#300=ORIENTED_EDGE('',*,*,#135,.F.);
#301=CARTESIAN_POINT('',(1.,3.4641016151377,6.));
#302=VERTEX_POINT('',#301);
#303=CARTESIAN_POINT('',(0.,5.0981103093185,3.1698139216696));
#304=CARTESIAN_POINT('',(0.053572205140716,4.3395473253826,4.4836835505877));
#305=CARTESIAN_POINT('',(1.,3.4641016151377,6.));
#306=(BOUNDED_CURVE()B_SPLINE_CURVE(2,(#303,#304,#305),.HYPERBOLIC_ARC.,.F.,.U.)B_SPLINE_CURVE_WITH_KNOTS((3,3),(0.,1.),.UNSPECIFIED.)CURVE()GEOMETRIC_REPRESENTATION_ITEM()RATIONAL_B_SPLINE_CURVE((1.0770627625188,1.0726344746246,1.))REPRESENTATION_ITEM(''));
#307=EDGE_CURVE('',#123,#302,#306,.T.);
#308=ORIENTED_EDGE('',*,*,#307,.T.);
#309=CARTESIAN_POINT('',(5.,3.4641016151377,6.));
#310=VERTEX_POINT('',#309);
#311=CARTESIAN_POINT('',(1.,3.4641016151377,6.));
#312=DIRECTION('',(1.,0.,0.));
#313=VECTOR('',#312,4.);
#314=LINE('',#311,#313);
#315=EDGE_CURVE('',#302,#310,#314,.T.);
#316=ORIENTED_EDGE('',*,*,#315,.T.);
#317=CARTESIAN_POINT('',(5.,3.4641016151377,6.));
#318=CARTESIAN_POINT('',(5.9464277948594,4.3395473253827,4.4836835505876));
#319=CARTESIAN_POINT('',(6.,5.0981103093187,3.1698139216693));
#320=(BOUNDED_CURVE()B_SPLINE_CURVE(2,(#317,#318,#319),.HYPERBOLIC_ARC.,.F.,.U.)B_SPLINE_CURVE_WITH_KNOTS((3,3),(0.,1.),.UNSPECIFIED.)CURVE()GEOMETRIC_REPRESENTATION_ITEM()RATIONAL_B_SPLINE_CURVE((1.,1.0726344746246,1.0770627625188))REPRESENTATION_ITEM(''));
#321=EDGE_CURVE('',#310,#227,#320,.T.);
#322=ORIENTED_EDGE('',*,*,#321,.T.);
#323=EDGE_LOOP('',(#277,#285,#293,#299,#300,#308,#316,#322));
#324=FACE_OUTER_BOUND('',#323,.T.);
#325=ADVANCED_FACE('',(#324),#276,.T.);
#326=CARTESIAN_POINT('',(3.,-1.2434497875802E-14,6.));
#327=DIRECTION('',(0.,-1.,-1.5383701491068E-15));
#328=DIRECTION('',(0.,-1.5383701491068E-15,1.));
#329=AXIS2_PLACEMENT_3D('',#326,#328,#327);
#330=PLANE('',#329);
#331=ORIENTED_EDGE('',*,*,#249,.F.);
#332=CARTESIAN_POINT('',(6.,0.19608422677574,6.));
#333=CARTESIAN_POINT('',(5.9464277948594,1.7132101946479,6.));
#334=CARTESIAN_POINT('',(5.,3.4641016151377,6.));
#335=(BOUNDED_CURVE()B_SPLINE_CURVE(2,(#332,#333,#334),.HYPERBOLIC_ARC.,.F.,.U.)B_SPLINE_CURVE_WITH_KNOTS((3,3),(0.,1.),.UNSPECIFIED.)CURVE()GEOMETRIC_REPRESENTATION_ITEM()RATIONAL_B_SPLINE_CURVE((1.0770627625188,1.0726344746246,1.))REPRESENTATION_ITEM(''));
#336=EDGE_CURVE('',#235,#310,#335,.T.);
#337=ORIENTED_EDGE('',*,*,#336,.T.);
#338=ORIENTED_EDGE('',*,*,#315,.F.);
#339=CARTESIAN_POINT('',(1.,3.4641016151377,6.));
#340=CARTESIAN_POINT('',(0.053572205140693,1.713210194648,6.));
#341=CARTESIAN_POINT('',(-8.2463014283682E-16,0.19608422677606,6.));
#342=(BOUNDED_CURVE()B_SPLINE_CURVE(2,(#339,#340,#341),.HYPERBOLIC_ARC.,.F.,.U.)B_SPLINE_CURVE_WITH_KNOTS((3,3),(0.,1.),.UNSPECIFIED.)CURVE()GEOMETRIC_REPRESENTATION_ITEM()RATIONAL_B_SPLINE_CURVE((1.,1.0726344746246,1.0770627625188))REPRESENTATION_ITEM(''));
#343=EDGE_CURVE('',#302,#115,#342,.T.);
#344=ORIENTED_EDGE('',*,*,#343,.T.);
#345=ORIENTED_EDGE('',*,*,#120,.F.);
#346=CARTESIAN_POINT('',(1.,-3.4641016151378,6.));
#347=VERTEX_POINT('',#346);
#348=CARTESIAN_POINT('',(-8.2463014283682E-16,-0.19608422677608,6.));
#349=CARTESIAN_POINT('',(0.053572205140693,-1.7132101946481,6.));
#350=CARTESIAN_POINT('',(1.,-3.4641016151378,6.));
#351=(BOUNDED_CURVE()B_SPLINE_CURVE(2,(#348,#349,#350),.HYPERBOLIC_ARC.,.F.,.U.)B_SPLINE_CURVE_WITH_KNOTS((3,3),(0.,1.),.UNSPECIFIED.)CURVE()GEOMETRIC_REPRESENTATION_ITEM()RATIONAL_B_SPLINE_CURVE((1.0770627625188,1.0726344746246,1.))REPRESENTATION_ITEM(''));
#352=EDGE_CURVE('',#106,#347,#351,.T.);
#353=ORIENTED_EDGE('',*,*,#352,.T.);
#354=CARTESIAN_POINT('',(5.,-3.4641016151378,6.));
#355=VERTEX_POINT('',#354);
#356=CARTESIAN_POINT('',(1.,-3.4641016151378,6.));
#357=DIRECTION('',(1.,0.,0.));
#358=VECTOR('',#357,4.);
#359=LINE('',#356,#358);
#360=EDGE_CURVE('',#347,#355,#359,.T.);
#361=ORIENTED_EDGE('',*,*,#360,.T.);
#362=CARTESIAN_POINT('',(5.,-3.4641016151378,6.));
#363=CARTESIAN_POINT('',(5.9464277948594,-1.7132101946479,6.));
#364=CARTESIAN_POINT('',(6.,-0.19608422677576,6.));
#365=(BOUNDED_CURVE()B_SPLINE_CURVE(2,(#362,#363,#364),.HYPERBOLIC_ARC.,.F.,.U.)B_SPLINE_CURVE_WITH_KNOTS((3,3),(0.,1.),.UNSPECIFIED.)CURVE()GEOMETRIC_REPRESENTATION_ITEM()RATIONAL_B_SPLINE_CURVE((1.,1.0726344746246,1.0770627625188))REPRESENTATION_ITEM(''));
#366=EDGE_CURVE('',#355,#244,#365,.T.);
#367=ORIENTED_EDGE('',*,*,#366,.T.);
#368=EDGE_LOOP('',(#331,#337,#338,#344,#345,#353,#361,#367));
#369=FACE_OUTER_BOUND('',#368,.T.);
#370=ADVANCED_FACE('',(#369),#330,.T.);
#371=CARTESIAN_POINT('',(3.,-5.1961524227066,3.));
#372=DIRECTION('',(0.,-0.5,-0.86602540378444));
#373=DIRECTION('',(0.,-0.86602540378444,0.5));
#374=AXIS2_PLACEMENT_3D('',#371,#373,#372);
#375=PLANE('',#374);
#376=ORIENTED_EDGE('',*,*,#164,.F.);
#377=CARTESIAN_POINT('',(6.,-5.0981103093188,3.1698139216692));
#378=CARTESIAN_POINT('',(5.9464277948594,-4.3395473253827,4.4836835505875));
#379=CARTESIAN_POINT('',(5.,-3.4641016151378,6.));
#380=(BOUNDED_CURVE()B_SPLINE_CURVE(2,(#377,#378,#379),.HYPERBOLIC_ARC.,.F.,.U.)B_SPLINE_CURVE_WITH_KNOTS((3,3),(0.,1.),.UNSPECIFIED.)CURVE()GEOMETRIC_REPRESENTATION_ITEM()RATIONAL_B_SPLINE_CURVE((1.0770627625188,1.0726344746246,1.))REPRESENTATION_ITEM(''));
#381=EDGE_CURVE('',#157,#355,#380,.T.);
#382=ORIENTED_EDGE('',*,*,#381,.T.);
#383=ORIENTED_EDGE('',*,*,#360,.F.);
#384=CARTESIAN_POINT('',(1.,-3.4641016151378,6.));
#385=CARTESIAN_POINT('',(0.053572205140672,-4.3395473253826,4.4836835505876));
#386=CARTESIAN_POINT('',(0.,-5.0981103093186,3.1698139216694));
#387=(BOUNDED_CURVE()B_SPLINE_CURVE(2,(#384,#385,#386),.HYPERBOLIC_ARC.,.F.,.U.)B_SPLINE_CURVE_WITH_KNOTS((3,3),(0.,1.),.UNSPECIFIED.)CURVE()GEOMETRIC_REPRESENTATION_ITEM()RATIONAL_B_SPLINE_CURVE((1.,1.0726344746246,1.0770627625188))REPRESENTATION_ITEM(''));
#388=EDGE_CURVE('',#347,#98,#387,.T.);
#389=ORIENTED_EDGE('',*,*,#388,.T.);
#390=ORIENTED_EDGE('',*,*,#103,.F.);
#391=CARTESIAN_POINT('',(1.,-6.9282032302755,-1.086712744501E-14));
#392=VERTEX_POINT('',#391);
#393=CARTESIAN_POINT('',(0.,-5.2941945360946,2.8301860783306));
#394=CARTESIAN_POINT('',(0.053572205140672,-6.0527575200306,1.5163164494123));
#395=CARTESIAN_POINT('',(1.,-6.9282032302755,-6.6613381477509E-15));
#396=(BOUNDED_CURVE()B_SPLINE_CURVE(2,(#393,#394,#395),.HYPERBOLIC_ARC.,.F.,.U.)B_SPLINE_CURVE_WITH_KNOTS((3,3),(0.,1.),.UNSPECIFIED.)CURVE()GEOMETRIC_REPRESENTATION_ITEM()RATIONAL_B_SPLINE_CURVE((1.0770627625188,1.0726344746246,1.))REPRESENTATION_ITEM(''));
#397=EDGE_CURVE('',#89,#392,#396,.T.);
#398=ORIENTED_EDGE('',*,*,#397,.T.);
#399=CARTESIAN_POINT('',(5.,-6.9282032302755,-1.1854019874919E-14));
#400=VERTEX_POINT('',#399);
#401=CARTESIAN_POINT('',(1.,-6.9282032302755,-1.086712744501E-14));
#402=DIRECTION('',(1.,0.,-2.4672310747725E-16));
#403=VECTOR('',#402,4.);
#404=LINE('',#401,#403);
#405=EDGE_CURVE('',#392,#400,#404,.T.);
#406=ORIENTED_EDGE('',*,*,#405,.T.);
#407=CARTESIAN_POINT('',(5.,-6.9282032302755,-7.5495165674511E-15));
#408=CARTESIAN_POINT('',(5.9464277948594,-6.0527575200306,1.5163164494125));
#409=CARTESIAN_POINT('',(6.,-5.2941945360945,2.8301860783308));
#410=(BOUNDED_CURVE()B_SPLINE_CURVE(2,(#407,#408,#409),.HYPERBOLIC_ARC.,.F.,.U.)B_SPLINE_CURVE_WITH_KNOTS((3,3),(0.,1.),.UNSPECIFIED.)CURVE()GEOMETRIC_REPRESENTATION_ITEM()RATIONAL_B_SPLINE_CURVE((1.,1.0726344746246,1.0770627625188))REPRESENTATION_ITEM(''));
#411=EDGE_CURVE('',#400,#159,#410,.T.);
#412=ORIENTED_EDGE('',*,*,#411,.T.);
#413=EDGE_LOOP('',(#376,#382,#383,#389,#390,#398,#406,#412));
#414=FACE_OUTER_BOUND('',#413,.T.);
#415=ADVANCED_FACE('',(#414),#375,.T.);
#416=CARTESIAN_POINT('',(3.,-5.1961524227066,-3.));
#417=DIRECTION('',(0.,0.5,-0.86602540378444));
#418=DIRECTION('',(0.,-0.86602540378444,-0.5));
#419=AXIS2_PLACEMENT_3D('',#416,#418,#417);
#420=PLANE('',#419);
#421=ORIENTED_EDGE('',*,*,#181,.F.);
#422=CARTESIAN_POINT('',(6.,-5.2941945360945,-2.8301860783308));
#423=CARTESIAN_POINT('',(5.9464277948594,-6.0527575200306,-1.5163164494125));
#424=CARTESIAN_POINT('',(5.,-6.9282032302755,-1.1546319456102E-14));
#425=(BOUNDED_CURVE()B_SPLINE_CURVE(2,(#422,#423,#424),.HYPERBOLIC_ARC.,.F.,.U.)B_SPLINE_CURVE_WITH_KNOTS((3,3),(0.,1.),.UNSPECIFIED.)CURVE()GEOMETRIC_REPRESENTATION_ITEM()RATIONAL_B_SPLINE_CURVE((1.0770627625188,1.0726344746246,1.))REPRESENTATION_ITEM(''));
#426=EDGE_CURVE('',#167,#400,#425,.T.);
#427=ORIENTED_EDGE('',*,*,#426,.T.);
#428=ORIENTED_EDGE('',*,*,#405,.F.);
#429=CARTESIAN_POINT('',(1.,-6.9282032302755,-1.2434497875802E-14));
#430=CARTESIAN_POINT('',(0.053572205140704,-6.0527575200307,-1.5163164494123));
#431=CARTESIAN_POINT('',(0.,-5.2941945360947,-2.8301860783305));
#432=(BOUNDED_CURVE()B_SPLINE_CURVE(2,(#429,#430,#431),.HYPERBOLIC_ARC.,.F.,.U.)B_SPLINE_CURVE_WITH_KNOTS((3,3),(0.,1.),.UNSPECIFIED.)CURVE()GEOMETRIC_REPRESENTATION_ITEM()RATIONAL_B_SPLINE_CURVE((1.,1.0726344746246,1.0770627625188))REPRESENTATION_ITEM(''));
#433=EDGE_CURVE('',#392,#81,#432,.T.);
#434=ORIENTED_EDGE('',*,*,#433,.T.);
#435=ORIENTED_EDGE('',*,*,#86,.F.);
#436=CARTESIAN_POINT('',(1.,-3.4641016151377,-6.));
#437=VERTEX_POINT('',#436);
#438=CARTESIAN_POINT('',(0.,-5.0981103093186,-3.1698139216695));
#439=CARTESIAN_POINT('',(0.053572205140704,-4.3395473253826,-4.4836835505877));
#440=CARTESIAN_POINT('',(1.,-3.4641016151377,-6.));
#441=(BOUNDED_CURVE()B_SPLINE_CURVE(2,(#438,#439,#440),.HYPERBOLIC_ARC.,.F.,.U.)B_SPLINE_CURVE_WITH_KNOTS((3,3),(0.,1.),.UNSPECIFIED.)CURVE()GEOMETRIC_REPRESENTATION_ITEM()RATIONAL_B_SPLINE_CURVE((1.0770627625188,1.0726344746246,1.))REPRESENTATION_ITEM(''));
#442=EDGE_CURVE('',#72,#437,#441,.T.);
#443=ORIENTED_EDGE('',*,*,#442,.T.);
#444=CARTESIAN_POINT('',(5.,-3.4641016151377,-6.));
#445=VERTEX_POINT('',#444);
#446=CARTESIAN_POINT('',(1.,-3.4641016151377,-6.));
#447=DIRECTION('',(1.,0.,0.));
#448=VECTOR('',#447,4.);
#449=LINE('',#446,#448);
#450=EDGE_CURVE('',#437,#445,#449,.T.);
#451=ORIENTED_EDGE('',*,*,#450,.T.);
#452=CARTESIAN_POINT('',(5.,-3.4641016151377,-6.));
#453=CARTESIAN_POINT('',(5.9464277948594,-4.3395473253827,-4.4836835505875));
#454=CARTESIAN_POINT('',(6.,-5.0981103093188,-3.1698139216692));
#455=(BOUNDED_CURVE()B_SPLINE_CURVE(2,(#452,#453,#454),.HYPERBOLIC_ARC.,.F.,.U.)B_SPLINE_CURVE_WITH_KNOTS((3,3),(0.,1.),.UNSPECIFIED.)CURVE()GEOMETRIC_REPRESENTATION_ITEM()RATIONAL_B_SPLINE_CURVE((1.,1.0726344746246,1.0770627625188))REPRESENTATION_ITEM(''));
#456=EDGE_CURVE('',#445,#176,#455,.T.);
#457=ORIENTED_EDGE('',*,*,#456,.T.);
#458=EDGE_LOOP('',(#421,#427,#428,#434,#435,#443,#451,#457));
#459=FACE_OUTER_BOUND('',#458,.T.);
#460=ADVANCED_FACE('',(#459),#420,.T.);
#461=CARTESIAN_POINT('',(3.,8.8817841970013E-15,-6.));
#462=DIRECTION('',(0.,1.,1.5383701491068E-15));
#463=DIRECTION('',(0.,1.5383701491068E-15,-1.));
#464=AXIS2_PLACEMENT_3D('',#461,#463,#462);
#465=PLANE('',#464);
#466=ORIENTED_EDGE('',*,*,#450,.F.);
#467=CARTESIAN_POINT('',(1.,-3.4641016151377,-6.));
#468=CARTESIAN_POINT('',(0.053572205140723,-1.7132101946481,-6.));
#469=CARTESIAN_POINT('',(4.1231507141841E-16,-0.19608422677617,-6.));
#470=(BOUNDED_CURVE()B_SPLINE_CURVE(2,(#467,#468,#469),.HYPERBOLIC_ARC.,.F.,.U.)B_SPLINE_CURVE_WITH_KNOTS((3,3),(0.,1.),.UNSPECIFIED.)CURVE()GEOMETRIC_REPRESENTATION_ITEM()RATIONAL_B_SPLINE_CURVE((1.,1.0726344746246,1.0770627625188))REPRESENTATION_ITEM(''));
#471=EDGE_CURVE('',#437,#64,#470,.T.);
#472=ORIENTED_EDGE('',*,*,#471,.T.);
#473=ORIENTED_EDGE('',*,*,#69,.F.);
#474=CARTESIAN_POINT('',(1.,3.4641016151378,-6.));
#475=VERTEX_POINT('',#474);
#476=CARTESIAN_POINT('',(0.,0.1960842267762,-6.));
#477=CARTESIAN_POINT('',(0.053572205140723,1.7132101946481,-6.));
#478=CARTESIAN_POINT('',(1.,3.4641016151378,-6.));
#479=(BOUNDED_CURVE()B_SPLINE_CURVE(2,(#476,#477,#478),.HYPERBOLIC_ARC.,.F.,.U.)B_SPLINE_CURVE_WITH_KNOTS((3,3),(0.,1.),.UNSPECIFIED.)CURVE()GEOMETRIC_REPRESENTATION_ITEM()RATIONAL_B_SPLINE_CURVE((1.0770627625188,1.0726344746246,1.))REPRESENTATION_ITEM(''));
#480=EDGE_CURVE('',#55,#475,#479,.T.);
#481=ORIENTED_EDGE('',*,*,#480,.T.);
#482=CARTESIAN_POINT('',(5.,3.4641016151378,-6.));
#483=VERTEX_POINT('',#482);
#484=CARTESIAN_POINT('',(1.,3.4641016151378,-6.));
#485=DIRECTION('',(1.,0.,0.));
#486=VECTOR('',#485,4.);
#487=LINE('',#484,#486);
#488=EDGE_CURVE('',#475,#483,#487,.T.);
#489=ORIENTED_EDGE('',*,*,#488,.T.);
#490=CARTESIAN_POINT('',(5.,3.4641016151378,-6.));
#491=CARTESIAN_POINT('',(5.9464277948594,1.7132101946479,-6.));
#492=CARTESIAN_POINT('',(6.,0.19608422677571,-6.));
#493=(BOUNDED_CURVE()B_SPLINE_CURVE(2,(#490,#491,#492),.HYPERBOLIC_ARC.,.F.,.U.)B_SPLINE_CURVE_WITH_KNOTS((3,3),(0.,1.),.UNSPECIFIED.)CURVE()GEOMETRIC_REPRESENTATION_ITEM()RATIONAL_B_SPLINE_CURVE((1.,1.0726344746246,1.0770627625188))REPRESENTATION_ITEM(''));
#494=EDGE_CURVE('',#483,#193,#493,.T.);
#495=ORIENTED_EDGE('',*,*,#494,.T.);
#496=ORIENTED_EDGE('',*,*,#198,.F.);
#497=CARTESIAN_POINT('',(6.,-0.19608422677568,-6.));
#498=CARTESIAN_POINT('',(5.9464277948594,-1.7132101946478,-6.));
#499=CARTESIAN_POINT('',(5.,-3.4641016151377,-6.));
#500=(BOUNDED_CURVE()B_SPLINE_CURVE(2,(#497,#498,#499),.HYPERBOLIC_ARC.,.F.,.U.)B_SPLINE_CURVE_WITH_KNOTS((3,3),(0.,1.),.UNSPECIFIED.)CURVE()GEOMETRIC_REPRESENTATION_ITEM()RATIONAL_B_SPLINE_CURVE((1.0770627625188,1.0726344746246,1.))REPRESENTATION_ITEM(''));
#501=EDGE_CURVE('',#184,#445,#500,.T.);
#502=ORIENTED_EDGE('',*,*,#501,.T.);
#503=EDGE_LOOP('',(#466,#472,#473,#481,#489,#495,#496,#502));
#504=FACE_OUTER_BOUND('',#503,.T.);
#505=ADVANCED_FACE('',(#504),#465,.T.);
#506=CARTESIAN_POINT('',(3.,5.1961524227066,-3.));
#507=DIRECTION('',(0.,0.5,0.86602540378444));
#508=DIRECTION('',(0.,0.86602540378444,-0.5));
#509=AXIS2_PLACEMENT_3D('',#506,#508,#507);
#510=PLANE('',#509);
#511=ORIENTED_EDGE('',*,*,#488,.F.);
#512=CARTESIAN_POINT('',(1.,3.4641016151378,-6.));
#513=CARTESIAN_POINT('',(0.053572205140716,4.3395473253826,-4.4836835505877));
#514=CARTESIAN_POINT('',(0.,5.0981103093186,-3.1698139216696));
#515=(BOUNDED_CURVE()B_SPLINE_CURVE(2,(#512,#513,#514),.HYPERBOLIC_ARC.,.F.,.U.)B_SPLINE_CURVE_WITH_KNOTS((3,3),(0.,1.),.UNSPECIFIED.)CURVE()GEOMETRIC_REPRESENTATION_ITEM()RATIONAL_B_SPLINE_CURVE((1.,1.0726344746246,1.0770627625188))REPRESENTATION_ITEM(''));
#516=EDGE_CURVE('',#475,#47,#515,.T.);
#517=ORIENTED_EDGE('',*,*,#516,.T.);
#518=ORIENTED_EDGE('',*,*,#52,.F.);
#519=CARTESIAN_POINT('',(0.,5.2941945360947,-2.8301860783304));
#520=CARTESIAN_POINT('',(0.053572205140715,6.0527575200307,-1.5163164494123));
#521=CARTESIAN_POINT('',(1.,6.9282032302755,1.1102230246252E-14));
#522=(BOUNDED_CURVE()B_SPLINE_CURVE(2,(#519,#520,#521),.HYPERBOLIC_ARC.,.F.,.U.)B_SPLINE_CURVE_WITH_KNOTS((3,3),(0.,1.),.UNSPECIFIED.)CURVE()GEOMETRIC_REPRESENTATION_ITEM()RATIONAL_B_SPLINE_CURVE((1.0770627625188,1.0726344746246,1.))REPRESENTATION_ITEM(''));
#523=EDGE_CURVE('',#38,#287,#522,.T.);
#524=ORIENTED_EDGE('',*,*,#523,.T.);
#525=ORIENTED_EDGE('',*,*,#292,.F.);
#526=CARTESIAN_POINT('',(5.,6.9282032302755,5.7731597280508E-15));
#527=CARTESIAN_POINT('',(5.9464277948594,6.0527575200306,-1.5163164494125));
#528=CARTESIAN_POINT('',(6.,5.2941945360945,-2.8301860783308));
#529=(BOUNDED_CURVE()B_SPLINE_CURVE(2,(#526,#527,#528),.HYPERBOLIC_ARC.,.F.,.U.)B_SPLINE_CURVE_WITH_KNOTS((3,3),(0.,1.),.UNSPECIFIED.)CURVE()GEOMETRIC_REPRESENTATION_ITEM()RATIONAL_B_SPLINE_CURVE((1.,1.0726344746246,1.0770627625188))REPRESENTATION_ITEM(''));
#530=EDGE_CURVE('',#279,#210,#529,.T.);
#531=ORIENTED_EDGE('',*,*,#530,.T.);
#532=ORIENTED_EDGE('',*,*,#215,.F.);
#533=CARTESIAN_POINT('',(6.,5.0981103093188,-3.1698139216692));
#534=CARTESIAN_POINT('',(5.9464277948594,4.3395473253827,-4.4836835505875));
#535=CARTESIAN_POINT('',(5.,3.4641016151378,-6.));
#536=(BOUNDED_CURVE()B_SPLINE_CURVE(2,(#533,#534,#535),.HYPERBOLIC_ARC.,.F.,.U.)B_SPLINE_CURVE_WITH_KNOTS((3,3),(0.,1.),.UNSPECIFIED.)CURVE()GEOMETRIC_REPRESENTATION_ITEM()RATIONAL_B_SPLINE_CURVE((1.0770627625188,1.0726344746246,1.))REPRESENTATION_ITEM(''));
#537=EDGE_CURVE('',#201,#483,#536,.T.);
#538=ORIENTED_EDGE('',*,*,#537,.T.);
#539=EDGE_LOOP('',(#511,#517,#518,#524,#525,#531,#532,#538));
#540=FACE_OUTER_BOUND('',#539,.T.);
#541=ADVANCED_FACE('',(#540),#510,.T.);
#542=CARTESIAN_POINT('',(-6.4899494381357,3.7052525006568E-16,2.8549555601068E-15));
#543=DIRECTION('',(6.5079475543134E-17,-0.49999999999941,-0.86602540378478));
#544=DIRECTION('',(1.,7.4178641324968E-17,3.2320246910043E-17));
#545=AXIS2_PLACEMENT_3D('',#542,#544,#543);
#546=CONICAL_SURFACE('',#545,0.,0.74645682030041);
#547=ORIENTED_EDGE('',*,*,#129,.F.);
#548=ORIENTED_EDGE('',*,*,#343,.F.);
#549=ORIENTED_EDGE('',*,*,#307,.F.);
#550=EDGE_LOOP('',(#547,#548,#549));
#551=FACE_OUTER_BOUND('',#550,.T.);
#552=ADVANCED_FACE('',(#551),#546,.T.);
#553=CARTESIAN_POINT('',(-6.4899494381357,3.7052525006568E-16,2.8549555601068E-15));
#554=DIRECTION('',(1.5567393678569E-16,0.50000000000162,-0.8660254037835));
#555=DIRECTION('',(1.,-5.9868720063231E-17,1.4519155697356E-16));
#556=AXIS2_PLACEMENT_3D('',#553,#555,#554);
#557=CONICAL_SURFACE('',#556,0.,0.74645682030041);
#558=ORIENTED_EDGE('',*,*,#112,.F.);
#559=ORIENTED_EDGE('',*,*,#388,.F.);
#560=ORIENTED_EDGE('',*,*,#352,.F.);
#561=EDGE_LOOP('',(#558,#559,#560));
#562=FACE_OUTER_BOUND('',#561,.T.);
#563=ADVANCED_FACE('',(#562),#557,.T.);
#564=CARTESIAN_POINT('',(-6.4899494381357,3.7052525006568E-16,2.8549555601068E-15));
#565=DIRECTION('',(6.1907089706369E-17,1.,1.3098923581914E-11));
#566=DIRECTION('',(1.,-6.1907089706968E-17,4.5736717986527E-17));
#567=AXIS2_PLACEMENT_3D('',#564,#566,#565);
#568=CONICAL_SURFACE('',#567,0.,0.74645682030041);
#569=ORIENTED_EDGE('',*,*,#95,.F.);
#570=ORIENTED_EDGE('',*,*,#433,.F.);
#571=ORIENTED_EDGE('',*,*,#397,.F.);
#572=EDGE_LOOP('',(#569,#570,#571));
#573=FACE_OUTER_BOUND('',#572,.T.);
#574=ADVANCED_FACE('',(#573),#568,.T.);
#575=CARTESIAN_POINT('',(-6.4899494381357,3.7052525006568E-16,2.8549555601068E-15));
#576=DIRECTION('',(-2.5514985699425E-17,0.50000000000336,0.8660254037825));
#577=DIRECTION('',(1.,-5.2552065927015E-17,5.9803117133636E-17));
#578=AXIS2_PLACEMENT_3D('',#575,#577,#576);
#579=CONICAL_SURFACE('',#578,0.,0.74645682030041);
#580=ORIENTED_EDGE('',*,*,#78,.F.);
#581=ORIENTED_EDGE('',*,*,#471,.F.);
#582=ORIENTED_EDGE('',*,*,#442,.F.);
#583=EDGE_LOOP('',(#580,#581,#582));
#584=FACE_OUTER_BOUND('',#583,.T.);
#585=ADVANCED_FACE('',(#584),#579,.T.);
#586=CARTESIAN_POINT('',(-6.4899494381357,3.7052525006568E-16,2.8549555601068E-15));
#587=DIRECTION('',(2.8099008288566E-17,-0.50000000000161,0.86602540378351));
#588=DIRECTION('',(1.,-3.3046653806999E-16,-2.2324088471245E-16));
#589=AXIS2_PLACEMENT_3D('',#586,#588,#587);
#590=CONICAL_SURFACE('',#589,0.,0.74645682030041);
#591=ORIENTED_EDGE('',*,*,#61,.F.);
#592=ORIENTED_EDGE('',*,*,#516,.F.);
#593=ORIENTED_EDGE('',*,*,#480,.F.);
#594=EDGE_LOOP('',(#591,#592,#593));
#595=FACE_OUTER_BOUND('',#594,.T.);
#596=ADVANCED_FACE('',(#595),#590,.T.);
#597=CARTESIAN_POINT('',(-6.4899494381358,-7.7180934074153E-14,2.183075913477E-14));
#598=DIRECTION('',(-2.7189958248575E-16,-1.,6.117803788059E-11));
#599=DIRECTION('',(1.,-2.7189958247895E-16,1.1120999569744E-16));
#600=AXIS2_PLACEMENT_3D('',#597,#599,#598);
#601=CONICAL_SURFACE('',#600,0.,0.74645682030041);
#602=ORIENTED_EDGE('',*,*,#298,.F.);
#603=ORIENTED_EDGE('',*,*,#523,.F.);
#604=ORIENTED_EDGE('',*,*,#44,.F.);
#605=EDGE_LOOP('',(#602,#603,#604));
#606=FACE_OUTER_BOUND('',#605,.T.);
#607=ADVANCED_FACE('',(#606),#601,.T.);
#608=CARTESIAN_POINT('',(12.489949438136,-1.1135961179201E-15,-4.3947471840785E-15));
#609=DIRECTION('',(3.7635866016125E-17,1.,-2.5402203923225E-15));
#610=DIRECTION('',(-1.,3.7635866016125E-17,1.1747359424362E-16));
#611=AXIS2_PLACEMENT_3D('',#608,#610,#609);
#612=CONICAL_SURFACE('',#611,0.,0.74645682030041);
#613=ORIENTED_EDGE('',*,*,#173,.F.);
#614=ORIENTED_EDGE('',*,*,#411,.F.);
#615=ORIENTED_EDGE('',*,*,#426,.F.);
#616=EDGE_LOOP('',(#613,#614,#615));
#617=FACE_OUTER_BOUND('',#616,.T.);
#618=ADVANCED_FACE('',(#617),#612,.T.);
#619=CARTESIAN_POINT('',(12.489949438136,-1.1135961179201E-15,-4.3947471840785E-15));
#620=DIRECTION('',(1.9523842662939E-16,0.50000000000164,0.86602540378349));
#621=DIRECTION('',(-1.,-2.729749734511E-17,2.4120213378199E-16));
#622=AXIS2_PLACEMENT_3D('',#619,#621,#620);
#623=CONICAL_SURFACE('',#622,0.,0.74645682030041);
#624=ORIENTED_EDGE('',*,*,#190,.F.);
#625=ORIENTED_EDGE('',*,*,#456,.F.);
#626=ORIENTED_EDGE('',*,*,#501,.F.);
#627=EDGE_LOOP('',(#624,#625,#626));
#628=FACE_OUTER_BOUND('',#627,.T.);
#629=ADVANCED_FACE('',(#628),#623,.T.);
#630=CARTESIAN_POINT('',(12.489949438136,-1.1135961179201E-15,-4.3947471840785E-15));
#631=DIRECTION('',(1.416244326414E-16,-0.50000000000161,0.86602540378351));
#632=DIRECTION('',(-1.,8.3477556456353E-17,2.1172959831043E-16));
#633=AXIS2_PLACEMENT_3D('',#630,#632,#631);
#634=CONICAL_SURFACE('',#633,0.,0.74645682030041);
#635=ORIENTED_EDGE('',*,*,#207,.F.);
#636=ORIENTED_EDGE('',*,*,#494,.F.);
#637=ORIENTED_EDGE('',*,*,#537,.F.);
#638=EDGE_LOOP('',(#635,#636,#637));
#639=FACE_OUTER_BOUND('',#638,.T.);
#640=ADVANCED_FACE('',(#639),#634,.T.);
#641=CARTESIAN_POINT('',(12.489949438136,-9.6091426185099E-14,2.3920428772932E-14));
#642=DIRECTION('',(-7.2523429668417E-15,-1.,-6.1165860883379E-11));
#643=DIRECTION('',(-1.,7.2523429669637E-15,-1.9948028234281E-15));
#644=AXIS2_PLACEMENT_3D('',#641,#643,#642);
#645=CONICAL_SURFACE('',#644,0.,0.7464568203004);
#646=ORIENTED_EDGE('',*,*,#284,.F.);
#647=ORIENTED_EDGE('',*,*,#224,.F.);
#648=ORIENTED_EDGE('',*,*,#530,.F.);
#649=EDGE_LOOP('',(#646,#647,#648));
#650=FACE_OUTER_BOUND('',#649,.T.);
#651=ADVANCED_FACE('',(#650),#645,.T.);
#652=CARTESIAN_POINT('',(12.489949438136,-1.1135961179201E-15,-4.3947471840785E-15));
#653=DIRECTION('',(-3.5091236341508E-16,-0.5000000000016,-0.86602540378352));
#654=DIRECTION('',(-1.,3.2571222718104E-17,3.8639369075554E-16));
#655=AXIS2_PLACEMENT_3D('',#652,#654,#653);
#656=CONICAL_SURFACE('',#655,0.,0.74645682030041);
#657=ORIENTED_EDGE('',*,*,#241,.F.);
#658=ORIENTED_EDGE('',*,*,#321,.F.);
#659=ORIENTED_EDGE('',*,*,#336,.F.);
#660=EDGE_LOOP('',(#657,#658,#659));
#661=FACE_OUTER_BOUND('',#660,.T.);
#662=ADVANCED_FACE('',(#661),#656,.T.);
#663=CARTESIAN_POINT('',(12.489949438136,-1.1135961179201E-15,-4.3947471840785E-15));
#664=DIRECTION('',(-1.9265440404025E-16,0.5000000000049,-0.86602540378161));
#665=DIRECTION('',(-1.,1.8858168830936E-16,3.313358325782E-16));
#666=AXIS2_PLACEMENT_3D('',#663,#665,#664);
#667=CONICAL_SURFACE('',#666,0.,0.74645682030041);
#668=ORIENTED_EDGE('',*,*,#256,.F.);
#669=ORIENTED_EDGE('',*,*,#366,.F.);
#670=ORIENTED_EDGE('',*,*,#381,.F.);
#671=EDGE_LOOP('',(#668,#669,#670));
#672=FACE_OUTER_BOUND('',#671,.T.);
#673=ADVANCED_FACE('',(#672),#667,.T.);
#674=CARTESIAN_POINT('',(6.,-8.8817841970013E-16,1.3877787807814E-15));
#675=DIRECTION('',(-5.3828995133341E-16,-2.6914497566671E-16,-1.));
#676=DIRECTION('',(-1.,3.9018731021667E-16,-3.4231876592609E-16));
#677=AXIS2_PLACEMENT_3D('',#674,#676,#675);
#678=CYLINDRICAL_SURFACE('',#677,1.65);
#679=CARTESIAN_POINT('',(6.,-1.3322676295502E-15,-1.65));
#680=VERTEX_POINT('',#679);
#681=CARTESIAN_POINT('',(6.,-1.3322676295502E-15,-1.65));
#682=DIRECTION('',(-1.,3.9018731021668E-16,0.));
#683=VECTOR('',#682,6.);
#684=LINE('',#681,#683);
#685=EDGE_CURVE('',#680,#140,#684,.T.);
#686=ORIENTED_EDGE('',*,*,#685,.T.);
#687=ORIENTED_EDGE('',*,*,#146,.F.);
#688=ORIENTED_EDGE('',*,*,#685,.F.);
#689=CARTESIAN_POINT('',(6.,-1.1752583836818E-15,2.4424906541753E-15));
#690=DIRECTION('',(4.1328123574767E-16,-9.5157118708108E-17,-1.));
#691=DIRECTION('',(1.,-9.5157118708107E-16,4.1328123574767E-16));
#692=AXIS2_PLACEMENT_3D('',#689,#691,#690);
#693=CIRCLE('',#692,1.65);
#694=EDGE_CURVE('',#680,#680,#693,.T.);
#695=ORIENTED_EDGE('',*,*,#694,.T.);
#696=EDGE_LOOP('',(#686,#687,#688,#695));
#697=FACE_OUTER_BOUND('',#696,.T.);
#698=ADVANCED_FACE('',(#697),#678,.F.);
#699=CARTESIAN_POINT('',(6.,-1.4737205583712,0.));
#700=DIRECTION('',(0.,1.,0.));
#701=DIRECTION('',(-1.,0.,0.));
#702=AXIS2_PLACEMENT_3D('',#699,#701,#700);
#703=PLANE('',#702);
#704=ORIENTED_EDGE('',*,*,#694,.F.);
#705=EDGE_LOOP('',(#704));
#706=FACE_OUTER_BOUND('',#705,.T.);
#707=CARTESIAN_POINT('',(6.,1.5,-3.6739403974421E-16));
#708=VERTEX_POINT('',#707);
#709=CARTESIAN_POINT('',(6.,-2.8865798640254E-15,8.8867992720281E-16));
#710=DIRECTION('',(5.5620090945999E-16,1.,-8.3738264463134E-16));
#711=DIRECTION('',(1.,-5.5620090945999E-16,6.2803698347351E-16));
#712=AXIS2_PLACEMENT_3D('',#709,#711,#710);
#713=CIRCLE('',#712,1.5);
#714=EDGE_CURVE('',#708,#708,#713,.T.);
#715=ORIENTED_EDGE('',*,*,#714,.T.);
#716=EDGE_LOOP('',(#715));
#717=FACE_BOUND('',#716,.T.);
#718=ADVANCED_FACE('',(#706,#717),#703,.T.);
#719=CARTESIAN_POINT('',(6.,8.8817841970013E-16,-2.6645352591004E-15));
#720=DIRECTION('',(0.,1.,4.8446095620006E-16));
#721=DIRECTION('',(1.,0.,0.));
#722=AXIS2_PLACEMENT_3D('',#719,#721,#720);
#723=CYLINDRICAL_SURFACE('',#722,5.5);
#724=ORIENTED_EDGE('',*,*,#267,.F.);
#725=CARTESIAN_POINT('',(17.3,5.5,-1.3471114790621E-15));
#726=VERTEX_POINT('',#725);
#727=CARTESIAN_POINT('',(6.,5.5,-1.9721522630525E-31));
#728=DIRECTION('',(1.,0.,-1.1921340522673E-16));
#729=VECTOR('',#728,11.3);
#730=LINE('',#727,#729);
#731=EDGE_CURVE('',#261,#726,#730,.T.);
#732=ORIENTED_EDGE('',*,*,#731,.T.);
#733=CARTESIAN_POINT('',(17.3,5.3290705182008E-15,-3.2312224294826E-15));
#734=DIRECTION('',(-1.6378229073945E-15,1.,3.4256562734919E-16));
#735=DIRECTION('',(-1.,-1.6378229073945E-15,2.2837708489946E-15));
#736=AXIS2_PLACEMENT_3D('',#733,#735,#734);
#737=CIRCLE('',#736,5.5);
#738=EDGE_CURVE('',#726,#726,#737,.T.);
#739=ORIENTED_EDGE('',*,*,#738,.T.);
#740=ORIENTED_EDGE('',*,*,#731,.F.);
#741=EDGE_LOOP('',(#724,#732,#739,#740));
#742=FACE_OUTER_BOUND('',#741,.T.);
#743=CARTESIAN_POINT('',(13.,-1.65,5.246665607793));
#744=VERTEX_POINT('',#743);
#745=CARTESIAN_POINT('',(13.,-1.65,5.2466656077932));
#746=CARTESIAN_POINT('',(12.772957301439,-1.65,5.2466656077932));
#747=CARTESIAN_POINT('',(12.091829205758,-1.5094134900827,5.2908780197714));
#748=CARTESIAN_POINT('',(11.596311643079,-0.97407328877416,5.4292969547631));
#749=CARTESIAN_POINT('',(11.257270819464,-0.027930178171559,5.5255413987309));
#750=CARTESIAN_POINT('',(11.347980285882,0.55243548153676,5.4908528269167));
#751=CARTESIAN_POINT('',(12.075009360837,1.5106700168704,5.3141665201245));
#752=CARTESIAN_POINT('',(12.721083660645,1.7498063759641,5.2162200654449));
#753=CARTESIAN_POINT('',(14.118418920342,1.4446325247002,5.309772361641));
#754=CARTESIAN_POINT('',(14.65,0.76961701114431,5.5));
#755=CARTESIAN_POINT('',(14.65,-0.82675691937195,5.5));
#756=CARTESIAN_POINT('',(14.039988332681,-1.5258653079081,5.2853498047015));
#757=CARTESIAN_POINT('',(13.1700695329,-1.6419303068034,5.2492009034561));
#758=CARTESIAN_POINT('',(13.097216879286,-1.6483890133606,5.2471722396531));
#759=CARTESIAN_POINT('',(13.024304219821,-1.65,5.2466656077932));
#760=CARTESIAN_POINT('',(13.,-1.65,5.2466656077932));
#761=B_SPLINE_CURVE_WITH_KNOTS('',3,(#745,#746,#747,#748,#749,#750,#751,#752,#753,#754,#755,#756,#757,#758,#759,#760),.UNSPECIFIED.,.T.,.U.,(4,1,2,2,2,2,2,1,4),(0.,0.3333333334316,1.0000000002948,1.8442509383672,2.8184349867666,4.0016513538485,5.2727151479192,5.3471754708912,5.3844056323772),.UNSPECIFIED.);
#762=EDGE_CURVE('',#744,#744,#761,.T.);
#763=ORIENTED_EDGE('',*,*,#762,.T.);
#764=EDGE_LOOP('',(#763));
#765=FACE_BOUND('',#764,.T.);
#766=ADVANCED_FACE('',(#742,#765),#723,.T.);
#767=CARTESIAN_POINT('',(6.,-1.0547118733939E-15,4.4408920985006E-16));
#768=DIRECTION('',(0.,1.,-5.4098883306285E-16));
#769=DIRECTION('',(1.,-8.5455959101056E-18,0.));
#770=AXIS2_PLACEMENT_3D('',#767,#769,#768);
#771=CYLINDRICAL_SURFACE('',#770,1.5);
#772=ORIENTED_EDGE('',*,*,#714,.F.);
#773=CARTESIAN_POINT('',(12.312613645757,1.5,2.995086153925E-16));
#774=VERTEX_POINT('',#773);
#775=CARTESIAN_POINT('',(6.,1.5,-3.6739403974421E-16));
#776=DIRECTION('',(1.,0.,1.0564604339202E-16));
#777=VECTOR('',#776,6.312613645757);
#778=LINE('',#775,#777);
#779=EDGE_CURVE('',#708,#774,#778,.T.);
#780=ORIENTED_EDGE('',*,*,#779,.T.);
#781=CARTESIAN_POINT('',(12.15,-1.4142135623731,-0.5));
#782=VERTEX_POINT('',#781);
#783=CARTESIAN_POINT('',(12.312613645757,1.5,8.736656603332E-16));
#784=CARTESIAN_POINT('',(12.312613645757,1.5,0.087175299294998));
#785=CARTESIAN_POINT('',(12.262863025278,1.4772014015785,0.34870119717999));
#786=CARTESIAN_POINT('',(12.093944071884,1.3840071526879,0.59693109469897));
#787=CARTESIAN_POINT('',(11.689167056059,1.0756476968962,1.1543085177654));
#788=CARTESIAN_POINT('',(11.35,0.60814915227511,1.5));
#789=CARTESIAN_POINT('',(11.35,-0.61245965003749,1.5));
#790=CARTESIAN_POINT('',(11.694409963991,-1.082222575789,1.1498044474408));
#791=CARTESIAN_POINT('',(12.178299333869,-1.4468107716206,0.47924009694219));
#792=CARTESIAN_POINT('',(12.419800644443,-1.5510207235245,0.058228183945205));
#793=CARTESIAN_POINT('',(12.226507805811,-1.4601978724301,-0.36993673012193));
#794=CARTESIAN_POINT('',(12.15,-1.4142135623731,-0.5));
#795=B_SPLINE_CURVE_WITH_KNOTS('',3,(#783,#784,#785,#786,#787,#788,#789,#790,#791,#792,#793,#794),.UNSPECIFIED.,.F.,.U.,(4,1,2,2,2,1,4),(0.,0.3333333333334,1.,3.2093228634769,5.4343051769813,6.6526081315407,7.2617596088204),.UNSPECIFIED.);
#796=EDGE_CURVE('',#774,#782,#795,.T.);
#797=ORIENTED_EDGE('',*,*,#796,.T.);
#798=CARTESIAN_POINT('',(12.15,1.4142135623731,-0.5));
#799=VERTEX_POINT('',#798);
#800=CARTESIAN_POINT('',(12.15,-1.4142135623731,-0.5));
#801=CARTESIAN_POINT('',(12.059907616631,-1.3600643674414,-0.65315705172805));
#802=CARTESIAN_POINT('',(11.739391588616,-1.1322641891503,-1.0599702947765));
#803=CARTESIAN_POINT('',(11.467585091882,-0.71834756052626,-1.3701151879394));
#804=CARTESIAN_POINT('',(11.267036335141,0.20462481685208,-1.5918206353995));
#805=CARTESIAN_POINT('',(11.454056724543,0.7364131308149,-1.3989097102348));
#806=CARTESIAN_POINT('',(11.840524686657,1.1812510708222,-0.9354837246505));
#807=CARTESIAN_POINT('',(11.978205444447,1.3038812125838,-0.76425956458745));
#808=CARTESIAN_POINT('',(12.109579532187,1.3899192135171,-0.56871479528245));
#809=CARTESIAN_POINT('',(12.15,1.4142135623731,-0.5));
#810=B_SPLINE_CURVE_WITH_KNOTS('',3,(#800,#801,#802,#803,#804,#805,#806,#807,#808,#809),.UNSPECIFIED.,.F.,.U.,(4,1,2,2,1,4),(0.,0.3333333333334,1.,2.0053795476738,2.2935944038694,2.4377018319672),.UNSPECIFIED.);
#811=EDGE_CURVE('',#782,#799,#810,.T.);
#812=ORIENTED_EDGE('',*,*,#811,.T.);
#813=CARTESIAN_POINT('',(12.15,1.4142135623731,-0.5));
#814=CARTESIAN_POINT('',(12.212441481664,1.4513384552819,-0.39575319425582));
#815=CARTESIAN_POINT('',(12.289995112948,1.4896865952037,-0.1959469137752));
#816=CARTESIAN_POINT('',(12.312613645757,1.5,-0.054369863945012));
#817=CARTESIAN_POINT('',(12.312613645757,1.5,2.573020360248E-16));
#818=B_SPLINE_CURVE_WITH_KNOTS('',2,(#813,#814,#815,#816,#817),.UNSPECIFIED.,.F.,.U.,(3,1,1,3),(0.,0.4682954223598,0.80334447309047,1.),.UNSPECIFIED.);
#819=EDGE_CURVE('',#799,#774,#818,.T.);
#820=ORIENTED_EDGE('',*,*,#819,.T.);
#821=ORIENTED_EDGE('',*,*,#779,.F.);
#822=EDGE_LOOP('',(#772,#780,#797,#812,#820,#821));
#823=FACE_OUTER_BOUND('',#822,.T.);
#824=ADVANCED_FACE('',(#823),#771,.F.);
#825=CARTESIAN_POINT('',(22.800000000001,-4.9100610802793E-15,3.7915797935055E-15));
#826=DIRECTION('',(4.1162185925697E-16,1.,-2.7241676849722E-16));
#827=DIRECTION('',(-1.,4.1162185925697E-16,-4.1696137577647E-16));
#828=AXIS2_PLACEMENT_3D('',#825,#827,#826);
#829=CONICAL_SURFACE('',#828,0.,0.7853981633974);
#830=CARTESIAN_POINT('',(17.5,5.3,-3.2297397080005E-17));
#831=VERTEX_POINT('',#830);
#832=CARTESIAN_POINT('',(17.5,5.3,-3.2297397080005E-17));
#833=DIRECTION('',(-0.70710678118655,0.70710678118655,-4.6485697668455E-15));
#834=VECTOR('',#833,0.28284271247462);
#835=LINE('',#832,#834);
#836=EDGE_CURVE('',#831,#726,#835,.T.);
#837=ORIENTED_EDGE('',*,*,#836,.T.);
#838=ORIENTED_EDGE('',*,*,#738,.F.);
#839=ORIENTED_EDGE('',*,*,#836,.F.);
#840=CARTESIAN_POINT('',(17.5,-1.7763568394003E-15,-1.288371364027E-15));
#841=DIRECTION('',(-0.,1.,2.3699508810321E-16));
#842=DIRECTION('',(-1.,0.,-0.));
#843=AXIS2_PLACEMENT_3D('',#840,#842,#841);
#844=CIRCLE('',#843,5.3);
#845=EDGE_CURVE('',#831,#831,#844,.T.);
#846=ORIENTED_EDGE('',*,*,#845,.T.);
#847=EDGE_LOOP('',(#837,#838,#839,#846));
#848=FACE_OUTER_BOUND('',#847,.T.);
#849=ADVANCED_FACE('',(#848),#829,.T.);
#850=CARTESIAN_POINT('',(13.,1.1102230246252E-14,5.6025532534789));
#851=DIRECTION('',(0.,-1.,-5.3828995133341E-16));
#852=DIRECTION('',(5.8216840250844E-16,6.5493945282199E-16,-1.));
#853=AXIS2_PLACEMENT_3D('',#850,#852,#851);
#854=CYLINDRICAL_SURFACE('',#853,1.65);
#855=CARTESIAN_POINT('',(13.,-1.65,-0.5));
#856=VERTEX_POINT('',#855);
#857=CARTESIAN_POINT('',(13.,-1.65,-0.5));
#858=DIRECTION('',(0.,0.,1.));
#859=VECTOR('',#858,5.746665607793);
#860=LINE('',#857,#859);
#861=EDGE_CURVE('',#856,#744,#860,.T.);
#862=ORIENTED_EDGE('',*,*,#861,.T.);
#863=ORIENTED_EDGE('',*,*,#762,.F.);
#864=ORIENTED_EDGE('',*,*,#861,.F.);
#865=CARTESIAN_POINT('',(13.,6.6613381477509E-16,-0.5));
#866=DIRECTION('',(1.0765799026668E-15,-1.,-2.0185873175003E-16));
#867=DIRECTION('',(-3.4839955069532E-16,1.5661328814407E-16,-1.));
#868=AXIS2_PLACEMENT_3D('',#865,#867,#866);
#869=CIRCLE('',#868,1.65);
#870=EDGE_CURVE('',#856,#782,#869,.T.);
#871=ORIENTED_EDGE('',*,*,#870,.T.);
#872=ORIENTED_EDGE('',*,*,#796,.F.);
#873=ORIENTED_EDGE('',*,*,#819,.F.);
#874=CARTESIAN_POINT('',(13.849999999983,1.4142135623836,-0.5));
#875=VERTEX_POINT('',#874);
#876=CARTESIAN_POINT('',(13.,3.9968028886506E-15,-0.5));
#877=DIRECTION('',(-0.51515151515151,0.85709912871097,1.0092936587501E-15));
#878=DIRECTION('',(-6.5307236750263E-17,1.1477202208144E-15,-1.));
#879=AXIS2_PLACEMENT_3D('',#876,#878,#877);
#880=CIRCLE('',#879,1.65);
#881=EDGE_CURVE('',#799,#875,#880,.T.);
#882=ORIENTED_EDGE('',*,*,#881,.T.);
#883=CARTESIAN_POINT('',(13.687386354243,1.5,3.948680543657E-16));
#884=VERTEX_POINT('',#883);
#885=CARTESIAN_POINT('',(13.85,1.4142135623731,-0.5));
#886=CARTESIAN_POINT('',(13.804206325088,1.4416797067082,-0.42245203400231));
#887=CARTESIAN_POINT('',(13.716804454186,1.4866746591805,-0.23010516365605));
#888=CARTESIAN_POINT('',(13.687386354243,1.5,-0.057205187568678));
#889=CARTESIAN_POINT('',(13.687386354243,1.5,3.7862620000983E-16));
#890=B_SPLINE_CURVE_WITH_KNOTS('',2,(#885,#886,#887,#888,#889),.UNSPECIFIED.,.F.,.U.,(3,1,1,3),(0.,0.3492720600305,0.79331141657249,1.),.UNSPECIFIED.);
#891=EDGE_CURVE('',#875,#884,#890,.T.);
#892=ORIENTED_EDGE('',*,*,#891,.T.);
#893=CARTESIAN_POINT('',(13.850000000039,-1.4142135623498,-0.5));
#894=VERTEX_POINT('',#893);
#895=CARTESIAN_POINT('',(13.687386354243,1.5,9.9966539058946E-16));
#896=CARTESIAN_POINT('',(13.687386354243,1.5,0.094289604107791));
#897=CARTESIAN_POINT('',(13.745588531586,1.4733284116716,0.37715841643116));
#898=CARTESIAN_POINT('',(13.937946233909,1.3632646169549,0.64401319009743));
#899=CARTESIAN_POINT('',(14.335530070774,1.0427317639796,1.1755800277245));
#900=CARTESIAN_POINT('',(14.65,0.58864832227578,1.5));
#901=CARTESIAN_POINT('',(14.65,-0.60689439085073,1.5));
#902=CARTESIAN_POINT('',(14.308526367153,-1.0798222056959,1.1536722580045));
#903=CARTESIAN_POINT('',(13.826933049794,-1.4429668100661,0.48660051597826));
#904=CARTESIAN_POINT('',(13.577728234085,-1.5519657573278,0.064550537883148));
#905=CARTESIAN_POINT('',(13.77268142518,-1.460685177655,-0.36855842280583));
#906=CARTESIAN_POINT('',(13.85,-1.4142135623731,-0.5));
#907=B_SPLINE_CURVE_WITH_KNOTS('',3,(#895,#896,#897,#898,#899,#900,#901,#902,#903,#904,#905,#906),.UNSPECIFIED.,.F.,.U.,(4,1,2,2,2,1,4),(0.,0.1992464322003,0.597739296601,1.8217018689447,3.083603061315,3.7502697279817,4.083603061315),.UNSPECIFIED.);
#908=EDGE_CURVE('',#884,#894,#907,.T.);
#909=ORIENTED_EDGE('',*,*,#908,.T.);
#910=CARTESIAN_POINT('',(13.,5.7731597280508E-15,-0.5));
#911=DIRECTION('',(0.51515151517511,-0.85709912869679,-9.4200741483339E-16));
#912=DIRECTION('',(5.49163040643E-17,1.2146078111391E-15,-1.));
#913=AXIS2_PLACEMENT_3D('',#910,#912,#911);
#914=CIRCLE('',#913,1.6500000000001);
#915=EDGE_CURVE('',#894,#856,#914,.T.);
#916=ORIENTED_EDGE('',*,*,#915,.T.);
#917=EDGE_LOOP('',(#862,#863,#864,#871,#872,#873,#882,#892,#909,#916));
#918=FACE_OUTER_BOUND('',#917,.T.);
#919=ADVANCED_FACE('',(#918),#854,.F.);
#920=CARTESIAN_POINT('',(13.,1.0935696792558E-14,-0.5));
#921=DIRECTION('',(1.0765799026668E-15,-1.,-7.065055611251E-16));
#922=DIRECTION('',(0.,7.4940054162198E-16,-1.));
#923=AXIS2_PLACEMENT_3D('',#920,#922,#921);
#924=CYLINDRICAL_SURFACE('',#923,1.65);
#925=CARTESIAN_POINT('',(13.,-1.65,-2.5));
#926=VERTEX_POINT('',#925);
#927=CARTESIAN_POINT('',(13.,-1.65,-0.5));
#928=DIRECTION('',(0.,0.,-1.));
#929=VECTOR('',#928,2.);
#930=LINE('',#927,#929);
#931=EDGE_CURVE('',#856,#926,#930,.T.);
#932=ORIENTED_EDGE('',*,*,#931,.T.);
#933=CARTESIAN_POINT('',(13.,1.3322676295502E-15,-2.5));
#934=DIRECTION('',(-2.3789279677027E-16,-1.,-3.1532295300196E-16));
#935=DIRECTION('',(-7.6125694966486E-16,3.1532295300196E-16,-1.));
#936=AXIS2_PLACEMENT_3D('',#933,#935,#934);
#937=CIRCLE('',#936,1.65);
#938=EDGE_CURVE('',#926,#926,#937,.T.);
#939=ORIENTED_EDGE('',*,*,#938,.T.);
#940=ORIENTED_EDGE('',*,*,#931,.F.);
#941=ORIENTED_EDGE('',*,*,#915,.F.);
#942=CARTESIAN_POINT('',(13.85,-1.4142135623731,-0.5));
#943=CARTESIAN_POINT('',(13.878834332751,-1.3968829529866,-0.54901836567714));
#944=CARTESIAN_POINT('',(13.970483494625,-1.3381968045492,-0.69067950800613));
#945=CARTESIAN_POINT('',(14.067621664706,-1.2611528850899,-0.81837334198623));
#946=CARTESIAN_POINT('',(14.471849976274,-0.87999155800932,-1.3271483284683));
#947=CARTESIAN_POINT('',(14.734808953561,-0.31861273776178,-1.593665619571));
#948=CARTESIAN_POINT('',(14.553318830285,0.68112094538629,-1.3933320455276));
#949=CARTESIAN_POINT('',(14.276380238273,1.1203463237538,-1.0772068058461));
#950=CARTESIAN_POINT('',(13.943164245682,1.3582180529699,-0.65837921765994));
#951=CARTESIAN_POINT('',(13.85,1.4142135623731,-0.5));
#952=B_SPLINE_CURVE_WITH_KNOTS('',3,(#942,#943,#944,#945,#946,#947,#948,#949,#950,#951),.UNSPECIFIED.,.F.,.U.,(4,1,2,2,1,4),(0.,0.1001752768727,0.3005258306181,1.3587294821183,2.025396148785,2.3587294821183),.UNSPECIFIED.);
#953=EDGE_CURVE('',#894,#875,#952,.T.);
#954=ORIENTED_EDGE('',*,*,#953,.T.);
#955=ORIENTED_EDGE('',*,*,#881,.F.);
#956=ORIENTED_EDGE('',*,*,#811,.F.);
#957=ORIENTED_EDGE('',*,*,#870,.F.);
#958=EDGE_LOOP('',(#932,#939,#940,#941,#954,#955,#956,#957));
#959=FACE_OUTER_BOUND('',#958,.T.);
#960=ADVANCED_FACE('',(#959),#924,.F.);
#961=CARTESIAN_POINT('',(17.5,-1.4737205583712,-3.5527136788005E-15));
#962=DIRECTION('',(0.,1.,0.));
#963=DIRECTION('',(1.,0.,0.));
#964=AXIS2_PLACEMENT_3D('',#961,#963,#962);
#965=PLANE('',#964);
#966=ORIENTED_EDGE('',*,*,#845,.F.);
#967=EDGE_LOOP('',(#966));
#968=FACE_OUTER_BOUND('',#967,.T.);
#969=CARTESIAN_POINT('',(17.5,1.7,-5.0519775368011E-16));
#970=VERTEX_POINT('',#969);
#971=CARTESIAN_POINT('',(17.5,0.,4.3685772153015E-16));
#972=DIRECTION('',(-0.,1.,-5.5415027953545E-16));
#973=DIRECTION('',(-1.,0.,0.));
#974=AXIS2_PLACEMENT_3D('',#971,#973,#972);
#975=CIRCLE('',#974,1.7);
#976=EDGE_CURVE('',#970,#970,#975,.T.);
#977=ORIENTED_EDGE('',*,*,#976,.T.);
#978=EDGE_LOOP('',(#977));
#979=FACE_BOUND('',#978,.T.);
#980=ADVANCED_FACE('',(#968,#979),#965,.T.);
#981=CARTESIAN_POINT('',(13.408648335739,-1.2767564783189E-15,6.6613381477509E-16));
#982=DIRECTION('',(-1.1842378929335E-15,1.,-6.8901856967954E-16));
#983=DIRECTION('',(1.,4.2795786159147E-17,5.068039162754E-32));
#984=AXIS2_PLACEMENT_3D('',#981,#983,#982);
#985=CYLINDRICAL_SURFACE('',#984,1.5);
#986=CARTESIAN_POINT('',(17.3,1.5,-3.6739403974421E-16));
#987=VERTEX_POINT('',#986);
#988=CARTESIAN_POINT('',(17.3,-6.6613381477509E-16,6.5316605840026E-16));
#989=DIRECTION('',(-3.7558967790756E-15,1.,-6.8037339876296E-16));
#990=DIRECTION('',(1.,3.7558967790756E-15,-3.3495305785254E-15));
#991=AXIS2_PLACEMENT_3D('',#988,#990,#989);
#992=CIRCLE('',#991,1.5);
#993=EDGE_CURVE('',#987,#987,#992,.T.);
#994=ORIENTED_EDGE('',*,*,#993,.T.);
#995=CARTESIAN_POINT('',(17.3,1.5,-3.6739403974421E-16));
#996=DIRECTION('',(-1.,0.,2.1100017019677E-16));
#997=VECTOR('',#996,3.612613645757);
#998=LINE('',#995,#997);
#999=EDGE_CURVE('',#987,#884,#998,.T.);
#1000=ORIENTED_EDGE('',*,*,#999,.T.);
#1001=ORIENTED_EDGE('',*,*,#891,.F.);
#1002=ORIENTED_EDGE('',*,*,#953,.F.);
#1003=ORIENTED_EDGE('',*,*,#908,.F.);
#1004=ORIENTED_EDGE('',*,*,#999,.F.);
#1005=EDGE_LOOP('',(#994,#1000,#1001,#1002,#1003,#1004));
#1006=FACE_OUTER_BOUND('',#1005,.T.);
#1007=ADVANCED_FACE('',(#1006),#985,.F.);
#1008=CARTESIAN_POINT('',(13.,5.3290705182008E-15,-2.5));
#1009=DIRECTION('',(0.,-1.,-1.0765799026668E-15));
#1010=DIRECTION('',(0.,-1.0765799026668E-15,1.));
#1011=AXIS2_PLACEMENT_3D('',#1008,#1010,#1009);
#1012=PLANE('',#1011);
#1013=ORIENTED_EDGE('',*,*,#938,.F.);
#1014=EDGE_LOOP('',(#1013));
#1015=FACE_OUTER_BOUND('',#1014,.T.);
#1016=ADVANCED_FACE('',(#1015),#1012,.T.);
#1017=CARTESIAN_POINT('',(15.8,4.7990387778166E-15,-5.1238474230556E-15));
#1018=DIRECTION('',(2.2524411160103E-15,1.,2.3317058700588E-15));
#1019=DIRECTION('',(1.,-2.2524411160103E-15,3.8514687663266E-16));
#1020=AXIS2_PLACEMENT_3D('',#1017,#1019,#1018);
#1021=CONICAL_SURFACE('',#1020,0.,0.78539816339742);
#1022=ORIENTED_EDGE('',*,*,#976,.F.);
#1023=CARTESIAN_POINT('',(17.5,1.7,-5.0519775368011E-16));
#1024=DIRECTION('',(-0.70710678118655,-0.70710678118655,4.8720970298383E-16));
#1025=VECTOR('',#1024,0.28284271247462);
#1026=LINE('',#1023,#1025);
#1027=EDGE_CURVE('',#970,#987,#1026,.T.);
#1028=ORIENTED_EDGE('',*,*,#1027,.T.);
#1029=ORIENTED_EDGE('',*,*,#993,.F.);
#1030=ORIENTED_EDGE('',*,*,#1027,.F.);
#1031=EDGE_LOOP('',(#1022,#1028,#1029,#1030));
#1032=FACE_OUTER_BOUND('',#1031,.T.);
#1033=ADVANCED_FACE('',(#1032),#1021,.F.);
#1034=CLOSED_SHELL('',(#150,#271,#325,#370,#415,#460,#505,#541,#552,#563,#574,#585,#596,#607,#618,#629,#640,#651,#662,#673,#698,#718,#766,#824,#849,#919,#960,#980,#1007,#1016,#1033));
#1035=COLOUR_RGB('',0.745098,0.901961,0.960784);
#1036=FILL_AREA_STYLE_COLOUR('',#1035);
#1037=FILL_AREA_STYLE('',(#1036));
#1038=SURFACE_STYLE_FILL_AREA(#1037);
#1039=SURFACE_SIDE_STYLE('',(#1038));
#1040=SURFACE_STYLE_USAGE(.BOTH.,#1039);
#1041=PRESENTATION_STYLE_ASSIGNMENT((#1040));
#1042=OVER_RIDING_STYLED_ITEM('',(#1041),#150,#1034);
#1043=OVER_RIDING_STYLED_ITEM('',(#1041),#271,#1034);
#1044=OVER_RIDING_STYLED_ITEM('',(#1041),#325,#1034);
#1045=OVER_RIDING_STYLED_ITEM('',(#1041),#370,#1034);
#1046=OVER_RIDING_STYLED_ITEM('',(#1041),#415,#1034);
#1047=OVER_RIDING_STYLED_ITEM('',(#1041),#460,#1034);
#1048=OVER_RIDING_STYLED_ITEM('',(#1041),#505,#1034);
#1049=OVER_RIDING_STYLED_ITEM('',(#1041),#541,#1034);
#1050=OVER_RIDING_STYLED_ITEM('',(#1041),#552,#1034);
#1051=OVER_RIDING_STYLED_ITEM('',(#1041),#563,#1034);
#1052=OVER_RIDING_STYLED_ITEM('',(#1041),#574,#1034);
#1053=OVER_RIDING_STYLED_ITEM('',(#1041),#585,#1034);
#1054=OVER_RIDING_STYLED_ITEM('',(#1041),#596,#1034);
#1055=OVER_RIDING_STYLED_ITEM('',(#1041),#607,#1034);
#1056=OVER_RIDING_STYLED_ITEM('',(#1041),#618,#1034);
#1057=OVER_RIDING_STYLED_ITEM('',(#1041),#629,#1034);
#1058=OVER_RIDING_STYLED_ITEM('',(#1041),#640,#1034);
#1059=OVER_RIDING_STYLED_ITEM('',(#1041),#651,#1034);
#1060=OVER_RIDING_STYLED_ITEM('',(#1041),#662,#1034);
#1061=OVER_RIDING_STYLED_ITEM('',(#1041),#673,#1034);
#1062=COLOUR_RGB('',0.54902,0.54902,0.921569);
#1063=FILL_AREA_STYLE_COLOUR('',#1062);
#1064=FILL_AREA_STYLE('',(#1063));
#1065=SURFACE_STYLE_FILL_AREA(#1064);
#1066=SURFACE_SIDE_STYLE('',(#1065));
#1067=SURFACE_STYLE_USAGE(.BOTH.,#1066);
#1068=PRESENTATION_STYLE_ASSIGNMENT((#1067));
#1069=OVER_RIDING_STYLED_ITEM('',(#1068),#698,#1034);
#1070=OVER_RIDING_STYLED_ITEM('',(#1041),#718,#1034);
#1071=OVER_RIDING_STYLED_ITEM('',(#1041),#766,#1034);
#1072=OVER_RIDING_STYLED_ITEM('',(#1041),#824,#1034);
#1073=OVER_RIDING_STYLED_ITEM('',(#1041),#849,#1034);
#1074=OVER_RIDING_STYLED_ITEM('',(#1068),#919,#1034);
#1075=OVER_RIDING_STYLED_ITEM('',(#1041),#960,#1034);
#1076=OVER_RIDING_STYLED_ITEM('',(#1041),#980,#1034);
#1077=OVER_RIDING_STYLED_ITEM('',(#1041),#1007,#1034);
#1078=OVER_RIDING_STYLED_ITEM('',(#1041),#1016,#1034);
#1079=OVER_RIDING_STYLED_ITEM('',(#1041),#1033,#1034);
#1080=MANIFOLD_SOLID_BREP('S1',#1034);
#1081=ADVANCED_BREP_SHAPE_REPRESENTATION('',(#1080),#5);
#1082=SHAPE_REPRESENTATION_RELATIONSHIP('NONE', 'NONE', #28, #1081);
#1083=PRESENTATION_LAYER_ASSIGNMENT('Í¼²ã000','',(#1080));
#1084=MECHANICAL_DESIGN_GEOMETRIC_PRESENTATION_REPRESENTATION('',(#1042,#1043,#1044,#1045,#1046,#1047,#1048,#1049,#1050,#1051,#1052,#1053,#1054,#1055,#1056,#1057,#1058,#1059,#1060,#1061,#1069,#1070,#1071,#1072,#1073,#1074,#1075,#1076,#1077,#1078,#1079),#5);
ENDSEC;
END-ISO-10303-21;
