ISO-10303-21;
HEADER;
FILE_DESCRIPTION (( 'STEP AP214' ),
    '1' );
FILE_NAME ('3.joint middle2.STEP',
    '2026-07-17T19:20:30',
    ( '' ),
    ( '' ),
    'SwSTEP 2.0',
    'SolidWorks 2020',
    '' );
FILE_SCHEMA (( 'AUTOMOTIVE_DESIGN' ));
ENDSEC;

DATA;
#1 = ORIENTED_EDGE ( 'NONE', *, *, #330, .F. ) ;
#2 = VECTOR ( 'NONE', #285, 1000.000000000000000 ) ;
#3 = DIRECTION ( 'NONE',  ( -0.000000000000000000, -0.000000000000000000, 1.000000000000000000 ) ) ;
#4 = ORIENTED_EDGE ( 'NONE', *, *, #239, .F. ) ;
#5 = DIRECTION ( 'NONE',  ( 0.000000000000000000, 0.000000000000000000, 1.000000000000000000 ) ) ;
#6 = ADVANCED_FACE ( 'NONE', ( #315 ), #207, .F. ) ;
#7 = EDGE_LOOP ( 'NONE', ( #781, #302 ) ) ;
#8 = DIRECTION ( 'NONE',  ( -0.000000000000000000, -0.000000000000000000, 1.000000000000000000 ) ) ;
#9 = FACE_BOUND ( 'NONE', #172, .T. ) ;
#10 = DIRECTION ( 'NONE',  ( -0.000000000000000000, -1.000000000000000000, -0.000000000000000000 ) ) ;
#11 = CIRCLE ( 'NONE', #1343, 1.500000000000000444 ) ;
#12 = CYLINDRICAL_SURFACE ( 'NONE', #891, 1.000000000000000000 ) ;
#13 = VERTEX_POINT ( 'NONE', #877 ) ;
#14 = LINE ( 'NONE', #1293, #183 ) ;
#15 = ORIENTED_EDGE ( 'NONE', *, *, #859, .T. ) ;
#16 = DIRECTION ( 'NONE',  ( 1.000000000000000000, 0.000000000000000000, -0.000000000000000000 ) ) ;
#17 = CARTESIAN_POINT ( 'NONE',  ( 0.000000000000000000, 7.200000000000000178, 2.000000000000000000 ) ) ;
#18 = VECTOR ( 'NONE', #8, 1000.000000000000000 ) ;
#19 = DIRECTION ( 'NONE',  ( 0.000000000000000000, -0.000000000000000000, 1.000000000000000000 ) ) ;
#20 = DIRECTION ( 'NONE',  ( 0.000000000000000000, 0.000000000000000000, 1.000000000000000000 ) ) ;
#21 = VERTEX_POINT ( 'NONE', #771 ) ;
#22 = FACE_BOUND ( 'NONE', #1382, .T. ) ;
#23 = FACE_BOUND ( 'NONE', #755, .T. ) ;
#24 = VERTEX_POINT ( 'NONE', #1000 ) ;
#25 = EDGE_CURVE ( 'NONE', #1329, #979, #867, .T. ) ;
#26 = ORIENTED_EDGE ( 'NONE', *, *, #1351, .F. ) ;
#27 = LINE ( 'NONE', #1088, #847 ) ;
#28 = FACE_BOUND ( 'NONE', #1161, .T. ) ;
#29 = ORIENTED_EDGE ( 'NONE', *, *, #346, .T. ) ;
#30 = EDGE_CURVE ( 'NONE', #1166, #185, #336, .T. ) ;
#31 = VECTOR ( 'NONE', #39, 1000.000000000000000 ) ;
#32 = ORIENTED_EDGE ( 'NONE', *, *, #895, .F. ) ;
#33 = CARTESIAN_POINT ( 'NONE',  ( -16.00000000000000000, 19.99999999999999289, -8.000000000000000000 ) ) ;
#34 = FACE_BOUND ( 'NONE', #798, .T. ) ;
#35 = ORIENTED_EDGE ( 'NONE', *, *, #1019, .T. ) ;
#36 = EDGE_CURVE ( 'NONE', #107, #444, #27, .T. ) ;
#37 = DIRECTION ( 'NONE',  ( 0.000000000000000000, 0.000000000000000000, -1.000000000000000000 ) ) ;
#38 = CARTESIAN_POINT ( 'NONE',  ( -7.000000000000010658, -15.15605058592245591, -1.043576074647939000 ) ) ;
#39 = DIRECTION ( 'NONE',  ( -1.000000000000000000, 0.000000000000000000, 0.000000000000000000 ) ) ;
#40 = ORIENTED_EDGE ( 'NONE', *, *, #758, .T. ) ;
#41 = AXIS2_PLACEMENT_3D ( 'NONE', #1205, #225, #1096 ) ;
#42 = LINE ( 'NONE', #592, #1047 ) ;
#43 = DIRECTION ( 'NONE',  ( 1.000000000000000000, 0.000000000000000000, 0.000000000000000000 ) ) ;
#44 = EDGE_CURVE ( 'NONE', #538, #70, #452, .T. ) ;
#45 = ORIENTED_EDGE ( 'NONE', *, *, #859, .F. ) ;
#46 = DIRECTION ( 'NONE',  ( -1.000000000000000000, 0.000000000000000000, -0.000000000000000000 ) ) ;
#47 = CARTESIAN_POINT ( 'NONE',  ( 16.00000000000000000, -16.99999999999999645, -8.000000000000000000 ) ) ;
#48 = VECTOR ( 'NONE', #1070, 1000.000000000000000 ) ;
#49 = CARTESIAN_POINT ( 'NONE',  ( 7.000000000000007994, -20.00000000000000711, 2.000000000000000000 ) ) ;
#50 = DIRECTION ( 'NONE',  ( 1.000000000000000000, 0.000000000000000000, 0.000000000000000000 ) ) ;
#51 = VECTOR ( 'NONE', #699, 1000.000000000000000 ) ;
#52 = VECTOR ( 'NONE', #1365, 1000.000000000000000 ) ;
#53 = EDGE_CURVE ( 'NONE', #686, #94, #236, .T. ) ;
#54 = ADVANCED_FACE ( 'NONE', ( #561, #22, #224, #211, #138, #460 ), #1190, .T. ) ;
#55 = CARTESIAN_POINT ( 'NONE',  ( -7.000000000000010658, -15.15605058592245591, 2.000000000000000000 ) ) ;
#56 = AXIS2_PLACEMENT_3D ( 'NONE', #1311, #896, #776 ) ;
#57 = CARTESIAN_POINT ( 'NONE',  ( -7.000000000000010658, 15.15605058592245591, -1.043576074647939000 ) ) ;
#58 = ORIENTED_EDGE ( 'NONE', *, *, #1006, .T. ) ;
#59 = CARTESIAN_POINT ( 'NONE',  ( 16.00000000000000711, 17.00000000000000000, -8.000000000000000000 ) ) ;
#60 = EDGE_LOOP ( 'NONE', ( #1260, #1175, #835, #957 ) ) ;
#61 = EDGE_CURVE ( 'NONE', #190, #536, #188, .T. ) ;
#62 = FACE_BOUND ( 'NONE', #838, .T. ) ;
#63 = ORIENTED_EDGE ( 'NONE', *, *, #944, .T. ) ;
#64 = CARTESIAN_POINT ( 'NONE',  ( 16.00000000000000000, -20.00000000000000355, 2.000000000000000000 ) ) ;
#65 = VECTOR ( 'NONE', #703, 1000.000000000000000 ) ;
#66 = ORIENTED_EDGE ( 'NONE', *, *, #1044, .T. ) ;
#67 = ORIENTED_EDGE ( 'NONE', *, *, #627, .F. ) ;
#68 = DIRECTION ( 'NONE',  ( 0.000000000000000000, 0.000000000000000000, -1.000000000000000000 ) ) ;
#69 = CARTESIAN_POINT ( 'NONE',  ( 1.000000000000226930, -7.200000000000000178, -1.043576074647939000 ) ) ;
#70 = VERTEX_POINT ( 'NONE', #555 ) ;
#71 = DIRECTION ( 'NONE',  ( 0.000000000000000000, 0.000000000000000000, -1.000000000000000000 ) ) ;
#72 = VECTOR ( 'NONE', #657, 1000.000000000000000 ) ;
#73 = AXIS2_PLACEMENT_3D ( 'NONE', #1005, #900, #793 ) ;
#74 = VERTEX_POINT ( 'NONE', #993 ) ;
#75 = CIRCLE ( 'NONE', #437, 1.500000000000000222 ) ;
#76 = CARTESIAN_POINT ( 'NONE',  ( 11.68949880000002572, -20.00000000000000711, -6.499999999999998224 ) ) ;
#77 = CARTESIAN_POINT ( 'NONE',  ( -8.199999999999885603, -1.141522035052920284E-13, 2.000000000000000000 ) ) ;
#78 = ORIENTED_EDGE ( 'NONE', *, *, #450, .T. ) ;
#79 = CARTESIAN_POINT ( 'NONE',  ( 0.000000000000000000, 0.000000000000000000, 2.000000000000000000 ) ) ;
#80 = EDGE_CURVE ( 'NONE', #706, #538, #656, .T. ) ;
#81 = ORIENTED_EDGE ( 'NONE', *, *, #944, .F. ) ;
#82 = ORIENTED_EDGE ( 'NONE', *, *, #564, .F. ) ;
#83 = CARTESIAN_POINT ( 'NONE',  ( -7.199999999999887379, -1.142746681852067887E-13, -1.043576074647939000 ) ) ;
#84 = EDGE_LOOP ( 'NONE', ( #378, #184, #426, #1257 ) ) ;
#85 = DIRECTION ( 'NONE',  ( 0.000000000000000000, 0.000000000000000000, 1.000000000000000000 ) ) ;
#86 =( GEOMETRIC_REPRESENTATION_CONTEXT ( 3 ) GLOBAL_UNCERTAINTY_ASSIGNED_CONTEXT ( ( #261 ) ) GLOBAL_UNIT_ASSIGNED_CONTEXT ( ( #135, #1380, #1248 ) ) REPRESENTATION_CONTEXT ( 'NONE', 'WORKASPACE' ) );
#87 = ORIENTED_EDGE ( 'NONE', *, *, #474, .T. ) ;
#88 = ORIENTED_EDGE ( 'NONE', *, *, #926, .T. ) ;
#89 =( LENGTH_UNIT ( ) NAMED_UNIT ( * ) SI_UNIT ( .MILLI., .METRE. ) );
#90 = LINE ( 'NONE', #417, #508 ) ;
#91 = EDGE_LOOP ( 'NONE', ( #229, #1326, #930, #380, #1162, #277 ) ) ;
#92 = APPLICATION_PROTOCOL_DEFINITION ( 'draft international standard', 'automotive_design', 1998, #658 ) ;
#93 = LINE ( 'NONE', #1181, #48 ) ;
#94 = VERTEX_POINT ( 'NONE', #782 ) ;
#95 = EDGE_CURVE ( 'NONE', #736, #187, #882, .T. ) ;
#96 = ADVANCED_BREP_SHAPE_REPRESENTATION ( '3.joint middle2', ( #1177, #570 ), #1058 ) ;
#97 = EDGE_CURVE ( 'NONE', #899, #298, #1318, .T. ) ;
#98 = CIRCLE ( 'NONE', #1277, 1.500000000000000444 ) ;
#99 = VECTOR ( 'NONE', #969, 1000.000000000000000 ) ;
#100 = CARTESIAN_POINT ( 'NONE',  ( -0.000000000000000000, -15.15605058592245591, 2.000000000000000000 ) ) ;
#101 = DIRECTION ( 'NONE',  ( 1.000000000000000000, 0.000000000000000000, 0.000000000000000000 ) ) ;
#102 = EDGE_LOOP ( 'NONE', ( #493, #832, #245, #422 ) ) ;
#103 = CARTESIAN_POINT ( 'NONE',  ( 7.200000000000112976, 1.133929224898207133E-13, -1.043576074647939000 ) ) ;
#104 = ORIENTED_EDGE ( 'NONE', *, *, #552, .F. ) ;
#105 = CARTESIAN_POINT ( 'NONE',  ( -11.68949879999996710, 20.00000000000000000, -6.500000000000000888 ) ) ;
#106 = DIRECTION ( 'NONE',  ( -0.000000000000000000, -0.000000000000000000, 1.000000000000000000 ) ) ;
#107 = VERTEX_POINT ( 'NONE', #671 ) ;
#108 = CARTESIAN_POINT ( 'NONE',  ( 0.000000000000000000, 0.000000000000000000, -1.043576074647939000 ) ) ;
#109 = AXIS2_PLACEMENT_3D ( 'NONE', #17, #1312, #238 ) ;
#110 = ORIENTED_EDGE ( 'NONE', *, *, #1316, .F. ) ;
#111 = LINE ( 'NONE', #546, #18 ) ;
#112 = PLANE ( 'NONE',  #1040 ) ;
#113 = CARTESIAN_POINT ( 'NONE',  ( -7.000000000000010658, -16.99999999999999645, -8.000000000000000000 ) ) ;
#114 = LINE ( 'NONE', #541, #819 ) ;
#115 = ORIENTED_EDGE ( 'NONE', *, *, #926, .F. ) ;
#116 = CARTESIAN_POINT ( 'NONE',  ( -16.00000000000000000, 16.99999999999999645, -8.000000000000000000 ) ) ;
#117 = EDGE_LOOP ( 'NONE', ( #45, #1104, #522, #440 ) ) ;
#118 = DIRECTION ( 'NONE',  ( -0.000000000000000000, 1.000000000000000000, -0.000000000000000000 ) ) ;
#119 = CARTESIAN_POINT ( 'NONE',  ( -11.68949879999996710, -16.99999999999999645, -6.500000000000000888 ) ) ;
#120 = AXIS2_PLACEMENT_3D ( 'NONE', #506, #182, #725 ) ;
#121 = DIRECTION ( 'NONE',  ( 1.790608579576956557E-16, 1.000000000000000000, 0.000000000000000000 ) ) ;
#122 = AXIS2_PLACEMENT_3D ( 'NONE', #47, #824, #282 ) ;
#123 = ORIENTED_EDGE ( 'NONE', *, *, #679, .F. ) ;
#124 = LINE ( 'NONE', #472, #325 ) ;
#125 = LINE ( 'NONE', #1089, #433 ) ;
#126 = EDGE_CURVE ( 'NONE', #514, #412, #575, .T. ) ;
#127 = VECTOR ( 'NONE', #649, 1000.000000000000000 ) ;
#128 = EDGE_LOOP ( 'NONE', ( #110, #272 ) ) ;
#129 = CARTESIAN_POINT ( 'NONE',  ( -16.00000000000000000, -20.00000000000001066, 2.000000000000000000 ) ) ;
#130 = UNCERTAINTY_MEASURE_WITH_UNIT (LENGTH_MEASURE( 1.000000000000000082E-05 ), #773, 'distance_accuracy_value', 'NONE');
#131 = ORIENTED_EDGE ( 'NONE', *, *, #1085, .T. ) ;
#132 = LINE ( 'NONE', #1218, #738 ) ;
#133 = LINE ( 'NONE', #430, #72 ) ;
#134 = ORIENTED_EDGE ( 'NONE', *, *, #494, .F. ) ;
#135 =( LENGTH_UNIT ( ) NAMED_UNIT ( * ) SI_UNIT ( .MILLI., .METRE. ) );
#136 = VECTOR ( 'NONE', #353, 1000.000000000000000 ) ;
#137 = ORIENTED_EDGE ( 'NONE', *, *, #1085, .F. ) ;
#138 = FACE_BOUND ( 'NONE', #1274, .T. ) ;
#139 = LINE ( 'NONE', #442, #1299 ) ;
#140 = ORIENTED_EDGE ( 'NONE', *, *, #1251, .F. ) ;
#141 = DIRECTION ( 'NONE',  ( 0.000000000000000000, 0.000000000000000000, 1.000000000000000000 ) ) ;
#142 = EDGE_CURVE ( 'NONE', #327, #1010, #132, .T. ) ;
#143 = COLOUR_RGB ( '',0.9960784313725490335, 0.8705882352941176627, 0.7607843137254901578 ) ;
#144 = DIRECTION ( 'NONE',  ( 1.000000000000000000, 0.000000000000000000, 0.000000000000000000 ) ) ;
#145 = FACE_OUTER_BOUND ( 'NONE', #1254, .T. ) ;
#146 = CIRCLE ( 'NONE', #935, 1.000000000000000000 ) ;
#147 = DIRECTION ( 'NONE',  ( 0.000000000000000000, -1.000000000000000000, 0.000000000000000000 ) ) ;
#148 = ORIENTED_EDGE ( 'NONE', *, *, #53, .T. ) ;
#149 = DIRECTION ( 'NONE',  ( -1.000000000000000000, -0.000000000000000000, -0.000000000000000000 ) ) ;
#150 = EDGE_CURVE ( 'NONE', #514, #749, #429, .T. ) ;
#151 = CARTESIAN_POINT ( 'NONE',  ( 11.68949880000002572, 17.00000000000000000, -4.999999999999997335 ) ) ;
#152 = PLANE ( 'NONE',  #1034 ) ;
#153 = ORIENTED_EDGE ( 'NONE', *, *, #80, .T. ) ;
#154 = PLANE ( 'NONE',  #227 ) ;
#155 = DIRECTION ( 'NONE',  ( 1.000000000000000000, 0.000000000000000000, 0.000000000000000000 ) ) ;
#156 = EDGE_CURVE ( 'NONE', #854, #1141, #111, .T. ) ;
#157 = DIRECTION ( 'NONE',  ( 1.000000000000000000, 0.000000000000000000, 0.000000000000000000 ) ) ;
#158 = DIRECTION ( 'NONE',  ( 0.000000000000000000, 0.000000000000000000, -1.000000000000000000 ) ) ;
#159 = ADVANCED_FACE ( 'NONE', ( #1303 ), #328, .T. ) ;
#160 = DIRECTION ( 'NONE',  ( -0.000000000000000000, -0.000000000000000000, 1.000000000000000000 ) ) ;
#161 = PRESENTATION_STYLE_ASSIGNMENT (( #722 ) ) ;
#162 = PLANE ( 'NONE',  #303 ) ;
#163 = DIRECTION ( 'NONE',  ( -0.000000000000000000, -1.000000000000000000, -0.000000000000000000 ) ) ;
#164 = AXIS2_PLACEMENT_3D ( 'NONE', #264, #705, #1138 ) ;
#165 = VECTOR ( 'NONE', #524, 1000.000000000000000 ) ;
#166 = LINE ( 'NONE', #1342, #1384 ) ;
#167 = ORIENTED_EDGE ( 'NONE', *, *, #30, .T. ) ;
#168 = CARTESIAN_POINT ( 'NONE',  ( -7.199999999999887379, -1.142746681852067887E-13, -1.043576074647939000 ) ) ;
#169 = VERTEX_POINT ( 'NONE', #1223 ) ;
#170 = UNCERTAINTY_MEASURE_WITH_UNIT (LENGTH_MEASURE( 1.000000000000000082E-05 ), #89, 'distance_accuracy_value', 'NONE');
#171 = CARTESIAN_POINT ( 'NONE',  ( -16.00000000000000000, -16.99999999999999645, -1.043576074647939000 ) ) ;
#172 = EDGE_LOOP ( 'NONE', ( #131, #1267 ) ) ;
#173 = VERTEX_POINT ( 'NONE', #598 ) ;
#174 = CARTESIAN_POINT ( 'NONE',  ( -1.000000000000000000, 7.200000000000000178, -1.043576074647939000 ) ) ;
#175 = ORIENTED_EDGE ( 'NONE', *, *, #1249, .F. ) ;
#176 = CARTESIAN_POINT ( 'NONE',  ( 0.000000000000000000, 0.000000000000000000, -8.000000000000000000 ) ) ;
#177 = AXIS2_PLACEMENT_3D ( 'NONE', #1026, #359, #922 ) ;
#178 = ORIENTED_EDGE ( 'NONE', *, *, #713, .T. ) ;
#179 = DIRECTION ( 'NONE',  ( 0.000000000000000000, 0.000000000000000000, 1.000000000000000000 ) ) ;
#180 = DIRECTION ( 'NONE',  ( 0.000000000000000000, -0.000000000000000000, 1.000000000000000000 ) ) ;
#181 = ORIENTED_EDGE ( 'NONE', *, *, #1351, .T. ) ;
#182 = DIRECTION ( 'NONE',  ( -0.000000000000000000, -1.000000000000000000, -0.000000000000000000 ) ) ;
#183 = VECTOR ( 'NONE', #427, 1000.000000000000000 ) ;
#184 = ORIENTED_EDGE ( 'NONE', *, *, #1147, .T. ) ;
#185 = VERTEX_POINT ( 'NONE', #683 ) ;
#186 = CARTESIAN_POINT ( 'NONE',  ( 2.267858449796413762E-13, -7.200000000000000178, -1.043576074647939000 ) ) ;
#187 = VERTEX_POINT ( 'NONE', #692 ) ;
#188 = CIRCLE ( 'NONE', #669, 1.500000000000000444 ) ;
#189 = PLANE ( 'NONE',  #1356 ) ;
#190 = VERTEX_POINT ( 'NONE', #1017 ) ;
#191 = ORIENTED_EDGE ( 'NONE', *, *, #1313, .T. ) ;
#192 = CARTESIAN_POINT ( 'NONE',  ( 7.200000000000112976, 1.133929224898207133E-13, -1.043576074647939000 ) ) ;
#193 = DIRECTION ( 'NONE',  ( 1.000000000000000000, 0.000000000000000000, 0.000000000000000000 ) ) ;
#194 = VERTEX_POINT ( 'NONE', #49 ) ;
#195 = CYLINDRICAL_SURFACE ( 'NONE', #733, 1.500000000000000444 ) ;
#196 = ADVANCED_FACE ( 'NONE', ( #794 ), #162, .T. ) ;
#197 = EDGE_LOOP ( 'NONE', ( #982, #1358, #280, #727 ) ) ;
#198 = EDGE_CURVE ( 'NONE', #412, #1166, #1024, .T. ) ;
#199 = CARTESIAN_POINT ( 'NONE',  ( 16.00000000000000000, -16.99999999999999645, -8.000000000000000000 ) ) ;
#200 = CARTESIAN_POINT ( 'NONE',  ( 0.000000000000000000, 0.000000000000000000, -8.000000000000000000 ) ) ;
#201 = ORIENTED_EDGE ( 'NONE', *, *, #886, .T. ) ;
#202 = FACE_OUTER_BOUND ( 'NONE', #604, .T. ) ;
#203 = ORIENTED_EDGE ( 'NONE', *, *, #448, .T. ) ;
#204 = EDGE_CURVE ( 'NONE', #1169, #309, #42, .T. ) ;
#205 = LINE ( 'NONE', #416, #1022 ) ;
#206 = CARTESIAN_POINT ( 'NONE',  ( 16.00000000000000000, 17.00000000000000000, -1.043576074647938778 ) ) ;
#207 = PLANE ( 'NONE',  #56 ) ;
#208 = VECTOR ( 'NONE', #364, 1000.000000000000000 ) ;
#209 = CARTESIAN_POINT ( 'NONE',  ( 0.000000000000000000, 16.99999999999999645, -1.043576074647938778 ) ) ;
#210 = ORIENTED_EDGE ( 'NONE', *, *, #1322, .F. ) ;
#211 = FACE_BOUND ( 'NONE', #887, .T. ) ;
#212 = DIRECTION ( 'NONE',  ( 0.000000000000000000, -1.000000000000000000, 0.000000000000000000 ) ) ;
#213 = CARTESIAN_POINT ( 'NONE',  ( -16.00000000000000000, 16.99999999999999645, -8.000000000000000000 ) ) ;
#214 = LINE ( 'NONE', #462, #1252 ) ;
#215 = ORIENTED_EDGE ( 'NONE', *, *, #1137, .T. ) ;
#216 = LINE ( 'NONE', #537, #911 ) ;
#217 = CIRCLE ( 'NONE', #1081, 1.000000000000000000 ) ;
#218 = ORIENTED_EDGE ( 'NONE', *, *, #748, .F. ) ;
#219 = DIRECTION ( 'NONE',  ( 1.000000000000000000, -1.790608579576960255E-16, 0.000000000000000000 ) ) ;
#220 = CARTESIAN_POINT ( 'NONE',  ( 1.000000000000226930, -7.200000000000000178, 2.000000000000000000 ) ) ;
#221 = CARTESIAN_POINT ( 'NONE',  ( 7.000000000000007994, 17.00000000000000000, -8.000000000000000000 ) ) ;
#222 = EDGE_CURVE ( 'NONE', #565, #74, #1098, .T. ) ;
#223 = ORIENTED_EDGE ( 'NONE', *, *, #1383, .T. ) ;
#224 = FACE_BOUND ( 'NONE', #933, .T. ) ;
#225 = DIRECTION ( 'NONE',  ( 0.000000000000000000, -1.000000000000000000, 0.000000000000000000 ) ) ;
#226 = LINE ( 'NONE', #1321, #271 ) ;
#227 = AXIS2_PLACEMENT_3D ( 'NONE', #258, #372, #46 ) ;
#228 = AXIS2_PLACEMENT_3D ( 'NONE', #192, #629, #1059 ) ;
#229 = ORIENTED_EDGE ( 'NONE', *, *, #401, .F. ) ;
#230 = DIRECTION ( 'NONE',  ( 0.000000000000000000, 1.000000000000000000, 0.000000000000000000 ) ) ;
#231 = DIRECTION ( 'NONE',  ( -1.000000000000000000, -1.084202172485504434E-16, 0.000000000000000000 ) ) ;
#232 = VECTOR ( 'NONE', #118, 1000.000000000000000 ) ;
#233 = ORIENTED_EDGE ( 'NONE', *, *, #852, .F. ) ;
#234 = CARTESIAN_POINT ( 'NONE',  ( -16.00000000000000000, -16.99999999999999645, -8.000000000000000000 ) ) ;
#235 = EDGE_LOOP ( 'NONE', ( #1215, #265, #1288, #752, #1182, #350 ) ) ;
#236 = LINE ( 'NONE', #1204, #1282 ) ;
#237 = ADVANCED_FACE ( 'NONE', ( #1112 ), #467, .F. ) ;
#238 = DIRECTION ( 'NONE',  ( 1.000000000000000000, 0.000000000000000000, 0.000000000000000000 ) ) ;
#239 = EDGE_CURVE ( 'NONE', #387, #1158, #146, .T. ) ;
#240 = ORIENTED_EDGE ( 'NONE', *, *, #1395, .T. ) ;
#241 = FACE_OUTER_BOUND ( 'NONE', #1028, .T. ) ;
#242 = DIRECTION ( 'NONE',  ( 0.000000000000000000, -1.000000000000000000, 0.000000000000000000 ) ) ;
#243 = CARTESIAN_POINT ( 'NONE',  ( 0.000000000000000000, -16.99999999999999645, -1.043576074647938778 ) ) ;
#244 = CARTESIAN_POINT ( 'NONE',  ( 0.000000000000000000, 7.200000000000000178, -1.043576074647939000 ) ) ;
#245 = ORIENTED_EDGE ( 'NONE', *, *, #1019, .F. ) ;
#246 = EDGE_CURVE ( 'NONE', #1341, #1063, #124, .T. ) ;
#247 = DIRECTION ( 'NONE',  ( 0.000000000000000000, 0.000000000000000000, 1.000000000000000000 ) ) ;
#248 = AXIS2_PLACEMENT_3D ( 'NONE', #1102, #650, #1304 ) ;
#249 = VECTOR ( 'NONE', #688, 1000.000000000000000 ) ;
#250 = CARTESIAN_POINT ( 'NONE',  ( -7.000000000000010658, 16.99999999999999645, -8.000000000000000000 ) ) ;
#251 = LINE ( 'NONE', #268, #65 ) ;
#252 = CIRCLE ( 'NONE', #1045, 1.000000000000000000 ) ;
#253 = ORIENTED_EDGE ( 'NONE', *, *, #985, .F. ) ;
#254 = AXIS2_PLACEMENT_3D ( 'NONE', #764, #219, #1007 ) ;
#255 = CARTESIAN_POINT ( 'NONE',  ( -16.00000000000000000, -20.00000000000001066, -1.043576074647938778 ) ) ;
#256 = LINE ( 'NONE', #262, #1004 ) ;
#257 = CYLINDRICAL_SURFACE ( 'NONE', #1107, 1.500000000000000444 ) ;
#258 = CARTESIAN_POINT ( 'NONE',  ( 0.000000000000000000, 0.000000000000000000, -8.000000000000000000 ) ) ;
#259 = FACE_OUTER_BOUND ( 'NONE', #1372, .T. ) ;
#260 = PRODUCT_DEFINITION ( '未知', '', #1128, #1134 ) ;
#261 = UNCERTAINTY_MEASURE_WITH_UNIT (LENGTH_MEASURE( 1.000000000000000082E-05 ), #135, 'distance_accuracy_value', 'NONE');
#262 = CARTESIAN_POINT ( 'NONE',  ( -7.000000000000010658, 19.99999999999999289, -8.000000000000000000 ) ) ;
#263 = DIRECTION ( 'NONE',  ( -1.000000000000000000, -1.084202172485504434E-16, 0.000000000000000000 ) ) ;
#264 = CARTESIAN_POINT ( 'NONE',  ( -11.68949879999996710, 20.00000000000000000, -5.000000000000000000 ) ) ;
#265 = ORIENTED_EDGE ( 'NONE', *, *, #279, .F. ) ;
#266 = CARTESIAN_POINT ( 'NONE',  ( 16.00000000000000000, -20.00000000000000355, -1.043576074647938778 ) ) ;
#267 = VERTEX_POINT ( 'NONE', #1337 ) ;
#268 = CARTESIAN_POINT ( 'NONE',  ( 7.000000000000007994, 15.15605058592245591, -1.043576074647939000 ) ) ;
#269 = CIRCLE ( 'NONE', #456, 1.500000000000000222 ) ;
#270 = CIRCLE ( 'NONE', #1324, 1.000000000000000000 ) ;
#271 = VECTOR ( 'NONE', #141, 1000.000000000000000 ) ;
#272 = ORIENTED_EDGE ( 'NONE', *, *, #304, .F. ) ;
#273 = ORIENTED_EDGE ( 'NONE', *, *, #600, .T. ) ;
#274 = LINE ( 'NONE', #595, #1139 ) ;
#275 = VERTEX_POINT ( 'NONE', #358 ) ;
#276 = FACE_OUTER_BOUND ( 'NONE', #721, .T. ) ;
#277 = ORIENTED_EDGE ( 'NONE', *, *, #529, .F. ) ;
#278 = AXIS2_PLACEMENT_3D ( 'NONE', #511, #1065, #101 ) ;
#279 = EDGE_CURVE ( 'NONE', #24, #1123, #1231, .T. ) ;
#280 = ORIENTED_EDGE ( 'NONE', *, *, #662, .T. ) ;
#281 = VECTOR ( 'NONE', #341, 1000.000000000000000 ) ;
#282 = DIRECTION ( 'NONE',  ( 0.000000000000000000, 0.000000000000000000, 1.000000000000000000 ) ) ;
#283 = DIRECTION ( 'NONE',  ( 0.000000000000000000, 0.000000000000000000, 1.000000000000000000 ) ) ;
#284 = VERTEX_POINT ( 'NONE', #909 ) ;
#285 = DIRECTION ( 'NONE',  ( -0.000000000000000000, -1.000000000000000000, -0.000000000000000000 ) ) ;
#286 = ORIENTED_EDGE ( 'NONE', *, *, #1361, .F. ) ;
#287 = EDGE_LOOP ( 'NONE', ( #333, #81, #1320, #970 ) ) ;
#288 = EDGE_CURVE ( 'NONE', #13, #498, #1121, .T. ) ;
#289 = EDGE_CURVE ( 'NONE', #866, #779, #808, .T. ) ;
#290 = FACE_OUTER_BOUND ( 'NONE', #102, .T. ) ;
#291 = CARTESIAN_POINT ( 'NONE',  ( -7.199999999999887379, -1.142746681852067887E-13, -1.043576074647939000 ) ) ;
#292 = ORIENTED_EDGE ( 'NONE', *, *, #474, .F. ) ;
#293 = LINE ( 'NONE', #1167, #797 ) ;
#294 = CIRCLE ( 'NONE', #1092, 1.500000000000000444 ) ;
#295 = ORIENTED_EDGE ( 'NONE', *, *, #1173, .T. ) ;
#296 = EDGE_LOOP ( 'NONE', ( #1030, #175, #622, #1247, #770, #708 ) ) ;
#297 = AXIS2_PLACEMENT_3D ( 'NONE', #1050, #10, #968 ) ;
#298 = VERTEX_POINT ( 'NONE', #1238 ) ;
#299 = DIRECTION ( 'NONE',  ( -0.000000000000000000, -0.000000000000000000, 1.000000000000000000 ) ) ;
#300 = EDGE_CURVE ( 'NONE', #24, #706, #256, .T. ) ;
#301 = CYLINDRICAL_SURFACE ( 'NONE', #1394, 1.000000000000000000 ) ;
#302 = ORIENTED_EDGE ( 'NONE', *, *, #222, .F. ) ;
#303 = AXIS2_PLACEMENT_3D ( 'NONE', #352, #1130, #787 ) ;
#304 = EDGE_CURVE ( 'NONE', #743, #1341, #1118, .T. ) ;
#305 = CARTESIAN_POINT ( 'NONE',  ( -11.68949879999996710, 20.00000000000000000, -5.000000000000000000 ) ) ;
#306 = ORIENTED_EDGE ( 'NONE', *, *, #1129, .F. ) ;
#307 = CARTESIAN_POINT ( 'NONE',  ( 2.267858449796413762E-13, -7.200000000000000178, -1.043576074647939000 ) ) ;
#308 = DIRECTION ( 'NONE',  ( 0.000000000000000000, -0.000000000000000000, 1.000000000000000000 ) ) ;
#309 = VERTEX_POINT ( 'NONE', #206 ) ;
#310 = CARTESIAN_POINT ( 'NONE',  ( 11.68949880000002572, -20.00000000000000711, -4.999999999999997335 ) ) ;
#311 = ORIENTED_EDGE ( 'NONE', *, *, #204, .T. ) ;
#312 = CIRCLE ( 'NONE', #408, 1.500000000000000222 ) ;
#313 = CARTESIAN_POINT ( 'NONE',  ( 7.000000000000007994, 0.000000000000000000, -1.043576074647939000 ) ) ;
#314 = CARTESIAN_POINT ( 'NONE',  ( -7.000000000000013323, -1.253426005703871858E-15, -1.043576074647939000 ) ) ;
#315 = FACE_OUTER_BOUND ( 'NONE', #1279, .T. ) ;
#316 = CARTESIAN_POINT ( 'NONE',  ( -7.000000000000009770, 19.99999999999999645, 2.000000000000000000 ) ) ;
#317 = ORIENTED_EDGE ( 'NONE', *, *, #1101, .F. ) ;
#318 = DIRECTION ( 'NONE',  ( -0.000000000000000000, -1.000000000000000000, -0.000000000000000000 ) ) ;
#319 = CARTESIAN_POINT ( 'NONE',  ( 0.000000000000000000, 15.15605058592245591, 2.000000000000000000 ) ) ;
#320 = CIRCLE ( 'NONE', #248, 1.000000000000000000 ) ;
#321 = MECHANICAL_DESIGN_GEOMETRIC_PRESENTATION_REPRESENTATION (  '', ( #913 ), #532 ) ;
#322 = CARTESIAN_POINT ( 'NONE',  ( -7.000000000000009770, 19.99999999999999645, -1.043576074647939000 ) ) ;
#323 = CARTESIAN_POINT ( 'NONE',  ( -1.000000000000000000, 7.200000000000000178, -1.043576074647939000 ) ) ;
#324 = ORIENTED_EDGE ( 'NONE', *, *, #529, .T. ) ;
#325 = VECTOR ( 'NONE', #480, 1000.000000000000000 ) ;
#326 = CARTESIAN_POINT ( 'NONE',  ( -7.000000000000009770, -20.00000000000000711, 2.000000000000000000 ) ) ;
#327 = VERTEX_POINT ( 'NONE', #630 ) ;
#328 = PLANE ( 'NONE',  #254 ) ;
#329 = PLANE ( 'NONE',  #505 ) ;
#330 = EDGE_CURVE ( 'NONE', #327, #763, #252, .T. ) ;
#331 = CARTESIAN_POINT ( 'NONE',  ( -11.68949879999996710, -16.99999999999999645, -5.000000000000000000 ) ) ;
#332 = DIRECTION ( 'NONE',  ( 0.000000000000000000, -0.000000000000000000, 1.000000000000000000 ) ) ;
#333 = ORIENTED_EDGE ( 'NONE', *, *, #354, .F. ) ;
#334 = CYLINDRICAL_SURFACE ( 'NONE', #1210, 1.500000000000000222 ) ;
#335 = ORIENTED_EDGE ( 'NONE', *, *, #533, .F. ) ;
#336 = LINE ( 'NONE', #445, #366 ) ;
#337 = FACE_OUTER_BOUND ( 'NONE', #840, .T. ) ;
#338 = SURFACE_STYLE_FILL_AREA ( #908 ) ;
#339 = ORIENTED_EDGE ( 'NONE', *, *, #679, .T. ) ;
#340 = DIRECTION ( 'NONE',  ( 0.000000000000000000, -0.000000000000000000, 1.000000000000000000 ) ) ;
#341 = DIRECTION ( 'NONE',  ( -1.000000000000000000, 0.000000000000000000, 0.000000000000000000 ) ) ;
#342 = ORIENTED_EDGE ( 'NONE', *, *, #937, .F. ) ;
#343 = CIRCLE ( 'NONE', #1323, 1.000000000000000000 ) ;
#344 = VECTOR ( 'NONE', #1229, 1000.000000000000000 ) ;
#345 = ADVANCED_FACE ( 'NONE', ( #1060 ), #1042, .F. ) ;
#346 = EDGE_CURVE ( 'NONE', #1168, #907, #90, .T. ) ;
#347 = ORIENTED_EDGE ( 'NONE', *, *, #1110, .F. ) ;
#348 = CARTESIAN_POINT ( 'NONE',  ( -11.68949879999996710, 16.99999999999999645, -5.000000000000000000 ) ) ;
#349 = LINE ( 'NONE', #672, #619 ) ;
#350 = ORIENTED_EDGE ( 'NONE', *, *, #346, .F. ) ;
#351 = FACE_OUTER_BOUND ( 'NONE', #60, .T. ) ;
#352 = CARTESIAN_POINT ( 'NONE',  ( 0.000000000000000000, 15.15605058592245591, -1.043576074647939000 ) ) ;
#353 = DIRECTION ( 'NONE',  ( 1.000000000000000000, 2.168404344971008868E-16, -0.000000000000000000 ) ) ;
#354 = EDGE_CURVE ( 'NONE', #995, #536, #518, .T. ) ;
#355 = CARTESIAN_POINT ( 'NONE',  ( -1.500000000000000222, 1.836970198721030181E-16, 2.000000000000000000 ) ) ;
#356 = VERTEX_POINT ( 'NONE', #624 ) ;
#357 = AXIS2_PLACEMENT_3D ( 'NONE', #611, #950, #929 ) ;
#358 = CARTESIAN_POINT ( 'NONE',  ( 11.68949880000002572, 20.00000000000000000, -3.499999999999996891 ) ) ;
#359 = DIRECTION ( 'NONE',  ( 2.168404344971008868E-16, -1.000000000000000000, 0.000000000000000000 ) ) ;
#360 = DIRECTION ( 'NONE',  ( 0.000000000000000000, 0.000000000000000000, -1.000000000000000000 ) ) ;
#361 = EDGE_LOOP ( 'NONE', ( #342, #987, #1066, #66 ) ) ;
#362 = DIRECTION ( 'NONE',  ( 1.000000000000000000, 0.000000000000000000, 0.000000000000000000 ) ) ;
#363 = VECTOR ( 'NONE', #414, 1000.000000000000000 ) ;
#364 = DIRECTION ( 'NONE',  ( -0.000000000000000000, -1.000000000000000000, -0.000000000000000000 ) ) ;
#365 = FACE_OUTER_BOUND ( 'NONE', #361, .T. ) ;
#366 = VECTOR ( 'NONE', #1095, 1000.000000000000000 ) ;
#367 = LINE ( 'NONE', #255, #51 ) ;
#368 = EDGE_CURVE ( 'NONE', #1010, #428, #691, .T. ) ;
#369 = LINE ( 'NONE', #806, #1140 ) ;
#370 = DIRECTION ( 'NONE',  ( 0.000000000000000000, 0.000000000000000000, -1.000000000000000000 ) ) ;
#371 = DIRECTION ( 'NONE',  ( 0.000000000000000000, 0.000000000000000000, -1.000000000000000000 ) ) ;
#372 = DIRECTION ( 'NONE',  ( 0.000000000000000000, 0.000000000000000000, -1.000000000000000000 ) ) ;
#373 = EDGE_LOOP ( 'NONE', ( #829, #646 ) ) ;
#374 = FACE_BOUND ( 'NONE', #128, .T. ) ;
#375 = VERTEX_POINT ( 'NONE', #403 ) ;
#376 = FACE_OUTER_BOUND ( 'NONE', #1146, .T. ) ;
#377 = ORIENTED_EDGE ( 'NONE', *, *, #448, .F. ) ;
#378 = ORIENTED_EDGE ( 'NONE', *, *, #1305, .F. ) ;
#379 = DIRECTION ( 'NONE',  ( 1.000000000000000000, 0.000000000000000000, 0.000000000000000000 ) ) ;
#380 = ORIENTED_EDGE ( 'NONE', *, *, #1305, .T. ) ;
#381 = DIRECTION ( 'NONE',  ( 0.000000000000000000, -0.000000000000000000, 1.000000000000000000 ) ) ;
#382 = EDGE_CURVE ( 'NONE', #768, #498, #75, .T. ) ;
#383 = AXIS2_PLACEMENT_3D ( 'NONE', #1390, #1073, #247 ) ;
#384 = ORIENTED_EDGE ( 'NONE', *, *, #965, .T. ) ;
#385 = PLANE ( 'NONE',  #530 ) ;
#386 = LINE ( 'NONE', #1170, #1333 ) ;
#387 = VERTEX_POINT ( 'NONE', #834 ) ;
#388 = DIRECTION ( 'NONE',  ( 1.000000000000000000, 0.000000000000000000, 0.000000000000000000 ) ) ;
#389 = CARTESIAN_POINT ( 'NONE',  ( -11.68949879999996710, 20.00000000000000000, -5.000000000000000000 ) ) ;
#390 = ADVANCED_FACE ( 'NONE', ( #963 ), #1386, .F. ) ;
#391 = ORIENTED_EDGE ( 'NONE', *, *, #1339, .F. ) ;
#392 = ORIENTED_EDGE ( 'NONE', *, *, #288, .F. ) ;
#393 = LINE ( 'NONE', #1149, #934 ) ;
#394 = LINE ( 'NONE', #760, #1174 ) ;
#395 = ORIENTED_EDGE ( 'NONE', *, *, #954, .T. ) ;
#396 = DIRECTION ( 'NONE',  ( 0.000000000000000000, -0.000000000000000000, 1.000000000000000000 ) ) ;
#397 = VERTEX_POINT ( 'NONE', #850 ) ;
#398 = ORIENTED_EDGE ( 'NONE', *, *, #585, .T. ) ;
#399 = ADVANCED_FACE ( 'NONE', ( #730 ), #301, .F. ) ;
#400 = ORIENTED_EDGE ( 'NONE', *, *, #789, .F. ) ;
#401 = EDGE_CURVE ( 'NONE', #542, #1143, #386, .T. ) ;
#402 = DIRECTION ( 'NONE',  ( -0.000000000000000000, -0.000000000000000000, 1.000000000000000000 ) ) ;
#403 = CARTESIAN_POINT ( 'NONE',  ( -11.68949879999996710, 20.00000000000000000, -6.500000000000000888 ) ) ;
#404 = EDGE_LOOP ( 'NONE', ( #1109, #1245, #398, #851 ) ) ;
#405 = LINE ( 'NONE', #438, #1208 ) ;
#406 = CIRCLE ( 'NONE', #557, 1.500000000000000222 ) ;
#407 = VERTEX_POINT ( 'NONE', #1269 ) ;
#408 = AXIS2_PLACEMENT_3D ( 'NONE', #108, #5, #966 ) ;
#409 = AXIS2_PLACEMENT_3D ( 'NONE', #1241, #1261, #68 ) ;
#410 = LINE ( 'NONE', #947, #507 ) ;
#411 = DIRECTION ( 'NONE',  ( 1.000000000000000000, 0.000000000000000000, 0.000000000000000000 ) ) ;
#412 = VERTEX_POINT ( 'NONE', #745 ) ;
#413 = ADVANCED_FACE ( 'NONE', ( #1165 ), #1392, .F. ) ;
#414 = DIRECTION ( 'NONE',  ( 0.000000000000000000, 1.000000000000000000, 0.000000000000000000 ) ) ;
#415 = EDGE_LOOP ( 'NONE', ( #82, #454, #876, #115 ) ) ;
#416 = CARTESIAN_POINT ( 'NONE',  ( 7.000000000000007994, -20.00000000000000711, -1.043576074647939000 ) ) ;
#417 = CARTESIAN_POINT ( 'NONE',  ( -7.000000000000010658, 15.15605058592245591, -1.043576074647939000 ) ) ;
#418 = ORIENTED_EDGE ( 'NONE', *, *, #720, .F. ) ;
#419 = EDGE_CURVE ( 'NONE', #1335, #613, #616, .T. ) ;
#420 = EDGE_CURVE ( 'NONE', #1141, #173, #718, .T. ) ;
#421 = FACE_OUTER_BOUND ( 'NONE', #1393, .T. ) ;
#422 = ORIENTED_EDGE ( 'NONE', *, *, #198, .T. ) ;
#423 = VECTOR ( 'NONE', #910, 1000.000000000000000 ) ;
#424 = CARTESIAN_POINT ( 'NONE',  ( 7.000000000000007994, 15.15605058592245591, 2.000000000000000000 ) ) ;
#425 = DIRECTION ( 'NONE',  ( -0.000000000000000000, -0.000000000000000000, 1.000000000000000000 ) ) ;
#426 = ORIENTED_EDGE ( 'NONE', *, *, #1037, .T. ) ;
#427 = DIRECTION ( 'NONE',  ( -0.000000000000000000, -0.000000000000000000, 1.000000000000000000 ) ) ;
#428 = VERTEX_POINT ( 'NONE', #77 ) ;
#429 = LINE ( 'NONE', #1198, #127 ) ;
#430 = CARTESIAN_POINT ( 'NONE',  ( 7.000000000000007994, 17.00000000000000000, -8.000000000000000000 ) ) ;
#431 = ADVANCED_FACE ( 'NONE', ( #636 ), #1262, .F. ) ;
#432 = CIRCLE ( 'NONE', #618, 1.500000000000000444 ) ;
#433 = VECTOR ( 'NONE', #994, 1000.000000000000000 ) ;
#434 = LINE ( 'NONE', #113, #479 ) ;
#435 = DIRECTION ( 'NONE',  ( -0.000000000000000000, -0.000000000000000000, 1.000000000000000000 ) ) ;
#436 = ORIENTED_EDGE ( 'NONE', *, *, #300, .F. ) ;
#437 = AXIS2_PLACEMENT_3D ( 'NONE', #751, #308, #525 ) ;
#438 = CARTESIAN_POINT ( 'NONE',  ( 1.000000000000000000, 7.200000000000000178, -1.043576074647939000 ) ) ;
#439 = VECTOR ( 'NONE', #1078, 1000.000000000000000 ) ;
#440 = ORIENTED_EDGE ( 'NONE', *, *, #952, .F. ) ;
#441 = DIRECTION ( 'NONE',  ( 0.000000000000000000, 0.000000000000000000, -1.000000000000000000 ) ) ;
#442 = CARTESIAN_POINT ( 'NONE',  ( -16.00000000000000000, 16.99999999999999645, -8.000000000000000000 ) ) ;
#443 = CYLINDRICAL_SURFACE ( 'NONE', #892, 1.500000000000000444 ) ;
#444 = VERTEX_POINT ( 'NONE', #535 ) ;
#445 = CARTESIAN_POINT ( 'NONE',  ( -7.000000000000010658, -20.00000000000001066, -8.000000000000000000 ) ) ;
#446 = FACE_BOUND ( 'NONE', #639, .T. ) ;
#447 = ORIENTED_EDGE ( 'NONE', *, *, #680, .F. ) ;
#448 = EDGE_CURVE ( 'NONE', #356, #1335, #1080, .T. ) ;
#449 = CARTESIAN_POINT ( 'NONE',  ( 11.68949880000002572, -16.99999999999999645, -6.499999999999998224 ) ) ;
#450 = EDGE_CURVE ( 'NONE', #187, #298, #394, .T. ) ;
#451 = ORIENTED_EDGE ( 'NONE', *, *, #1056, .F. ) ;
#452 = LINE ( 'NONE', #677, #916 ) ;
#453 = CARTESIAN_POINT ( 'NONE',  ( 0.000000000000000000, 0.000000000000000000, -1.043576074647938778 ) ) ;
#454 = ORIENTED_EDGE ( 'NONE', *, *, #458, .T. ) ;
#455 = CARTESIAN_POINT ( 'NONE',  ( 7.000000000000007994, 19.99999999999999645, -8.000000000000000000 ) ) ;
#456 = AXIS2_PLACEMENT_3D ( 'NONE', #1359, #817, #1347 ) ;
#457 = AXIS2_PLACEMENT_3D ( 'NONE', #307, #402, #1183 ) ;
#458 = EDGE_CURVE ( 'NONE', #1158, #974, #660, .T. ) ;
#459 = EDGE_CURVE ( 'NONE', #1335, #356, #586, .T. ) ;
#460 = FACE_BOUND ( 'NONE', #373, .T. ) ;
#461 = DIRECTION ( 'NONE',  ( 0.000000000000000000, -0.000000000000000000, 1.000000000000000000 ) ) ;
#462 = CARTESIAN_POINT ( 'NONE',  ( -16.00000000000000000, 19.99999999999999289, -8.000000000000000000 ) ) ;
#463 = ORIENTED_EDGE ( 'NONE', *, *, #805, .F. ) ;
#464 = CARTESIAN_POINT ( 'NONE',  ( 1.000000000000226930, -7.200000000000000178, -1.043576074647939000 ) ) ;
#465 = ADVANCED_FACE ( 'NONE', ( #862, #790 ), #898, .T. ) ;
#466 = VECTOR ( 'NONE', #795, 1000.000000000000000 ) ;
#467 = CYLINDRICAL_SURFACE ( 'NONE', #642, 1.500000000000000444 ) ;
#468 = DIRECTION ( 'NONE',  ( 1.000000000000000000, 0.000000000000000000, 0.000000000000000000 ) ) ;
#469 = LINE ( 'NONE', #906, #1068 ) ;
#470 = ORIENTED_EDGE ( 'NONE', *, *, #905, .F. ) ;
#471 = FILL_AREA_STYLE_COLOUR ( '', #904 ) ;
#472 = CARTESIAN_POINT ( 'NONE',  ( 11.68949880000002572, 20.00000000000000000, -6.499999999999998224 ) ) ;
#473 = DIRECTION ( 'NONE',  ( 0.000000000000000000, 0.000000000000000000, 1.000000000000000000 ) ) ;
#474 = EDGE_CURVE ( 'NONE', #538, #951, #214, .T. ) ;
#475 = LINE ( 'NONE', #1132, #709 ) ;
#476 = CIRCLE ( 'NONE', #981, 1.500000000000000444 ) ;
#477 = DIRECTION ( 'NONE',  ( -0.000000000000000000, -0.000000000000000000, 1.000000000000000000 ) ) ;
#478 = AXIS2_PLACEMENT_3D ( 'NONE', #800, #590, #362 ) ;
#479 = VECTOR ( 'NONE', #1377, 1000.000000000000000 ) ;
#480 = DIRECTION ( 'NONE',  ( -0.000000000000000000, -1.000000000000000000, -0.000000000000000000 ) ) ;
#481 = FACE_OUTER_BOUND ( 'NONE', #1387, .T. ) ;
#482 = CLOSED_SHELL ( 'NONE', ( #830, #849, #1054, #1375, #615, #1127, #696, #399, #390, #732, #553, #701, #601, #54, #754, #750, #1120, #990, #998, #1259, #1295, #499, #6, #490, #413, #159, #1209, #196, #465, #807, #643, #431, #1391, #1027, #1155, #345, #689, #799, #1192, #237 ) ) ;
#483 = EDGE_CURVE ( 'NONE', #763, #428, #114, .T. ) ;
#484 = CYLINDRICAL_SURFACE ( 'NONE', #164, 1.500000000000000444 ) ;
#485 = CARTESIAN_POINT ( 'NONE',  ( 7.200000000000112976, 1.133929224898207133E-13, -1.043576074647939000 ) ) ;
#486 = ORIENTED_EDGE ( 'NONE', *, *, #458, .F. ) ;
#487 = PLANE ( 'NONE',  #682 ) ;
#488 = ORIENTED_EDGE ( 'NONE', *, *, #222, .T. ) ;
#489 = ORIENTED_EDGE ( 'NONE', *, *, #952, .T. ) ;
#490 = ADVANCED_FACE ( 'NONE', ( #1334 ), #1009, .F. ) ;
#491 = STYLED_ITEM ( 'NONE', ( #1097 ), #96 ) ;
#492 = CARTESIAN_POINT ( 'NONE',  ( -7.000000000000009770, 16.99999999999999645, -1.043576074647939000 ) ) ;
#493 = ORIENTED_EDGE ( 'NONE', *, *, #1236, .T. ) ;
#494 = EDGE_CURVE ( 'NONE', #686, #1049, #1091, .T. ) ;
#495 = CIRCLE ( 'NONE', #572, 1.500000000000000444 ) ;
#496 = CARTESIAN_POINT ( 'NONE',  ( 7.200000000000112976, 1.133929224898207133E-13, 2.000000000000000000 ) ) ;
#497 = ORIENTED_EDGE ( 'NONE', *, *, #879, .F. ) ;
#498 = VERTEX_POINT ( 'NONE', #355 ) ;
#499 = ADVANCED_FACE ( 'NONE', ( #1227 ), #12, .F. ) ;
#500 = FACE_OUTER_BOUND ( 'NONE', #287, .T. ) ;
#501 = CARTESIAN_POINT ( 'NONE',  ( 0.000000000000000000, 0.000000000000000000, -1.043576074647939000 ) ) ;
#502 = ORIENTED_EDGE ( 'NONE', *, *, #126, .F. ) ;
#503 = APPLICATION_PROTOCOL_DEFINITION ( 'draft international standard', 'automotive_design', 1998, #953 ) ;
#504 = EDGE_CURVE ( 'NONE', #1143, #686, #1297, .T. ) ;
#505 = AXIS2_PLACEMENT_3D ( 'NONE', #453, #461, #1191 ) ;
#506 = CARTESIAN_POINT ( 'NONE',  ( -11.68949879999996710, 20.00000000000000000, -5.000000000000000000 ) ) ;
#507 = VECTOR ( 'NONE', #1284, 1000.000000000000000 ) ;
#508 = VECTOR ( 'NONE', #1051, 1000.000000000000000 ) ;
#509 = ORIENTED_EDGE ( 'NONE', *, *, #713, .F. ) ;
#510 = CARTESIAN_POINT ( 'NONE',  ( 7.000000000000007994, -15.15605058592245591, -1.043576074647939000 ) ) ;
#511 = CARTESIAN_POINT ( 'NONE',  ( 0.000000000000000000, 0.000000000000000000, -8.000000000000000000 ) ) ;
#512 = ORIENTED_EDGE ( 'NONE', *, *, #562, .T. ) ;
#513 = DIRECTION ( 'NONE',  ( 1.000000000000000000, 0.000000000000000000, 0.000000000000000000 ) ) ;
#514 = VERTEX_POINT ( 'NONE', #873 ) ;
#515 = ORIENTED_EDGE ( 'NONE', *, *, #204, .F. ) ;
#516 = LINE ( 'NONE', #534, #1093 ) ;
#517 = PRESENTATION_LAYER_ASSIGNMENT (  '', '', ( #491 ) ) ;
#518 = LINE ( 'NONE', #723, #579 ) ;
#519 = ORIENTED_EDGE ( 'NONE', *, *, #1072, .T. ) ;
#520 = DIRECTION ( 'NONE',  ( 0.000000000000000000, 0.000000000000000000, 1.000000000000000000 ) ) ;
#521 = CARTESIAN_POINT ( 'NONE',  ( -7.000000000000010658, 15.15605058592245591, 2.000000000000000000 ) ) ;
#522 = ORIENTED_EDGE ( 'NONE', *, *, #420, .T. ) ;
#523 = EDGE_CURVE ( 'NONE', #284, #613, #270, .T. ) ;
#524 = DIRECTION ( 'NONE',  ( -0.000000000000000000, -0.000000000000000000, 1.000000000000000000 ) ) ;
#525 = DIRECTION ( 'NONE',  ( 1.000000000000000000, 0.000000000000000000, 0.000000000000000000 ) ) ;
#526 = ORIENTED_EDGE ( 'NONE', *, *, #607, .F. ) ;
#527 = LINE ( 'NONE', #1062, #363 ) ;
#528 = ORIENTED_EDGE ( 'NONE', *, *, #533, .T. ) ;
#529 = EDGE_CURVE ( 'NONE', #1143, #839, #469, .T. ) ;
#530 = AXIS2_PLACEMENT_3D ( 'NONE', #266, #1023, #1370 ) ;
#531 = AXIS2_PLACEMENT_3D ( 'NONE', #221, #147, #1340 ) ;
#532 =( GEOMETRIC_REPRESENTATION_CONTEXT ( 3 ) GLOBAL_UNCERTAINTY_ASSIGNED_CONTEXT ( ( #170 ) ) GLOBAL_UNIT_ASSIGNED_CONTEXT ( ( #89, #861, #977 ) ) REPRESENTATION_CONTEXT ( 'NONE', 'WORKASPACE' ) );
#533 = EDGE_CURVE ( 'NONE', #275, #1061, #1233, .T. ) ;
#534 = CARTESIAN_POINT ( 'NONE',  ( -7.000000000000013323, 1.253426005703874619E-15, -1.043576074647939000 ) ) ;
#535 = CARTESIAN_POINT ( 'NONE',  ( 7.000000000000007994, -16.99999999999999645, -8.000000000000000000 ) ) ;
#536 = VERTEX_POINT ( 'NONE', #796 ) ;
#537 = CARTESIAN_POINT ( 'NONE',  ( 11.68949880000002572, 20.00000000000000000, -3.499999999999996891 ) ) ;
#538 = VERTEX_POINT ( 'NONE', #1074 ) ;
#539 = VECTOR ( 'NONE', #825, 1000.000000000000000 ) ;
#540 = DIRECTION ( 'NONE',  ( -1.000000000000000000, 0.000000000000000000, 0.000000000000000000 ) ) ;
#541 = CARTESIAN_POINT ( 'NONE',  ( -8.199999999999885603, -1.141522035052920284E-13, -1.043576074647939000 ) ) ;
#542 = VERTEX_POINT ( 'NONE', #678 ) ;
#543 = EDGE_CURVE ( 'NONE', #444, #567, #1214, .T. ) ;
#544 = CARTESIAN_POINT ( 'NONE',  ( -11.68949879999996710, 20.00000000000000000, -5.000000000000000000 ) ) ;
#545 = ORIENTED_EDGE ( 'NONE', *, *, #450, .F. ) ;
#546 = CARTESIAN_POINT ( 'NONE',  ( 6.200000000000112976, 1.135153871697354611E-13, -1.043576074647939000 ) ) ;
#547 = FACE_OUTER_BOUND ( 'NONE', #1217, .T. ) ;
#548 = DIRECTION ( 'NONE',  ( 0.000000000000000000, 0.000000000000000000, 1.000000000000000000 ) ) ;
#549 = CARTESIAN_POINT ( 'NONE',  ( 7.000000000000010658, -1.253426005703871463E-15, -1.043576074647939000 ) ) ;
#550 = EDGE_LOOP ( 'NONE', ( #253, #967, #201, #306 ) ) ;
#551 = CARTESIAN_POINT ( 'NONE',  ( -11.68949879999996710, 20.00000000000000000, -3.499999999999999112 ) ) ;
#552 = EDGE_CURVE ( 'NONE', #21, #589, #349, .T. ) ;
#553 = ADVANCED_FACE ( 'NONE', ( #869, #547 ), #112, .T. ) ;
#554 = EDGE_LOOP ( 'NONE', ( #1039, #58, #1014, #1374 ) ) ;
#555 = CARTESIAN_POINT ( 'NONE',  ( -16.00000000000000000, 19.99999999999999289, 2.000000000000000000 ) ) ;
#556 = CARTESIAN_POINT ( 'NONE',  ( 7.000000000000007994, -20.00000000000000355, -8.000000000000000000 ) ) ;
#557 = AXIS2_PLACEMENT_3D ( 'NONE', #79, #381, #513 ) ;
#558 = DIRECTION ( 'NONE',  ( 0.000000000000000000, -1.000000000000000000, 0.000000000000000000 ) ) ;
#559 = VECTOR ( 'NONE', #318, 1000.000000000000000 ) ;
#560 = ORIENTED_EDGE ( 'NONE', *, *, #895, .T. ) ;
#561 = FACE_OUTER_BOUND ( 'NONE', #884, .T. ) ;
#562 = EDGE_CURVE ( 'NONE', #907, #938, #125, .T. ) ;
#563 = CARTESIAN_POINT ( 'NONE',  ( 7.000000000000007994, 15.15605058592245591, -1.043576074647939000 ) ) ;
#564 = EDGE_CURVE ( 'NONE', #1158, #387, #320, .T. ) ;
#565 = VERTEX_POINT ( 'NONE', #976 ) ;
#566 = CARTESIAN_POINT ( 'NONE',  ( 11.68949880000002572, 20.00000000000000000, -4.999999999999997335 ) ) ;
#567 = VERTEX_POINT ( 'NONE', #1108 ) ;
#568 = CARTESIAN_POINT ( 'NONE',  ( 0.000000000000000000, 0.000000000000000000, 2.000000000000000000 ) ) ;
#569 = FACE_BOUND ( 'NONE', #681, .T. ) ;
#570 = AXIS2_PLACEMENT_3D ( 'NONE', #928, #520, #388 ) ;
#571 = ORIENTED_EDGE ( 'NONE', *, *, #1006, .F. ) ;
#572 = AXIS2_PLACEMENT_3D ( 'NONE', #389, #1053, #936 ) ;
#573 = DIRECTION ( 'NONE',  ( 0.000000000000000000, 0.000000000000000000, 1.000000000000000000 ) ) ;
#574 = ORIENTED_EDGE ( 'NONE', *, *, #704, .T. ) ;
#575 = LINE ( 'NONE', #1100, #559 ) ;
#576 = DIRECTION ( 'NONE',  ( 1.000000000000000000, 0.000000000000000000, 0.000000000000000000 ) ) ;
#577 = ORIENTED_EDGE ( 'NONE', *, *, #44, .F. ) ;
#578 = AXIS2_PLACEMENT_3D ( 'NONE', #331, #780, #573 ) ;
#579 = VECTOR ( 'NONE', #932, 1000.000000000000000 ) ;
#580 = DIRECTION ( 'NONE',  ( 0.000000000000000000, 1.000000000000000000, 0.000000000000000000 ) ) ;
#581 = LINE ( 'NONE', #693, #466 ) ;
#582 = CARTESIAN_POINT ( 'NONE',  ( 2.267858449796413762E-13, -7.200000000000000178, -1.043576074647939000 ) ) ;
#583 = ORIENTED_EDGE ( 'NONE', *, *, #239, .T. ) ;
#584 = DIRECTION ( 'NONE',  ( 0.000000000000000000, 0.000000000000000000, -1.000000000000000000 ) ) ;
#585 = EDGE_CURVE ( 'NONE', #951, #24, #139, .T. ) ;
#586 = CIRCLE ( 'NONE', #710, 1.000000000000000000 ) ;
#587 = DIRECTION ( 'NONE',  ( 0.000000000000000000, 0.000000000000000000, 1.000000000000000000 ) ) ;
#588 = DIRECTION ( 'NONE',  ( -1.084202172485504434E-16, 1.000000000000000000, 0.000000000000000000 ) ) ;
#589 = VERTEX_POINT ( 'NONE', #563 ) ;
#590 = DIRECTION ( 'NONE',  ( -0.000000000000000000, -0.000000000000000000, 1.000000000000000000 ) ) ;
#591 = CARTESIAN_POINT ( 'NONE',  ( 0.000000000000000000, 17.00000000000000000, -1.043576074647938778 ) ) ;
#592 = CARTESIAN_POINT ( 'NONE',  ( 16.00000000000000000, -20.00000000000000355, -1.043576074647938778 ) ) ;
#593 = FACE_OUTER_BOUND ( 'NONE', #949, .T. ) ;
#594 = FACE_OUTER_BOUND ( 'NONE', #612, .T. ) ;
#595 = CARTESIAN_POINT ( 'NONE',  ( 16.00000000000000000, 19.99999999999999645, 2.000000000000000000 ) ) ;
#596 = VECTOR ( 'NONE', #160, 1000.000000000000000 ) ;
#597 = CIRCLE ( 'NONE', #409, 1.500000000000000444 ) ;
#598 = CARTESIAN_POINT ( 'NONE',  ( 8.200000000000111200, 1.133929224898207133E-13, 2.000000000000000000 ) ) ;
#599 = PLANE ( 'NONE',  #177 ) ;
#600 = EDGE_CURVE ( 'NONE', #991, #736, #133, .T. ) ;
#601 = ADVANCED_FACE ( 'NONE', ( #9, #28, #446, #34, #569, #337 ), #329, .F. ) ;
#602 = ORIENTED_EDGE ( 'NONE', *, *, #156, .F. ) ;
#603 = FACE_OUTER_BOUND ( 'NONE', #117, .T. ) ;
#604 = EDGE_LOOP ( 'NONE', ( #335, #181, #488, #233 ) ) ;
#605 = LINE ( 'NONE', #64, #136 ) ;
#606 = ORIENTED_EDGE ( 'NONE', *, *, #805, .T. ) ;
#607 = EDGE_CURVE ( 'NONE', #536, #190, #865, .T. ) ;
#608 = FILL_AREA_STYLE ('',( #931 ) ) ;
#609 = ORIENTED_EDGE ( 'NONE', *, *, #401, .T. ) ;
#610 = CIRCLE ( 'NONE', #357, 1.000000000000000000 ) ;
#611 = CARTESIAN_POINT ( 'NONE',  ( 0.000000000000000000, 7.200000000000000178, 2.000000000000000000 ) ) ;
#612 = EDGE_LOOP ( 'NONE', ( #945, #961, #215, #1353 ) ) ;
#613 = VERTEX_POINT ( 'NONE', #220 ) ;
#614 = DIRECTION ( 'NONE',  ( -1.000000000000000000, -1.084202172485504434E-16, 0.000000000000000000 ) ) ;
#615 = ADVANCED_FACE ( 'NONE', ( #897 ), #989, .F. ) ;
#616 = LINE ( 'NONE', #69, #539 ) ;
#617 = ORIENTED_EDGE ( 'NONE', *, *, #1044, .F. ) ;
#618 = AXIS2_PLACEMENT_3D ( 'NONE', #769, #1309, #864 ) ;
#619 = VECTOR ( 'NONE', #765, 1000.000000000000000 ) ;
#620 = DIRECTION ( 'NONE',  ( -0.000000000000000000, -1.000000000000000000, -0.000000000000000000 ) ) ;
#621 = ORIENTED_EDGE ( 'NONE', *, *, #673, .T. ) ;
#622 = ORIENTED_EDGE ( 'NONE', *, *, #996, .F. ) ;
#623 = AXIS2_PLACEMENT_3D ( 'NONE', #568, #340, #16 ) ;
#624 = CARTESIAN_POINT ( 'NONE',  ( -0.9999999999997731814, -7.200000000000000178, -1.043576074647939000 ) ) ;
#625 = VERTEX_POINT ( 'NONE', #119 ) ;
#626 = CARTESIAN_POINT ( 'NONE',  ( 2.267858449796413762E-13, -7.200000000000000178, 2.000000000000000000 ) ) ;
#627 = EDGE_CURVE ( 'NONE', #1169, #542, #665, .T. ) ;
#628 = ORIENTED_EDGE ( 'NONE', *, *, #1129, .T. ) ;
#629 = DIRECTION ( 'NONE',  ( -0.000000000000000000, -0.000000000000000000, 1.000000000000000000 ) ) ;
#630 = CARTESIAN_POINT ( 'NONE',  ( -6.199999999999887379, -1.142746681852067887E-13, -1.043576074647939000 ) ) ;
#631 = ORIENTED_EDGE ( 'NONE', *, *, #1226, .T. ) ;
#632 = FACE_OUTER_BOUND ( 'NONE', #1228, .T. ) ;
#633 = ORIENTED_EDGE ( 'NONE', *, *, #1236, .F. ) ;
#634 = EDGE_CURVE ( 'NONE', #407, #974, #901, .T. ) ;
#635 = DIRECTION ( 'NONE',  ( 0.000000000000000000, 0.000000000000000000, 1.000000000000000000 ) ) ;
#636 = FACE_OUTER_BOUND ( 'NONE', #1057, .T. ) ;
#637 = ORIENTED_EDGE ( 'NONE', *, *, #36, .T. ) ;
#638 = DIRECTION ( 'NONE',  ( -0.000000000000000000, -1.000000000000000000, -0.000000000000000000 ) ) ;
#639 = EDGE_LOOP ( 'NONE', ( #728, #203 ) ) ;
#640 = AXIS2_PLACEMENT_3D ( 'NONE', #549, #978, #121 ) ;
#641 = VECTOR ( 'NONE', #997, 1000.000000000000000 ) ;
#642 = AXIS2_PLACEMENT_3D ( 'NONE', #697, #801, #370 ) ;
#643 = ADVANCED_FACE ( 'NONE', ( #23, #883 ), #889, .T. ) ;
#644 = DIRECTION ( 'NONE',  ( -0.000000000000000000, -0.000000000000000000, 1.000000000000000000 ) ) ;
#645 = DIRECTION ( 'NONE',  ( -1.000000000000000000, -1.790608579576956557E-16, 0.000000000000000000 ) ) ;
#646 = ORIENTED_EDGE ( 'NONE', *, *, #886, .F. ) ;
#647 = DIRECTION ( 'NONE',  ( -0.000000000000000000, -1.000000000000000000, -0.000000000000000000 ) ) ;
#648 = ORIENTED_EDGE ( 'NONE', *, *, #1220, .F. ) ;
#649 = DIRECTION ( 'NONE',  ( 0.000000000000000000, 0.000000000000000000, 1.000000000000000000 ) ) ;
#650 = DIRECTION ( 'NONE',  ( 0.000000000000000000, 0.000000000000000000, 1.000000000000000000 ) ) ;
#651 = VECTOR ( 'NONE', #984, 1000.000000000000000 ) ;
#652 = DIRECTION ( 'NONE',  ( 0.000000000000000000, -1.000000000000000000, 0.000000000000000000 ) ) ;
#653 = EDGE_LOOP ( 'NONE', ( #63, #606 ) ) ;
#654 = DIRECTION ( 'NONE',  ( 1.000000000000000000, 0.000000000000000000, 0.000000000000000000 ) ) ;
#655 = EDGE_LOOP ( 'NONE', ( #486, #4, #88, #1360 ) ) ;
#656 = LINE ( 'NONE', #33, #1237 ) ;
#657 = DIRECTION ( 'NONE',  ( 1.000000000000000000, 0.000000000000000000, 0.000000000000000000 ) ) ;
#658 = APPLICATION_CONTEXT ( 'automotive_design' ) ;
#659 = SURFACE_SIDE_STYLE ('',( #338 ) ) ;
#660 = LINE ( 'NONE', #323, #1200 ) ;
#661 = EDGE_CURVE ( 'NONE', #1203, #907, #1319, .T. ) ;
#662 = EDGE_CURVE ( 'NONE', #428, #1010, #217, .T. ) ;
#663 = EDGE_LOOP ( 'NONE', ( #347, #470, #273, #574 ) ) ;
#664 = DIRECTION ( 'NONE',  ( 0.000000000000000000, -1.000000000000000000, 0.000000000000000000 ) ) ;
#665 = LINE ( 'NONE', #772, #651 ) ;
#666 = AXIS2_PLACEMENT_3D ( 'NONE', #103, #1362, #1373 ) ;
#667 = CIRCLE ( 'NONE', #890, 1.500000000000000444 ) ;
#668 = PRESENTATION_LAYER_ASSIGNMENT (  '', '', ( #913 ) ) ;
#669 = AXIS2_PLACEMENT_3D ( 'NONE', #348, #664, #441 ) ;
#670 = ORIENTED_EDGE ( 'NONE', *, *, #198, .F. ) ;
#671 = CARTESIAN_POINT ( 'NONE',  ( 16.00000000000000000, -16.99999999999999645, -8.000000000000000000 ) ) ;
#672 = CARTESIAN_POINT ( 'NONE',  ( 7.000000000000007994, 0.000000000000000000, -1.043576074647939000 ) ) ;
#673 = EDGE_CURVE ( 'NONE', #356, #284, #581, .T. ) ;
#674 = ORIENTED_EDGE ( 'NONE', *, *, #600, .F. ) ;
#675 =( NAMED_UNIT ( * ) PLANE_ANGLE_UNIT ( ) SI_UNIT ( $, .RADIAN. ) );
#676 = ORIENTED_EDGE ( 'NONE', *, *, #661, .F. ) ;
#677 = CARTESIAN_POINT ( 'NONE',  ( -16.00000000000000000, 19.99999999999999289, -1.043576074647938778 ) ) ;
#678 = CARTESIAN_POINT ( 'NONE',  ( 7.000000000000007105, -16.99999999999999645, -1.043576074647939000 ) ) ;
#679 = EDGE_CURVE ( 'NONE', #173, #1141, #1011, .T. ) ;
#680 = EDGE_CURVE ( 'NONE', #1049, #979, #788, .T. ) ;
#681 = EDGE_LOOP ( 'NONE', ( #583, #1286 ) ) ;
#682 = AXIS2_PLACEMENT_3D ( 'NONE', #1345, #43, #158 ) ;
#683 = CARTESIAN_POINT ( 'NONE',  ( -7.000000000000010658, -16.99999999999999645, -8.000000000000000000 ) ) ;
#684 = DIRECTION ( 'NONE',  ( 0.000000000000000000, -0.000000000000000000, 1.000000000000000000 ) ) ;
#685 = DIRECTION ( 'NONE',  ( 1.000000000000000000, 0.000000000000000000, 0.000000000000000000 ) ) ;
#686 = VERTEX_POINT ( 'NONE', #38 ) ;
#687 = AXIS2_PLACEMENT_3D ( 'NONE', #1202, #558, #360 ) ;
#688 = DIRECTION ( 'NONE',  ( 0.000000000000000000, -1.000000000000000000, 0.000000000000000000 ) ) ;
#689 = ADVANCED_FACE ( 'NONE', ( #365 ), #257, .F. ) ;
#690 = VECTOR ( 'NONE', #149, 1000.000000000000000 ) ;
#691 = CIRCLE ( 'NONE', #1301, 1.000000000000000000 ) ;
#692 = CARTESIAN_POINT ( 'NONE',  ( 16.00000000000000711, 19.99999999999999645, -8.000000000000000000 ) ) ;
#693 = CARTESIAN_POINT ( 'NONE',  ( -0.9999999999997731814, -7.200000000000000178, -1.043576074647939000 ) ) ;
#694 = ORIENTED_EDGE ( 'NONE', *, *, #483, .F. ) ;
#695 = CARTESIAN_POINT ( 'NONE',  ( -11.68949879999996710, -16.99999999999999645, -5.000000000000000000 ) ) ;
#696 = ADVANCED_FACE ( 'NONE', ( #145 ), #1136, .F. ) ;
#697 = CARTESIAN_POINT ( 'NONE',  ( 11.68949880000002572, 20.00000000000000000, -4.999999999999997335 ) ) ;
#698 = CARTESIAN_POINT ( 'NONE',  ( 11.68949880000002572, -16.99999999999999645, -3.499999999999996891 ) ) ;
#699 = DIRECTION ( 'NONE',  ( 0.000000000000000000, 0.000000000000000000, 1.000000000000000000 ) ) ;
#700 = CARTESIAN_POINT ( 'NONE',  ( 16.00000000000000000, -16.99999999999999645, -1.043576074647939000 ) ) ;
#701 = ADVANCED_FACE ( 'NONE', ( #803, #1131 ), #599, .T. ) ;
#702 = DIRECTION ( 'NONE',  ( -0.000000000000000000, 1.000000000000000000, -0.000000000000000000 ) ) ;
#703 = DIRECTION ( 'NONE',  ( -0.000000000000000000, -0.000000000000000000, 1.000000000000000000 ) ) ;
#704 = EDGE_CURVE ( 'NONE', #736, #309, #712, .T. ) ;
#705 = DIRECTION ( 'NONE',  ( -0.000000000000000000, -1.000000000000000000, -0.000000000000000000 ) ) ;
#706 = VERTEX_POINT ( 'NONE', #1239 ) ;
#707 = CARTESIAN_POINT ( 'NONE',  ( -16.00000000000000000, -16.99999999999999645, -8.000000000000000000 ) ) ;
#708 = ORIENTED_EDGE ( 'NONE', *, *, #552, .T. ) ;
#709 = VECTOR ( 'NONE', #912, 1000.000000000000000 ) ;
#710 = AXIS2_PLACEMENT_3D ( 'NONE', #582, #1083, #1194 ) ;
#711 = CIRCLE ( 'NONE', #73, 1.500000000000000444 ) ;
#712 = LINE ( 'NONE', #1144, #973 ) ;
#713 = EDGE_CURVE ( 'NONE', #94, #749, #1332, .T. ) ;
#714 = VERTEX_POINT ( 'NONE', #809 ) ;
#715 = DIRECTION ( 'NONE',  ( 1.000000000000000000, 0.000000000000000000, 0.000000000000000000 ) ) ;
#716 = ORIENTED_EDGE ( 'NONE', *, *, #1103, .F. ) ;
#717 = CARTESIAN_POINT ( 'NONE',  ( 1.500000000000000222, 0.000000000000000000, 2.000000000000000000 ) ) ;
#718 = CIRCLE ( 'NONE', #1263, 0.9999999999999991118 ) ;
#719 = AXIS2_PLACEMENT_3D ( 'NONE', #777, #212, #878 ) ;
#720 = EDGE_CURVE ( 'NONE', #589, #1203, #251, .T. ) ;
#721 = EDGE_LOOP ( 'NONE', ( #210, #1099, #924, #674 ) ) ;
#722 = SURFACE_STYLE_USAGE ( .BOTH. , #1133 ) ;
#723 = CARTESIAN_POINT ( 'NONE',  ( -11.68949879999996710, 20.00000000000000000, -3.499999999999999556 ) ) ;
#724 = ORIENTED_EDGE ( 'NONE', *, *, #30, .F. ) ;
#725 = DIRECTION ( 'NONE',  ( 0.000000000000000000, 0.000000000000000000, -1.000000000000000000 ) ) ;
#726 = ORIENTED_EDGE ( 'NONE', *, *, #661, .T. ) ;
#727 = ORIENTED_EDGE ( 'NONE', *, *, #142, .F. ) ;
#728 = ORIENTED_EDGE ( 'NONE', *, *, #459, .T. ) ;
#729 = DIRECTION ( 'NONE',  ( -0.000000000000000000, -1.000000000000000000, -0.000000000000000000 ) ) ;
#730 = FACE_OUTER_BOUND ( 'NONE', #197, .T. ) ;
#731 = ORIENTED_EDGE ( 'NONE', *, *, #1145, .T. ) ;
#732 = ADVANCED_FACE ( 'NONE', ( #1122, #593 ), #152, .T. ) ;
#733 = AXIS2_PLACEMENT_3D ( 'NONE', #1038, #960, #827 ) ;
#734 = CIRCLE ( 'NONE', #578, 1.500000000000000444 ) ;
#735 = DIRECTION ( 'NONE',  ( 1.000000000000000000, 0.000000000000000000, 0.000000000000000000 ) ) ;
#736 = VERTEX_POINT ( 'NONE', #59 ) ;
#737 = ORIENTED_EDGE ( 'NONE', *, *, #1145, .F. ) ;
#738 = VECTOR ( 'NONE', #756, 1000.000000000000000 ) ;
#739 = CYLINDRICAL_SURFACE ( 'NONE', #228, 0.9999999999999991118 ) ;
#740 = DIRECTION ( 'NONE',  ( -0.000000000000000000, -0.000000000000000000, 1.000000000000000000 ) ) ;
#741 = ORIENTED_EDGE ( 'NONE', *, *, #1354, .T. ) ;
#742 = DIRECTION ( 'NONE',  ( 0.000000000000000000, -1.000000000000000000, 0.000000000000000000 ) ) ;
#743 = VERTEX_POINT ( 'NONE', #698 ) ;
#744 = LINE ( 'NONE', #322, #165 ) ;
#745 = CARTESIAN_POINT ( 'NONE',  ( -16.00000000000000000, -20.00000000000001066, -8.000000000000000000 ) ) ;
#746 = ORIENTED_EDGE ( 'NONE', *, *, #704, .F. ) ;
#747 = CARTESIAN_POINT ( 'NONE',  ( 6.200000000000112976, 1.135153871697354611E-13, -1.043576074647939000 ) ) ;
#748 = EDGE_CURVE ( 'NONE', #70, #1329, #1250, .T. ) ;
#749 = VERTEX_POINT ( 'NONE', #171 ) ;
#750 = ADVANCED_FACE ( 'NONE', ( #481 ), #487, .T. ) ;
#751 = CARTESIAN_POINT ( 'NONE',  ( 0.000000000000000000, 0.000000000000000000, 2.000000000000000000 ) ) ;
#752 = ORIENTED_EDGE ( 'NONE', *, *, #1207, .T. ) ;
#753 = DIRECTION ( 'NONE',  ( 0.000000000000000000, -1.000000000000000000, 0.000000000000000000 ) ) ;
#754 = ADVANCED_FACE ( 'NONE', ( #376 ), #917, .T. ) ;
#755 = EDGE_LOOP ( 'NONE', ( #846, #526 ) ) ;
#756 = DIRECTION ( 'NONE',  ( -0.000000000000000000, -0.000000000000000000, 1.000000000000000000 ) ) ;
#757 = CARTESIAN_POINT ( 'NONE',  ( -7.199999999999887379, -1.142746681852067887E-13, 2.000000000000000000 ) ) ;
#758 = EDGE_CURVE ( 'NONE', #194, #899, #605, .T. ) ;
#759 = PLANE ( 'NONE',  #1116 ) ;
#760 = CARTESIAN_POINT ( 'NONE',  ( 16.00000000000000000, 19.99999999999999645, -1.043576074647938778 ) ) ;
#761 = ORIENTED_EDGE ( 'NONE', *, *, #634, .F. ) ;
#762 = CARTESIAN_POINT ( 'NONE',  ( 0.000000000000000000, 0.000000000000000000, -1.043576074647939000 ) ) ;
#763 = VERTEX_POINT ( 'NONE', #1388 ) ;
#764 = CARTESIAN_POINT ( 'NONE',  ( -7.000000000000013323, 1.253426005703874619E-15, -1.043576074647939000 ) ) ;
#765 = DIRECTION ( 'NONE',  ( 0.000000000000000000, -1.000000000000000000, 0.000000000000000000 ) ) ;
#766 = LINE ( 'NONE', #1201, #641 ) ;
#767 = DIRECTION ( 'NONE',  ( 1.000000000000000000, 0.000000000000000000, 0.000000000000000000 ) ) ;
#768 = VERTEX_POINT ( 'NONE', #717 ) ;
#769 = CARTESIAN_POINT ( 'NONE',  ( 11.68949880000002572, 17.00000000000000000, -4.999999999999997335 ) ) ;
#770 = ORIENTED_EDGE ( 'NONE', *, *, #905, .T. ) ;
#771 = CARTESIAN_POINT ( 'NONE',  ( 7.000000000000007994, 17.00000000000000000, -1.043576074647939000 ) ) ;
#772 = CARTESIAN_POINT ( 'NONE',  ( 0.000000000000000000, -16.99999999999999645, -1.043576074647938778 ) ) ;
#773 =( LENGTH_UNIT ( ) NAMED_UNIT ( * ) SI_UNIT ( .MILLI., .METRE. ) );
#774 = EDGE_CURVE ( 'NONE', #625, #714, #1368, .T. ) ;
#775 = VERTEX_POINT ( 'NONE', #845 ) ;
#776 = DIRECTION ( 'NONE',  ( 0.000000000000000000, -0.000000000000000000, 1.000000000000000000 ) ) ;
#777 = CARTESIAN_POINT ( 'NONE',  ( -11.68949879999996710, 16.99999999999999645, -5.000000000000000000 ) ) ;
#778 = AXIS2_PLACEMENT_3D ( 'NONE', #939, #1156, #155 ) ;
#779 = VERTEX_POINT ( 'NONE', #1152 ) ;
#780 = DIRECTION ( 'NONE',  ( 0.000000000000000000, 1.000000000000000000, 0.000000000000000000 ) ) ;
#781 = ORIENTED_EDGE ( 'NONE', *, *, #954, .F. ) ;
#782 = CARTESIAN_POINT ( 'NONE',  ( -7.000000000000010658, -16.99999999999999645, -1.043576074647939000 ) ) ;
#783 = DIRECTION ( 'NONE',  ( -0.000000000000000000, -1.000000000000000000, -0.000000000000000000 ) ) ;
#784 = ORIENTED_EDGE ( 'NONE', *, *, #996, .T. ) ;
#785 = DIRECTION ( 'NONE',  ( -0.000000000000000000, -1.000000000000000000, -0.000000000000000000 ) ) ;
#786 = AXIS2_PLACEMENT_3D ( 'NONE', #501, #740, #855 ) ;
#787 = DIRECTION ( 'NONE',  ( 0.000000000000000000, -0.000000000000000000, 1.000000000000000000 ) ) ;
#788 = LINE ( 'NONE', #1232, #858 ) ;
#789 = EDGE_CURVE ( 'NONE', #974, #407, #610, .T. ) ;
#790 = FACE_OUTER_BOUND ( 'NONE', #663, .T. ) ;
#791 = ORIENTED_EDGE ( 'NONE', *, *, #1101, .T. ) ;
#792 = AXIS2_PLACEMENT_3D ( 'NONE', #496, #684, #50 ) ;
#793 = DIRECTION ( 'NONE',  ( 0.000000000000000000, 0.000000000000000000, -1.000000000000000000 ) ) ;
#794 = FACE_OUTER_BOUND ( 'NONE', #1148, .T. ) ;
#795 = DIRECTION ( 'NONE',  ( -0.000000000000000000, -0.000000000000000000, 1.000000000000000000 ) ) ;
#796 = CARTESIAN_POINT ( 'NONE',  ( -11.68949879999996710, 16.99999999999999645, -3.499999999999999112 ) ) ;
#797 = VECTOR ( 'NONE', #85, 1000.000000000000000 ) ;
#798 = EDGE_LOOP ( 'NONE', ( #818, #15 ) ) ;
#799 = ADVANCED_FACE ( 'NONE', ( #822 ), #1281, .F. ) ;
#800 = CARTESIAN_POINT ( 'NONE',  ( -7.199999999999887379, -1.142746681852067887E-13, -1.043576074647939000 ) ) ;
#801 = DIRECTION ( 'NONE',  ( -0.000000000000000000, -1.000000000000000000, -0.000000000000000000 ) ) ;
#802 = VECTOR ( 'NONE', #157, 1000.000000000000000 ) ;
#803 = FACE_BOUND ( 'NONE', #943, .T. ) ;
#804 = CARTESIAN_POINT ( 'NONE',  ( 11.68949880000002572, -20.00000000000000711, -4.999999999999997335 ) ) ;
#805 = EDGE_CURVE ( 'NONE', #995, #375, #495, .T. ) ;
#806 = CARTESIAN_POINT ( 'NONE',  ( 1.500000000000000222, 0.000000000000000000, -1.043576074647939000 ) ) ;
#807 = ADVANCED_FACE ( 'NONE', ( #276 ), #189, .F. ) ;
#808 = LINE ( 'NONE', #1242, #208 ) ;
#809 = CARTESIAN_POINT ( 'NONE',  ( -11.68949879999996710, -20.00000000000000711, -6.500000000000000888 ) ) ;
#810 = DIRECTION ( 'NONE',  ( 0.000000000000000000, -1.000000000000000000, 0.000000000000000000 ) ) ;
#811 = VERTEX_POINT ( 'NONE', #853 ) ;
#812 = LINE ( 'NONE', #591, #958 ) ;
#813 = EDGE_LOOP ( 'NONE', ( #602, #716, #489, #339 ) ) ;
#814 = CARTESIAN_POINT ( 'NONE',  ( -16.00000000000000000, -20.00000000000001066, -1.043576074647938778 ) ) ;
#815 = EDGE_LOOP ( 'NONE', ( #26, #927, #1367, #395 ) ) ;
#816 = ORIENTED_EDGE ( 'NONE', *, *, #523, .T. ) ;
#817 = DIRECTION ( 'NONE',  ( 0.000000000000000000, 0.000000000000000000, 1.000000000000000000 ) ) ;
#818 = ORIENTED_EDGE ( 'NONE', *, *, #1103, .T. ) ;
#819 = VECTOR ( 'NONE', #435, 1000.000000000000000 ) ;
#820 = VECTOR ( 'NONE', #548, 1000.000000000000000 ) ;
#821 = VECTOR ( 'NONE', #915, 1000.000000000000000 ) ;
#822 = FACE_OUTER_BOUND ( 'NONE', #554, .T. ) ;
#823 = ORIENTED_EDGE ( 'NONE', *, *, #354, .T. ) ;
#824 = DIRECTION ( 'NONE',  ( 0.000000000000000000, 1.000000000000000000, -0.000000000000000000 ) ) ;
#825 = DIRECTION ( 'NONE',  ( -0.000000000000000000, -0.000000000000000000, 1.000000000000000000 ) ) ;
#826 = ORIENTED_EDGE ( 'NONE', *, *, #1313, .F. ) ;
#827 = DIRECTION ( 'NONE',  ( 0.000000000000000000, 0.000000000000000000, -1.000000000000000000 ) ) ;
#828 = AXIS2_PLACEMENT_3D ( 'NONE', #1079, #1199, #1328 ) ;
#829 = ORIENTED_EDGE ( 'NONE', *, *, #382, .F. ) ;
#830 = ADVANCED_FACE ( 'NONE', ( #202 ), #195, .F. ) ;
#831 = EDGE_CURVE ( 'NONE', #169, #1063, #11, .T. ) ;
#832 = ORIENTED_EDGE ( 'NONE', *, *, #25, .F. ) ;
#833 = CARTESIAN_POINT ( 'NONE',  ( 11.68949880000002572, 20.00000000000000000, -6.499999999999998224 ) ) ;
#834 = CARTESIAN_POINT ( 'NONE',  ( 1.000000000000000000, 7.200000000000000178, -1.043576074647939000 ) ) ;
#835 = ORIENTED_EDGE ( 'NONE', *, *, #831, .T. ) ;
#836 = PRODUCT_CONTEXT ( 'NONE', #953, 'mechanical' ) ;
#837 = DIRECTION ( 'NONE',  ( 1.000000000000000000, 0.000000000000000000, 0.000000000000000000 ) ) ;
#838 = EDGE_LOOP ( 'NONE', ( #286, #1094 ) ) ;
#839 = VERTEX_POINT ( 'NONE', #1381 ) ;
#840 = EDGE_LOOP ( 'NONE', ( #515, #856, #609, #1117, #148, #178, #946, #1308, #648, #737, #104, #1171 ) ) ;
#841 = LINE ( 'NONE', #105, #870 ) ;
#842 = DIRECTION ( 'NONE',  ( 0.000000000000000000, 0.000000000000000000, 1.000000000000000000 ) ) ;
#843 = ORIENTED_EDGE ( 'NONE', *, *, #459, .F. ) ;
#844 = CIRCLE ( 'NONE', #1230, 1.000000000000000000 ) ;
#845 = CARTESIAN_POINT ( 'NONE',  ( 7.000000000000007994, 19.99999999999999645, -8.000000000000000000 ) ) ;
#846 = ORIENTED_EDGE ( 'NONE', *, *, #61, .F. ) ;
#847 = VECTOR ( 'NONE', #888, 1000.000000000000000 ) ;
#848 = FACE_OUTER_BOUND ( 'NONE', #1197, .T. ) ;
#849 = ADVANCED_FACE ( 'NONE', ( #632 ), #1287, .F. ) ;
#850 = CARTESIAN_POINT ( 'NONE',  ( 7.000000000000007994, 19.99999999999999645, 2.000000000000000000 ) ) ;
#851 = ORIENTED_EDGE ( 'NONE', *, *, #279, .T. ) ;
#852 = EDGE_CURVE ( 'NONE', #1061, #74, #1172, .T. ) ;
#853 = CARTESIAN_POINT ( 'NONE',  ( -16.00000000000000000, 16.99999999999999645, -1.043576074647939000 ) ) ;
#854 = VERTEX_POINT ( 'NONE', #747 ) ;
#855 = DIRECTION ( 'NONE',  ( 1.000000000000000000, 0.000000000000000000, 0.000000000000000000 ) ) ;
#856 = ORIENTED_EDGE ( 'NONE', *, *, #627, .T. ) ;
#857 = DIRECTION ( 'NONE',  ( -0.000000000000000000, -0.000000000000000000, 1.000000000000000000 ) ) ;
#858 = VECTOR ( 'NONE', #1031, 1000.000000000000000 ) ;
#859 = EDGE_CURVE ( 'NONE', #854, #1389, #1163, .T. ) ;
#860 = ORIENTED_EDGE ( 'NONE', *, *, #543, .F. ) ;
#861 =( NAMED_UNIT ( * ) PLANE_ANGLE_UNIT ( ) SI_UNIT ( $, .RADIAN. ) );
#862 = FACE_BOUND ( 'NONE', #7, .T. ) ;
#863 = ORIENTED_EDGE ( 'NONE', *, *, #150, .T. ) ;
#864 = DIRECTION ( 'NONE',  ( 0.000000000000000000, 0.000000000000000000, -1.000000000000000000 ) ) ;
#865 = CIRCLE ( 'NONE', #719, 1.500000000000000444 ) ;
#866 = VERTEX_POINT ( 'NONE', #1046 ) ;
#867 = LINE ( 'NONE', #988, #439 ) ;
#868 = EDGE_CURVE ( 'NONE', #1363, #107, #527, .T. ) ;
#869 = FACE_BOUND ( 'NONE', #1264, .T. ) ;
#870 = VECTOR ( 'NONE', #729, 1000.000000000000000 ) ;
#871 = AXIS2_PLACEMENT_3D ( 'NONE', #1331, #1135, #842 ) ;
#872 = CYLINDRICAL_SURFACE ( 'NONE', #457, 1.000000000000000000 ) ;
#873 = CARTESIAN_POINT ( 'NONE',  ( -16.00000000000000000, -16.99999999999999645, -8.000000000000000000 ) ) ;
#874 = ORIENTED_EDGE ( 'NONE', *, *, #95, .T. ) ;
#875 = DIRECTION ( 'NONE',  ( -0.000000000000000000, -0.000000000000000000, 1.000000000000000000 ) ) ;
#876 = ORIENTED_EDGE ( 'NONE', *, *, #789, .T. ) ;
#877 = CARTESIAN_POINT ( 'NONE',  ( -1.500000000000000222, 1.836970198721030181E-16, -1.043576074647939000 ) ) ;
#878 = DIRECTION ( 'NONE',  ( 0.000000000000000000, 0.000000000000000000, -1.000000000000000000 ) ) ;
#879 = EDGE_CURVE ( 'NONE', #938, #70, #93, .T. ) ;
#880 = PLANE ( 'NONE',  #1253 ) ;
#881 = ORIENTED_EDGE ( 'NONE', *, *, #1249, .T. ) ;
#882 = LINE ( 'NONE', #975, #232 ) ;
#883 = FACE_OUTER_BOUND ( 'NONE', #404, .T. ) ;
#884 = EDGE_LOOP ( 'NONE', ( #826, #451, #40, #1283, #791, #881, #726, #512, #1105, #1357, #1084, #447 ) ) ;
#885 = LINE ( 'NONE', #455, #690 ) ;
#886 = EDGE_CURVE ( 'NONE', #498, #768, #406, .T. ) ;
#887 = EDGE_LOOP ( 'NONE', ( #32, #1234 ) ) ;
#888 = DIRECTION ( 'NONE',  ( -1.000000000000000000, 0.000000000000000000, 0.000000000000000000 ) ) ;
#889 = PLANE ( 'NONE',  #41 ) ;
#890 = AXIS2_PLACEMENT_3D ( 'NONE', #695, #1021, #1244 ) ;
#891 = AXIS2_PLACEMENT_3D ( 'NONE', #244, #3, #685 ) ;
#892 = AXIS2_PLACEMENT_3D ( 'NONE', #566, #785, #584 ) ;
#893 = ORIENTED_EDGE ( 'NONE', *, *, #1280, .F. ) ;
#894 = LINE ( 'NONE', #1206, #344 ) ;
#895 = EDGE_CURVE ( 'NONE', #613, #284, #844, .T. ) ;
#896 = DIRECTION ( 'NONE',  ( 0.000000000000000000, 1.000000000000000000, 0.000000000000000000 ) ) ;
#897 = FACE_OUTER_BOUND ( 'NONE', #415, .T. ) ;
#898 = PLANE ( 'NONE',  #531 ) ;
#899 = VERTEX_POINT ( 'NONE', #1273 ) ;
#900 = DIRECTION ( 'NONE',  ( 0.000000000000000000, -1.000000000000000000, 0.000000000000000000 ) ) ;
#901 = CIRCLE ( 'NONE', #109, 1.000000000000000000 ) ;
#902 = CARTESIAN_POINT ( 'NONE',  ( 0.000000000000000000, 7.200000000000000178, -1.043576074647939000 ) ) ;
#903 = DIRECTION ( 'NONE',  ( 0.000000000000000000, 0.000000000000000000, 1.000000000000000000 ) ) ;
#904 = COLOUR_RGB ( '',0.9960784313725490335, 0.8705882352941176627, 0.7607843137254901578 ) ;
#905 = EDGE_CURVE ( 'NONE', #991, #21, #293, .T. ) ;
#906 = CARTESIAN_POINT ( 'NONE',  ( 7.000000000000007994, -15.15605058592245591, -1.043576074647939000 ) ) ;
#907 = VERTEX_POINT ( 'NONE', #521 ) ;
#908 = FILL_AREA_STYLE ('',( #471 ) ) ;
#909 = CARTESIAN_POINT ( 'NONE',  ( -0.9999999999997731814, -7.200000000000000178, 2.000000000000000000 ) ) ;
#910 = DIRECTION ( 'NONE',  ( -0.000000000000000000, -1.000000000000000000, -0.000000000000000000 ) ) ;
#911 = VECTOR ( 'NONE', #647, 1000.000000000000000 ) ;
#912 = DIRECTION ( 'NONE',  ( 0.000000000000000000, 0.000000000000000000, 1.000000000000000000 ) ) ;
#913 = STYLED_ITEM ( 'NONE', ( #161 ), #1177 ) ;
#914 = CARTESIAN_POINT ( 'NONE',  ( -7.000000000000010658, -20.00000000000001066, -8.000000000000000000 ) ) ;
#915 = DIRECTION ( 'NONE',  ( 0.000000000000000000, 0.000000000000000000, 1.000000000000000000 ) ) ;
#916 = VECTOR ( 'NONE', #1106, 1000.000000000000000 ) ;
#917 = PLANE ( 'NONE',  #1224 ) ;
#918 = CYLINDRICAL_SURFACE ( 'NONE', #478, 1.000000000000000000 ) ;
#919 = PRODUCT_RELATED_PRODUCT_CATEGORY ( 'part', '', ( #1272 ) ) ;
#920 = CARTESIAN_POINT ( 'NONE',  ( 0.000000000000000000, 15.15605058592245591, -1.043576074647939000 ) ) ;
#921 = ORIENTED_EDGE ( 'NONE', *, *, #831, .F. ) ;
#922 = DIRECTION ( 'NONE',  ( 1.000000000000000000, 2.168404344971008868E-16, 0.000000000000000000 ) ) ;
#923 = ORIENTED_EDGE ( 'NONE', *, *, #607, .T. ) ;
#924 = ORIENTED_EDGE ( 'NONE', *, *, #95, .F. ) ;
#925 = LINE ( 'NONE', #920, #52 ) ;
#926 = EDGE_CURVE ( 'NONE', #387, #407, #405, .T. ) ;
#927 = ORIENTED_EDGE ( 'NONE', *, *, #965, .F. ) ;
#928 = CARTESIAN_POINT ( 'NONE',  ( 0.000000000000000000, 0.000000000000000000, 0.000000000000000000 ) ) ;
#929 = DIRECTION ( 'NONE',  ( 1.000000000000000000, 0.000000000000000000, 0.000000000000000000 ) ) ;
#930 = ORIENTED_EDGE ( 'NONE', *, *, #543, .T. ) ;
#931 = FILL_AREA_STYLE_COLOUR ( '', #143 ) ;
#932 = DIRECTION ( 'NONE',  ( -0.000000000000000000, -1.000000000000000000, -0.000000000000000000 ) ) ;
#933 = EDGE_LOOP ( 'NONE', ( #123, #964 ) ) ;
#934 = VECTOR ( 'NONE', #1268, 1000.000000000000000 ) ;
#935 = AXIS2_PLACEMENT_3D ( 'NONE', #902, #587, #144 ) ;
#936 = DIRECTION ( 'NONE',  ( 0.000000000000000000, 0.000000000000000000, -1.000000000000000000 ) ) ;
#937 = EDGE_CURVE ( 'NONE', #743, #169, #216, .T. ) ;
#938 = VERTEX_POINT ( 'NONE', #316 ) ;
#939 = CARTESIAN_POINT ( 'NONE',  ( 7.200000000000112976, 1.133929224898207133E-13, -1.043576074647939000 ) ) ;
#940 = DIRECTION ( 'NONE',  ( 0.000000000000000000, 0.000000000000000000, 1.000000000000000000 ) ) ;
#941 = ORIENTED_EDGE ( 'NONE', *, *, #585, .F. ) ;
#942 = CARTESIAN_POINT ( 'NONE',  ( -11.68949879999996710, 20.00000000000000000, -6.500000000000000888 ) ) ;
#943 = EDGE_LOOP ( 'NONE', ( #617, #921 ) ) ;
#944 = EDGE_CURVE ( 'NONE', #375, #995, #294, .T. ) ;
#945 = ORIENTED_EDGE ( 'NONE', *, *, #1339, .T. ) ;
#946 = ORIENTED_EDGE ( 'NONE', *, *, #1395, .F. ) ;
#947 = CARTESIAN_POINT ( 'NONE',  ( 7.000000000000007994, 0.000000000000000000, 2.000000000000000000 ) ) ;
#948 = DIRECTION ( 'NONE',  ( 1.790608579576956557E-16, -1.000000000000000000, 0.000000000000000000 ) ) ;
#949 = EDGE_LOOP ( 'NONE', ( #497, #1087, #153, #1189 ) ) ;
#950 = DIRECTION ( 'NONE',  ( 0.000000000000000000, -0.000000000000000000, 1.000000000000000000 ) ) ;
#951 = VERTEX_POINT ( 'NONE', #116 ) ;
#952 = EDGE_CURVE ( 'NONE', #1389, #173, #14, .T. ) ;
#953 = APPLICATION_CONTEXT ( 'automotive_design' ) ;
#954 = EDGE_CURVE ( 'NONE', #74, #565, #432, .T. ) ;
#955 = DIRECTION ( 'NONE',  ( -0.000000000000000000, 0.000000000000000000, 1.000000000000000000 ) ) ;
#956 = DIRECTION ( 'NONE',  ( 0.000000000000000000, -0.000000000000000000, 1.000000000000000000 ) ) ;
#957 = ORIENTED_EDGE ( 'NONE', *, *, #246, .F. ) ;
#958 = VECTOR ( 'NONE', #1035, 1000.000000000000000 ) ;
#959 = VECTOR ( 'NONE', #299, 1000.000000000000000 ) ;
#960 = DIRECTION ( 'NONE',  ( -0.000000000000000000, -1.000000000000000000, -0.000000000000000000 ) ) ;
#961 = ORIENTED_EDGE ( 'NONE', *, *, #289, .T. ) ;
#962 = LINE ( 'NONE', #1193, #959 ) ;
#963 = FACE_OUTER_BOUND ( 'NONE', #550, .T. ) ;
#964 = ORIENTED_EDGE ( 'NONE', *, *, #420, .F. ) ;
#965 = EDGE_CURVE ( 'NONE', #1061, #275, #476, .T. ) ;
#966 = DIRECTION ( 'NONE',  ( 1.000000000000000000, 0.000000000000000000, 0.000000000000000000 ) ) ;
#967 = ORIENTED_EDGE ( 'NONE', *, *, #288, .T. ) ;
#968 = DIRECTION ( 'NONE',  ( 0.000000000000000000, 0.000000000000000000, -1.000000000000000000 ) ) ;
#969 = DIRECTION ( 'NONE',  ( -0.000000000000000000, -0.000000000000000000, 1.000000000000000000 ) ) ;
#970 = ORIENTED_EDGE ( 'NONE', *, *, #61, .T. ) ;
#971 = EDGE_CURVE ( 'NONE', #811, #1123, #1076, .T. ) ;
#972 = DIRECTION ( 'NONE',  ( 0.000000000000000000, -1.000000000000000000, 0.000000000000000000 ) ) ;
#973 = VECTOR ( 'NONE', #903, 1000.000000000000000 ) ;
#974 = VERTEX_POINT ( 'NONE', #1196 ) ;
#975 = CARTESIAN_POINT ( 'NONE',  ( 16.00000000000000711, 19.99999999999999645, -8.000000000000000000 ) ) ;
#976 = CARTESIAN_POINT ( 'NONE',  ( 11.68949880000002572, 17.00000000000000000, -3.499999999999996891 ) ) ;
#977 =( NAMED_UNIT ( * ) SI_UNIT ( $, .STERADIAN. ) SOLID_ANGLE_UNIT ( ) );
#978 = DIRECTION ( 'NONE',  ( 1.000000000000000000, -1.790608579576956557E-16, 0.000000000000000000 ) ) ;
#979 = VERTEX_POINT ( 'NONE', #326 ) ;
#980 = DIRECTION ( 'NONE',  ( 1.000000000000000000, 0.000000000000000000, 0.000000000000000000 ) ) ;
#981 = AXIS2_PLACEMENT_3D ( 'NONE', #1396, #972, #1187 ) ;
#982 = ORIENTED_EDGE ( 'NONE', *, *, #1072, .F. ) ;
#983 = DIRECTION ( 'NONE',  ( 1.790608579576956557E-16, -1.000000000000000000, 0.000000000000000000 ) ) ;
#984 = DIRECTION ( 'NONE',  ( -1.000000000000000000, 0.000000000000000000, 0.000000000000000000 ) ) ;
#985 = EDGE_CURVE ( 'NONE', #13, #267, #312, .T. ) ;
#986 = CARTESIAN_POINT ( 'NONE',  ( -7.000000000000010658, -15.15605058592245591, -1.043576074647939000 ) ) ;
#987 = ORIENTED_EDGE ( 'NONE', *, *, #304, .T. ) ;
#988 = CARTESIAN_POINT ( 'NONE',  ( 16.00000000000000000, -20.00000000000000355, 2.000000000000000000 ) ) ;
#989 = CYLINDRICAL_SURFACE ( 'NONE', #828, 1.000000000000000000 ) ;
#990 = ADVANCED_FACE ( 'NONE', ( #421 ), #334, .F. ) ;
#991 = VERTEX_POINT ( 'NONE', #1086 ) ;
#992 = ORIENTED_EDGE ( 'NONE', *, *, #419, .F. ) ;
#993 = CARTESIAN_POINT ( 'NONE',  ( 11.68949880000002572, 17.00000000000000000, -6.499999999999998224 ) ) ;
#994 = DIRECTION ( 'NONE',  ( 1.790608579576960255E-16, 1.000000000000000000, 0.000000000000000000 ) ) ;
#995 = VERTEX_POINT ( 'NONE', #551 ) ;
#996 = EDGE_CURVE ( 'NONE', #775, #397, #1015, .T. ) ;
#997 = DIRECTION ( 'NONE',  ( -0.000000000000000000, -1.000000000000000000, -0.000000000000000000 ) ) ;
#998 = ADVANCED_FACE ( 'NONE', ( #1346 ), #918, .F. ) ;
#999 = ORIENTED_EDGE ( 'NONE', *, *, #1037, .F. ) ;
#1000 = CARTESIAN_POINT ( 'NONE',  ( -7.000000000000010658, 16.99999999999999645, -8.000000000000000000 ) ) ;
#1001 = DIRECTION ( 'NONE',  ( -1.084202172485504434E-16, 1.000000000000000000, 0.000000000000000000 ) ) ;
#1002 = VECTOR ( 'NONE', #635, 1000.000000000000000 ) ;
#1003 = ORIENTED_EDGE ( 'NONE', *, *, #382, .T. ) ;
#1004 = VECTOR ( 'NONE', #702, 1000.000000000000000 ) ;
#1005 = CARTESIAN_POINT ( 'NONE',  ( -11.68949879999996710, -20.00000000000000711, -5.000000000000000000 ) ) ;
#1006 = EDGE_CURVE ( 'NONE', #866, #625, #667, .T. ) ;
#1007 = DIRECTION ( 'NONE',  ( 1.790608579576960255E-16, 1.000000000000000000, 0.000000000000000000 ) ) ;
#1008 = DIRECTION ( 'NONE',  ( 0.000000000000000000, -0.000000000000000000, 1.000000000000000000 ) ) ;
#1009 = PLANE ( 'NONE',  #640 ) ;
#1010 = VERTEX_POINT ( 'NONE', #1235 ) ;
#1011 = CIRCLE ( 'NONE', #792, 0.9999999999999991118 ) ;
#1012 = CARTESIAN_POINT ( 'NONE',  ( -16.00000000000000000, -20.00000000000001066, -8.000000000000000000 ) ) ;
#1013 = CARTESIAN_POINT ( 'NONE',  ( -16.00000000000000000, -20.00000000000001066, 2.000000000000000000 ) ) ;
#1014 = ORIENTED_EDGE ( 'NONE', *, *, #774, .T. ) ;
#1015 = LINE ( 'NONE', #1124, #596 ) ;
#1016 = SURFACE_STYLE_FILL_AREA ( #608 ) ;
#1017 = CARTESIAN_POINT ( 'NONE',  ( -11.68949879999996710, 16.99999999999999645, -6.500000000000000888 ) ) ;
#1018 = DIRECTION ( 'NONE',  ( -0.000000000000000000, -0.000000000000000000, 1.000000000000000000 ) ) ;
#1019 = EDGE_CURVE ( 'NONE', #412, #1329, #367, .T. ) ;
#1020 = VECTOR ( 'NONE', #620, 1000.000000000000000 ) ;
#1021 = DIRECTION ( 'NONE',  ( 0.000000000000000000, 1.000000000000000000, 0.000000000000000000 ) ) ;
#1022 = VECTOR ( 'NONE', #644, 1000.000000000000000 ) ;
#1023 = DIRECTION ( 'NONE',  ( 2.168404344971008868E-16, -1.000000000000000000, 0.000000000000000000 ) ) ;
#1024 = LINE ( 'NONE', #1012, #802 ) ;
#1025 = VECTOR ( 'NONE', #230, 1000.000000000000000 ) ;
#1026 = CARTESIAN_POINT ( 'NONE',  ( 16.00000000000000000, -20.00000000000000355, -1.043576074647938778 ) ) ;
#1027 = ADVANCED_FACE ( 'NONE', ( #1350 ), #154, .T. ) ;
#1028 = EDGE_LOOP ( 'NONE', ( #509, #140, #295, #863 ) ) ;
#1029 = DIRECTION ( 'NONE',  ( -0.000000000000000000, -0.000000000000000000, 1.000000000000000000 ) ) ;
#1030 = ORIENTED_EDGE ( 'NONE', *, *, #720, .T. ) ;
#1031 = DIRECTION ( 'NONE',  ( 1.790608579576956557E-16, -1.000000000000000000, 0.000000000000000000 ) ) ;
#1032 = ORIENTED_EDGE ( 'NONE', *, *, #1266, .F. ) ;
#1033 = ORIENTED_EDGE ( 'NONE', *, *, #150, .F. ) ;
#1034 = AXIS2_PLACEMENT_3D ( 'NONE', #1113, #588, #263 ) ;
#1035 = DIRECTION ( 'NONE',  ( 1.000000000000000000, 0.000000000000000000, 0.000000000000000000 ) ) ;
#1036 = EDGE_LOOP ( 'NONE', ( #502, #1298, #724, #670 ) ) ;
#1037 = EDGE_CURVE ( 'NONE', #1363, #899, #475, .T. ) ;
#1038 = CARTESIAN_POINT ( 'NONE',  ( 11.68949880000002572, 20.00000000000000000, -4.999999999999997335 ) ) ;
#1039 = ORIENTED_EDGE ( 'NONE', *, *, #289, .F. ) ;
#1040 = AXIS2_PLACEMENT_3D ( 'NONE', #1219, #1001, #231 ) ;
#1041 = CYLINDRICAL_SURFACE ( 'NONE', #1069, 0.9999999999999991118 ) ;
#1042 = PLANE ( 'NONE',  #1188 ) ;
#1043 = EDGE_LOOP ( 'NONE', ( #694, #1, #1185, #1376 ) ) ;
#1044 = EDGE_CURVE ( 'NONE', #1063, #169, #98, .T. ) ;
#1045 = AXIS2_PLACEMENT_3D ( 'NONE', #83, #940, #193 ) ;
#1046 = CARTESIAN_POINT ( 'NONE',  ( -11.68949879999996710, -16.99999999999999645, -3.499999999999999112 ) ) ;
#1047 = VECTOR ( 'NONE', #580, 1000.000000000000000 ) ;
#1048 = ORIENTED_EDGE ( 'NONE', *, *, #1266, .T. ) ;
#1049 = VERTEX_POINT ( 'NONE', #55 ) ;
#1050 = CARTESIAN_POINT ( 'NONE',  ( -11.68949879999996710, 20.00000000000000000, -5.000000000000000000 ) ) ;
#1051 = DIRECTION ( 'NONE',  ( -0.000000000000000000, -0.000000000000000000, 1.000000000000000000 ) ) ;
#1052 = ORIENTED_EDGE ( 'NONE', *, *, #868, .T. ) ;
#1053 = DIRECTION ( 'NONE',  ( 0.000000000000000000, -1.000000000000000000, 0.000000000000000000 ) ) ;
#1054 = ADVANCED_FACE ( 'NONE', ( #594 ), #484, .F. ) ;
#1055 = ORIENTED_EDGE ( 'NONE', *, *, #673, .F. ) ;
#1056 = EDGE_CURVE ( 'NONE', #194, #839, #166, .T. ) ;
#1057 = EDGE_LOOP ( 'NONE', ( #292, #1302, #436, #941 ) ) ;
#1058 =( GEOMETRIC_REPRESENTATION_CONTEXT ( 3 ) GLOBAL_UNCERTAINTY_ASSIGNED_CONTEXT ( ( #130 ) ) GLOBAL_UNIT_ASSIGNED_CONTEXT ( ( #773, #675, #1330 ) ) REPRESENTATION_CONTEXT ( 'NONE', 'WORKASPACE' ) );
#1059 = DIRECTION ( 'NONE',  ( 1.000000000000000000, 0.000000000000000000, 0.000000000000000000 ) ) ;
#1060 = FACE_OUTER_BOUND ( 'NONE', #1317, .T. ) ;
#1061 = VERTEX_POINT ( 'NONE', #833 ) ;
#1062 = CARTESIAN_POINT ( 'NONE',  ( 16.00000000000000000, -20.00000000000000355, -8.000000000000000000 ) ) ;
#1063 = VERTEX_POINT ( 'NONE', #76 ) ;
#1064 = LINE ( 'NONE', #100, #1211 ) ;
#1065 = DIRECTION ( 'NONE',  ( -0.000000000000000000, 0.000000000000000000, 1.000000000000000000 ) ) ;
#1066 = ORIENTED_EDGE ( 'NONE', *, *, #246, .T. ) ;
#1067 = CIRCLE ( 'NONE', #778, 0.9999999999999991118 ) ;
#1068 = VECTOR ( 'NONE', #106, 1000.000000000000000 ) ;
#1069 = AXIS2_PLACEMENT_3D ( 'NONE', #485, #477, #715 ) ;
#1070 = DIRECTION ( 'NONE',  ( -1.000000000000000000, -1.084202172485504434E-16, 0.000000000000000000 ) ) ;
#1071 = ORIENTED_EDGE ( 'NONE', *, *, #126, .T. ) ;
#1072 = EDGE_CURVE ( 'NONE', #763, #327, #343, .T. ) ;
#1073 = DIRECTION ( 'NONE',  ( 0.000000000000000000, 1.000000000000000000, -0.000000000000000000 ) ) ;
#1074 = CARTESIAN_POINT ( 'NONE',  ( -16.00000000000000000, 19.99999999999999289, -8.000000000000000000 ) ) ;
#1075 = ORIENTED_EDGE ( 'NONE', *, *, #504, .F. ) ;
#1076 = LINE ( 'NONE', #209, #1276 ) ;
#1077 = ORIENTED_EDGE ( 'NONE', *, *, #494, .T. ) ;
#1078 = DIRECTION ( 'NONE',  ( 1.000000000000000000, 2.168404344971008868E-16, -0.000000000000000000 ) ) ;
#1079 = CARTESIAN_POINT ( 'NONE',  ( 0.000000000000000000, 7.200000000000000178, -1.043576074647939000 ) ) ;
#1080 = CIRCLE ( 'NONE', #1125, 1.000000000000000000 ) ;
#1081 = AXIS2_PLACEMENT_3D ( 'NONE', #757, #1008, #1349 ) ;
#1082 = DIRECTION ( 'NONE',  ( -1.000000000000000000, 0.000000000000000000, -0.000000000000000000 ) ) ;
#1083 = DIRECTION ( 'NONE',  ( 0.000000000000000000, 0.000000000000000000, 1.000000000000000000 ) ) ;
#1084 = ORIENTED_EDGE ( 'NONE', *, *, #25, .T. ) ;
#1085 = EDGE_CURVE ( 'NONE', #267, #13, #269, .T. ) ;
#1086 = CARTESIAN_POINT ( 'NONE',  ( 7.000000000000007994, 17.00000000000000000, -8.000000000000000000 ) ) ;
#1087 = ORIENTED_EDGE ( 'NONE', *, *, #1207, .F. ) ;
#1088 = CARTESIAN_POINT ( 'NONE',  ( 16.00000000000000000, -16.99999999999999645, -8.000000000000000000 ) ) ;
#1089 = CARTESIAN_POINT ( 'NONE',  ( -7.000000000000013323, 1.253426005703874619E-15, 2.000000000000000000 ) ) ;
#1090 = LINE ( 'NONE', #1111, #249 ) ;
#1091 = LINE ( 'NONE', #986, #99 ) ;
#1092 = AXIS2_PLACEMENT_3D ( 'NONE', #544, #753, #1300 ) ;
#1093 = VECTOR ( 'NONE', #1296, 1000.000000000000000 ) ;
#1094 = ORIENTED_EDGE ( 'NONE', *, *, #1137, .F. ) ;
#1095 = DIRECTION ( 'NONE',  ( 0.000000000000000000, 1.000000000000000000, 0.000000000000000000 ) ) ;
#1096 = DIRECTION ( 'NONE',  ( 0.000000000000000000, -0.000000000000000000, -1.000000000000000000 ) ) ;
#1097 = PRESENTATION_STYLE_ASSIGNMENT (( #1315 ) ) ;
#1098 = CIRCLE ( 'NONE', #1364, 1.500000000000000444 ) ;
#1099 = ORIENTED_EDGE ( 'NONE', *, *, #1354, .F. ) ;
#1100 = CARTESIAN_POINT ( 'NONE',  ( -16.00000000000000000, -20.00000000000001066, -8.000000000000000000 ) ) ;
#1101 = EDGE_CURVE ( 'NONE', #298, #397, #274, .T. ) ;
#1102 = CARTESIAN_POINT ( 'NONE',  ( 0.000000000000000000, 7.200000000000000178, -1.043576074647939000 ) ) ;
#1103 = EDGE_CURVE ( 'NONE', #1389, #854, #1067, .T. ) ;
#1104 = ORIENTED_EDGE ( 'NONE', *, *, #156, .T. ) ;
#1105 = ORIENTED_EDGE ( 'NONE', *, *, #879, .T. ) ;
#1106 = DIRECTION ( 'NONE',  ( 0.000000000000000000, 0.000000000000000000, 1.000000000000000000 ) ) ;
#1107 = AXIS2_PLACEMENT_3D ( 'NONE', #1225, #163, #371 ) ;
#1108 = CARTESIAN_POINT ( 'NONE',  ( 7.000000000000007994, -20.00000000000000355, -8.000000000000000000 ) ) ;
#1109 = ORIENTED_EDGE ( 'NONE', *, *, #971, .F. ) ;
#1110 = EDGE_CURVE ( 'NONE', #21, #309, #812, .T. ) ;
#1111 = CARTESIAN_POINT ( 'NONE',  ( 7.000000000000007994, 19.99999999999999645, -8.000000000000000000 ) ) ;
#1112 = FACE_OUTER_BOUND ( 'NONE', #815, .T. ) ;
#1113 = CARTESIAN_POINT ( 'NONE',  ( 16.00000000000000000, 19.99999999999999645, -1.043576074647938778 ) ) ;
#1114 = VECTOR ( 'NONE', #783, 1000.000000000000000 ) ;
#1115 = CARTESIAN_POINT ( 'NONE',  ( 0.000000000000000000, -15.15605058592245591, -1.043576074647939000 ) ) ;
#1116 = AXIS2_PLACEMENT_3D ( 'NONE', #313, #1082, #955 ) ;
#1117 = ORIENTED_EDGE ( 'NONE', *, *, #504, .T. ) ;
#1118 = CIRCLE ( 'NONE', #871, 1.500000000000000444 ) ;
#1119 = FACE_BOUND ( 'NONE', #1151, .T. ) ;
#1120 = ADVANCED_FACE ( 'NONE', ( #62, #290 ), #385, .T. ) ;
#1121 = LINE ( 'NONE', #1344, #1255 ) ;
#1122 = FACE_BOUND ( 'NONE', #653, .T. ) ;
#1123 = VERTEX_POINT ( 'NONE', #492 ) ;
#1124 = CARTESIAN_POINT ( 'NONE',  ( 7.000000000000007994, 19.99999999999999645, -1.043576074647939000 ) ) ;
#1125 = AXIS2_PLACEMENT_3D ( 'NONE', #186, #283, #1371 ) ;
#1126 = LINE ( 'NONE', #707, #1186 ) ;
#1127 = ADVANCED_FACE ( 'NONE', ( #603 ), #1041, .F. ) ;
#1128 = PRODUCT_DEFINITION_FORMATION_WITH_SPECIFIED_SOURCE ( '任何', '', #1272, .NOT_KNOWN. ) ;
#1129 = EDGE_CURVE ( 'NONE', #267, #768, #369, .T. ) ;
#1130 = DIRECTION ( 'NONE',  ( 0.000000000000000000, 1.000000000000000000, 0.000000000000000000 ) ) ;
#1131 = FACE_OUTER_BOUND ( 'NONE', #84, .T. ) ;
#1132 = CARTESIAN_POINT ( 'NONE',  ( 16.00000000000000000, -20.00000000000000355, -1.043576074647938778 ) ) ;
#1133 = SURFACE_SIDE_STYLE ('',( #1016 ) ) ;
#1134 = PRODUCT_DEFINITION_CONTEXT ( 'detailed design', #658, 'design' ) ;
#1135 = DIRECTION ( 'NONE',  ( 0.000000000000000000, 1.000000000000000000, -0.000000000000000000 ) ) ;
#1136 = CYLINDRICAL_SURFACE ( 'NONE', #1154, 1.000000000000000000 ) ;
#1137 = EDGE_CURVE ( 'NONE', #779, #714, #597, .T. ) ;
#1138 = DIRECTION ( 'NONE',  ( 0.000000000000000000, 0.000000000000000000, -1.000000000000000000 ) ) ;
#1139 = VECTOR ( 'NONE', #614, 1000.000000000000000 ) ;
#1140 = VECTOR ( 'NONE', #1029, 1000.000000000000000 ) ;
#1141 = VERTEX_POINT ( 'NONE', #1352 ) ;
#1142 = DIRECTION ( 'NONE',  ( 1.790608579576956557E-16, 1.000000000000000000, 0.000000000000000000 ) ) ;
#1143 = VERTEX_POINT ( 'NONE', #510 ) ;
#1144 = CARTESIAN_POINT ( 'NONE',  ( 16.00000000000000711, 17.00000000000000000, -8.000000000000000000 ) ) ;
#1145 = EDGE_CURVE ( 'NONE', #589, #1168, #925, .T. ) ;
#1146 = EDGE_LOOP ( 'NONE', ( #240, #1033, #1071, #35, #218, #577, #87, #631 ) ) ;
#1147 = EDGE_CURVE ( 'NONE', #567, #1363, #393, .T. ) ;
#1148 = EDGE_LOOP ( 'NONE', ( #676, #418, #731, #29 ) ) ;
#1149 = CARTESIAN_POINT ( 'NONE',  ( 16.00000000000000000, -20.00000000000000355, -8.000000000000000000 ) ) ;
#1150 = AXIS2_PLACEMENT_3D ( 'NONE', #314, #645, #948 ) ;
#1151 = EDGE_LOOP ( 'NONE', ( #391, #571 ) ) ;
#1152 = CARTESIAN_POINT ( 'NONE',  ( -11.68949879999996710, -20.00000000000000711, -3.499999999999999112 ) ) ;
#1153 = ORIENTED_EDGE ( 'NONE', *, *, #97, .F. ) ;
#1154 = AXIS2_PLACEMENT_3D ( 'NONE', #1355, #1018, #468 ) ;
#1155 = ADVANCED_FACE ( 'NONE', ( #374, #259 ), #1256, .T. ) ;
#1156 = DIRECTION ( 'NONE',  ( 0.000000000000000000, 0.000000000000000000, 1.000000000000000000 ) ) ;
#1157 = CARTESIAN_POINT ( 'NONE',  ( 7.200000000000112976, 1.133929224898207133E-13, 2.000000000000000000 ) ) ;
#1158 = VERTEX_POINT ( 'NONE', #174 ) ;
#1159 = PRODUCT_DEFINITION_SHAPE ( 'NONE', 'NONE',  #260 ) ;
#1160 = CARTESIAN_POINT ( 'NONE',  ( 11.68949880000002572, 20.00000000000000000, -6.499999999999998224 ) ) ;
#1161 = EDGE_LOOP ( 'NONE', ( #1212, #519 ) ) ;
#1162 = ORIENTED_EDGE ( 'NONE', *, *, #1056, .T. ) ;
#1163 = CIRCLE ( 'NONE', #666, 0.9999999999999991118 ) ;
#1164 = FACE_OUTER_BOUND ( 'NONE', #813, .T. ) ;
#1165 = FACE_OUTER_BOUND ( 'NONE', #1294, .T. ) ;
#1166 = VERTEX_POINT ( 'NONE', #914 ) ;
#1167 = CARTESIAN_POINT ( 'NONE',  ( 7.000000000000007994, 17.00000000000000000, -8.000000000000000000 ) ) ;
#1168 = VERTEX_POINT ( 'NONE', #57 ) ;
#1169 = VERTEX_POINT ( 'NONE', #700 ) ;
#1170 = CARTESIAN_POINT ( 'NONE',  ( 7.000000000000010658, -1.253426005703871463E-15, -1.043576074647939000 ) ) ;
#1171 = ORIENTED_EDGE ( 'NONE', *, *, #1110, .T. ) ;
#1172 = LINE ( 'NONE', #1160, #1020 ) ;
#1173 = EDGE_CURVE ( 'NONE', #185, #514, #1126, .T. ) ;
#1174 = VECTOR ( 'NONE', #20, 1000.000000000000000 ) ;
#1175 = ORIENTED_EDGE ( 'NONE', *, *, #937, .T. ) ;
#1176 = CYLINDRICAL_SURFACE ( 'NONE', #297, 1.500000000000000444 ) ;
#1177 = MANIFOLD_SOLID_BREP ( '切除-拉伸5', #482 ) ;
#1178 = AXIS2_PLACEMENT_3D ( 'NONE', #305, #638, #1265 ) ;
#1179 = DIRECTION ( 'NONE',  ( 0.000000000000000000, -0.000000000000000000, 1.000000000000000000 ) ) ;
#1180 = ORIENTED_EDGE ( 'NONE', *, *, #53, .F. ) ;
#1181 = CARTESIAN_POINT ( 'NONE',  ( 16.00000000000000000, 19.99999999999999645, 2.000000000000000000 ) ) ;
#1182 = ORIENTED_EDGE ( 'NONE', *, *, #562, .F. ) ;
#1183 = DIRECTION ( 'NONE',  ( 1.000000000000000000, 0.000000000000000000, 0.000000000000000000 ) ) ;
#1184 = DIRECTION ( 'NONE',  ( 1.790608579576956557E-16, 1.000000000000000000, 0.000000000000000000 ) ) ;
#1185 = ORIENTED_EDGE ( 'NONE', *, *, #142, .T. ) ;
#1186 = VECTOR ( 'NONE', #1246, 1000.000000000000000 ) ;
#1187 = DIRECTION ( 'NONE',  ( 0.000000000000000000, 0.000000000000000000, -1.000000000000000000 ) ) ;
#1188 = AXIS2_PLACEMENT_3D ( 'NONE', #200, #956, #1291 ) ;
#1189 = ORIENTED_EDGE ( 'NONE', *, *, #44, .T. ) ;
#1190 = PLANE ( 'NONE',  #623 ) ;
#1191 = DIRECTION ( 'NONE',  ( 1.000000000000000000, 0.000000000000000000, -0.000000000000000000 ) ) ;
#1192 = ADVANCED_FACE ( 'NONE', ( #500 ), #1176, .F. ) ;
#1193 = CARTESIAN_POINT ( 'NONE',  ( -7.000000000000009770, -20.00000000000000711, -1.043576074647939000 ) ) ;
#1194 = DIRECTION ( 'NONE',  ( 1.000000000000000000, 0.000000000000000000, 0.000000000000000000 ) ) ;
#1195 = ORIENTED_EDGE ( 'NONE', *, *, #868, .F. ) ;
#1196 = CARTESIAN_POINT ( 'NONE',  ( -1.000000000000000000, 7.200000000000000178, 2.000000000000000000 ) ) ;
#1197 = EDGE_LOOP ( 'NONE', ( #1055, #843, #1310, #560 ) ) ;
#1198 = CARTESIAN_POINT ( 'NONE',  ( -16.00000000000000000, -16.99999999999999645, -8.000000000000000000 ) ) ;
#1199 = DIRECTION ( 'NONE',  ( -0.000000000000000000, -0.000000000000000000, 1.000000000000000000 ) ) ;
#1200 = VECTOR ( 'NONE', #425, 1000.000000000000000 ) ;
#1201 = CARTESIAN_POINT ( 'NONE',  ( -16.00000000000000000, -20.00000000000001066, -1.043576074647938778 ) ) ;
#1202 = CARTESIAN_POINT ( 'NONE',  ( 11.68949880000002572, 20.00000000000000000, -4.999999999999997335 ) ) ;
#1203 = VERTEX_POINT ( 'NONE', #424 ) ;
#1204 = CARTESIAN_POINT ( 'NONE',  ( -7.000000000000013323, -1.253426005703871858E-15, -1.043576074647939000 ) ) ;
#1205 = CARTESIAN_POINT ( 'NONE',  ( -16.00000000000000000, 16.99999999999999645, -8.000000000000000000 ) ) ;
#1206 = CARTESIAN_POINT ( 'NONE',  ( 11.68949880000002572, 20.00000000000000000, -3.499999999999996891 ) ) ;
#1207 = EDGE_CURVE ( 'NONE', #706, #938, #744, .T. ) ;
#1208 = VECTOR ( 'NONE', #875, 1000.000000000000000 ) ;
#1209 = ADVANCED_FACE ( 'NONE', ( #1289 ), #759, .T. ) ;
#1210 = AXIS2_PLACEMENT_3D ( 'NONE', #762, #857, #654 ) ;
#1211 = VECTOR ( 'NONE', #540, 1000.000000000000000 ) ;
#1212 = ORIENTED_EDGE ( 'NONE', *, *, #330, .T. ) ;
#1213 = CARTESIAN_POINT ( 'NONE',  ( 16.00000000000000000, -20.00000000000000355, 2.000000000000000000 ) ) ;
#1214 = LINE ( 'NONE', #556, #1114 ) ;
#1215 = ORIENTED_EDGE ( 'NONE', *, *, #1220, .T. ) ;
#1216 = DIRECTION ( 'NONE',  ( 0.000000000000000000, 1.000000000000000000, 0.000000000000000000 ) ) ;
#1217 = EDGE_LOOP ( 'NONE', ( #545, #741, #784, #317 ) ) ;
#1218 = CARTESIAN_POINT ( 'NONE',  ( -6.199999999999887379, -1.142746681852067887E-13, -1.043576074647939000 ) ) ;
#1219 = CARTESIAN_POINT ( 'NONE',  ( 16.00000000000000000, 19.99999999999999645, -1.043576074647938778 ) ) ;
#1220 = EDGE_CURVE ( 'NONE', #1168, #1123, #516, .T. ) ;
#1221 = ORIENTED_EDGE ( 'NONE', *, *, #680, .T. ) ;
#1222 = CARTESIAN_POINT ( 'NONE',  ( 8.200000000000111200, 1.133929224898207133E-13, -1.043576074647939000 ) ) ;
#1223 = CARTESIAN_POINT ( 'NONE',  ( 11.68949880000002572, -20.00000000000000711, -3.499999999999996891 ) ) ;
#1224 = AXIS2_PLACEMENT_3D ( 'NONE', #814, #1243, #473 ) ;
#1225 = CARTESIAN_POINT ( 'NONE',  ( 11.68949880000002572, 20.00000000000000000, -4.999999999999997335 ) ) ;
#1226 = EDGE_CURVE ( 'NONE', #951, #811, #1385, .T. ) ;
#1227 = FACE_OUTER_BOUND ( 'NONE', #655, .T. ) ;
#1228 = EDGE_LOOP ( 'NONE', ( #463, #823, #923, #893 ) ) ;
#1229 = DIRECTION ( 'NONE',  ( -0.000000000000000000, -1.000000000000000000, -0.000000000000000000 ) ) ;
#1230 = AXIS2_PLACEMENT_3D ( 'NONE', #626, #396, #837 ) ;
#1231 = LINE ( 'NONE', #250, #821 ) ;
#1232 = CARTESIAN_POINT ( 'NONE',  ( -7.000000000000013323, -1.253426005703871858E-15, 2.000000000000000000 ) ) ;
#1233 = CIRCLE ( 'NONE', #687, 1.500000000000000444 ) ;
#1234 = ORIENTED_EDGE ( 'NONE', *, *, #523, .F. ) ;
#1235 = CARTESIAN_POINT ( 'NONE',  ( -6.199999999999887379, -1.142746681852067887E-13, 2.000000000000000000 ) ) ;
#1236 = EDGE_CURVE ( 'NONE', #1166, #979, #962, .T. ) ;
#1237 = VECTOR ( 'NONE', #1327, 1000.000000000000000 ) ;
#1238 = CARTESIAN_POINT ( 'NONE',  ( 16.00000000000000000, 19.99999999999999645, 2.000000000000000000 ) ) ;
#1239 = CARTESIAN_POINT ( 'NONE',  ( -7.000000000000010658, 19.99999999999999289, -8.000000000000000000 ) ) ;
#1240 = DIRECTION ( 'NONE',  ( 0.000000000000000000, 0.000000000000000000, -1.000000000000000000 ) ) ;
#1241 = CARTESIAN_POINT ( 'NONE',  ( -11.68949879999996710, -20.00000000000000711, -5.000000000000000000 ) ) ;
#1242 = CARTESIAN_POINT ( 'NONE',  ( -11.68949879999996710, 20.00000000000000000, -3.499999999999999556 ) ) ;
#1243 = DIRECTION ( 'NONE',  ( -1.000000000000000000, 0.000000000000000000, 0.000000000000000000 ) ) ;
#1244 = DIRECTION ( 'NONE',  ( 0.000000000000000000, 0.000000000000000000, 1.000000000000000000 ) ) ;
#1245 = ORIENTED_EDGE ( 'NONE', *, *, #1226, .F. ) ;
#1246 = DIRECTION ( 'NONE',  ( -1.000000000000000000, -0.000000000000000000, -0.000000000000000000 ) ) ;
#1247 = ORIENTED_EDGE ( 'NONE', *, *, #1322, .T. ) ;
#1248 =( NAMED_UNIT ( * ) SI_UNIT ( $, .STERADIAN. ) SOLID_ANGLE_UNIT ( ) );
#1249 = EDGE_CURVE ( 'NONE', #397, #1203, #410, .T. ) ;
#1250 = LINE ( 'NONE', #1013, #423 ) ;
#1251 = EDGE_CURVE ( 'NONE', #185, #94, #434, .T. ) ;
#1252 = VECTOR ( 'NONE', #652, 1000.000000000000000 ) ;
#1253 = AXIS2_PLACEMENT_3D ( 'NONE', #234, #1216, #19 ) ;
#1254 = EDGE_LOOP ( 'NONE', ( #377, #621, #816, #992 ) ) ;
#1255 = VECTOR ( 'NONE', #1348, 1000.000000000000000 ) ;
#1256 = PLANE ( 'NONE',  #122 ) ;
#1257 = ORIENTED_EDGE ( 'NONE', *, *, #758, .F. ) ;
#1258 = DIRECTION ( 'NONE',  ( -0.000000000000000000, 0.000000000000000000, 1.000000000000000000 ) ) ;
#1259 = ADVANCED_FACE ( 'NONE', ( #848 ), #872, .F. ) ;
#1260 = ORIENTED_EDGE ( 'NONE', *, *, #1316, .T. ) ;
#1261 = DIRECTION ( 'NONE',  ( 0.000000000000000000, -1.000000000000000000, 0.000000000000000000 ) ) ;
#1262 = PLANE ( 'NONE',  #278 ) ;
#1263 = AXIS2_PLACEMENT_3D ( 'NONE', #1157, #1179, #1378 ) ;
#1264 = EDGE_LOOP ( 'NONE', ( #384, #528 ) ) ;
#1265 = DIRECTION ( 'NONE',  ( 0.000000000000000000, 0.000000000000000000, -1.000000000000000000 ) ) ;
#1266 = EDGE_CURVE ( 'NONE', #107, #1169, #1306, .T. ) ;
#1267 = ORIENTED_EDGE ( 'NONE', *, *, #985, .T. ) ;
#1268 = DIRECTION ( 'NONE',  ( 1.000000000000000000, -0.000000000000000000, -0.000000000000000000 ) ) ;
#1269 = CARTESIAN_POINT ( 'NONE',  ( 1.000000000000000000, 7.200000000000000178, 2.000000000000000000 ) ) ;
#1270 = ORIENTED_EDGE ( 'NONE', *, *, #662, .F. ) ;
#1271 = SHAPE_DEFINITION_REPRESENTATION ( #1159, #96 ) ;
#1272 = PRODUCT ( '3.joint middle2', '3.joint middle2', '', ( #836 ) ) ;
#1273 = CARTESIAN_POINT ( 'NONE',  ( 16.00000000000000000, -20.00000000000000355, 2.000000000000000000 ) ) ;
#1274 = EDGE_LOOP ( 'NONE', ( #1369, #1270 ) ) ;
#1275 = ORIENTED_EDGE ( 'NONE', *, *, #1251, .T. ) ;
#1276 = VECTOR ( 'NONE', #980, 1000.000000000000000 ) ;
#1277 = AXIS2_PLACEMENT_3D ( 'NONE', #804, #810, #1240 ) ;
#1278 = DIRECTION ( 'NONE',  ( 1.000000000000000000, 0.000000000000000000, 0.000000000000000000 ) ) ;
#1279 = EDGE_LOOP ( 'NONE', ( #191, #134, #1075, #324 ) ) ;
#1280 = EDGE_CURVE ( 'NONE', #375, #190, #841, .T. ) ;
#1281 = CYLINDRICAL_SURFACE ( 'NONE', #1178, 1.500000000000000444 ) ;
#1282 = VECTOR ( 'NONE', #983, 1000.000000000000000 ) ;
#1283 = ORIENTED_EDGE ( 'NONE', *, *, #97, .T. ) ;
#1284 = DIRECTION ( 'NONE',  ( 0.000000000000000000, -1.000000000000000000, 0.000000000000000000 ) ) ;
#1285 = DIRECTION ( 'NONE',  ( -0.000000000000000000, -0.000000000000000000, 1.000000000000000000 ) ) ;
#1286 = ORIENTED_EDGE ( 'NONE', *, *, #564, .T. ) ;
#1287 = CYLINDRICAL_SURFACE ( 'NONE', #120, 1.500000000000000444 ) ;
#1288 = ORIENTED_EDGE ( 'NONE', *, *, #300, .T. ) ;
#1289 = FACE_OUTER_BOUND ( 'NONE', #296, .T. ) ;
#1290 = VECTOR ( 'NONE', #1338, 1000.000000000000000 ) ;
#1291 = DIRECTION ( 'NONE',  ( 1.000000000000000000, 0.000000000000000000, -0.000000000000000000 ) ) ;
#1292 = ORIENTED_EDGE ( 'NONE', *, *, #1147, .F. ) ;
#1293 = CARTESIAN_POINT ( 'NONE',  ( 8.200000000000111200, 1.133929224898207133E-13, -1.043576074647939000 ) ) ;
#1294 = EDGE_LOOP ( 'NONE', ( #1221, #633, #167, #1275, #1180, #1077 ) ) ;
#1295 = ADVANCED_FACE ( 'NONE', ( #1164 ), #739, .F. ) ;
#1296 = DIRECTION ( 'NONE',  ( 1.790608579576960255E-16, 1.000000000000000000, 0.000000000000000000 ) ) ;
#1297 = LINE ( 'NONE', #1115, #31 ) ;
#1298 = ORIENTED_EDGE ( 'NONE', *, *, #1173, .F. ) ;
#1299 = VECTOR ( 'NONE', #576, 1000.000000000000000 ) ;
#1300 = DIRECTION ( 'NONE',  ( 0.000000000000000000, 0.000000000000000000, -1.000000000000000000 ) ) ;
#1301 = AXIS2_PLACEMENT_3D ( 'NONE', #1366, #180, #411 ) ;
#1302 = ORIENTED_EDGE ( 'NONE', *, *, #80, .F. ) ;
#1303 = FACE_OUTER_BOUND ( 'NONE', #235, .T. ) ;
#1304 = DIRECTION ( 'NONE',  ( 1.000000000000000000, 0.000000000000000000, 0.000000000000000000 ) ) ;
#1305 = EDGE_CURVE ( 'NONE', #567, #194, #205, .T. ) ;
#1306 = LINE ( 'NONE', #199, #1002 ) ;
#1307 = CARTESIAN_POINT ( 'NONE',  ( 2.267858449796413762E-13, -7.200000000000000178, 2.000000000000000000 ) ) ;
#1308 = ORIENTED_EDGE ( 'NONE', *, *, #971, .T. ) ;
#1309 = DIRECTION ( 'NONE',  ( 0.000000000000000000, -1.000000000000000000, 0.000000000000000000 ) ) ;
#1310 = ORIENTED_EDGE ( 'NONE', *, *, #419, .T. ) ;
#1311 = CARTESIAN_POINT ( 'NONE',  ( 0.000000000000000000, -15.15605058592245591, -1.043576074647939000 ) ) ;
#1312 = DIRECTION ( 'NONE',  ( 0.000000000000000000, -0.000000000000000000, 1.000000000000000000 ) ) ;
#1313 = EDGE_CURVE ( 'NONE', #839, #1049, #1064, .T. ) ;
#1314 = MECHANICAL_DESIGN_GEOMETRIC_PRESENTATION_REPRESENTATION (  '', ( #491 ), #86 ) ;
#1315 = SURFACE_STYLE_USAGE ( .BOTH. , #659 ) ;
#1316 = EDGE_CURVE ( 'NONE', #1341, #743, #1325, .T. ) ;
#1317 = EDGE_LOOP ( 'NONE', ( #1195, #1292, #860, #1379 ) ) ;
#1318 = LINE ( 'NONE', #1213, #1025 ) ;
#1319 = LINE ( 'NONE', #319, #281 ) ;
#1320 = ORIENTED_EDGE ( 'NONE', *, *, #1280, .T. ) ;
#1321 = CARTESIAN_POINT ( 'NONE',  ( 7.000000000000007994, -16.99999999999999645, -8.000000000000000000 ) ) ;
#1322 = EDGE_CURVE ( 'NONE', #775, #991, #1090, .T. ) ;
#1323 = AXIS2_PLACEMENT_3D ( 'NONE', #168, #179, #379 ) ;
#1324 = AXIS2_PLACEMENT_3D ( 'NONE', #1307, #332, #767 ) ;
#1325 = CIRCLE ( 'NONE', #383, 1.500000000000000444 ) ;
#1326 = ORIENTED_EDGE ( 'NONE', *, *, #1383, .F. ) ;
#1327 = DIRECTION ( 'NONE',  ( -1.000000000000000000, -0.000000000000000000, -0.000000000000000000 ) ) ;
#1328 = DIRECTION ( 'NONE',  ( 1.000000000000000000, 0.000000000000000000, 0.000000000000000000 ) ) ;
#1329 = VERTEX_POINT ( 'NONE', #129 ) ;
#1330 =( NAMED_UNIT ( * ) SI_UNIT ( $, .STERADIAN. ) SOLID_ANGLE_UNIT ( ) );
#1331 = CARTESIAN_POINT ( 'NONE',  ( 11.68949880000002572, -16.99999999999999645, -4.999999999999997335 ) ) ;
#1332 = LINE ( 'NONE', #243, #1290 ) ;
#1333 = VECTOR ( 'NONE', #1184, 1000.000000000000000 ) ;
#1334 = FACE_OUTER_BOUND ( 'NONE', #91, .T. ) ;
#1335 = VERTEX_POINT ( 'NONE', #464 ) ;
#1336 = CARTESIAN_POINT ( 'NONE',  ( 16.00000000000000000, -20.00000000000000355, -8.000000000000000000 ) ) ;
#1337 = CARTESIAN_POINT ( 'NONE',  ( 1.500000000000000222, 0.000000000000000000, -1.043576074647939000 ) ) ;
#1338 = DIRECTION ( 'NONE',  ( -1.000000000000000000, 0.000000000000000000, 0.000000000000000000 ) ) ;
#1339 = EDGE_CURVE ( 'NONE', #625, #866, #734, .T. ) ;
#1340 = DIRECTION ( 'NONE',  ( 0.000000000000000000, -0.000000000000000000, -1.000000000000000000 ) ) ;
#1341 = VERTEX_POINT ( 'NONE', #449 ) ;
#1342 = CARTESIAN_POINT ( 'NONE',  ( 7.000000000000010658, -1.253426005703871463E-15, 2.000000000000000000 ) ) ;
#1343 = AXIS2_PLACEMENT_3D ( 'NONE', #310, #742, #71 ) ;
#1344 = CARTESIAN_POINT ( 'NONE',  ( -1.500000000000000222, 1.836970198721030181E-16, -1.043576074647939000 ) ) ;
#1345 = CARTESIAN_POINT ( 'NONE',  ( 16.00000000000000000, -20.00000000000000355, -1.043576074647938778 ) ) ;
#1346 = FACE_OUTER_BOUND ( 'NONE', #1043, .T. ) ;
#1347 = DIRECTION ( 'NONE',  ( 1.000000000000000000, 0.000000000000000000, 0.000000000000000000 ) ) ;
#1348 = DIRECTION ( 'NONE',  ( -0.000000000000000000, -0.000000000000000000, 1.000000000000000000 ) ) ;
#1349 = DIRECTION ( 'NONE',  ( 1.000000000000000000, 0.000000000000000000, 0.000000000000000000 ) ) ;
#1350 = FACE_OUTER_BOUND ( 'NONE', #1036, .T. ) ;
#1351 = EDGE_CURVE ( 'NONE', #275, #565, #894, .T. ) ;
#1352 = CARTESIAN_POINT ( 'NONE',  ( 6.200000000000112976, 1.135153871697354611E-13, 2.000000000000000000 ) ) ;
#1353 = ORIENTED_EDGE ( 'NONE', *, *, #774, .F. ) ;
#1354 = EDGE_CURVE ( 'NONE', #187, #775, #885, .T. ) ;
#1355 = CARTESIAN_POINT ( 'NONE',  ( 2.267858449796413762E-13, -7.200000000000000178, -1.043576074647939000 ) ) ;
#1356 = AXIS2_PLACEMENT_3D ( 'NONE', #176, #1258, #735 ) ;
#1357 = ORIENTED_EDGE ( 'NONE', *, *, #748, .T. ) ;
#1358 = ORIENTED_EDGE ( 'NONE', *, *, #483, .T. ) ;
#1359 = CARTESIAN_POINT ( 'NONE',  ( 0.000000000000000000, 0.000000000000000000, -1.043576074647939000 ) ) ;
#1360 = ORIENTED_EDGE ( 'NONE', *, *, #634, .T. ) ;
#1361 = EDGE_CURVE ( 'NONE', #714, #779, #711, .T. ) ;
#1362 = DIRECTION ( 'NONE',  ( 0.000000000000000000, 0.000000000000000000, 1.000000000000000000 ) ) ;
#1363 = VERTEX_POINT ( 'NONE', #1336 ) ;
#1364 = AXIS2_PLACEMENT_3D ( 'NONE', #151, #242, #37 ) ;
#1365 = DIRECTION ( 'NONE',  ( -1.000000000000000000, 0.000000000000000000, 0.000000000000000000 ) ) ;
#1366 = CARTESIAN_POINT ( 'NONE',  ( -7.199999999999887379, -1.142746681852067887E-13, 2.000000000000000000 ) ) ;
#1367 = ORIENTED_EDGE ( 'NONE', *, *, #852, .T. ) ;
#1368 = LINE ( 'NONE', #942, #2 ) ;
#1369 = ORIENTED_EDGE ( 'NONE', *, *, #368, .F. ) ;
#1370 = DIRECTION ( 'NONE',  ( 1.000000000000000000, 2.168404344971008868E-16, 0.000000000000000000 ) ) ;
#1371 = DIRECTION ( 'NONE',  ( 1.000000000000000000, 0.000000000000000000, 0.000000000000000000 ) ) ;
#1372 = EDGE_LOOP ( 'NONE', ( #67, #1032, #637, #223 ) ) ;
#1373 = DIRECTION ( 'NONE',  ( 1.000000000000000000, 0.000000000000000000, 0.000000000000000000 ) ) ;
#1374 = ORIENTED_EDGE ( 'NONE', *, *, #1361, .T. ) ;
#1375 = ADVANCED_FACE ( 'NONE', ( #351 ), #443, .F. ) ;
#1376 = ORIENTED_EDGE ( 'NONE', *, *, #368, .T. ) ;
#1377 = DIRECTION ( 'NONE',  ( 0.000000000000000000, 0.000000000000000000, 1.000000000000000000 ) ) ;
#1378 = DIRECTION ( 'NONE',  ( 1.000000000000000000, 0.000000000000000000, 0.000000000000000000 ) ) ;
#1379 = ORIENTED_EDGE ( 'NONE', *, *, #36, .F. ) ;
#1380 =( NAMED_UNIT ( * ) PLANE_ANGLE_UNIT ( ) SI_UNIT ( $, .RADIAN. ) );
#1381 = CARTESIAN_POINT ( 'NONE',  ( 7.000000000000007994, -15.15605058592245591, 2.000000000000000000 ) ) ;
#1382 = EDGE_LOOP ( 'NONE', ( #761, #400 ) ) ;
#1383 = EDGE_CURVE ( 'NONE', #444, #542, #226, .T. ) ;
#1384 = VECTOR ( 'NONE', #1142, 1000.000000000000000 ) ;
#1385 = LINE ( 'NONE', #213, #820 ) ;
#1386 = CYLINDRICAL_SURFACE ( 'NONE', #786, 1.500000000000000222 ) ;
#1387 = EDGE_LOOP ( 'NONE', ( #78, #1153, #999, #1052, #1048, #311, #746, #874 ) ) ;
#1388 = CARTESIAN_POINT ( 'NONE',  ( -8.199999999999885603, -1.141522035052920284E-13, -1.043576074647939000 ) ) ;
#1389 = VERTEX_POINT ( 'NONE', #1222 ) ;
#1390 = CARTESIAN_POINT ( 'NONE',  ( 11.68949880000002572, -16.99999999999999645, -4.999999999999997335 ) ) ;
#1391 = ADVANCED_FACE ( 'NONE', ( #1119, #241 ), #880, .T. ) ;
#1392 = PLANE ( 'NONE',  #1150 ) ;
#1393 = EDGE_LOOP ( 'NONE', ( #392, #137, #628, #1003 ) ) ;
#1394 = AXIS2_PLACEMENT_3D ( 'NONE', #291, #1285, #1278 ) ;
#1395 = EDGE_CURVE ( 'NONE', #811, #749, #766, .T. ) ;
#1396 = CARTESIAN_POINT ( 'NONE',  ( 11.68949880000002572, 20.00000000000000000, -4.999999999999997335 ) ) ;
ENDSEC;
END-ISO-10303-21;
