ISO-10303-21;
HEADER;
FILE_DESCRIPTION (( 'STEP AP214' ),
    '1' );
FILE_NAME ('30haojiazhuagaiwuchi.STEP',
    '2026-07-29T08:03:40',
    ( '' ),
    ( '' ),
    'SwSTEP 2.0',
    'SolidWorks 2020',
    '' );
FILE_SCHEMA (( 'AUTOMOTIVE_DESIGN' ));
ENDSEC;

DATA;
#1 = ORIENTED_EDGE ( 'NONE', *, *, #455, .F. ) ;
#2 = PRESENTATION_STYLE_ASSIGNMENT (( #605 ) ) ;
#3 = ORIENTED_EDGE ( 'NONE', *, *, #278, .F. ) ;
#4 = FACE_BOUND ( 'NONE', #211, .T. ) ;
#5 = EDGE_CURVE ( 'NONE', #110, #598, #89, .T. ) ;
#6 = FILL_AREA_STYLE_COLOUR ( '', #486 ) ;
#7 = EDGE_CURVE ( 'NONE', #281, #473, #129, .T. ) ;
#8 = CARTESIAN_POINT ( 'NONE',  ( 97.75698220773774949, -16.70700446927740757, 37.66666666666667140 ) ) ;
#9 = ORIENTED_EDGE ( 'NONE', *, *, #310, .T. ) ;
#10 = FACE_OUTER_BOUND ( 'NONE', #402, .T. ) ;
#11 = DIRECTION ( 'NONE',  ( -0.000000000000000000, -0.000000000000000000, -1.000000000000000000 ) ) ;
#12 = DIRECTION ( 'NONE',  ( -0.000000000000000000, -0.000000000000000000, -1.000000000000000000 ) ) ;
#13 = DIRECTION ( 'NONE',  ( -0.000000000000000000, -0.000000000000000000, -1.000000000000000000 ) ) ;
#14 = EDGE_CURVE ( 'NONE', #491, #110, #268, .T. ) ;
#15 = CARTESIAN_POINT ( 'NONE',  ( 23.06786753708764692, 39.11551291291374355, 110.0000000000000000 ) ) ;
#16 = CARTESIAN_POINT ( 'NONE',  ( 18.59779784051961116, 27.44210394604274228, -1.371604415045033344E-15 ) ) ;
#17 = DIRECTION ( 'NONE',  ( -1.000000000000000000, 0.000000000000000000, 0.000000000000000000 ) ) ;
#18 = DIRECTION ( 'NONE',  ( -0.000000000000000000, -0.000000000000000000, -1.000000000000000000 ) ) ;
#19 = CARTESIAN_POINT ( 'NONE',  ( 103.2604427736006869, -18.12694235588972802, 107.0000000000000000 ) ) ;
#20 = EDGE_CURVE ( 'NONE', #516, #253, #448, .T. ) ;
#21 = FACE_BOUND ( 'NONE', #41, .T. ) ;
#22 = FACE_OUTER_BOUND ( 'NONE', #494, .T. ) ;
#23 = ORIENTED_EDGE ( 'NONE', *, *, #247, .F. ) ;
#24 = AXIS2_PLACEMENT_3D ( 'NONE', #169, #576, #339 ) ;
#25 = DIRECTION ( 'NONE',  ( 0.000000000000000000, 0.000000000000000000, 1.000000000000000000 ) ) ;
#26 = PRODUCT_DEFINITION_FORMATION_WITH_SPECIFIED_SOURCE ( 'ÈÎºÎ', '', #153, .NOT_KNOWN. ) ;
#27 = EDGE_LOOP ( 'NONE', ( #286, #242, #297, #466 ) ) ;
#28 = CARTESIAN_POINT ( 'NONE',  ( 102.9250366337559512, -18.23963293061289193, 55.00000000000000711 ) ) ;
#29 = DIRECTION ( 'NONE',  ( -0.3420201433256628287, -0.9396926207859104263, -0.000000000000000000 ) ) ;
#30 = PLANE ( 'NONE',  #611 ) ;
#31 = ADVANCED_FACE ( 'NONE', ( #632 ), #537, .F. ) ;
#32 = ORIENTED_EDGE ( 'NONE', *, *, #534, .F. ) ;
#33 = LINE ( 'NONE', #391, #79 ) ;
#34 = ORIENTED_EDGE ( 'NONE', *, *, #522, .T. ) ;
#35 = CARTESIAN_POINT ( 'NONE',  ( 26.06786753708761850, 39.11551291291374355, 3.000000000000016431 ) ) ;
#36 = EDGE_CURVE ( 'NONE', #253, #475, #144, .T. ) ;
#37 = CARTESIAN_POINT ( 'NONE',  ( 48.04365848832858887, 49.68656181841879516, 107.0000000000000000 ) ) ;
#38 = AXIS2_PLACEMENT_3D ( 'NONE', #139, #574, #568 ) ;
#39 = AXIS2_PLACEMENT_3D ( 'NONE', #263, #259, #75 ) ;
#40 = DIRECTION ( 'NONE',  ( 1.000000000000000000, 0.000000000000000000, 0.000000000000000000 ) ) ;
#41 = EDGE_LOOP ( 'NONE', ( #659, #429 ) ) ;
#42 = VERTEX_POINT ( 'NONE', #205 ) ;
#43 = DIRECTION ( 'NONE',  ( 0.000000000000000000, -0.000000000000000000, 1.000000000000000000 ) ) ;
#44 = EDGE_CURVE ( 'NONE', #233, #779, #313, .T. ) ;
#45 = ORIENTED_EDGE ( 'NONE', *, *, #679, .T. ) ;
#46 = ORIENTED_EDGE ( 'NONE', *, *, #497, .T. ) ;
#47 = EDGE_CURVE ( 'NONE', #779, #406, #49, .T. ) ;
#48 = EDGE_LOOP ( 'NONE', ( #274, #94, #3, #299 ) ) ;
#49 = CIRCLE ( 'NONE', #38, 106.4338034517890463 ) ;
#50 = SURFACE_SIDE_STYLE ('',( #595 ) ) ;
#51 = CIRCLE ( 'NONE', #545, 1.499999999999987566 ) ;
#52 = CARTESIAN_POINT ( 'NONE',  ( 21.59779784051959339, 27.44210394604274228, -1.371604415045033344E-15 ) ) ;
#53 = EDGE_LOOP ( 'NONE', ( #194, #223, #363, #335, #155 ) ) ;
#54 = CARTESIAN_POINT ( 'NONE',  ( 81.89047047221151843, 43.31172801060417754, 107.0000000000000000 ) ) ;
#55 = DIRECTION ( 'NONE',  ( 0.9444967967061591585, 0.3285206249412726542, -0.000000000000000000 ) ) ;
#56 = VERTEX_POINT ( 'NONE', #16 ) ;
#57 = CARTESIAN_POINT ( 'NONE',  ( 55.32600959564390308, 40.25838502612784708, 106.9999999999999858 ) ) ;
#58 = FACE_OUTER_BOUND ( 'NONE', #654, .T. ) ;
#59 = ADVANCED_FACE ( 'NONE', ( #747, #276, #258 ), #209, .T. ) ;
#60 = ORIENTED_EDGE ( 'NONE', *, *, #257, .T. ) ;
#61 = VECTOR ( 'NONE', #29, 1000.000000000000227 ) ;
#62 = AXIS2_PLACEMENT_3D ( 'NONE', #140, #613, #431 ) ;
#63 = DIRECTION ( 'NONE',  ( 0.3285206249412724322, -0.9444967967061592695, -0.000000000000000000 ) ) ;
#64 = AXIS2_PLACEMENT_3D ( 'NONE', #781, #443, #374 ) ;
#65 = VERTEX_POINT ( 'NONE', #750 ) ;
#66 = DIRECTION ( 'NONE',  ( -0.000000000000000000, 0.000000000000000000, -1.000000000000000000 ) ) ;
#67 = CARTESIAN_POINT ( 'NONE',  ( 103.2604427736006585, -18.12694235588972802, 107.0000000000000000 ) ) ;
#68 = ORIENTED_EDGE ( 'NONE', *, *, #290, .F. ) ;
#69 = CARTESIAN_POINT ( 'NONE',  ( 103.2604427736006585, -18.12694235588972802, 110.0000000000000000 ) ) ;
#70 = PRODUCT_DEFINITION_SHAPE ( 'NONE', 'NONE',  #647 ) ;
#71 = DIRECTION ( 'NONE',  ( 1.000000000000000000, 0.000000000000000000, 0.000000000000000000 ) ) ;
#72 =( BOUNDED_SURFACE ( )  B_SPLINE_SURFACE ( 3, 1, ( 
 ( #54, #602 ),
 ( #121, #769 ),
 ( #57, #780 ),
 ( #721, #423 ) ),
 .UNSPECIFIED., .F., .F., .F. ) 
 B_SPLINE_SURFACE_WITH_KNOTS ( ( 4, 4 ),
 ( 2, 2 ),
 ( 0.000000000000000000, 1.000000000000000000 ),
 ( 0.000000000000000000, 1.000000000000000000 ),
 .UNSPECIFIED. ) 
 GEOMETRIC_REPRESENTATION_ITEM ( )  RATIONAL_B_SPLINE_SURFACE ( (
 ( 1.000000000000000000, 1.000000000000000000),
 ( 0.8492200102025375674, 0.8492200102025375674),
 ( 0.8492200102025375674, 0.8492200102025375674),
 ( 1.000000000000000000, 1.000000000000000000) ) ) 
 REPRESENTATION_ITEM ( '' )  SURFACE ( )  );
#73 = DIRECTION ( 'NONE',  ( 0.000000000000000000, -0.000000000000000000, 1.000000000000000000 ) ) ;
#74 = EDGE_CURVE ( 'NONE', #489, #56, #691, .T. ) ;
#75 = DIRECTION ( 'NONE',  ( -0.3285206249412725987, 0.9444967967061590475, 0.000000000000000000 ) ) ;
#76 = CIRCLE ( 'NONE', #315, 1.499999999999987566 ) ;
#77 = CARTESIAN_POINT ( 'NONE',  ( 99.14363901475020668, -21.51087612655197390, 3.000000000000016431 ) ) ;
#78 = CARTESIAN_POINT ( 'NONE',  ( 20.09779784051960405, 27.44210394604274228, 3.000000000000016431 ) ) ;
#79 = VECTOR ( 'NONE', #166, 1000.000000000000114 ) ;
#80 = EDGE_CURVE ( 'NONE', #238, #348, #376, .T. ) ;
#81 = CARTESIAN_POINT ( 'NONE',  ( 48.04365848832858887, 49.68656181841879516, 110.0000000000000000 ) ) ;
#82 = EDGE_LOOP ( 'NONE', ( #32, #279 ) ) ;
#83 = DIRECTION ( 'NONE',  ( 1.000000000000000000, 0.000000000000000000, 0.000000000000000000 ) ) ;
#84 = CARTESIAN_POINT ( 'NONE',  ( 99.14363901475020668, -21.51087612655197390, 3.000000000000016431 ) ) ;
#85 = DIRECTION ( 'NONE',  ( 1.000000000000000000, 0.000000000000000000, 0.000000000000000000 ) ) ;
#86 = DIRECTION ( 'NONE',  ( 0.000000000000000000, 0.000000000000000000, 1.000000000000000000 ) ) ;
#87 = EDGE_LOOP ( 'NONE', ( #403, #673, #737, #773, #663, #575, #589, #452 ) ) ;
#88 = LINE ( 'NONE', #333, #459 ) ;
#89 = LINE ( 'NONE', #19, #416 ) ;
#90 = VECTOR ( 'NONE', #292, 1000.000000000000000 ) ;
#91 = CARTESIAN_POINT ( 'NONE',  ( 3.564517285038907968, 1.022017551410872249, 107.0000000000000000 ) ) ;
#92 = AXIS2_PLACEMENT_3D ( 'NONE', #198, #370, #441 ) ;
#93 = EDGE_CURVE ( 'NONE', #571, #777, #734, .T. ) ;
#94 = ORIENTED_EDGE ( 'NONE', *, *, #80, .F. ) ;
#95 = CARTESIAN_POINT ( 'NONE',  ( 48.04365848832858887, 49.68656181841879516, 107.0000000000000000 ) ) ;
#96 = CARTESIAN_POINT ( 'NONE',  ( 3.564517285038907968, 1.022017551410872249, 3.000000000000016431 ) ) ;
#97 = EDGE_CURVE ( 'NONE', #344, #406, #711, .T. ) ;
#98 = EDGE_LOOP ( 'NONE', ( #579, #46 ) ) ;
#99 = DIRECTION ( 'NONE',  ( -0.000000000000000000, -0.000000000000000000, -1.000000000000000000 ) ) ;
#100 = DIRECTION ( 'NONE',  ( -0.000000000000000000, -0.000000000000000000, -1.000000000000000000 ) ) ;
#101 = CARTESIAN_POINT ( 'NONE',  ( 48.04365848832858887, 49.68656181841879516, 107.0000000000000000 ) ) ;
#102 = VECTOR ( 'NONE', #18, 1000.000000000000000 ) ;
#103 = ORIENTED_EDGE ( 'NONE', *, *, #657, .T. ) ;
#104 = MECHANICAL_DESIGN_GEOMETRIC_PRESENTATION_REPRESENTATION (  '', ( #145 ), #272 ) ;
#105 = VERTEX_POINT ( 'NONE', #15 ) ;
#106 = DIRECTION ( 'NONE',  ( -0.000000000000000000, -0.000000000000000000, -1.000000000000000000 ) ) ;
#107 = EDGE_CURVE ( 'NONE', #233, #557, #385, .T. ) ;
#108 = ORIENTED_EDGE ( 'NONE', *, *, #637, .T. ) ;
#109 = APPLICATION_PROTOCOL_DEFINITION ( 'draft international standard', 'automotive_design', 1998, #477 ) ;
#110 = VERTEX_POINT ( 'NONE', #67 ) ;
#111 = VERTEX_POINT ( 'NONE', #147 ) ;
#112 = FACE_OUTER_BOUND ( 'NONE', #291, .T. ) ;
#113 = CARTESIAN_POINT ( 'NONE',  ( 0.000000000000000000, 0.000000000000000000, 110.0000000000000000 ) ) ;
#114 = VERTEX_POINT ( 'NONE', #676 ) ;
#115 = DIRECTION ( 'NONE',  ( -0.000000000000000000, -0.000000000000000000, -1.000000000000000000 ) ) ;
#116 = EDGE_CURVE ( 'NONE', #42, #668, #667, .T. ) ;
#117 = VECTOR ( 'NONE', #275, 1000.000000000000000 ) ;
#118 = AXIS2_PLACEMENT_3D ( 'NONE', #482, #776, #783 ) ;
#119 = DIRECTION ( 'NONE',  ( 0.000000000000000000, 0.000000000000000000, 1.000000000000000000 ) ) ;
#120 = ORIENTED_EDGE ( 'NONE', *, *, #152, .F. ) ;
#121 = CARTESIAN_POINT ( 'NONE',  ( 68.61146039255046958, 37.75615406468585178, 106.9999999999999858 ) ) ;
#122 = EDGE_CURVE ( 'NONE', #473, #281, #770, .T. ) ;
#123 = DIRECTION ( 'NONE',  ( -0.000000000000000000, -0.000000000000000000, -1.000000000000000000 ) ) ;
#124 = ORIENTED_EDGE ( 'NONE', *, *, #578, .F. ) ;
#125 = CARTESIAN_POINT ( 'NONE',  ( 81.89047047221150422, 43.31172801060414912, 1.647987302177966740E-14 ) ) ;
#126 = CARTESIAN_POINT ( 'NONE',  ( 55.32687742377080298, 40.25842125447604047, 1.647987302177967371E-14 ) ) ;
#127 = ORIENTED_EDGE ( 'NONE', *, *, #412, .F. ) ;
#128 = PLANE ( 'NONE',  #485 ) ;
#129 = CIRCLE ( 'NONE', #293, 1.499999999999984013 ) ;
#130 = CARTESIAN_POINT ( 'NONE',  ( 103.2604427736006869, -18.12694235588972802, 107.0000000000000000 ) ) ;
#131 =( BOUNDED_CURVE ( )  B_SPLINE_CURVE ( 3, ( #237, #126, #245, #542 ),
 .UNSPECIFIED., .F., .T. ) 
 B_SPLINE_CURVE_WITH_KNOTS ( ( 4, 4 ),
 ( 3.389784888793770268, 4.761397300166679614 ),
 .UNSPECIFIED. ) 
 CURVE ( )  GEOMETRIC_REPRESENTATION_ITEM ( )  RATIONAL_B_SPLINE_CURVE ( ( 1.000000000000000000, 0.8492724872626716826, 0.8492724872626716826, 1.000000000000000000 ) ) 
 REPRESENTATION_ITEM ( '' )  );
#132 = ORIENTED_EDGE ( 'NONE', *, *, #44, .T. ) ;
#133 = CARTESIAN_POINT ( 'NONE',  ( 20.09779784051960405, 27.44210394604274228, 107.0000000000000000 ) ) ;
#134 = EDGE_CURVE ( 'NONE', #281, #612, #624, .T. ) ;
#135 = CARTESIAN_POINT ( 'NONE',  ( 81.89047047221153264, 43.31172801060416333, 107.0000000000000000 ) ) ;
#136 = EDGE_LOOP ( 'NONE', ( #357, #261, #327, #601 ) ) ;
#137 = DIRECTION ( 'NONE',  ( 0.000000000000000000, 0.000000000000000000, 1.000000000000000000 ) ) ;
#138 = DIRECTION ( 'NONE',  ( 0.000000000000000000, -0.000000000000000000, 1.000000000000000000 ) ) ;
#139 = CARTESIAN_POINT ( 'NONE',  ( 68.23955059720827876, 85.55186188631924438, 3.000000000000016431 ) ) ;
#140 = CARTESIAN_POINT ( 'NONE',  ( 24.56786753708763626, 39.11551291291374355, 107.0000000000000000 ) ) ;
#141 = AXIS2_PLACEMENT_3D ( 'NONE', #381, #11, #561 ) ;
#142 = CARTESIAN_POINT ( 'NONE',  ( 48.04365848832858887, 49.68656181841879516, 3.000000000000016431 ) ) ;
#143 =( GEOMETRIC_REPRESENTATION_CONTEXT ( 3 ) GLOBAL_UNCERTAINTY_ASSIGNED_CONTEXT ( ( #396 ) ) GLOBAL_UNIT_ASSIGNED_CONTEXT ( ( #490, #366, #235 ) ) REPRESENTATION_CONTEXT ( 'NONE', 'WORKASPACE' ) );
#144 = LINE ( 'NONE', #510, #392 ) ;
#145 = STYLED_ITEM ( 'NONE', ( #533 ), #763 ) ;
#146 = LINE ( 'NONE', #675, #583 ) ;
#147 = CARTESIAN_POINT ( 'NONE',  ( 102.9250366337559228, -18.23963293061287061, 3.000000000000016431 ) ) ;
#148 = CARTESIAN_POINT ( 'NONE',  ( 48.04365848832858177, 49.68656181841880226, 3.000000000000016431 ) ) ;
#149 = CARTESIAN_POINT ( 'NONE',  ( 81.89047047221153264, 43.31172801060416333, 110.0000000000000000 ) ) ;
#150 = VERTEX_POINT ( 'NONE', #439 ) ;
#151 = ORIENTED_EDGE ( 'NONE', *, *, #134, .F. ) ;
#152 = EDGE_CURVE ( 'NONE', #489, #771, #495, .T. ) ;
#153 = PRODUCT ( '30haojiazhuagaiwuchi', '30haojiazhuagaiwuchi', '', ( #407 ) ) ;
#154 =( NAMED_UNIT ( * ) PLANE_ANGLE_UNIT ( ) SI_UNIT ( $, .RADIAN. ) );
#155 = ORIENTED_EDGE ( 'NONE', *, *, #93, .T. ) ;
#156 = CARTESIAN_POINT ( 'NONE',  ( 16.08362433661927327, 44.18939468785314517, 110.0000000000000000 ) ) ;
#157 = ORIENTED_EDGE ( 'NONE', *, *, #578, .T. ) ;
#158 = AXIS2_PLACEMENT_3D ( 'NONE', #436, #389, #564 ) ;
#159 =( LENGTH_UNIT ( ) NAMED_UNIT ( * ) SI_UNIT ( .MILLI., .METRE. ) );
#160 = VECTOR ( 'NONE', #231, 1000.000000000000000 ) ;
#161 = VERTEX_POINT ( 'NONE', #264 ) ;
#162 = CARTESIAN_POINT ( 'NONE',  ( 24.56786753708763626, 39.11551291291374355, 107.0000000000000000 ) ) ;
#163 = DIRECTION ( 'NONE',  ( -0.9396926207859105373, 0.3420201433256628287, 0.000000000000000000 ) ) ;
#164 =( BOUNDED_CURVE ( )  B_SPLINE_CURVE ( 3, ( #228, #173, #329, #573 ),
 .UNSPECIFIED., .F., .T. ) 
 B_SPLINE_CURVE_WITH_KNOTS ( ( 4, 4 ),
 ( 1.521272187473463600, 2.893133169722012621 ),
 .UNSPECIFIED. ) 
 CURVE ( )  GEOMETRIC_REPRESENTATION_ITEM ( )  RATIONAL_B_SPLINE_CURVE ( ( 1.000000000000000000, 0.8492200102025375674, 0.8492200102025375674, 1.000000000000000000 ) ) 
 REPRESENTATION_ITEM ( '' )  );
#165 = EDGE_LOOP ( 'NONE', ( #332, #34 ) ) ;
#166 = DIRECTION ( 'NONE',  ( 0.9855281050433265522, 0.1695121062629740272, -0.000000000000000000 ) ) ;
#167 = ORIENTED_EDGE ( 'NONE', *, *, #657, .F. ) ;
#168 = ADVANCED_FACE ( 'NONE', ( #196 ), #260, .T. ) ;
#169 = CARTESIAN_POINT ( 'NONE',  ( 68.23955059720827876, 85.55186188631924438, 107.0000000000000000 ) ) ;
#170 = CIRCLE ( 'NONE', #24, 106.4338034517890463 ) ;
#171 = EDGE_LOOP ( 'NONE', ( #512, #723, #172, #103, #224 ) ) ;
#172 = ORIENTED_EDGE ( 'NONE', *, *, #20, .T. ) ;
#173 = CARTESIAN_POINT ( 'NONE',  ( 68.61146039255048379, 37.75615406468583757, 110.0000000000000000 ) ) ;
#174 = ORIENTED_EDGE ( 'NONE', *, *, #518, .F. ) ;
#175 = DIRECTION ( 'NONE',  ( -1.000000000000000000, 0.000000000000000000, 0.000000000000000000 ) ) ;
#176 = CARTESIAN_POINT ( 'NONE',  ( 26.06786753708762561, 39.11551291291374355, 107.0000000000000000 ) ) ;
#177 = EDGE_CURVE ( 'NONE', #514, #348, #323, .T. ) ;
#178 = ORIENTED_EDGE ( 'NONE', *, *, #20, .F. ) ;
#179 = ORIENTED_EDGE ( 'NONE', *, *, #497, .F. ) ;
#180 = VECTOR ( 'NONE', #225, 1000.000000000000000 ) ;
#181 = ADVANCED_FACE ( 'NONE', ( #552 ), #320, .F. ) ;
#182 = VECTOR ( 'NONE', #539, 1000.000000000000000 ) ;
#183 = AXIS2_PLACEMENT_3D ( 'NONE', #695, #283, #761 ) ;
#184 = DIRECTION ( 'NONE',  ( -0.000000000000000000, -0.000000000000000000, -1.000000000000000000 ) ) ;
#185 = EDGE_LOOP ( 'NONE', ( #641, #587, #132, #409, #630, #68, #665 ) ) ;
#186 = LINE ( 'NONE', #176, #182 ) ;
#187 = ORIENTED_EDGE ( 'NONE', *, *, #377, .F. ) ;
#188 = PLANE ( 'NONE',  #39 ) ;
#189 = EDGE_CURVE ( 'NONE', #417, #571, #255, .T. ) ;
#190 = ORIENTED_EDGE ( 'NONE', *, *, #753, .T. ) ;
#191 = CARTESIAN_POINT ( 'NONE',  ( 21.59779784051959339, 27.44210394604274228, 107.0000000000000000 ) ) ;
#192 = CLOSED_SHELL ( 'NONE', ( #234, #688, #469, #594, #550, #554, #513, #435, #729, #720, #664, #606, #214, #674, #367, #59, #31, #325, #527, #727, #181, #168 ) ) ;
#193 = DIRECTION ( 'NONE',  ( -1.000000000000000000, 0.000000000000000000, 0.000000000000000000 ) ) ;
#194 = ORIENTED_EDGE ( 'NONE', *, *, #369, .T. ) ;
#195 = FACE_OUTER_BOUND ( 'NONE', #87, .T. ) ;
#196 = FACE_OUTER_BOUND ( 'NONE', #433, .T. ) ;
#197 = CARTESIAN_POINT ( 'NONE',  ( 103.2604427736006869, -18.12694235588972802, 110.0000000000000000 ) ) ;
#198 = CARTESIAN_POINT ( 'NONE',  ( 20.09779784051960405, 27.44210394604274228, -1.371604415045033344E-15 ) ) ;
#199 = DIRECTION ( 'NONE',  ( 1.000000000000000000, 0.000000000000000000, 0.000000000000000000 ) ) ;
#200 = CARTESIAN_POINT ( 'NONE',  ( 24.56786753708763626, 39.11551291291374355, 3.000000000000016431 ) ) ;
#201 = CARTESIAN_POINT ( 'NONE',  ( 19.48936865828507692, 44.77518710757652087, 107.0000000000000000 ) ) ;
#202 = CIRCLE ( 'NONE', #543, 5.000000000000004441 ) ;
#203 = CYLINDRICAL_SURFACE ( 'NONE', #353, 106.4338034517890321 ) ;
#204 = PRESENTATION_LAYER_ASSIGNMENT (  '', '', ( #472 ) ) ;
#205 = CARTESIAN_POINT ( 'NONE',  ( 18.59779784051961116, 27.44210394604274228, 107.0000000000000000 ) ) ;
#206 = CARTESIAN_POINT ( 'NONE',  ( 48.04365848832858887, 49.68656181841879516, 3.000000000000016431 ) ) ;
#207 = ORIENTED_EDGE ( 'NONE', *, *, #14, .T. ) ;
#208 = CARTESIAN_POINT ( 'NONE',  ( 23.06786753708764337, 39.11551291291374355, 107.0000000000000000 ) ) ;
#209 = PLANE ( 'NONE',  #581 ) ;
#210 = CYLINDRICAL_SURFACE ( 'NONE', #671, 1.499999999999984013 ) ;
#211 = EDGE_LOOP ( 'NONE', ( #615, #464 ) ) ;
#212 = CARTESIAN_POINT ( 'NONE',  ( 18.59779784051961826, 27.44210394604274228, 0.000000000000000000 ) ) ;
#213 = PLANE ( 'NONE',  #183 ) ;
#214 = ADVANCED_FACE ( 'NONE', ( #493 ), #203, .F. ) ;
#215 = ORIENTED_EDGE ( 'NONE', *, *, #540, .T. ) ;
#216 = DIRECTION ( 'NONE',  ( 1.000000000000000000, 0.000000000000000000, -0.000000000000000000 ) ) ;
#217 = VECTOR ( 'NONE', #106, 1000.000000000000000 ) ;
#218 = FACE_OUTER_BOUND ( 'NONE', #762, .T. ) ;
#219 = VECTOR ( 'NONE', #86, 1000.000000000000000 ) ;
#220 = DIRECTION ( 'NONE',  ( 0.3420201433256628287, 0.9396926207859105373, -0.000000000000000000 ) ) ;
#221 = EDGE_CURVE ( 'NONE', #406, #111, #202, .T. ) ;
#222 = CYLINDRICAL_SURFACE ( 'NONE', #623, 109.4338034517890321 ) ;
#223 = ORIENTED_EDGE ( 'NONE', *, *, #177, .T. ) ;
#224 = ORIENTED_EDGE ( 'NONE', *, *, #278, .T. ) ;
#225 = DIRECTION ( 'NONE',  ( -0.3420201433256628287, -0.9396926207859105373, 0.000000000000000000 ) ) ;
#226 = EDGE_LOOP ( 'NONE', ( #246, #591, #701, #529 ) ) ;
#227 = ORIENTED_EDGE ( 'NONE', *, *, #240, .T. ) ;
#228 = CARTESIAN_POINT ( 'NONE',  ( 81.89047047221153264, 43.31172801060416333, 110.0000000000000000 ) ) ;
#229 = VECTOR ( 'NONE', #677, 1000.000000000000114 ) ;
#230 = VERTEX_POINT ( 'NONE', #142 ) ;
#231 = DIRECTION ( 'NONE',  ( 0.000000000000000000, 0.000000000000000000, 1.000000000000000000 ) ) ;
#232 = AXIS2_PLACEMENT_3D ( 'NONE', #661, #115, #175 ) ;
#233 = VERTEX_POINT ( 'NONE', #689 ) ;
#234 = ADVANCED_FACE ( 'NONE', ( #22 ), #269, .F. ) ;
#235 =( NAMED_UNIT ( * ) SI_UNIT ( $, .STERADIAN. ) SOLID_ANGLE_UNIT ( ) );
#236 = ORIENTED_EDGE ( 'NONE', *, *, #122, .F. ) ;
#237 = CARTESIAN_POINT ( 'NONE',  ( 48.04365848832858887, 49.68656181841879516, 1.647987302177966740E-14 ) ) ;
#238 = VERTEX_POINT ( 'NONE', #728 ) ;
#239 =( NAMED_UNIT ( * ) SI_UNIT ( $, .STERADIAN. ) SOLID_ANGLE_UNIT ( ) );
#240 = EDGE_CURVE ( 'NONE', #105, #730, #746, .T. ) ;
#241 = LINE ( 'NONE', #597, #756 ) ;
#242 = ORIENTED_EDGE ( 'NONE', *, *, #5, .T. ) ;
#243 = AXIS2_PLACEMENT_3D ( 'NONE', #509, #371, #193 ) ;
#244 = AXIS2_PLACEMENT_3D ( 'NONE', #732, #621, #305 ) ;
#245 = CARTESIAN_POINT ( 'NONE',  ( 68.61150730464530056, 37.75634490739703608, 1.647987302177967371E-14 ) ) ;
#246 = ORIENTED_EDGE ( 'NONE', *, *, #358, .T. ) ;
#247 = EDGE_CURVE ( 'NONE', #598, #693, #338, .T. ) ;
#248 = APPLICATION_PROTOCOL_DEFINITION ( 'draft international standard', 'automotive_design', 1998, #379 ) ;
#249 = EDGE_LOOP ( 'NONE', ( #748, #468 ) ) ;
#250 = CARTESIAN_POINT ( 'NONE',  ( 68.23955059720827876, 85.55186188631924438, 1.647987302177966740E-14 ) ) ;
#251 = FILL_AREA_STYLE ('',( #6 ) ) ;
#252 = CARTESIAN_POINT ( 'NONE',  ( 103.2604427736006585, -18.12694235588972802, 1.647987302177966740E-14 ) ) ;
#253 = VERTEX_POINT ( 'NONE', #252 ) ;
#254 = DIRECTION ( 'NONE',  ( -0.000000000000000000, -0.000000000000000000, -1.000000000000000000 ) ) ;
#255 = CIRCLE ( 'NONE', #483, 109.4338034517890321 ) ;
#256 = CARTESIAN_POINT ( 'NONE',  ( 68.23955059720827876, 85.55186188631924438, 3.000000000000016431 ) ) ;
#257 = EDGE_CURVE ( 'NONE', #516, #267, #582, .T. ) ;
#258 = FACE_OUTER_BOUND ( 'NONE', #185, .T. ) ;
#259 = DIRECTION ( 'NONE',  ( 0.9444967967061591585, 0.3285206249412726542, -0.000000000000000000 ) ) ;
#260 = CYLINDRICAL_SURFACE ( 'NONE', #596, 5.000000000000004441 ) ;
#261 = ORIENTED_EDGE ( 'NONE', *, *, #134, .T. ) ;
#262 = EDGE_CURVE ( 'NONE', #348, #417, #694, .T. ) ;
#263 = CARTESIAN_POINT ( 'NONE',  ( 103.2604427736006869, -18.12694235588972802, 107.0000000000000000 ) ) ;
#264 = CARTESIAN_POINT ( 'NONE',  ( 23.06786753708764337, 39.11551291291374355, -1.371604415045033344E-15 ) ) ;
#265 = DIRECTION ( 'NONE',  ( 1.000000000000000000, 0.000000000000000000, 0.000000000000000000 ) ) ;
#266 = CARTESIAN_POINT ( 'NONE',  ( 23.06786753708765048, 39.11551291291374355, 0.000000000000000000 ) ) ;
#267 = VERTEX_POINT ( 'NONE', #465 ) ;
#268 = CIRCLE ( 'NONE', #570, 109.4338034517890321 ) ;
#269 = CYLINDRICAL_SURFACE ( 'NONE', #243, 1.499999999999984013 ) ;
#270 = CIRCLE ( 'NONE', #705, 1.499999999999987566 ) ;
#271 = CARTESIAN_POINT ( 'NONE',  ( 68.23955059720827876, 85.55186188631924438, 107.0000000000000000 ) ) ;
#272 =( GEOMETRIC_REPRESENTATION_CONTEXT ( 3 ) GLOBAL_UNCERTAINTY_ASSIGNED_CONTEXT ( ( #546 ) ) GLOBAL_UNIT_ASSIGNED_CONTEXT ( ( #775, #712, #239 ) ) REPRESENTATION_CONTEXT ( 'NONE', 'WORKASPACE' ) );
#273 = CARTESIAN_POINT ( 'NONE',  ( 3.564517285038907968, 1.022017551410872249, 3.000000000000016431 ) ) ;
#274 = ORIENTED_EDGE ( 'NONE', *, *, #262, .F. ) ;
#275 = DIRECTION ( 'NONE',  ( -0.000000000000000000, -0.000000000000000000, -1.000000000000000000 ) ) ;
#276 = FACE_BOUND ( 'NONE', #531, .T. ) ;
#277 = FACE_OUTER_BOUND ( 'NONE', #136, .T. ) ;
#278 = EDGE_CURVE ( 'NONE', #302, #238, #88, .T. ) ;
#279 = ORIENTED_EDGE ( 'NONE', *, *, #511, .F. ) ;
#280 = DIRECTION ( 'NONE',  ( -1.000000000000000000, 0.000000000000000000, 0.000000000000000000 ) ) ;
#281 = VERTEX_POINT ( 'NONE', #35 ) ;
#282 = DIRECTION ( 'NONE',  ( -0.000000000000000000, 0.000000000000000000, -1.000000000000000000 ) ) ;
#283 = DIRECTION ( 'NONE',  ( -0.9396926207859105373, 0.3420201433256628842, 0.000000000000000000 ) ) ;
#284 = CARTESIAN_POINT ( 'NONE',  ( 81.89047047221150422, 43.31172801060414912, 1.647987302177966740E-14 ) ) ;
#285 = CYLINDRICAL_SURFACE ( 'NONE', #660, 1.499999999999984013 ) ;
#286 = ORIENTED_EDGE ( 'NONE', *, *, #398, .F. ) ;
#287 = FACE_OUTER_BOUND ( 'NONE', #171, .T. ) ;
#288 = ORIENTED_EDGE ( 'NONE', *, *, #74, .F. ) ;
#289 = CARTESIAN_POINT ( 'NONE',  ( 0.000000000000000000, 0.000000000000000000, 107.0000000000000000 ) ) ;
#290 = EDGE_CURVE ( 'NONE', #475, #111, #716, .T. ) ;
#291 = EDGE_LOOP ( 'NONE', ( #541, #388, #308, #460 ) ) ;
#292 = DIRECTION ( 'NONE',  ( -0.000000000000000000, -0.000000000000000000, -1.000000000000000000 ) ) ;
#293 = AXIS2_PLACEMENT_3D ( 'NONE', #200, #73, #85 ) ;
#294 = ORIENTED_EDGE ( 'NONE', *, *, #5, .F. ) ;
#295 = SURFACE_STYLE_USAGE ( .BOTH. , #50 ) ;
#296 = PLANE ( 'NONE',  #717 ) ;
#297 = ORIENTED_EDGE ( 'NONE', *, *, #713, .T. ) ;
#298 = LINE ( 'NONE', #303, #622 ) ;
#299 = ORIENTED_EDGE ( 'NONE', *, *, #518, .T. ) ;
#300 = LINE ( 'NONE', #535, #445 ) ;
#301 = EDGE_CURVE ( 'NONE', #425, #668, #642, .T. ) ;
#302 = VERTEX_POINT ( 'NONE', #394 ) ;
#303 = CARTESIAN_POINT ( 'NONE',  ( 3.564517285038907968, 1.022017551410872249, 3.000000000000016431 ) ) ;
#304 = ORIENTED_EDGE ( 'NONE', *, *, #352, .F. ) ;
#305 = DIRECTION ( 'NONE',  ( 1.000000000000000000, 0.000000000000000000, 0.000000000000000000 ) ) ;
#306 = PRODUCT_RELATED_PRODUCT_CATEGORY ( 'part', '', ( #153 ) ) ;
#307 = CARTESIAN_POINT ( 'NONE',  ( 97.75698220773776370, -16.70700446927739335, 3.000000000000016431 ) ) ;
#308 = ORIENTED_EDGE ( 'NONE', *, *, #352, .T. ) ;
#309 = FACE_BOUND ( 'NONE', #165, .T. ) ;
#310 = EDGE_CURVE ( 'NONE', #730, #114, #620, .T. ) ;
#311 = EDGE_CURVE ( 'NONE', #56, #399, #559, .T. ) ;
#312 = CARTESIAN_POINT ( 'NONE',  ( 68.61146039255048379, 37.75615406468583757, 107.0000000000000000 ) ) ;
#313 = LINE ( 'NONE', #324, #61 ) ;
#314 = LINE ( 'NONE', #266, #757 ) ;
#315 = AXIS2_PLACEMENT_3D ( 'NONE', #415, #184, #351 ) ;
#316 = VECTOR ( 'NONE', #726, 1000.000000000000227 ) ;
#317 = DIRECTION ( 'NONE',  ( 1.000000000000000000, -2.081668171172166541E-15, 0.000000000000000000 ) ) ;
#318 = CARTESIAN_POINT ( 'NONE',  ( 97.75698220773776370, -16.70700446927739335, 107.0000000000000000 ) ) ;
#319 = DIRECTION ( 'NONE',  ( -0.000000000000000000, -0.000000000000000000, -1.000000000000000000 ) ) ;
#320 = CYLINDRICAL_SURFACE ( 'NONE', #158, 1.499999999999984013 ) ;
#321 = CARTESIAN_POINT ( 'NONE',  ( 81.89047047221150422, 43.31172801060414912, 1.647987302177966740E-14 ) ) ;
#322 = DIRECTION ( 'NONE',  ( 1.000000000000000000, 0.000000000000000000, 0.000000000000000000 ) ) ;
#323 = LINE ( 'NONE', #81, #558 ) ;
#324 = CARTESIAN_POINT ( 'NONE',  ( 3.564517285038907968, 1.022017551410872249, 3.000000000000016431 ) ) ;
#325 = ADVANCED_FACE ( 'NONE', ( #526 ), #636, .F. ) ;
#326 = LINE ( 'NONE', #742, #683 ) ;
#327 = ORIENTED_EDGE ( 'NONE', *, *, #511, .T. ) ;
#328 = VECTOR ( 'NONE', #498, 1000.000000000000000 ) ;
#329 = CARTESIAN_POINT ( 'NONE',  ( 55.32600959564390308, 40.25838502612783287, 110.0000000000000000 ) ) ;
#330 = CIRCLE ( 'NONE', #634, 1.499999999999990896 ) ;
#331 = DIRECTION ( 'NONE',  ( 0.000000000000000000, 0.000000000000000000, 1.000000000000000000 ) ) ;
#332 = ORIENTED_EDGE ( 'NONE', *, *, #384, .T. ) ;
#333 = CARTESIAN_POINT ( 'NONE',  ( 16.08362433661927327, 44.18939468785314517, 1.647987302177966740E-14 ) ) ;
#334 = CARTESIAN_POINT ( 'NONE',  ( 68.61150730464530056, 37.75634490739703608, 3.000000000000017319 ) ) ;
#335 = ORIENTED_EDGE ( 'NONE', *, *, #189, .T. ) ;
#336 = LINE ( 'NONE', #467, #217 ) ;
#337 = DIRECTION ( 'NONE',  ( -1.000000000000000000, 0.000000000000000000, 0.000000000000000000 ) ) ;
#338 =( BOUNDED_CURVE ( )  B_SPLINE_CURVE ( 3, ( #135, #312, #556, #95 ),
 .UNSPECIFIED., .F., .T. ) 
 B_SPLINE_CURVE_WITH_KNOTS ( ( 4, 4 ),
 ( 1.521272187473463600, 2.893133169722012621 ),
 .UNSPECIFIED. ) 
 CURVE ( )  GEOMETRIC_REPRESENTATION_ITEM ( )  RATIONAL_B_SPLINE_CURVE ( ( 1.000000000000000000, 0.8492200102025375674, 0.8492200102025375674, 1.000000000000000000 ) ) 
 REPRESENTATION_ITEM ( '' )  );
#339 = DIRECTION ( 'NONE',  ( -1.000000000000000000, 0.000000000000000000, 0.000000000000000000 ) ) ;
#340 = VECTOR ( 'NONE', #619, 1000.000000000000114 ) ;
#341 = EDGE_CURVE ( 'NONE', #693, #557, #397, .T. ) ;
#342 = COLOUR_RGB ( '',0.7921568627450980005, 0.8196078431372548767, 0.9333333333333333481 ) ;
#343 = DIRECTION ( 'NONE',  ( 1.000000000000000000, 0.000000000000000000, 0.000000000000000000 ) ) ;
#344 = VERTEX_POINT ( 'NONE', #645 ) ;
#345 =( GEOMETRIC_REPRESENTATION_CONTEXT ( 3 ) GLOBAL_UNCERTAINTY_ASSIGNED_CONTEXT ( ( #530 ) ) GLOBAL_UNIT_ASSIGNED_CONTEXT ( ( #159, #154, #652 ) ) REPRESENTATION_CONTEXT ( 'NONE', 'WORKASPACE' ) );
#346 = FACE_BOUND ( 'NONE', #249, .T. ) ;
#347 = ORIENTED_EDGE ( 'NONE', *, *, #377, .T. ) ;
#348 = VERTEX_POINT ( 'NONE', #471 ) ;
#349 = ORIENTED_EDGE ( 'NONE', *, *, #649, .T. ) ;
#350 = CYLINDRICAL_SURFACE ( 'NONE', #646, 1.499999999999990896 ) ;
#351 = DIRECTION ( 'NONE',  ( -1.000000000000000000, 0.000000000000000000, 0.000000000000000000 ) ) ;
#352 = EDGE_CURVE ( 'NONE', #65, #42, #336, .T. ) ;
#353 = AXIS2_PLACEMENT_3D ( 'NONE', #256, #680, #618 ) ;
#354 = EDGE_LOOP ( 'NONE', ( #544, #349, #528, #422 ) ) ;
#355 = AXIS2_PLACEMENT_3D ( 'NONE', #682, #319, #500 ) ;
#356 = FILL_AREA_STYLE_COLOUR ( '', #342 ) ;
#357 = ORIENTED_EDGE ( 'NONE', *, *, #122, .T. ) ;
#358 = EDGE_CURVE ( 'NONE', #725, #344, #170, .T. ) ;
#359 = SURFACE_STYLE_FILL_AREA ( #600 ) ;
#360 = ORIENTED_EDGE ( 'NONE', *, *, #617, .T. ) ;
#361 = LINE ( 'NONE', #289, #160 ) ;
#362 = SURFACE_SIDE_STYLE ('',( #359 ) ) ;
#363 = ORIENTED_EDGE ( 'NONE', *, *, #262, .T. ) ;
#364 = VECTOR ( 'NONE', #461, 1000.000000000000000 ) ;
#365 = DIRECTION ( 'NONE',  ( -0.1695121062629740549, 0.9855281050433266632, 0.000000000000000000 ) ) ;
#366 =( NAMED_UNIT ( * ) PLANE_ANGLE_UNIT ( ) SI_UNIT ( $, .RADIAN. ) );
#367 = ADVANCED_FACE ( 'NONE', ( #346, #704, #287 ), #588, .F. ) ;
#368 = ORIENTED_EDGE ( 'NONE', *, *, #240, .F. ) ;
#369 = EDGE_CURVE ( 'NONE', #777, #514, #164, .T. ) ;
#370 = DIRECTION ( 'NONE',  ( -0.000000000000000000, -0.000000000000000000, -1.000000000000000000 ) ) ;
#371 = DIRECTION ( 'NONE',  ( -0.000000000000000000, -0.000000000000000000, -1.000000000000000000 ) ) ;
#372 = ORIENTED_EDGE ( 'NONE', *, *, #36, .F. ) ;
#373 = LINE ( 'NONE', #616, #316 ) ;
#374 = DIRECTION ( 'NONE',  ( 1.000000000000000000, 0.000000000000000000, 0.000000000000000000 ) ) ;
#375 = CARTESIAN_POINT ( 'NONE',  ( 24.56786753708763626, 39.11551291291374355, 3.000000000000016431 ) ) ;
#376 = LINE ( 'NONE', #499, #444 ) ;
#377 = EDGE_CURVE ( 'NONE', #111, #491, #767, .T. ) ;
#378 = PLANE ( 'NONE',  #419 ) ;
#379 = APPLICATION_CONTEXT ( 'automotive_design' ) ;
#380 = AXIS2_PLACEMENT_3D ( 'NONE', #250, #66, #322 ) ;
#381 = CARTESIAN_POINT ( 'NONE',  ( 20.09779784051960405, 27.44210394604274228, 107.0000000000000000 ) ) ;
#382 = DIRECTION ( 'NONE',  ( 1.000000000000000000, 0.000000000000000000, -0.000000000000000000 ) ) ;
#383 = FACE_OUTER_BOUND ( 'NONE', #53, .T. ) ;
#384 = EDGE_CURVE ( 'NONE', #65, #425, #76, .T. ) ;
#385 = LINE ( 'NONE', #684, #328 ) ;
#386 = DIRECTION ( 'NONE',  ( 0.000000000000000000, 0.000000000000000000, 1.000000000000000000 ) ) ;
#387 = CARTESIAN_POINT ( 'NONE',  ( 81.89047047221150422, 43.31172801060414912, 3.000000000000016431 ) ) ;
#388 = ORIENTED_EDGE ( 'NONE', *, *, #384, .F. ) ;
#389 = DIRECTION ( 'NONE',  ( -0.000000000000000000, -0.000000000000000000, -1.000000000000000000 ) ) ;
#390 = CARTESIAN_POINT ( 'NONE',  ( 55.32687742377079587, 40.25842125447603337, 1.647987302177967055E-14 ) ) ;
#391 = CARTESIAN_POINT ( 'NONE',  ( 77.88767296843960253, 54.81977083394850325, 3.000000000000016431 ) ) ;
#392 = VECTOR ( 'NONE', #331, 1000.000000000000000 ) ;
#393 = EDGE_LOOP ( 'NONE', ( #706, #124, #751, #23, #294, #549, #360 ) ) ;
#394 = CARTESIAN_POINT ( 'NONE',  ( 0.000000000000000000, 0.000000000000000000, 1.647987302177966740E-14 ) ) ;
#395 = EDGE_CURVE ( 'NONE', #771, #399, #722, .T. ) ;
#396 = UNCERTAINTY_MEASURE_WITH_UNIT (LENGTH_MEASURE( 1.000000000000000082E-05 ), #490, 'distance_accuracy_value', 'NONE');
#397 = LINE ( 'NONE', #101, #506 ) ;
#398 = EDGE_CURVE ( 'NONE', #110, #571, #241, .T. ) ;
#399 = VERTEX_POINT ( 'NONE', #52 ) ;
#400 = DIRECTION ( 'NONE',  ( -0.000000000000000000, -0.000000000000000000, -1.000000000000000000 ) ) ;
#401 = DIRECTION ( 'NONE',  ( -0.000000000000000000, -0.000000000000000000, 1.000000000000000000 ) ) ;
#402 = EDGE_LOOP ( 'NONE', ( #179, #502, #215, #368 ) ) ;
#403 = ORIENTED_EDGE ( 'NONE', *, *, #753, .F. ) ;
#404 = CARTESIAN_POINT ( 'NONE',  ( 21.59779784051959339, 27.44210394604274228, 107.0000000000000000 ) ) ;
#405 = AXIS2_PLACEMENT_3D ( 'NONE', #764, #400, #760 ) ;
#406 = VERTEX_POINT ( 'NONE', #413 ) ;
#407 = PRODUCT_CONTEXT ( 'NONE', #379, 'mechanical' ) ;
#408 = DIRECTION ( 'NONE',  ( -0.000000000000000000, -0.000000000000000000, -1.000000000000000000 ) ) ;
#409 = ORIENTED_EDGE ( 'NONE', *, *, #47, .T. ) ;
#410 = ORIENTED_EDGE ( 'NONE', *, *, #617, .F. ) ;
#411 = DIRECTION ( 'NONE',  ( -0.000000000000000000, -0.000000000000000000, -1.000000000000000000 ) ) ;
#412 = EDGE_CURVE ( 'NONE', #768, #114, #186, .T. ) ;
#413 = CARTESIAN_POINT ( 'NONE',  ( 97.75698220773776370, -16.70700446927739335, 3.000000000000016431 ) ) ;
#414 = EDGE_LOOP ( 'NONE', ( #151, #703, #108, #604 ) ) ;
#415 = CARTESIAN_POINT ( 'NONE',  ( 20.09779784051960405, 27.44210394604274228, 110.0000000000000000 ) ) ;
#416 = VECTOR ( 'NONE', #690, 1000.000000000000114 ) ;
#417 = VERTEX_POINT ( 'NONE', #113 ) ;
#418 = AXIS2_PLACEMENT_3D ( 'NONE', #78, #626, #83 ) ;
#419 = AXIS2_PLACEMENT_3D ( 'NONE', #560, #610, #505 ) ;
#420 = CIRCLE ( 'NONE', #380, 109.4338034517890321 ) ;
#421 = CARTESIAN_POINT ( 'NONE',  ( 21.59779784051958984, 27.44210394604274228, 110.0000000000000000 ) ) ;
#422 = ORIENTED_EDGE ( 'NONE', *, *, #311, .T. ) ;
#423 = CARTESIAN_POINT ( 'NONE',  ( 48.04365848832858887, 49.68656181841879516, 110.0000000000000000 ) ) ;
#424 = CARTESIAN_POINT ( 'NONE',  ( 23.06786753708765048, 39.11551291291374355, 3.000000000000016431 ) ) ;
#425 = VERTEX_POINT ( 'NONE', #421 ) ;
#426 =( BOUNDED_CURVE ( )  B_SPLINE_CURVE ( 3, ( #206, #754, #334, #387 ),
 .UNSPECIFIED., .F., .F. ) 
 B_SPLINE_CURVE_WITH_KNOTS ( ( 4, 4 ),
 ( 3.389784888793770268, 4.761397300166679614 ),
 .UNSPECIFIED. ) 
 CURVE ( )  GEOMETRIC_REPRESENTATION_ITEM ( )  RATIONAL_B_SPLINE_CURVE ( ( 1.000000000000000000, 0.8492724872626716826, 0.8492724872626716826, 1.000000000000000000 ) ) 
 REPRESENTATION_ITEM ( '' )  );
#427 = PLANE ( 'NONE',  #599 ) ;
#428 = DIRECTION ( 'NONE',  ( -0.000000000000000000, -0.000000000000000000, 1.000000000000000000 ) ) ;
#429 = ORIENTED_EDGE ( 'NONE', *, *, #540, .F. ) ;
#430 = AXIS2_PLACEMENT_3D ( 'NONE', #614, #138, #199 ) ;
#431 = DIRECTION ( 'NONE',  ( -1.000000000000000000, 0.000000000000000000, 0.000000000000000000 ) ) ;
#432 = DIRECTION ( 'NONE',  ( 1.000000000000000000, 0.000000000000000000, 0.000000000000000000 ) ) ;
#433 = EDGE_LOOP ( 'NONE', ( #480, #708, #410, #187 ) ) ;
#434 = CARTESIAN_POINT ( 'NONE',  ( 72.33404356309286243, 64.90689142463848782, 107.0000000000000000 ) ) ;
#435 = ADVANCED_FACE ( 'NONE', ( #58 ), #296, .T. ) ;
#436 = CARTESIAN_POINT ( 'NONE',  ( 20.09779784051960405, 27.44210394604274228, 0.000000000000000000 ) ) ;
#437 = ORIENTED_EDGE ( 'NONE', *, *, #369, .F. ) ;
#438 = CYLINDRICAL_SURFACE ( 'NONE', #62, 1.499999999999990896 ) ;
#439 = CARTESIAN_POINT ( 'NONE',  ( 48.04365848832858887, 49.68656181841879516, 1.647987302177966740E-14 ) ) ;
#440 = CARTESIAN_POINT ( 'NONE',  ( 55.32687742377079587, 40.25842125447603337, 3.000000000000016431 ) ) ;
#441 = DIRECTION ( 'NONE',  ( -1.000000000000000000, 0.000000000000000000, 0.000000000000000000 ) ) ;
#442 = EDGE_CURVE ( 'NONE', #267, #475, #300, .T. ) ;
#443 = DIRECTION ( 'NONE',  ( 0.000000000000000000, 0.000000000000000000, 1.000000000000000000 ) ) ;
#444 = VECTOR ( 'NONE', #565, 1000.000000000000000 ) ;
#445 = VECTOR ( 'NONE', #63, 1000.000000000000114 ) ;
#446 = MECHANICAL_DESIGN_GEOMETRIC_PRESENTATION_REPRESENTATION (  '', ( #472 ), #143 ) ;
#447 = DIRECTION ( 'NONE',  ( -0.000000000000000000, 0.000000000000000000, -1.000000000000000000 ) ) ;
#448 = LINE ( 'NONE', #685, #229 ) ;
#449 = CARTESIAN_POINT ( 'NONE',  ( 21.59779784051958629, 27.44210394604274228, 3.000000000000016431 ) ) ;
#450 = EDGE_LOOP ( 'NONE', ( #45, #470, #745, #190 ) ) ;
#451 = DIRECTION ( 'NONE',  ( -0.000000000000000000, -0.000000000000000000, -1.000000000000000000 ) ) ;
#452 = ORIENTED_EDGE ( 'NONE', *, *, #744, .T. ) ;
#453 = CARTESIAN_POINT ( 'NONE',  ( 23.06786753708764337, 39.11551291291374355, 107.0000000000000000 ) ) ;
#454 = ORIENTED_EDGE ( 'NONE', *, *, #290, .T. ) ;
#455 = EDGE_CURVE ( 'NONE', #779, #725, #298, .T. ) ;
#456 = EDGE_LOOP ( 'NONE', ( #120, #553 ) ) ;
#457 = EDGE_CURVE ( 'NONE', #150, #516, #131, .T. ) ;
#458 = FACE_OUTER_BOUND ( 'NONE', #650, .T. ) ;
#459 = VECTOR ( 'NONE', #220, 1000.000000000000000 ) ;
#460 = ORIENTED_EDGE ( 'NONE', *, *, #116, .T. ) ;
#461 = DIRECTION ( 'NONE',  ( -0.000000000000000000, -0.000000000000000000, 1.000000000000000000 ) ) ;
#462 = FACE_OUTER_BOUND ( 'NONE', #48, .T. ) ;
#463 = EDGE_CURVE ( 'NONE', #668, #42, #669, .T. ) ;
#464 = ORIENTED_EDGE ( 'NONE', *, *, #463, .F. ) ;
#465 = CARTESIAN_POINT ( 'NONE',  ( 81.89047047221150422, 43.31172801060414912, 3.000000000000016431 ) ) ;
#466 = ORIENTED_EDGE ( 'NONE', *, *, #93, .F. ) ;
#467 = CARTESIAN_POINT ( 'NONE',  ( 18.59779784051961116, 27.44210394604274228, 107.0000000000000000 ) ) ;
#468 = ORIENTED_EDGE ( 'NONE', *, *, #584, .F. ) ;
#469 = ADVANCED_FACE ( 'NONE', ( #488 ), #778, .F. ) ;
#470 = ORIENTED_EDGE ( 'NONE', *, *, #257, .F. ) ;
#471 = CARTESIAN_POINT ( 'NONE',  ( 16.08362433661927327, 44.18939468785314517, 110.0000000000000000 ) ) ;
#472 = STYLED_ITEM ( 'NONE', ( #2 ), #487 ) ;
#473 = VERTEX_POINT ( 'NONE', #424 ) ;
#474 = EDGE_LOOP ( 'NONE', ( #765, #635, #698, #304 ) ) ;
#475 = VERTEX_POINT ( 'NONE', #478 ) ;
#476 = CARTESIAN_POINT ( 'NONE',  ( 102.9250366337559512, -18.23963293061289193, 107.0000000000000000 ) ) ;
#477 = APPLICATION_CONTEXT ( 'automotive_design' ) ;
#478 = CARTESIAN_POINT ( 'NONE',  ( 103.2604427736006585, -18.12694235588972802, 3.000000000000016431 ) ) ;
#479 = EDGE_CURVE ( 'NONE', #105, #768, #270, .T. ) ;
#480 = ORIENTED_EDGE ( 'NONE', *, *, #221, .F. ) ;
#481 = DIRECTION ( 'NONE',  ( -1.000000000000000000, 0.000000000000000000, 0.000000000000000000 ) ) ;
#482 = CARTESIAN_POINT ( 'NONE',  ( 20.09779784051960405, 27.44210394604274228, 107.0000000000000000 ) ) ;
#483 = AXIS2_PLACEMENT_3D ( 'NONE', #672, #567, #739 ) ;
#484 = ORIENTED_EDGE ( 'NONE', *, *, #107, .T. ) ;
#485 = AXIS2_PLACEMENT_3D ( 'NONE', #434, #137, #738 ) ;
#486 = COLOUR_RGB ( '',0.7921568627450980005, 0.8196078431372548767, 0.9333333333333333481 ) ;
#487 = MANIFOLD_SOLID_BREP ( 'Ô²½Ç2', #192 ) ;
#488 = FACE_OUTER_BOUND ( 'NONE', #474, .T. ) ;
#489 = VERTEX_POINT ( 'NONE', #724 ) ;
#490 =( LENGTH_UNIT ( ) NAMED_UNIT ( * ) SI_UNIT ( .MILLI., .METRE. ) );
#491 = VERTEX_POINT ( 'NONE', #476 ) ;
#492 = CARTESIAN_POINT ( 'NONE',  ( 24.56786753708763626, 39.11551291291374355, 107.0000000000000000 ) ) ;
#493 = FACE_OUTER_BOUND ( 'NONE', #226, .T. ) ;
#494 = EDGE_LOOP ( 'NONE', ( #643, #766, #715, #288 ) ) ;
#495 = CIRCLE ( 'NONE', #430, 1.499999999999984013 ) ;
#496 = DIRECTION ( 'NONE',  ( 0.9855281050433265522, 0.1695121062629740272, -0.000000000000000000 ) ) ;
#497 = EDGE_CURVE ( 'NONE', #768, #105, #658, .T. ) ;
#498 = DIRECTION ( 'NONE',  ( -0.000000000000000000, -0.000000000000000000, 1.000000000000000000 ) ) ;
#499 = CARTESIAN_POINT ( 'NONE',  ( 16.08362433661927327, 44.18939468785314517, 107.0000000000000000 ) ) ;
#500 = DIRECTION ( 'NONE',  ( -1.000000000000000000, 0.000000000000000000, 0.000000000000000000 ) ) ;
#501 = DIRECTION ( 'NONE',  ( -0.000000000000000000, -0.000000000000000000, 1.000000000000000000 ) ) ;
#502 = ORIENTED_EDGE ( 'NONE', *, *, #412, .T. ) ;
#503 = FACE_OUTER_BOUND ( 'NONE', #27, .T. ) ;
#504 = DIRECTION ( 'NONE',  ( 0.000000000000000000, -0.000000000000000000, 1.000000000000000000 ) ) ;
#505 = DIRECTION ( 'NONE',  ( 1.000000000000000000, 0.000000000000000000, -0.000000000000000000 ) ) ;
#506 = VECTOR ( 'NONE', #640, 1000.000000000000114 ) ;
#507 = ORIENTED_EDGE ( 'NONE', *, *, #247, .T. ) ;
#508 = CIRCLE ( 'NONE', #244, 5.000000000000004441 ) ;
#509 = CARTESIAN_POINT ( 'NONE',  ( 20.09779784051960405, 27.44210394604274228, 0.000000000000000000 ) ) ;
#510 = CARTESIAN_POINT ( 'NONE',  ( 103.2604427736006585, -18.12694235588972802, 107.0000000000000000 ) ) ;
#511 = EDGE_CURVE ( 'NONE', #612, #161, #330, .T. ) ;
#512 = ORIENTED_EDGE ( 'NONE', *, *, #593, .T. ) ;
#513 = ADVANCED_FACE ( 'NONE', ( #547 ), #72, .T. ) ;
#514 = VERTEX_POINT ( 'NONE', #590 ) ;
#515 = DIRECTION ( 'NONE',  ( 0.000000000000000000, -0.000000000000000000, 1.000000000000000000 ) ) ;
#516 = VERTEX_POINT ( 'NONE', #125 ) ;
#517 = CARTESIAN_POINT ( 'NONE',  ( 68.23955059720827876, 85.55186188631924438, 1.647987302177966740E-14 ) ) ;
#518 = EDGE_CURVE ( 'NONE', #302, #417, #361, .T. ) ;
#519 = DIRECTION ( 'NONE',  ( -0.3420201433256628287, -0.9396926207859105373, 0.000000000000000000 ) ) ;
#520 = SHAPE_DEFINITION_REPRESENTATION ( #70, #763 ) ;
#521 = AXIS2_PLACEMENT_3D ( 'NONE', #375, #504, #71 ) ;
#522 = EDGE_CURVE ( 'NONE', #425, #65, #51, .T. ) ;
#523 = VECTOR ( 'NONE', #25, 1000.000000000000000 ) ;
#524 = DIRECTION ( 'NONE',  ( -0.000000000000000000, -0.000000000000000000, -1.000000000000000000 ) ) ;
#525 = ORIENTED_EDGE ( 'NONE', *, *, #774, .T. ) ;
#526 = FACE_OUTER_BOUND ( 'NONE', #592, .T. ) ;
#527 = ADVANCED_FACE ( 'NONE', ( #112 ), #350, .F. ) ;
#528 = ORIENTED_EDGE ( 'NONE', *, *, #74, .T. ) ;
#529 = ORIENTED_EDGE ( 'NONE', *, *, #455, .T. ) ;
#530 = UNCERTAINTY_MEASURE_WITH_UNIT (LENGTH_MEASURE( 1.000000000000000082E-05 ), #159, 'distance_accuracy_value', 'NONE');
#531 = EDGE_LOOP ( 'NONE', ( #236, #687 ) ) ;
#532 = ORIENTED_EDGE ( 'NONE', *, *, #398, .T. ) ;
#533 = PRESENTATION_STYLE_ASSIGNMENT (( #295 ) ) ;
#534 = EDGE_CURVE ( 'NONE', #161, #612, #758, .T. ) ;
#535 = CARTESIAN_POINT ( 'NONE',  ( 103.2604427736006869, -18.12694235588972802, 3.000000000000016431 ) ) ;
#536 = ORIENTED_EDGE ( 'NONE', *, *, #36, .T. ) ;
#537 =( BOUNDED_SURFACE ( )  B_SPLINE_SURFACE ( 3, 1, ( 
 ( #625, #148 ),
 ( #390, #440 ),
 ( #628, #740 ),
 ( #321, #681 ) ),
 .UNSPECIFIED., .F., .F., .F. ) 
 B_SPLINE_SURFACE_WITH_KNOTS ( ( 4, 4 ),
 ( 2, 2 ),
 ( 0.000000000000000000, 1.000000000000000000 ),
 ( 0.000000000000000000, 1.000000000000000000 ),
 .UNSPECIFIED. ) 
 GEOMETRIC_REPRESENTATION_ITEM ( )  RATIONAL_B_SPLINE_SURFACE ( (
 ( 1.000000000000000000, 1.000000000000000000),
 ( 0.8492724872626716826, 0.8492724872626716826),
 ( 0.8492724872626716826, 0.8492724872626716826),
 ( 1.000000000000000000, 1.000000000000000000) ) ) 
 REPRESENTATION_ITEM ( '' )  SURFACE ( )  );
#538 = CARTESIAN_POINT ( 'NONE',  ( 24.56786753708763626, 39.11551291291374355, -1.371604415045033344E-15 ) ) ;
#539 = DIRECTION ( 'NONE',  ( -0.000000000000000000, -0.000000000000000000, -1.000000000000000000 ) ) ;
#540 = EDGE_CURVE ( 'NONE', #114, #730, #572, .T. ) ;
#541 = ORIENTED_EDGE ( 'NONE', *, *, #301, .F. ) ;
#542 = CARTESIAN_POINT ( 'NONE',  ( 81.89047047221150422, 43.31172801060414912, 1.647987302177966740E-14 ) ) ;
#543 = AXIS2_PLACEMENT_3D ( 'NONE', #77, #447, #317 ) ;
#544 = ORIENTED_EDGE ( 'NONE', *, *, #395, .F. ) ;
#545 = AXIS2_PLACEMENT_3D ( 'NONE', #707, #411, #651 ) ;
#546 = UNCERTAINTY_MEASURE_WITH_UNIT (LENGTH_MEASURE( 1.000000000000000082E-05 ), #775, 'distance_accuracy_value', 'NONE');
#547 = FACE_OUTER_BOUND ( 'NONE', #759, .T. ) ;
#548 = DIRECTION ( 'NONE',  ( -0.000000000000000000, -0.000000000000000000, -1.000000000000000000 ) ) ;
#549 = ORIENTED_EDGE ( 'NONE', *, *, #14, .F. ) ;
#550 = ADVANCED_FACE ( 'NONE', ( #503 ), #188, .T. ) ;
#551 = DIRECTION ( 'NONE',  ( -0.9855281050433265522, -0.1695121062629740272, 0.000000000000000000 ) ) ;
#552 = FACE_OUTER_BOUND ( 'NONE', #354, .T. ) ;
#553 = ORIENTED_EDGE ( 'NONE', *, *, #649, .F. ) ;
#554 = ADVANCED_FACE ( 'NONE', ( #4, #21, #735 ), #128, .F. ) ;
#555 = DIRECTION ( 'NONE',  ( -1.000000000000000000, 0.000000000000000000, 0.000000000000000000 ) ) ;
#556 = CARTESIAN_POINT ( 'NONE',  ( 55.32600959564390308, 40.25838502612783287, 107.0000000000000000 ) ) ;
#557 = VERTEX_POINT ( 'NONE', #201 ) ;
#558 = VECTOR ( 'NONE', #736, 1000.000000000000114 ) ;
#559 = CIRCLE ( 'NONE', #741, 1.499999999999990896 ) ;
#560 = CARTESIAN_POINT ( 'NONE',  ( 72.33404356309286243, 64.90689142463848782, 110.0000000000000000 ) ) ;
#561 = DIRECTION ( 'NONE',  ( -1.000000000000000000, 0.000000000000000000, 0.000000000000000000 ) ) ;
#562 = CARTESIAN_POINT ( 'NONE',  ( 68.23955059720827876, 85.55186188631924438, 3.000000000000016431 ) ) ;
#563 = DIRECTION ( 'NONE',  ( -0.000000000000000000, -0.000000000000000000, -1.000000000000000000 ) ) ;
#564 = DIRECTION ( 'NONE',  ( -1.000000000000000000, 0.000000000000000000, 0.000000000000000000 ) ) ;
#565 = DIRECTION ( 'NONE',  ( 0.000000000000000000, 0.000000000000000000, 1.000000000000000000 ) ) ;
#566 = CARTESIAN_POINT ( 'NONE',  ( 26.06786753708762561, 39.11551291291374355, -1.371604415045033344E-15 ) ) ;
#567 = DIRECTION ( 'NONE',  ( 0.000000000000000000, 0.000000000000000000, 1.000000000000000000 ) ) ;
#568 = DIRECTION ( 'NONE',  ( -1.000000000000000000, 0.000000000000000000, 0.000000000000000000 ) ) ;
#569 = CARTESIAN_POINT ( 'NONE',  ( 26.06786753708762205, 39.11551291291374355, 110.0000000000000000 ) ) ;
#570 = AXIS2_PLACEMENT_3D ( 'NONE', #271, #386, #265 ) ;
#571 = VERTEX_POINT ( 'NONE', #69 ) ;
#572 = CIRCLE ( 'NONE', #772, 1.499999999999990896 ) ;
#573 = CARTESIAN_POINT ( 'NONE',  ( 48.04365848832858887, 49.68656181841879516, 110.0000000000000000 ) ) ;
#574 = DIRECTION ( 'NONE',  ( -0.000000000000000000, -0.000000000000000000, 1.000000000000000000 ) ) ;
#575 = ORIENTED_EDGE ( 'NONE', *, *, #341, .T. ) ;
#576 = DIRECTION ( 'NONE',  ( -0.000000000000000000, -0.000000000000000000, 1.000000000000000000 ) ) ;
#577 = DIRECTION ( 'NONE',  ( 0.000000000000000000, 0.000000000000000000, 1.000000000000000000 ) ) ;
#578 = EDGE_CURVE ( 'NONE', #557, #725, #373, .T. ) ;
#579 = ORIENTED_EDGE ( 'NONE', *, *, #479, .T. ) ;
#580 = CARTESIAN_POINT ( 'NONE',  ( 24.56786753708763626, 39.11551291291374355, 0.000000000000000000 ) ) ;
#581 = AXIS2_PLACEMENT_3D ( 'NONE', #562, #515, #382 ) ;
#582 = LINE ( 'NONE', #284, #364 ) ;
#583 = VECTOR ( 'NONE', #496, 1000.000000000000114 ) ;
#584 = EDGE_CURVE ( 'NONE', #399, #56, #743, .T. ) ;
#585 = PRESENTATION_LAYER_ASSIGNMENT (  '', '', ( #145 ) ) ;
#586 = LINE ( 'NONE', #629, #219 ) ;
#587 = ORIENTED_EDGE ( 'NONE', *, *, #744, .F. ) ;
#588 = PLANE ( 'NONE',  #655 ) ;
#589 = ORIENTED_EDGE ( 'NONE', *, *, #107, .F. ) ;
#590 = CARTESIAN_POINT ( 'NONE',  ( 48.04365848832858887, 49.68656181841879516, 110.0000000000000000 ) ) ;
#591 = ORIENTED_EDGE ( 'NONE', *, *, #97, .T. ) ;
#592 = EDGE_LOOP ( 'NONE', ( #127, #710, #227, #9 ) ) ;
#593 = EDGE_CURVE ( 'NONE', #238, #150, #146, .T. ) ;
#594 = ADVANCED_FACE ( 'NONE', ( #10 ), #438, .F. ) ;
#595 = SURFACE_STYLE_FILL_AREA ( #251 ) ;
#596 = AXIS2_PLACEMENT_3D ( 'NONE', #84, #501, #432 ) ;
#597 = CARTESIAN_POINT ( 'NONE',  ( 103.2604427736006585, -18.12694235588972802, 107.0000000000000000 ) ) ;
#598 = VERTEX_POINT ( 'NONE', #670 ) ;
#599 = AXIS2_PLACEMENT_3D ( 'NONE', #666, #365, #551 ) ;
#600 = FILL_AREA_STYLE ('',( #356 ) ) ;
#601 = ORIENTED_EDGE ( 'NONE', *, *, #637, .F. ) ;
#602 = CARTESIAN_POINT ( 'NONE',  ( 81.89047047221151843, 43.31172801060417754, 110.0000000000000000 ) ) ;
#603 = CARTESIAN_POINT ( 'NONE',  ( 21.59779784051958629, 27.44210394604274228, 0.000000000000000000 ) ) ;
#604 = ORIENTED_EDGE ( 'NONE', *, *, #534, .T. ) ;
#605 = SURFACE_STYLE_USAGE ( .BOTH. , #362 ) ;
#606 = ADVANCED_FACE ( 'NONE', ( #309, #678, #383 ), #378, .T. ) ;
#607 = VECTOR ( 'NONE', #451, 1000.000000000000000 ) ;
#608 = ORIENTED_EDGE ( 'NONE', *, *, #189, .F. ) ;
#609 = CIRCLE ( 'NONE', #418, 1.499999999999984013 ) ;
#610 = DIRECTION ( 'NONE',  ( 0.000000000000000000, 0.000000000000000000, 1.000000000000000000 ) ) ;
#611 = AXIS2_PLACEMENT_3D ( 'NONE', #96, #163, #519 ) ;
#612 = VERTEX_POINT ( 'NONE', #566 ) ;
#613 = DIRECTION ( 'NONE',  ( -0.000000000000000000, -0.000000000000000000, -1.000000000000000000 ) ) ;
#614 = CARTESIAN_POINT ( 'NONE',  ( 20.09779784051960405, 27.44210394604274228, 3.000000000000016431 ) ) ;
#615 = ORIENTED_EDGE ( 'NONE', *, *, #116, .F. ) ;
#616 = CARTESIAN_POINT ( 'NONE',  ( 3.564517285038907968, 1.022017551410872249, 107.0000000000000000 ) ) ;
#617 = EDGE_CURVE ( 'NONE', #491, #344, #508, .T. ) ;
#618 = DIRECTION ( 'NONE',  ( 1.000000000000000000, 0.000000000000000000, 0.000000000000000000 ) ) ;
#619 = DIRECTION ( 'NONE',  ( -0.3285206249412725987, 0.9444967967061591585, 0.000000000000000000 ) ) ;
#620 = CIRCLE ( 'NONE', #782, 1.499999999999990896 ) ;
#621 = DIRECTION ( 'NONE',  ( 0.000000000000000000, 0.000000000000000000, 1.000000000000000000 ) ) ;
#622 = VECTOR ( 'NONE', #428, 1000.000000000000000 ) ;
#623 = AXIS2_PLACEMENT_3D ( 'NONE', #692, #577, #343 ) ;
#624 = LINE ( 'NONE', #627, #102 ) ;
#625 = CARTESIAN_POINT ( 'NONE',  ( 48.04365848832858177, 49.68656181841880226, 1.647987302177966740E-14 ) ) ;
#626 = DIRECTION ( 'NONE',  ( 0.000000000000000000, -0.000000000000000000, 1.000000000000000000 ) ) ;
#627 = CARTESIAN_POINT ( 'NONE',  ( 26.06786753708761850, 39.11551291291374355, 0.000000000000000000 ) ) ;
#628 = CARTESIAN_POINT ( 'NONE',  ( 68.61150730464528635, 37.75634490739702187, 1.647987302177967055E-14 ) ) ;
#629 = CARTESIAN_POINT ( 'NONE',  ( 81.89047047221153264, 43.31172801060416333, 107.0000000000000000 ) ) ;
#630 = ORIENTED_EDGE ( 'NONE', *, *, #221, .T. ) ;
#631 = DIRECTION ( 'NONE',  ( -1.000000000000000000, 0.000000000000000000, 0.000000000000000000 ) ) ;
#632 = FACE_OUTER_BOUND ( 'NONE', #450, .T. ) ;
#633 = LINE ( 'NONE', #686, #523 ) ;
#634 = AXIS2_PLACEMENT_3D ( 'NONE', #538, #408, #481 ) ;
#635 = ORIENTED_EDGE ( 'NONE', *, *, #301, .T. ) ;
#636 = CYLINDRICAL_SURFACE ( 'NONE', #405, 1.499999999999990896 ) ;
#637 = EDGE_CURVE ( 'NONE', #473, #161, #314, .T. ) ;
#638 = FACE_OUTER_BOUND ( 'NONE', #414, .T. ) ;
#639 = ORIENTED_EDGE ( 'NONE', *, *, #713, .F. ) ;
#640 = DIRECTION ( 'NONE',  ( -0.9855281050433265522, -0.1695121062629740272, 0.000000000000000000 ) ) ;
#641 = ORIENTED_EDGE ( 'NONE', *, *, #679, .F. ) ;
#642 = LINE ( 'NONE', #404, #117 ) ;
#643 = ORIENTED_EDGE ( 'NONE', *, *, #152, .T. ) ;
#644 = VECTOR ( 'NONE', #12, 1000.000000000000000 ) ;
#645 = CARTESIAN_POINT ( 'NONE',  ( 97.75698220773776370, -16.70700446927739335, 107.0000000000000000 ) ) ;
#646 = AXIS2_PLACEMENT_3D ( 'NONE', #133, #563, #555 ) ;
#647 = PRODUCT_DEFINITION ( 'Î´Öª', '', #26, #699 ) ;
#648 = ORIENTED_EDGE ( 'NONE', *, *, #442, .T. ) ;
#649 = EDGE_CURVE ( 'NONE', #771, #489, #609, .T. ) ;
#650 = EDGE_LOOP ( 'NONE', ( #347, #207, #532, #608, #174, #167, #536, #454 ) ) ;
#651 = DIRECTION ( 'NONE',  ( -1.000000000000000000, 0.000000000000000000, 0.000000000000000000 ) ) ;
#652 =( NAMED_UNIT ( * ) SI_UNIT ( $, .STERADIAN. ) SOLID_ANGLE_UNIT ( ) );
#653 = DIRECTION ( 'NONE',  ( -0.3285206249412725987, 0.9444967967061590475, 0.000000000000000000 ) ) ;
#654 = EDGE_LOOP ( 'NONE', ( #648, #372, #178, #60 ) ) ;
#655 = AXIS2_PLACEMENT_3D ( 'NONE', #517, #43, #216 ) ;
#656 = DIRECTION ( 'NONE',  ( -1.000000000000000000, 0.000000000000000000, 0.000000000000000000 ) ) ;
#657 = EDGE_CURVE ( 'NONE', #253, #302, #420, .T. ) ;
#658 = CIRCLE ( 'NONE', #232, 1.499999999999987566 ) ;
#659 = ORIENTED_EDGE ( 'NONE', *, *, #310, .F. ) ;
#660 = AXIS2_PLACEMENT_3D ( 'NONE', #697, #524, #280 ) ;
#661 = CARTESIAN_POINT ( 'NONE',  ( 24.56786753708763626, 39.11551291291374355, 110.0000000000000000 ) ) ;
#662 = DIRECTION ( 'NONE',  ( -1.000000000000000000, 0.000000000000000000, 0.000000000000000000 ) ) ;
#663 = ORIENTED_EDGE ( 'NONE', *, *, #774, .F. ) ;
#664 = ADVANCED_FACE ( 'NONE', ( #195 ), #427, .T. ) ;
#665 = ORIENTED_EDGE ( 'NONE', *, *, #442, .F. ) ;
#666 = CARTESIAN_POINT ( 'NONE',  ( 48.04365848832858887, 49.68656181841879516, 107.0000000000000000 ) ) ;
#667 = CIRCLE ( 'NONE', #141, 1.499999999999990896 ) ;
#668 = VERTEX_POINT ( 'NONE', #191 ) ;
#669 = CIRCLE ( 'NONE', #118, 1.499999999999990896 ) ;
#670 = CARTESIAN_POINT ( 'NONE',  ( 81.89047047221153264, 43.31172801060416333, 107.0000000000000000 ) ) ;
#671 = AXIS2_PLACEMENT_3D ( 'NONE', #580, #100, #337 ) ;
#672 = CARTESIAN_POINT ( 'NONE',  ( 68.23955059720827876, 85.55186188631924438, 110.0000000000000000 ) ) ;
#673 = ORIENTED_EDGE ( 'NONE', *, *, #593, .F. ) ;
#674 = ADVANCED_FACE ( 'NONE', ( #218 ), #30, .F. ) ;
#675 = CARTESIAN_POINT ( 'NONE',  ( 77.88767296843960253, 54.81977083394850325, 1.647987302177966740E-14 ) ) ;
#676 = CARTESIAN_POINT ( 'NONE',  ( 26.06786753708762561, 39.11551291291374355, 107.0000000000000000 ) ) ;
#677 = DIRECTION ( 'NONE',  ( 0.3285206249412724322, -0.9444967967061592695, -0.000000000000000000 ) ) ;
#678 = FACE_BOUND ( 'NONE', #98, .T. ) ;
#679 = EDGE_CURVE ( 'NONE', #230, #267, #426, .T. ) ;
#680 = DIRECTION ( 'NONE',  ( -0.000000000000000000, -0.000000000000000000, 1.000000000000000000 ) ) ;
#681 = CARTESIAN_POINT ( 'NONE',  ( 81.89047047221150422, 43.31172801060414912, 3.000000000000016431 ) ) ;
#682 = CARTESIAN_POINT ( 'NONE',  ( 24.56786753708763626, 39.11551291291374355, -1.371604415045033344E-15 ) ) ;
#683 = VECTOR ( 'NONE', #401, 1000.000000000000000 ) ;
#684 = CARTESIAN_POINT ( 'NONE',  ( 19.48936865828508758, 44.77518710757653508, 3.000000000000016431 ) ) ;
#685 = CARTESIAN_POINT ( 'NONE',  ( 103.2604427736006869, -18.12694235588972802, 1.647987302177966740E-14 ) ) ;
#686 = CARTESIAN_POINT ( 'NONE',  ( 48.04365848832858887, 49.68656181841879516, 107.0000000000000000 ) ) ;
#687 = ORIENTED_EDGE ( 'NONE', *, *, #7, .F. ) ;
#688 = ADVANCED_FACE ( 'NONE', ( #277 ), #210, .F. ) ;
#689 = CARTESIAN_POINT ( 'NONE',  ( 19.48936865828508758, 44.77518710757653508, 3.000000000000016431 ) ) ;
#690 = DIRECTION ( 'NONE',  ( -0.3285206249412725987, 0.9444967967061591585, 0.000000000000000000 ) ) ;
#691 = LINE ( 'NONE', #212, #644 ) ;
#692 = CARTESIAN_POINT ( 'NONE',  ( 68.23955059720827876, 85.55186188631924438, 107.0000000000000000 ) ) ;
#693 = VERTEX_POINT ( 'NONE', #37 ) ;
#694 = LINE ( 'NONE', #156, #180 ) ;
#695 = CARTESIAN_POINT ( 'NONE',  ( 16.08362433661927327, 44.18939468785314517, 107.0000000000000000 ) ) ;
#696 = CARTESIAN_POINT ( 'NONE',  ( 20.09779784051960405, 27.44210394604274228, -1.371604415045033344E-15 ) ) ;
#697 = CARTESIAN_POINT ( 'NONE',  ( 24.56786753708763626, 39.11551291291374355, 0.000000000000000000 ) ) ;
#698 = ORIENTED_EDGE ( 'NONE', *, *, #463, .T. ) ;
#699 = PRODUCT_DEFINITION_CONTEXT ( 'detailed design', #477, 'design' ) ;
#700 = DIRECTION ( 'NONE',  ( -1.000000000000000000, 0.000000000000000000, 0.000000000000000000 ) ) ;
#701 = ORIENTED_EDGE ( 'NONE', *, *, #47, .F. ) ;
#702 = AXIS2_PLACEMENT_3D ( 'NONE', #749, #282, #40 ) ;
#703 = ORIENTED_EDGE ( 'NONE', *, *, #7, .T. ) ;
#704 = FACE_BOUND ( 'NONE', #82, .T. ) ;
#705 = AXIS2_PLACEMENT_3D ( 'NONE', #714, #123, #656 ) ;
#706 = ORIENTED_EDGE ( 'NONE', *, *, #358, .F. ) ;
#707 = CARTESIAN_POINT ( 'NONE',  ( 20.09779784051960405, 27.44210394604274228, 110.0000000000000000 ) ) ;
#708 = ORIENTED_EDGE ( 'NONE', *, *, #97, .F. ) ;
#709 = DIRECTION ( 'NONE',  ( -0.000000000000000000, -0.000000000000000000, 1.000000000000000000 ) ) ;
#710 = ORIENTED_EDGE ( 'NONE', *, *, #479, .F. ) ;
#711 = B_SPLINE_CURVE_WITH_KNOTS ( 'NONE', 3,
 ( #318, #733, #8, #307 ),
 .UNSPECIFIED., .F., .F.,
 ( 4, 4 ),
 ( 0.000000000000000000, 1.000000000000000000 ),
 .UNSPECIFIED. ) ;
#712 =( NAMED_UNIT ( * ) PLANE_ANGLE_UNIT ( ) SI_UNIT ( $, .RADIAN. ) );
#713 = EDGE_CURVE ( 'NONE', #598, #777, #586, .T. ) ;
#714 = CARTESIAN_POINT ( 'NONE',  ( 24.56786753708763626, 39.11551291291374355, 110.0000000000000000 ) ) ;
#715 = ORIENTED_EDGE ( 'NONE', *, *, #584, .T. ) ;
#716 = CIRCLE ( 'NONE', #702, 109.4338034517890321 ) ;
#717 = AXIS2_PLACEMENT_3D ( 'NONE', #130, #55, #653 ) ;
#718 = CARTESIAN_POINT ( 'NONE',  ( 20.09779784051960405, 27.44210394604274228, 107.0000000000000000 ) ) ;
#719 = ORIENTED_EDGE ( 'NONE', *, *, #44, .F. ) ;
#720 = ADVANCED_FACE ( 'NONE', ( #462 ), #213, .T. ) ;
#721 = CARTESIAN_POINT ( 'NONE',  ( 48.04365848832858887, 49.68656181841879516, 107.0000000000000000 ) ) ;
#722 = LINE ( 'NONE', #603, #90 ) ;
#723 = ORIENTED_EDGE ( 'NONE', *, *, #457, .T. ) ;
#724 = CARTESIAN_POINT ( 'NONE',  ( 18.59779784051961826, 27.44210394604274228, 3.000000000000016431 ) ) ;
#725 = VERTEX_POINT ( 'NONE', #91 ) ;
#726 = DIRECTION ( 'NONE',  ( -0.3420201433256628287, -0.9396926207859104263, -0.000000000000000000 ) ) ;
#727 = ADVANCED_FACE ( 'NONE', ( #638 ), #285, .F. ) ;
#728 = CARTESIAN_POINT ( 'NONE',  ( 16.08362433661927327, 44.18939468785314517, 1.647987302177966740E-14 ) ) ;
#729 = ADVANCED_FACE ( 'NONE', ( #458 ), #222, .T. ) ;
#730 = VERTEX_POINT ( 'NONE', #453 ) ;
#731 = AXIS2_PLACEMENT_3D ( 'NONE', #718, #548, #662 ) ;
#732 = CARTESIAN_POINT ( 'NONE',  ( 99.14363901475020668, -21.51087612655197390, 107.0000000000000000 ) ) ;
#733 = CARTESIAN_POINT ( 'NONE',  ( 97.75698220773774949, -16.70700446927740757, 72.33333333333332860 ) ) ;
#734 = LINE ( 'NONE', #197, #340 ) ;
#735 = FACE_OUTER_BOUND ( 'NONE', #393, .T. ) ;
#736 = DIRECTION ( 'NONE',  ( -0.9855281050433265522, -0.1695121062629740272, 0.000000000000000000 ) ) ;
#737 = ORIENTED_EDGE ( 'NONE', *, *, #80, .T. ) ;
#738 = DIRECTION ( 'NONE',  ( 1.000000000000000000, 0.000000000000000000, -0.000000000000000000 ) ) ;
#739 = DIRECTION ( 'NONE',  ( 1.000000000000000000, 0.000000000000000000, 0.000000000000000000 ) ) ;
#740 = CARTESIAN_POINT ( 'NONE',  ( 68.61150730464528635, 37.75634490739702187, 3.000000000000016431 ) ) ;
#741 = AXIS2_PLACEMENT_3D ( 'NONE', #696, #752, #700 ) ;
#742 = CARTESIAN_POINT ( 'NONE',  ( 48.04365848832858887, 49.68656181841879516, 1.647987302177966740E-14 ) ) ;
#743 = CIRCLE ( 'NONE', #92, 1.499999999999990896 ) ;
#744 = EDGE_CURVE ( 'NONE', #233, #230, #33, .T. ) ;
#745 = ORIENTED_EDGE ( 'NONE', *, *, #457, .F. ) ;
#746 = LINE ( 'NONE', #208, #607 ) ;
#747 = FACE_BOUND ( 'NONE', #456, .T. ) ;
#748 = ORIENTED_EDGE ( 'NONE', *, *, #311, .F. ) ;
#749 = CARTESIAN_POINT ( 'NONE',  ( 68.23955059720827876, 85.55186188631924438, 3.000000000000016431 ) ) ;
#750 = CARTESIAN_POINT ( 'NONE',  ( 18.59779784051961471, 27.44210394604274228, 110.0000000000000000 ) ) ;
#751 = ORIENTED_EDGE ( 'NONE', *, *, #341, .F. ) ;
#752 = DIRECTION ( 'NONE',  ( -0.000000000000000000, -0.000000000000000000, -1.000000000000000000 ) ) ;
#753 = EDGE_CURVE ( 'NONE', #150, #230, #326, .T. ) ;
#754 = CARTESIAN_POINT ( 'NONE',  ( 55.32687742377080298, 40.25842125447604047, 3.000000000000017319 ) ) ;
#755 = VECTOR ( 'NONE', #709, 1000.000000000000000 ) ;
#756 = VECTOR ( 'NONE', #119, 1000.000000000000000 ) ;
#757 = VECTOR ( 'NONE', #13, 1000.000000000000000 ) ;
#758 = CIRCLE ( 'NONE', #355, 1.499999999999990896 ) ;
#759 = EDGE_LOOP ( 'NONE', ( #437, #639, #507, #525 ) ) ;
#760 = DIRECTION ( 'NONE',  ( -1.000000000000000000, 0.000000000000000000, 0.000000000000000000 ) ) ;
#761 = DIRECTION ( 'NONE',  ( -0.3420201433256628287, -0.9396926207859104263, 0.000000000000000000 ) ) ;
#762 = EDGE_LOOP ( 'NONE', ( #157, #1, #719, #484 ) ) ;
#763 = ADVANCED_BREP_SHAPE_REPRESENTATION ( '30haojiazhuagaiwuchi', ( #487, #64 ), #345 ) ;
#764 = CARTESIAN_POINT ( 'NONE',  ( 24.56786753708763626, 39.11551291291374355, 107.0000000000000000 ) ) ;
#765 = ORIENTED_EDGE ( 'NONE', *, *, #522, .F. ) ;
#766 = ORIENTED_EDGE ( 'NONE', *, *, #395, .T. ) ;
#767 = LINE ( 'NONE', #28, #755 ) ;
#768 = VERTEX_POINT ( 'NONE', #569 ) ;
#769 = CARTESIAN_POINT ( 'NONE',  ( 68.61146039255046958, 37.75615406468585178, 110.0000000000000284 ) ) ;
#770 = CIRCLE ( 'NONE', #521, 1.499999999999984013 ) ;
#771 = VERTEX_POINT ( 'NONE', #449 ) ;
#772 = AXIS2_PLACEMENT_3D ( 'NONE', #492, #254, #17 ) ;
#773 = ORIENTED_EDGE ( 'NONE', *, *, #177, .F. ) ;
#774 = EDGE_CURVE ( 'NONE', #693, #514, #633, .T. ) ;
#775 =( LENGTH_UNIT ( ) NAMED_UNIT ( * ) SI_UNIT ( .MILLI., .METRE. ) );
#776 = DIRECTION ( 'NONE',  ( -0.000000000000000000, -0.000000000000000000, -1.000000000000000000 ) ) ;
#777 = VERTEX_POINT ( 'NONE', #149 ) ;
#778 = CYLINDRICAL_SURFACE ( 'NONE', #731, 1.499999999999990896 ) ;
#779 = VERTEX_POINT ( 'NONE', #273 ) ;
#780 = CARTESIAN_POINT ( 'NONE',  ( 55.32600959564390308, 40.25838502612784708, 110.0000000000000284 ) ) ;
#781 = CARTESIAN_POINT ( 'NONE',  ( 0.000000000000000000, 0.000000000000000000, 0.000000000000000000 ) ) ;
#782 = AXIS2_PLACEMENT_3D ( 'NONE', #162, #99, #631 ) ;
#783 = DIRECTION ( 'NONE',  ( -1.000000000000000000, 0.000000000000000000, 0.000000000000000000 ) ) ;
ENDSEC;
END-ISO-10303-21;
