ISO-10303-21;
HEADER;
FILE_DESCRIPTION (( 'STEP AP214' ),
    '1' );
FILE_NAME ('bianpian从.STEP',
    '2026-07-16T12:01:24',
    ( '' ),
    ( '' ),
    'SwSTEP 2.0',
    'SolidWorks 2020',
    '' );
FILE_SCHEMA (( 'AUTOMOTIVE_DESIGN' ));
ENDSEC;

DATA;
#1 = CARTESIAN_POINT ( 'NONE',  ( 25.62844717968463470, -17.66938018843652358, 3.000000000000000000 ) ) ;
#2 = VECTOR ( 'NONE', #880, 1000.000000000000000 ) ;
#3 = DIRECTION ( 'NONE',  ( 0.8744330400848281393, 0.4851462237387871856, 0.000000000000000000 ) ) ;
#4 = DIRECTION ( 'NONE',  ( -0.000000000000000000, -0.000000000000000000, -1.000000000000000000 ) ) ;
#5 = EDGE_LOOP ( 'NONE', ( #651, #673 ) ) ;
#6 = ADVANCED_FACE ( 'NONE', ( #757 ), #753, .F. ) ;
#7 = AXIS2_PLACEMENT_3D ( 'NONE', #744, #294, #235 ) ;
#8 = CIRCLE ( 'NONE', #295, 1.500000000000001332 ) ;
#9 = DIRECTION ( 'NONE',  ( -0.000000000000000000, -0.000000000000000000, -1.000000000000000000 ) ) ;
#10 = EDGE_LOOP ( 'NONE', ( #967, #768, #429, #318 ) ) ;
#11 = ADVANCED_FACE ( 'NONE', ( #763 ), #988, .F. ) ;
#12 = CARTESIAN_POINT ( 'NONE',  ( 17.50000000000000000, 5.665837688104247150, 0.000000000000000000 ) ) ;
#13 = DIRECTION ( 'NONE',  ( -0.000000000000000000, -0.000000000000000000, -1.000000000000000000 ) ) ;
#14 = PLANE ( 'NONE',  #778 ) ;
#15 = ORIENTED_EDGE ( 'NONE', *, *, #613, .T. ) ;
#16 = LINE ( 'NONE', #638, #307 ) ;
#17 = FACE_OUTER_BOUND ( 'NONE', #284, .T. ) ;
#18 = VECTOR ( 'NONE', #355, 1000.000000000000000 ) ;
#19 = VERTEX_POINT ( 'NONE', #916 ) ;
#20 = CLOSED_SHELL ( 'NONE', ( #467, #354, #875, #272, #103, #127, #621, #982, #6, #947, #605, #869, #143, #217, #545, #242, #11, #48, #888, #530, #742, #645, #437, #814, #509, #22, #665, #387 ) ) ;
#21 = FILL_AREA_STYLE ('',( #335 ) ) ;
#22 = ADVANCED_FACE ( 'NONE', ( #596 ), #136, .F. ) ;
#23 = LINE ( 'NONE', #921, #273 ) ;
#24 = ORIENTED_EDGE ( 'NONE', *, *, #845, .F. ) ;
#25 = SURFACE_STYLE_USAGE ( .BOTH. , #865 ) ;
#26 = DIRECTION ( 'NONE',  ( 0.000000000000000000, 0.000000000000000000, 1.000000000000000000 ) ) ;
#27 = EDGE_LOOP ( 'NONE', ( #292, #251, #323, #733 ) ) ;
#28 = EDGE_CURVE ( 'NONE', #914, #959, #853, .T. ) ;
#29 = LINE ( 'NONE', #643, #298 ) ;
#30 = CARTESIAN_POINT ( 'NONE',  ( 10.19683296429715469, 2.350343297401874310, 3.000000000000000000 ) ) ;
#31 =( LENGTH_UNIT ( ) NAMED_UNIT ( * ) SI_UNIT ( .MILLI., .METRE. ) );
#32 = PRESENTATION_LAYER_ASSIGNMENT (  '', '', ( #960 ) ) ;
#33 = FACE_OUTER_BOUND ( 'NONE', #138, .T. ) ;
#34 = ORIENTED_EDGE ( 'NONE', *, *, #197, .T. ) ;
#35 = CARTESIAN_POINT ( 'NONE',  ( -29.99999999999999645, -29.26931631310612048, 3.000000000000000000 ) ) ;
#36 = ORIENTED_EDGE ( 'NONE', *, *, #68, .F. ) ;
#37 = EDGE_CURVE ( 'NONE', #654, #19, #703, .T. ) ;
#38 =( NAMED_UNIT ( * ) PLANE_ANGLE_UNIT ( ) SI_UNIT ( $, .RADIAN. ) );
#39 = VERTEX_POINT ( 'NONE', #826 ) ;
#40 = VECTOR ( 'NONE', #344, 1000.000000000000000 ) ;
#41 = FACE_OUTER_BOUND ( 'NONE', #115, .T. ) ;
#42 = ORIENTED_EDGE ( 'NONE', *, *, #709, .F. ) ;
#43 = APPLICATION_PROTOCOL_DEFINITION ( 'draft international standard', 'automotive_design', 1998, #694 ) ;
#44 = CARTESIAN_POINT ( 'NONE',  ( -13.35155282022475021, -12.66931631310608353, 3.000000000000000000 ) ) ;
#45 = ORIENTED_EDGE ( 'NONE', *, *, #309, .F. ) ;
#46 = AXIS2_PLACEMENT_3D ( 'NONE', #707, #9, #560 ) ;
#47 = PLANE ( 'NONE',  #731 ) ;
#48 = ADVANCED_FACE ( 'NONE', ( #748 ), #371, .F. ) ;
#49 = CARTESIAN_POINT ( 'NONE',  ( -10.18216463570283814, 2.350343297401846332, 3.000000000000000000 ) ) ;
#50 = ORIENTED_EDGE ( 'NONE', *, *, #902, .F. ) ;
#51 = VECTOR ( 'NONE', #340, 1000.000000000000000 ) ;
#52 = CARTESIAN_POINT ( 'NONE',  ( -7.500000000000000000, 5.665837688104247150, 0.000000000000000000 ) ) ;
#53 = ORIENTED_EDGE ( 'NONE', *, *, #484, .F. ) ;
#54 = LINE ( 'NONE', #135, #480 ) ;
#55 = DIRECTION ( 'NONE',  ( -1.000000000000000000, 0.000000000000000000, 0.000000000000000000 ) ) ;
#56 = CARTESIAN_POINT ( 'NONE',  ( -11.68216463570283814, 2.350343297401846332, 0.000000000000000000 ) ) ;
#57 = ORIENTED_EDGE ( 'NONE', *, *, #490, .T. ) ;
#58 = CARTESIAN_POINT ( 'NONE',  ( -10.18216463570283814, 2.350343297401846332, 0.000000000000000000 ) ) ;
#59 = DIRECTION ( 'NONE',  ( 0.000000000000000000, -1.000000000000000000, 0.000000000000000000 ) ) ;
#60 = LINE ( 'NONE', #754, #751 ) ;
#61 = EDGE_LOOP ( 'NONE', ( #962, #513 ) ) ;
#62 = EDGE_CURVE ( 'NONE', #170, #879, #129, .T. ) ;
#63 = CARTESIAN_POINT ( 'NONE',  ( 11.69683296429715647, 2.350343297401874310, 3.000000000000000000 ) ) ;
#64 = DIRECTION ( 'NONE',  ( -0.4851462237387870191, -0.8744330400848282503, 0.000000000000000000 ) ) ;
#65 = CARTESIAN_POINT ( 'NONE',  ( 13.19683296429715824, 2.350343297401874310, 3.000000000000000000 ) ) ;
#66 = VERTEX_POINT ( 'NONE', #219 ) ;
#67 = VECTOR ( 'NONE', #325, 1000.000000000000114 ) ;
#68 = EDGE_CURVE ( 'NONE', #862, #664, #970, .T. ) ;
#69 = LINE ( 'NONE', #611, #67 ) ;
#70 = DIRECTION ( 'NONE',  ( 0.000000000000000000, -0.000000000000000000, -1.000000000000000000 ) ) ;
#71 = CIRCLE ( 'NONE', #199, 3.009999999999998899 ) ;
#72 = DIRECTION ( 'NONE',  ( 0.000000000000000000, 0.000000000000000000, -1.000000000000000000 ) ) ;
#73 = ORIENTED_EDGE ( 'NONE', *, *, #565, .T. ) ;
#74 = CIRCLE ( 'NONE', #460, 3.010000000000024656 ) ;
#75 = EDGE_CURVE ( 'NONE', #154, #852, #71, .T. ) ;
#76 = DIRECTION ( 'NONE',  ( -0.000000000000000000, -0.000000000000000000, -1.000000000000000000 ) ) ;
#77 = EDGE_CURVE ( 'NONE', #304, #746, #182, .T. ) ;
#78 = DIRECTION ( 'NONE',  ( 0.8744330400848282503, -0.4851462237387870191, 0.000000000000000000 ) ) ;
#79 = CARTESIAN_POINT ( 'NONE',  ( 25.62844717968463470, -7.669380188436526247, 3.000000000000000000 ) ) ;
#80 = EDGE_LOOP ( 'NONE', ( #446, #543, #957, #501 ) ) ;
#81 = CARTESIAN_POINT ( 'NONE',  ( -10.18216463570283814, 2.350343297401846332, 3.000000000000000000 ) ) ;
#82 = DIRECTION ( 'NONE',  ( 0.4851462237387871856, -0.8744330400848281393, 0.000000000000000000 ) ) ;
#83 = EDGE_CURVE ( 'NONE', #887, #794, #612, .T. ) ;
#84 = ORIENTED_EDGE ( 'NONE', *, *, #927, .F. ) ;
#85 = CIRCLE ( 'NONE', #324, 1.500000000000001332 ) ;
#86 = AXIS2_PLACEMENT_3D ( 'NONE', #897, #809, #973 ) ;
#87 = DIRECTION ( 'NONE',  ( -1.000000000000000000, 0.000000000000000000, -0.000000000000000000 ) ) ;
#88 = LINE ( 'NONE', #328, #108 ) ;
#89 = ORIENTED_EDGE ( 'NONE', *, *, #123, .T. ) ;
#90 = CARTESIAN_POINT ( 'NONE',  ( -21.87155282031535819, -17.66938018843654135, 3.000000000000000000 ) ) ;
#91 = ORIENTED_EDGE ( 'NONE', *, *, #75, .T. ) ;
#92 = EDGE_CURVE ( 'NONE', #191, #435, #650, .T. ) ;
#93 = SURFACE_SIDE_STYLE ('',( #719 ) ) ;
#94 = DIRECTION ( 'NONE',  ( 0.000000000000000000, 0.000000000000000000, -1.000000000000000000 ) ) ;
#95 = CARTESIAN_POINT ( 'NONE',  ( -17.50000000000000000, 5.665837688104242709, 0.000000000000000000 ) ) ;
#96 = ORIENTED_EDGE ( 'NONE', *, *, #302, .F. ) ;
#97 = CARTESIAN_POINT ( 'NONE',  ( 11.69683296429715647, 2.350343297401874310, 3.000000000000000000 ) ) ;
#98 = AXIS2_PLACEMENT_3D ( 'NONE', #832, #983, #522 ) ;
#99 = EDGE_CURVE ( 'NONE', #887, #441, #375, .T. ) ;
#100 = FACE_BOUND ( 'NONE', #818, .T. ) ;
#101 = ORIENTED_EDGE ( 'NONE', *, *, #256, .F. ) ;
#102 =( NAMED_UNIT ( * ) PLANE_ANGLE_UNIT ( ) SI_UNIT ( $, .RADIAN. ) );
#103 = ADVANCED_FACE ( 'NONE', ( #289 ), #810, .F. ) ;
#104 = DIRECTION ( 'NONE',  ( -1.156482317317871478E-16, 1.000000000000000000, 0.000000000000000000 ) ) ;
#105 = CIRCLE ( 'NONE', #608, 1.500000000000001332 ) ;
#106 = EDGE_LOOP ( 'NONE', ( #736, #492, #231, #454 ) ) ;
#107 = DIRECTION ( 'NONE',  ( -0.000000000000000000, -0.000000000000000000, -1.000000000000000000 ) ) ;
#108 = VECTOR ( 'NONE', #4, 1000.000000000000000 ) ;
#109 = DIRECTION ( 'NONE',  ( -0.000000000000000000, -0.000000000000000000, -1.000000000000000000 ) ) ;
#110 = DIRECTION ( 'NONE',  ( -1.000000000000000000, 0.000000000000000000, 0.000000000000000000 ) ) ;
#111 = VERTEX_POINT ( 'NONE', #152 ) ;
#112 = EDGE_CURVE ( 'NONE', #890, #654, #439, .T. ) ;
#113 = CARTESIAN_POINT ( 'NONE',  ( -7.331552820224700895, -12.66931631310608353, 3.000000000000000000 ) ) ;
#114 = ORIENTED_EDGE ( 'NONE', *, *, #692, .T. ) ;
#115 = EDGE_LOOP ( 'NONE', ( #677, #84, #629, #34 ) ) ;
#116 = CARTESIAN_POINT ( 'NONE',  ( -21.87155282031536530, -7.669380188436541346, 0.000000000000000000 ) ) ;
#117 = VERTEX_POINT ( 'NONE', #898 ) ;
#118 = AXIS2_PLACEMENT_3D ( 'NONE', #685, #301, #366 ) ;
#119 = CARTESIAN_POINT ( 'NONE',  ( 30.00000000000000000, -1.269316313106113370, 0.000000000000000000 ) ) ;
#120 = ORIENTED_EDGE ( 'NONE', *, *, #658, .T. ) ;
#121 = CARTESIAN_POINT ( 'NONE',  ( -30.00000000000000000, -1.269316313106120919, 0.000000000000000000 ) ) ;
#122 = ORIENTED_EDGE ( 'NONE', *, *, #989, .F. ) ;
#123 = EDGE_CURVE ( 'NONE', #936, #873, #968, .T. ) ;
#124 = ORIENTED_EDGE ( 'NONE', *, *, #461, .F. ) ;
#125 = PLANE ( 'NONE',  #380 ) ;
#126 = ORIENTED_EDGE ( 'NONE', *, *, #722, .F. ) ;
#127 = ADVANCED_FACE ( 'NONE', ( #463 ), #925, .F. ) ;
#128 = DIRECTION ( 'NONE',  ( -0.000000000000000000, -0.000000000000000000, -1.000000000000000000 ) ) ;
#129 = LINE ( 'NONE', #920, #165 ) ;
#130 = AXIS2_PLACEMENT_3D ( 'NONE', #63, #370, #300 ) ;
#131 = CIRCLE ( 'NONE', #174, 1.500000000000001332 ) ;
#132 = DIRECTION ( 'NONE',  ( -1.000000000000000000, 0.000000000000000000, 0.000000000000000000 ) ) ;
#133 = ORIENTED_EDGE ( 'NONE', *, *, #256, .T. ) ;
#134 = CIRCLE ( 'NONE', #886, 1.500000000000001332 ) ;
#135 = CARTESIAN_POINT ( 'NONE',  ( -30.00000000000000000, -1.269316313106120919, 3.000000000000000000 ) ) ;
#136 = CYLINDRICAL_SURFACE ( 'NONE', #442, 1.500000000000001332 ) ;
#137 = DIRECTION ( 'NONE',  ( -0.000000000000000000, -0.000000000000000000, -1.000000000000000000 ) ) ;
#138 = EDGE_LOOP ( 'NONE', ( #50, #775, #991, #604 ) ) ;
#139 = CARTESIAN_POINT ( 'NONE',  ( -23.37155282031536174, -17.66938018843654135, 0.000000000000000000 ) ) ;
#140 = ADVANCED_BREP_SHAPE_REPRESENTATION ( 'bianpian从', ( #829, #421 ), #436 ) ;
#141 = CARTESIAN_POINT ( 'NONE',  ( 7.500000000000000000, 0.000000000000000000, 3.000000000000000000 ) ) ;
#142 = CARTESIAN_POINT ( 'NONE',  ( -10.34155282022472555, -12.66931631310608353, 3.000000000000000000 ) ) ;
#143 = ADVANCED_FACE ( 'NONE', ( #839 ), #767, .F. ) ;
#144 = ORIENTED_EDGE ( 'NONE', *, *, #320, .T. ) ;
#145 = CARTESIAN_POINT ( 'NONE',  ( 7.500000000000000000, 5.665837688104247150, 0.000000000000000000 ) ) ;
#146 = AXIS2_PLACEMENT_3D ( 'NONE', #935, #316, #87 ) ;
#147 = LINE ( 'NONE', #283, #791 ) ;
#148 = ORIENTED_EDGE ( 'NONE', *, *, #927, .T. ) ;
#149 = AXIS2_PLACEMENT_3D ( 'NONE', #854, #109, #478 ) ;
#150 = DIRECTION ( 'NONE',  ( -1.000000000000000000, 0.000000000000000000, 0.000000000000000000 ) ) ;
#151 = CARTESIAN_POINT ( 'NONE',  ( -13.35155282022475021, -12.66931631310608353, 0.000000000000000000 ) ) ;
#152 = CARTESIAN_POINT ( 'NONE',  ( -24.87155282031536885, -7.669380188436541346, 3.000000000000000000 ) ) ;
#153 = DIRECTION ( 'NONE',  ( -0.000000000000000000, -0.000000000000000000, -1.000000000000000000 ) ) ;
#154 = VERTEX_POINT ( 'NONE', #314 ) ;
#155 = CIRCLE ( 'NONE', #489, 1.500000000000001332 ) ;
#156 = EDGE_CURVE ( 'NONE', #590, #198, #74, .T. ) ;
#157 = FACE_BOUND ( 'NONE', #900, .T. ) ;
#158 = DIRECTION ( 'NONE',  ( -1.000000000000000000, 0.000000000000000000, 0.000000000000000000 ) ) ;
#159 = CYLINDRICAL_SURFACE ( 'NONE', #46, 1.499999999999999556 ) ;
#160 = EDGE_LOOP ( 'NONE', ( #176, #796, #359, #36 ) ) ;
#161 = DIRECTION ( 'NONE',  ( -0.000000000000000000, -0.000000000000000000, -1.000000000000000000 ) ) ;
#162 = UNCERTAINTY_MEASURE_WITH_UNIT (LENGTH_MEASURE( 1.000000000000000082E-05 ), #634, 'distance_accuracy_value', 'NONE');
#163 = ORIENTED_EDGE ( 'NONE', *, *, #369, .T. ) ;
#164 = ORIENTED_EDGE ( 'NONE', *, *, #850, .F. ) ;
#165 = VECTOR ( 'NONE', #282, 1000.000000000000000 ) ;
#166 = CARTESIAN_POINT ( 'NONE',  ( 30.00000000000000355, -29.26931631310611337, 0.000000000000000000 ) ) ;
#167 = CARTESIAN_POINT ( 'NONE',  ( 12.15844717968458966, -12.66938018843652358, 0.000000000000000000 ) ) ;
#168 = CIRCLE ( 'NONE', #332, 1.499999999999999556 ) ;
#169 = CARTESIAN_POINT ( 'NONE',  ( 25.62844717968463470, -17.66938018843652358, 3.000000000000000000 ) ) ;
#170 = VERTEX_POINT ( 'NONE', #121 ) ;
#171 = EDGE_CURVE ( 'NONE', #459, #862, #155, .T. ) ;
#172 = FACE_OUTER_BOUND ( 'NONE', #893, .T. ) ;
#173 = DIRECTION ( 'NONE',  ( 1.000000000000000000, 0.000000000000000000, 0.000000000000000000 ) ) ;
#174 = AXIS2_PLACEMENT_3D ( 'NONE', #139, #516, #606 ) ;
#175 = DIRECTION ( 'NONE',  ( 0.000000000000000000, 0.000000000000000000, -1.000000000000000000 ) ) ;
#176 = ORIENTED_EDGE ( 'NONE', *, *, #171, .F. ) ;
#177 = LINE ( 'NONE', #166, #51 ) ;
#178 = AXIS2_PLACEMENT_3D ( 'NONE', #625, #622, #928 ) ;
#179 = PLANE ( 'NONE',  #520 ) ;
#180 = EDGE_LOOP ( 'NONE', ( #951, #930, #738, #508 ) ) ;
#181 = DIRECTION ( 'NONE',  ( 1.000000000000000000, 4.336808689942016750E-16, 0.000000000000000000 ) ) ;
#182 = CIRCLE ( 'NONE', #118, 3.010000000000024656 ) ;
#183 = EDGE_CURVE ( 'NONE', #333, #598, #806, .T. ) ;
#184 = CARTESIAN_POINT ( 'NONE',  ( -23.37155282031536174, -17.66938018843654135, 3.000000000000000000 ) ) ;
#185 = EDGE_LOOP ( 'NONE', ( #586, #164, #885, #427 ) ) ;
#186 = DIRECTION ( 'NONE',  ( 1.000000000000000000, 1.239088197126290817E-16, -0.000000000000000000 ) ) ;
#187 = ORIENTED_EDGE ( 'NONE', *, *, #803, .T. ) ;
#188 =( NAMED_UNIT ( * ) SI_UNIT ( $, .STERADIAN. ) SOLID_ANGLE_UNIT ( ) );
#189 = AXIS2_PLACEMENT_3D ( 'NONE', #225, #153, #764 ) ;
#190 = DIRECTION ( 'NONE',  ( 0.000000000000000000, 0.000000000000000000, -1.000000000000000000 ) ) ;
#191 = VERTEX_POINT ( 'NONE', #116 ) ;
#192 = DIRECTION ( 'NONE',  ( 0.000000000000000000, 0.000000000000000000, -1.000000000000000000 ) ) ;
#193 = EDGE_LOOP ( 'NONE', ( #91, #267 ) ) ;
#194 = AXIS2_PLACEMENT_3D ( 'NONE', #97, #790, #402 ) ;
#195 = ORIENTED_EDGE ( 'NONE', *, *, #786, .T. ) ;
#196 = DIRECTION ( 'NONE',  ( -0.000000000000000000, -0.000000000000000000, -1.000000000000000000 ) ) ;
#197 = EDGE_CURVE ( 'NONE', #117, #310, #498, .T. ) ;
#198 = VERTEX_POINT ( 'NONE', #113 ) ;
#199 = AXIS2_PLACEMENT_3D ( 'NONE', #528, #618, #536 ) ;
#200 = LINE ( 'NONE', #49, #948 ) ;
#201 = ORIENTED_EDGE ( 'NONE', *, *, #760, .T. ) ;
#202 = AXIS2_PLACEMENT_3D ( 'NONE', #730, #428, #735 ) ;
#203 = CARTESIAN_POINT ( 'NONE',  ( -23.37155282031536174, -17.66938018843654135, 3.000000000000000000 ) ) ;
#204 = VERTEX_POINT ( 'NONE', #487 ) ;
#205 = EDGE_CURVE ( 'NONE', #620, #936, #278, .T. ) ;
#206 = CARTESIAN_POINT ( 'NONE',  ( -24.87155282031536174, -17.66938018843654135, 0.000000000000000000 ) ) ;
#207 = ORIENTED_EDGE ( 'NONE', *, *, #197, .F. ) ;
#208 = CARTESIAN_POINT ( 'NONE',  ( 9.148447179684589869, -12.66938018843652358, 3.000000000000000000 ) ) ;
#209 = ORIENTED_EDGE ( 'NONE', *, *, #891, .F. ) ;
#210 = EDGE_CURVE ( 'NONE', #794, #792, #264, .T. ) ;
#211 = CARTESIAN_POINT ( 'NONE',  ( 7.500000000000000000, 5.665837688104247150, 0.000000000000000000 ) ) ;
#212 = DIRECTION ( 'NONE',  ( 0.000000000000000000, 0.000000000000000000, -1.000000000000000000 ) ) ;
#213 = VECTOR ( 'NONE', #714, 1000.000000000000000 ) ;
#214 = AXIS2_PLACEMENT_3D ( 'NONE', #963, #128, #669 ) ;
#215 = CYLINDRICAL_SURFACE ( 'NONE', #336, 3.010000000000024656 ) ;
#216 = ORIENTED_EDGE ( 'NONE', *, *, #210, .F. ) ;
#217 = ADVANCED_FACE ( 'NONE', ( #424 ), #125, .F. ) ;
#218 = DIRECTION ( 'NONE',  ( -1.000000000000000000, -4.336808689942017243E-16, 0.000000000000000000 ) ) ;
#219 = CARTESIAN_POINT ( 'NONE',  ( 30.00000000000000000, -1.269316313106113370, 0.000000000000000000 ) ) ;
#220 = AXIS2_PLACEMENT_3D ( 'NONE', #681, #984, #675 ) ;
#221 = DIRECTION ( 'NONE',  ( -0.000000000000000000, -0.000000000000000000, -1.000000000000000000 ) ) ;
#222 = ORIENTED_EDGE ( 'NONE', *, *, #497, .F. ) ;
#223 = DIRECTION ( 'NONE',  ( -1.000000000000000000, 0.000000000000000000, 0.000000000000000000 ) ) ;
#224 = DIRECTION ( 'NONE',  ( -1.000000000000000000, 0.000000000000000000, 0.000000000000000000 ) ) ;
#225 = CARTESIAN_POINT ( 'NONE',  ( -10.34155282022472555, -12.66931631310608353, 3.000000000000000000 ) ) ;
#226 = ORIENTED_EDGE ( 'NONE', *, *, #311, .T. ) ;
#227 = DIRECTION ( 'NONE',  ( -0.000000000000000000, -0.000000000000000000, -1.000000000000000000 ) ) ;
#228 = DIRECTION ( 'NONE',  ( -1.000000000000000000, 0.000000000000000000, 0.000000000000000000 ) ) ;
#229 = VECTOR ( 'NONE', #13, 1000.000000000000000 ) ;
#230 = CARTESIAN_POINT ( 'NONE',  ( 7.500000000000000000, 0.000000000000000000, 0.000000000000000000 ) ) ;
#231 = ORIENTED_EDGE ( 'NONE', *, *, #83, .T. ) ;
#232 = EDGE_CURVE ( 'NONE', #198, #590, #395, .T. ) ;
#233 = AXIS2_PLACEMENT_3D ( 'NONE', #563, #104, #870 ) ;
#234 = DIRECTION ( 'NONE',  ( -0.8744330400848283613, 0.4851462237387870191, -0.000000000000000000 ) ) ;
#235 = DIRECTION ( 'NONE',  ( -1.000000000000000000, 0.000000000000000000, 0.000000000000000000 ) ) ;
#236 = VERTEX_POINT ( 'NONE', #666 ) ;
#237 = LINE ( 'NONE', #777, #581 ) ;
#238 = CARTESIAN_POINT ( 'NONE',  ( -7.500000000000000000, 0.000000000000000000, 3.000000000000000000 ) ) ;
#239 = ORIENTED_EDGE ( 'NONE', *, *, #77, .T. ) ;
#240 = CIRCLE ( 'NONE', #657, 1.500000000000001332 ) ;
#241 = CARTESIAN_POINT ( 'NONE',  ( 15.16844717968458767, -12.66938018843652358, 0.000000000000000000 ) ) ;
#242 = ADVANCED_FACE ( 'NONE', ( #41 ), #47, .F. ) ;
#243 = FACE_BOUND ( 'NONE', #755, .T. ) ;
#244 = ORIENTED_EDGE ( 'NONE', *, *, #417, .T. ) ;
#245 = AXIS2_PLACEMENT_3D ( 'NONE', #684, #910, #223 ) ;
#246 = CARTESIAN_POINT ( 'NONE',  ( -17.50000000000000000, 5.665837688104242709, 3.000000000000000000 ) ) ;
#247 = EDGE_CURVE ( 'NONE', #986, #486, #660, .T. ) ;
#248 = EDGE_LOOP ( 'NONE', ( #877, #207, #53, #410 ) ) ;
#249 = DIRECTION ( 'NONE',  ( 0.000000000000000000, 1.000000000000000000, 0.000000000000000000 ) ) ;
#250 = LINE ( 'NONE', #404, #413 ) ;
#251 = ORIENTED_EDGE ( 'NONE', *, *, #75, .F. ) ;
#252 = EDGE_CURVE ( 'NONE', #19, #654, #408, .T. ) ;
#253 = CARTESIAN_POINT ( 'NONE',  ( 7.500000000000000000, 0.000000000000000000, 3.000000000000000000 ) ) ;
#254 = FILL_AREA_STYLE_COLOUR ( '', #813 ) ;
#255 = ORIENTED_EDGE ( 'NONE', *, *, #599, .T. ) ;
#256 = EDGE_CURVE ( 'NONE', #772, #236, #168, .T. ) ;
#257 = CARTESIAN_POINT ( 'NONE',  ( 15.16844717968458767, -12.66938018843652358, 3.000000000000000000 ) ) ;
#258 = CIRCLE ( 'NONE', #617, 1.500000000000001332 ) ;
#259 = ORIENTED_EDGE ( 'NONE', *, *, #837, .F. ) ;
#260 = CARTESIAN_POINT ( 'NONE',  ( 11.69683296429715647, 2.350343297401874310, 0.000000000000000000 ) ) ;
#261 = ORIENTED_EDGE ( 'NONE', *, *, #557, .F. ) ;
#262 = DIRECTION ( 'NONE',  ( -0.000000000000000000, -0.000000000000000000, -1.000000000000000000 ) ) ;
#263 = PRODUCT_CONTEXT ( 'NONE', #558, 'mechanical' ) ;
#264 = CIRCLE ( 'NONE', #819, 1.500000000000001332 ) ;
#265 = ORIENTED_EDGE ( 'NONE', *, *, #565, .F. ) ;
#266 = DIRECTION ( 'NONE',  ( -0.8744330400848283613, 0.4851462237387870191, -0.000000000000000000 ) ) ;
#267 = ORIENTED_EDGE ( 'NONE', *, *, #822, .T. ) ;
#268 = CARTESIAN_POINT ( 'NONE',  ( -11.68216463570283814, 2.350343297401846332, 0.000000000000000000 ) ) ;
#269 = ORIENTED_EDGE ( 'NONE', *, *, #891, .T. ) ;
#270 = VECTOR ( 'NONE', #784, 1000.000000000000000 ) ;
#271 = EDGE_LOOP ( 'NONE', ( #275, #798, #343, #944 ) ) ;
#272 = ADVANCED_FACE ( 'NONE', ( #507 ), #894, .F. ) ;
#273 = VECTOR ( 'NONE', #573, 1000.000000000000000 ) ;
#274 = CARTESIAN_POINT ( 'NONE',  ( 17.50000000000000000, 5.665837688104247150, 3.000000000000000000 ) ) ;
#275 = ORIENTED_EDGE ( 'NONE', *, *, #941, .F. ) ;
#276 = LINE ( 'NONE', #969, #532 ) ;
#277 = ORIENTED_EDGE ( 'NONE', *, *, #426, .T. ) ;
#278 = LINE ( 'NONE', #797, #686 ) ;
#279 = ORIENTED_EDGE ( 'NONE', *, *, #247, .T. ) ;
#280 = VECTOR ( 'NONE', #846, 1000.000000000000000 ) ;
#281 = LINE ( 'NONE', #438, #644 ) ;
#282 = DIRECTION ( 'NONE',  ( 1.239088197126290817E-16, -1.000000000000000000, 0.000000000000000000 ) ) ;
#283 = CARTESIAN_POINT ( 'NONE',  ( 7.500000000000000000, 5.665837688104247150, 3.000000000000000000 ) ) ;
#284 = EDGE_LOOP ( 'NONE', ( #45, #633, #479, #800 ) ) ;
#285 = EDGE_CURVE ( 'NONE', #350, #879, #793, .T. ) ;
#286 = PRODUCT_DEFINITION_CONTEXT ( 'detailed design', #694, 'design' ) ;
#287 = VECTOR ( 'NONE', #892, 1000.000000000000000 ) ;
#288 = LINE ( 'NONE', #601, #515 ) ;
#289 = FACE_OUTER_BOUND ( 'NONE', #721, .T. ) ;
#290 = COLOUR_RGB ( '',1.000000000000000000, 1.000000000000000000, 1.000000000000000000 ) ;
#291 = DIRECTION ( 'NONE',  ( -0.000000000000000000, -0.000000000000000000, -1.000000000000000000 ) ) ;
#292 = ORIENTED_EDGE ( 'NONE', *, *, #678, .F. ) ;
#293 = CYLINDRICAL_SURFACE ( 'NONE', #214, 3.009999999999998899 ) ;
#294 = DIRECTION ( 'NONE',  ( 0.000000000000000000, 0.000000000000000000, -1.000000000000000000 ) ) ;
#295 = AXIS2_PLACEMENT_3D ( 'NONE', #337, #640, #414 ) ;
#296 = DIRECTION ( 'NONE',  ( -1.000000000000000000, 0.000000000000000000, 0.000000000000000000 ) ) ;
#297 = VERTEX_POINT ( 'NONE', #52 ) ;
#298 = VECTOR ( 'NONE', #221, 1000.000000000000000 ) ;
#299 = CIRCLE ( 'NONE', #575, 3.010000000000024656 ) ;
#300 = DIRECTION ( 'NONE',  ( -1.000000000000000000, 0.000000000000000000, 0.000000000000000000 ) ) ;
#301 = DIRECTION ( 'NONE',  ( 0.000000000000000000, 0.000000000000000000, -1.000000000000000000 ) ) ;
#302 = EDGE_CURVE ( 'NONE', #574, #740, #649, .T. ) ;
#303 = DIRECTION ( 'NONE',  ( -0.000000000000000000, -0.000000000000000000, -1.000000000000000000 ) ) ;
#304 = VERTEX_POINT ( 'NONE', #801 ) ;
#305 = DIRECTION ( 'NONE',  ( 0.000000000000000000, -1.000000000000000000, 0.000000000000000000 ) ) ;
#306 = CARTESIAN_POINT ( 'NONE',  ( 25.62844717968463470, -17.66938018843652358, 0.000000000000000000 ) ) ;
#307 = VECTOR ( 'NONE', #249, 1000.000000000000000 ) ;
#308 = LINE ( 'NONE', #238, #844 ) ;
#309 = EDGE_CURVE ( 'NONE', #890, #726, #105, .T. ) ;
#310 = VERTEX_POINT ( 'NONE', #723 ) ;
#311 = EDGE_CURVE ( 'NONE', #204, #297, #29, .T. ) ;
#312 = DIRECTION ( 'NONE',  ( -1.000000000000000000, 0.000000000000000000, 0.000000000000000000 ) ) ;
#313 = UNCERTAINTY_MEASURE_WITH_UNIT (LENGTH_MEASURE( 1.000000000000000082E-05 ), #31, 'distance_accuracy_value', 'NONE');
#314 = CARTESIAN_POINT ( 'NONE',  ( 9.148447179684589869, -12.66938018843652358, 3.000000000000000000 ) ) ;
#315 = ORIENTED_EDGE ( 'NONE', *, *, #882, .T. ) ;
#316 = DIRECTION ( 'NONE',  ( 0.000000000000000000, 0.000000000000000000, -1.000000000000000000 ) ) ;
#317 = DIRECTION ( 'NONE',  ( -1.000000000000000000, -0.000000000000000000, -0.000000000000000000 ) ) ;
#318 = ORIENTED_EDGE ( 'NONE', *, *, #850, .T. ) ;
#319 = CARTESIAN_POINT ( 'NONE',  ( 13.19683296429715824, 2.350343297401874310, 3.000000000000000000 ) ) ;
#320 = EDGE_CURVE ( 'NONE', #620, #400, #668, .T. ) ;
#321 = DIRECTION ( 'NONE',  ( -1.000000000000000000, 0.000000000000000000, 0.000000000000000000 ) ) ;
#322 = CARTESIAN_POINT ( 'NONE',  ( 0.000000000000000000, 0.000000000000000000, 0.000000000000000000 ) ) ;
#323 = ORIENTED_EDGE ( 'NONE', *, *, #327, .T. ) ;
#324 = AXIS2_PLACEMENT_3D ( 'NONE', #848, #94, #761 ) ;
#325 = DIRECTION ( 'NONE',  ( -0.8744330400848281393, -0.4851462237387871856, 0.000000000000000000 ) ) ;
#326 = DIRECTION ( 'NONE',  ( -1.000000000000000000, 0.000000000000000000, 0.000000000000000000 ) ) ;
#327 = EDGE_CURVE ( 'NONE', #154, #469, #378, .T. ) ;
#328 = CARTESIAN_POINT ( 'NONE',  ( -21.87155282031536530, -7.669380188436541346, 3.000000000000000000 ) ) ;
#329 = ORIENTED_EDGE ( 'NONE', *, *, #692, .F. ) ;
#330 = DIRECTION ( 'NONE',  ( 0.000000000000000000, 0.000000000000000000, -1.000000000000000000 ) ) ;
#331 =( NAMED_UNIT ( * ) SI_UNIT ( $, .STERADIAN. ) SOLID_ANGLE_UNIT ( ) );
#332 = AXIS2_PLACEMENT_3D ( 'NONE', #268, #961, #739 ) ;
#333 = VERTEX_POINT ( 'NONE', #672 ) ;
#334 = PRODUCT_RELATED_PRODUCT_CATEGORY ( 'part', '', ( #783 ) ) ;
#335 = FILL_AREA_STYLE_COLOUR ( '', #290 ) ;
#336 = AXIS2_PLACEMENT_3D ( 'NONE', #142, #303, #835 ) ;
#337 = CARTESIAN_POINT ( 'NONE',  ( 25.62844717968463470, -7.669380188436526247, 3.000000000000000000 ) ) ;
#338 = ORIENTED_EDGE ( 'NONE', *, *, #156, .T. ) ;
#339 = DIRECTION ( 'NONE',  ( -1.000000000000000000, -1.239088197126290817E-16, 0.000000000000000000 ) ) ;
#340 = DIRECTION ( 'NONE',  ( 1.000000000000000000, 1.156482317317871478E-16, -0.000000000000000000 ) ) ;
#341 = MECHANICAL_DESIGN_GEOMETRIC_PRESENTATION_REPRESENTATION (  '', ( #388 ), #883 ) ;
#342 = FILL_AREA_STYLE ('',( #254 ) ) ;
#343 = ORIENTED_EDGE ( 'NONE', *, *, #68, .T. ) ;
#344 = DIRECTION ( 'NONE',  ( -0.000000000000000000, -0.000000000000000000, -1.000000000000000000 ) ) ;
#345 = EDGE_LOOP ( 'NONE', ( #349, #972, #847, #765 ) ) ;
#346 = VECTOR ( 'NONE', #655, 1000.000000000000000 ) ;
#347 = ORIENTED_EDGE ( 'NONE', *, *, #432, .T. ) ;
#348 = DIRECTION ( 'NONE',  ( 1.239088197126290817E-16, -1.000000000000000000, 0.000000000000000000 ) ) ;
#349 = ORIENTED_EDGE ( 'NONE', *, *, #62, .T. ) ;
#350 = VERTEX_POINT ( 'NONE', #512 ) ;
#351 = CARTESIAN_POINT ( 'NONE',  ( 30.00000000000000355, -29.26931631310611337, 3.000000000000000000 ) ) ;
#352 = ORIENTED_EDGE ( 'NONE', *, *, #613, .F. ) ;
#353 = VECTOR ( 'NONE', #218, 1000.000000000000000 ) ;
#354 = ADVANCED_FACE ( 'NONE', ( #811 ), #758, .F. ) ;
#355 = DIRECTION ( 'NONE',  ( -1.000000000000000000, -0.000000000000000000, -0.000000000000000000 ) ) ;
#356 = ORIENTED_EDGE ( 'NONE', *, *, #912, .T. ) ;
#357 = EDGE_CURVE ( 'NONE', #683, #368, #687, .T. ) ;
#358 = CARTESIAN_POINT ( 'NONE',  ( -10.34155282022472555, -12.66931631310608353, 3.000000000000000000 ) ) ;
#359 = ORIENTED_EDGE ( 'NONE', *, *, #716, .T. ) ;
#360 = CARTESIAN_POINT ( 'NONE',  ( 27.12844717968463470, -17.66938018843652358, 0.000000000000000000 ) ) ;
#361 = DIRECTION ( 'NONE',  ( 0.000000000000000000, 0.000000000000000000, -1.000000000000000000 ) ) ;
#362 = DIRECTION ( 'NONE',  ( 0.000000000000000000, 0.000000000000000000, -1.000000000000000000 ) ) ;
#363 = EDGE_CURVE ( 'NONE', #400, #873, #609, .T. ) ;
#364 = ORIENTED_EDGE ( 'NONE', *, *, #716, .F. ) ;
#365 = CARTESIAN_POINT ( 'NONE',  ( -7.500000000000000000, 5.665837688104247150, 3.000000000000000000 ) ) ;
#366 = DIRECTION ( 'NONE',  ( -1.000000000000000000, 0.000000000000000000, 0.000000000000000000 ) ) ;
#367 = FACE_OUTER_BOUND ( 'NONE', #271, .T. ) ;
#368 = VERTEX_POINT ( 'NONE', #230 ) ;
#369 = EDGE_CURVE ( 'NONE', #740, #871, #745, .T. ) ;
#370 = DIRECTION ( 'NONE',  ( 0.000000000000000000, 0.000000000000000000, -1.000000000000000000 ) ) ;
#371 = PLANE ( 'NONE',  #391 ) ;
#372 = AXIS2_PLACEMENT_3D ( 'NONE', #855, #305, #987 ) ;
#373 = DIRECTION ( 'NONE',  ( -1.000000000000000000, -4.336808689942017243E-16, 0.000000000000000000 ) ) ;
#374 = ORIENTED_EDGE ( 'NONE', *, *, #426, .F. ) ;
#375 = CIRCLE ( 'NONE', #908, 1.500000000000001332 ) ;
#376 = CARTESIAN_POINT ( 'NONE',  ( 24.12844717968463115, -17.66938018843652358, 3.000000000000000000 ) ) ;
#377 = CARTESIAN_POINT ( 'NONE',  ( -24.87155282031536174, -17.66938018843654135, 3.000000000000000000 ) ) ;
#378 = LINE ( 'NONE', #208, #430 ) ;
#379 = EDGE_LOOP ( 'NONE', ( #836, #564, #239, #933 ) ) ;
#380 = AXIS2_PLACEMENT_3D ( 'NONE', #872, #186, #788 ) ;
#381 = FACE_BOUND ( 'NONE', #866, .T. ) ;
#382 = PLANE ( 'NONE',  #582 ) ;
#383 = DIRECTION ( 'NONE',  ( -0.000000000000000000, -0.000000000000000000, -1.000000000000000000 ) ) ;
#384 = DIRECTION ( 'NONE',  ( -1.000000000000000000, 0.000000000000000000, 0.000000000000000000 ) ) ;
#385 = ORIENTED_EDGE ( 'NONE', *, *, #99, .T. ) ;
#386 = CARTESIAN_POINT ( 'NONE',  ( -17.50000000000000000, 5.665837688104242709, 3.000000000000000000 ) ) ;
#387 = ADVANCED_FACE ( 'NONE', ( #823 ), #215, .F. ) ;
#388 = STYLED_ITEM ( 'NONE', ( #715 ), #140 ) ;
#389 = ORIENTED_EDGE ( 'NONE', *, *, #205, .T. ) ;
#390 = CARTESIAN_POINT ( 'NONE',  ( -23.37155282031536885, -7.669380188436541346, 3.000000000000000000 ) ) ;
#391 = AXIS2_PLACEMENT_3D ( 'NONE', #607, #59, #70 ) ;
#392 = FACE_BOUND ( 'NONE', #667, .T. ) ;
#393 = EDGE_LOOP ( 'NONE', ( #269, #592, #96, #148 ) ) ;
#394 = EDGE_CURVE ( 'NONE', #236, #772, #860, .T. ) ;
#395 = CIRCLE ( 'NONE', #202, 3.010000000000024656 ) ;
#396 = CARTESIAN_POINT ( 'NONE',  ( -23.37155282031536174, -17.66938018843654135, 0.000000000000000000 ) ) ;
#397 = ORIENTED_EDGE ( 'NONE', *, *, #842, .T. ) ;
#398 = DIRECTION ( 'NONE',  ( -1.239088197126290817E-16, 1.000000000000000000, -0.000000000000000000 ) ) ;
#399 = DIRECTION ( 'NONE',  ( 0.000000000000000000, 0.000000000000000000, -1.000000000000000000 ) ) ;
#400 = VERTEX_POINT ( 'NONE', #458 ) ;
#401 = CIRCLE ( 'NONE', #178, 3.009999999999998899 ) ;
#402 = DIRECTION ( 'NONE',  ( -1.000000000000000000, 0.000000000000000000, 0.000000000000000000 ) ) ;
#403 = EDGE_CURVE ( 'NONE', #740, #425, #147, .T. ) ;
#404 = CARTESIAN_POINT ( 'NONE',  ( -17.50000000000000000, 5.665837688104242709, 0.000000000000000000 ) ) ;
#405 = ORIENTED_EDGE ( 'NONE', *, *, #205, .F. ) ;
#406 = AXIS2_PLACEMENT_3D ( 'NONE', #602, #833, #228 ) ;
#407 = LINE ( 'NONE', #319, #213 ) ;
#408 = CIRCLE ( 'NONE', #909, 1.500000000000001332 ) ;
#409 = CARTESIAN_POINT ( 'NONE',  ( -7.500000000000000000, 0.000000000000000000, 3.000000000000000000 ) ) ;
#410 = ORIENTED_EDGE ( 'NONE', *, *, #285, .T. ) ;
#411 = DIRECTION ( 'NONE',  ( -1.000000000000000000, 0.000000000000000000, 0.000000000000000000 ) ) ;
#412 = LINE ( 'NONE', #949, #600 ) ;
#413 = VECTOR ( 'NONE', #771, 1000.000000000000114 ) ;
#414 = DIRECTION ( 'NONE',  ( -1.000000000000000000, 0.000000000000000000, 0.000000000000000000 ) ) ;
#415 = ORIENTED_EDGE ( 'NONE', *, *, #327, .F. ) ;
#416 = DIRECTION ( 'NONE',  ( -1.000000000000000000, 0.000000000000000000, 0.000000000000000000 ) ) ;
#417 = EDGE_CURVE ( 'NONE', #746, #304, #299, .T. ) ;
#418 = ORIENTED_EDGE ( 'NONE', *, *, #776, .T. ) ;
#419 = VECTOR ( 'NONE', #562, 1000.000000000000000 ) ;
#420 = SURFACE_STYLE_FILL_AREA ( #342 ) ;
#421 = AXIS2_PLACEMENT_3D ( 'NONE', #720, #943, #173 ) ;
#422 = DIRECTION ( 'NONE',  ( -1.000000000000000000, 0.000000000000000000, 0.000000000000000000 ) ) ;
#423 = ORIENTED_EDGE ( 'NONE', *, *, #311, .F. ) ;
#424 = FACE_OUTER_BOUND ( 'NONE', #345, .T. ) ;
#425 = VERTEX_POINT ( 'NONE', #518 ) ;
#426 = EDGE_CURVE ( 'NONE', #959, #914, #859, .T. ) ;
#427 = ORIENTED_EDGE ( 'NONE', *, *, #966, .T. ) ;
#428 = DIRECTION ( 'NONE',  ( 0.000000000000000000, 0.000000000000000000, -1.000000000000000000 ) ) ;
#429 = ORIENTED_EDGE ( 'NONE', *, *, #483, .F. ) ;
#430 = VECTOR ( 'NONE', #137, 1000.000000000000000 ) ;
#431 = AXIS2_PLACEMENT_3D ( 'NONE', #453, #614, #384 ) ;
#432 = EDGE_CURVE ( 'NONE', #297, #486, #60, .T. ) ;
#433 = ORIENTED_EDGE ( 'NONE', *, *, #171, .T. ) ;
#434 = DIRECTION ( 'NONE',  ( 0.000000000000000000, 0.000000000000000000, -1.000000000000000000 ) ) ;
#435 = VERTEX_POINT ( 'NONE', #975 ) ;
#436 =( GEOMETRIC_REPRESENTATION_CONTEXT ( 3 ) GLOBAL_UNCERTAINTY_ASSIGNED_CONTEXT ( ( #313 ) ) GLOBAL_UNIT_ASSIGNED_CONTEXT ( ( #31, #38, #331 ) ) REPRESENTATION_CONTEXT ( 'NONE', 'WORKASPACE' ) );
#437 = ADVANCED_FACE ( 'NONE', ( #367 ), #917, .F. ) ;
#438 = CARTESIAN_POINT ( 'NONE',  ( -24.87155282031536885, -7.669380188436541346, 3.000000000000000000 ) ) ;
#439 = LINE ( 'NONE', #670, #587 ) ;
#440 = CARTESIAN_POINT ( 'NONE',  ( 24.12844717968463115, -7.669380188436526247, 3.000000000000000000 ) ) ;
#441 = VERTEX_POINT ( 'NONE', #65 ) ;
#442 = AXIS2_PLACEMENT_3D ( 'NONE', #448, #517, #444 ) ;
#443 = LINE ( 'NONE', #535, #18 ) ;
#444 = DIRECTION ( 'NONE',  ( -1.000000000000000000, 0.000000000000000000, 0.000000000000000000 ) ) ;
#445 = DIRECTION ( 'NONE',  ( -0.000000000000000000, -1.000000000000000000, -0.000000000000000000 ) ) ;
#446 = ORIENTED_EDGE ( 'NONE', *, *, #599, .F. ) ;
#447 = CYLINDRICAL_SURFACE ( 'NONE', #98, 1.500000000000001332 ) ;
#448 = CARTESIAN_POINT ( 'NONE',  ( 11.69683296429715647, 2.350343297401874310, 3.000000000000000000 ) ) ;
#449 = CARTESIAN_POINT ( 'NONE',  ( -10.34155282022472555, -12.66931631310608353, 0.000000000000000000 ) ) ;
#450 = ORIENTED_EDGE ( 'NONE', *, *, #156, .F. ) ;
#451 = DIRECTION ( 'NONE',  ( -0.000000000000000000, -0.000000000000000000, -1.000000000000000000 ) ) ;
#452 = ORIENTED_EDGE ( 'NONE', *, *, #232, .T. ) ;
#453 = CARTESIAN_POINT ( 'NONE',  ( -11.68216463570283814, 2.350343297401846332, 3.000000000000000000 ) ) ;
#454 = ORIENTED_EDGE ( 'NONE', *, *, #210, .T. ) ;
#455 = CARTESIAN_POINT ( 'NONE',  ( 27.12844717968463470, -7.669380188436526247, 0.000000000000000000 ) ) ;
#456 = DIRECTION ( 'NONE',  ( -1.000000000000000000, 0.000000000000000000, 0.000000000000000000 ) ) ;
#457 = DIRECTION ( 'NONE',  ( -0.000000000000000000, -0.000000000000000000, -1.000000000000000000 ) ) ;
#458 = CARTESIAN_POINT ( 'NONE',  ( 24.12844717968463115, -7.669380188436526247, 3.000000000000000000 ) ) ;
#459 = VERTEX_POINT ( 'NONE', #693 ) ;
#460 = AXIS2_PLACEMENT_3D ( 'NONE', #358, #878, #952 ) ;
#461 = EDGE_CURVE ( 'NONE', #111, #39, #240, .T. ) ;
#462 = DIRECTION ( 'NONE',  ( -0.000000000000000000, -1.000000000000000000, -0.000000000000000000 ) ) ;
#463 = FACE_OUTER_BOUND ( 'NONE', #160, .T. ) ;
#464 = FACE_BOUND ( 'NONE', #641, .T. ) ;
#465 = EDGE_LOOP ( 'NONE', ( #385, #201 ) ) ;
#466 = DIRECTION ( 'NONE',  ( 0.000000000000000000, 0.000000000000000000, -1.000000000000000000 ) ) ;
#467 = ADVANCED_FACE ( 'NONE', ( #619 ), #913, .F. ) ;
#468 = CIRCLE ( 'NONE', #130, 1.500000000000001332 ) ;
#469 = VERTEX_POINT ( 'NONE', #990 ) ;
#470 = FACE_OUTER_BOUND ( 'NONE', #787, .T. ) ;
#471 = FACE_BOUND ( 'NONE', #476, .T. ) ;
#472 = ORIENTED_EDGE ( 'NONE', *, *, #786, .F. ) ;
#473 = SURFACE_STYLE_USAGE ( .BOTH. , #93 ) ;
#474 = FACE_BOUND ( 'NONE', #193, .T. ) ;
#475 = DIRECTION ( 'NONE',  ( 0.000000000000000000, 0.000000000000000000, -1.000000000000000000 ) ) ;
#476 = EDGE_LOOP ( 'NONE', ( #926, #364 ) ) ;
#477 = AXIS2_PLACEMENT_3D ( 'NONE', #537, #291, #524 ) ;
#478 = DIRECTION ( 'NONE',  ( -1.000000000000000000, 0.000000000000000000, 0.000000000000000000 ) ) ;
#479 = ORIENTED_EDGE ( 'NONE', *, *, #37, .T. ) ;
#480 = VECTOR ( 'NONE', #589, 1000.000000000000000 ) ;
#481 = CIRCLE ( 'NONE', #245, 1.500000000000001332 ) ;
#482 = CARTESIAN_POINT ( 'NONE',  ( 30.00000000000000000, -1.269316313106113370, 3.000000000000000000 ) ) ;
#483 = EDGE_CURVE ( 'NONE', #907, #333, #308, .T. ) ;
#484 = EDGE_CURVE ( 'NONE', #350, #117, #547, .T. ) ;
#485 = AXIS2_PLACEMENT_3D ( 'NONE', #184, #190, #422 ) ;
#486 = VERTEX_POINT ( 'NONE', #95 ) ;
#487 = CARTESIAN_POINT ( 'NONE',  ( -7.500000000000000000, 5.665837688104247150, 3.000000000000000000 ) ) ;
#488 = CARTESIAN_POINT ( 'NONE',  ( 24.12844717968463115, -7.669380188436526247, 0.000000000000000000 ) ) ;
#489 = AXIS2_PLACEMENT_3D ( 'NONE', #203, #192, #416 ) ;
#490 = EDGE_CURVE ( 'NONE', #486, #170, #250, .T. ) ;
#491 = CARTESIAN_POINT ( 'NONE',  ( -7.500000000000000000, 0.000000000000000000, 0.000000000000000000 ) ) ;
#492 = ORIENTED_EDGE ( 'NONE', *, *, #99, .F. ) ;
#493 = CARTESIAN_POINT ( 'NONE',  ( 30.00000000000000000, -1.269316313106113370, 3.000000000000000000 ) ) ;
#494 = ORIENTED_EDGE ( 'NONE', *, *, #403, .F. ) ;
#495 = CARTESIAN_POINT ( 'NONE',  ( 30.00000000000000000, -1.269316313106113370, 3.000000000000000000 ) ) ;
#496 = EDGE_LOOP ( 'NONE', ( #216, #610 ) ) ;
#497 = EDGE_CURVE ( 'NONE', #39, #191, #88, .T. ) ;
#498 = LINE ( 'NONE', #351, #571 ) ;
#499 = ORIENTED_EDGE ( 'NONE', *, *, #28, .T. ) ;
#500 = LINE ( 'NONE', #876, #630 ) ;
#501 = ORIENTED_EDGE ( 'NONE', *, *, #394, .T. ) ;
#502 = CARTESIAN_POINT ( 'NONE',  ( -17.50000000000000000, 5.665837688104242709, 3.000000000000000000 ) ) ;
#503 = EDGE_LOOP ( 'NONE', ( #729, #713, #494, #163 ) ) ;
#504 = VECTOR ( 'NONE', #383, 1000.000000000000000 ) ;
#505 = DIRECTION ( 'NONE',  ( -0.000000000000000000, -0.000000000000000000, -1.000000000000000000 ) ) ;
#506 = ORIENTED_EDGE ( 'NONE', *, *, #902, .T. ) ;
#507 = FACE_OUTER_BOUND ( 'NONE', #648, .T. ) ;
#508 = ORIENTED_EDGE ( 'NONE', *, *, #83, .F. ) ;
#509 = ADVANCED_FACE ( 'NONE', ( #929 ), #159, .F. ) ;
#510 = CARTESIAN_POINT ( 'NONE',  ( 17.50000000000000000, 5.665837688104247150, 3.000000000000000000 ) ) ;
#511 = ORIENTED_EDGE ( 'NONE', *, *, #593, .F. ) ;
#512 = CARTESIAN_POINT ( 'NONE',  ( -29.99999999999999645, -29.26931631310612048, 3.000000000000000000 ) ) ;
#513 = ORIENTED_EDGE ( 'NONE', *, *, #37, .F. ) ;
#514 = VECTOR ( 'NONE', #398, 1000.000000000000000 ) ;
#515 = VECTOR ( 'NONE', #815, 1000.000000000000000 ) ;
#516 = DIRECTION ( 'NONE',  ( 0.000000000000000000, 0.000000000000000000, -1.000000000000000000 ) ) ;
#517 = DIRECTION ( 'NONE',  ( -0.000000000000000000, -0.000000000000000000, -1.000000000000000000 ) ) ;
#518 = CARTESIAN_POINT ( 'NONE',  ( 7.500000000000000000, 5.665837688104247150, 3.000000000000000000 ) ) ;
#519 = ORIENTED_EDGE ( 'NONE', *, *, #912, .F. ) ;
#520 = AXIS2_PLACEMENT_3D ( 'NONE', #409, #110, #26 ) ;
#521 = AXIS2_PLACEMENT_3D ( 'NONE', #141, #978, #361 ) ;
#522 = DIRECTION ( 'NONE',  ( -1.000000000000000000, 0.000000000000000000, 0.000000000000000000 ) ) ;
#523 = CARTESIAN_POINT ( 'NONE',  ( 10.19683296429715469, 2.350343297401874310, 3.000000000000000000 ) ) ;
#524 = DIRECTION ( 'NONE',  ( -1.000000000000000000, 0.000000000000000000, 0.000000000000000000 ) ) ;
#525 = ORIENTED_EDGE ( 'NONE', *, *, #671, .T. ) ;
#526 = VECTOR ( 'NONE', #749, 1000.000000000000000 ) ;
#527 = DIRECTION ( 'NONE',  ( 0.000000000000000000, 0.000000000000000000, -1.000000000000000000 ) ) ;
#528 = CARTESIAN_POINT ( 'NONE',  ( 12.15844717968458966, -12.66938018843652358, 3.000000000000000000 ) ) ;
#529 = DIRECTION ( 'NONE',  ( -0.000000000000000000, -0.000000000000000000, -1.000000000000000000 ) ) ;
#530 = ADVANCED_FACE ( 'NONE', ( #392, #243, #551, #851, #464, #471, #100, #628, #774 ), #14, .T. ) ;
#531 = ORIENTED_EDGE ( 'NONE', *, *, #320, .F. ) ;
#532 = VECTOR ( 'NONE', #451, 1000.000000000000000 ) ;
#533 = FACE_BOUND ( 'NONE', #659, .T. ) ;
#534 = VECTOR ( 'NONE', #161, 1000.000000000000000 ) ;
#535 = CARTESIAN_POINT ( 'NONE',  ( -7.500000000000000000, 0.000000000000000000, 0.000000000000000000 ) ) ;
#536 = DIRECTION ( 'NONE',  ( -1.000000000000000000, 0.000000000000000000, 0.000000000000000000 ) ) ;
#537 = CARTESIAN_POINT ( 'NONE',  ( -23.37155282031536174, -17.66938018843654135, 3.000000000000000000 ) ) ;
#538 = EDGE_LOOP ( 'NONE', ( #656, #433 ) ) ;
#539 = EDGE_CURVE ( 'NONE', #726, #890, #134, .T. ) ;
#540 = EDGE_CURVE ( 'NONE', #198, #304, #23, .T. ) ;
#541 = FACE_OUTER_BOUND ( 'NONE', #10, .T. ) ;
#542 = DIRECTION ( 'NONE',  ( -1.000000000000000000, 0.000000000000000000, 0.000000000000000000 ) ) ;
#543 = ORIENTED_EDGE ( 'NONE', *, *, #28, .F. ) ;
#544 = VECTOR ( 'NONE', #266, 999.9999999999998863 ) ;
#545 = ADVANCED_FACE ( 'NONE', ( #636 ), #577, .F. ) ;
#546 = CARTESIAN_POINT ( 'NONE',  ( -13.18216463570283814, 2.350343297401846332, 3.000000000000000000 ) ) ;
#547 = LINE ( 'NONE', #700, #280 ) ;
#548 = ORIENTED_EDGE ( 'NONE', *, *, #540, .F. ) ;
#549 = DIRECTION ( 'NONE',  ( 0.000000000000000000, 0.000000000000000000, -1.000000000000000000 ) ) ;
#550 = VECTOR ( 'NONE', #76, 1000.000000000000000 ) ;
#551 = FACE_BOUND ( 'NONE', #496, .T. ) ;
#552 = ORIENTED_EDGE ( 'NONE', *, *, #403, .T. ) ;
#553 = CARTESIAN_POINT ( 'NONE',  ( 12.15844717968458966, -12.66938018843652358, 3.000000000000000000 ) ) ;
#554 = CARTESIAN_POINT ( 'NONE',  ( 30.00000000000000000, -1.269316313106113370, 3.000000000000000000 ) ) ;
#555 = DIRECTION ( 'NONE',  ( -1.000000000000000000, 0.000000000000000000, -0.000000000000000000 ) ) ;
#556 = ORIENTED_EDGE ( 'NONE', *, *, #483, .T. ) ;
#557 = EDGE_CURVE ( 'NONE', #310, #66, #653, .T. ) ;
#558 = APPLICATION_CONTEXT ( 'automotive_design' ) ;
#559 = LINE ( 'NONE', #868, #419 ) ;
#560 = DIRECTION ( 'NONE',  ( -1.000000000000000000, 0.000000000000000000, 0.000000000000000000 ) ) ;
#561 = ORIENTED_EDGE ( 'NONE', *, *, #247, .F. ) ;
#562 = DIRECTION ( 'NONE',  ( -0.000000000000000000, -0.000000000000000000, -1.000000000000000000 ) ) ;
#563 = CARTESIAN_POINT ( 'NONE',  ( 30.00000000000000355, -29.26931631310611337, 3.000000000000000000 ) ) ;
#564 = ORIENTED_EDGE ( 'NONE', *, *, #540, .T. ) ;
#565 = EDGE_CURVE ( 'NONE', #598, #297, #500, .T. ) ;
#566 = CARTESIAN_POINT ( 'NONE',  ( -24.87155282031536174, -17.66938018843654135, 3.000000000000000000 ) ) ;
#567 = PRODUCT_DEFINITION_SHAPE ( 'NONE', 'NONE',  #632 ) ;
#568 = ORIENTED_EDGE ( 'NONE', *, *, #822, .F. ) ;
#569 = DIRECTION ( 'NONE',  ( 0.000000000000000000, 0.000000000000000000, -1.000000000000000000 ) ) ;
#570 = VERTEX_POINT ( 'NONE', #737 ) ;
#571 = VECTOR ( 'NONE', #107, 1000.000000000000000 ) ;
#572 = EDGE_CURVE ( 'NONE', #862, #459, #834, .T. ) ;
#573 = DIRECTION ( 'NONE',  ( -0.000000000000000000, -0.000000000000000000, -1.000000000000000000 ) ) ;
#574 = VERTEX_POINT ( 'NONE', #495 ) ;
#575 = AXIS2_PLACEMENT_3D ( 'NONE', #449, #72, #906 ) ;
#576 = DIRECTION ( 'NONE',  ( -1.000000000000000000, 0.000000000000000000, 0.000000000000000000 ) ) ;
#577 = PLANE ( 'NONE',  #233 ) ;
#578 = ORIENTED_EDGE ( 'NONE', *, *, #490, .F. ) ;
#579 = CARTESIAN_POINT ( 'NONE',  ( -11.68216463570283814, 2.350343297401846332, 3.000000000000000000 ) ) ;
#580 = EDGE_LOOP ( 'NONE', ( #57, #750, #802, #279 ) ) ;
#581 = VECTOR ( 'NONE', #234, 999.9999999999998863 ) ;
#582 = AXIS2_PLACEMENT_3D ( 'NONE', #646, #874, #181 ) ;
#583 = DIRECTION ( 'NONE',  ( -0.000000000000000000, -0.000000000000000000, -1.000000000000000000 ) ) ;
#584 = ORIENTED_EDGE ( 'NONE', *, *, #183, .T. ) ;
#585 = DIRECTION ( 'NONE',  ( 0.000000000000000000, 0.000000000000000000, -1.000000000000000000 ) ) ;
#586 = ORIENTED_EDGE ( 'NONE', *, *, #357, .T. ) ;
#587 = VECTOR ( 'NONE', #457, 1000.000000000000000 ) ;
#588 = AXIS2_PLACEMENT_3D ( 'NONE', #579, #728, #889 ) ;
#589 = DIRECTION ( 'NONE',  ( -0.000000000000000000, -0.000000000000000000, -1.000000000000000000 ) ) ;
#590 = VERTEX_POINT ( 'NONE', #44 ) ;
#591 = CARTESIAN_POINT ( 'NONE',  ( 25.62844717968463470, -17.66938018843652358, 0.000000000000000000 ) ) ;
#592 = ORIENTED_EDGE ( 'NONE', *, *, #369, .F. ) ;
#593 = EDGE_CURVE ( 'NONE', #914, #236, #958, .T. ) ;
#594 = VECTOR ( 'NONE', #971, 1000.000000000000000 ) ;
#595 = FACE_OUTER_BOUND ( 'NONE', #953, .T. ) ;
#596 = FACE_OUTER_BOUND ( 'NONE', #106, .T. ) ;
#597 = DIRECTION ( 'NONE',  ( -1.000000000000000000, -0.000000000000000000, -0.000000000000000000 ) ) ;
#598 = VERTEX_POINT ( 'NONE', #491 ) ;
#599 = EDGE_CURVE ( 'NONE', #959, #772, #200, .T. ) ;
#600 = VECTOR ( 'NONE', #262, 1000.000000000000000 ) ;
#601 = CARTESIAN_POINT ( 'NONE',  ( -30.00000000000000000, -1.269316313106120919, 3.000000000000000000 ) ) ;
#602 = CARTESIAN_POINT ( 'NONE',  ( 25.62844717968463470, -7.669380188436526247, 3.000000000000000000 ) ) ;
#603 = DIRECTION ( 'NONE',  ( 0.000000000000000000, 0.000000000000000000, -1.000000000000000000 ) ) ;
#604 = ORIENTED_EDGE ( 'NONE', *, *, #671, .F. ) ;
#605 = ADVANCED_FACE ( 'NONE', ( #939 ), #179, .F. ) ;
#606 = DIRECTION ( 'NONE',  ( -1.000000000000000000, 0.000000000000000000, 0.000000000000000000 ) ) ;
#607 = CARTESIAN_POINT ( 'NONE',  ( 7.500000000000000000, 5.665837688104247150, 3.000000000000000000 ) ) ;
#608 = AXIS2_PLACEMENT_3D ( 'NONE', #884, #585, #411 ) ;
#609 = LINE ( 'NONE', #440, #526 ) ;
#610 = ORIENTED_EDGE ( 'NONE', *, *, #937, .F. ) ;
#611 = CARTESIAN_POINT ( 'NONE',  ( -17.50000000000000000, 5.665837688104242709, 3.000000000000000000 ) ) ;
#612 = LINE ( 'NONE', #523, #950 ) ;
#613 = EDGE_CURVE ( 'NONE', #400, #620, #8, .T. ) ;
#614 = DIRECTION ( 'NONE',  ( 0.000000000000000000, 0.000000000000000000, -1.000000000000000000 ) ) ;
#615 = ORIENTED_EDGE ( 'NONE', *, *, #776, .F. ) ;
#616 = CARTESIAN_POINT ( 'NONE',  ( 7.500000000000000000, 5.665837688104247150, 3.000000000000000000 ) ) ;
#617 = AXIS2_PLACEMENT_3D ( 'NONE', #390, #549, #150 ) ;
#618 = DIRECTION ( 'NONE',  ( 0.000000000000000000, 0.000000000000000000, -1.000000000000000000 ) ) ;
#619 = FACE_OUTER_BOUND ( 'NONE', #379, .T. ) ;
#620 = VERTEX_POINT ( 'NONE', #725 ) ;
#621 = ADVANCED_FACE ( 'NONE', ( #33 ), #762, .F. ) ;
#622 = DIRECTION ( 'NONE',  ( 0.000000000000000000, 0.000000000000000000, -1.000000000000000000 ) ) ;
#623 = CARTESIAN_POINT ( 'NONE',  ( -23.37155282031536174, -17.66938018843654135, 3.000000000000000000 ) ) ;
#624 = ORIENTED_EDGE ( 'NONE', *, *, #77, .F. ) ;
#625 = CARTESIAN_POINT ( 'NONE',  ( 12.15844717968458966, -12.66938018843652358, 0.000000000000000000 ) ) ;
#626 = EDGE_LOOP ( 'NONE', ( #688, #101 ) ) ;
#627 = LINE ( 'NONE', #90, #550 ) ;
#628 = FACE_BOUND ( 'NONE', #61, .T. ) ;
#629 = ORIENTED_EDGE ( 'NONE', *, *, #842, .F. ) ;
#630 = VECTOR ( 'NONE', #732, 1000.000000000000000 ) ;
#631 = FACE_OUTER_BOUND ( 'NONE', #759, .T. ) ;
#632 = PRODUCT_DEFINITION ( '未知', '', #712, #286 ) ;
#633 = ORIENTED_EDGE ( 'NONE', *, *, #112, .T. ) ;
#634 =( LENGTH_UNIT ( ) NAMED_UNIT ( * ) SI_UNIT ( .MILLI., .METRE. ) );
#635 = APPLICATION_PROTOCOL_DEFINITION ( 'draft international standard', 'automotive_design', 1998, #558 ) ;
#636 = FACE_OUTER_BOUND ( 'NONE', #248, .T. ) ;
#637 = VERTEX_POINT ( 'NONE', #820 ) ;
#638 = CARTESIAN_POINT ( 'NONE',  ( -7.500000000000000000, 0.000000000000000000, 3.000000000000000000 ) ) ;
#639 =( LENGTH_UNIT ( ) NAMED_UNIT ( * ) SI_UNIT ( .MILLI., .METRE. ) );
#640 = DIRECTION ( 'NONE',  ( 0.000000000000000000, 0.000000000000000000, -1.000000000000000000 ) ) ;
#641 = EDGE_LOOP ( 'NONE', ( #615, #782 ) ) ;
#642 = MECHANICAL_DESIGN_GEOMETRIC_PRESENTATION_REPRESENTATION (  '', ( #960 ), #711 ) ;
#643 = CARTESIAN_POINT ( 'NONE',  ( -7.500000000000000000, 5.665837688104247150, 3.000000000000000000 ) ) ;
#644 = VECTOR ( 'NONE', #227, 1000.000000000000000 ) ;
#645 = ADVANCED_FACE ( 'NONE', ( #595 ), #663, .F. ) ;
#646 = CARTESIAN_POINT ( 'NONE',  ( -7.500000000000000000, 5.665837688104247150, 3.000000000000000000 ) ) ;
#647 = SHAPE_DEFINITION_REPRESENTATION ( #567, #140 ) ;
#648 = EDGE_LOOP ( 'NONE', ( #374, #255, #133, #511 ) ) ;
#649 = LINE ( 'NONE', #274, #544 ) ;
#650 = CIRCLE ( 'NONE', #220, 1.500000000000001332 ) ;
#651 = ORIENTED_EDGE ( 'NONE', *, *, #539, .T. ) ;
#652 = AXIS2_PLACEMENT_3D ( 'NONE', #904, #212, #158 ) ;
#653 = LINE ( 'NONE', #119, #2 ) ;
#654 = VERTEX_POINT ( 'NONE', #360 ) ;
#655 = DIRECTION ( 'NONE',  ( -0.000000000000000000, -0.000000000000000000, -1.000000000000000000 ) ) ;
#656 = ORIENTED_EDGE ( 'NONE', *, *, #572, .T. ) ;
#657 = AXIS2_PLACEMENT_3D ( 'NONE', #682, #979, #296 ) ;
#658 = EDGE_CURVE ( 'NONE', #637, #350, #288, .T. ) ;
#659 = EDGE_LOOP ( 'NONE', ( #338, #452 ) ) ;
#660 = LINE ( 'NONE', #502, #346 ) ;
#661 = ORIENTED_EDGE ( 'NONE', *, *, #863, .T. ) ;
#662 = CIRCLE ( 'NONE', #741, 1.500000000000001332 ) ;
#663 = CYLINDRICAL_SURFACE ( 'NONE', #86, 1.500000000000001332 ) ;
#664 = VERTEX_POINT ( 'NONE', #206 ) ;
#665 = ADVANCED_FACE ( 'NONE', ( #752 ), #293, .F. ) ;
#666 = CARTESIAN_POINT ( 'NONE',  ( -13.18216463570283814, 2.350343297401846332, 0.000000000000000000 ) ) ;
#667 = EDGE_LOOP ( 'NONE', ( #717, #624 ) ) ;
#668 = CIRCLE ( 'NONE', #789, 1.500000000000001332 ) ;
#669 = DIRECTION ( 'NONE',  ( -1.000000000000000000, 0.000000000000000000, 0.000000000000000000 ) ) ;
#670 = CARTESIAN_POINT ( 'NONE',  ( 27.12844717968463470, -17.66938018843652358, 3.000000000000000000 ) ) ;
#671 = EDGE_CURVE ( 'NONE', #111, #435, #281, .T. ) ;
#672 = CARTESIAN_POINT ( 'NONE',  ( -7.500000000000000000, 0.000000000000000000, 3.000000000000000000 ) ) ;
#673 = ORIENTED_EDGE ( 'NONE', *, *, #309, .T. ) ;
#674 = DIRECTION ( 'NONE',  ( -1.000000000000000000, 0.000000000000000000, 0.000000000000000000 ) ) ;
#675 = DIRECTION ( 'NONE',  ( -1.000000000000000000, 0.000000000000000000, 0.000000000000000000 ) ) ;
#676 = DIRECTION ( 'NONE',  ( -1.000000000000000000, 0.000000000000000000, 0.000000000000000000 ) ) ;
#677 = ORIENTED_EDGE ( 'NONE', *, *, #557, .T. ) ;
#678 = EDGE_CURVE ( 'NONE', #852, #922, #276, .T. ) ;
#679 = CIRCLE ( 'NONE', #901, 3.009999999999998899 ) ;
#680 = CARTESIAN_POINT ( 'NONE',  ( 25.62844717968463470, -7.669380188436526247, 0.000000000000000000 ) ) ;
#681 = CARTESIAN_POINT ( 'NONE',  ( -23.37155282031536885, -7.669380188436541346, 0.000000000000000000 ) ) ;
#682 = CARTESIAN_POINT ( 'NONE',  ( -23.37155282031536885, -7.669380188436541346, 3.000000000000000000 ) ) ;
#683 = VERTEX_POINT ( 'NONE', #145 ) ;
#684 = CARTESIAN_POINT ( 'NONE',  ( -23.37155282031536885, -7.669380188436541346, 0.000000000000000000 ) ) ;
#685 = CARTESIAN_POINT ( 'NONE',  ( -10.34155282022472555, -12.66931631310608353, 0.000000000000000000 ) ) ;
#686 = VECTOR ( 'NONE', #196, 1000.000000000000000 ) ;
#687 = LINE ( 'NONE', #899, #805 ) ;
#688 = ORIENTED_EDGE ( 'NONE', *, *, #394, .F. ) ;
#689 = CARTESIAN_POINT ( 'NONE',  ( 7.500000000000000000, 0.000000000000000000, 3.000000000000000000 ) ) ;
#690 = LINE ( 'NONE', #482, #514 ) ;
#691 = DIRECTION ( 'NONE',  ( -0.000000000000000000, -0.000000000000000000, -1.000000000000000000 ) ) ;
#692 = EDGE_CURVE ( 'NONE', #204, #986, #903, .T. ) ;
#693 = CARTESIAN_POINT ( 'NONE',  ( -21.87155282031535819, -17.66938018843654135, 3.000000000000000000 ) ) ;
#694 = APPLICATION_CONTEXT ( 'automotive_design' ) ;
#695 = ORIENTED_EDGE ( 'NONE', *, *, #357, .F. ) ;
#696 = LINE ( 'NONE', #616, #229 ) ;
#697 = CIRCLE ( 'NONE', #849, 1.500000000000001332 ) ;
#698 = DIRECTION ( 'NONE',  ( -0.000000000000000000, -0.000000000000000000, -1.000000000000000000 ) ) ;
#699 = AXIS2_PLACEMENT_3D ( 'NONE', #915, #977, #456 ) ;
#700 = CARTESIAN_POINT ( 'NONE',  ( 30.00000000000000355, -29.26931631310611337, 3.000000000000000000 ) ) ;
#701 = EDGE_LOOP ( 'NONE', ( #881, #824, #661, #841 ) ) ;
#702 = PLANE ( 'NONE',  #146 ) ;
#703 = CIRCLE ( 'NONE', #799, 1.500000000000001332 ) ;
#704 = EDGE_LOOP ( 'NONE', ( #568, #708, #356, #415 ) ) ;
#705 = EDGE_CURVE ( 'NONE', #637, #170, #54, .T. ) ;
#706 = LINE ( 'NONE', #831, #830 ) ;
#707 = CARTESIAN_POINT ( 'NONE',  ( -11.68216463570283814, 2.350343297401846332, 3.000000000000000000 ) ) ;
#708 = ORIENTED_EDGE ( 'NONE', *, *, #678, .T. ) ;
#709 = EDGE_CURVE ( 'NONE', #871, #683, #743, .T. ) ;
#710 = FACE_BOUND ( 'NONE', #5, .T. ) ;
#711 =( GEOMETRIC_REPRESENTATION_CONTEXT ( 3 ) GLOBAL_UNCERTAINTY_ASSIGNED_CONTEXT ( ( #162 ) ) GLOBAL_UNIT_ASSIGNED_CONTEXT ( ( #634, #102, #188 ) ) REPRESENTATION_CONTEXT ( 'NONE', 'WORKASPACE' ) );
#712 = PRODUCT_DEFINITION_FORMATION_WITH_SPECIFIED_SOURCE ( '任何', '', #783, .NOT_KNOWN. ) ;
#713 = ORIENTED_EDGE ( 'NONE', *, *, #966, .F. ) ;
#714 = DIRECTION ( 'NONE',  ( -0.000000000000000000, -0.000000000000000000, -1.000000000000000000 ) ) ;
#715 = PRESENTATION_STYLE_ASSIGNMENT (( #25 ) ) ;
#716 = EDGE_CURVE ( 'NONE', #570, #664, #131, .T. ) ;
#717 = ORIENTED_EDGE ( 'NONE', *, *, #417, .F. ) ;
#718 = AXIS2_PLACEMENT_3D ( 'NONE', #386, #82, #3 ) ;
#719 = SURFACE_STYLE_FILL_AREA ( #21 ) ;
#720 = CARTESIAN_POINT ( 'NONE',  ( 0.000000000000000000, 0.000000000000000000, 0.000000000000000000 ) ) ;
#721 = EDGE_LOOP ( 'NONE', ( #531, #389, #89, #804 ) ) ;
#722 = EDGE_CURVE ( 'NONE', #368, #598, #443, .T. ) ;
#723 = CARTESIAN_POINT ( 'NONE',  ( 30.00000000000000355, -29.26931631310611337, 0.000000000000000000 ) ) ;
#724 = FACE_OUTER_BOUND ( 'NONE', #180, .T. ) ;
#725 = CARTESIAN_POINT ( 'NONE',  ( 27.12844717968463470, -7.669380188436526247, 3.000000000000000000 ) ) ;
#726 = VERTEX_POINT ( 'NONE', #376 ) ;
#727 = AXIS2_PLACEMENT_3D ( 'NONE', #1, #769, #312 ) ;
#728 = DIRECTION ( 'NONE',  ( -0.000000000000000000, -0.000000000000000000, -1.000000000000000000 ) ) ;
#729 = ORIENTED_EDGE ( 'NONE', *, *, #709, .T. ) ;
#730 = CARTESIAN_POINT ( 'NONE',  ( -10.34155282022472555, -12.66931631310608353, 3.000000000000000000 ) ) ;
#731 = AXIS2_PLACEMENT_3D ( 'NONE', #493, #339, #348 ) ;
#732 = DIRECTION ( 'NONE',  ( 0.000000000000000000, 1.000000000000000000, 0.000000000000000000 ) ) ;
#733 = ORIENTED_EDGE ( 'NONE', *, *, #989, .T. ) ;
#734 = AXIS2_PLACEMENT_3D ( 'NONE', #56, #362, #827 ) ;
#735 = DIRECTION ( 'NONE',  ( -1.000000000000000000, 0.000000000000000000, 0.000000000000000000 ) ) ;
#736 = ORIENTED_EDGE ( 'NONE', *, *, #808, .F. ) ;
#737 = CARTESIAN_POINT ( 'NONE',  ( -21.87155282031535819, -17.66938018843654135, 0.000000000000000000 ) ) ;
#738 = ORIENTED_EDGE ( 'NONE', *, *, #937, .T. ) ;
#739 = DIRECTION ( 'NONE',  ( -1.000000000000000000, 0.000000000000000000, 0.000000000000000000 ) ) ;
#740 = VERTEX_POINT ( 'NONE', #510 ) ;
#741 = AXIS2_PLACEMENT_3D ( 'NONE', #396, #466, #321 ) ;
#742 = ADVANCED_FACE ( 'NONE', ( #747 ), #447, .F. ) ;
#743 = LINE ( 'NONE', #211, #287 ) ;
#744 = CARTESIAN_POINT ( 'NONE',  ( -11.68216463570283814, 2.350343297401846332, 3.000000000000000000 ) ) ;
#745 = LINE ( 'NONE', #985, #594 ) ;
#746 = VERTEX_POINT ( 'NONE', #151 ) ;
#747 = FACE_OUTER_BOUND ( 'NONE', #701, .T. ) ;
#748 = FACE_OUTER_BOUND ( 'NONE', #503, .T. ) ;
#749 = DIRECTION ( 'NONE',  ( -0.000000000000000000, -0.000000000000000000, -1.000000000000000000 ) ) ;
#750 = ORIENTED_EDGE ( 'NONE', *, *, #705, .F. ) ;
#751 = VECTOR ( 'NONE', #373, 1000.000000000000000 ) ;
#752 = FACE_OUTER_BOUND ( 'NONE', #27, .T. ) ;
#753 = PLANE ( 'NONE',  #521 ) ;
#754 = CARTESIAN_POINT ( 'NONE',  ( -7.500000000000000000, 5.665837688104247150, 0.000000000000000000 ) ) ;
#755 = EDGE_LOOP ( 'NONE', ( #122, #519 ) ) ;
#756 = CARTESIAN_POINT ( 'NONE',  ( 10.19683296429715469, 2.350343297401874310, 0.000000000000000000 ) ) ;
#757 = FACE_OUTER_BOUND ( 'NONE', #185, .T. ) ;
#758 = CYLINDRICAL_SURFACE ( 'NONE', #938, 3.009999999999998899 ) ;
#759 = EDGE_LOOP ( 'NONE', ( #405, #352, #976, #418 ) ) ;
#760 = EDGE_CURVE ( 'NONE', #441, #887, #468, .T. ) ;
#761 = DIRECTION ( 'NONE',  ( -1.000000000000000000, 0.000000000000000000, 0.000000000000000000 ) ) ;
#762 = CYLINDRICAL_SURFACE ( 'NONE', #699, 1.500000000000001332 ) ;
#763 = FACE_OUTER_BOUND ( 'NONE', #393, .T. ) ;
#764 = DIRECTION ( 'NONE',  ( -1.000000000000000000, 0.000000000000000000, 0.000000000000000000 ) ) ;
#765 = ORIENTED_EDGE ( 'NONE', *, *, #705, .T. ) ;
#766 = LINE ( 'NONE', #554, #534 ) ;
#767 = PLANE ( 'NONE',  #718 ) ;
#768 = ORIENTED_EDGE ( 'NONE', *, *, #183, .F. ) ;
#769 = DIRECTION ( 'NONE',  ( -0.000000000000000000, -0.000000000000000000, -1.000000000000000000 ) ) ;
#770 = PRESENTATION_LAYER_ASSIGNMENT (  '', '', ( #388 ) ) ;
#771 = DIRECTION ( 'NONE',  ( -0.8744330400848281393, -0.4851462237387871856, 0.000000000000000000 ) ) ;
#772 = VERTEX_POINT ( 'NONE', #58 ) ;
#773 = CARTESIAN_POINT ( 'NONE',  ( 27.12844717968463470, -17.66938018843652358, 3.000000000000000000 ) ) ;
#774 = FACE_OUTER_BOUND ( 'NONE', #918, .T. ) ;
#775 = ORIENTED_EDGE ( 'NONE', *, *, #497, .T. ) ;
#776 = EDGE_CURVE ( 'NONE', #873, #936, #697, .T. ) ;
#777 = CARTESIAN_POINT ( 'NONE',  ( 17.50000000000000000, 5.665837688104247150, 0.000000000000000000 ) ) ;
#778 = AXIS2_PLACEMENT_3D ( 'NONE', #322, #175, #555 ) ;
#779 = ORIENTED_EDGE ( 'NONE', *, *, #432, .F. ) ;
#780 = CYLINDRICAL_SURFACE ( 'NONE', #194, 1.500000000000001332 ) ;
#781 = CIRCLE ( 'NONE', #992, 3.009999999999998899 ) ;
#782 = ORIENTED_EDGE ( 'NONE', *, *, #123, .F. ) ;
#783 = PRODUCT ( 'bianpian从', 'bianpian从', '', ( #263 ) ) ;
#784 = DIRECTION ( 'NONE',  ( -0.000000000000000000, -0.000000000000000000, -1.000000000000000000 ) ) ;
#785 =( NAMED_UNIT ( * ) SI_UNIT ( $, .STERADIAN. ) SOLID_ANGLE_UNIT ( ) );
#786 = EDGE_CURVE ( 'NONE', #435, #191, #481, .T. ) ;
#787 = EDGE_LOOP ( 'NONE', ( #964, #556, #856, #114, #187, #120, #946, #397, #955, #552 ) ) ;
#788 = DIRECTION ( 'NONE',  ( -1.239088197126290817E-16, 1.000000000000000000, 0.000000000000000000 ) ) ;
#789 = AXIS2_PLACEMENT_3D ( 'NONE', #79, #603, #676 ) ;
#790 = DIRECTION ( 'NONE',  ( -0.000000000000000000, -0.000000000000000000, -1.000000000000000000 ) ) ;
#791 = VECTOR ( 'NONE', #597, 1000.000000000000000 ) ;
#792 = VERTEX_POINT ( 'NONE', #825 ) ;
#793 = LINE ( 'NONE', #35, #40 ) ;
#794 = VERTEX_POINT ( 'NONE', #756 ) ;
#795 = CARTESIAN_POINT ( 'NONE',  ( -13.18216463570283814, 2.350343297401846332, 3.000000000000000000 ) ) ;
#796 = ORIENTED_EDGE ( 'NONE', *, *, #941, .T. ) ;
#797 = CARTESIAN_POINT ( 'NONE',  ( 27.12844717968463470, -7.669380188436526247, 3.000000000000000000 ) ) ;
#798 = ORIENTED_EDGE ( 'NONE', *, *, #572, .F. ) ;
#799 = AXIS2_PLACEMENT_3D ( 'NONE', #306, #816, #224 ) ;
#800 = ORIENTED_EDGE ( 'NONE', *, *, #863, .F. ) ;
#801 = CARTESIAN_POINT ( 'NONE',  ( -7.331552820224700895, -12.66931631310608353, 0.000000000000000000 ) ) ;
#802 = ORIENTED_EDGE ( 'NONE', *, *, #803, .F. ) ;
#803 = EDGE_CURVE ( 'NONE', #986, #637, #69, .T. ) ;
#804 = ORIENTED_EDGE ( 'NONE', *, *, #363, .F. ) ;
#805 = VECTOR ( 'NONE', #445, 1000.000000000000000 ) ;
#806 = LINE ( 'NONE', #965, #981 ) ;
#807 = EDGE_LOOP ( 'NONE', ( #980, #506 ) ) ;
#808 = EDGE_CURVE ( 'NONE', #441, #792, #407, .T. ) ;
#809 = DIRECTION ( 'NONE',  ( -0.000000000000000000, -0.000000000000000000, -1.000000000000000000 ) ) ;
#810 = CYLINDRICAL_SURFACE ( 'NONE', #406, 1.500000000000001332 ) ;
#811 = FACE_OUTER_BOUND ( 'NONE', #704, .T. ) ;
#812 = ORIENTED_EDGE ( 'NONE', *, *, #62, .F. ) ;
#813 = COLOUR_RGB ( '',1.000000000000000000, 1.000000000000000000, 1.000000000000000000 ) ;
#814 = ADVANCED_FACE ( 'NONE', ( #631 ), #931, .F. ) ;
#815 = DIRECTION ( 'NONE',  ( 1.239088197126290817E-16, -1.000000000000000000, 0.000000000000000000 ) ) ;
#816 = DIRECTION ( 'NONE',  ( 0.000000000000000000, 0.000000000000000000, -1.000000000000000000 ) ) ;
#817 = CARTESIAN_POINT ( 'NONE',  ( 12.15844717968458966, -12.66938018843652358, 3.000000000000000000 ) ) ;
#818 = EDGE_LOOP ( 'NONE', ( #472, #940 ) ) ;
#819 = AXIS2_PLACEMENT_3D ( 'NONE', #260, #569, #576 ) ;
#820 = CARTESIAN_POINT ( 'NONE',  ( -30.00000000000000000, -1.269316313106120919, 3.000000000000000000 ) ) ;
#821 = CARTESIAN_POINT ( 'NONE',  ( 11.69683296429715647, 2.350343297401874310, 3.000000000000000000 ) ) ;
#822 = EDGE_CURVE ( 'NONE', #852, #154, #679, .T. ) ;
#823 = FACE_OUTER_BOUND ( 'NONE', #828, .T. ) ;
#824 = ORIENTED_EDGE ( 'NONE', *, *, #539, .F. ) ;
#825 = CARTESIAN_POINT ( 'NONE',  ( 13.19683296429715824, 2.350343297401874310, 0.000000000000000000 ) ) ;
#826 = CARTESIAN_POINT ( 'NONE',  ( -21.87155282031536530, -7.669380188436541346, 3.000000000000000000 ) ) ;
#827 = DIRECTION ( 'NONE',  ( -1.000000000000000000, 0.000000000000000000, 0.000000000000000000 ) ) ;
#828 = EDGE_LOOP ( 'NONE', ( #548, #450, #315, #244 ) ) ;
#829 = MANIFOLD_SOLID_BREP ( '切除-拉伸9', #20 ) ;
#830 = VECTOR ( 'NONE', #462, 1000.000000000000000 ) ;
#831 = CARTESIAN_POINT ( 'NONE',  ( 7.500000000000000000, 0.000000000000000000, 3.000000000000000000 ) ) ;
#832 = CARTESIAN_POINT ( 'NONE',  ( 25.62844717968463470, -17.66938018843652358, 3.000000000000000000 ) ) ;
#833 = DIRECTION ( 'NONE',  ( -0.000000000000000000, -0.000000000000000000, -1.000000000000000000 ) ) ;
#834 = CIRCLE ( 'NONE', #485, 1.500000000000001332 ) ;
#835 = DIRECTION ( 'NONE',  ( -1.000000000000000000, 0.000000000000000000, 0.000000000000000000 ) ) ;
#836 = ORIENTED_EDGE ( 'NONE', *, *, #232, .F. ) ;
#837 = EDGE_CURVE ( 'NONE', #879, #310, #177, .T. ) ;
#838 = PLANE ( 'NONE',  #372 ) ;
#839 = FACE_OUTER_BOUND ( 'NONE', #580, .T. ) ;
#840 = AXIS2_PLACEMENT_3D ( 'NONE', #623, #698, #542 ) ;
#841 = ORIENTED_EDGE ( 'NONE', *, *, #252, .T. ) ;
#842 = EDGE_CURVE ( 'NONE', #117, #574, #690, .T. ) ;
#843 = FACE_BOUND ( 'NONE', #807, .T. ) ;
#844 = VECTOR ( 'NONE', #317, 1000.000000000000000 ) ;
#845 = EDGE_CURVE ( 'NONE', #333, #204, #16, .T. ) ;
#846 = DIRECTION ( 'NONE',  ( 1.000000000000000000, 1.156482317317871478E-16, -0.000000000000000000 ) ) ;
#847 = ORIENTED_EDGE ( 'NONE', *, *, #658, .F. ) ;
#848 = CARTESIAN_POINT ( 'NONE',  ( 11.69683296429715647, 2.350343297401874310, 0.000000000000000000 ) ) ;
#849 = AXIS2_PLACEMENT_3D ( 'NONE', #680, #527, #674 ) ;
#850 = EDGE_CURVE ( 'NONE', #907, #368, #942, .T. ) ;
#851 = FACE_BOUND ( 'NONE', #626, .T. ) ;
#852 = VERTEX_POINT ( 'NONE', #257 ) ;
#853 = CIRCLE ( 'NONE', #7, 1.499999999999999556 ) ;
#854 = CARTESIAN_POINT ( 'NONE',  ( 25.62844717968463470, -7.669380188436526247, 3.000000000000000000 ) ) ;
#855 = CARTESIAN_POINT ( 'NONE',  ( -7.500000000000000000, 0.000000000000000000, 3.000000000000000000 ) ) ;
#856 = ORIENTED_EDGE ( 'NONE', *, *, #845, .T. ) ;
#857 = PRESENTATION_STYLE_ASSIGNMENT (( #473 ) ) ;
#858 =( NAMED_UNIT ( * ) PLANE_ANGLE_UNIT ( ) SI_UNIT ( $, .RADIAN. ) );
#859 = CIRCLE ( 'NONE', #431, 1.499999999999999556 ) ;
#860 = CIRCLE ( 'NONE', #734, 1.499999999999999556 ) ;
#861 = DIRECTION ( 'NONE',  ( -1.000000000000000000, 0.000000000000000000, 0.000000000000000000 ) ) ;
#862 = VERTEX_POINT ( 'NONE', #566 ) ;
#863 = EDGE_CURVE ( 'NONE', #726, #19, #559, .T. ) ;
#864 = CARTESIAN_POINT ( 'NONE',  ( -29.99999999999999645, -29.26931631310612048, 0.000000000000000000 ) ) ;
#865 = SURFACE_SIDE_STYLE ('',( #420 ) ) ;
#866 = EDGE_LOOP ( 'NONE', ( #499, #277 ) ) ;
#867 = VECTOR ( 'NONE', #583, 1000.000000000000000 ) ;
#868 = CARTESIAN_POINT ( 'NONE',  ( 24.12844717968463115, -17.66938018843652358, 3.000000000000000000 ) ) ;
#869 = ADVANCED_FACE ( 'NONE', ( #172 ), #382, .F. ) ;
#870 = DIRECTION ( 'NONE',  ( -1.000000000000000000, -1.156482317317871478E-16, 0.000000000000000000 ) ) ;
#871 = VERTEX_POINT ( 'NONE', #12 ) ;
#872 = CARTESIAN_POINT ( 'NONE',  ( -30.00000000000000000, -1.269316313106120919, 3.000000000000000000 ) ) ;
#873 = VERTEX_POINT ( 'NONE', #488 ) ;
#874 = DIRECTION ( 'NONE',  ( 4.336808689942016750E-16, -1.000000000000000000, 0.000000000000000000 ) ) ;
#875 = ADVANCED_FACE ( 'NONE', ( #724 ), #780, .F. ) ;
#876 = CARTESIAN_POINT ( 'NONE',  ( -7.500000000000000000, 0.000000000000000000, 0.000000000000000000 ) ) ;
#877 = ORIENTED_EDGE ( 'NONE', *, *, #837, .T. ) ;
#878 = DIRECTION ( 'NONE',  ( 0.000000000000000000, 0.000000000000000000, -1.000000000000000000 ) ) ;
#879 = VERTEX_POINT ( 'NONE', #864 ) ;
#880 = DIRECTION ( 'NONE',  ( -1.239088197126290817E-16, 1.000000000000000000, -0.000000000000000000 ) ) ;
#881 = ORIENTED_EDGE ( 'NONE', *, *, #112, .F. ) ;
#882 = EDGE_CURVE ( 'NONE', #590, #746, #412, .T. ) ;
#883 =( GEOMETRIC_REPRESENTATION_CONTEXT ( 3 ) GLOBAL_UNCERTAINTY_ASSIGNED_CONTEXT ( ( #924 ) ) GLOBAL_UNIT_ASSIGNED_CONTEXT ( ( #639, #858, #785 ) ) REPRESENTATION_CONTEXT ( 'NONE', 'WORKASPACE' ) );
#884 = CARTESIAN_POINT ( 'NONE',  ( 25.62844717968463470, -17.66938018843652358, 3.000000000000000000 ) ) ;
#885 = ORIENTED_EDGE ( 'NONE', *, *, #896, .F. ) ;
#886 = AXIS2_PLACEMENT_3D ( 'NONE', #169, #475, #861 ) ;
#887 = VERTEX_POINT ( 'NONE', #30 ) ;
#888 = ADVANCED_FACE ( 'NONE', ( #533, #474, #919, #381, #157, #923, #843, #710, #470 ), #702, .F. ) ;
#889 = DIRECTION ( 'NONE',  ( -1.000000000000000000, 0.000000000000000000, 0.000000000000000000 ) ) ;
#890 = VERTEX_POINT ( 'NONE', #773 ) ;
#891 = EDGE_CURVE ( 'NONE', #66, #871, #237, .T. ) ;
#892 = DIRECTION ( 'NONE',  ( -1.000000000000000000, -0.000000000000000000, -0.000000000000000000 ) ) ;
#893 = EDGE_LOOP ( 'NONE', ( #347, #561, #329, #226 ) ) ;
#894 = CYLINDRICAL_SURFACE ( 'NONE', #588, 1.499999999999999556 ) ;
#895 = EDGE_LOOP ( 'NONE', ( #73, #423, #24, #584 ) ) ;
#896 = EDGE_CURVE ( 'NONE', #425, #907, #706, .T. ) ;
#897 = CARTESIAN_POINT ( 'NONE',  ( -23.37155282031536885, -7.669380188436541346, 3.000000000000000000 ) ) ;
#898 = CARTESIAN_POINT ( 'NONE',  ( 30.00000000000000355, -29.26931631310611337, 3.000000000000000000 ) ) ;
#899 = CARTESIAN_POINT ( 'NONE',  ( 7.500000000000000000, 0.000000000000000000, 0.000000000000000000 ) ) ;
#900 = EDGE_LOOP ( 'NONE', ( #15, #144 ) ) ;
#901 = AXIS2_PLACEMENT_3D ( 'NONE', #553, #330, #934 ) ;
#902 = EDGE_CURVE ( 'NONE', #39, #111, #258, .T. ) ;
#903 = LINE ( 'NONE', #365, #353 ) ;
#904 = CARTESIAN_POINT ( 'NONE',  ( 25.62844717968463470, -7.669380188436526247, 0.000000000000000000 ) ) ;
#905 = AXIS2_PLACEMENT_3D ( 'NONE', #911, #64, #78 ) ;
#906 = DIRECTION ( 'NONE',  ( -1.000000000000000000, 0.000000000000000000, 0.000000000000000000 ) ) ;
#907 = VERTEX_POINT ( 'NONE', #689 ) ;
#908 = AXIS2_PLACEMENT_3D ( 'NONE', #821, #974, #55 ) ;
#909 = AXIS2_PLACEMENT_3D ( 'NONE', #591, #434, #956 ) ;
#910 = DIRECTION ( 'NONE',  ( 0.000000000000000000, 0.000000000000000000, -1.000000000000000000 ) ) ;
#911 = CARTESIAN_POINT ( 'NONE',  ( 17.50000000000000000, 5.665837688104247150, 3.000000000000000000 ) ) ;
#912 = EDGE_CURVE ( 'NONE', #922, #469, #401, .T. ) ;
#913 = CYLINDRICAL_SURFACE ( 'NONE', #189, 3.010000000000024656 ) ;
#914 = VERTEX_POINT ( 'NONE', #546 ) ;
#915 = CARTESIAN_POINT ( 'NONE',  ( -23.37155282031536885, -7.669380188436541346, 3.000000000000000000 ) ) ;
#916 = CARTESIAN_POINT ( 'NONE',  ( 24.12844717968463115, -17.66938018843652358, 0.000000000000000000 ) ) ;
#917 = CYLINDRICAL_SURFACE ( 'NONE', #477, 1.500000000000001332 ) ;
#918 = EDGE_LOOP ( 'NONE', ( #695, #42, #209, #261, #259, #812, #578, #779, #265, #126 ) ) ;
#919 = FACE_BOUND ( 'NONE', #465, .T. ) ;
#920 = CARTESIAN_POINT ( 'NONE',  ( -30.00000000000000000, -1.269316313106120919, 0.000000000000000000 ) ) ;
#921 = CARTESIAN_POINT ( 'NONE',  ( -7.331552820224700895, -12.66931631310608353, 3.000000000000000000 ) ) ;
#922 = VERTEX_POINT ( 'NONE', #241 ) ;
#923 = FACE_BOUND ( 'NONE', #538, .T. ) ;
#924 = UNCERTAINTY_MEASURE_WITH_UNIT (LENGTH_MEASURE( 1.000000000000000082E-05 ), #639, 'distance_accuracy_value', 'NONE');
#925 = CYLINDRICAL_SURFACE ( 'NONE', #840, 1.500000000000001332 ) ;
#926 = ORIENTED_EDGE ( 'NONE', *, *, #954, .F. ) ;
#927 = EDGE_CURVE ( 'NONE', #574, #66, #766, .T. ) ;
#928 = DIRECTION ( 'NONE',  ( -1.000000000000000000, 0.000000000000000000, 0.000000000000000000 ) ) ;
#929 = FACE_OUTER_BOUND ( 'NONE', #80, .T. ) ;
#930 = ORIENTED_EDGE ( 'NONE', *, *, #808, .T. ) ;
#931 = CYLINDRICAL_SURFACE ( 'NONE', #149, 1.500000000000001332 ) ;
#932 = CYLINDRICAL_SURFACE ( 'NONE', #727, 1.500000000000001332 ) ;
#933 = ORIENTED_EDGE ( 'NONE', *, *, #882, .F. ) ;
#934 = DIRECTION ( 'NONE',  ( -1.000000000000000000, 0.000000000000000000, 0.000000000000000000 ) ) ;
#935 = CARTESIAN_POINT ( 'NONE',  ( 0.000000000000000000, 0.000000000000000000, 3.000000000000000000 ) ) ;
#936 = VERTEX_POINT ( 'NONE', #455 ) ;
#937 = EDGE_CURVE ( 'NONE', #792, #794, #85, .T. ) ;
#938 = AXIS2_PLACEMENT_3D ( 'NONE', #817, #529, #132 ) ;
#939 = FACE_OUTER_BOUND ( 'NONE', #895, .T. ) ;
#940 = ORIENTED_EDGE ( 'NONE', *, *, #92, .F. ) ;
#941 = EDGE_CURVE ( 'NONE', #459, #570, #627, .T. ) ;
#942 = LINE ( 'NONE', #253, #270 ) ;
#943 = DIRECTION ( 'NONE',  ( 0.000000000000000000, 0.000000000000000000, 1.000000000000000000 ) ) ;
#944 = ORIENTED_EDGE ( 'NONE', *, *, #954, .T. ) ;
#945 = DIRECTION ( 'NONE',  ( -0.000000000000000000, -0.000000000000000000, -1.000000000000000000 ) ) ;
#946 = ORIENTED_EDGE ( 'NONE', *, *, #484, .T. ) ;
#947 = ADVANCED_FACE ( 'NONE', ( #541 ), #838, .F. ) ;
#948 = VECTOR ( 'NONE', #505, 1000.000000000000000 ) ;
#949 = CARTESIAN_POINT ( 'NONE',  ( -13.35155282022475021, -12.66931631310608353, 3.000000000000000000 ) ) ;
#950 = VECTOR ( 'NONE', #691, 1000.000000000000000 ) ;
#951 = ORIENTED_EDGE ( 'NONE', *, *, #760, .F. ) ;
#952 = DIRECTION ( 'NONE',  ( -1.000000000000000000, 0.000000000000000000, 0.000000000000000000 ) ) ;
#953 = EDGE_LOOP ( 'NONE', ( #222, #124, #525, #195 ) ) ;
#954 = EDGE_CURVE ( 'NONE', #664, #570, #662, .T. ) ;
#955 = ORIENTED_EDGE ( 'NONE', *, *, #302, .T. ) ;
#956 = DIRECTION ( 'NONE',  ( -1.000000000000000000, 0.000000000000000000, 0.000000000000000000 ) ) ;
#957 = ORIENTED_EDGE ( 'NONE', *, *, #593, .T. ) ;
#958 = LINE ( 'NONE', #795, #867 ) ;
#959 = VERTEX_POINT ( 'NONE', #81 ) ;
#960 = STYLED_ITEM ( 'NONE', ( #857 ), #829 ) ;
#961 = DIRECTION ( 'NONE',  ( 0.000000000000000000, 0.000000000000000000, -1.000000000000000000 ) ) ;
#962 = ORIENTED_EDGE ( 'NONE', *, *, #252, .F. ) ;
#963 = CARTESIAN_POINT ( 'NONE',  ( 12.15844717968458966, -12.66938018843652358, 3.000000000000000000 ) ) ;
#964 = ORIENTED_EDGE ( 'NONE', *, *, #896, .T. ) ;
#965 = CARTESIAN_POINT ( 'NONE',  ( -7.500000000000000000, 0.000000000000000000, 3.000000000000000000 ) ) ;
#966 = EDGE_CURVE ( 'NONE', #425, #683, #696, .T. ) ;
#967 = ORIENTED_EDGE ( 'NONE', *, *, #722, .T. ) ;
#968 = CIRCLE ( 'NONE', #652, 1.500000000000001332 ) ;
#969 = CARTESIAN_POINT ( 'NONE',  ( 15.16844717968458767, -12.66938018843652358, 3.000000000000000000 ) ) ;
#970 = LINE ( 'NONE', #377, #504 ) ;
#971 = DIRECTION ( 'NONE',  ( -0.000000000000000000, -0.000000000000000000, -1.000000000000000000 ) ) ;
#972 = ORIENTED_EDGE ( 'NONE', *, *, #285, .F. ) ;
#973 = DIRECTION ( 'NONE',  ( -1.000000000000000000, 0.000000000000000000, 0.000000000000000000 ) ) ;
#974 = DIRECTION ( 'NONE',  ( 0.000000000000000000, 0.000000000000000000, -1.000000000000000000 ) ) ;
#975 = CARTESIAN_POINT ( 'NONE',  ( -24.87155282031536885, -7.669380188436541346, 0.000000000000000000 ) ) ;
#976 = ORIENTED_EDGE ( 'NONE', *, *, #363, .T. ) ;
#977 = DIRECTION ( 'NONE',  ( -0.000000000000000000, -0.000000000000000000, -1.000000000000000000 ) ) ;
#978 = DIRECTION ( 'NONE',  ( 1.000000000000000000, 0.000000000000000000, 0.000000000000000000 ) ) ;
#979 = DIRECTION ( 'NONE',  ( 0.000000000000000000, 0.000000000000000000, -1.000000000000000000 ) ) ;
#980 = ORIENTED_EDGE ( 'NONE', *, *, #461, .T. ) ;
#981 = VECTOR ( 'NONE', #945, 1000.000000000000000 ) ;
#982 = ADVANCED_FACE ( 'NONE', ( #17 ), #932, .F. ) ;
#983 = DIRECTION ( 'NONE',  ( -0.000000000000000000, -0.000000000000000000, -1.000000000000000000 ) ) ;
#984 = DIRECTION ( 'NONE',  ( 0.000000000000000000, 0.000000000000000000, -1.000000000000000000 ) ) ;
#985 = CARTESIAN_POINT ( 'NONE',  ( 17.50000000000000000, 5.665837688104247150, 3.000000000000000000 ) ) ;
#986 = VERTEX_POINT ( 'NONE', #246 ) ;
#987 = DIRECTION ( 'NONE',  ( 0.000000000000000000, -0.000000000000000000, -1.000000000000000000 ) ) ;
#988 = PLANE ( 'NONE',  #905 ) ;
#989 = EDGE_CURVE ( 'NONE', #469, #922, #781, .T. ) ;
#990 = CARTESIAN_POINT ( 'NONE',  ( 9.148447179684589869, -12.66938018843652358, 0.000000000000000000 ) ) ;
#991 = ORIENTED_EDGE ( 'NONE', *, *, #92, .T. ) ;
#992 = AXIS2_PLACEMENT_3D ( 'NONE', #167, #399, #326 ) ;
ENDSEC;
END-ISO-10303-21;
