ISO-10303-21;
HEADER;
FILE_DESCRIPTION (( 'STEP AP214' ),
    '1' );
FILE_NAME ('bianpian18gai.STEP',
    '2026-07-18T18:25:56',
    ( '' ),
    ( '' ),
    'SwSTEP 2.0',
    'SolidWorks 2020',
    '' );
FILE_SCHEMA (( 'AUTOMOTIVE_DESIGN' ));
ENDSEC;

DATA;
#1 = LINE ( 'NONE', #188, #402 ) ;
#2 = AXIS2_PLACEMENT_3D ( 'NONE', #955, #633, #946 ) ;
#3 = VECTOR ( 'NONE', #848, 1000.000000000000000 ) ;
#4 = EDGE_CURVE ( 'NONE', #950, #376, #50, .T. ) ;
#5 = CARTESIAN_POINT ( 'NONE',  ( 25.62844717968463470, -7.669380188436526247, 0.000000000000000000 ) ) ;
#6 = VERTEX_POINT ( 'NONE', #827 ) ;
#7 = DIRECTION ( 'NONE',  ( -0.000000000000000000, -0.000000000000000000, -1.000000000000000000 ) ) ;
#8 = CARTESIAN_POINT ( 'NONE',  ( -23.37155282031536885, -7.669380188436541346, 3.000000000000000000 ) ) ;
#9 = VERTEX_POINT ( 'NONE', #307 ) ;
#10 = CARTESIAN_POINT ( 'NONE',  ( -23.37155282031536174, -17.66938018843654135, 3.000000000000000000 ) ) ;
#11 = DIRECTION ( 'NONE',  ( 1.239088197126290817E-16, -1.000000000000000000, 0.000000000000000000 ) ) ;
#12 = FACE_BOUND ( 'NONE', #43, .T. ) ;
#13 = CARTESIAN_POINT ( 'NONE',  ( -30.00000000000000000, -1.269316313106120919, 3.000000000000000000 ) ) ;
#14 = ORIENTED_EDGE ( 'NONE', *, *, #759, .T. ) ;
#15 = CARTESIAN_POINT ( 'NONE',  ( -24.87155282031536174, -17.66938018843654135, 3.000000000000000000 ) ) ;
#16 = FACE_BOUND ( 'NONE', #770, .T. ) ;
#17 = EDGE_CURVE ( 'NONE', #641, #298, #812, .T. ) ;
#18 = CARTESIAN_POINT ( 'NONE',  ( 0.000000000000000000, 0.000000000000000000, 0.000000000000000000 ) ) ;
#19 = CARTESIAN_POINT ( 'NONE',  ( -23.37155282031536174, -17.66938018843654135, 3.000000000000000000 ) ) ;
#20 = ORIENTED_EDGE ( 'NONE', *, *, #373, .T. ) ;
#21 = CARTESIAN_POINT ( 'NONE',  ( 25.62844717968463470, -17.66938018843652358, 3.000000000000000000 ) ) ;
#22 = CARTESIAN_POINT ( 'NONE',  ( 27.12844717968463470, -17.66938018843652358, 3.000000000000000000 ) ) ;
#23 = CYLINDRICAL_SURFACE ( 'NONE', #652, 1.500000000000001332 ) ;
#24 = EDGE_CURVE ( 'NONE', #400, #349, #387, .T. ) ;
#25 = FACE_OUTER_BOUND ( 'NONE', #573, .T. ) ;
#26 = ORIENTED_EDGE ( 'NONE', *, *, #486, .F. ) ;
#27 = CARTESIAN_POINT ( 'NONE',  ( 24.12844717968463115, -7.669380188436526247, 3.000000000000000000 ) ) ;
#28 = CARTESIAN_POINT ( 'NONE',  ( -24.87155282031536174, -17.66938018843654135, 3.000000000000000000 ) ) ;
#29 = UNCERTAINTY_MEASURE_WITH_UNIT (LENGTH_MEASURE( 1.000000000000000082E-05 ), #972, 'distance_accuracy_value', 'NONE');
#30 = VERTEX_POINT ( 'NONE', #586 ) ;
#31 = AXIS2_PLACEMENT_3D ( 'NONE', #821, #68, #380 ) ;
#32 = DIRECTION ( 'NONE',  ( -1.000000000000000000, 0.000000000000000000, 0.000000000000000000 ) ) ;
#33 = ADVANCED_FACE ( 'NONE', ( #79 ), #604, .F. ) ;
#34 = LINE ( 'NONE', #634, #927 ) ;
#35 = ORIENTED_EDGE ( 'NONE', *, *, #106, .T. ) ;
#36 = DIRECTION ( 'NONE',  ( -1.000000000000000000, -4.336808689942017243E-16, 0.000000000000000000 ) ) ;
#37 = CARTESIAN_POINT ( 'NONE',  ( 25.62844717968463470, -7.669380188436526247, 3.000000000000000000 ) ) ;
#38 = ORIENTED_EDGE ( 'NONE', *, *, #990, .F. ) ;
#39 = DIRECTION ( 'NONE',  ( -0.000000000000000000, -0.000000000000000000, -1.000000000000000000 ) ) ;
#40 = CIRCLE ( 'NONE', #214, 1.500000000000001332 ) ;
#41 = AXIS2_PLACEMENT_3D ( 'NONE', #502, #811, #359 ) ;
#42 = AXIS2_PLACEMENT_3D ( 'NONE', #441, #742, #146 ) ;
#43 = EDGE_LOOP ( 'NONE', ( #796, #938 ) ) ;
#44 = PLANE ( 'NONE',  #136 ) ;
#45 = VERTEX_POINT ( 'NONE', #518 ) ;
#46 = CARTESIAN_POINT ( 'NONE',  ( -17.50000000000000000, 5.665837688104242709, 0.000000000000000000 ) ) ;
#47 = FILL_AREA_STYLE ('',( #63 ) ) ;
#48 = ADVANCED_FACE ( 'NONE', ( #367 ), #899, .F. ) ;
#49 = ORIENTED_EDGE ( 'NONE', *, *, #795, .F. ) ;
#50 = CIRCLE ( 'NONE', #975, 1.499999999999999556 ) ;
#51 = LINE ( 'NONE', #577, #511 ) ;
#52 = EDGE_LOOP ( 'NONE', ( #105, #877 ) ) ;
#53 = EDGE_CURVE ( 'NONE', #735, #591, #749, .T. ) ;
#54 = DIRECTION ( 'NONE',  ( 0.4851462237387871856, -0.8744330400848281393, 0.000000000000000000 ) ) ;
#55 = AXIS2_PLACEMENT_3D ( 'NONE', #650, #281, #799 ) ;
#56 = AXIS2_PLACEMENT_3D ( 'NONE', #889, #131, #205 ) ;
#57 = AXIS2_PLACEMENT_3D ( 'NONE', #383, #288, #71 ) ;
#58 = DIRECTION ( 'NONE',  ( 1.000000000000000000, 0.000000000000000000, 0.000000000000000000 ) ) ;
#59 = EDGE_LOOP ( 'NONE', ( #413, #379, #305, #287 ) ) ;
#60 = PRODUCT_RELATED_PRODUCT_CATEGORY ( 'part', '', ( #319 ) ) ;
#61 = EDGE_CURVE ( 'NONE', #520, #591, #69, .T. ) ;
#62 =( NAMED_UNIT ( * ) SI_UNIT ( $, .STERADIAN. ) SOLID_ANGLE_UNIT ( ) );
#63 = FILL_AREA_STYLE_COLOUR ( '', #600 ) ;
#64 = EDGE_LOOP ( 'NONE', ( #942, #816, #616, #569 ) ) ;
#65 = EDGE_CURVE ( 'NONE', #218, #360, #986, .T. ) ;
#66 = CYLINDRICAL_SURFACE ( 'NONE', #42, 9.000000000000000000 ) ;
#67 = EDGE_LOOP ( 'NONE', ( #419, #132 ) ) ;
#68 = DIRECTION ( 'NONE',  ( 0.000000000000000000, 0.000000000000000000, -1.000000000000000000 ) ) ;
#69 = CIRCLE ( 'NONE', #963, 1.500000000000001332 ) ;
#70 = AXIS2_PLACEMENT_3D ( 'NONE', #467, #485, #11 ) ;
#71 = DIRECTION ( 'NONE',  ( -1.000000000000000000, 0.000000000000000000, 0.000000000000000000 ) ) ;
#72 = ORIENTED_EDGE ( 'NONE', *, *, #515, .T. ) ;
#73 = VECTOR ( 'NONE', #466, 1000.000000000000000 ) ;
#74 = DIRECTION ( 'NONE',  ( -1.000000000000000000, 0.000000000000000000, 0.000000000000000000 ) ) ;
#75 = ORIENTED_EDGE ( 'NONE', *, *, #702, .T. ) ;
#76 = CARTESIAN_POINT ( 'NONE',  ( -10.34155282022472555, -12.66931631310613859, 0.000000000000000000 ) ) ;
#77 = DIRECTION ( 'NONE',  ( 1.000000000000000000, 1.156482317317871478E-16, -0.000000000000000000 ) ) ;
#78 = ORIENTED_EDGE ( 'NONE', *, *, #303, .F. ) ;
#79 = FACE_OUTER_BOUND ( 'NONE', #219, .T. ) ;
#80 = EDGE_CURVE ( 'NONE', #9, #653, #226, .T. ) ;
#81 = FACE_OUTER_BOUND ( 'NONE', #697, .T. ) ;
#82 = ORIENTED_EDGE ( 'NONE', *, *, #635, .T. ) ;
#83 = MECHANICAL_DESIGN_GEOMETRIC_PRESENTATION_REPRESENTATION (  '', ( #846 ), #914 ) ;
#84 = EDGE_CURVE ( 'NONE', #298, #691, #415, .T. ) ;
#85 = CARTESIAN_POINT ( 'NONE',  ( 24.12844717968463115, -17.66938018843652358, 0.000000000000000000 ) ) ;
#86 = ORIENTED_EDGE ( 'NONE', *, *, #585, .F. ) ;
#87 = DIRECTION ( 'NONE',  ( -1.000000000000000000, 0.000000000000000000, 0.000000000000000000 ) ) ;
#88 = CARTESIAN_POINT ( 'NONE',  ( 21.15844717968458966, -12.66938018843655023, 3.000000000000000000 ) ) ;
#89 = LINE ( 'NONE', #13, #308 ) ;
#90 = ADVANCED_FACE ( 'NONE', ( #392 ), #714, .F. ) ;
#91 = ORIENTED_EDGE ( 'NONE', *, *, #470, .T. ) ;
#92 = LINE ( 'NONE', #27, #843 ) ;
#93 = FACE_BOUND ( 'NONE', #450, .T. ) ;
#94 = DIRECTION ( 'NONE',  ( 0.000000000000000000, 0.000000000000000000, -1.000000000000000000 ) ) ;
#95 = CARTESIAN_POINT ( 'NONE',  ( 27.12844717968463470, -17.66938018843652358, 3.000000000000000000 ) ) ;
#96 = ORIENTED_EDGE ( 'NONE', *, *, #503, .T. ) ;
#97 = CARTESIAN_POINT ( 'NONE',  ( -7.500000000000000000, 0.000000000000000000, 0.000000000000000000 ) ) ;
#98 = PLANE ( 'NONE',  #781 ) ;
#99 = MECHANICAL_DESIGN_GEOMETRIC_PRESENTATION_REPRESENTATION (  '', ( #574 ), #180 ) ;
#100 = CARTESIAN_POINT ( 'NONE',  ( -11.68216463570283814, 2.350343297401846332, 0.000000000000000000 ) ) ;
#101 = DIRECTION ( 'NONE',  ( -0.000000000000000000, -0.000000000000000000, -1.000000000000000000 ) ) ;
#102 = ORIENTED_EDGE ( 'NONE', *, *, #381, .F. ) ;
#103 = LINE ( 'NONE', #110, #293 ) ;
#104 = CARTESIAN_POINT ( 'NONE',  ( 3.158447179684590100, -12.66938018843655200, 3.000000000000000000 ) ) ;
#105 = ORIENTED_EDGE ( 'NONE', *, *, #613, .T. ) ;
#106 = EDGE_CURVE ( 'NONE', #456, #435, #403, .T. ) ;
#107 = FACE_BOUND ( 'NONE', #144, .T. ) ;
#108 = CYLINDRICAL_SURFACE ( 'NONE', #217, 1.500000000000001332 ) ;
#109 = VERTEX_POINT ( 'NONE', #921 ) ;
#110 = CARTESIAN_POINT ( 'NONE',  ( -7.500000000000000000, 5.665837688104247150, 3.000000000000000000 ) ) ;
#111 = CARTESIAN_POINT ( 'NONE',  ( 0.000000000000000000, 0.000000000000000000, 3.000000000000000000 ) ) ;
#112 = VERTEX_POINT ( 'NONE', #22 ) ;
#113 = CARTESIAN_POINT ( 'NONE',  ( -23.37155282031536885, -7.669380188436541346, 3.000000000000000000 ) ) ;
#114 = ORIENTED_EDGE ( 'NONE', *, *, #329, .F. ) ;
#115 = FACE_OUTER_BOUND ( 'NONE', #471, .T. ) ;
#116 = ORIENTED_EDGE ( 'NONE', *, *, #61, .T. ) ;
#117 = FACE_OUTER_BOUND ( 'NONE', #129, .T. ) ;
#118 = CIRCLE ( 'NONE', #763, 1.500000000000001332 ) ;
#119 = PRESENTATION_STYLE_ASSIGNMENT (( #429 ) ) ;
#120 = VECTOR ( 'NONE', #987, 1000.000000000000000 ) ;
#121 = ADVANCED_FACE ( 'NONE', ( #849 ), #98, .F. ) ;
#122 = VERTEX_POINT ( 'NONE', #237 ) ;
#123 = CARTESIAN_POINT ( 'NONE',  ( 24.12844717968463115, -17.66938018843652358, 3.000000000000000000 ) ) ;
#124 = ORIENTED_EDGE ( 'NONE', *, *, #503, .F. ) ;
#125 = SURFACE_STYLE_FILL_AREA ( #493 ) ;
#126 = CYLINDRICAL_SURFACE ( 'NONE', #56, 1.499999999999999556 ) ;
#127 = EDGE_CURVE ( 'NONE', #670, #758, #262, .T. ) ;
#128 = ORIENTED_EDGE ( 'NONE', *, *, #17, .T. ) ;
#129 = EDGE_LOOP ( 'NONE', ( #832, #483, #992, #545 ) ) ;
#130 = DIRECTION ( 'NONE',  ( -0.000000000000000000, -0.000000000000000000, -1.000000000000000000 ) ) ;
#131 = DIRECTION ( 'NONE',  ( -0.000000000000000000, -0.000000000000000000, -1.000000000000000000 ) ) ;
#132 = ORIENTED_EDGE ( 'NONE', *, *, #338, .T. ) ;
#133 = ADVANCED_FACE ( 'NONE', ( #689 ), #159, .F. ) ;
#134 = CIRCLE ( 'NONE', #510, 1.500000000000001332 ) ;
#135 = CARTESIAN_POINT ( 'NONE',  ( -24.87155282031536885, -7.669380188436541346, 0.000000000000000000 ) ) ;
#136 = AXIS2_PLACEMENT_3D ( 'NONE', #347, #507, #191 ) ;
#137 = AXIS2_PLACEMENT_3D ( 'NONE', #156, #101, #685 ) ;
#138 = ORIENTED_EDGE ( 'NONE', *, *, #759, .F. ) ;
#139 = COLOUR_RGB ( '',1.000000000000000000, 1.000000000000000000, 1.000000000000000000 ) ;
#140 = EDGE_CURVE ( 'NONE', #683, #112, #382, .T. ) ;
#141 = LINE ( 'NONE', #451, #447 ) ;
#142 = EDGE_LOOP ( 'NONE', ( #720, #508, #730, #885 ) ) ;
#143 = CARTESIAN_POINT ( 'NONE',  ( -7.331552820224700895, -12.66931631310613859, 0.000000000000000000 ) ) ;
#144 = EDGE_LOOP ( 'NONE', ( #138, #494 ) ) ;
#145 = CARTESIAN_POINT ( 'NONE',  ( -30.00000000000000000, -1.269316313106120919, 3.000000000000000000 ) ) ;
#146 = DIRECTION ( 'NONE',  ( -1.000000000000000000, 0.000000000000000000, 0.000000000000000000 ) ) ;
#147 = ORIENTED_EDGE ( 'NONE', *, *, #953, .T. ) ;
#148 = AXIS2_PLACEMENT_3D ( 'NONE', #444, #663, #523 ) ;
#149 = DIRECTION ( 'NONE',  ( -0.000000000000000000, -0.000000000000000000, -1.000000000000000000 ) ) ;
#150 = CARTESIAN_POINT ( 'NONE',  ( 11.69683296429715647, 2.350343297401874310, 3.000000000000000000 ) ) ;
#151 = VERTEX_POINT ( 'NONE', #693 ) ;
#152 = EDGE_CURVE ( 'NONE', #641, #531, #620, .T. ) ;
#153 = DIRECTION ( 'NONE',  ( 0.000000000000000000, -1.000000000000000000, 0.000000000000000000 ) ) ;
#154 = ORIENTED_EDGE ( 'NONE', *, *, #211, .F. ) ;
#155 = DIRECTION ( 'NONE',  ( -1.000000000000000000, 0.000000000000000000, 0.000000000000000000 ) ) ;
#156 = CARTESIAN_POINT ( 'NONE',  ( -23.37155282031536885, -7.669380188436541346, 3.000000000000000000 ) ) ;
#157 = ORIENTED_EDGE ( 'NONE', *, *, #903, .F. ) ;
#158 = CARTESIAN_POINT ( 'NONE',  ( 13.19683296429715824, 2.350343297401874310, 0.000000000000000000 ) ) ;
#159 = CYLINDRICAL_SURFACE ( 'NONE', #342, 1.500000000000001332 ) ;
#160 = CIRCLE ( 'NONE', #982, 9.000000000000000000 ) ;
#161 = CIRCLE ( 'NONE', #449, 9.000000000000000000 ) ;
#162 = VECTOR ( 'NONE', #655, 1000.000000000000000 ) ;
#163 = ADVANCED_FACE ( 'NONE', ( #937 ), #625, .F. ) ;
#164 = DIRECTION ( 'NONE',  ( 0.000000000000000000, 0.000000000000000000, -1.000000000000000000 ) ) ;
#165 = ORIENTED_EDGE ( 'NONE', *, *, #275, .F. ) ;
#166 = CARTESIAN_POINT ( 'NONE',  ( -29.99999999999999645, -29.26931631310612048, 0.000000000000000000 ) ) ;
#167 = DIRECTION ( 'NONE',  ( 0.000000000000000000, 1.000000000000000000, 0.000000000000000000 ) ) ;
#168 = DIRECTION ( 'NONE',  ( -1.000000000000000000, 0.000000000000000000, 0.000000000000000000 ) ) ;
#169 = FACE_OUTER_BOUND ( 'NONE', #505, .T. ) ;
#170 = ORIENTED_EDGE ( 'NONE', *, *, #80, .T. ) ;
#171 = DIRECTION ( 'NONE',  ( -0.000000000000000000, -0.000000000000000000, -1.000000000000000000 ) ) ;
#172 = DIRECTION ( 'NONE',  ( 0.000000000000000000, 0.000000000000000000, -1.000000000000000000 ) ) ;
#173 = CARTESIAN_POINT ( 'NONE',  ( 11.69683296429715647, 2.350343297401874310, 3.000000000000000000 ) ) ;
#174 = LINE ( 'NONE', #469, #723 ) ;
#175 = ORIENTED_EDGE ( 'NONE', *, *, #443, .T. ) ;
#176 = DIRECTION ( 'NONE',  ( 0.000000000000000000, 0.000000000000000000, -1.000000000000000000 ) ) ;
#177 = ADVANCED_FACE ( 'NONE', ( #178 ), #478, .F. ) ;
#178 = FACE_OUTER_BOUND ( 'NONE', #607, .T. ) ;
#179 = CIRCLE ( 'NONE', #343, 1.499999999999999556 ) ;
#180 =( GEOMETRIC_REPRESENTATION_CONTEXT ( 3 ) GLOBAL_UNCERTAINTY_ASSIGNED_CONTEXT ( ( #954 ) ) GLOBAL_UNIT_ASSIGNED_CONTEXT ( ( #564, #277, #490 ) ) REPRESENTATION_CONTEXT ( 'NONE', 'WORKASPACE' ) );
#181 = DIRECTION ( 'NONE',  ( -0.000000000000000000, -1.000000000000000000, -0.000000000000000000 ) ) ;
#182 = DIRECTION ( 'NONE',  ( -0.000000000000000000, -0.000000000000000000, -1.000000000000000000 ) ) ;
#183 = PRESENTATION_LAYER_ASSIGNMENT (  '', '', ( #846 ) ) ;
#184 = ORIENTED_EDGE ( 'NONE', *, *, #84, .F. ) ;
#185 = CARTESIAN_POINT ( 'NONE',  ( 25.62844717968463470, -7.669380188436526247, 0.000000000000000000 ) ) ;
#186 = FACE_BOUND ( 'NONE', #567, .T. ) ;
#187 = EDGE_CURVE ( 'NONE', #349, #256, #521, .T. ) ;
#188 = CARTESIAN_POINT ( 'NONE',  ( 7.500000000000000000, 0.000000000000000000, 3.000000000000000000 ) ) ;
#189 = CARTESIAN_POINT ( 'NONE',  ( -17.50000000000000000, 5.665837688104242709, 0.000000000000000000 ) ) ;
#190 = ORIENTED_EDGE ( 'NONE', *, *, #738, .T. ) ;
#191 = DIRECTION ( 'NONE',  ( -1.000000000000000000, -1.156482317317871478E-16, 0.000000000000000000 ) ) ;
#192 = ORIENTED_EDGE ( 'NONE', *, *, #888, .T. ) ;
#193 = CLOSED_SHELL ( 'NONE', ( #299, #177, #133, #33, #251, #659, #800, #498, #643, #754, #557, #90, #900, #48, #542, #163, #121, #686, #195, #259, #719, #892, #824, #869, #595, #234, #238, #726 ) ) ;
#194 = CARTESIAN_POINT ( 'NONE',  ( 7.500000000000000000, 5.665837688104247150, 3.000000000000000000 ) ) ;
#195 = ADVANCED_FACE ( 'NONE', ( #925, #255, #186, #541, #410, #93, #16, #931, #547 ), #552, .F. ) ;
#196 = FILL_AREA_STYLE_COLOUR ( '', #139 ) ;
#197 = EDGE_LOOP ( 'NONE', ( #408, #326, #86, #593 ) ) ;
#198 = DIRECTION ( 'NONE',  ( 0.000000000000000000, 0.000000000000000000, -1.000000000000000000 ) ) ;
#199 = ORIENTED_EDGE ( 'NONE', *, *, #981, .F. ) ;
#200 = EDGE_CURVE ( 'NONE', #247, #301, #778, .T. ) ;
#201 = CIRCLE ( 'NONE', #884, 1.500000000000001332 ) ;
#202 = DIRECTION ( 'NONE',  ( 0.000000000000000000, 0.000000000000000000, -1.000000000000000000 ) ) ;
#203 = ORIENTED_EDGE ( 'NONE', *, *, #581, .T. ) ;
#204 = DIRECTION ( 'NONE',  ( -0.000000000000000000, -1.000000000000000000, -0.000000000000000000 ) ) ;
#205 = DIRECTION ( 'NONE',  ( -1.000000000000000000, 0.000000000000000000, 0.000000000000000000 ) ) ;
#206 = EDGE_CURVE ( 'NONE', #775, #740, #134, .T. ) ;
#207 = EDGE_LOOP ( 'NONE', ( #278, #476, #296, #14 ) ) ;
#208 = ORIENTED_EDGE ( 'NONE', *, *, #227, .T. ) ;
#209 = CARTESIAN_POINT ( 'NONE',  ( -23.37155282031536885, -7.669380188436541346, 0.000000000000000000 ) ) ;
#210 = PRODUCT_DEFINITION_CONTEXT ( 'detailed design', #949, 'design' ) ;
#211 = EDGE_CURVE ( 'NONE', #112, #683, #666, .T. ) ;
#212 = ORIENTED_EDGE ( 'NONE', *, *, #486, .T. ) ;
#213 = AXIS2_PLACEMENT_3D ( 'NONE', #242, #462, #768 ) ;
#214 = AXIS2_PLACEMENT_3D ( 'NONE', #113, #94, #266 ) ;
#215 = FACE_OUTER_BOUND ( 'NONE', #142, .T. ) ;
#216 = CIRCLE ( 'NONE', #423, 1.500000000000001332 ) ;
#217 = AXIS2_PLACEMENT_3D ( 'NONE', #309, #876, #645 ) ;
#218 = VERTEX_POINT ( 'NONE', #794 ) ;
#219 = EDGE_LOOP ( 'NONE', ( #286, #75, #529, #741 ) ) ;
#220 = FACE_OUTER_BOUND ( 'NONE', #590, .T. ) ;
#221 = DIRECTION ( 'NONE',  ( -1.000000000000000000, 0.000000000000000000, 0.000000000000000000 ) ) ;
#222 = EDGE_CURVE ( 'NONE', #881, #735, #40, .T. ) ;
#223 = DIRECTION ( 'NONE',  ( -0.000000000000000000, -0.000000000000000000, -1.000000000000000000 ) ) ;
#224 = ORIENTED_EDGE ( 'NONE', *, *, #284, .T. ) ;
#225 = VERTEX_POINT ( 'NONE', #703 ) ;
#226 = CIRCLE ( 'NONE', #911, 3.010000000000024656 ) ;
#227 = EDGE_CURVE ( 'NONE', #644, #30, #1, .T. ) ;
#228 = CYLINDRICAL_SURFACE ( 'NONE', #750, 1.500000000000001332 ) ;
#229 = AXIS2_PLACEMENT_3D ( 'NONE', #336, #39, #424 ) ;
#230 = ORIENTED_EDGE ( 'NONE', *, *, #284, .F. ) ;
#231 =( GEOMETRIC_REPRESENTATION_CONTEXT ( 3 ) GLOBAL_UNCERTAINTY_ASSIGNED_CONTEXT ( ( #29 ) ) GLOBAL_UNIT_ASSIGNED_CONTEXT ( ( #972, #711, #337 ) ) REPRESENTATION_CONTEXT ( 'NONE', 'WORKASPACE' ) );
#232 = LINE ( 'NONE', #596, #480 ) ;
#233 = ORIENTED_EDGE ( 'NONE', *, *, #454, .T. ) ;
#234 = ADVANCED_FACE ( 'NONE', ( #117 ), #23, .F. ) ;
#235 = PLANE ( 'NONE',  #602 ) ;
#236 = ORIENTED_EDGE ( 'NONE', *, *, #222, .T. ) ;
#237 = CARTESIAN_POINT ( 'NONE',  ( 7.500000000000000000, 5.665837688104247150, 0.000000000000000000 ) ) ;
#238 = ADVANCED_FACE ( 'NONE', ( #561 ), #245, .F. ) ;
#239 = LINE ( 'NONE', #940, #244 ) ;
#240 = ORIENTED_EDGE ( 'NONE', *, *, #65, .F. ) ;
#241 = DIRECTION ( 'NONE',  ( -1.000000000000000000, 0.000000000000000000, 0.000000000000000000 ) ) ;
#242 = CARTESIAN_POINT ( 'NONE',  ( 25.62844717968463470, -17.66938018843652358, 3.000000000000000000 ) ) ;
#243 = AXIS2_PLACEMENT_3D ( 'NONE', #830, #756, #300 ) ;
#244 = VECTOR ( 'NONE', #790, 1000.000000000000000 ) ;
#245 = CYLINDRICAL_SURFACE ( 'NONE', #229, 3.010000000000024656 ) ;
#246 = DIRECTION ( 'NONE',  ( 1.239088197126290817E-16, -1.000000000000000000, 0.000000000000000000 ) ) ;
#247 = VERTEX_POINT ( 'NONE', #397 ) ;
#248 = DIRECTION ( 'NONE',  ( -1.000000000000000000, 0.000000000000000000, 0.000000000000000000 ) ) ;
#249 = DIRECTION ( 'NONE',  ( -1.000000000000000000, 0.000000000000000000, 0.000000000000000000 ) ) ;
#250 = DIRECTION ( 'NONE',  ( -1.000000000000000000, 0.000000000000000000, 0.000000000000000000 ) ) ;
#251 = ADVANCED_FACE ( 'NONE', ( #694 ), #543, .F. ) ;
#252 = LINE ( 'NONE', #851, #806 ) ;
#253 = ORIENTED_EDGE ( 'NONE', *, *, #61, .F. ) ;
#254 = DIRECTION ( 'NONE',  ( -0.000000000000000000, -0.000000000000000000, -1.000000000000000000 ) ) ;
#255 = FACE_BOUND ( 'NONE', #67, .T. ) ;
#256 = VERTEX_POINT ( 'NONE', #481 ) ;
#257 = DIRECTION ( 'NONE',  ( -1.000000000000000000, 0.000000000000000000, 0.000000000000000000 ) ) ;
#258 = CARTESIAN_POINT ( 'NONE',  ( 25.62844717968463470, -7.669380188436526247, 3.000000000000000000 ) ) ;
#259 = ADVANCED_FACE ( 'NONE', ( #107, #12, #548, #716, #553, #627, #492, #411, #344 ), #487, .T. ) ;
#260 = ORIENTED_EDGE ( 'NONE', *, *, #888, .F. ) ;
#261 = DIRECTION ( 'NONE',  ( 0.000000000000000000, 0.000000000000000000, -1.000000000000000000 ) ) ;
#262 = LINE ( 'NONE', #700, #678 ) ;
#263 = ORIENTED_EDGE ( 'NONE', *, *, #187, .T. ) ;
#264 = CIRCLE ( 'NONE', #292, 9.000000000000000000 ) ;
#265 = VECTOR ( 'NONE', #771, 999.9999999999998863 ) ;
#266 = DIRECTION ( 'NONE',  ( -1.000000000000000000, 0.000000000000000000, 0.000000000000000000 ) ) ;
#267 = CIRCLE ( 'NONE', #952, 1.500000000000001332 ) ;
#268 = EDGE_LOOP ( 'NONE', ( #976, #491 ) ) ;
#269 = SURFACE_STYLE_USAGE ( .BOTH. , #572 ) ;
#270 = DIRECTION ( 'NONE',  ( -1.239088197126290817E-16, 1.000000000000000000, -0.000000000000000000 ) ) ;
#271 = CARTESIAN_POINT ( 'NONE',  ( -17.50000000000000000, 5.665837688104242709, 3.000000000000000000 ) ) ;
#272 = ORIENTED_EDGE ( 'NONE', *, *, #674, .T. ) ;
#273 = CARTESIAN_POINT ( 'NONE',  ( -7.500000000000000000, 0.000000000000000000, 3.000000000000000000 ) ) ;
#274 = ORIENTED_EDGE ( 'NONE', *, *, #418, .F. ) ;
#275 = EDGE_CURVE ( 'NONE', #791, #969, #828, .T. ) ;
#276 = DIRECTION ( 'NONE',  ( 0.8744330400848281393, 0.4851462237387871856, 0.000000000000000000 ) ) ;
#277 =( NAMED_UNIT ( * ) PLANE_ANGLE_UNIT ( ) SI_UNIT ( $, .RADIAN. ) );
#278 = ORIENTED_EDGE ( 'NONE', *, *, #152, .F. ) ;
#279 = ORIENTED_EDGE ( 'NONE', *, *, #525, .F. ) ;
#280 = FACE_OUTER_BOUND ( 'NONE', #64, .T. ) ;
#281 = DIRECTION ( 'NONE',  ( 0.000000000000000000, 0.000000000000000000, -1.000000000000000000 ) ) ;
#282 = PRESENTATION_STYLE_ASSIGNMENT (( #269 ) ) ;
#283 = EDGE_LOOP ( 'NONE', ( #78, #873 ) ) ;
#284 = EDGE_CURVE ( 'NONE', #311, #644, #621, .T. ) ;
#285 = FACE_OUTER_BOUND ( 'NONE', #197, .T. ) ;
#286 = ORIENTED_EDGE ( 'NONE', *, *, #4, .F. ) ;
#287 = ORIENTED_EDGE ( 'NONE', *, *, #903, .T. ) ;
#288 = DIRECTION ( 'NONE',  ( -0.000000000000000000, -0.000000000000000000, -1.000000000000000000 ) ) ;
#289 = ORIENTED_EDGE ( 'NONE', *, *, #355, .F. ) ;
#290 = EDGE_LOOP ( 'NONE', ( #807, #623, #708, #923 ) ) ;
#291 = AXIS2_PLACEMENT_3D ( 'NONE', #111, #172, #473 ) ;
#292 = AXIS2_PLACEMENT_3D ( 'NONE', #866, #340, #706 ) ;
#293 = VECTOR ( 'NONE', #36, 1000.000000000000000 ) ;
#294 = LINE ( 'NONE', #904, #369 ) ;
#295 = ORIENTED_EDGE ( 'NONE', *, *, #971, .F. ) ;
#296 = ORIENTED_EDGE ( 'NONE', *, *, #84, .T. ) ;
#297 = DIRECTION ( 'NONE',  ( -1.000000000000000000, 0.000000000000000000, 0.000000000000000000 ) ) ;
#298 = VERTEX_POINT ( 'NONE', #710 ) ;
#299 = ADVANCED_FACE ( 'NONE', ( #417 ), #855, .F. ) ;
#300 = DIRECTION ( 'NONE',  ( 0.000000000000000000, 0.000000000000000000, -1.000000000000000000 ) ) ;
#301 = VERTEX_POINT ( 'NONE', #317 ) ;
#302 = DIRECTION ( 'NONE',  ( -1.000000000000000000, 0.000000000000000000, 0.000000000000000000 ) ) ;
#303 = EDGE_CURVE ( 'NONE', #766, #632, #356, .T. ) ;
#304 = DIRECTION ( 'NONE',  ( 0.000000000000000000, -0.000000000000000000, -1.000000000000000000 ) ) ;
#305 = ORIENTED_EDGE ( 'NONE', *, *, #53, .T. ) ;
#306 = AXIS2_PLACEMENT_3D ( 'NONE', #651, #804, #960 ) ;
#307 = CARTESIAN_POINT ( 'NONE',  ( -13.35155282022475021, -12.66931631310613859, 0.000000000000000000 ) ) ;
#308 = VECTOR ( 'NONE', #246, 1000.000000000000000 ) ;
#309 = CARTESIAN_POINT ( 'NONE',  ( -23.37155282031536885, -7.669380188436541346, 3.000000000000000000 ) ) ;
#310 = EDGE_CURVE ( 'NONE', #314, #301, #933, .T. ) ;
#311 = VERTEX_POINT ( 'NONE', #614 ) ;
#312 = DIRECTION ( 'NONE',  ( 0.000000000000000000, 0.000000000000000000, -1.000000000000000000 ) ) ;
#313 = DIRECTION ( 'NONE',  ( 0.000000000000000000, 0.000000000000000000, -1.000000000000000000 ) ) ;
#314 = VERTEX_POINT ( 'NONE', #565 ) ;
#315 = CARTESIAN_POINT ( 'NONE',  ( -7.500000000000000000, 5.665837688104247150, 0.000000000000000000 ) ) ;
#316 = CARTESIAN_POINT ( 'NONE',  ( 11.69683296429715647, 2.350343297401874310, 3.000000000000000000 ) ) ;
#317 = CARTESIAN_POINT ( 'NONE',  ( 30.00000000000000000, -1.269316313106113370, 0.000000000000000000 ) ) ;
#318 = CARTESIAN_POINT ( 'NONE',  ( -7.500000000000000000, 0.000000000000000000, 3.000000000000000000 ) ) ;
#319 = PRODUCT ( 'bianpian18gai', 'bianpian18gai', '', ( #438 ) ) ;
#320 = VERTEX_POINT ( 'NONE', #780 ) ;
#321 = LINE ( 'NONE', #395, #818 ) ;
#322 = VECTOR ( 'NONE', #270, 1000.000000000000000 ) ;
#323 = CARTESIAN_POINT ( 'NONE',  ( -7.500000000000000000, 5.665837688104247150, 3.000000000000000000 ) ) ;
#324 = DIRECTION ( 'NONE',  ( 0.000000000000000000, 0.000000000000000000, -1.000000000000000000 ) ) ;
#325 = DIRECTION ( 'NONE',  ( -0.000000000000000000, -0.000000000000000000, -1.000000000000000000 ) ) ;
#326 = ORIENTED_EDGE ( 'NONE', *, *, #443, .F. ) ;
#327 = CARTESIAN_POINT ( 'NONE',  ( -17.50000000000000000, 5.665837688104242709, 3.000000000000000000 ) ) ;
#328 = DIRECTION ( 'NONE',  ( -1.000000000000000000, 0.000000000000000000, 0.000000000000000000 ) ) ;
#329 = EDGE_CURVE ( 'NONE', #109, #626, #179, .T. ) ;
#330 = DIRECTION ( 'NONE',  ( -1.000000000000000000, -0.000000000000000000, -0.000000000000000000 ) ) ;
#331 = DIRECTION ( 'NONE',  ( -1.000000000000000000, 0.000000000000000000, 0.000000000000000000 ) ) ;
#332 = EDGE_LOOP ( 'NONE', ( #945, #240, #49, #563 ) ) ;
#333 = DIRECTION ( 'NONE',  ( 0.000000000000000000, 0.000000000000000000, -1.000000000000000000 ) ) ;
#334 = CARTESIAN_POINT ( 'NONE',  ( 17.50000000000000000, 5.665837688104247150, 3.000000000000000000 ) ) ;
#335 = ORIENTED_EDGE ( 'NONE', *, *, #702, .F. ) ;
#336 = CARTESIAN_POINT ( 'NONE',  ( -10.34155282022472555, -12.66931631310613859, 3.000000000000000000 ) ) ;
#337 =( NAMED_UNIT ( * ) SI_UNIT ( $, .STERADIAN. ) SOLID_ANGLE_UNIT ( ) );
#338 = EDGE_CURVE ( 'NONE', #969, #791, #679, .T. ) ;
#339 = ORIENTED_EDGE ( 'NONE', *, *, #404, .T. ) ;
#340 = DIRECTION ( 'NONE',  ( 0.000000000000000000, 0.000000000000000000, -1.000000000000000000 ) ) ;
#341 = DIRECTION ( 'NONE',  ( -1.000000000000000000, 0.000000000000000000, 0.000000000000000000 ) ) ;
#342 = AXIS2_PLACEMENT_3D ( 'NONE', #316, #608, #328 ) ;
#343 = AXIS2_PLACEMENT_3D ( 'NONE', #100, #939, #257 ) ;
#344 = FACE_OUTER_BOUND ( 'NONE', #886, .T. ) ;
#345 = CIRCLE ( 'NONE', #844, 1.500000000000001332 ) ;
#346 = VERTEX_POINT ( 'NONE', #477 ) ;
#347 = CARTESIAN_POINT ( 'NONE',  ( 30.00000000000000355, -29.26931631310611337, 3.000000000000000000 ) ) ;
#348 = EDGE_CURVE ( 'NONE', #531, #691, #264, .T. ) ;
#349 = VERTEX_POINT ( 'NONE', #158 ) ;
#350 = LINE ( 'NONE', #123, #386 ) ;
#351 = VERTEX_POINT ( 'NONE', #97 ) ;
#352 = CARTESIAN_POINT ( 'NONE',  ( -21.87155282031535819, -17.66938018843654135, 0.000000000000000000 ) ) ;
#353 = DIRECTION ( 'NONE',  ( 1.239088197126290817E-16, -1.000000000000000000, 0.000000000000000000 ) ) ;
#354 = ORIENTED_EDGE ( 'NONE', *, *, #436, .T. ) ;
#355 = EDGE_CURVE ( 'NONE', #740, #917, #92, .T. ) ;
#356 = CIRCLE ( 'NONE', #2, 1.500000000000001332 ) ;
#357 = AXIS2_PLACEMENT_3D ( 'NONE', #185, #484, #87 ) ;
#358 = DIRECTION ( 'NONE',  ( -0.8744330400848281393, -0.4851462237387871856, 0.000000000000000000 ) ) ;
#359 = DIRECTION ( 'NONE',  ( -1.000000000000000000, 0.000000000000000000, 0.000000000000000000 ) ) ;
#360 = VERTEX_POINT ( 'NONE', #166 ) ;
#361 = EDGE_CURVE ( 'NONE', #456, #225, #421, .T. ) ;
#362 = VERTEX_POINT ( 'NONE', #637 ) ;
#363 = ADVANCED_BREP_SHAPE_REPRESENTATION ( 'bianpian18gai', ( #513, #970 ), #231 ) ;
#364 = VECTOR ( 'NONE', #744, 1000.000000000000000 ) ;
#365 = CARTESIAN_POINT ( 'NONE',  ( -24.87155282031536885, -7.669380188436541346, 3.000000000000000000 ) ) ;
#366 = EDGE_CURVE ( 'NONE', #30, #320, #786, .T. ) ;
#367 = FACE_OUTER_BOUND ( 'NONE', #332, .T. ) ;
#368 = VECTOR ( 'NONE', #7, 1000.000000000000000 ) ;
#369 = VECTOR ( 'NONE', #589, 1000.000000000000000 ) ;
#370 = PLANE ( 'NONE',  #913 ) ;
#371 = CIRCLE ( 'NONE', #901, 1.499999999999999556 ) ;
#372 = ORIENTED_EDGE ( 'NONE', *, *, #200, .F. ) ;
#373 = EDGE_CURVE ( 'NONE', #632, #766, #118, .T. ) ;
#374 = CARTESIAN_POINT ( 'NONE',  ( -24.87155282031536885, -7.669380188436541346, 3.000000000000000000 ) ) ;
#375 = LINE ( 'NONE', #672, #120 ) ;
#376 = VERTEX_POINT ( 'NONE', #630 ) ;
#377 = EDGE_CURVE ( 'NONE', #6, #897, #943, .T. ) ;
#378 = DIRECTION ( 'NONE',  ( -1.000000000000000000, 0.000000000000000000, 0.000000000000000000 ) ) ;
#379 = ORIENTED_EDGE ( 'NONE', *, *, #813, .F. ) ;
#380 = DIRECTION ( 'NONE',  ( -1.000000000000000000, 0.000000000000000000, 0.000000000000000000 ) ) ;
#381 = EDGE_CURVE ( 'NONE', #151, #897, #414, .T. ) ;
#382 = CIRCLE ( 'NONE', #213, 1.500000000000001332 ) ;
#383 = CARTESIAN_POINT ( 'NONE',  ( 25.62844717968463470, -17.66938018843652358, 3.000000000000000000 ) ) ;
#384 = AXIS2_PLACEMENT_3D ( 'NONE', #18, #870, #850 ) ;
#385 = ORIENTED_EDGE ( 'NONE', *, *, #649, .F. ) ;
#386 = VECTOR ( 'NONE', #872, 1000.000000000000000 ) ;
#387 = LINE ( 'NONE', #684, #364 ) ;
#388 = VECTOR ( 'NONE', #182, 1000.000000000000000 ) ;
#389 = LINE ( 'NONE', #605, #699 ) ;
#390 = ORIENTED_EDGE ( 'NONE', *, *, #227, .F. ) ;
#391 = DIRECTION ( 'NONE',  ( -0.000000000000000000, -0.000000000000000000, -1.000000000000000000 ) ) ;
#392 = FACE_OUTER_BOUND ( 'NONE', #662, .T. ) ;
#393 = DIRECTION ( 'NONE',  ( -1.000000000000000000, 0.000000000000000000, 0.000000000000000000 ) ) ;
#394 = ORIENTED_EDGE ( 'NONE', *, *, #575, .F. ) ;
#395 = CARTESIAN_POINT ( 'NONE',  ( 17.50000000000000000, 5.665837688104247150, 3.000000000000000000 ) ) ;
#396 = DIRECTION ( 'NONE',  ( 0.000000000000000000, 0.000000000000000000, -1.000000000000000000 ) ) ;
#397 = CARTESIAN_POINT ( 'NONE',  ( 30.00000000000000000, -1.269316313106113370, 3.000000000000000000 ) ) ;
#398 = CARTESIAN_POINT ( 'NONE',  ( -21.87155282031536530, -7.669380188436541346, 3.000000000000000000 ) ) ;
#399 = VECTOR ( 'NONE', #854, 1000.000000000000000 ) ;
#400 = VERTEX_POINT ( 'NONE', #534 ) ;
#401 = DIRECTION ( 'NONE',  ( -1.000000000000000000, 0.000000000000000000, 0.000000000000000000 ) ) ;
#402 = VECTOR ( 'NONE', #181, 1000.000000000000000 ) ;
#403 = LINE ( 'NONE', #28, #399 ) ;
#404 = EDGE_CURVE ( 'NONE', #555, #400, #805, .T. ) ;
#405 = CIRCLE ( 'NONE', #357, 1.500000000000001332 ) ;
#406 = CARTESIAN_POINT ( 'NONE',  ( 12.15844717968458966, -12.66938018843655200, 3.000000000000000000 ) ) ;
#407 = CARTESIAN_POINT ( 'NONE',  ( 12.15844717968458966, -12.66938018843655200, 0.000000000000000000 ) ) ;
#408 = ORIENTED_EDGE ( 'NONE', *, *, #680, .T. ) ;
#409 = DIRECTION ( 'NONE',  ( -1.000000000000000000, 0.000000000000000000, 0.000000000000000000 ) ) ;
#410 = FACE_BOUND ( 'NONE', #52, .T. ) ;
#411 = FACE_BOUND ( 'NONE', #283, .T. ) ;
#412 = CARTESIAN_POINT ( 'NONE',  ( -11.68216463570283814, 2.350343297401846332, 3.000000000000000000 ) ) ;
#413 = ORIENTED_EDGE ( 'NONE', *, *, #747, .F. ) ;
#414 = LINE ( 'NONE', #327, #722 ) ;
#415 = LINE ( 'NONE', #104, #734 ) ;
#416 = ORIENTED_EDGE ( 'NONE', *, *, #874, .T. ) ;
#417 = FACE_OUTER_BOUND ( 'NONE', #893, .T. ) ;
#418 = EDGE_CURVE ( 'NONE', #45, #917, #405, .T. ) ;
#419 = ORIENTED_EDGE ( 'NONE', *, *, #275, .T. ) ;
#420 = LINE ( 'NONE', #733, #967 ) ;
#421 = CIRCLE ( 'NONE', #979, 1.500000000000001332 ) ;
#422 = ORIENTED_EDGE ( 'NONE', *, *, #200, .T. ) ;
#423 = AXIS2_PLACEMENT_3D ( 'NONE', #878, #198, #808 ) ;
#424 = DIRECTION ( 'NONE',  ( -1.000000000000000000, 0.000000000000000000, 0.000000000000000000 ) ) ;
#425 = PRODUCT_DEFINITION_FORMATION_WITH_SPECIFIED_SOURCE ( '任何', '', #319, .NOT_KNOWN. ) ;
#426 = CARTESIAN_POINT ( 'NONE',  ( 24.12844717968463115, -7.669380188436526247, 0.000000000000000000 ) ) ;
#427 = LINE ( 'NONE', #966, #638 ) ;
#428 = EDGE_LOOP ( 'NONE', ( #935, #445, #861, #422 ) ) ;
#429 = SURFACE_STYLE_USAGE ( .BOTH. , #887 ) ;
#430 = DIRECTION ( 'NONE',  ( -0.000000000000000000, -0.000000000000000000, -1.000000000000000000 ) ) ;
#431 = SHAPE_DEFINITION_REPRESENTATION ( #606, #363 ) ;
#432 = ORIENTED_EDGE ( 'NONE', *, *, #674, .F. ) ;
#433 = CARTESIAN_POINT ( 'NONE',  ( -11.68216463570283814, 2.350343297401846332, 0.000000000000000000 ) ) ;
#434 = CARTESIAN_POINT ( 'NONE',  ( 7.500000000000000000, 5.665837688104247150, 3.000000000000000000 ) ) ;
#435 = VERTEX_POINT ( 'NONE', #792 ) ;
#436 = EDGE_CURVE ( 'NONE', #247, #311, #692, .T. ) ;
#437 = AXIS2_PLACEMENT_3D ( 'NONE', #773, #468, #789 ) ;
#438 = PRODUCT_CONTEXT ( 'NONE', #894, 'mechanical' ) ;
#439 = ORIENTED_EDGE ( 'NONE', *, *, #941, .F. ) ;
#440 = EDGE_CURVE ( 'NONE', #758, #151, #103, .T. ) ;
#441 = CARTESIAN_POINT ( 'NONE',  ( 12.15844717968458966, -12.66938018843655200, 3.000000000000000000 ) ) ;
#442 = ORIENTED_EDGE ( 'NONE', *, *, #570, .F. ) ;
#443 = EDGE_CURVE ( 'NONE', #687, #314, #461, .T. ) ;
#444 = CARTESIAN_POINT ( 'NONE',  ( 25.62844717968463470, -7.669380188436526247, 3.000000000000000000 ) ) ;
#445 = ORIENTED_EDGE ( 'NONE', *, *, #454, .F. ) ;
#446 = DIRECTION ( 'NONE',  ( 1.000000000000000000, 1.239088197126290817E-16, -0.000000000000000000 ) ) ;
#447 = VECTOR ( 'NONE', #77, 1000.000000000000000 ) ;
#448 = DIRECTION ( 'NONE',  ( -1.000000000000000000, -0.000000000000000000, -0.000000000000000000 ) ) ;
#449 = AXIS2_PLACEMENT_3D ( 'NONE', #407, #690, #845 ) ;
#450 = EDGE_LOOP ( 'NONE', ( #977, #203 ) ) ;
#451 = CARTESIAN_POINT ( 'NONE',  ( 30.00000000000000355, -29.26931631310611337, 0.000000000000000000 ) ) ;
#452 = ORIENTED_EDGE ( 'NONE', *, *, #4, .T. ) ;
#453 = ORIENTED_EDGE ( 'NONE', *, *, #348, .T. ) ;
#454 = EDGE_CURVE ( 'NONE', #311, #629, #321, .T. ) ;
#455 = CARTESIAN_POINT ( 'NONE',  ( -23.37155282031536174, -17.66938018843654135, 3.000000000000000000 ) ) ;
#456 = VERTEX_POINT ( 'NONE', #15 ) ;
#457 = AXIS2_PLACEMENT_3D ( 'NONE', #862, #176, #241 ) ;
#458 = CARTESIAN_POINT ( 'NONE',  ( -7.500000000000000000, 0.000000000000000000, 3.000000000000000000 ) ) ;
#459 = CIRCLE ( 'NONE', #41, 3.010000000000024656 ) ;
#460 = ORIENTED_EDGE ( 'NONE', *, *, #941, .T. ) ;
#461 = LINE ( 'NONE', #767, #479 ) ;
#462 = DIRECTION ( 'NONE',  ( 0.000000000000000000, 0.000000000000000000, -1.000000000000000000 ) ) ;
#463 = EDGE_CURVE ( 'NONE', #435, #973, #948, .T. ) ;
#464 = FACE_OUTER_BOUND ( 'NONE', #290, .T. ) ;
#465 = EDGE_LOOP ( 'NONE', ( #432, #820, #263, #871 ) ) ;
#466 = DIRECTION ( 'NONE',  ( -1.000000000000000000, -4.336808689942017243E-16, 0.000000000000000000 ) ) ;
#467 = CARTESIAN_POINT ( 'NONE',  ( 30.00000000000000000, -1.269316313106113370, 3.000000000000000000 ) ) ;
#468 = DIRECTION ( 'NONE',  ( -0.000000000000000000, -0.000000000000000000, -1.000000000000000000 ) ) ;
#469 = CARTESIAN_POINT ( 'NONE',  ( -7.500000000000000000, 0.000000000000000000, 0.000000000000000000 ) ) ;
#470 = EDGE_CURVE ( 'NONE', #225, #973, #924, .T. ) ;
#471 = EDGE_LOOP ( 'NONE', ( #489, #295, #578, #980 ) ) ;
#472 = DIRECTION ( 'NONE',  ( 0.000000000000000000, 0.000000000000000000, -1.000000000000000000 ) ) ;
#473 = DIRECTION ( 'NONE',  ( -1.000000000000000000, 0.000000000000000000, -0.000000000000000000 ) ) ;
#474 = CARTESIAN_POINT ( 'NONE',  ( 30.00000000000000000, -1.269316313106113370, 0.000000000000000000 ) ) ;
#475 = DIRECTION ( 'NONE',  ( -0.000000000000000000, -0.000000000000000000, -1.000000000000000000 ) ) ;
#476 = ORIENTED_EDGE ( 'NONE', *, *, #635, .F. ) ;
#477 = CARTESIAN_POINT ( 'NONE',  ( -30.00000000000000000, -1.269316313106120919, 0.000000000000000000 ) ) ;
#478 = CYLINDRICAL_SURFACE ( 'NONE', #909, 3.010000000000024656 ) ;
#479 = VECTOR ( 'NONE', #171, 1000.000000000000000 ) ;
#480 = VECTOR ( 'NONE', #223, 1000.000000000000000 ) ;
#481 = CARTESIAN_POINT ( 'NONE',  ( 10.19683296429715469, 2.350343297401874310, 0.000000000000000000 ) ) ;
#482 = CARTESIAN_POINT ( 'NONE',  ( -13.35155282022475021, -12.66931631310613859, 3.000000000000000000 ) ) ;
#483 = ORIENTED_EDGE ( 'NONE', *, *, #404, .F. ) ;
#484 = DIRECTION ( 'NONE',  ( 0.000000000000000000, 0.000000000000000000, -1.000000000000000000 ) ) ;
#485 = DIRECTION ( 'NONE',  ( -1.000000000000000000, -1.239088197126290817E-16, 0.000000000000000000 ) ) ;
#486 = EDGE_CURVE ( 'NONE', #969, #653, #551, .T. ) ;
#487 = PLANE ( 'NONE',  #384 ) ;
#488 = LINE ( 'NONE', #506, #588 ) ;
#489 = ORIENTED_EDGE ( 'NONE', *, *, #817, .T. ) ;
#490 =( NAMED_UNIT ( * ) SI_UNIT ( $, .STERADIAN. ) SOLID_ANGLE_UNIT ( ) );
#491 = ORIENTED_EDGE ( 'NONE', *, *, #777, .F. ) ;
#492 = FACE_BOUND ( 'NONE', #831, .T. ) ;
#493 = FILL_AREA_STYLE ('',( #196 ) ) ;
#494 = ORIENTED_EDGE ( 'NONE', *, *, #348, .F. ) ;
#495 = ORIENTED_EDGE ( 'NONE', *, *, #106, .F. ) ;
#496 = VECTOR ( 'NONE', #358, 1000.000000000000114 ) ;
#497 = DIRECTION ( 'NONE',  ( -1.000000000000000000, 0.000000000000000000, 0.000000000000000000 ) ) ;
#498 = ADVANCED_FACE ( 'NONE', ( #936 ), #776, .F. ) ;
#499 = CARTESIAN_POINT ( 'NONE',  ( 21.15844717968458966, -12.66938018843655023, 0.000000000000000000 ) ) ;
#500 = EDGE_LOOP ( 'NONE', ( #26, #165, #192, #170 ) ) ;
#501 = CARTESIAN_POINT ( 'NONE',  ( -10.18216463570283814, 2.350343297401846332, 3.000000000000000000 ) ) ;
#502 = CARTESIAN_POINT ( 'NONE',  ( -10.34155282022472555, -12.66931631310613859, 0.000000000000000000 ) ) ;
#503 = EDGE_CURVE ( 'NONE', #644, #122, #725, .T. ) ;
#504 = EDGE_LOOP ( 'NONE', ( #208, #647, #910, #956, #72, #989, #526, #988, #354, #224 ) ) ;
#505 = EDGE_LOOP ( 'NONE', ( #190, #814, #785, #583 ) ) ;
#506 = CARTESIAN_POINT ( 'NONE',  ( 27.12844717968463470, -7.669380188436526247, 3.000000000000000000 ) ) ;
#507 = DIRECTION ( 'NONE',  ( -1.156482317317871478E-16, 1.000000000000000000, 0.000000000000000000 ) ) ;
#508 = ORIENTED_EDGE ( 'NONE', *, *, #140, .F. ) ;
#509 = AXIS2_PLACEMENT_3D ( 'NONE', #875, #324, #168 ) ;
#510 = AXIS2_PLACEMENT_3D ( 'NONE', #37, #576, #341 ) ;
#511 = VECTOR ( 'NONE', #353, 1000.000000000000000 ) ;
#512 = CARTESIAN_POINT ( 'NONE',  ( 27.12844717968463470, -17.66938018843652358, 0.000000000000000000 ) ) ;
#513 = MANIFOLD_SOLID_BREP ( '切除-拉伸9', #193 ) ;
#514 = CARTESIAN_POINT ( 'NONE',  ( -11.68216463570283814, 2.350343297401846332, 3.000000000000000000 ) ) ;
#515 = EDGE_CURVE ( 'NONE', #151, #362, #729, .T. ) ;
#516 = CARTESIAN_POINT ( 'NONE',  ( 12.15844717968458966, -12.66938018843655200, 3.000000000000000000 ) ) ;
#517 = ORIENTED_EDGE ( 'NONE', *, *, #53, .F. ) ;
#518 = CARTESIAN_POINT ( 'NONE',  ( 27.12844717968463470, -7.669380188436526247, 0.000000000000000000 ) ) ;
#519 = CARTESIAN_POINT ( 'NONE',  ( -10.18216463570283814, 2.350343297401846332, 0.000000000000000000 ) ) ;
#520 = VERTEX_POINT ( 'NONE', #797 ) ;
#521 = CIRCLE ( 'NONE', #895, 1.500000000000001332 ) ;
#522 = VECTOR ( 'NONE', #430, 1000.000000000000000 ) ;
#523 = DIRECTION ( 'NONE',  ( -1.000000000000000000, 0.000000000000000000, 0.000000000000000000 ) ) ;
#524 = AXIS2_PLACEMENT_3D ( 'NONE', #412, #717, #801 ) ;
#525 = EDGE_CURVE ( 'NONE', #683, #766, #350, .T. ) ;
#526 = ORIENTED_EDGE ( 'NONE', *, *, #585, .T. ) ;
#527 = ORIENTED_EDGE ( 'NONE', *, *, #709, .F. ) ;
#528 = CYLINDRICAL_SURFACE ( 'NONE', #57, 1.500000000000001332 ) ;
#529 = ORIENTED_EDGE ( 'NONE', *, *, #990, .T. ) ;
#530 = EDGE_CURVE ( 'NONE', #362, #346, #420, .T. ) ;
#531 = VERTEX_POINT ( 'NONE', #499 ) ;
#532 = CARTESIAN_POINT ( 'NONE',  ( -23.37155282031536174, -17.66938018843654135, 0.000000000000000000 ) ) ;
#533 = ORIENTED_EDGE ( 'NONE', *, *, #329, .T. ) ;
#534 = CARTESIAN_POINT ( 'NONE',  ( 13.19683296429715824, 2.350343297401874310, 3.000000000000000000 ) ) ;
#535 = DIRECTION ( 'NONE',  ( -0.000000000000000000, -0.000000000000000000, -1.000000000000000000 ) ) ;
#536 = VECTOR ( 'NONE', #859, 1000.000000000000000 ) ;
#537 = DIRECTION ( 'NONE',  ( 0.000000000000000000, -0.000000000000000000, -1.000000000000000000 ) ) ;
#538 = ORIENTED_EDGE ( 'NONE', *, *, #470, .F. ) ;
#539 = CARTESIAN_POINT ( 'NONE',  ( -21.87155282031535819, -17.66938018843654135, 3.000000000000000000 ) ) ;
#540 = AXIS2_PLACEMENT_3D ( 'NONE', #258, #774, #856 ) ;
#541 = FACE_BOUND ( 'NONE', #761, .T. ) ;
#542 = ADVANCED_FACE ( 'NONE', ( #285 ), #44, .F. ) ;
#543 = CYLINDRICAL_SURFACE ( 'NONE', #437, 1.500000000000001332 ) ;
#544 = DIRECTION ( 'NONE',  ( -1.000000000000000000, 0.000000000000000000, 0.000000000000000000 ) ) ;
#545 = ORIENTED_EDGE ( 'NONE', *, *, #575, .T. ) ;
#546 = CARTESIAN_POINT ( 'NONE',  ( -7.331552820224700895, -12.66931631310613859, 3.000000000000000000 ) ) ;
#547 = FACE_OUTER_BOUND ( 'NONE', #504, .T. ) ;
#548 = FACE_BOUND ( 'NONE', #597, .T. ) ;
#549 = DIRECTION ( 'NONE',  ( 0.000000000000000000, -1.000000000000000000, 0.000000000000000000 ) ) ;
#550 = ORIENTED_EDGE ( 'NONE', *, *, #418, .T. ) ;
#551 = LINE ( 'NONE', #546, #864 ) ;
#552 = PLANE ( 'NONE',  #291 ) ;
#553 = FACE_BOUND ( 'NONE', #676, .T. ) ;
#554 = DIRECTION ( 'NONE',  ( -0.000000000000000000, -0.000000000000000000, -1.000000000000000000 ) ) ;
#555 = VERTEX_POINT ( 'NONE', #580 ) ;
#556 = CARTESIAN_POINT ( 'NONE',  ( 7.500000000000000000, 0.000000000000000000, 3.000000000000000000 ) ) ;
#557 = ADVANCED_FACE ( 'NONE', ( #115 ), #721, .F. ) ;
#558 = DIRECTION ( 'NONE',  ( -0.000000000000000000, -0.000000000000000000, -1.000000000000000000 ) ) ;
#559 = EDGE_LOOP ( 'NONE', ( #82, #128 ) ) ;
#560 = VECTOR ( 'NONE', #825, 999.9999999999998863 ) ;
#561 = FACE_OUTER_BOUND ( 'NONE', #500, .T. ) ;
#562 = DIRECTION ( 'NONE',  ( 0.000000000000000000, 0.000000000000000000, -1.000000000000000000 ) ) ;
#563 = ORIENTED_EDGE ( 'NONE', *, *, #530, .T. ) ;
#564 =( LENGTH_UNIT ( ) NAMED_UNIT ( * ) SI_UNIT ( .MILLI., .METRE. ) );
#565 = CARTESIAN_POINT ( 'NONE',  ( 30.00000000000000355, -29.26931631310611337, 0.000000000000000000 ) ) ;
#566 = CARTESIAN_POINT ( 'NONE',  ( 30.00000000000000000, -1.269316313106113370, 3.000000000000000000 ) ) ;
#567 = EDGE_LOOP ( 'NONE', ( #339, #272 ) ) ;
#568 = DIRECTION ( 'NONE',  ( -1.000000000000000000, 0.000000000000000000, 0.000000000000000000 ) ) ;
#569 = ORIENTED_EDGE ( 'NONE', *, *, #381, .T. ) ;
#570 = EDGE_CURVE ( 'NONE', #346, #360, #51, .T. ) ;
#571 = DIRECTION ( 'NONE',  ( -0.000000000000000000, -0.000000000000000000, -1.000000000000000000 ) ) ;
#572 = SURFACE_SIDE_STYLE ('',( #646 ) ) ;
#573 = EDGE_LOOP ( 'NONE', ( #538, #929, #35, #610 ) ) ;
#574 = STYLED_ITEM ( 'NONE', ( #282 ), #513 ) ;
#575 = EDGE_CURVE ( 'NONE', #256, #349, #216, .T. ) ;
#576 = DIRECTION ( 'NONE',  ( 0.000000000000000000, 0.000000000000000000, -1.000000000000000000 ) ) ;
#577 = CARTESIAN_POINT ( 'NONE',  ( -30.00000000000000000, -1.269316313106120919, 0.000000000000000000 ) ) ;
#578 = ORIENTED_EDGE ( 'NONE', *, *, #127, .F. ) ;
#579 = PLANE ( 'NONE',  #765 ) ;
#580 = CARTESIAN_POINT ( 'NONE',  ( 10.19683296429715469, 2.350343297401874310, 3.000000000000000000 ) ) ;
#581 = EDGE_CURVE ( 'NONE', #225, #456, #654, .T. ) ;
#582 = EDGE_LOOP ( 'NONE', ( #834, #636, #116, #517 ) ) ;
#583 = ORIENTED_EDGE ( 'NONE', *, *, #366, .T. ) ;
#584 = CARTESIAN_POINT ( 'NONE',  ( 17.50000000000000000, 5.665837688104247150, 0.000000000000000000 ) ) ;
#585 = EDGE_CURVE ( 'NONE', #218, #687, #427, .T. ) ;
#586 = CARTESIAN_POINT ( 'NONE',  ( 7.500000000000000000, 0.000000000000000000, 3.000000000000000000 ) ) ;
#587 = CIRCLE ( 'NONE', #148, 1.500000000000001332 ) ;
#588 = VECTOR ( 'NONE', #571, 1000.000000000000000 ) ;
#589 = DIRECTION ( 'NONE',  ( -1.000000000000000000, -0.000000000000000000, -0.000000000000000000 ) ) ;
#590 = EDGE_LOOP ( 'NONE', ( #920, #753, #390, #96 ) ) ;
#591 = VERTEX_POINT ( 'NONE', #135 ) ;
#592 = FACE_OUTER_BOUND ( 'NONE', #661, .T. ) ;
#593 = ORIENTED_EDGE ( 'NONE', *, *, #65, .T. ) ;
#594 = CARTESIAN_POINT ( 'NONE',  ( -29.99999999999999645, -29.26931631310612048, 3.000000000000000000 ) ) ;
#595 = ADVANCED_FACE ( 'NONE', ( #883 ), #126, .F. ) ;
#596 = CARTESIAN_POINT ( 'NONE',  ( -10.18216463570283814, 2.350343297401846332, 3.000000000000000000 ) ) ;
#597 = EDGE_LOOP ( 'NONE', ( #394, #755 ) ) ;
#598 = AXIS2_PLACEMENT_3D ( 'NONE', #406, #639, #32 ) ;
#599 = EDGE_CURVE ( 'NONE', #653, #9, #459, .T. ) ;
#600 = COLOUR_RGB ( '',1.000000000000000000, 1.000000000000000000, 1.000000000000000000 ) ;
#601 = CARTESIAN_POINT ( 'NONE',  ( 3.158447179684590100, -12.66938018843655200, 0.000000000000000000 ) ) ;
#602 = AXIS2_PLACEMENT_3D ( 'NONE', #318, #549, #537 ) ;
#603 = EDGE_LOOP ( 'NONE', ( #335, #439, #798, #533 ) ) ;
#604 = CYLINDRICAL_SURFACE ( 'NONE', #779, 1.499999999999999556 ) ;
#605 = CARTESIAN_POINT ( 'NONE',  ( 10.19683296429715469, 2.350343297401874310, 3.000000000000000000 ) ) ;
#606 = PRODUCT_DEFINITION_SHAPE ( 'NONE', 'NONE',  #664 ) ;
#607 = EDGE_LOOP ( 'NONE', ( #803, #212, #838, #260 ) ) ;
#608 = DIRECTION ( 'NONE',  ( -0.000000000000000000, -0.000000000000000000, -1.000000000000000000 ) ) ;
#609 = CYLINDRICAL_SURFACE ( 'NONE', #682, 1.500000000000001332 ) ;
#610 = ORIENTED_EDGE ( 'NONE', *, *, #463, .T. ) ;
#611 = DIRECTION ( 'NONE',  ( -1.000000000000000000, 0.000000000000000000, 0.000000000000000000 ) ) ;
#612 = CARTESIAN_POINT ( 'NONE',  ( 11.69683296429715647, 2.350343297401874310, 0.000000000000000000 ) ) ;
#613 = EDGE_CURVE ( 'NONE', #740, #775, #587, .T. ) ;
#614 = CARTESIAN_POINT ( 'NONE',  ( 17.50000000000000000, 5.665837688104247150, 3.000000000000000000 ) ) ;
#615 = CYLINDRICAL_SURFACE ( 'NONE', #137, 1.500000000000001332 ) ;
#616 = ORIENTED_EDGE ( 'NONE', *, *, #515, .F. ) ;
#617 = CARTESIAN_POINT ( 'NONE',  ( 25.62844717968463470, -17.66938018843652358, 0.000000000000000000 ) ) ;
#618 = CIRCLE ( 'NONE', #524, 1.499999999999999556 ) ;
#619 = AXIS2_PLACEMENT_3D ( 'NONE', #323, #707, #944 ) ;
#620 = LINE ( 'NONE', #88, #718 ) ;
#621 = LINE ( 'NONE', #194, #782 ) ;
#622 = FACE_OUTER_BOUND ( 'NONE', #59, .T. ) ;
#623 = ORIENTED_EDGE ( 'NONE', *, *, #613, .F. ) ;
#624 = CARTESIAN_POINT ( 'NONE',  ( 11.69683296429715647, 2.350343297401874310, 3.000000000000000000 ) ) ;
#625 = PLANE ( 'NONE',  #70 ) ;
#626 = VERTEX_POINT ( 'NONE', #519 ) ;
#627 = FACE_BOUND ( 'NONE', #268, .T. ) ;
#628 = DIRECTION ( 'NONE',  ( -0.000000000000000000, -0.000000000000000000, -1.000000000000000000 ) ) ;
#629 = VERTEX_POINT ( 'NONE', #907 ) ;
#630 = CARTESIAN_POINT ( 'NONE',  ( -13.18216463570283814, 2.350343297401846332, 3.000000000000000000 ) ) ;
#631 = DIRECTION ( 'NONE',  ( -0.4851462237387870191, -0.8744330400848282503, 0.000000000000000000 ) ) ;
#632 = VERTEX_POINT ( 'NONE', #512 ) ;
#633 = DIRECTION ( 'NONE',  ( 0.000000000000000000, 0.000000000000000000, -1.000000000000000000 ) ) ;
#634 = CARTESIAN_POINT ( 'NONE',  ( 7.500000000000000000, 0.000000000000000000, 0.000000000000000000 ) ) ;
#635 = EDGE_CURVE ( 'NONE', #298, #641, #160, .T. ) ;
#636 = ORIENTED_EDGE ( 'NONE', *, *, #747, .T. ) ;
#637 = CARTESIAN_POINT ( 'NONE',  ( -30.00000000000000000, -1.269316313106120919, 3.000000000000000000 ) ) ;
#638 = VECTOR ( 'NONE', #815, 1000.000000000000000 ) ;
#639 = DIRECTION ( 'NONE',  ( -0.000000000000000000, -0.000000000000000000, -1.000000000000000000 ) ) ;
#640 = APPLICATION_PROTOCOL_DEFINITION ( 'draft international standard', 'automotive_design', 1998, #894 ) ;
#641 = VERTEX_POINT ( 'NONE', #896 ) ;
#642 = DIRECTION ( 'NONE',  ( -0.8744330400848281393, -0.4851462237387871856, 0.000000000000000000 ) ) ;
#643 = ADVANCED_FACE ( 'NONE', ( #220 ), #978, .F. ) ;
#644 = VERTEX_POINT ( 'NONE', #991 ) ;
#645 = DIRECTION ( 'NONE',  ( -1.000000000000000000, 0.000000000000000000, 0.000000000000000000 ) ) ;
#646 = SURFACE_STYLE_FILL_AREA ( #47 ) ;
#647 = ORIENTED_EDGE ( 'NONE', *, *, #836, .T. ) ;
#648 = ORIENTED_EDGE ( 'NONE', *, *, #310, .T. ) ;
#649 = EDGE_CURVE ( 'NONE', #629, #122, #294, .T. ) ;
#650 = CARTESIAN_POINT ( 'NONE',  ( 25.62844717968463470, -17.66938018843652358, 3.000000000000000000 ) ) ;
#651 = CARTESIAN_POINT ( 'NONE',  ( -23.37155282031536174, -17.66938018843654135, 3.000000000000000000 ) ) ;
#652 = AXIS2_PLACEMENT_3D ( 'NONE', #173, #926, #250 ) ;
#653 = VERTEX_POINT ( 'NONE', #143 ) ;
#654 = CIRCLE ( 'NONE', #306, 1.500000000000001332 ) ;
#655 = DIRECTION ( 'NONE',  ( -1.239088197126290817E-16, 1.000000000000000000, -0.000000000000000000 ) ) ;
#656 = DIRECTION ( 'NONE',  ( 0.000000000000000000, 0.000000000000000000, 1.000000000000000000 ) ) ;
#657 = ORIENTED_EDGE ( 'NONE', *, *, #813, .T. ) ;
#658 =( NAMED_UNIT ( * ) PLANE_ANGLE_UNIT ( ) SI_UNIT ( $, .RADIAN. ) );
#659 = ADVANCED_FACE ( 'NONE', ( #81 ), #228, .F. ) ;
#660 = CARTESIAN_POINT ( 'NONE',  ( -17.50000000000000000, 5.665837688104242709, 3.000000000000000000 ) ) ;
#661 = EDGE_LOOP ( 'NONE', ( #958, #124, #230, #233 ) ) ;
#662 = EDGE_LOOP ( 'NONE', ( #705, #102, #890, #673 ) ) ;
#663 = DIRECTION ( 'NONE',  ( 0.000000000000000000, 0.000000000000000000, -1.000000000000000000 ) ) ;
#664 = PRODUCT_DEFINITION ( '未知', '', #425, #210 ) ;
#665 = ORIENTED_EDGE ( 'NONE', *, *, #916, .F. ) ;
#666 = CIRCLE ( 'NONE', #55, 1.500000000000001332 ) ;
#667 = VECTOR ( 'NONE', #642, 1000.000000000000114 ) ;
#668 = VECTOR ( 'NONE', #628, 1000.000000000000000 ) ;
#669 = LINE ( 'NONE', #984, #751 ) ;
#670 = VERTEX_POINT ( 'NONE', #974 ) ;
#671 = DIRECTION ( 'NONE',  ( 0.000000000000000000, 0.000000000000000000, -1.000000000000000000 ) ) ;
#672 = CARTESIAN_POINT ( 'NONE',  ( -21.87155282031536530, -7.669380188436541346, 3.000000000000000000 ) ) ;
#673 = ORIENTED_EDGE ( 'NONE', *, *, #971, .T. ) ;
#674 = EDGE_CURVE ( 'NONE', #400, #555, #201, .T. ) ;
#675 = CARTESIAN_POINT ( 'NONE',  ( 7.500000000000000000, 5.665837688104247150, 3.000000000000000000 ) ) ;
#676 = EDGE_LOOP ( 'NONE', ( #961, #274 ) ) ;
#677 = DIRECTION ( 'NONE',  ( -0.000000000000000000, -0.000000000000000000, -1.000000000000000000 ) ) ;
#678 = VECTOR ( 'NONE', #167, 1000.000000000000000 ) ;
#679 = CIRCLE ( 'NONE', #457, 3.010000000000024656 ) ;
#680 = EDGE_CURVE ( 'NONE', #360, #314, #141, .T. ) ;
#681 = DIRECTION ( 'NONE',  ( -0.000000000000000000, -0.000000000000000000, -1.000000000000000000 ) ) ;
#682 = AXIS2_PLACEMENT_3D ( 'NONE', #19, #681, #544 ) ;
#683 = VERTEX_POINT ( 'NONE', #760 ) ;
#684 = CARTESIAN_POINT ( 'NONE',  ( 13.19683296429715824, 2.350343297401874310, 3.000000000000000000 ) ) ;
#685 = DIRECTION ( 'NONE',  ( -1.000000000000000000, 0.000000000000000000, 0.000000000000000000 ) ) ;
#686 = ADVANCED_FACE ( 'NONE', ( #592 ), #370, .F. ) ;
#687 = VERTEX_POINT ( 'NONE', #915 ) ;
#688 = CARTESIAN_POINT ( 'NONE',  ( -23.37155282031536174, -17.66938018843654135, 0.000000000000000000 ) ) ;
#689 = FACE_OUTER_BOUND ( 'NONE', #465, .T. ) ;
#690 = DIRECTION ( 'NONE',  ( 0.000000000000000000, 0.000000000000000000, -1.000000000000000000 ) ) ;
#691 = VERTEX_POINT ( 'NONE', #601 ) ;
#692 = LINE ( 'NONE', #839, #265 ) ;
#693 = CARTESIAN_POINT ( 'NONE',  ( -17.50000000000000000, 5.665837688104242709, 3.000000000000000000 ) ) ;
#694 = FACE_OUTER_BOUND ( 'NONE', #908, .T. ) ;
#695 = LINE ( 'NONE', #482, #968 ) ;
#696 = AXIS2_PLACEMENT_3D ( 'NONE', #21, #254, #409 ) ;
#697 = EDGE_LOOP ( 'NONE', ( #715, #91, #748, #495 ) ) ;
#698 = DIRECTION ( 'NONE',  ( -1.000000000000000000, 0.000000000000000000, 0.000000000000000000 ) ) ;
#699 = VECTOR ( 'NONE', #475, 1000.000000000000000 ) ;
#700 = CARTESIAN_POINT ( 'NONE',  ( -7.500000000000000000, 0.000000000000000000, 3.000000000000000000 ) ) ;
#701 = VECTOR ( 'NONE', #130, 1000.000000000000000 ) ;
#702 = EDGE_CURVE ( 'NONE', #950, #626, #232, .T. ) ;
#703 = CARTESIAN_POINT ( 'NONE',  ( -21.87155282031535819, -17.66938018843654135, 3.000000000000000000 ) ) ;
#704 = DIRECTION ( 'NONE',  ( 0.000000000000000000, 0.000000000000000000, -1.000000000000000000 ) ) ;
#705 = ORIENTED_EDGE ( 'NONE', *, *, #377, .T. ) ;
#706 = DIRECTION ( 'NONE',  ( -1.000000000000000000, 0.000000000000000000, 0.000000000000000000 ) ) ;
#707 = DIRECTION ( 'NONE',  ( 4.336808689942016750E-16, -1.000000000000000000, 0.000000000000000000 ) ) ;
#708 = ORIENTED_EDGE ( 'NONE', *, *, #355, .T. ) ;
#709 = EDGE_CURVE ( 'NONE', #301, #629, #902, .T. ) ;
#710 = CARTESIAN_POINT ( 'NONE',  ( 3.158447179684590100, -12.66938018843655200, 3.000000000000000000 ) ) ;
#711 =( NAMED_UNIT ( * ) PLANE_ANGLE_UNIT ( ) SI_UNIT ( $, .RADIAN. ) );
#712 = EDGE_LOOP ( 'NONE', ( #648, #372, #199, #175 ) ) ;
#713 = DIRECTION ( 'NONE',  ( -0.000000000000000000, -0.000000000000000000, -1.000000000000000000 ) ) ;
#714 = PLANE ( 'NONE',  #619 ) ;
#715 = ORIENTED_EDGE ( 'NONE', *, *, #581, .F. ) ;
#716 = FACE_BOUND ( 'NONE', #809, .T. ) ;
#717 = DIRECTION ( 'NONE',  ( 0.000000000000000000, 0.000000000000000000, -1.000000000000000000 ) ) ;
#718 = VECTOR ( 'NONE', #558, 1000.000000000000000 ) ;
#719 = ADVANCED_FACE ( 'NONE', ( #215 ), #528, .F. ) ;
#720 = ORIENTED_EDGE ( 'NONE', *, *, #874, .F. ) ;
#721 = PLANE ( 'NONE',  #912 ) ;
#722 = VECTOR ( 'NONE', #713, 1000.000000000000000 ) ;
#723 = VECTOR ( 'NONE', #934, 1000.000000000000000 ) ;
#724 = EDGE_LOOP ( 'NONE', ( #852, #826 ) ) ;
#725 = LINE ( 'NONE', #434, #522 ) ;
#726 = ADVANCED_FACE ( 'NONE', ( #819 ), #66, .F. ) ;
#727 = ORIENTED_EDGE ( 'NONE', *, *, #206, .F. ) ;
#728 = LINE ( 'NONE', #947, #701 ) ;
#729 = LINE ( 'NONE', #660, #667 ) ;
#730 = ORIENTED_EDGE ( 'NONE', *, *, #525, .T. ) ;
#731 = CARTESIAN_POINT ( 'NONE',  ( 0.000000000000000000, 0.000000000000000000, 0.000000000000000000 ) ) ;
#732 = ORIENTED_EDGE ( 'NONE', *, *, #817, .F. ) ;
#733 = CARTESIAN_POINT ( 'NONE',  ( -30.00000000000000000, -1.269316313106120919, 3.000000000000000000 ) ) ;
#734 = VECTOR ( 'NONE', #535, 1000.000000000000000 ) ;
#735 = VERTEX_POINT ( 'NONE', #365 ) ;
#736 = AXIS2_PLACEMENT_3D ( 'NONE', #688, #930, #248 ) ;
#737 = AXIS2_PLACEMENT_3D ( 'NONE', #532, #704, #837 ) ;
#738 = EDGE_CURVE ( 'NONE', #320, #351, #669, .T. ) ;
#739 = DIRECTION ( 'NONE',  ( 0.000000000000000000, 0.000000000000000000, 1.000000000000000000 ) ) ;
#740 = VERTEX_POINT ( 'NONE', #752 ) ;
#741 = ORIENTED_EDGE ( 'NONE', *, *, #842, .F. ) ;
#742 = DIRECTION ( 'NONE',  ( -0.000000000000000000, -0.000000000000000000, -1.000000000000000000 ) ) ;
#743 = ORIENTED_EDGE ( 'NONE', *, *, #152, .T. ) ;
#744 = DIRECTION ( 'NONE',  ( -0.000000000000000000, -0.000000000000000000, -1.000000000000000000 ) ) ;
#745 = AXIS2_PLACEMENT_3D ( 'NONE', #145, #446, #918 ) ;
#746 = DIRECTION ( 'NONE',  ( 0.000000000000000000, 0.000000000000000000, -1.000000000000000000 ) ) ;
#747 = EDGE_CURVE ( 'NONE', #881, #520, #375, .T. ) ;
#748 = ORIENTED_EDGE ( 'NONE', *, *, #777, .T. ) ;
#749 = LINE ( 'NONE', #374, #368 ) ;
#750 = AXIS2_PLACEMENT_3D ( 'NONE', #455, #822, #74 ) ;
#751 = VECTOR ( 'NONE', #448, 1000.000000000000000 ) ;
#752 = CARTESIAN_POINT ( 'NONE',  ( 24.12844717968463115, -7.669380188436526247, 3.000000000000000000 ) ) ;
#753 = ORIENTED_EDGE ( 'NONE', *, *, #366, .F. ) ;
#754 = ADVANCED_FACE ( 'NONE', ( #169 ), #235, .F. ) ;
#755 = ORIENTED_EDGE ( 'NONE', *, *, #187, .F. ) ;
#756 = DIRECTION ( 'NONE',  ( 1.000000000000000000, 0.000000000000000000, 0.000000000000000000 ) ) ;
#757 = ORIENTED_EDGE ( 'NONE', *, *, #680, .F. ) ;
#758 = VERTEX_POINT ( 'NONE', #928 ) ;
#759 = EDGE_CURVE ( 'NONE', #691, #531, #161, .T. ) ;
#760 = CARTESIAN_POINT ( 'NONE',  ( 24.12844717968463115, -17.66938018843652358, 3.000000000000000000 ) ) ;
#761 = EDGE_LOOP ( 'NONE', ( #460, #452 ) ) ;
#762 = EDGE_CURVE ( 'NONE', #555, #256, #389, .T. ) ;
#763 = AXIS2_PLACEMENT_3D ( 'NONE', #617, #472, #401 ) ;
#764 = CARTESIAN_POINT ( 'NONE',  ( -13.35155282022475021, -12.66931631310613859, 3.000000000000000000 ) ) ;
#765 = AXIS2_PLACEMENT_3D ( 'NONE', #271, #54, #276 ) ;
#766 = VERTEX_POINT ( 'NONE', #85 ) ;
#767 = CARTESIAN_POINT ( 'NONE',  ( 30.00000000000000355, -29.26931631310611337, 3.000000000000000000 ) ) ;
#768 = DIRECTION ( 'NONE',  ( -1.000000000000000000, 0.000000000000000000, 0.000000000000000000 ) ) ;
#769 = LINE ( 'NONE', #95, #388 ) ;
#770 = EDGE_LOOP ( 'NONE', ( #657, #236 ) ) ;
#771 = DIRECTION ( 'NONE',  ( -0.8744330400848283613, 0.4851462237387870191, -0.000000000000000000 ) ) ;
#772 = CARTESIAN_POINT ( 'NONE',  ( -10.34155282022472555, -12.66931631310613859, 3.000000000000000000 ) ) ;
#773 = CARTESIAN_POINT ( 'NONE',  ( 25.62844717968463470, -7.669380188436526247, 3.000000000000000000 ) ) ;
#774 = DIRECTION ( 'NONE',  ( -0.000000000000000000, -0.000000000000000000, -1.000000000000000000 ) ) ;
#775 = VERTEX_POINT ( 'NONE', #783 ) ;
#776 = CYLINDRICAL_SURFACE ( 'NONE', #696, 1.500000000000001332 ) ;
#777 = EDGE_CURVE ( 'NONE', #973, #435, #983, .T. ) ;
#778 = LINE ( 'NONE', #860, #841 ) ;
#779 = AXIS2_PLACEMENT_3D ( 'NONE', #906, #677, #302 ) ;
#780 = CARTESIAN_POINT ( 'NONE',  ( 7.500000000000000000, 0.000000000000000000, 0.000000000000000000 ) ) ;
#781 = AXIS2_PLACEMENT_3D ( 'NONE', #334, #631, #840 ) ;
#782 = VECTOR ( 'NONE', #330, 1000.000000000000000 ) ;
#783 = CARTESIAN_POINT ( 'NONE',  ( 27.12844717968463470, -7.669380188436526247, 3.000000000000000000 ) ) ;
#784 = PRESENTATION_LAYER_ASSIGNMENT (  '', '', ( #574 ) ) ;
#785 = ORIENTED_EDGE ( 'NONE', *, *, #836, .F. ) ;
#786 = LINE ( 'NONE', #556, #536 ) ;
#787 = DIRECTION ( 'NONE',  ( -1.000000000000000000, 0.000000000000000000, 0.000000000000000000 ) ) ;
#788 = EDGE_CURVE ( 'NONE', #670, #351, #863, .T. ) ;
#789 = DIRECTION ( 'NONE',  ( -1.000000000000000000, 0.000000000000000000, 0.000000000000000000 ) ) ;
#790 = DIRECTION ( 'NONE',  ( -1.000000000000000000, -0.000000000000000000, -0.000000000000000000 ) ) ;
#791 = VERTEX_POINT ( 'NONE', #764 ) ;
#792 = CARTESIAN_POINT ( 'NONE',  ( -24.87155282031536174, -17.66938018843654135, 0.000000000000000000 ) ) ;
#793 = DIRECTION ( 'NONE',  ( -0.000000000000000000, -0.000000000000000000, -1.000000000000000000 ) ) ;
#794 = CARTESIAN_POINT ( 'NONE',  ( -29.99999999999999645, -29.26931631310612048, 3.000000000000000000 ) ) ;
#795 = EDGE_CURVE ( 'NONE', #362, #218, #89, .T. ) ;
#796 = ORIENTED_EDGE ( 'NONE', *, *, #80, .F. ) ;
#797 = CARTESIAN_POINT ( 'NONE',  ( -21.87155282031536530, -7.669380188436541346, 0.000000000000000000 ) ) ;
#798 = ORIENTED_EDGE ( 'NONE', *, *, #842, .T. ) ;
#799 = DIRECTION ( 'NONE',  ( -1.000000000000000000, 0.000000000000000000, 0.000000000000000000 ) ) ;
#800 = ADVANCED_FACE ( 'NONE', ( #922 ), #615, .F. ) ;
#801 = DIRECTION ( 'NONE',  ( -1.000000000000000000, 0.000000000000000000, 0.000000000000000000 ) ) ;
#802 = VECTOR ( 'NONE', #149, 1000.000000000000000 ) ;
#803 = ORIENTED_EDGE ( 'NONE', *, *, #338, .F. ) ;
#804 = DIRECTION ( 'NONE',  ( 0.000000000000000000, 0.000000000000000000, -1.000000000000000000 ) ) ;
#805 = CIRCLE ( 'NONE', #898, 1.500000000000001332 ) ;
#806 = VECTOR ( 'NONE', #554, 1000.000000000000000 ) ;
#807 = ORIENTED_EDGE ( 'NONE', *, *, #953, .F. ) ;
#808 = DIRECTION ( 'NONE',  ( -1.000000000000000000, 0.000000000000000000, 0.000000000000000000 ) ) ;
#809 = EDGE_LOOP ( 'NONE', ( #114, #38 ) ) ;
#810 = LINE ( 'NONE', #189, #496 ) ;
#811 = DIRECTION ( 'NONE',  ( 0.000000000000000000, 0.000000000000000000, -1.000000000000000000 ) ) ;
#812 = CIRCLE ( 'NONE', #31, 9.000000000000000000 ) ;
#813 = EDGE_CURVE ( 'NONE', #735, #881, #829, .T. ) ;
#814 = ORIENTED_EDGE ( 'NONE', *, *, #788, .F. ) ;
#815 = DIRECTION ( 'NONE',  ( 1.000000000000000000, 1.156482317317871478E-16, -0.000000000000000000 ) ) ;
#816 = ORIENTED_EDGE ( 'NONE', *, *, #530, .F. ) ;
#817 = EDGE_CURVE ( 'NONE', #351, #6, #174, .T. ) ;
#818 = VECTOR ( 'NONE', #391, 1000.000000000000000 ) ;
#819 = FACE_OUTER_BOUND ( 'NONE', #207, .T. ) ;
#820 = ORIENTED_EDGE ( 'NONE', *, *, #24, .T. ) ;
#821 = CARTESIAN_POINT ( 'NONE',  ( 12.15844717968458966, -12.66938018843655200, 3.000000000000000000 ) ) ;
#822 = DIRECTION ( 'NONE',  ( -0.000000000000000000, -0.000000000000000000, -1.000000000000000000 ) ) ;
#823 = DIRECTION ( 'NONE',  ( 0.000000000000000000, 0.000000000000000000, -1.000000000000000000 ) ) ;
#824 = ADVANCED_FACE ( 'NONE', ( #25 ), #609, .F. ) ;
#825 = DIRECTION ( 'NONE',  ( -0.8744330400848283613, 0.4851462237387870191, -0.000000000000000000 ) ) ;
#826 = ORIENTED_EDGE ( 'NONE', *, *, #211, .T. ) ;
#827 = CARTESIAN_POINT ( 'NONE',  ( -7.500000000000000000, 5.665837688104247150, 0.000000000000000000 ) ) ;
#828 = CIRCLE ( 'NONE', #509, 3.010000000000024656 ) ;
#829 = CIRCLE ( 'NONE', #867, 1.500000000000001332 ) ;
#830 = CARTESIAN_POINT ( 'NONE',  ( 7.500000000000000000, 0.000000000000000000, 3.000000000000000000 ) ) ;
#831 = EDGE_LOOP ( 'NONE', ( #157, #253 ) ) ;
#832 = ORIENTED_EDGE ( 'NONE', *, *, #24, .F. ) ;
#833 = DIRECTION ( 'NONE',  ( 0.000000000000000000, 0.000000000000000000, -1.000000000000000000 ) ) ;
#834 = ORIENTED_EDGE ( 'NONE', *, *, #222, .F. ) ;
#835 = CARTESIAN_POINT ( 'NONE',  ( -23.37155282031536885, -7.669380188436541346, 0.000000000000000000 ) ) ;
#836 = EDGE_CURVE ( 'NONE', #30, #670, #239, .T. ) ;
#837 = DIRECTION ( 'NONE',  ( -1.000000000000000000, 0.000000000000000000, 0.000000000000000000 ) ) ;
#838 = ORIENTED_EDGE ( 'NONE', *, *, #599, .T. ) ;
#839 = CARTESIAN_POINT ( 'NONE',  ( 17.50000000000000000, 5.665837688104247150, 3.000000000000000000 ) ) ;
#840 = DIRECTION ( 'NONE',  ( 0.8744330400848282503, -0.4851462237387870191, 0.000000000000000000 ) ) ;
#841 = VECTOR ( 'NONE', #965, 1000.000000000000000 ) ;
#842 = EDGE_CURVE ( 'NONE', #376, #109, #252, .T. ) ;
#843 = VECTOR ( 'NONE', #951, 1000.000000000000000 ) ;
#844 = AXIS2_PLACEMENT_3D ( 'NONE', #209, #562, #891 ) ;
#845 = DIRECTION ( 'NONE',  ( -1.000000000000000000, 0.000000000000000000, 0.000000000000000000 ) ) ;
#846 = STYLED_ITEM ( 'NONE', ( #119 ), #363 ) ;
#847 = ORIENTED_EDGE ( 'NONE', *, *, #377, .F. ) ;
#848 = DIRECTION ( 'NONE',  ( -0.000000000000000000, -0.000000000000000000, -1.000000000000000000 ) ) ;
#849 = FACE_OUTER_BOUND ( 'NONE', #428, .T. ) ;
#850 = DIRECTION ( 'NONE',  ( -1.000000000000000000, 0.000000000000000000, -0.000000000000000000 ) ) ;
#851 = CARTESIAN_POINT ( 'NONE',  ( -13.18216463570283814, 2.350343297401846332, 3.000000000000000000 ) ) ;
#852 = ORIENTED_EDGE ( 'NONE', *, *, #140, .T. ) ;
#853 = DIRECTION ( 'NONE',  ( -0.000000000000000000, -0.000000000000000000, -1.000000000000000000 ) ) ;
#854 = DIRECTION ( 'NONE',  ( -0.000000000000000000, -0.000000000000000000, -1.000000000000000000 ) ) ;
#855 = CYLINDRICAL_SURFACE ( 'NONE', #598, 9.000000000000000000 ) ;
#856 = DIRECTION ( 'NONE',  ( -1.000000000000000000, 0.000000000000000000, 0.000000000000000000 ) ) ;
#857 = EDGE_CURVE ( 'NONE', #917, #45, #267, .T. ) ;
#858 = EDGE_LOOP ( 'NONE', ( #154, #416, #20, #279 ) ) ;
#859 = DIRECTION ( 'NONE',  ( -0.000000000000000000, -0.000000000000000000, -1.000000000000000000 ) ) ;
#860 = CARTESIAN_POINT ( 'NONE',  ( 30.00000000000000000, -1.269316313106113370, 3.000000000000000000 ) ) ;
#861 = ORIENTED_EDGE ( 'NONE', *, *, #436, .F. ) ;
#862 = CARTESIAN_POINT ( 'NONE',  ( -10.34155282022472555, -12.66931631310613859, 3.000000000000000000 ) ) ;
#863 = LINE ( 'NONE', #458, #668 ) ;
#864 = VECTOR ( 'NONE', #853, 1000.000000000000000 ) ;
#865 = ORIENTED_EDGE ( 'NONE', *, *, #17, .F. ) ;
#866 = CARTESIAN_POINT ( 'NONE',  ( 12.15844717968458966, -12.66938018843655200, 0.000000000000000000 ) ) ;
#867 = AXIS2_PLACEMENT_3D ( 'NONE', #8, #313, #331 ) ;
#868 = DIRECTION ( 'NONE',  ( -1.000000000000000000, 0.000000000000000000, 0.000000000000000000 ) ) ;
#869 = ADVANCED_FACE ( 'NONE', ( #464 ), #919, .F. ) ;
#870 = DIRECTION ( 'NONE',  ( 0.000000000000000000, 0.000000000000000000, -1.000000000000000000 ) ) ;
#871 = ORIENTED_EDGE ( 'NONE', *, *, #762, .F. ) ;
#872 = DIRECTION ( 'NONE',  ( -0.000000000000000000, -0.000000000000000000, -1.000000000000000000 ) ) ;
#873 = ORIENTED_EDGE ( 'NONE', *, *, #373, .F. ) ;
#874 = EDGE_CURVE ( 'NONE', #112, #632, #769, .T. ) ;
#875 = CARTESIAN_POINT ( 'NONE',  ( -10.34155282022472555, -12.66931631310613859, 3.000000000000000000 ) ) ;
#876 = DIRECTION ( 'NONE',  ( -0.000000000000000000, -0.000000000000000000, -1.000000000000000000 ) ) ;
#877 = ORIENTED_EDGE ( 'NONE', *, *, #206, .T. ) ;
#878 = CARTESIAN_POINT ( 'NONE',  ( 11.69683296429715647, 2.350343297401874310, 0.000000000000000000 ) ) ;
#879 = UNCERTAINTY_MEASURE_WITH_UNIT (LENGTH_MEASURE( 1.000000000000000082E-05 ), #964, 'distance_accuracy_value', 'NONE');
#880 = APPLICATION_PROTOCOL_DEFINITION ( 'draft international standard', 'automotive_design', 1998, #949 ) ;
#881 = VERTEX_POINT ( 'NONE', #398 ) ;
#882 = LINE ( 'NONE', #566, #162 ) ;
#883 = FACE_OUTER_BOUND ( 'NONE', #603, .T. ) ;
#884 = AXIS2_PLACEMENT_3D ( 'NONE', #150, #833, #378 ) ;
#885 = ORIENTED_EDGE ( 'NONE', *, *, #303, .T. ) ;
#886 = EDGE_LOOP ( 'NONE', ( #665, #385, #527, #905, #757, #442, #962, #847, #732, #985 ) ) ;
#887 = SURFACE_SIDE_STYLE ('',( #125 ) ) ;
#888 = EDGE_CURVE ( 'NONE', #791, #9, #695, .T. ) ;
#889 = CARTESIAN_POINT ( 'NONE',  ( -11.68216463570283814, 2.350343297401846332, 3.000000000000000000 ) ) ;
#890 = ORIENTED_EDGE ( 'NONE', *, *, #440, .F. ) ;
#891 = DIRECTION ( 'NONE',  ( -1.000000000000000000, 0.000000000000000000, 0.000000000000000000 ) ) ;
#892 = ADVANCED_FACE ( 'NONE', ( #622 ), #108, .F. ) ;
#893 = EDGE_LOOP ( 'NONE', ( #865, #743, #453, #184 ) ) ;
#894 = APPLICATION_CONTEXT ( 'automotive_design' ) ;
#895 = AXIS2_PLACEMENT_3D ( 'NONE', #612, #396, #249 ) ;
#896 = CARTESIAN_POINT ( 'NONE',  ( 21.15844717968458966, -12.66938018843655023, 3.000000000000000000 ) ) ;
#897 = VERTEX_POINT ( 'NONE', #46 ) ;
#898 = AXIS2_PLACEMENT_3D ( 'NONE', #624, #261, #698 ) ;
#899 = PLANE ( 'NONE',  #745 ) ;
#900 = ADVANCED_FACE ( 'NONE', ( #280 ), #579, .F. ) ;
#901 = AXIS2_PLACEMENT_3D ( 'NONE', #433, #202, #497 ) ;
#902 = LINE ( 'NONE', #584, #560 ) ;
#903 = EDGE_CURVE ( 'NONE', #591, #520, #345, .T. ) ;
#904 = CARTESIAN_POINT ( 'NONE',  ( 7.500000000000000000, 5.665837688104247150, 0.000000000000000000 ) ) ;
#905 = ORIENTED_EDGE ( 'NONE', *, *, #310, .F. ) ;
#906 = CARTESIAN_POINT ( 'NONE',  ( -11.68216463570283814, 2.350343297401846332, 3.000000000000000000 ) ) ;
#907 = CARTESIAN_POINT ( 'NONE',  ( 17.50000000000000000, 5.665837688104247150, 0.000000000000000000 ) ) ;
#908 = EDGE_LOOP ( 'NONE', ( #727, #147, #550, #289 ) ) ;
#909 = AXIS2_PLACEMENT_3D ( 'NONE', #772, #793, #868 ) ;
#910 = ORIENTED_EDGE ( 'NONE', *, *, #127, .T. ) ;
#911 = AXIS2_PLACEMENT_3D ( 'NONE', #76, #312, #787 ) ;
#912 = AXIS2_PLACEMENT_3D ( 'NONE', #273, #568, #739 ) ;
#913 = AXIS2_PLACEMENT_3D ( 'NONE', #675, #153, #304 ) ;
#914 =( GEOMETRIC_REPRESENTATION_CONTEXT ( 3 ) GLOBAL_UNCERTAINTY_ASSIGNED_CONTEXT ( ( #879 ) ) GLOBAL_UNIT_ASSIGNED_CONTEXT ( ( #964, #658, #62 ) ) REPRESENTATION_CONTEXT ( 'NONE', 'WORKASPACE' ) );
#915 = CARTESIAN_POINT ( 'NONE',  ( 30.00000000000000355, -29.26931631310611337, 3.000000000000000000 ) ) ;
#916 = EDGE_CURVE ( 'NONE', #122, #320, #34, .T. ) ;
#917 = VERTEX_POINT ( 'NONE', #426 ) ;
#918 = DIRECTION ( 'NONE',  ( -1.239088197126290817E-16, 1.000000000000000000, 0.000000000000000000 ) ) ;
#919 = CYLINDRICAL_SURFACE ( 'NONE', #540, 1.500000000000001332 ) ;
#920 = ORIENTED_EDGE ( 'NONE', *, *, #916, .T. ) ;
#921 = CARTESIAN_POINT ( 'NONE',  ( -13.18216463570283814, 2.350343297401846332, 0.000000000000000000 ) ) ;
#922 = FACE_OUTER_BOUND ( 'NONE', #582, .T. ) ;
#923 = ORIENTED_EDGE ( 'NONE', *, *, #857, .T. ) ;
#924 = LINE ( 'NONE', #539, #3 ) ;
#925 = FACE_BOUND ( 'NONE', #559, .T. ) ;
#926 = DIRECTION ( 'NONE',  ( -0.000000000000000000, -0.000000000000000000, -1.000000000000000000 ) ) ;
#927 = VECTOR ( 'NONE', #204, 1000.000000000000000 ) ;
#928 = CARTESIAN_POINT ( 'NONE',  ( -7.500000000000000000, 5.665837688104247150, 3.000000000000000000 ) ) ;
#929 = ORIENTED_EDGE ( 'NONE', *, *, #361, .F. ) ;
#930 = DIRECTION ( 'NONE',  ( 0.000000000000000000, 0.000000000000000000, -1.000000000000000000 ) ) ;
#931 = FACE_BOUND ( 'NONE', #724, .T. ) ;
#932 = EDGE_CURVE ( 'NONE', #897, #346, #810, .T. ) ;
#933 = LINE ( 'NONE', #474, #322 ) ;
#934 = DIRECTION ( 'NONE',  ( 0.000000000000000000, 1.000000000000000000, 0.000000000000000000 ) ) ;
#935 = ORIENTED_EDGE ( 'NONE', *, *, #709, .T. ) ;
#936 = FACE_OUTER_BOUND ( 'NONE', #858, .T. ) ;
#937 = FACE_OUTER_BOUND ( 'NONE', #712, .T. ) ;
#938 = ORIENTED_EDGE ( 'NONE', *, *, #599, .F. ) ;
#939 = DIRECTION ( 'NONE',  ( 0.000000000000000000, 0.000000000000000000, -1.000000000000000000 ) ) ;
#940 = CARTESIAN_POINT ( 'NONE',  ( -7.500000000000000000, 0.000000000000000000, 3.000000000000000000 ) ) ;
#941 = EDGE_CURVE ( 'NONE', #376, #950, #618, .T. ) ;
#942 = ORIENTED_EDGE ( 'NONE', *, *, #932, .T. ) ;
#943 = LINE ( 'NONE', #315, #73 ) ;
#944 = DIRECTION ( 'NONE',  ( 1.000000000000000000, 4.336808689942016750E-16, 0.000000000000000000 ) ) ;
#945 = ORIENTED_EDGE ( 'NONE', *, *, #570, .T. ) ;
#946 = DIRECTION ( 'NONE',  ( -1.000000000000000000, 0.000000000000000000, 0.000000000000000000 ) ) ;
#947 = CARTESIAN_POINT ( 'NONE',  ( -7.500000000000000000, 5.665837688104247150, 3.000000000000000000 ) ) ;
#948 = CIRCLE ( 'NONE', #736, 1.500000000000001332 ) ;
#949 = APPLICATION_CONTEXT ( 'automotive_design' ) ;
#950 = VERTEX_POINT ( 'NONE', #501 ) ;
#951 = DIRECTION ( 'NONE',  ( -0.000000000000000000, -0.000000000000000000, -1.000000000000000000 ) ) ;
#952 = AXIS2_PLACEMENT_3D ( 'NONE', #5, #164, #393 ) ;
#953 = EDGE_CURVE ( 'NONE', #775, #45, #488, .T. ) ;
#954 = UNCERTAINTY_MEASURE_WITH_UNIT (LENGTH_MEASURE( 1.000000000000000082E-05 ), #564, 'distance_accuracy_value', 'NONE');
#955 = CARTESIAN_POINT ( 'NONE',  ( 25.62844717968463470, -17.66938018843652358, 0.000000000000000000 ) ) ;
#956 = ORIENTED_EDGE ( 'NONE', *, *, #440, .T. ) ;
#957 = DIRECTION ( 'NONE',  ( -0.000000000000000000, -0.000000000000000000, -1.000000000000000000 ) ) ;
#958 = ORIENTED_EDGE ( 'NONE', *, *, #649, .T. ) ;
#959 = CARTESIAN_POINT ( 'NONE',  ( -7.331552820224700895, -12.66931631310613859, 3.000000000000000000 ) ) ;
#960 = DIRECTION ( 'NONE',  ( -1.000000000000000000, 0.000000000000000000, 0.000000000000000000 ) ) ;
#961 = ORIENTED_EDGE ( 'NONE', *, *, #857, .F. ) ;
#962 = ORIENTED_EDGE ( 'NONE', *, *, #932, .F. ) ;
#963 = AXIS2_PLACEMENT_3D ( 'NONE', #835, #671, #155 ) ;
#964 =( LENGTH_UNIT ( ) NAMED_UNIT ( * ) SI_UNIT ( .MILLI., .METRE. ) );
#965 = DIRECTION ( 'NONE',  ( -0.000000000000000000, -0.000000000000000000, -1.000000000000000000 ) ) ;
#966 = CARTESIAN_POINT ( 'NONE',  ( 30.00000000000000355, -29.26931631310611337, 3.000000000000000000 ) ) ;
#967 = VECTOR ( 'NONE', #957, 1000.000000000000000 ) ;
#968 = VECTOR ( 'NONE', #325, 1000.000000000000000 ) ;
#969 = VERTEX_POINT ( 'NONE', #959 ) ;
#970 = AXIS2_PLACEMENT_3D ( 'NONE', #731, #656, #58 ) ;
#971 = EDGE_CURVE ( 'NONE', #758, #6, #728, .T. ) ;
#972 =( LENGTH_UNIT ( ) NAMED_UNIT ( * ) SI_UNIT ( .MILLI., .METRE. ) );
#973 = VERTEX_POINT ( 'NONE', #352 ) ;
#974 = CARTESIAN_POINT ( 'NONE',  ( -7.500000000000000000, 0.000000000000000000, 3.000000000000000000 ) ) ;
#975 = AXIS2_PLACEMENT_3D ( 'NONE', #514, #823, #221 ) ;
#976 = ORIENTED_EDGE ( 'NONE', *, *, #463, .F. ) ;
#977 = ORIENTED_EDGE ( 'NONE', *, *, #361, .T. ) ;
#978 = PLANE ( 'NONE',  #243 ) ;
#979 = AXIS2_PLACEMENT_3D ( 'NONE', #10, #333, #611 ) ;
#980 = ORIENTED_EDGE ( 'NONE', *, *, #788, .T. ) ;
#981 = EDGE_CURVE ( 'NONE', #687, #247, #882, .T. ) ;
#982 = AXIS2_PLACEMENT_3D ( 'NONE', #516, #746, #297 ) ;
#983 = CIRCLE ( 'NONE', #737, 1.500000000000001332 ) ;
#984 = CARTESIAN_POINT ( 'NONE',  ( -7.500000000000000000, 0.000000000000000000, 0.000000000000000000 ) ) ;
#985 = ORIENTED_EDGE ( 'NONE', *, *, #738, .F. ) ;
#986 = LINE ( 'NONE', #594, #802 ) ;
#987 = DIRECTION ( 'NONE',  ( -0.000000000000000000, -0.000000000000000000, -1.000000000000000000 ) ) ;
#988 = ORIENTED_EDGE ( 'NONE', *, *, #981, .T. ) ;
#989 = ORIENTED_EDGE ( 'NONE', *, *, #795, .T. ) ;
#990 = EDGE_CURVE ( 'NONE', #626, #109, #371, .T. ) ;
#991 = CARTESIAN_POINT ( 'NONE',  ( 7.500000000000000000, 5.665837688104247150, 3.000000000000000000 ) ) ;
#992 = ORIENTED_EDGE ( 'NONE', *, *, #762, .T. ) ;
ENDSEC;
END-ISO-10303-21;
