ISO-10303-21;
HEADER;
FILE_DESCRIPTION (( 'STEP AP214' ),
    '1' );
FILE_NAME ('bianpianzhudong.STEP',
    '2026-07-16T12:01:07',
    ( '' ),
    ( '' ),
    'SwSTEP 2.0',
    'SolidWorks 2020',
    '' );
FILE_SCHEMA (( 'AUTOMOTIVE_DESIGN' ));
ENDSEC;

DATA;
#1 =( NAMED_UNIT ( * ) PLANE_ANGLE_UNIT ( ) SI_UNIT ( $, .RADIAN. ) );
#2 = AXIS2_PLACEMENT_3D ( 'NONE', #481, #708, #545 ) ;
#3 = DIRECTION ( 'NONE',  ( -1.000000000000000000, -0.000000000000000000, -0.000000000000000000 ) ) ;
#4 = VECTOR ( 'NONE', #700, 1000.000000000000000 ) ;
#5 = LINE ( 'NONE', #16, #827 ) ;
#6 = CARTESIAN_POINT ( 'NONE',  ( -7.500000000000000000, 5.665837688104247150, 3.000000000000000000 ) ) ;
#7 = VERTEX_POINT ( 'NONE', #44 ) ;
#8 = ADVANCED_FACE ( 'NONE', ( #956 ), #48, .F. ) ;
#9 = CARTESIAN_POINT ( 'NONE',  ( 11.69683296429715647, 2.350343297401874310, 0.000000000000000000 ) ) ;
#10 = LINE ( 'NONE', #476, #922 ) ;
#11 = CARTESIAN_POINT ( 'NONE',  ( -29.99999999999999645, -29.26931631310612048, 3.000000000000000000 ) ) ;
#12 = ORIENTED_EDGE ( 'NONE', *, *, #394, .T. ) ;
#13 = EDGE_CURVE ( 'NONE', #945, #526, #285, .T. ) ;
#14 = ORIENTED_EDGE ( 'NONE', *, *, #383, .T. ) ;
#15 = APPLICATION_CONTEXT ( 'automotive_design' ) ;
#16 = CARTESIAN_POINT ( 'NONE',  ( -7.500000000000000000, 0.000000000000000000, 3.000000000000000000 ) ) ;
#17 = ORIENTED_EDGE ( 'NONE', *, *, #20, .T. ) ;
#18 = AXIS2_PLACEMENT_3D ( 'NONE', #291, #895, #673 ) ;
#19 = AXIS2_PLACEMENT_3D ( 'NONE', #892, #523, #821 ) ;
#20 = EDGE_CURVE ( 'NONE', #685, #71, #723, .T. ) ;
#21 = ORIENTED_EDGE ( 'NONE', *, *, #847, .F. ) ;
#22 = CARTESIAN_POINT ( 'NONE',  ( 25.62844717968463470, -7.669380188436526247, 3.000000000000000000 ) ) ;
#23 = FACE_OUTER_BOUND ( 'NONE', #635, .T. ) ;
#24 = CARTESIAN_POINT ( 'NONE',  ( -21.87155282031536530, -7.669380188436541346, 3.000000000000000000 ) ) ;
#25 = ORIENTED_EDGE ( 'NONE', *, *, #28, .F. ) ;
#26 = DIRECTION ( 'NONE',  ( -1.000000000000000000, 0.000000000000000000, 0.000000000000000000 ) ) ;
#27 = ORIENTED_EDGE ( 'NONE', *, *, #766, .F. ) ;
#28 = EDGE_CURVE ( 'NONE', #363, #114, #929, .T. ) ;
#29 = CARTESIAN_POINT ( 'NONE',  ( 0.000000000000000000, 0.000000000000000000, 0.000000000000000000 ) ) ;
#30 = CARTESIAN_POINT ( 'NONE',  ( 7.500000000000000000, 0.000000000000000000, 3.000000000000000000 ) ) ;
#31 = VERTEX_POINT ( 'NONE', #885 ) ;
#32 = CARTESIAN_POINT ( 'NONE',  ( -21.87155282031536530, -7.669380188436541346, 0.000000000000000000 ) ) ;
#33 = ORIENTED_EDGE ( 'NONE', *, *, #750, .F. ) ;
#34 = CARTESIAN_POINT ( 'NONE',  ( 24.12844717968463115, -17.66938018843652358, 3.000000000000000000 ) ) ;
#35 = ORIENTED_EDGE ( 'NONE', *, *, #524, .F. ) ;
#36 = DIRECTION ( 'NONE',  ( -0.000000000000000000, -0.000000000000000000, -1.000000000000000000 ) ) ;
#37 = EDGE_CURVE ( 'NONE', #580, #805, #359, .T. ) ;
#38 = CLOSED_SHELL ( 'NONE', ( #8, #607, #239, #403, #504, #901, #100, #95, #591, #86, #256, #550, #408, #211, #56, #488, #834, #518, #678, #663, #175, #726, #227, #418, #985, #565, #43, #693 ) ) ;
#39 = ORIENTED_EDGE ( 'NONE', *, *, #702, .F. ) ;
#40 = CARTESIAN_POINT ( 'NONE',  ( -23.37155282031536885, -7.669380188436541346, 0.000000000000000000 ) ) ;
#41 = EDGE_LOOP ( 'NONE', ( #380, #649 ) ) ;
#42 = CYLINDRICAL_SURFACE ( 'NONE', #710, 1.500000000000001332 ) ;
#43 = ADVANCED_FACE ( 'NONE', ( #429 ), #124, .F. ) ;
#44 = CARTESIAN_POINT ( 'NONE',  ( -30.00000000000000000, -1.269316313106120919, 3.000000000000000000 ) ) ;
#45 = DIRECTION ( 'NONE',  ( -1.000000000000000000, 0.000000000000000000, 0.000000000000000000 ) ) ;
#46 = DIRECTION ( 'NONE',  ( 0.8744330400848282503, -0.4851462237387870191, 0.000000000000000000 ) ) ;
#47 = VERTEX_POINT ( 'NONE', #423 ) ;
#48 = CYLINDRICAL_SURFACE ( 'NONE', #913, 6.020399007360152766 ) ;
#49 = CARTESIAN_POINT ( 'NONE',  ( -10.34155282022472555, -12.66931631310613859, 0.000000000000000000 ) ) ;
#50 = FACE_BOUND ( 'NONE', #416, .T. ) ;
#51 = PLANE ( 'NONE',  #273 ) ;
#52 = ORIENTED_EDGE ( 'NONE', *, *, #896, .T. ) ;
#53 = DIRECTION ( 'NONE',  ( -0.000000000000000000, -0.000000000000000000, -1.000000000000000000 ) ) ;
#54 = AXIS2_PLACEMENT_3D ( 'NONE', #486, #802, #199 ) ;
#55 = AXIS2_PLACEMENT_3D ( 'NONE', #214, #527, #904 ) ;
#56 = ADVANCED_FACE ( 'NONE', ( #738 ), #593, .F. ) ;
#57 = CARTESIAN_POINT ( 'NONE',  ( -10.34155282022472555, -12.66931631310613859, 3.000000000000000000 ) ) ;
#58 = CIRCLE ( 'NONE', #414, 1.500000000000001332 ) ;
#59 = LINE ( 'NONE', #373, #401 ) ;
#60 = AXIS2_PLACEMENT_3D ( 'NONE', #718, #866, #115 ) ;
#61 = ORIENTED_EDGE ( 'NONE', *, *, #189, .T. ) ;
#62 = DIRECTION ( 'NONE',  ( -0.000000000000000000, -0.000000000000000000, -1.000000000000000000 ) ) ;
#63 = DIRECTION ( 'NONE',  ( -0.000000000000000000, -0.000000000000000000, -1.000000000000000000 ) ) ;
#64 = ORIENTED_EDGE ( 'NONE', *, *, #116, .T. ) ;
#65 = FACE_OUTER_BOUND ( 'NONE', #490, .T. ) ;
#66 = EDGE_CURVE ( 'NONE', #874, #146, #348, .T. ) ;
#67 = FACE_BOUND ( 'NONE', #521, .T. ) ;
#68 = VERTEX_POINT ( 'NONE', #32 ) ;
#69 = DIRECTION ( 'NONE',  ( -1.000000000000000000, -0.000000000000000000, -0.000000000000000000 ) ) ;
#70 = EDGE_CURVE ( 'NONE', #331, #47, #930, .T. ) ;
#71 = VERTEX_POINT ( 'NONE', #112 ) ;
#72 = CARTESIAN_POINT ( 'NONE',  ( 30.00000000000000000, -1.269316313106113370, 0.000000000000000000 ) ) ;
#73 = VERTEX_POINT ( 'NONE', #119 ) ;
#74 = AXIS2_PLACEMENT_3D ( 'NONE', #643, #129, #45 ) ;
#75 = STYLED_ITEM ( 'NONE', ( #241 ), #769 ) ;
#76 = DIRECTION ( 'NONE',  ( -1.000000000000000000, 0.000000000000000000, 0.000000000000000000 ) ) ;
#77 = CARTESIAN_POINT ( 'NONE',  ( -21.87155282031535819, -17.66938018843654135, 3.000000000000000000 ) ) ;
#78 = EDGE_LOOP ( 'NONE', ( #803, #27 ) ) ;
#79 = DIRECTION ( 'NONE',  ( -0.000000000000000000, -0.000000000000000000, -1.000000000000000000 ) ) ;
#80 = EDGE_CURVE ( 'NONE', #805, #577, #270, .T. ) ;
#81 = DIRECTION ( 'NONE',  ( -0.000000000000000000, -0.000000000000000000, -1.000000000000000000 ) ) ;
#82 = CARTESIAN_POINT ( 'NONE',  ( 10.19683296429715469, 2.350343297401874310, 3.000000000000000000 ) ) ;
#83 =( NAMED_UNIT ( * ) SI_UNIT ( $, .STERADIAN. ) SOLID_ANGLE_UNIT ( ) );
#84 = CARTESIAN_POINT ( 'NONE',  ( 13.19683296429715824, 2.350343297401874310, 3.000000000000000000 ) ) ;
#85 = AXIS2_PLACEMENT_3D ( 'NONE', #625, #320, #779 ) ;
#86 = ADVANCED_FACE ( 'NONE', ( #734 ), #583, .F. ) ;
#87 = DIRECTION ( 'NONE',  ( -1.000000000000000000, 0.000000000000000000, 0.000000000000000000 ) ) ;
#88 = AXIS2_PLACEMENT_3D ( 'NONE', #622, #906, #776 ) ;
#89 = VECTOR ( 'NONE', #610, 1000.000000000000000 ) ;
#90 = ORIENTED_EDGE ( 'NONE', *, *, #360, .F. ) ;
#91 = VECTOR ( 'NONE', #777, 1000.000000000000000 ) ;
#92 = PRESENTATION_LAYER_ASSIGNMENT (  '', '', ( #188 ) ) ;
#93 = DIRECTION ( 'NONE',  ( -0.000000000000000000, -0.000000000000000000, -1.000000000000000000 ) ) ;
#94 = DIRECTION ( 'NONE',  ( -1.000000000000000000, 0.000000000000000000, 0.000000000000000000 ) ) ;
#95 = ADVANCED_FACE ( 'NONE', ( #578 ), #197, .F. ) ;
#96 = EDGE_CURVE ( 'NONE', #331, #411, #193, .T. ) ;
#97 = ORIENTED_EDGE ( 'NONE', *, *, #149, .T. ) ;
#98 = DIRECTION ( 'NONE',  ( 0.000000000000000000, 0.000000000000000000, -1.000000000000000000 ) ) ;
#99 = ORIENTED_EDGE ( 'NONE', *, *, #390, .F. ) ;
#100 = ADVANCED_FACE ( 'NONE', ( #501 ), #42, .F. ) ;
#101 = PRODUCT_DEFINITION_CONTEXT ( 'detailed design', #15, 'design' ) ;
#102 = ORIENTED_EDGE ( 'NONE', *, *, #28, .T. ) ;
#103 = PLANE ( 'NONE',  #492 ) ;
#104 = ORIENTED_EDGE ( 'NONE', *, *, #355, .F. ) ;
#105 = CARTESIAN_POINT ( 'NONE',  ( -13.18216463570283814, 2.350343297401846332, 3.000000000000000000 ) ) ;
#106 = AXIS2_PLACEMENT_3D ( 'NONE', #277, #571, #646 ) ;
#107 = AXIS2_PLACEMENT_3D ( 'NONE', #57, #63, #893 ) ;
#108 = VECTOR ( 'NONE', #911, 1000.000000000000000 ) ;
#109 = VERTEX_POINT ( 'NONE', #105 ) ;
#110 = LINE ( 'NONE', #34, #557 ) ;
#111 = ORIENTED_EDGE ( 'NONE', *, *, #472, .F. ) ;
#112 = CARTESIAN_POINT ( 'NONE',  ( 27.12844717968463470, -7.669380188436526247, 0.000000000000000000 ) ) ;
#113 = CARTESIAN_POINT ( 'NONE',  ( 18.17884618704474420, -12.66938018843655200, 3.000000000000000000 ) ) ;
#114 = VERTEX_POINT ( 'NONE', #640 ) ;
#115 = DIRECTION ( 'NONE',  ( -1.000000000000000000, 0.000000000000000000, 0.000000000000000000 ) ) ;
#116 = EDGE_CURVE ( 'NONE', #412, #554, #861, .T. ) ;
#117 = PLANE ( 'NONE',  #931 ) ;
#118 = ORIENTED_EDGE ( 'NONE', *, *, #483, .T. ) ;
#119 = CARTESIAN_POINT ( 'NONE',  ( -13.35155282022475021, -12.66931631310613859, 0.000000000000000000 ) ) ;
#120 = ORIENTED_EDGE ( 'NONE', *, *, #822, .F. ) ;
#121 = DIRECTION ( 'NONE',  ( 1.000000000000000000, 1.156482317317871478E-16, -0.000000000000000000 ) ) ;
#122 = DIRECTION ( 'NONE',  ( 0.000000000000000000, 1.000000000000000000, 0.000000000000000000 ) ) ;
#123 = ORIENTED_EDGE ( 'NONE', *, *, #427, .F. ) ;
#124 = CYLINDRICAL_SURFACE ( 'NONE', #806, 3.010000000000024656 ) ;
#125 = CARTESIAN_POINT ( 'NONE',  ( 12.15844717968458966, -12.66938018843655200, 3.000000000000000000 ) ) ;
#126 = AXIS2_PLACEMENT_3D ( 'NONE', #522, #688, #816 ) ;
#127 = AXIS2_PLACEMENT_3D ( 'NONE', #125, #502, #935 ) ;
#128 = ORIENTED_EDGE ( 'NONE', *, *, #946, .F. ) ;
#129 = DIRECTION ( 'NONE',  ( -0.000000000000000000, -0.000000000000000000, -1.000000000000000000 ) ) ;
#130 = LINE ( 'NONE', #740, #206 ) ;
#131 = VERTEX_POINT ( 'NONE', #605 ) ;
#132 = CARTESIAN_POINT ( 'NONE',  ( -7.500000000000000000, 0.000000000000000000, 3.000000000000000000 ) ) ;
#133 = EDGE_CURVE ( 'NONE', #424, #538, #369, .T. ) ;
#134 = PLANE ( 'NONE',  #220 ) ;
#135 = ORIENTED_EDGE ( 'NONE', *, *, #978, .F. ) ;
#136 = DIRECTION ( 'NONE',  ( 0.000000000000000000, 0.000000000000000000, -1.000000000000000000 ) ) ;
#137 = EDGE_CURVE ( 'NONE', #278, #411, #838, .T. ) ;
#138 = DIRECTION ( 'NONE',  ( -1.000000000000000000, 0.000000000000000000, 0.000000000000000000 ) ) ;
#139 = DIRECTION ( 'NONE',  ( -1.000000000000000000, -0.000000000000000000, -0.000000000000000000 ) ) ;
#140 = ORIENTED_EDGE ( 'NONE', *, *, #200, .F. ) ;
#141 = LINE ( 'NONE', #147, #572 ) ;
#142 = CARTESIAN_POINT ( 'NONE',  ( -11.68216463570283814, 2.350343297401846332, 0.000000000000000000 ) ) ;
#143 = AXIS2_PLACEMENT_3D ( 'NONE', #169, #387, #686 ) ;
#144 = FACE_OUTER_BOUND ( 'NONE', #561, .T. ) ;
#145 = VECTOR ( 'NONE', #381, 1000.000000000000000 ) ;
#146 = VERTEX_POINT ( 'NONE', #890 ) ;
#147 = CARTESIAN_POINT ( 'NONE',  ( 6.138048172324436891, -12.66938018843655200, 3.000000000000000000 ) ) ;
#148 = DIRECTION ( 'NONE',  ( -0.000000000000000000, -0.000000000000000000, -1.000000000000000000 ) ) ;
#149 = EDGE_CURVE ( 'NONE', #361, #374, #969, .T. ) ;
#150 = VERTEX_POINT ( 'NONE', #988 ) ;
#151 = CYLINDRICAL_SURFACE ( 'NONE', #159, 1.500000000000001332 ) ;
#152 = DIRECTION ( 'NONE',  ( -1.000000000000000000, 0.000000000000000000, 0.000000000000000000 ) ) ;
#153 = ORIENTED_EDGE ( 'NONE', *, *, #20, .F. ) ;
#154 = DIRECTION ( 'NONE',  ( 0.000000000000000000, 0.000000000000000000, -1.000000000000000000 ) ) ;
#155 = VECTOR ( 'NONE', #264, 1000.000000000000000 ) ;
#156 = CARTESIAN_POINT ( 'NONE',  ( 27.12844717968463470, -7.669380188436526247, 3.000000000000000000 ) ) ;
#157 = CIRCLE ( 'NONE', #914, 1.500000000000001332 ) ;
#158 = ORIENTED_EDGE ( 'NONE', *, *, #853, .F. ) ;
#159 = AXIS2_PLACEMENT_3D ( 'NONE', #462, #444, #742 ) ;
#160 = VECTOR ( 'NONE', #814, 1000.000000000000000 ) ;
#161 = CARTESIAN_POINT ( 'NONE',  ( 30.00000000000000000, -1.269316313106113370, 3.000000000000000000 ) ) ;
#162 = SURFACE_SIDE_STYLE ('',( #425 ) ) ;
#163 = DIRECTION ( 'NONE',  ( 0.000000000000000000, 0.000000000000000000, -1.000000000000000000 ) ) ;
#164 = DIRECTION ( 'NONE',  ( -0.000000000000000000, -0.000000000000000000, -1.000000000000000000 ) ) ;
#165 = EDGE_CURVE ( 'NONE', #876, #789, #464, .T. ) ;
#166 = DIRECTION ( 'NONE',  ( -0.000000000000000000, -0.000000000000000000, -1.000000000000000000 ) ) ;
#167 = DIRECTION ( 'NONE',  ( -0.000000000000000000, -0.000000000000000000, -1.000000000000000000 ) ) ;
#168 = ORIENTED_EDGE ( 'NONE', *, *, #310, .T. ) ;
#169 = CARTESIAN_POINT ( 'NONE',  ( 0.000000000000000000, 0.000000000000000000, 3.000000000000000000 ) ) ;
#170 = EDGE_CURVE ( 'NONE', #601, #532, #186, .T. ) ;
#171 = DIRECTION ( 'NONE',  ( -0.000000000000000000, -0.000000000000000000, -1.000000000000000000 ) ) ;
#172 = ORIENTED_EDGE ( 'NONE', *, *, #766, .T. ) ;
#173 = DIRECTION ( 'NONE',  ( -1.000000000000000000, 0.000000000000000000, 0.000000000000000000 ) ) ;
#174 = CARTESIAN_POINT ( 'NONE',  ( -21.87155282031536530, -7.669380188436541346, 3.000000000000000000 ) ) ;
#175 = ADVANCED_FACE ( 'NONE', ( #909 ), #295, .F. ) ;
#176 = EDGE_LOOP ( 'NONE', ( #869, #248, #964, #884 ) ) ;
#177 = ORIENTED_EDGE ( 'NONE', *, *, #137, .T. ) ;
#178 = DIRECTION ( 'NONE',  ( -0.000000000000000000, -0.000000000000000000, -1.000000000000000000 ) ) ;
#179 = ORIENTED_EDGE ( 'NONE', *, *, #946, .T. ) ;
#180 = ORIENTED_EDGE ( 'NONE', *, *, #360, .T. ) ;
#181 = DIRECTION ( 'NONE',  ( 4.336808689942016750E-16, -1.000000000000000000, 0.000000000000000000 ) ) ;
#182 = CARTESIAN_POINT ( 'NONE',  ( 13.19683296429715824, 2.350343297401874310, 3.000000000000000000 ) ) ;
#183 = CIRCLE ( 'NONE', #272, 1.499999999999999556 ) ;
#184 = ORIENTED_EDGE ( 'NONE', *, *, #96, .T. ) ;
#185 = CARTESIAN_POINT ( 'NONE',  ( 30.00000000000000000, -1.269316313106113370, 3.000000000000000000 ) ) ;
#186 = CIRCLE ( 'NONE', #667, 1.500000000000001332 ) ;
#187 = CIRCLE ( 'NONE', #205, 1.500000000000001332 ) ;
#188 = STYLED_ITEM ( 'NONE', ( #840 ), #225 ) ;
#189 = EDGE_CURVE ( 'NONE', #497, #404, #157, .T. ) ;
#190 = EDGE_LOOP ( 'NONE', ( #358, #955 ) ) ;
#191 = CYLINDRICAL_SURFACE ( 'NONE', #465, 1.500000000000001332 ) ;
#192 = EDGE_LOOP ( 'NONE', ( #573, #349, #194, #12 ) ) ;
#193 = LINE ( 'NONE', #662, #629 ) ;
#194 = ORIENTED_EDGE ( 'NONE', *, *, #839, .F. ) ;
#195 = CARTESIAN_POINT ( 'NONE',  ( 18.17884618704474420, -12.66938018843655200, 0.000000000000000000 ) ) ;
#196 = ORIENTED_EDGE ( 'NONE', *, *, #498, .T. ) ;
#197 = CYLINDRICAL_SURFACE ( 'NONE', #302, 1.500000000000001332 ) ;
#198 = ORIENTED_EDGE ( 'NONE', *, *, #907, .F. ) ;
#199 = DIRECTION ( 'NONE',  ( -1.000000000000000000, 0.000000000000000000, 0.000000000000000000 ) ) ;
#200 = EDGE_CURVE ( 'NONE', #424, #150, #313, .T. ) ;
#201 = ORIENTED_EDGE ( 'NONE', *, *, #452, .T. ) ;
#202 = DIRECTION ( 'NONE',  ( -0.000000000000000000, -0.000000000000000000, -1.000000000000000000 ) ) ;
#203 = AXIS2_PLACEMENT_3D ( 'NONE', #653, #658, #941 ) ;
#204 = CARTESIAN_POINT ( 'NONE',  ( 7.500000000000000000, 0.000000000000000000, 0.000000000000000000 ) ) ;
#205 = AXIS2_PLACEMENT_3D ( 'NONE', #366, #379, #212 ) ;
#206 = VECTOR ( 'NONE', #590, 1000.000000000000000 ) ;
#207 = FACE_BOUND ( 'NONE', #446, .T. ) ;
#208 = LINE ( 'NONE', #515, #160 ) ;
#209 = ORIENTED_EDGE ( 'NONE', *, *, #496, .F. ) ;
#210 = DIRECTION ( 'NONE',  ( -0.000000000000000000, -0.000000000000000000, -1.000000000000000000 ) ) ;
#211 = ADVANCED_FACE ( 'NONE', ( #752 ), #973, .F. ) ;
#212 = DIRECTION ( 'NONE',  ( -1.000000000000000000, 0.000000000000000000, 0.000000000000000000 ) ) ;
#213 = ORIENTED_EDGE ( 'NONE', *, *, #939, .F. ) ;
#214 = CARTESIAN_POINT ( 'NONE',  ( -30.00000000000000000, -1.269316313106120919, 3.000000000000000000 ) ) ;
#215 = EDGE_CURVE ( 'NONE', #707, #73, #616, .T. ) ;
#216 = DIRECTION ( 'NONE',  ( 0.000000000000000000, 0.000000000000000000, -1.000000000000000000 ) ) ;
#217 = DIRECTION ( 'NONE',  ( 0.000000000000000000, 0.000000000000000000, -1.000000000000000000 ) ) ;
#218 = EDGE_LOOP ( 'NONE', ( #99, #353, #307, #435 ) ) ;
#219 = CARTESIAN_POINT ( 'NONE',  ( 7.500000000000000000, 0.000000000000000000, 3.000000000000000000 ) ) ;
#220 = AXIS2_PLACEMENT_3D ( 'NONE', #441, #897, #222 ) ;
#221 = EDGE_CURVE ( 'NONE', #876, #316, #439, .T. ) ;
#222 = DIRECTION ( 'NONE',  ( -1.000000000000000000, 0.000000000000000000, -0.000000000000000000 ) ) ;
#223 = AXIS2_PLACEMENT_3D ( 'NONE', #868, #431, #714 ) ;
#224 = ORIENTED_EDGE ( 'NONE', *, *, #974, .F. ) ;
#225 = ADVANCED_BREP_SHAPE_REPRESENTATION ( 'bianpianzhudong', ( #769, #576 ), #982 ) ;
#226 = CARTESIAN_POINT ( 'NONE',  ( 25.62844717968463470, -17.66938018843652358, 0.000000000000000000 ) ) ;
#227 = ADVANCED_FACE ( 'NONE', ( #448 ), #681, .F. ) ;
#228 = CARTESIAN_POINT ( 'NONE',  ( 17.50000000000000000, 5.665837688104247150, 3.000000000000000000 ) ) ;
#229 = ORIENTED_EDGE ( 'NONE', *, *, #949, .F. ) ;
#230 = DIRECTION ( 'NONE',  ( -0.000000000000000000, -0.000000000000000000, -1.000000000000000000 ) ) ;
#231 = ORIENTED_EDGE ( 'NONE', *, *, #296, .T. ) ;
#232 = LINE ( 'NONE', #314, #696 ) ;
#233 = ORIENTED_EDGE ( 'NONE', *, *, #66, .T. ) ;
#234 = CARTESIAN_POINT ( 'NONE',  ( -21.87155282031535819, -17.66938018843654135, 0.000000000000000000 ) ) ;
#235 = VECTOR ( 'NONE', #62, 1000.000000000000000 ) ;
#236 = CIRCLE ( 'NONE', #268, 1.499999999999999556 ) ;
#237 = AXIS2_PLACEMENT_3D ( 'NONE', #49, #216, #323 ) ;
#238 = LINE ( 'NONE', #541, #787 ) ;
#239 = ADVANCED_FACE ( 'NONE', ( #826 ), #151, .F. ) ;
#240 = PRODUCT_CONTEXT ( 'NONE', #873, 'mechanical' ) ;
#241 = PRESENTATION_STYLE_ASSIGNMENT (( #405 ) ) ;
#242 = DIRECTION ( 'NONE',  ( 0.000000000000000000, 0.000000000000000000, -1.000000000000000000 ) ) ;
#243 = EDGE_CURVE ( 'NONE', #722, #31, #141, .T. ) ;
#244 = LINE ( 'NONE', #77, #493 ) ;
#245 = LINE ( 'NONE', #934, #336 ) ;
#246 = DIRECTION ( 'NONE',  ( 0.000000000000000000, 0.000000000000000000, -1.000000000000000000 ) ) ;
#247 = CIRCLE ( 'NONE', #88, 6.020399007360152766 ) ;
#248 = ORIENTED_EDGE ( 'NONE', *, *, #877, .F. ) ;
#249 = EDGE_CURVE ( 'NONE', #404, #497, #575, .T. ) ;
#250 = CARTESIAN_POINT ( 'NONE',  ( 6.138048172324436891, -12.66938018843655200, 3.000000000000000000 ) ) ;
#251 = CARTESIAN_POINT ( 'NONE',  ( 25.62844717968463470, -7.669380188436526247, 0.000000000000000000 ) ) ;
#252 = VECTOR ( 'NONE', #650, 1000.000000000000000 ) ;
#253 = PRODUCT_DEFINITION_FORMATION_WITH_SPECIFIED_SOURCE ( '任何', '', #485, .NOT_KNOWN. ) ;
#254 = ORIENTED_EDGE ( 'NONE', *, *, #958, .F. ) ;
#255 = ORIENTED_EDGE ( 'NONE', *, *, #839, .T. ) ;
#256 = ADVANCED_FACE ( 'NONE', ( #65 ), #537, .F. ) ;
#257 = DIRECTION ( 'NONE',  ( -0.000000000000000000, -0.000000000000000000, -1.000000000000000000 ) ) ;
#258 = CARTESIAN_POINT ( 'NONE',  ( 11.69683296429715647, 2.350343297401874310, 3.000000000000000000 ) ) ;
#259 = ORIENTED_EDGE ( 'NONE', *, *, #170, .F. ) ;
#260 = ORIENTED_EDGE ( 'NONE', *, *, #584, .T. ) ;
#261 = DIRECTION ( 'NONE',  ( -0.000000000000000000, -0.000000000000000000, -1.000000000000000000 ) ) ;
#262 = FACE_OUTER_BOUND ( 'NONE', #783, .T. ) ;
#263 = ORIENTED_EDGE ( 'NONE', *, *, #70, .T. ) ;
#264 = DIRECTION ( 'NONE',  ( 1.000000000000000000, 1.156482317317871478E-16, -0.000000000000000000 ) ) ;
#265 = ORIENTED_EDGE ( 'NONE', *, *, #647, .T. ) ;
#266 = CARTESIAN_POINT ( 'NONE',  ( 30.00000000000000355, -29.26931631310611337, 3.000000000000000000 ) ) ;
#267 = DIRECTION ( 'NONE',  ( -0.000000000000000000, -0.000000000000000000, -1.000000000000000000 ) ) ;
#268 = AXIS2_PLACEMENT_3D ( 'NONE', #453, #299, #152 ) ;
#269 = ORIENTED_EDGE ( 'NONE', *, *, #853, .T. ) ;
#270 = LINE ( 'NONE', #343, #511 ) ;
#271 = EDGE_CURVE ( 'NONE', #592, #717, #458, .T. ) ;
#272 = AXIS2_PLACEMENT_3D ( 'NONE', #321, #242, #87 ) ;
#273 = AXIS2_PLACEMENT_3D ( 'NONE', #745, #888, #46 ) ;
#274 = EDGE_LOOP ( 'NONE', ( #309, #128, #276, #438 ) ) ;
#275 = CARTESIAN_POINT ( 'NONE',  ( 17.50000000000000000, 5.665837688104247150, 0.000000000000000000 ) ) ;
#276 = ORIENTED_EDGE ( 'NONE', *, *, #243, .T. ) ;
#277 = CARTESIAN_POINT ( 'NONE',  ( -23.37155282031536174, -17.66938018843654135, 3.000000000000000000 ) ) ;
#278 = VERTEX_POINT ( 'NONE', #234 ) ;
#279 = DIRECTION ( 'NONE',  ( -0.000000000000000000, -0.000000000000000000, -1.000000000000000000 ) ) ;
#280 = ORIENTED_EDGE ( 'NONE', *, *, #630, .T. ) ;
#281 = CARTESIAN_POINT ( 'NONE',  ( 12.15844717968458966, -12.66938018843655200, 3.000000000000000000 ) ) ;
#282 = EDGE_CURVE ( 'NONE', #7, #342, #238, .T. ) ;
#283 = CARTESIAN_POINT ( 'NONE',  ( -7.500000000000000000, 0.000000000000000000, 3.000000000000000000 ) ) ;
#284 = EDGE_LOOP ( 'NONE', ( #715, #657 ) ) ;
#285 = LINE ( 'NONE', #800, #555 ) ;
#286 = AXIS2_PLACEMENT_3D ( 'NONE', #811, #495, #795 ) ;
#287 = AXIS2_PLACEMENT_3D ( 'NONE', #226, #747, #455 ) ;
#288 = CIRCLE ( 'NONE', #543, 1.499999999999999556 ) ;
#289 = PLANE ( 'NONE',  #335 ) ;
#290 = VERTEX_POINT ( 'NONE', #82 ) ;
#291 = CARTESIAN_POINT ( 'NONE',  ( -23.37155282031536885, -7.669380188436541346, 3.000000000000000000 ) ) ;
#292 = DIRECTION ( 'NONE',  ( -0.000000000000000000, -0.000000000000000000, -1.000000000000000000 ) ) ;
#293 = CARTESIAN_POINT ( 'NONE',  ( -10.18216463570283814, 2.350343297401846332, 3.000000000000000000 ) ) ;
#294 = ORIENTED_EDGE ( 'NONE', *, *, #383, .F. ) ;
#295 = CYLINDRICAL_SURFACE ( 'NONE', #788, 1.500000000000001332 ) ;
#296 = EDGE_CURVE ( 'NONE', #367, #580, #837, .T. ) ;
#297 = FACE_OUTER_BOUND ( 'NONE', #782, .T. ) ;
#298 = LINE ( 'NONE', #204, #867 ) ;
#299 = DIRECTION ( 'NONE',  ( 0.000000000000000000, 0.000000000000000000, -1.000000000000000000 ) ) ;
#300 = ORIENTED_EDGE ( 'NONE', *, *, #200, .T. ) ;
#301 = DIRECTION ( 'NONE',  ( -1.000000000000000000, 0.000000000000000000, 0.000000000000000000 ) ) ;
#302 = AXIS2_PLACEMENT_3D ( 'NONE', #507, #210, #870 ) ;
#303 = AXIS2_PLACEMENT_3D ( 'NONE', #626, #261, #924 ) ;
#304 = CARTESIAN_POINT ( 'NONE',  ( -13.18216463570283814, 2.350343297401846332, 0.000000000000000000 ) ) ;
#305 = VECTOR ( 'NONE', #267, 1000.000000000000000 ) ;
#306 = LINE ( 'NONE', #990, #108 ) ;
#307 = ORIENTED_EDGE ( 'NONE', *, *, #221, .T. ) ;
#308 = CARTESIAN_POINT ( 'NONE',  ( 25.62844717968463470, -17.66938018843652358, 0.000000000000000000 ) ) ;
#309 = ORIENTED_EDGE ( 'NONE', *, *, #13, .F. ) ;
#310 = EDGE_CURVE ( 'NONE', #114, #363, #748, .T. ) ;
#311 = CARTESIAN_POINT ( 'NONE',  ( -10.34155282022472555, -12.66931631310613859, 3.000000000000000000 ) ) ;
#312 = ORIENTED_EDGE ( 'NONE', *, *, #327, .T. ) ;
#313 = LINE ( 'NONE', #219, #89 ) ;
#314 = CARTESIAN_POINT ( 'NONE',  ( 17.50000000000000000, 5.665837688104247150, 3.000000000000000000 ) ) ;
#315 = EDGE_CURVE ( 'NONE', #709, #73, #474, .T. ) ;
#316 = VERTEX_POINT ( 'NONE', #694 ) ;
#317 = DIRECTION ( 'NONE',  ( 0.8744330400848281393, 0.4851462237387871856, 0.000000000000000000 ) ) ;
#318 = DIRECTION ( 'NONE',  ( -0.8744330400848281393, -0.4851462237387871856, 0.000000000000000000 ) ) ;
#319 = CYLINDRICAL_SURFACE ( 'NONE', #303, 1.500000000000001332 ) ;
#320 = DIRECTION ( 'NONE',  ( 0.000000000000000000, 0.000000000000000000, -1.000000000000000000 ) ) ;
#321 = CARTESIAN_POINT ( 'NONE',  ( -11.68216463570283814, 2.350343297401846332, 3.000000000000000000 ) ) ;
#322 = EDGE_CURVE ( 'NONE', #461, #538, #402, .T. ) ;
#323 = DIRECTION ( 'NONE',  ( -1.000000000000000000, 0.000000000000000000, 0.000000000000000000 ) ) ;
#324 = DIRECTION ( 'NONE',  ( -0.000000000000000000, -0.000000000000000000, -1.000000000000000000 ) ) ;
#325 = DIRECTION ( 'NONE',  ( -1.000000000000000000, 0.000000000000000000, 0.000000000000000000 ) ) ;
#326 = ORIENTED_EDGE ( 'NONE', *, *, #907, .T. ) ;
#327 = EDGE_CURVE ( 'NONE', #554, #577, #396, .T. ) ;
#328 = DIRECTION ( 'NONE',  ( -1.000000000000000000, 0.000000000000000000, 0.000000000000000000 ) ) ;
#329 = CARTESIAN_POINT ( 'NONE',  ( 7.500000000000000000, 5.665837688104247150, 0.000000000000000000 ) ) ;
#330 = ORIENTED_EDGE ( 'NONE', *, *, #535, .F. ) ;
#331 = VERTEX_POINT ( 'NONE', #469 ) ;
#332 = DIRECTION ( 'NONE',  ( -1.000000000000000000, 0.000000000000000000, 0.000000000000000000 ) ) ;
#333 = DIRECTION ( 'NONE',  ( -1.000000000000000000, 0.000000000000000000, 0.000000000000000000 ) ) ;
#334 = VECTOR ( 'NONE', #668, 1000.000000000000000 ) ;
#335 = AXIS2_PLACEMENT_3D ( 'NONE', #975, #600, #753 ) ;
#336 = VECTOR ( 'NONE', #122, 1000.000000000000000 ) ;
#337 = EDGE_LOOP ( 'NONE', ( #25, #118, #61, #123 ) ) ;
#338 = DIRECTION ( 'NONE',  ( 0.000000000000000000, 0.000000000000000000, -1.000000000000000000 ) ) ;
#339 = EDGE_CURVE ( 'NONE', #789, #876, #865, .T. ) ;
#340 = LINE ( 'NONE', #937, #916 ) ;
#341 = DIRECTION ( 'NONE',  ( 0.000000000000000000, 0.000000000000000000, -1.000000000000000000 ) ) ;
#342 = VERTEX_POINT ( 'NONE', #633 ) ;
#343 = CARTESIAN_POINT ( 'NONE',  ( 30.00000000000000000, -1.269316313106113370, 0.000000000000000000 ) ) ;
#344 = ORIENTED_EDGE ( 'NONE', *, *, #483, .F. ) ;
#345 = CARTESIAN_POINT ( 'NONE',  ( -7.331552820224700895, -12.66931631310613859, 3.000000000000000000 ) ) ;
#346 = EDGE_CURVE ( 'NONE', #150, #131, #5, .T. ) ;
#347 = ORIENTED_EDGE ( 'NONE', *, *, #149, .F. ) ;
#348 = LINE ( 'NONE', #804, #606 ) ;
#349 = ORIENTED_EDGE ( 'NONE', *, *, #133, .F. ) ;
#350 =( LENGTH_UNIT ( ) NAMED_UNIT ( * ) SI_UNIT ( .MILLI., .METRE. ) );
#351 = CARTESIAN_POINT ( 'NONE',  ( -7.500000000000000000, 5.665837688104247150, 3.000000000000000000 ) ) ;
#352 = CIRCLE ( 'NONE', #398, 3.010000000000024656 ) ;
#353 = ORIENTED_EDGE ( 'NONE', *, *, #165, .F. ) ;
#354 = CARTESIAN_POINT ( 'NONE',  ( -23.37155282031536885, -7.669380188436541346, 3.000000000000000000 ) ) ;
#355 = EDGE_CURVE ( 'NONE', #342, #580, #765, .T. ) ;
#356 = ORIENTED_EDGE ( 'NONE', *, *, #215, .T. ) ;
#357 = DIRECTION ( 'NONE',  ( -1.000000000000000000, 0.000000000000000000, 0.000000000000000000 ) ) ;
#358 = ORIENTED_EDGE ( 'NONE', *, *, #165, .T. ) ;
#359 = LINE ( 'NONE', #716, #155 ) ;
#360 = EDGE_CURVE ( 'NONE', #71, #764, #712, .T. ) ;
#361 = VERTEX_POINT ( 'NONE', #560 ) ;
#362 = CYLINDRICAL_SURFACE ( 'NONE', #74, 1.500000000000001332 ) ;
#363 = VERTEX_POINT ( 'NONE', #918 ) ;
#364 = CARTESIAN_POINT ( 'NONE',  ( -10.34155282022472555, -12.66931631310613859, 3.000000000000000000 ) ) ;
#365 = PRODUCT_RELATED_PRODUCT_CATEGORY ( 'part', '', ( #485 ) ) ;
#366 = CARTESIAN_POINT ( 'NONE',  ( -23.37155282031536174, -17.66938018843654135, 3.000000000000000000 ) ) ;
#367 = VERTEX_POINT ( 'NONE', #471 ) ;
#368 = VECTOR ( 'NONE', #257, 1000.000000000000000 ) ;
#369 = LINE ( 'NONE', #759, #235 ) ;
#370 = VECTOR ( 'NONE', #148, 1000.000000000000000 ) ;
#371 = CIRCLE ( 'NONE', #842, 1.500000000000001332 ) ;
#372 = CARTESIAN_POINT ( 'NONE',  ( 30.00000000000000355, -29.26931631310611337, 3.000000000000000000 ) ) ;
#373 = CARTESIAN_POINT ( 'NONE',  ( -7.500000000000000000, 5.665837688104247150, 0.000000000000000000 ) ) ;
#374 = VERTEX_POINT ( 'NONE', #854 ) ;
#375 = CARTESIAN_POINT ( 'NONE',  ( -23.37155282031536174, -17.66938018843654135, 0.000000000000000000 ) ) ;
#376 = CARTESIAN_POINT ( 'NONE',  ( -10.34155282022472555, -12.66931631310613859, 3.000000000000000000 ) ) ;
#377 = ORIENTED_EDGE ( 'NONE', *, *, #13, .T. ) ;
#378 = CARTESIAN_POINT ( 'NONE',  ( -7.500000000000000000, 0.000000000000000000, 3.000000000000000000 ) ) ;
#379 = DIRECTION ( 'NONE',  ( 0.000000000000000000, 0.000000000000000000, -1.000000000000000000 ) ) ;
#380 = ORIENTED_EDGE ( 'NONE', *, *, #919, .F. ) ;
#381 = DIRECTION ( 'NONE',  ( -0.000000000000000000, -0.000000000000000000, -1.000000000000000000 ) ) ;
#382 = VECTOR ( 'NONE', #36, 1000.000000000000000 ) ;
#383 = EDGE_CURVE ( 'NONE', #109, #592, #183, .T. ) ;
#384 = ORIENTED_EDGE ( 'NONE', *, *, #327, .F. ) ;
#385 = VECTOR ( 'NONE', #725, 1000.000000000000000 ) ;
#386 = CIRCLE ( 'NONE', #127, 6.020399007360152766 ) ;
#387 = DIRECTION ( 'NONE',  ( 0.000000000000000000, 0.000000000000000000, -1.000000000000000000 ) ) ;
#388 = EDGE_LOOP ( 'NONE', ( #135, #898, #184, #407 ) ) ;
#389 = DIRECTION ( 'NONE',  ( -1.000000000000000000, 0.000000000000000000, 0.000000000000000000 ) ) ;
#390 = EDGE_CURVE ( 'NONE', #789, #68, #548, .T. ) ;
#391 = SURFACE_SIDE_STYLE ('',( #618 ) ) ;
#392 = ORIENTED_EDGE ( 'NONE', *, *, #434, .T. ) ;
#393 = PLANE ( 'NONE',  #400 ) ;
#394 = EDGE_CURVE ( 'NONE', #661, #461, #553, .T. ) ;
#395 = FACE_OUTER_BOUND ( 'NONE', #274, .T. ) ;
#396 = LINE ( 'NONE', #161, #529 ) ;
#397 = FILL_AREA_STYLE_COLOUR ( '', #953 ) ;
#398 = AXIS2_PLACEMENT_3D ( 'NONE', #311, #163, #910 ) ;
#399 = DIRECTION ( 'NONE',  ( -1.000000000000000000, 0.000000000000000000, 0.000000000000000000 ) ) ;
#400 = AXIS2_PLACEMENT_3D ( 'NONE', #691, #992, #317 ) ;
#401 = VECTOR ( 'NONE', #437, 1000.000000000000000 ) ;
#402 = LINE ( 'NONE', #329, #4 ) ;
#403 = ADVANCED_FACE ( 'NONE', ( #406 ), #921, .F. ) ;
#404 = VERTEX_POINT ( 'NONE', #478 ) ;
#405 = SURFACE_STYLE_USAGE ( .BOTH. , #391 ) ;
#406 = FACE_OUTER_BOUND ( 'NONE', #879, .T. ) ;
#407 = ORIENTED_EDGE ( 'NONE', *, *, #919, .T. ) ;
#408 = ADVANCED_FACE ( 'NONE', ( #781 ), #393, .F. ) ;
#409 = ORIENTED_EDGE ( 'NONE', *, *, #427, .T. ) ;
#410 = CARTESIAN_POINT ( 'NONE',  ( -23.37155282031536885, -7.669380188436541346, 3.000000000000000000 ) ) ;
#411 = VERTEX_POINT ( 'NONE', #912 ) ;
#412 = VERTEX_POINT ( 'NONE', #614 ) ;
#413 = CARTESIAN_POINT ( 'NONE',  ( -7.500000000000000000, 5.665837688104247150, 3.000000000000000000 ) ) ;
#414 = AXIS2_PLACEMENT_3D ( 'NONE', #589, #519, #138 ) ;
#415 = CIRCLE ( 'NONE', #19, 6.020399007360152766 ) ;
#416 = EDGE_LOOP ( 'NONE', ( #263, #260 ) ) ;
#417 = DIRECTION ( 'NONE',  ( -0.000000000000000000, -0.000000000000000000, -1.000000000000000000 ) ) ;
#418 = ADVANCED_FACE ( 'NONE', ( #23 ), #362, .F. ) ;
#419 = ORIENTED_EDGE ( 'NONE', *, *, #170, .T. ) ;
#420 = CYLINDRICAL_SURFACE ( 'NONE', #60, 1.499999999999999556 ) ;
#421 = PLANE ( 'NONE',  #809 ) ;
#422 = VERTEX_POINT ( 'NONE', #943 ) ;
#423 = CARTESIAN_POINT ( 'NONE',  ( -21.87155282031535819, -17.66938018843654135, 3.000000000000000000 ) ) ;
#424 = VERTEX_POINT ( 'NONE', #491 ) ;
#425 = SURFACE_STYLE_FILL_AREA ( #562 ) ;
#426 = CARTESIAN_POINT ( 'NONE',  ( 7.500000000000000000, 5.665837688104247150, 3.000000000000000000 ) ) ;
#427 = EDGE_CURVE ( 'NONE', #114, #404, #110, .T. ) ;
#428 = ORIENTED_EDGE ( 'NONE', *, *, #719, .F. ) ;
#429 = FACE_OUTER_BOUND ( 'NONE', #860, .T. ) ;
#430 = EDGE_LOOP ( 'NONE', ( #487, #294, #269, #52 ) ) ;
#431 = DIRECTION ( 'NONE',  ( 0.000000000000000000, 0.000000000000000000, -1.000000000000000000 ) ) ;
#432 = EDGE_LOOP ( 'NONE', ( #97, #871, #582, #392 ) ) ;
#433 = DIRECTION ( 'NONE',  ( -1.239088197126290817E-16, 1.000000000000000000, -0.000000000000000000 ) ) ;
#434 = EDGE_CURVE ( 'NONE', #150, #361, #574, .T. ) ;
#435 = ORIENTED_EDGE ( 'NONE', *, *, #599, .T. ) ;
#436 = FACE_OUTER_BOUND ( 'NONE', #634, .T. ) ;
#437 = DIRECTION ( 'NONE',  ( -1.000000000000000000, -4.336808689942017243E-16, 0.000000000000000000 ) ) ;
#438 = ORIENTED_EDGE ( 'NONE', *, *, #891, .T. ) ;
#439 = LINE ( 'NONE', #899, #743 ) ;
#440 = EDGE_CURVE ( 'NONE', #367, #412, #793, .T. ) ;
#441 = CARTESIAN_POINT ( 'NONE',  ( 0.000000000000000000, 0.000000000000000000, 0.000000000000000000 ) ) ;
#442 =( NAMED_UNIT ( * ) SI_UNIT ( $, .STERADIAN. ) SOLID_ANGLE_UNIT ( ) );
#443 = EDGE_LOOP ( 'NONE', ( #179, #201 ) ) ;
#444 = DIRECTION ( 'NONE',  ( -0.000000000000000000, -0.000000000000000000, -1.000000000000000000 ) ) ;
#445 = FACE_OUTER_BOUND ( 'NONE', #540, .T. ) ;
#446 = EDGE_LOOP ( 'NONE', ( #330, #90 ) ) ;
#447 = AXIS2_PLACEMENT_3D ( 'NONE', #849, #171, #333 ) ;
#448 = FACE_OUTER_BOUND ( 'NONE', #388, .T. ) ;
#449 = DIRECTION ( 'NONE',  ( 0.000000000000000000, 0.000000000000000000, -1.000000000000000000 ) ) ;
#450 = AXIS2_PLACEMENT_3D ( 'NONE', #375, #136, #602 ) ;
#451 = CIRCLE ( 'NONE', #223, 6.020399007360152766 ) ;
#452 = EDGE_CURVE ( 'NONE', #945, #722, #451, .T. ) ;
#453 = CARTESIAN_POINT ( 'NONE',  ( -11.68216463570283814, 2.350343297401846332, 3.000000000000000000 ) ) ;
#454 = ORIENTED_EDGE ( 'NONE', *, *, #524, .T. ) ;
#455 = DIRECTION ( 'NONE',  ( -1.000000000000000000, 0.000000000000000000, 0.000000000000000000 ) ) ;
#456 = LINE ( 'NONE', #283, #370 ) ;
#457 = ORIENTED_EDGE ( 'NONE', *, *, #771, .F. ) ;
#458 = LINE ( 'NONE', #755, #145 ) ;
#459 = ORIENTED_EDGE ( 'NONE', *, *, #863, .T. ) ;
#460 = FACE_BOUND ( 'NONE', #41, .T. ) ;
#461 = VERTEX_POINT ( 'NONE', #808 ) ;
#462 = CARTESIAN_POINT ( 'NONE',  ( 11.69683296429715647, 2.350343297401874310, 3.000000000000000000 ) ) ;
#463 = EDGE_CURVE ( 'NONE', #874, #799, #859, .T. ) ;
#464 = CIRCLE ( 'NONE', #18, 1.500000000000001332 ) ;
#465 = AXIS2_PLACEMENT_3D ( 'NONE', #856, #178, #499 ) ;
#466 = VECTOR ( 'NONE', #139, 1000.000000000000000 ) ;
#467 = CARTESIAN_POINT ( 'NONE',  ( 11.69683296429715647, 2.350343297401874310, 3.000000000000000000 ) ) ;
#468 = ORIENTED_EDGE ( 'NONE', *, *, #584, .F. ) ;
#469 = CARTESIAN_POINT ( 'NONE',  ( -24.87155282031536174, -17.66938018843654135, 3.000000000000000000 ) ) ;
#470 = CARTESIAN_POINT ( 'NONE',  ( -23.37155282031536885, -7.669380188436541346, 3.000000000000000000 ) ) ;
#471 = CARTESIAN_POINT ( 'NONE',  ( -29.99999999999999645, -29.26931631310612048, 3.000000000000000000 ) ) ;
#472 = EDGE_CURVE ( 'NONE', #146, #7, #340, .T. ) ;
#473 = DIRECTION ( 'NONE',  ( 0.000000000000000000, 0.000000000000000000, -1.000000000000000000 ) ) ;
#474 = LINE ( 'NONE', #704, #682 ) ;
#475 = UNCERTAINTY_MEASURE_WITH_UNIT (LENGTH_MEASURE( 1.000000000000000082E-05 ), #763, 'distance_accuracy_value', 'NONE');
#476 = CARTESIAN_POINT ( 'NONE',  ( 10.19683296429715469, 2.350343297401874310, 3.000000000000000000 ) ) ;
#477 = CIRCLE ( 'NONE', #917, 1.500000000000001332 ) ;
#478 = CARTESIAN_POINT ( 'NONE',  ( 24.12844717968463115, -17.66938018843652358, 0.000000000000000000 ) ) ;
#479 = ORIENTED_EDGE ( 'NONE', *, *, #271, .T. ) ;
#480 = CARTESIAN_POINT ( 'NONE',  ( -17.50000000000000000, 5.665837688104242709, 0.000000000000000000 ) ) ;
#481 = CARTESIAN_POINT ( 'NONE',  ( 25.62844717968463470, -17.66938018843652358, 3.000000000000000000 ) ) ;
#482 = EDGE_LOOP ( 'NONE', ( #832, #987, #140, #510 ) ) ;
#483 = EDGE_CURVE ( 'NONE', #363, #497, #637, .T. ) ;
#484 = ORIENTED_EDGE ( 'NONE', *, *, #978, .T. ) ;
#485 = PRODUCT ( 'bianpianzhudong', 'bianpianzhudong', '', ( #240 ) ) ;
#486 = CARTESIAN_POINT ( 'NONE',  ( 25.62844717968463470, -7.669380188436526247, 0.000000000000000000 ) ) ;
#487 = ORIENTED_EDGE ( 'NONE', *, *, #271, .F. ) ;
#488 = ADVANCED_FACE ( 'NONE', ( #262 ), #421, .F. ) ;
#489 = VECTOR ( 'NONE', #581, 999.9999999999998863 ) ;
#490 = EDGE_LOOP ( 'NONE', ( #641, #655, #639, #801 ) ) ;
#491 = CARTESIAN_POINT ( 'NONE',  ( 7.500000000000000000, 5.665837688104247150, 3.000000000000000000 ) ) ;
#492 = AXIS2_PLACEMENT_3D ( 'NONE', #413, #181, #744 ) ;
#493 = VECTOR ( 'NONE', #93, 1000.000000000000000 ) ;
#494 = ORIENTED_EDGE ( 'NONE', *, *, #282, .T. ) ;
#495 = DIRECTION ( 'NONE',  ( -1.156482317317871478E-16, 1.000000000000000000, 0.000000000000000000 ) ) ;
#496 = EDGE_CURVE ( 'NONE', #422, #707, #730, .T. ) ;
#497 = VERTEX_POINT ( 'NONE', #570 ) ;
#498 = EDGE_CURVE ( 'NONE', #68, #316, #615, .T. ) ;
#499 = DIRECTION ( 'NONE',  ( -1.000000000000000000, 0.000000000000000000, 0.000000000000000000 ) ) ;
#500 = ORIENTED_EDGE ( 'NONE', *, *, #116, .F. ) ;
#501 = FACE_OUTER_BOUND ( 'NONE', #628, .T. ) ;
#502 = DIRECTION ( 'NONE',  ( 0.000000000000000000, 0.000000000000000000, -1.000000000000000000 ) ) ;
#503 = EDGE_LOOP ( 'NONE', ( #14, #280 ) ) ;
#504 = ADVANCED_FACE ( 'NONE', ( #436 ), #191, .F. ) ;
#505 = CARTESIAN_POINT ( 'NONE',  ( 13.19683296429715824, 2.350343297401874310, 0.000000000000000000 ) ) ;
#506 = ORIENTED_EDGE ( 'NONE', *, *, #282, .F. ) ;
#507 = CARTESIAN_POINT ( 'NONE',  ( 25.62844717968463470, -17.66938018843652358, 3.000000000000000000 ) ) ;
#508 = EDGE_LOOP ( 'NONE', ( #735, #815 ) ) ;
#509 = CARTESIAN_POINT ( 'NONE',  ( 7.500000000000000000, 5.665837688104247150, 0.000000000000000000 ) ) ;
#510 = ORIENTED_EDGE ( 'NONE', *, *, #133, .T. ) ;
#511 = VECTOR ( 'NONE', #433, 1000.000000000000000 ) ;
#512 = DIRECTION ( 'NONE',  ( -0.000000000000000000, -0.000000000000000000, -1.000000000000000000 ) ) ;
#513 = CIRCLE ( 'NONE', #54, 1.500000000000001332 ) ;
#514 = FACE_BOUND ( 'NONE', #284, .T. ) ;
#515 = CARTESIAN_POINT ( 'NONE',  ( -13.18216463570283814, 2.350343297401846332, 3.000000000000000000 ) ) ;
#516 = ORIENTED_EDGE ( 'NONE', *, *, #702, .T. ) ;
#517 = DIRECTION ( 'NONE',  ( -1.000000000000000000, 0.000000000000000000, 0.000000000000000000 ) ) ;
#518 = ADVANCED_FACE ( 'NONE', ( #586 ), #117, .F. ) ;
#519 = DIRECTION ( 'NONE',  ( 0.000000000000000000, 0.000000000000000000, -1.000000000000000000 ) ) ;
#520 = LINE ( 'NONE', #818, #466 ) ;
#521 = EDGE_LOOP ( 'NONE', ( #326, #631 ) ) ;
#522 = CARTESIAN_POINT ( 'NONE',  ( -23.37155282031536174, -17.66938018843654135, 3.000000000000000000 ) ) ;
#523 = DIRECTION ( 'NONE',  ( 0.000000000000000000, 0.000000000000000000, -1.000000000000000000 ) ) ;
#524 = EDGE_CURVE ( 'NONE', #577, #461, #878, .T. ) ;
#525 = FACE_OUTER_BOUND ( 'NONE', #482, .T. ) ;
#526 = VERTEX_POINT ( 'NONE', #195 ) ;
#527 = DIRECTION ( 'NONE',  ( 1.000000000000000000, 1.239088197126290817E-16, -0.000000000000000000 ) ) ;
#528 = AXIS2_PLACEMENT_3D ( 'NONE', #820, #154, #517 ) ;
#529 = VECTOR ( 'NONE', #164, 1000.000000000000000 ) ;
#530 = CIRCLE ( 'NONE', #883, 1.500000000000001332 ) ;
#531 = FACE_BOUND ( 'NONE', #894, .T. ) ;
#532 = VERTEX_POINT ( 'NONE', #505 ) ;
#533 = DIRECTION ( 'NONE',  ( 0.000000000000000000, 0.000000000000000000, 1.000000000000000000 ) ) ;
#534 = DIRECTION ( 'NONE',  ( -1.000000000000000000, 0.000000000000000000, 0.000000000000000000 ) ) ;
#535 = EDGE_CURVE ( 'NONE', #764, #71, #513, .T. ) ;
#536 = ORIENTED_EDGE ( 'NONE', *, *, #346, .T. ) ;
#537 = PLANE ( 'NONE',  #862 ) ;
#538 = VERTEX_POINT ( 'NONE', #509 ) ;
#539 = CARTESIAN_POINT ( 'NONE',  ( -11.68216463570283814, 2.350343297401846332, 0.000000000000000000 ) ) ;
#540 = EDGE_LOOP ( 'NONE', ( #428, #680, #356, #819 ) ) ;
#541 = CARTESIAN_POINT ( 'NONE',  ( -30.00000000000000000, -1.269316313106120919, 3.000000000000000000 ) ) ;
#542 = CIRCLE ( 'NONE', #669, 3.010000000000024656 ) ;
#543 = AXIS2_PLACEMENT_3D ( 'NONE', #142, #449, #674 ) ;
#544 = CARTESIAN_POINT ( 'NONE',  ( 12.15844717968458966, -12.66938018843655200, 3.000000000000000000 ) ) ;
#545 = DIRECTION ( 'NONE',  ( -1.000000000000000000, 0.000000000000000000, 0.000000000000000000 ) ) ;
#546 = SURFACE_STYLE_USAGE ( .BOTH. , #162 ) ;
#547 = FACE_OUTER_BOUND ( 'NONE', #666, .T. ) ;
#548 = LINE ( 'NONE', #174, #841 ) ;
#549 = CARTESIAN_POINT ( 'NONE',  ( -17.50000000000000000, 5.665837688104242709, 3.000000000000000000 ) ) ;
#550 = ADVANCED_FACE ( 'NONE', ( #784 ), #103, .F. ) ;
#551 = DIRECTION ( 'NONE',  ( -0.8744330400848283613, 0.4851462237387870191, -0.000000000000000000 ) ) ;
#552 = AXIS2_PLACEMENT_3D ( 'NONE', #470, #166, #94 ) ;
#553 = LINE ( 'NONE', #846, #952 ) ;
#554 = VERTEX_POINT ( 'NONE', #679 ) ;
#555 = VECTOR ( 'NONE', #512, 1000.000000000000000 ) ;
#556 =( NAMED_UNIT ( * ) SI_UNIT ( $, .STERADIAN. ) SOLID_ANGLE_UNIT ( ) );
#557 = VECTOR ( 'NONE', #736, 1000.000000000000000 ) ;
#558 = DIRECTION ( 'NONE',  ( -1.000000000000000000, 0.000000000000000000, 0.000000000000000000 ) ) ;
#559 =( GEOMETRIC_REPRESENTATION_CONTEXT ( 3 ) GLOBAL_UNCERTAINTY_ASSIGNED_CONTEXT ( ( #567 ) ) GLOBAL_UNIT_ASSIGNED_CONTEXT ( ( #350, #569, #83 ) ) REPRESENTATION_CONTEXT ( 'NONE', 'WORKASPACE' ) );
#560 = CARTESIAN_POINT ( 'NONE',  ( 7.500000000000000000, 0.000000000000000000, 0.000000000000000000 ) ) ;
#561 = EDGE_LOOP ( 'NONE', ( #229, #797, #35, #758, #858, #104, #672, #21, #120, #347 ) ) ;
#562 = FILL_AREA_STYLE ('',( #397 ) ) ;
#563 = DIRECTION ( 'NONE',  ( 0.000000000000000000, 0.000000000000000000, -1.000000000000000000 ) ) ;
#564 = CARTESIAN_POINT ( 'NONE',  ( -24.87155282031536885, -7.669380188436541346, 3.000000000000000000 ) ) ;
#565 = ADVANCED_FACE ( 'NONE', ( #749 ), #831, .F. ) ;
#566 = ORIENTED_EDGE ( 'NONE', *, *, #440, .T. ) ;
#567 = UNCERTAINTY_MEASURE_WITH_UNIT (LENGTH_MEASURE( 1.000000000000000082E-05 ), #350, 'distance_accuracy_value', 'NONE');
#568 = EDGE_LOOP ( 'NONE', ( #459, #506, #111, #936 ) ) ;
#569 =( NAMED_UNIT ( * ) PLANE_ANGLE_UNIT ( ) SI_UNIT ( $, .RADIAN. ) );
#570 = CARTESIAN_POINT ( 'NONE',  ( 27.12844717968463470, -17.66938018843652358, 0.000000000000000000 ) ) ;
#571 = DIRECTION ( 'NONE',  ( 0.000000000000000000, 0.000000000000000000, -1.000000000000000000 ) ) ;
#572 = VECTOR ( 'NONE', #53, 1000.000000000000000 ) ;
#573 = ORIENTED_EDGE ( 'NONE', *, *, #322, .T. ) ;
#574 = LINE ( 'NONE', #30, #385 ) ;
#575 = CIRCLE ( 'NONE', #287, 1.500000000000001332 ) ;
#576 = AXIS2_PLACEMENT_3D ( 'NONE', #29, #915, #642 ) ;
#577 = VERTEX_POINT ( 'NONE', #72 ) ;
#578 = FACE_OUTER_BOUND ( 'NONE', #337, .T. ) ;
#579 = EDGE_CURVE ( 'NONE', #131, #374, #456, .T. ) ;
#580 = VERTEX_POINT ( 'NONE', #675 ) ;
#581 = DIRECTION ( 'NONE',  ( -0.8744330400848283613, 0.4851462237387870191, -0.000000000000000000 ) ) ;
#582 = ORIENTED_EDGE ( 'NONE', *, *, #346, .F. ) ;
#583 = PLANE ( 'NONE',  #774 ) ;
#584 = EDGE_CURVE ( 'NONE', #47, #331, #187, .T. ) ;
#585 = ORIENTED_EDGE ( 'NONE', *, *, #647, .F. ) ;
#586 = FACE_OUTER_BOUND ( 'NONE', #192, .T. ) ;
#587 = ORIENTED_EDGE ( 'NONE', *, *, #535, .T. ) ;
#588 = DIRECTION ( 'NONE',  ( -0.000000000000000000, -0.000000000000000000, -1.000000000000000000 ) ) ;
#589 = CARTESIAN_POINT ( 'NONE',  ( -23.37155282031536885, -7.669380188436541346, 0.000000000000000000 ) ) ;
#590 = DIRECTION ( 'NONE',  ( 0.000000000000000000, 1.000000000000000000, 0.000000000000000000 ) ) ;
#591 = ADVANCED_FACE ( 'NONE', ( #525 ), #289, .F. ) ;
#592 = VERTEX_POINT ( 'NONE', #293 ) ;
#593 = PLANE ( 'NONE',  #286 ) ;
#594 = VECTOR ( 'NONE', #279, 1000.000000000000000 ) ;
#595 = VECTOR ( 'NONE', #318, 1000.000000000000114 ) ;
#596 = FACE_BOUND ( 'NONE', #932, .T. ) ;
#597 = EDGE_LOOP ( 'NONE', ( #604, #457, #829, #419 ) ) ;
#598 = DIRECTION ( 'NONE',  ( 0.000000000000000000, 0.000000000000000000, -1.000000000000000000 ) ) ;
#599 = EDGE_CURVE ( 'NONE', #316, #68, #58, .T. ) ;
#600 = DIRECTION ( 'NONE',  ( 1.000000000000000000, 0.000000000000000000, 0.000000000000000000 ) ) ;
#601 = VERTEX_POINT ( 'NONE', #817 ) ;
#602 = DIRECTION ( 'NONE',  ( -1.000000000000000000, 0.000000000000000000, 0.000000000000000000 ) ) ;
#603 = FACE_BOUND ( 'NONE', #908, .T. ) ;
#604 = ORIENTED_EDGE ( 'NONE', *, *, #812, .F. ) ;
#605 = CARTESIAN_POINT ( 'NONE',  ( -7.500000000000000000, 0.000000000000000000, 3.000000000000000000 ) ) ;
#606 = VECTOR ( 'NONE', #880, 1000.000000000000000 ) ;
#607 = ADVANCED_FACE ( 'NONE', ( #445 ), #979, .F. ) ;
#608 = LINE ( 'NONE', #372, #823 ) ;
#609 = ORIENTED_EDGE ( 'NONE', *, *, #472, .T. ) ;
#610 = DIRECTION ( 'NONE',  ( -0.000000000000000000, -1.000000000000000000, -0.000000000000000000 ) ) ;
#611 = CYLINDRICAL_SURFACE ( 'NONE', #648, 6.020399007360152766 ) ;
#612 = ORIENTED_EDGE ( 'NONE', *, *, #80, .T. ) ;
#613 = DIRECTION ( 'NONE',  ( -0.000000000000000000, -0.000000000000000000, -1.000000000000000000 ) ) ;
#614 = CARTESIAN_POINT ( 'NONE',  ( 30.00000000000000355, -29.26931631310611337, 3.000000000000000000 ) ) ;
#615 = CIRCLE ( 'NONE', #790, 1.500000000000001332 ) ;
#616 = CIRCLE ( 'NONE', #528, 3.010000000000024656 ) ;
#617 = AXIS2_PLACEMENT_3D ( 'NONE', #251, #246, #325 ) ;
#618 = SURFACE_STYLE_FILL_AREA ( #767 ) ;
#619 = DIRECTION ( 'NONE',  ( 0.000000000000000000, 0.000000000000000000, -1.000000000000000000 ) ) ;
#620 = EDGE_CURVE ( 'NONE', #709, #422, #542, .T. ) ;
#621 = DIRECTION ( 'NONE',  ( 0.000000000000000000, 0.000000000000000000, -1.000000000000000000 ) ) ;
#622 = CARTESIAN_POINT ( 'NONE',  ( 12.15844717968458966, -12.66938018843655200, 0.000000000000000000 ) ) ;
#623 = DIRECTION ( 'NONE',  ( -0.000000000000000000, -0.000000000000000000, -1.000000000000000000 ) ) ;
#624 = ORIENTED_EDGE ( 'NONE', *, *, #440, .F. ) ;
#625 = CARTESIAN_POINT ( 'NONE',  ( 25.62844717968463470, -7.669380188436526247, 3.000000000000000000 ) ) ;
#626 = CARTESIAN_POINT ( 'NONE',  ( -23.37155282031536174, -17.66938018843654135, 3.000000000000000000 ) ) ;
#627 = DIRECTION ( 'NONE',  ( -1.000000000000000000, 0.000000000000000000, 0.000000000000000000 ) ) ;
#628 = EDGE_LOOP ( 'NONE', ( #645, #701, #196, #785 ) ) ;
#629 = VECTOR ( 'NONE', #965, 1000.000000000000000 ) ;
#630 = EDGE_CURVE ( 'NONE', #592, #109, #236, .T. ) ;
#631 = ORIENTED_EDGE ( 'NONE', *, *, #706, .T. ) ;
#632 = CIRCLE ( 'NONE', #698, 1.500000000000001332 ) ;
#633 = CARTESIAN_POINT ( 'NONE',  ( -30.00000000000000000, -1.269316313106120919, 0.000000000000000000 ) ) ;
#634 = EDGE_LOOP ( 'NONE', ( #903, #17, #180, #213 ) ) ;
#635 = EDGE_LOOP ( 'NONE', ( #153, #198, #733, #587 ) ) ;
#636 = APPLICATION_PROTOCOL_DEFINITION ( 'draft international standard', 'automotive_design', 1998, #873 ) ;
#637 = LINE ( 'NONE', #872, #368 ) ;
#638 = CARTESIAN_POINT ( 'NONE',  ( -7.500000000000000000, 5.665837688104247150, 0.000000000000000000 ) ) ;
#639 = ORIENTED_EDGE ( 'NONE', *, *, #778, .F. ) ;
#640 = CARTESIAN_POINT ( 'NONE',  ( 24.12844717968463115, -17.66938018843652358, 3.000000000000000000 ) ) ;
#641 = ORIENTED_EDGE ( 'NONE', *, *, #822, .T. ) ;
#642 = DIRECTION ( 'NONE',  ( 1.000000000000000000, 0.000000000000000000, 0.000000000000000000 ) ) ;
#643 = CARTESIAN_POINT ( 'NONE',  ( 25.62844717968463470, -7.669380188436526247, 3.000000000000000000 ) ) ;
#644 = DIRECTION ( 'NONE',  ( -1.000000000000000000, 0.000000000000000000, 0.000000000000000000 ) ) ;
#645 = ORIENTED_EDGE ( 'NONE', *, *, #339, .F. ) ;
#646 = DIRECTION ( 'NONE',  ( -1.000000000000000000, 0.000000000000000000, 0.000000000000000000 ) ) ;
#647 = EDGE_CURVE ( 'NONE', #412, #805, #608, .T. ) ;
#648 = AXIS2_PLACEMENT_3D ( 'NONE', #544, #324, #173 ) ;
#649 = ORIENTED_EDGE ( 'NONE', *, *, #137, .F. ) ;
#650 = DIRECTION ( 'NONE',  ( -0.000000000000000000, -0.000000000000000000, -1.000000000000000000 ) ) ;
#651 = VECTOR ( 'NONE', #121, 1000.000000000000000 ) ;
#652 = VERTEX_POINT ( 'NONE', #304 ) ;
#653 = CARTESIAN_POINT ( 'NONE',  ( 25.62844717968463470, -17.66938018843652358, 3.000000000000000000 ) ) ;
#654 = PRODUCT_DEFINITION_SHAPE ( 'NONE', 'NONE',  #684 ) ;
#655 = ORIENTED_EDGE ( 'NONE', *, *, #463, .F. ) ;
#656 = DIRECTION ( 'NONE',  ( -0.8744330400848281393, -0.4851462237387871856, 0.000000000000000000 ) ) ;
#657 = ORIENTED_EDGE ( 'NONE', *, *, #498, .F. ) ;
#658 = DIRECTION ( 'NONE',  ( 0.000000000000000000, 0.000000000000000000, -1.000000000000000000 ) ) ;
#659 = EDGE_CURVE ( 'NONE', #7, #367, #902, .T. ) ;
#660 = FACE_BOUND ( 'NONE', #78, .T. ) ;
#661 = VERTEX_POINT ( 'NONE', #228 ) ;
#662 = CARTESIAN_POINT ( 'NONE',  ( -24.87155282031536174, -17.66938018843654135, 3.000000000000000000 ) ) ;
#663 = ADVANCED_FACE ( 'NONE', ( #596, #671, #603, #660, #207, #460, #514, #813, #144 ), #134, .T. ) ;
#664 = DIRECTION ( 'NONE',  ( -0.000000000000000000, -0.000000000000000000, -1.000000000000000000 ) ) ;
#665 = CARTESIAN_POINT ( 'NONE',  ( 24.12844717968463115, -7.669380188436526247, 3.000000000000000000 ) ) ;
#666 = EDGE_LOOP ( 'NONE', ( #300, #536, #746, #233, #609, #980, #566, #64, #516, #255 ) ) ;
#667 = AXIS2_PLACEMENT_3D ( 'NONE', #830, #833, #76 ) ;
#668 = DIRECTION ( 'NONE',  ( -1.239088197126290817E-16, 1.000000000000000000, -0.000000000000000000 ) ) ;
#669 = AXIS2_PLACEMENT_3D ( 'NONE', #376, #217, #828 ) ;
#670 = COLOUR_RGB ( '',1.000000000000000000, 1.000000000000000000, 1.000000000000000000 ) ;
#671 = FACE_BOUND ( 'NONE', #687, .T. ) ;
#672 = ORIENTED_EDGE ( 'NONE', *, *, #863, .F. ) ;
#673 = DIRECTION ( 'NONE',  ( -1.000000000000000000, 0.000000000000000000, 0.000000000000000000 ) ) ;
#674 = DIRECTION ( 'NONE',  ( -1.000000000000000000, 0.000000000000000000, 0.000000000000000000 ) ) ;
#675 = CARTESIAN_POINT ( 'NONE',  ( -29.99999999999999645, -29.26931631310612048, 0.000000000000000000 ) ) ;
#676 = ORIENTED_EDGE ( 'NONE', *, *, #620, .F. ) ;
#677 = CARTESIAN_POINT ( 'NONE',  ( -7.500000000000000000, 0.000000000000000000, 0.000000000000000000 ) ) ;
#678 = ADVANCED_FACE ( 'NONE', ( #971, #531, #966, #739, #67, #50, #887, #920, #547 ), #703, .F. ) ;
#679 = CARTESIAN_POINT ( 'NONE',  ( 30.00000000000000000, -1.269316313106113370, 3.000000000000000000 ) ) ;
#680 = ORIENTED_EDGE ( 'NONE', *, *, #496, .T. ) ;
#681 = CYLINDRICAL_SURFACE ( 'NONE', #126, 1.500000000000001332 ) ;
#682 = VECTOR ( 'NONE', #844, 1000.000000000000000 ) ;
#683 = AXIS2_PLACEMENT_3D ( 'NONE', #539, #473, #399 ) ;
#684 = PRODUCT_DEFINITION ( '未知', '', #253, #101 ) ;
#685 = VERTEX_POINT ( 'NONE', #156 ) ;
#686 = DIRECTION ( 'NONE',  ( -1.000000000000000000, 0.000000000000000000, -0.000000000000000000 ) ) ;
#687 = EDGE_LOOP ( 'NONE', ( #254, #737 ) ) ;
#688 = DIRECTION ( 'NONE',  ( -0.000000000000000000, -0.000000000000000000, -1.000000000000000000 ) ) ;
#689 = CARTESIAN_POINT ( 'NONE',  ( -10.18216463570283814, 2.350343297401846332, 0.000000000000000000 ) ) ;
#690 = VERTEX_POINT ( 'NONE', #480 ) ;
#691 = CARTESIAN_POINT ( 'NONE',  ( -17.50000000000000000, 5.665837688104242709, 3.000000000000000000 ) ) ;
#692 = FACE_OUTER_BOUND ( 'NONE', #218, .T. ) ;
#693 = ADVANCED_FACE ( 'NONE', ( #395 ), #611, .F. ) ;
#694 = CARTESIAN_POINT ( 'NONE',  ( -24.87155282031536885, -7.669380188436541346, 0.000000000000000000 ) ) ;
#695 = CARTESIAN_POINT ( 'NONE',  ( -17.50000000000000000, 5.665837688104242709, 0.000000000000000000 ) ) ;
#696 = VECTOR ( 'NONE', #551, 999.9999999999998863 ) ;
#697 = AXIS2_PLACEMENT_3D ( 'NONE', #410, #619, #627 ) ;
#698 = AXIS2_PLACEMENT_3D ( 'NONE', #467, #852, #989 ) ;
#699 = FILL_AREA_STYLE_COLOUR ( '', #670 ) ;
#700 = DIRECTION ( 'NONE',  ( -1.000000000000000000, -0.000000000000000000, -0.000000000000000000 ) ) ;
#701 = ORIENTED_EDGE ( 'NONE', *, *, #390, .T. ) ;
#702 = EDGE_CURVE ( 'NONE', #554, #661, #232, .T. ) ;
#703 = PLANE ( 'NONE',  #143 ) ;
#704 = CARTESIAN_POINT ( 'NONE',  ( -13.35155282022475021, -12.66931631310613859, 3.000000000000000000 ) ) ;
#705 = EDGE_LOOP ( 'NONE', ( #168, #102 ) ) ;
#706 = EDGE_CURVE ( 'NONE', #685, #825, #948, .T. ) ;
#707 = VERTEX_POINT ( 'NONE', #848 ) ;
#708 = DIRECTION ( 'NONE',  ( 0.000000000000000000, 0.000000000000000000, -1.000000000000000000 ) ) ;
#709 = VERTEX_POINT ( 'NONE', #986 ) ;
#710 = AXIS2_PLACEMENT_3D ( 'NONE', #354, #202, #786 ) ;
#711 = ORIENTED_EDGE ( 'NONE', *, *, #659, .F. ) ;
#712 = CIRCLE ( 'NONE', #617, 1.500000000000001332 ) ;
#713 = CIRCLE ( 'NONE', #683, 1.499999999999999556 ) ;
#714 = DIRECTION ( 'NONE',  ( -1.000000000000000000, 0.000000000000000000, 0.000000000000000000 ) ) ;
#715 = ORIENTED_EDGE ( 'NONE', *, *, #599, .F. ) ;
#716 = CARTESIAN_POINT ( 'NONE',  ( 30.00000000000000355, -29.26931631310611337, 0.000000000000000000 ) ) ;
#717 = VERTEX_POINT ( 'NONE', #689 ) ;
#718 = CARTESIAN_POINT ( 'NONE',  ( -11.68216463570283814, 2.350343297401846332, 3.000000000000000000 ) ) ;
#719 = EDGE_CURVE ( 'NONE', #422, #709, #352, .T. ) ;
#720 = SHAPE_DEFINITION_REPRESENTATION ( #654, #225 ) ;
#721 = DIRECTION ( 'NONE',  ( -1.000000000000000000, -1.239088197126290817E-16, 0.000000000000000000 ) ) ;
#722 = VERTEX_POINT ( 'NONE', #250 ) ;
#723 = LINE ( 'NONE', #947, #382 ) ;
#724 = ORIENTED_EDGE ( 'NONE', *, *, #315, .T. ) ;
#725 = DIRECTION ( 'NONE',  ( -0.000000000000000000, -0.000000000000000000, -1.000000000000000000 ) ) ;
#726 = ADVANCED_FACE ( 'NONE', ( #692 ), #845, .F. ) ;
#727 = ORIENTED_EDGE ( 'NONE', *, *, #796, .F. ) ;
#728 = DIRECTION ( 'NONE',  ( 0.000000000000000000, -0.000000000000000000, -1.000000000000000000 ) ) ;
#729 = ORIENTED_EDGE ( 'NONE', *, *, #891, .F. ) ;
#730 = LINE ( 'NONE', #345, #594 ) ;
#731 = MECHANICAL_DESIGN_GEOMETRIC_PRESENTATION_REPRESENTATION (  '', ( #75 ), #761 ) ;
#732 = PRESENTATION_LAYER_ASSIGNMENT (  '', '', ( #75 ) ) ;
#733 = ORIENTED_EDGE ( 'NONE', *, *, #939, .T. ) ;
#734 = FACE_OUTER_BOUND ( 'NONE', #432, .T. ) ;
#735 = ORIENTED_EDGE ( 'NONE', *, *, #249, .F. ) ;
#736 = DIRECTION ( 'NONE',  ( -0.000000000000000000, -0.000000000000000000, -1.000000000000000000 ) ) ;
#737 = ORIENTED_EDGE ( 'NONE', *, *, #215, .F. ) ;
#738 = FACE_OUTER_BOUND ( 'NONE', #959, .T. ) ;
#739 = FACE_BOUND ( 'NONE', #503, .T. ) ;
#740 = CARTESIAN_POINT ( 'NONE',  ( -7.500000000000000000, 0.000000000000000000, 0.000000000000000000 ) ) ;
#741 = ORIENTED_EDGE ( 'NONE', *, *, #355, .T. ) ;
#742 = DIRECTION ( 'NONE',  ( -1.000000000000000000, 0.000000000000000000, 0.000000000000000000 ) ) ;
#743 = VECTOR ( 'NONE', #613, 1000.000000000000000 ) ;
#744 = DIRECTION ( 'NONE',  ( 1.000000000000000000, 4.336808689942016750E-16, 0.000000000000000000 ) ) ;
#745 = CARTESIAN_POINT ( 'NONE',  ( 17.50000000000000000, 5.665837688104247150, 3.000000000000000000 ) ) ;
#746 = ORIENTED_EDGE ( 'NONE', *, *, #778, .T. ) ;
#747 = DIRECTION ( 'NONE',  ( 0.000000000000000000, 0.000000000000000000, -1.000000000000000000 ) ) ;
#748 = CIRCLE ( 'NONE', #2, 1.500000000000001332 ) ;
#749 = FACE_OUTER_BOUND ( 'NONE', #597, .T. ) ;
#750 = EDGE_CURVE ( 'NONE', #290, #601, #10, .T. ) ;
#751 = ORIENTED_EDGE ( 'NONE', *, *, #630, .F. ) ;
#752 = FACE_OUTER_BOUND ( 'NONE', #889, .T. ) ;
#753 = DIRECTION ( 'NONE',  ( 0.000000000000000000, 0.000000000000000000, -1.000000000000000000 ) ) ;
#754 = ORIENTED_EDGE ( 'NONE', *, *, #296, .F. ) ;
#755 = CARTESIAN_POINT ( 'NONE',  ( -10.18216463570283814, 2.350343297401846332, 3.000000000000000000 ) ) ;
#756 = EDGE_LOOP ( 'NONE', ( #928, #377, #972, #857 ) ) ;
#757 = CARTESIAN_POINT ( 'NONE',  ( 11.69683296429715647, 2.350343297401874310, 3.000000000000000000 ) ) ;
#758 = ORIENTED_EDGE ( 'NONE', *, *, #80, .F. ) ;
#759 = CARTESIAN_POINT ( 'NONE',  ( 7.500000000000000000, 5.665837688104247150, 3.000000000000000000 ) ) ;
#760 = AXIS2_PLACEMENT_3D ( 'NONE', #757, #963, #534 ) ;
#761 =( GEOMETRIC_REPRESENTATION_CONTEXT ( 3 ) GLOBAL_UNCERTAINTY_ASSIGNED_CONTEXT ( ( #475 ) ) GLOBAL_UNIT_ASSIGNED_CONTEXT ( ( #763, #1, #556 ) ) REPRESENTATION_CONTEXT ( 'NONE', 'WORKASPACE' ) );
#762 = EDGE_CURVE ( 'NONE', #526, #31, #247, .T. ) ;
#763 =( LENGTH_UNIT ( ) NAMED_UNIT ( * ) SI_UNIT ( .MILLI., .METRE. ) );
#764 = VERTEX_POINT ( 'NONE', #843 ) ;
#765 = LINE ( 'NONE', #925, #91 ) ;
#766 = EDGE_CURVE ( 'NONE', #717, #652, #713, .T. ) ;
#767 = FILL_AREA_STYLE ('',( #699 ) ) ;
#768 = DIRECTION ( 'NONE',  ( -0.000000000000000000, -0.000000000000000000, -1.000000000000000000 ) ) ;
#769 = MANIFOLD_SOLID_BREP ( '切除-拉伸9', #38 ) ;
#770 = APPLICATION_PROTOCOL_DEFINITION ( 'draft international standard', 'automotive_design', 1998, #15 ) ;
#771 = EDGE_CURVE ( 'NONE', #290, #773, #632, .T. ) ;
#772 = VECTOR ( 'NONE', #881, 1000.000000000000000 ) ;
#773 = VERTEX_POINT ( 'NONE', #84 ) ;
#774 = AXIS2_PLACEMENT_3D ( 'NONE', #132, #875, #728 ) ;
#775 = MECHANICAL_DESIGN_GEOMETRIC_PRESENTATION_REPRESENTATION (  '', ( #188 ), #559 ) ;
#776 = DIRECTION ( 'NONE',  ( -1.000000000000000000, 0.000000000000000000, 0.000000000000000000 ) ) ;
#777 = DIRECTION ( 'NONE',  ( 1.239088197126290817E-16, -1.000000000000000000, 0.000000000000000000 ) ) ;
#778 = EDGE_CURVE ( 'NONE', #131, #874, #245, .T. ) ;
#779 = DIRECTION ( 'NONE',  ( -1.000000000000000000, 0.000000000000000000, 0.000000000000000000 ) ) ;
#780 = CARTESIAN_POINT ( 'NONE',  ( -23.37155282031536174, -17.66938018843654135, 0.000000000000000000 ) ) ;
#781 = FACE_OUTER_BOUND ( 'NONE', #568, .T. ) ;
#782 = EDGE_LOOP ( 'NONE', ( #468, #484, #177, #940 ) ) ;
#783 = EDGE_LOOP ( 'NONE', ( #612, #384, #500, #265 ) ) ;
#784 = FACE_OUTER_BOUND ( 'NONE', #176, .T. ) ;
#785 = ORIENTED_EDGE ( 'NONE', *, *, #221, .F. ) ;
#786 = DIRECTION ( 'NONE',  ( -1.000000000000000000, 0.000000000000000000, 0.000000000000000000 ) ) ;
#787 = VECTOR ( 'NONE', #768, 1000.000000000000000 ) ;
#788 = AXIS2_PLACEMENT_3D ( 'NONE', #977, #230, #983 ) ;
#789 = VERTEX_POINT ( 'NONE', #24 ) ;
#790 = AXIS2_PLACEMENT_3D ( 'NONE', #40, #563, #357 ) ;
#791 = FACE_OUTER_BOUND ( 'NONE', #430, .T. ) ;
#792 = VECTOR ( 'NONE', #292, 1000.000000000000000 ) ;
#793 = LINE ( 'NONE', #266, #651 ) ;
#794 = ORIENTED_EDGE ( 'NONE', *, *, #719, .T. ) ;
#795 = DIRECTION ( 'NONE',  ( -1.000000000000000000, -1.156482317317871478E-16, 0.000000000000000000 ) ) ;
#796 = EDGE_CURVE ( 'NONE', #773, #290, #530, .T. ) ;
#797 = ORIENTED_EDGE ( 'NONE', *, *, #322, .F. ) ;
#798 = DIRECTION ( 'NONE',  ( 0.000000000000000000, -1.000000000000000000, 0.000000000000000000 ) ) ;
#799 = VERTEX_POINT ( 'NONE', #638 ) ;
#800 = CARTESIAN_POINT ( 'NONE',  ( 18.17884618704474420, -12.66938018843655200, 3.000000000000000000 ) ) ;
#801 = ORIENTED_EDGE ( 'NONE', *, *, #579, .T. ) ;
#802 = DIRECTION ( 'NONE',  ( 0.000000000000000000, 0.000000000000000000, -1.000000000000000000 ) ) ;
#803 = ORIENTED_EDGE ( 'NONE', *, *, #896, .F. ) ;
#804 = CARTESIAN_POINT ( 'NONE',  ( -7.500000000000000000, 5.665837688104247150, 3.000000000000000000 ) ) ;
#805 = VERTEX_POINT ( 'NONE', #938 ) ;
#806 = AXIS2_PLACEMENT_3D ( 'NONE', #364, #588, #26 ) ;
#807 =( NAMED_UNIT ( * ) PLANE_ANGLE_UNIT ( ) SI_UNIT ( $, .RADIAN. ) );
#808 = CARTESIAN_POINT ( 'NONE',  ( 17.50000000000000000, 5.665837688104247150, 0.000000000000000000 ) ) ;
#809 = AXIS2_PLACEMENT_3D ( 'NONE', #933, #721, #960 ) ;
#810 = ORIENTED_EDGE ( 'NONE', *, *, #310, .F. ) ;
#811 = CARTESIAN_POINT ( 'NONE',  ( 30.00000000000000355, -29.26931631310611337, 3.000000000000000000 ) ) ;
#812 = EDGE_CURVE ( 'NONE', #773, #532, #944, .T. ) ;
#813 = FACE_BOUND ( 'NONE', #508, .T. ) ;
#814 = DIRECTION ( 'NONE',  ( -0.000000000000000000, -0.000000000000000000, -1.000000000000000000 ) ) ;
#815 = ORIENTED_EDGE ( 'NONE', *, *, #189, .F. ) ;
#816 = DIRECTION ( 'NONE',  ( -1.000000000000000000, 0.000000000000000000, 0.000000000000000000 ) ) ;
#817 = CARTESIAN_POINT ( 'NONE',  ( 10.19683296429715469, 2.350343297401874310, 0.000000000000000000 ) ) ;
#818 = CARTESIAN_POINT ( 'NONE',  ( 7.500000000000000000, 5.665837688104247150, 3.000000000000000000 ) ) ;
#819 = ORIENTED_EDGE ( 'NONE', *, *, #315, .F. ) ;
#820 = CARTESIAN_POINT ( 'NONE',  ( -10.34155282022472555, -12.66931631310613859, 0.000000000000000000 ) ) ;
#821 = DIRECTION ( 'NONE',  ( -1.000000000000000000, 0.000000000000000000, 0.000000000000000000 ) ) ;
#822 = EDGE_CURVE ( 'NONE', #374, #799, #130, .T. ) ;
#823 = VECTOR ( 'NONE', #664, 1000.000000000000000 ) ;
#824 = CARTESIAN_POINT ( 'NONE',  ( -30.00000000000000000, -1.269316313106120919, 3.000000000000000000 ) ) ;
#825 = VERTEX_POINT ( 'NONE', #665 ) ;
#826 = FACE_OUTER_BOUND ( 'NONE', #923, .T. ) ;
#827 = VECTOR ( 'NONE', #3, 1000.000000000000000 ) ;
#828 = DIRECTION ( 'NONE',  ( -1.000000000000000000, 0.000000000000000000, 0.000000000000000000 ) ) ;
#829 = ORIENTED_EDGE ( 'NONE', *, *, #750, .T. ) ;
#830 = CARTESIAN_POINT ( 'NONE',  ( 11.69683296429715647, 2.350343297401874310, 0.000000000000000000 ) ) ;
#831 = CYLINDRICAL_SURFACE ( 'NONE', #760, 1.500000000000001332 ) ;
#832 = ORIENTED_EDGE ( 'NONE', *, *, #949, .T. ) ;
#833 = DIRECTION ( 'NONE',  ( 0.000000000000000000, 0.000000000000000000, -1.000000000000000000 ) ) ;
#834 = ADVANCED_FACE ( 'NONE', ( #882 ), #51, .F. ) ;
#835 = ORIENTED_EDGE ( 'NONE', *, *, #974, .T. ) ;
#836 = ORIENTED_EDGE ( 'NONE', *, *, #958, .T. ) ;
#837 = LINE ( 'NONE', #11, #981 ) ;
#838 = CIRCLE ( 'NONE', #450, 1.500000000000001332 ) ;
#839 = EDGE_CURVE ( 'NONE', #661, #424, #520, .T. ) ;
#840 = PRESENTATION_STYLE_ASSIGNMENT (( #546 ) ) ;
#841 = VECTOR ( 'NONE', #623, 1000.000000000000000 ) ;
#842 = AXIS2_PLACEMENT_3D ( 'NONE', #780, #98, #332 ) ;
#843 = CARTESIAN_POINT ( 'NONE',  ( 24.12844717968463115, -7.669380188436526247, 0.000000000000000000 ) ) ;
#844 = DIRECTION ( 'NONE',  ( -0.000000000000000000, -0.000000000000000000, -1.000000000000000000 ) ) ;
#845 = CYLINDRICAL_SURFACE ( 'NONE', #552, 1.500000000000001332 ) ;
#846 = CARTESIAN_POINT ( 'NONE',  ( 17.50000000000000000, 5.665837688104247150, 3.000000000000000000 ) ) ;
#847 = EDGE_CURVE ( 'NONE', #799, #690, #59, .T. ) ;
#848 = CARTESIAN_POINT ( 'NONE',  ( -7.331552820224700895, -12.66931631310613859, 0.000000000000000000 ) ) ;
#849 = CARTESIAN_POINT ( 'NONE',  ( -11.68216463570283814, 2.350343297401846332, 3.000000000000000000 ) ) ;
#850 = ORIENTED_EDGE ( 'NONE', *, *, #796, .T. ) ;
#851 = CIRCLE ( 'NONE', #900, 1.500000000000001332 ) ;
#852 = DIRECTION ( 'NONE',  ( 0.000000000000000000, 0.000000000000000000, -1.000000000000000000 ) ) ;
#853 = EDGE_CURVE ( 'NONE', #109, #652, #208, .T. ) ;
#854 = CARTESIAN_POINT ( 'NONE',  ( -7.500000000000000000, 0.000000000000000000, 0.000000000000000000 ) ) ;
#855 = ORIENTED_EDGE ( 'NONE', *, *, #812, .T. ) ;
#856 = CARTESIAN_POINT ( 'NONE',  ( 25.62844717968463470, -7.669380188436526247, 3.000000000000000000 ) ) ;
#857 = ORIENTED_EDGE ( 'NONE', *, *, #243, .F. ) ;
#858 = ORIENTED_EDGE ( 'NONE', *, *, #37, .F. ) ;
#859 = LINE ( 'NONE', #351, #252 ) ;
#860 = EDGE_LOOP ( 'NONE', ( #209, #676, #724, #836 ) ) ;
#861 = LINE ( 'NONE', #185, #334 ) ;
#862 = AXIS2_PLACEMENT_3D ( 'NONE', #378, #301, #533 ) ;
#863 = EDGE_CURVE ( 'NONE', #690, #342, #926, .T. ) ;
#864 = ORIENTED_EDGE ( 'NONE', *, *, #620, .T. ) ;
#865 = CIRCLE ( 'NONE', #697, 1.500000000000001332 ) ;
#866 = DIRECTION ( 'NONE',  ( -0.000000000000000000, -0.000000000000000000, -1.000000000000000000 ) ) ;
#867 = VECTOR ( 'NONE', #970, 1000.000000000000000 ) ;
#868 = CARTESIAN_POINT ( 'NONE',  ( 12.15844717968458966, -12.66938018843655200, 3.000000000000000000 ) ) ;
#869 = ORIENTED_EDGE ( 'NONE', *, *, #847, .T. ) ;
#870 = DIRECTION ( 'NONE',  ( -1.000000000000000000, 0.000000000000000000, 0.000000000000000000 ) ) ;
#871 = ORIENTED_EDGE ( 'NONE', *, *, #579, .F. ) ;
#872 = CARTESIAN_POINT ( 'NONE',  ( 27.12844717968463470, -17.66938018843652358, 3.000000000000000000 ) ) ;
#873 = APPLICATION_CONTEXT ( 'automotive_design' ) ;
#874 = VERTEX_POINT ( 'NONE', #6 ) ;
#875 = DIRECTION ( 'NONE',  ( 0.000000000000000000, -1.000000000000000000, 0.000000000000000000 ) ) ;
#876 = VERTEX_POINT ( 'NONE', #564 ) ;
#877 = EDGE_CURVE ( 'NONE', #146, #690, #927, .T. ) ;
#878 = LINE ( 'NONE', #275, #489 ) ;
#879 = EDGE_LOOP ( 'NONE', ( #751, #479, #172, #158 ) ) ;
#880 = DIRECTION ( 'NONE',  ( -1.000000000000000000, -4.336808689942017243E-16, 0.000000000000000000 ) ) ;
#881 = DIRECTION ( 'NONE',  ( 1.239088197126290817E-16, -1.000000000000000000, 0.000000000000000000 ) ) ;
#882 = FACE_OUTER_BOUND ( 'NONE', #961, .T. ) ;
#883 = AXIS2_PLACEMENT_3D ( 'NONE', #258, #341, #644 ) ;
#884 = ORIENTED_EDGE ( 'NONE', *, *, #463, .T. ) ;
#885 = CARTESIAN_POINT ( 'NONE',  ( 6.138048172324436891, -12.66938018843655200, 0.000000000000000000 ) ) ;
#886 = UNCERTAINTY_MEASURE_WITH_UNIT (LENGTH_MEASURE( 1.000000000000000082E-05 ), #957, 'distance_accuracy_value', 'NONE');
#887 = FACE_BOUND ( 'NONE', #190, .T. ) ;
#888 = DIRECTION ( 'NONE',  ( -0.4851462237387870191, -0.8744330400848282503, 0.000000000000000000 ) ) ;
#889 = EDGE_LOOP ( 'NONE', ( #741, #754, #711, #494 ) ) ;
#890 = CARTESIAN_POINT ( 'NONE',  ( -17.50000000000000000, 5.665837688104242709, 3.000000000000000000 ) ) ;
#891 = EDGE_CURVE ( 'NONE', #31, #526, #415, .T. ) ;
#892 = CARTESIAN_POINT ( 'NONE',  ( 12.15844717968458966, -12.66938018843655200, 0.000000000000000000 ) ) ;
#893 = DIRECTION ( 'NONE',  ( -1.000000000000000000, 0.000000000000000000, 0.000000000000000000 ) ) ;
#894 = EDGE_LOOP ( 'NONE', ( #864, #794 ) ) ;
#895 = DIRECTION ( 'NONE',  ( 0.000000000000000000, 0.000000000000000000, -1.000000000000000000 ) ) ;
#896 = EDGE_CURVE ( 'NONE', #652, #717, #288, .T. ) ;
#897 = DIRECTION ( 'NONE',  ( 0.000000000000000000, 0.000000000000000000, -1.000000000000000000 ) ) ;
#898 = ORIENTED_EDGE ( 'NONE', *, *, #70, .F. ) ;
#899 = CARTESIAN_POINT ( 'NONE',  ( -24.87155282031536885, -7.669380188436541346, 3.000000000000000000 ) ) ;
#900 = AXIS2_PLACEMENT_3D ( 'NONE', #22, #338, #558 ) ;
#901 = ADVANCED_FACE ( 'NONE', ( #297 ), #319, .F. ) ;
#902 = LINE ( 'NONE', #824, #772 ) ;
#903 = ORIENTED_EDGE ( 'NONE', *, *, #706, .F. ) ;
#904 = DIRECTION ( 'NONE',  ( -1.239088197126290817E-16, 1.000000000000000000, 0.000000000000000000 ) ) ;
#905 = EDGE_LOOP ( 'NONE', ( #984, #850 ) ) ;
#906 = DIRECTION ( 'NONE',  ( 0.000000000000000000, 0.000000000000000000, -1.000000000000000000 ) ) ;
#907 = EDGE_CURVE ( 'NONE', #825, #685, #851, .T. ) ;
#908 = EDGE_LOOP ( 'NONE', ( #259, #224 ) ) ;
#909 = FACE_OUTER_BOUND ( 'NONE', #991, .T. ) ;
#910 = DIRECTION ( 'NONE',  ( -1.000000000000000000, 0.000000000000000000, 0.000000000000000000 ) ) ;
#911 = DIRECTION ( 'NONE',  ( -0.000000000000000000, -0.000000000000000000, -1.000000000000000000 ) ) ;
#912 = CARTESIAN_POINT ( 'NONE',  ( -24.87155282031536174, -17.66938018843654135, 0.000000000000000000 ) ) ;
#913 = AXIS2_PLACEMENT_3D ( 'NONE', #281, #417, #962 ) ;
#914 = AXIS2_PLACEMENT_3D ( 'NONE', #308, #598, #389 ) ;
#915 = DIRECTION ( 'NONE',  ( 0.000000000000000000, 0.000000000000000000, 1.000000000000000000 ) ) ;
#916 = VECTOR ( 'NONE', #656, 1000.000000000000114 ) ;
#917 = AXIS2_PLACEMENT_3D ( 'NONE', #9, #621, #328 ) ;
#918 = CARTESIAN_POINT ( 'NONE',  ( 27.12844717968463470, -17.66938018843652358, 3.000000000000000000 ) ) ;
#919 = EDGE_CURVE ( 'NONE', #411, #278, #371, .T. ) ;
#920 = FACE_BOUND ( 'NONE', #705, .T. ) ;
#921 = CYLINDRICAL_SURFACE ( 'NONE', #447, 1.499999999999999556 ) ;
#922 = VECTOR ( 'NONE', #81, 1000.000000000000000 ) ;
#923 = EDGE_LOOP ( 'NONE', ( #727, #855, #835, #33 ) ) ;
#924 = DIRECTION ( 'NONE',  ( -1.000000000000000000, 0.000000000000000000, 0.000000000000000000 ) ) ;
#925 = CARTESIAN_POINT ( 'NONE',  ( -30.00000000000000000, -1.269316313106120919, 0.000000000000000000 ) ) ;
#926 = LINE ( 'NONE', #695, #595 ) ;
#927 = LINE ( 'NONE', #549, #792 ) ;
#928 = ORIENTED_EDGE ( 'NONE', *, *, #452, .F. ) ;
#929 = CIRCLE ( 'NONE', #203, 1.500000000000001332 ) ;
#930 = CIRCLE ( 'NONE', #106, 1.500000000000001332 ) ;
#931 = AXIS2_PLACEMENT_3D ( 'NONE', #426, #798, #954 ) ;
#932 = EDGE_LOOP ( 'NONE', ( #729, #951 ) ) ;
#933 = CARTESIAN_POINT ( 'NONE',  ( 30.00000000000000000, -1.269316313106113370, 3.000000000000000000 ) ) ;
#934 = CARTESIAN_POINT ( 'NONE',  ( -7.500000000000000000, 0.000000000000000000, 3.000000000000000000 ) ) ;
#935 = DIRECTION ( 'NONE',  ( -1.000000000000000000, 0.000000000000000000, 0.000000000000000000 ) ) ;
#936 = ORIENTED_EDGE ( 'NONE', *, *, #877, .T. ) ;
#937 = CARTESIAN_POINT ( 'NONE',  ( -17.50000000000000000, 5.665837688104242709, 3.000000000000000000 ) ) ;
#938 = CARTESIAN_POINT ( 'NONE',  ( 30.00000000000000355, -29.26931631310611337, 0.000000000000000000 ) ) ;
#939 = EDGE_CURVE ( 'NONE', #825, #764, #306, .T. ) ;
#940 = ORIENTED_EDGE ( 'NONE', *, *, #96, .F. ) ;
#941 = DIRECTION ( 'NONE',  ( -1.000000000000000000, 0.000000000000000000, 0.000000000000000000 ) ) ;
#942 = ORIENTED_EDGE ( 'NONE', *, *, #37, .T. ) ;
#943 = CARTESIAN_POINT ( 'NONE',  ( -7.331552820224700895, -12.66931631310613859, 3.000000000000000000 ) ) ;
#944 = LINE ( 'NONE', #182, #305 ) ;
#945 = VERTEX_POINT ( 'NONE', #113 ) ;
#946 = EDGE_CURVE ( 'NONE', #722, #945, #386, .T. ) ;
#947 = CARTESIAN_POINT ( 'NONE',  ( 27.12844717968463470, -7.669380188436526247, 3.000000000000000000 ) ) ;
#948 = CIRCLE ( 'NONE', #85, 1.500000000000001332 ) ;
#949 = EDGE_CURVE ( 'NONE', #538, #361, #298, .T. ) ;
#950 = VECTOR ( 'NONE', #69, 1000.000000000000000 ) ;
#951 = ORIENTED_EDGE ( 'NONE', *, *, #762, .F. ) ;
#952 = VECTOR ( 'NONE', #79, 1000.000000000000000 ) ;
#953 = COLOUR_RGB ( '',1.000000000000000000, 1.000000000000000000, 1.000000000000000000 ) ;
#954 = DIRECTION ( 'NONE',  ( 0.000000000000000000, -0.000000000000000000, -1.000000000000000000 ) ) ;
#955 = ORIENTED_EDGE ( 'NONE', *, *, #339, .T. ) ;
#956 = FACE_OUTER_BOUND ( 'NONE', #756, .T. ) ;
#957 =( LENGTH_UNIT ( ) NAMED_UNIT ( * ) SI_UNIT ( .MILLI., .METRE. ) );
#958 = EDGE_CURVE ( 'NONE', #73, #707, #967, .T. ) ;
#959 = EDGE_LOOP ( 'NONE', ( #942, #585, #624, #231 ) ) ;
#960 = DIRECTION ( 'NONE',  ( 1.239088197126290817E-16, -1.000000000000000000, 0.000000000000000000 ) ) ;
#961 = EDGE_LOOP ( 'NONE', ( #454, #968, #39, #312 ) ) ;
#962 = DIRECTION ( 'NONE',  ( -1.000000000000000000, 0.000000000000000000, 0.000000000000000000 ) ) ;
#963 = DIRECTION ( 'NONE',  ( -0.000000000000000000, -0.000000000000000000, -1.000000000000000000 ) ) ;
#964 = ORIENTED_EDGE ( 'NONE', *, *, #66, .F. ) ;
#965 = DIRECTION ( 'NONE',  ( -0.000000000000000000, -0.000000000000000000, -1.000000000000000000 ) ) ;
#966 = FACE_BOUND ( 'NONE', #905, .T. ) ;
#967 = CIRCLE ( 'NONE', #237, 3.010000000000024656 ) ;
#968 = ORIENTED_EDGE ( 'NONE', *, *, #394, .F. ) ;
#969 = LINE ( 'NONE', #677, #950 ) ;
#970 = DIRECTION ( 'NONE',  ( -0.000000000000000000, -1.000000000000000000, -0.000000000000000000 ) ) ;
#971 = FACE_BOUND ( 'NONE', #443, .T. ) ;
#972 = ORIENTED_EDGE ( 'NONE', *, *, #762, .T. ) ;
#973 = PLANE ( 'NONE',  #55 ) ;
#974 = EDGE_CURVE ( 'NONE', #532, #601, #477, .T. ) ;
#975 = CARTESIAN_POINT ( 'NONE',  ( 7.500000000000000000, 0.000000000000000000, 3.000000000000000000 ) ) ;
#976 = ORIENTED_EDGE ( 'NONE', *, *, #249, .T. ) ;
#977 = CARTESIAN_POINT ( 'NONE',  ( 25.62844717968463470, -17.66938018843652358, 3.000000000000000000 ) ) ;
#978 = EDGE_CURVE ( 'NONE', #47, #278, #244, .T. ) ;
#979 = CYLINDRICAL_SURFACE ( 'NONE', #107, 3.010000000000024656 ) ;
#980 = ORIENTED_EDGE ( 'NONE', *, *, #659, .T. ) ;
#981 = VECTOR ( 'NONE', #167, 1000.000000000000000 ) ;
#982 =( GEOMETRIC_REPRESENTATION_CONTEXT ( 3 ) GLOBAL_UNCERTAINTY_ASSIGNED_CONTEXT ( ( #886 ) ) GLOBAL_UNIT_ASSIGNED_CONTEXT ( ( #957, #807, #442 ) ) REPRESENTATION_CONTEXT ( 'NONE', 'WORKASPACE' ) );
#983 = DIRECTION ( 'NONE',  ( -1.000000000000000000, 0.000000000000000000, 0.000000000000000000 ) ) ;
#984 = ORIENTED_EDGE ( 'NONE', *, *, #771, .T. ) ;
#985 = ADVANCED_FACE ( 'NONE', ( #791 ), #420, .F. ) ;
#986 = CARTESIAN_POINT ( 'NONE',  ( -13.35155282022475021, -12.66931631310613859, 3.000000000000000000 ) ) ;
#987 = ORIENTED_EDGE ( 'NONE', *, *, #434, .F. ) ;
#988 = CARTESIAN_POINT ( 'NONE',  ( 7.500000000000000000, 0.000000000000000000, 3.000000000000000000 ) ) ;
#989 = DIRECTION ( 'NONE',  ( -1.000000000000000000, 0.000000000000000000, 0.000000000000000000 ) ) ;
#990 = CARTESIAN_POINT ( 'NONE',  ( 24.12844717968463115, -7.669380188436526247, 3.000000000000000000 ) ) ;
#991 = EDGE_LOOP ( 'NONE', ( #344, #810, #409, #976 ) ) ;
#992 = DIRECTION ( 'NONE',  ( 0.4851462237387871856, -0.8744330400848281393, 0.000000000000000000 ) ) ;
ENDSEC;
END-ISO-10303-21;
