ISO-10303-21;
HEADER;
FILE_DESCRIPTION (( 'STEP AP214' ),
    '1' );
FILE_NAME ('jiazuizhuadou.STEP',
    '2026-07-29T08:24:39',
    ( '' ),
    ( '' ),
    'SwSTEP 2.0',
    'SolidWorks 2020',
    '' );
FILE_SCHEMA (( 'AUTOMOTIVE_DESIGN' ));
ENDSEC;

DATA;
#1 = VECTOR ( 'NONE', #839, 1000.000000000000114 ) ;
#2 = DIRECTION ( 'NONE',  ( 0.9863620457337460845, 0.1645901416730042310, -0.000000000000000000 ) ) ;
#3 = CARTESIAN_POINT ( 'NONE',  ( 103.2604427736006585, -18.12694235588972802, 1.647987302177966740E-14 ) ) ;
#4 = ORIENTED_EDGE ( 'NONE', *, *, #584, .F. ) ;
#5 = VERTEX_POINT ( 'NONE', #1045 ) ;
#6 = DIRECTION ( 'NONE',  ( -0.000000000000000000, -0.000000000000000000, -1.000000000000000000 ) ) ;
#7 = DIRECTION ( 'NONE',  ( 0.4580526612932596109, -0.8889250584172787573, 0.000000000000000000 ) ) ;
#8 = PLANE ( 'NONE',  #330 ) ;
#9 = CARTESIAN_POINT ( 'NONE',  ( 80.94513572520047262, 42.93178670982534584, 2.260235526542376139 ) ) ;
#10 = DIRECTION ( 'NONE',  ( 1.000000000000000000, 0.000000000000000000, -0.000000000000000000 ) ) ;
#11 = VERTEX_POINT ( 'NONE', #784 ) ;
#12 = CARTESIAN_POINT ( 'NONE',  ( 24.56786753708763626, 39.11551291291374355, 3.000000000000016431 ) ) ;
#13 = EDGE_CURVE ( 'NONE', #858, #600, #1029, .T. ) ;
#14 = CARTESIAN_POINT ( 'NONE',  ( 82.10996316746535229, 43.40442473503048859, 110.0000000000000000 ) ) ;
#15 = CIRCLE ( 'NONE', #247, 5.000000000000004441 ) ;
#16 = CARTESIAN_POINT ( 'NONE',  ( 72.33404356309286243, 64.90689142463848782, 110.0000000000000000 ) ) ;
#17 = VERTEX_POINT ( 'NONE', #962 ) ;
#18 = CARTESIAN_POINT ( 'NONE',  ( 21.59779784051958629, 27.44210394604274228, 3.000000000000016431 ) ) ;
#19 = PLANE ( 'NONE',  #37 ) ;
#20 = EDGE_CURVE ( 'NONE', #656, #1076, #1126, .T. ) ;
#21 = EDGE_LOOP ( 'NONE', ( #440, #147, #432 ) ) ;
#22 = LINE ( 'NONE', #367, #716 ) ;
#23 = DIRECTION ( 'NONE',  ( 0.000000000000000000, 0.000000000000000000, 1.000000000000000000 ) ) ;
#24 = EDGE_CURVE ( 'NONE', #507, #108, #879, .T. ) ;
#25 = VERTEX_POINT ( 'NONE', #164 ) ;
#26 = DIRECTION ( 'NONE',  ( 0.3283531690704394879, -0.9445550255868629952, 0.000000000000000000 ) ) ;
#27 = CARTESIAN_POINT ( 'NONE',  ( 94.33869953922472007, -20.72415498685506563, -19.18336509014821445 ) ) ;
#28 = CARTESIAN_POINT ( 'NONE',  ( 81.20438846801769728, 43.03277109349306784, 108.0178191048277512 ) ) ;
#29 = PRODUCT_DEFINITION ( '未知', '', #951, #1025 ) ;
#30 = DIRECTION ( 'NONE',  ( 0.000000000000000000, 0.000000000000000000, 1.000000000000000000 ) ) ;
#31 = ORIENTED_EDGE ( 'NONE', *, *, #785, .T. ) ;
#32 = ADVANCED_FACE ( 'NONE', ( #255 ), #431, .T. ) ;
#33 = CARTESIAN_POINT ( 'NONE',  ( 68.23955059720827876, 85.55186188631924438, 107.0000000000000000 ) ) ;
#34 = DIRECTION ( 'NONE',  ( -0.3420201433256628287, -0.9396926207859104263, 0.000000000000000000 ) ) ;
#35 = CIRCLE ( 'NONE', #1081, 109.4338034517890321 ) ;
#36 = ORIENTED_EDGE ( 'NONE', *, *, #707, .F. ) ;
#37 = AXIS2_PLACEMENT_3D ( 'NONE', #724, #278, #959 ) ;
#38 = CARTESIAN_POINT ( 'NONE',  ( 103.6131132015512577, -19.17657206310131102, 113.0000000000000000 ) ) ;
#39 = AXIS2_PLACEMENT_3D ( 'NONE', #41, #125, #836 ) ;
#40 = CARTESIAN_POINT ( 'NONE',  ( 21.59779784051958984, 27.44210394604274228, 110.0000000000000000 ) ) ;
#41 = CARTESIAN_POINT ( 'NONE',  ( 24.56786753708763626, 39.11551291291374355, -1.371604415045033344E-15 ) ) ;
#42 = ORIENTED_EDGE ( 'NONE', *, *, #115, .F. ) ;
#43 = CYLINDRICAL_SURFACE ( 'NONE', #105, 1.499999999999990896 ) ;
#44 = ADVANCED_FACE ( 'NONE', ( #619 ), #613, .T. ) ;
#45 = LINE ( 'NONE', #820, #1032 ) ;
#46 = CARTESIAN_POINT ( 'NONE',  ( 103.2604427736006869, -18.12694235588971381, 0.4998457320886738331 ) ) ;
#47 = CARTESIAN_POINT ( 'NONE',  ( 81.89047047221153264, 43.31172801060416333, 113.0000000000000000 ) ) ;
#48 = VERTEX_POINT ( 'NONE', #426 ) ;
#49 = CARTESIAN_POINT ( 'NONE',  ( 20.09779784051960405, 27.44210394604274228, 107.0000000000000000 ) ) ;
#50 = PRESENTATION_STYLE_ASSIGNMENT (( #760 ) ) ;
#51 = CARTESIAN_POINT ( 'NONE',  ( 77.88767296843960253, 54.81977083394850325, 1.647987302177966740E-14 ) ) ;
#52 = FACE_BOUND ( 'NONE', #1046, .T. ) ;
#53 = FACE_OUTER_BOUND ( 'NONE', #407, .T. ) ;
#54 = ADVANCED_FACE ( 'NONE', ( #717 ), #1062, .F. ) ;
#55 = VERTEX_POINT ( 'NONE', #84 ) ;
#56 = VERTEX_POINT ( 'NONE', #974 ) ;
#57 = VECTOR ( 'NONE', #410, 1000.000000000000000 ) ;
#58 = CARTESIAN_POINT ( 'NONE',  ( 48.04365848832858887, 49.68656181841879516, 107.0000000000000000 ) ) ;
#59 = CARTESIAN_POINT ( 'NONE',  ( 103.2604427736006585, -18.12694235588972802, 1.734723475976807094E-14 ) ) ;
#60 = CARTESIAN_POINT ( 'NONE',  ( 97.75698220773774949, -16.70700446927740757, 37.66666666666667140 ) ) ;
#61 = AXIS2_PLACEMENT_3D ( 'NONE', #632, #6, #171 ) ;
#62 = VERTEX_POINT ( 'NONE', #438 ) ;
#63 = VERTEX_POINT ( 'NONE', #791 ) ;
#64 = LINE ( 'NONE', #406, #782 ) ;
#65 = SHAPE_DEFINITION_REPRESENTATION ( #692, #345 ) ;
#66 = ORIENTED_EDGE ( 'NONE', *, *, #685, .F. ) ;
#67 = AXIS2_PLACEMENT_3D ( 'NONE', #875, #347, #709 ) ;
#68 = ORIENTED_EDGE ( 'NONE', *, *, #152, .F. ) ;
#69 = EDGE_CURVE ( 'NONE', #603, #888, #1066, .T. ) ;
#70 = ORIENTED_EDGE ( 'NONE', *, *, #526, .F. ) ;
#71 = VERTEX_POINT ( 'NONE', #711 ) ;
#72 =( NAMED_UNIT ( * ) SI_UNIT ( $, .STERADIAN. ) SOLID_ANGLE_UNIT ( ) );
#73 = DIRECTION ( 'NONE',  ( -0.000000000000000000, -0.000000000000000000, -1.000000000000000000 ) ) ;
#74 = CARTESIAN_POINT ( 'NONE',  ( 103.2604427736006585, -18.12694235588972802, 110.0000000000000000 ) ) ;
#75 = ORIENTED_EDGE ( 'NONE', *, *, #424, .F. ) ;
#76 = CARTESIAN_POINT ( 'NONE',  ( 79.45310740072137889, 42.39312029322835684, 107.0000000000000142 ) ) ;
#77 = CARTESIAN_POINT ( 'NONE',  ( 79.81223765692398331, 42.51724135396440829, 2.904448984645652931 ) ) ;
#78 = CARTESIAN_POINT ( 'NONE',  ( 99.52716197701494139, -16.52560681212014160, 3.000000000000016431 ) ) ;
#79 = CIRCLE ( 'NONE', #899, 1.499999999999990896 ) ;
#80 = ORIENTED_EDGE ( 'NONE', *, *, #729, .T. ) ;
#81 = CARTESIAN_POINT ( 'NONE',  ( 3.564517285038907968, 1.022017551410872249, 3.000000000000016431 ) ) ;
#82 = CARTESIAN_POINT ( 'NONE',  ( 68.23955059720827876, 85.55186188631924438, 3.000000000000016431 ) ) ;
#83 = DIRECTION ( 'NONE',  ( -0.9396926207859105373, 0.3420201433256628842, 0.000000000000000000 ) ) ;
#84 = CARTESIAN_POINT ( 'NONE',  ( 0.000000000000000000, 0.000000000000000000, 1.647987302177966740E-14 ) ) ;
#85 = EDGE_CURVE ( 'NONE', #605, #386, #980, .T. ) ;
#86 = ORIENTED_EDGE ( 'NONE', *, *, #1002, .F. ) ;
#87 = PRESENTATION_LAYER_ASSIGNMENT (  '', '', ( #589 ) ) ;
#88 = CARTESIAN_POINT ( 'NONE',  ( 68.77673899611184538, 37.72086000238967785, 3.000000000000015987 ) ) ;
#89 = LINE ( 'NONE', #365, #394 ) ;
#90 = AXIS2_PLACEMENT_3D ( 'NONE', #468, #436, #1089 ) ;
#91 = AXIS2_PLACEMENT_3D ( 'NONE', #493, #149, #313 ) ;
#92 = FACE_OUTER_BOUND ( 'NONE', #794, .T. ) ;
#93 =( GEOMETRIC_REPRESENTATION_CONTEXT ( 3 ) GLOBAL_UNCERTAINTY_ASSIGNED_CONTEXT ( ( #981 ) ) GLOBAL_UNIT_ASSIGNED_CONTEXT ( ( #400, #215, #384 ) ) REPRESENTATION_CONTEXT ( 'NONE', 'WORKASPACE' ) );
#94 = VERTEX_POINT ( 'NONE', #541 ) ;
#95 = VECTOR ( 'NONE', #798, 1000.000000000000000 ) ;
#96 = ADVANCED_FACE ( 'NONE', ( #895, #102, #455 ), #805, .T. ) ;
#97 = CARTESIAN_POINT ( 'NONE',  ( 81.89047047221153264, 43.31172801060416333, 113.0000000000000000 ) ) ;
#98 = CARTESIAN_POINT ( 'NONE',  ( 68.77670452070445606, 37.72066466043384025, 109.9999999999999858 ) ) ;
#99 = AXIS2_PLACEMENT_3D ( 'NONE', #672, #1020, #1015 ) ;
#100 =( GEOMETRIC_REPRESENTATION_CONTEXT ( 3 ) GLOBAL_UNCERTAINTY_ASSIGNED_CONTEXT ( ( #414 ) ) GLOBAL_UNIT_ASSIGNED_CONTEXT ( ( #560, #482, #392 ) ) REPRESENTATION_CONTEXT ( 'NONE', 'WORKASPACE' ) );
#101 = CARTESIAN_POINT ( 'NONE',  ( 79.07595880566000801, 42.27160230552533449, 3.000000000000016431 ) ) ;
#102 = FACE_BOUND ( 'NONE', #769, .T. ) ;
#103 = ORIENTED_EDGE ( 'NONE', *, *, #152, .T. ) ;
#104 = CARTESIAN_POINT ( 'NONE',  ( 68.77673899611184538, 37.72086000238967785, 1.605124501849061333E-16 ) ) ;
#105 = AXIS2_PLACEMENT_3D ( 'NONE', #296, #197, #132 ) ;
#106 = ADVANCED_FACE ( 'NONE', ( #107 ), #987, .T. ) ;
#107 = FACE_OUTER_BOUND ( 'NONE', #867, .T. ) ;
#108 = VERTEX_POINT ( 'NONE', #190 ) ;
#109 = CARTESIAN_POINT ( 'NONE',  ( 81.89047047221153264, 43.31172801060416333, -3.000000000000000000 ) ) ;
#110 = LINE ( 'NONE', #909, #687 ) ;
#111 = ADVANCED_FACE ( 'NONE', ( #1068 ), #165, .F. ) ;
#112 = ORIENTED_EDGE ( 'NONE', *, *, #694, .T. ) ;
#113 = CARTESIAN_POINT ( 'NONE',  ( 103.2604427736006585, -18.12694235588972802, 110.0000000000000000 ) ) ;
#114 = CARTESIAN_POINT ( 'NONE',  ( 81.74880181507481325, 43.25273070836763623, 109.0334204017087245 ) ) ;
#115 = EDGE_CURVE ( 'NONE', #751, #815, #387, .T. ) ;
#116 = ORIENTED_EDGE ( 'NONE', *, *, #869, .F. ) ;
#117 = CARTESIAN_POINT ( 'NONE',  ( 77.88767296843960253, 54.81977083394850325, 3.000000000000016431 ) ) ;
#118 = FACE_BOUND ( 'NONE', #690, .T. ) ;
#119 = FACE_OUTER_BOUND ( 'NONE', #1092, .T. ) ;
#120 = ORIENTED_EDGE ( 'NONE', *, *, #973, .F. ) ;
#121 = ORIENTED_EDGE ( 'NONE', *, *, #844, .F. ) ;
#122 = CARTESIAN_POINT ( 'NONE',  ( 23.06786753708764692, 39.11551291291374355, 110.0000000000000000 ) ) ;
#123 = CARTESIAN_POINT ( 'NONE',  ( 48.04365848832858887, 49.68656181841879516, 1.647987302177966740E-14 ) ) ;
#124 = PLANE ( 'NONE',  #824 ) ;
#125 = DIRECTION ( 'NONE',  ( -0.000000000000000000, -0.000000000000000000, -1.000000000000000000 ) ) ;
#126 = ORIENTED_EDGE ( 'NONE', *, *, #542, .F. ) ;
#127 = VECTOR ( 'NONE', #965, 1000.000000000000000 ) ;
#128 = CARTESIAN_POINT ( 'NONE',  ( 0.000000000000000000, 0.000000000000000000, 107.0000000000000000 ) ) ;
#129 = CARTESIAN_POINT ( 'NONE',  ( 3.564517285038907968, 1.022017551410872249, 3.000000000000016431 ) ) ;
#130 = DIRECTION ( 'NONE',  ( -0.2795077791381950783, 0.9601434275155112941, 0.000000000000000000 ) ) ;
#131 = EDGE_LOOP ( 'NONE', ( #764, #263, #697, #409 ) ) ;
#132 = DIRECTION ( 'NONE',  ( -1.000000000000000000, 0.000000000000000000, 0.000000000000000000 ) ) ;
#133 = CARTESIAN_POINT ( 'NONE',  ( 99.52716197701494139, -16.52560681212014160, 107.0000000000000000 ) ) ;
#134 = CARTESIAN_POINT ( 'NONE',  ( 0.000000000000000000, 0.000000000000000000, 110.0000000000000000 ) ) ;
#135 = LINE ( 'NONE', #583, #380 ) ;
#136 = COLOUR_RGB ( '',0.7921568627450980005, 0.8196078431372548767, 0.9333333333333333481 ) ;
#137 = EDGE_CURVE ( 'NONE', #858, #470, #458, .T. ) ;
#138 = CARTESIAN_POINT ( 'NONE',  ( 102.0367340084820142, -17.42158213085207308, 107.8207547937495434 ) ) ;
#139 = ORIENTED_EDGE ( 'NONE', *, *, #343, .F. ) ;
#140 = EDGE_LOOP ( 'NONE', ( #286, #636, #155, #1128 ) ) ;
#141 = CARTESIAN_POINT ( 'NONE',  ( 16.08362433661927327, 44.18939468785314517, 1.647987302177966740E-14 ) ) ;
#142 = FACE_OUTER_BOUND ( 'NONE', #734, .T. ) ;
#143 = EDGE_CURVE ( 'NONE', #56, #243, #295, .T. ) ;
#144 =( BOUNDED_CURVE ( )  B_SPLINE_CURVE ( 3, ( #519, #985, #452, #1065 ),
 .UNSPECIFIED., .F., .F. ) 
 B_SPLINE_CURVE_WITH_KNOTS ( ( 4, 4 ),
 ( 3.389784888793770268, 4.657763081817980044 ),
 .UNSPECIFIED. ) 
 CURVE ( )  GEOMETRIC_REPRESENTATION_ITEM ( )  RATIONAL_B_SPLINE_CURVE ( ( 1.000000000000000000, 0.8704472868185169077, 0.8704472868185169077, 1.000000000000000000 ) ) 
 REPRESENTATION_ITEM ( '' )  );
#145 = VECTOR ( 'NONE', #865, 1000.000000000000114 ) ;
#146 = ORIENTED_EDGE ( 'NONE', *, *, #491, .F. ) ;
#147 = ORIENTED_EDGE ( 'NONE', *, *, #765, .T. ) ;
#148 = AXIS2_PLACEMENT_3D ( 'NONE', #826, #484, #471 ) ;
#149 = DIRECTION ( 'NONE',  ( -0.000000000000000000, 0.000000000000000000, -1.000000000000000000 ) ) ;
#150 = SURFACE_SIDE_STYLE ('',( #850 ) ) ;
#151 = VERTEX_POINT ( 'NONE', #18 ) ;
#152 = EDGE_CURVE ( 'NONE', #151, #807, #808, .T. ) ;
#153 = ORIENTED_EDGE ( 'NONE', *, *, #642, .F. ) ;
#154 = CARTESIAN_POINT ( 'NONE',  ( 99.52716197701494139, -16.52560681212014160, 107.0000000000000000 ) ) ;
#155 = ORIENTED_EDGE ( 'NONE', *, *, #986, .F. ) ;
#156 = VECTOR ( 'NONE', #575, 1000.000000000000114 ) ;
#157 = ORIENTED_EDGE ( 'NONE', *, *, #664, .T. ) ;
#158 = FACE_OUTER_BOUND ( 'NONE', #1077, .T. ) ;
#159 = CARTESIAN_POINT ( 'NONE',  ( 101.3446669690934812, -17.01849391472494233, 2.569104249523836536 ) ) ;
#160 = ORIENTED_EDGE ( 'NONE', *, *, #642, .T. ) ;
#161 = CARTESIAN_POINT ( 'NONE',  ( 68.77670452070445606, 37.72066466043384025, 107.0000000000000000 ) ) ;
#162 = DIRECTION ( 'NONE',  ( -0.000000000000000000, -0.000000000000000000, -1.000000000000000000 ) ) ;
#163 = CARTESIAN_POINT ( 'NONE',  ( 0.000000000000000000, 0.000000000000000000, -3.000000000000000000 ) ) ;
#164 = CARTESIAN_POINT ( 'NONE',  ( 103.6131132015512577, -19.17657206310130391, 8.673617379884035472E-15 ) ) ;
#165 =( BOUNDED_SURFACE ( )  B_SPLINE_SURFACE ( 3, 1, ( 
 ( #898, #880 ),
 ( #723, #1064 ),
 ( #104, #88 ),
 ( #444, #795 ) ),
 .UNSPECIFIED., .F., .F., .F. ) 
 B_SPLINE_SURFACE_WITH_KNOTS ( ( 4, 4 ),
 ( 2, 2 ),
 ( 0.000000000000000000, 1.000000000000000000 ),
 ( 0.000000000000000000, 1.000000000000000000 ),
 .UNSPECIFIED. ) 
 GEOMETRIC_REPRESENTATION_ITEM ( )  RATIONAL_B_SPLINE_SURFACE ( (
 ( 1.000000000000000000, 1.000000000000000000),
 ( 0.8475308478065664008, 0.8475308478065664008),
 ( 0.8475308478065664008, 0.8475308478065664008),
 ( 1.000000000000000000, 1.000000000000000000) ) ) 
 REPRESENTATION_ITEM ( '' )  SURFACE ( )  );
#166 = DIRECTION ( 'NONE',  ( -0.1645901416730049249, 0.9863620457337458625, 0.000000000000000000 ) ) ;
#167 = EDGE_CURVE ( 'NONE', #71, #555, #277, .T. ) ;
#168 = FACE_BOUND ( 'NONE', #483, .T. ) ;
#169 = DIRECTION ( 'NONE',  ( 0.9445550255868629952, 0.3283531690704395989, 0.000000000000000000 ) ) ;
#170 = ORIENTED_EDGE ( 'NONE', *, *, #137, .F. ) ;
#171 = DIRECTION ( 'NONE',  ( -1.000000000000000000, 0.000000000000000000, 0.000000000000000000 ) ) ;
#172 = DIRECTION ( 'NONE',  ( 0.9863620457337458625, 0.1645901416730049249, 0.000000000000000000 ) ) ;
#173 = CARTESIAN_POINT ( 'NONE',  ( 68.23955059720827876, 85.55186188631924438, 107.0000000000000000 ) ) ;
#174 = ADVANCED_FACE ( 'NONE', ( #352 ), #990, .F. ) ;
#175 = CARTESIAN_POINT ( 'NONE',  ( 81.81693265874123711, 43.28071658151993262, 0.7899461426728914271 ) ) ;
#176 = CARTESIAN_POINT ( 'NONE',  ( 48.04365848832858887, 49.68656181841879516, 1.647987302177966740E-14 ) ) ;
#177 = EDGE_LOOP ( 'NONE', ( #587, #1013, #401, #736 ) ) ;
#178 = VECTOR ( 'NONE', #314, 1000.000000000000000 ) ;
#179 = CARTESIAN_POINT ( 'NONE',  ( 113.2604427736006585, -17.56676220890260254, 1.734723475976807094E-14 ) ) ;
#180 = DIRECTION ( 'NONE',  ( -1.000000000000000000, 0.000000000000000000, 0.000000000000000000 ) ) ;
#181 = CIRCLE ( 'NONE', #943, 106.4338034517890463 ) ;
#182 = ADVANCED_FACE ( 'NONE', ( #358 ), #712, .T. ) ;
#183 = CARTESIAN_POINT ( 'NONE',  ( 24.56786753708763626, 39.11551291291374355, 0.000000000000000000 ) ) ;
#184 = PRESENTATION_LAYER_ASSIGNMENT (  '', '', ( #689 ) ) ;
#185 = CARTESIAN_POINT ( 'NONE',  ( 100.2299392967432254, -16.61805043097609058, 2.947200923199245093 ) ) ;
#186 = ORIENTED_EDGE ( 'NONE', *, *, #561, .T. ) ;
#187 = EDGE_CURVE ( 'NONE', #993, #108, #528, .T. ) ;
#188 = DIRECTION ( 'NONE',  ( -1.000000000000000000, 0.000000000000000000, 0.000000000000000000 ) ) ;
#189 = CARTESIAN_POINT ( 'NONE',  ( 113.2604427736006585, -17.56676220890260254, 113.0000000000000000 ) ) ;
#190 = CARTESIAN_POINT ( 'NONE',  ( 103.2604427736006585, -18.12694235588972802, 110.0000000000000000 ) ) ;
#191 = AXIS2_PLACEMENT_3D ( 'NONE', #856, #955, #1113 ) ;
#192 = ORIENTED_EDGE ( 'NONE', *, *, #408, .T. ) ;
#193 = EDGE_CURVE ( 'NONE', #941, #56, #22, .T. ) ;
#194 = CARTESIAN_POINT ( 'NONE',  ( 102.9146092772667060, -18.22761809843168734, 3.000000000000016431 ) ) ;
#195 = CYLINDRICAL_SURFACE ( 'NONE', #292, 1.499999999999990896 ) ;
#196 = VERTEX_POINT ( 'NONE', #283 ) ;
#197 = DIRECTION ( 'NONE',  ( -0.000000000000000000, -0.000000000000000000, -1.000000000000000000 ) ) ;
#198 = DIRECTION ( 'NONE',  ( -0.000000000000000000, -0.000000000000000000, -1.000000000000000000 ) ) ;
#199 = ADVANCED_FACE ( 'NONE', ( #963 ), #264, .F. ) ;
#200 = AXIS2_PLACEMENT_3D ( 'NONE', #1011, #198, #661 ) ;
#201 = APPLICATION_CONTEXT ( 'automotive_design' ) ;
#202 = EDGE_LOOP ( 'NONE', ( #294, #502, #957, #862 ) ) ;
#203 = CYLINDRICAL_SURFACE ( 'NONE', #1085, 109.4338034517890321 ) ;
#204 = DIRECTION ( 'NONE',  ( -0.4580526612932596109, 0.8889250584172787573, -0.000000000000000000 ) ) ;
#205 = CARTESIAN_POINT ( 'NONE',  ( 64.47714280531096165, 84.24319830652888186, 1.647987302177966740E-14 ) ) ;
#206 = ORIENTED_EDGE ( 'NONE', *, *, #360, .T. ) ;
#207 = VERTEX_POINT ( 'NONE', #81 ) ;
#208 = CARTESIAN_POINT ( 'NONE',  ( 99.14363901475020668, -21.51087612655197390, 107.0000000000000000 ) ) ;
#209 = ORIENTED_EDGE ( 'NONE', *, *, #845, .T. ) ;
#210 = ORIENTED_EDGE ( 'NONE', *, *, #1133, .T. ) ;
#211 = CARTESIAN_POINT ( 'NONE',  ( 24.56786753708763626, 39.11551291291374355, 107.0000000000000000 ) ) ;
#212 = SURFACE_SIDE_STYLE ('',( #666 ) ) ;
#213 = CARTESIAN_POINT ( 'NONE',  ( 68.23955059720827876, 85.55186188631924438, 3.000000000000016431 ) ) ;
#214 = CARTESIAN_POINT ( 'NONE',  ( 18.59779784051961471, 27.44210394604274228, 110.0000000000000000 ) ) ;
#215 =( NAMED_UNIT ( * ) PLANE_ANGLE_UNIT ( ) SI_UNIT ( $, .RADIAN. ) );
#216 = EDGE_LOOP ( 'NONE', ( #770, #1070, #650, #781, #66 ) ) ;
#217 = EDGE_CURVE ( 'NONE', #25, #1067, #976, .T. ) ;
#218 = CARTESIAN_POINT ( 'NONE',  ( 81.89047047221153264, 43.31172801060416333, 113.0000000000000000 ) ) ;
#219 = CARTESIAN_POINT ( 'NONE',  ( 99.14363901475020668, -21.51087612655197390, 3.000000000000016431 ) ) ;
#220 = CARTESIAN_POINT ( 'NONE',  ( 103.6131132015512577, -19.17657206310131102, 110.0000000000000000 ) ) ;
#221 = CYLINDRICAL_SURFACE ( 'NONE', #1118, 1.499999999999990896 ) ;
#222 = DIRECTION ( 'NONE',  ( -1.000000000000000000, 0.000000000000000000, 0.000000000000000000 ) ) ;
#223 = EDGE_LOOP ( 'NONE', ( #68, #551, #465, #767 ) ) ;
#224 = VERTEX_POINT ( 'NONE', #719 ) ;
#225 = CARTESIAN_POINT ( 'NONE',  ( 26.06786753708762205, 39.11551291291374355, 110.0000000000000000 ) ) ;
#226 = ADVANCED_FACE ( 'NONE', ( #892 ), #1053, .F. ) ;
#227 = CARTESIAN_POINT ( 'NONE',  ( 16.08362433661927327, 44.18939468785314517, 110.0000000000000000 ) ) ;
#228 = APPLICATION_PROTOCOL_DEFINITION ( 'draft international standard', 'automotive_design', 1998, #515 ) ;
#229 = ORIENTED_EDGE ( 'NONE', *, *, #964, .T. ) ;
#230 = ORIENTED_EDGE ( 'NONE', *, *, #729, .F. ) ;
#231 = DIRECTION ( 'NONE',  ( 0.3420201433256628287, 0.9396926207859105373, -0.000000000000000000 ) ) ;
#232 = CARTESIAN_POINT ( 'NONE',  ( 102.9146092772666918, -18.22761809843168024, 108.5756113920024291 ) ) ;
#233 = ADVANCED_FACE ( 'NONE', ( #450 ), #969, .F. ) ;
#234 = VECTOR ( 'NONE', #1022, 1000.000000000000000 ) ;
#235 = ORIENTED_EDGE ( 'NONE', *, *, #187, .F. ) ;
#236 = CIRCLE ( 'NONE', #886, 1.499999999999987566 ) ;
#237 = AXIS2_PLACEMENT_3D ( 'NONE', #287, #389, #643 ) ;
#238 = COLOUR_RGB ( '',0.7921568627450980005, 0.8196078431372548767, 0.9333333333333333481 ) ;
#239 = DIRECTION ( 'NONE',  ( 0.4580526612932596664, -0.8889250584172787573, 0.000000000000000000 ) ) ;
#240 = AXIS2_PLACEMENT_3D ( 'NONE', #16, #362, #721 ) ;
#241 = EDGE_CURVE ( 'NONE', #751, #497, #544, .T. ) ;
#242 = ORIENTED_EDGE ( 'NONE', *, *, #604, .T. ) ;
#243 = VERTEX_POINT ( 'NONE', #402 ) ;
#244 = MECHANICAL_DESIGN_GEOMETRIC_PRESENTATION_REPRESENTATION (  '', ( #689 ), #100 ) ;
#245 = AXIS2_PLACEMENT_3D ( 'NONE', #577, #942, #930 ) ;
#246 = ORIENTED_EDGE ( 'NONE', *, *, #268, .F. ) ;
#247 = AXIS2_PLACEMENT_3D ( 'NONE', #208, #372, #923 ) ;
#248 = ORIENTED_EDGE ( 'NONE', *, *, #845, .F. ) ;
#249 = DIRECTION ( 'NONE',  ( 0.000000000000000000, 0.000000000000000000, 1.000000000000000000 ) ) ;
#250 = DIRECTION ( 'NONE',  ( 0.000000000000000000, -0.000000000000000000, 1.000000000000000000 ) ) ;
#251 = ORIENTED_EDGE ( 'NONE', *, *, #241, .T. ) ;
#252 = EDGE_CURVE ( 'NONE', #224, #5, #457, .T. ) ;
#253 = CARTESIAN_POINT ( 'NONE',  ( 48.04365848832858887, 49.68656181841879516, 107.0000000000000000 ) ) ;
#254 = CARTESIAN_POINT ( 'NONE',  ( 23.06786753708765048, 39.11551291291374355, 3.000000000000016431 ) ) ;
#255 = FACE_OUTER_BOUND ( 'NONE', #333, .T. ) ;
#256 = EDGE_LOOP ( 'NONE', ( #248, #42 ) ) ;
#257 =( BOUNDED_CURVE ( )  B_SPLINE_CURVE ( 3, ( #662, #674, #46, #398 ),
 .UNSPECIFIED., .F., .T. ) 
 B_SPLINE_CURVE_WITH_KNOTS ( ( 4, 4 ),
 ( 2.646860199019258619, 3.141592653589793116 ),
 .UNSPECIFIED. ) 
 CURVE ( )  GEOMETRIC_REPRESENTATION_ITEM ( )  RATIONAL_B_SPLINE_CURVE ( ( 1.000000000000000000, 0.9797071108005390716, 0.9797071108005390716, 1.000000000000000000 ) ) 
 REPRESENTATION_ITEM ( '' )  );
#258 = DIRECTION ( 'NONE',  ( 0.9445550255868629952, 0.3283531690704395989, -0.000000000000000000 ) ) ;
#259 = CARTESIAN_POINT ( 'NONE',  ( 55.37761015474848136, 40.19157978882878268, 109.9999999999999858 ) ) ;
#260 = FACE_OUTER_BOUND ( 'NONE', #423, .T. ) ;
#261 = LINE ( 'NONE', #618, #145 ) ;
#262 = CARTESIAN_POINT ( 'NONE',  ( 101.7721576880691430, -17.24531900516958061, 2.349539161945243926 ) ) ;
#263 = ORIENTED_EDGE ( 'NONE', *, *, #958, .F. ) ;
#264 = CYLINDRICAL_SURFACE ( 'NONE', #67, 1.499999999999984013 ) ;
#265 = LINE ( 'NONE', #189, #634 ) ;
#266 = CARTESIAN_POINT ( 'NONE',  ( 79.07596521181359606, 42.27158388783376353, 107.0000000000000000 ) ) ;
#267 = CARTESIAN_POINT ( 'NONE',  ( 79.99202593928522731, 42.58014453200304672, 2.846812240220752521 ) ) ;
#268 = EDGE_CURVE ( 'NONE', #108, #470, #332, .T. ) ;
#269 = CARTESIAN_POINT ( 'NONE',  ( 102.0367340084820285, -17.42158213085208374, 2.179245206250466360 ) ) ;
#270 = ORIENTED_EDGE ( 'NONE', *, *, #1115, .F. ) ;
#271 = CARTESIAN_POINT ( 'NONE',  ( 103.2604427736006585, -18.12694235588972802, 107.0000000000000000 ) ) ;
#272 = DIRECTION ( 'NONE',  ( -0.000000000000000000, -0.000000000000000000, -1.000000000000000000 ) ) ;
#273 = VECTOR ( 'NONE', #204, 1000.000000000000000 ) ;
#274 = ORIENTED_EDGE ( 'NONE', *, *, #819, .F. ) ;
#275 = EDGE_CURVE ( 'NONE', #1076, #375, #753, .T. ) ;
#276 = ORIENTED_EDGE ( 'NONE', *, *, #20, .F. ) ;
#277 = LINE ( 'NONE', #109, #852 ) ;
#278 = DIRECTION ( 'NONE',  ( -0.8889250584172787573, -0.4580526612932596664, 0.000000000000000000 ) ) ;
#279 = EDGE_CURVE ( 'NONE', #1056, #418, #15, .T. ) ;
#280 = STYLED_ITEM ( 'NONE', ( #506 ), #652 ) ;
#281 = EDGE_LOOP ( 'NONE', ( #209, #251, #1086, #1103 ) ) ;
#282 = ORIENTED_EDGE ( 'NONE', *, *, #309, .T. ) ;
#283 = CARTESIAN_POINT ( 'NONE',  ( 16.08362433661927327, 44.18939468785314517, 110.0000000000000000 ) ) ;
#284 = DIRECTION ( 'NONE',  ( -0.3285206249412725987, 0.9444967967061591585, 0.000000000000000000 ) ) ;
#285 = ORIENTED_EDGE ( 'NONE', *, *, #24, .T. ) ;
#286 = ORIENTED_EDGE ( 'NONE', *, *, #670, .T. ) ;
#287 = CARTESIAN_POINT ( 'NONE',  ( 0.000000000000000000, 0.000000000000000000, 112.9999999999999716 ) ) ;
#288 = AXIS2_PLACEMENT_3D ( 'NONE', #755, #937, #573 ) ;
#289 = CARTESIAN_POINT ( 'NONE',  ( 81.89047047221153264, 43.31172801060416333, 110.0000000000000000 ) ) ;
#290 = EDGE_CURVE ( 'NONE', #1072, #386, #745, .T. ) ;
#291 = VECTOR ( 'NONE', #162, 1000.000000000000000 ) ;
#292 = AXIS2_PLACEMENT_3D ( 'NONE', #565, #558, #572 ) ;
#293 = DIRECTION ( 'NONE',  ( -0.3285206249412725987, 0.9444967967061591585, 0.000000000000000000 ) ) ;
#294 = ORIENTED_EDGE ( 'NONE', *, *, #1133, .F. ) ;
#295 = CIRCLE ( 'NONE', #61, 1.499999999999990896 ) ;
#296 = CARTESIAN_POINT ( 'NONE',  ( 20.09779784051960405, 27.44210394604274228, 107.0000000000000000 ) ) ;
#297 = LINE ( 'NONE', #27, #646 ) ;
#298 = CARTESIAN_POINT ( 'NONE',  ( 80.80568566084046722, 42.87830083160722694, 107.6169663432132353 ) ) ;
#299 = EDGE_CURVE ( 'NONE', #243, #56, #804, .T. ) ;
#300 = AXIS2_PLACEMENT_3D ( 'NONE', #756, #130, #321 ) ;
#301 = DIRECTION ( 'NONE',  ( -0.000000000000000000, -0.000000000000000000, -1.000000000000000000 ) ) ;
#302 = VERTEX_POINT ( 'NONE', #122 ) ;
#303 = ORIENTED_EDGE ( 'NONE', *, *, #420, .T. ) ;
#304 = DIRECTION ( 'NONE',  ( 0.000000000000000000, 0.000000000000000000, 1.000000000000000000 ) ) ;
#305 = FILL_AREA_STYLE_COLOUR ( '', #439 ) ;
#306 = DIRECTION ( 'NONE',  ( -0.3420201433256628287, -0.9396926207859105373, 0.000000000000000000 ) ) ;
#307 = AXIS2_PLACEMENT_3D ( 'NONE', #49, #311, #928 ) ;
#308 = DIRECTION ( 'NONE',  ( -0.9444967967061590475, -0.3285206249412731538, 0.000000000000000000 ) ) ;
#309 = EDGE_CURVE ( 'NONE', #55, #582, #1087, .T. ) ;
#310 = ORIENTED_EDGE ( 'NONE', *, *, #550, .T. ) ;
#311 = DIRECTION ( 'NONE',  ( -0.000000000000000000, -0.000000000000000000, -1.000000000000000000 ) ) ;
#312 = PLANE ( 'NONE',  #99 ) ;
#313 = DIRECTION ( 'NONE',  ( 1.000000000000000000, 0.000000000000000000, 0.000000000000000000 ) ) ;
#314 = DIRECTION ( 'NONE',  ( -0.000000000000000000, -0.000000000000000000, 1.000000000000000000 ) ) ;
#315 = ORIENTED_EDGE ( 'NONE', *, *, #279, .F. ) ;
#316 = EDGE_LOOP ( 'NONE', ( #120, #777, #609, #1083 ) ) ;
#317 =( NAMED_UNIT ( * ) PLANE_ANGLE_UNIT ( ) SI_UNIT ( $, .RADIAN. ) );
#318 = CARTESIAN_POINT ( 'NONE',  ( 19.48936865828507692, 44.77518710757652087, 107.0000000000000000 ) ) ;
#319 = DIRECTION ( 'NONE',  ( -0.000000000000000000, -0.000000000000000000, -1.000000000000000000 ) ) ;
#320 = CARTESIAN_POINT ( 'NONE',  ( 97.75698220773776370, -16.70700446927739335, 3.000000000000016431 ) ) ;
#321 = DIRECTION ( 'NONE',  ( -0.9601434275155112941, -0.2795077791381950783, 0.000000000000000000 ) ) ;
#322 = ORIENTED_EDGE ( 'NONE', *, *, #647, .T. ) ;
#323 = VERTEX_POINT ( 'NONE', #553 ) ;
#324 = LINE ( 'NONE', #1021, #57 ) ;
#325 = ADVANCED_FACE ( 'NONE', ( #665 ), #43, .F. ) ;
#326 = CARTESIAN_POINT ( 'NONE',  ( 97.75698220773774949, -16.70700446927740757, 72.33333333333332860 ) ) ;
#327 = ORIENTED_EDGE ( 'NONE', *, *, #542, .T. ) ;
#328 = VECTOR ( 'NONE', #319, 1000.000000000000000 ) ;
#329 = ORIENTED_EDGE ( 'NONE', *, *, #935, .T. ) ;
#330 = AXIS2_PLACEMENT_3D ( 'NONE', #715, #473, #821 ) ;
#331 = EDGE_LOOP ( 'NONE', ( #1050, #242, #334, #448 ) ) ;
#332 =( BOUNDED_CURVE ( )  B_SPLINE_CURVE ( 3, ( #113, #1014, #571, #908 ),
 .UNSPECIFIED., .F., .F. ) 
 B_SPLINE_CURVE_WITH_KNOTS ( ( 4, 4 ),
 ( 3.141592653589793116, 3.636325108160328057 ),
 .UNSPECIFIED. ) 
 CURVE ( )  GEOMETRIC_REPRESENTATION_ITEM ( )  RATIONAL_B_SPLINE_CURVE ( ( 1.000000000000000000, 0.9797071108005390716, 0.9797071108005390716, 1.000000000000000000 ) ) 
 REPRESENTATION_ITEM ( '' )  );
#333 = EDGE_LOOP ( 'NONE', ( #983, #206, #329 ) ) ;
#334 = ORIENTED_EDGE ( 'NONE', *, *, #695, .F. ) ;
#335 = PRESENTATION_LAYER_ASSIGNMENT (  '', '', ( #280 ) ) ;
#336 = CARTESIAN_POINT ( 'NONE',  ( 79.26452709672670949, 42.33236902974289251, 3.000000000000016431 ) ) ;
#337 = CARTESIAN_POINT ( 'NONE',  ( 81.89047047221153264, 43.31172801060416333, 113.0000000000000000 ) ) ;
#338 = ADVANCED_FACE ( 'NONE', ( #477 ), #1005, .F. ) ;
#339 = ORIENTED_EDGE ( 'NONE', *, *, #1090, .F. ) ;
#340 = CARTESIAN_POINT ( 'NONE',  ( 64.47714280531096165, 84.24319830652888186, 3.000000000000016431 ) ) ;
#341 = CARTESIAN_POINT ( 'NONE',  ( 24.56786753708763626, 39.11551291291374355, 3.000000000000016431 ) ) ;
#342 = CARTESIAN_POINT ( 'NONE',  ( 71.32490353847431663, 64.55588619868420608, 110.0000000000000000 ) ) ;
#343 = EDGE_CURVE ( 'NONE', #847, #489, #453, .T. ) ;
#344 = ORIENTED_EDGE ( 'NONE', *, *, #835, .F. ) ;
#345 = ADVANCED_BREP_SHAPE_REPRESENTATION ( 'jiazuizhuadou', ( #652, #1031, #749 ), #93 ) ;
#346 = VECTOR ( 'NONE', #667, 1000.000000000000114 ) ;
#347 = DIRECTION ( 'NONE',  ( -0.000000000000000000, -0.000000000000000000, -1.000000000000000000 ) ) ;
#348 = VECTOR ( 'NONE', #532, 1000.000000000000000 ) ;
#349 = LINE ( 'NONE', #530, #626 ) ;
#350 = CARTESIAN_POINT ( 'NONE',  ( 81.20308501813033786, 43.03226487632262121, 1.983772363913023806 ) ) ;
#351 = CARTESIAN_POINT ( 'NONE',  ( 113.2604427736006585, -17.56676220890260254, -3.000000000000000000 ) ) ;
#352 = FACE_OUTER_BOUND ( 'NONE', #776, .T. ) ;
#353 = CYLINDRICAL_SURFACE ( 'NONE', #535, 1.499999999999984013 ) ;
#354 = CARTESIAN_POINT ( 'NONE',  ( 21.59779784051959339, 27.44210394604274228, -1.371604415045033344E-15 ) ) ;
#355 = CARTESIAN_POINT ( 'NONE',  ( 81.60881220012502979, 43.19522592229831304, 1.330908600534005615 ) ) ;
#356 = DIRECTION ( 'NONE',  ( -0.4580526612932596109, 0.8889250584172787573, -0.000000000000000000 ) ) ;
#357 = EDGE_LOOP ( 'NONE', ( #413, #230, #192, #669 ) ) ;
#358 = FACE_OUTER_BOUND ( 'NONE', #177, .T. ) ;
#359 = CARTESIAN_POINT ( 'NONE',  ( 113.2604427736006585, -17.56676220890260254, 113.0000000000000000 ) ) ;
#360 = EDGE_CURVE ( 'NONE', #555, #993, #831, .T. ) ;
#361 = B_SPLINE_CURVE_WITH_KNOTS ( 'NONE', 3,
 ( #101, #336, #1125, #77, #267, #531, #1049, #790, #9, #350, #699, #972, #355, #175, #1061, #454 ),
 .UNSPECIFIED., .F., .F.,
 ( 4, 2, 2, 2, 2, 2, 2, 4 ),
 ( 0.000000000000000000, 0.0005859078431091276377, 0.001171815686218255275, 0.001757723529327383022, 0.002343631372436510551, 0.002929539215545638297, 0.003515447058654766043, 0.004687262744873008959 ),
 .UNSPECIFIED. ) ;
#362 = DIRECTION ( 'NONE',  ( 0.000000000000000000, 0.000000000000000000, 1.000000000000000000 ) ) ;
#363 = ORIENTED_EDGE ( 'NONE', *, *, #802, .F. ) ;
#364 = CARTESIAN_POINT ( 'NONE',  ( 21.59779784051958629, 27.44210394604274228, 0.000000000000000000 ) ) ;
#365 = CARTESIAN_POINT ( 'NONE',  ( 18.59779784051961826, 27.44210394604274228, 0.000000000000000000 ) ) ;
#366 = ORIENTED_EDGE ( 'NONE', *, *, #501, .F. ) ;
#367 = CARTESIAN_POINT ( 'NONE',  ( 21.59779784051959339, 27.44210394604274228, 107.0000000000000000 ) ) ;
#368 = DIRECTION ( 'NONE',  ( 1.000000000000000000, 0.000000000000000000, 0.000000000000000000 ) ) ;
#369 = EDGE_LOOP ( 'NONE', ( #139, #522, #812, #696 ) ) ;
#370 = ADVANCED_FACE ( 'NONE', ( #1104 ), #466, .F. ) ;
#371 = ORIENTED_EDGE ( 'NONE', *, *, #309, .F. ) ;
#372 = DIRECTION ( 'NONE',  ( 0.000000000000000000, 0.000000000000000000, 1.000000000000000000 ) ) ;
#373 = CARTESIAN_POINT ( 'NONE',  ( 102.9146092772666918, -18.22761809843168024, 108.5756113920024291 ) ) ;
#374 = CARTESIAN_POINT ( 'NONE',  ( 80.49884080373102790, 42.76324320972110371, 107.3975837532972548 ) ) ;
#375 = VERTEX_POINT ( 'NONE', #38 ) ;
#376 = ORIENTED_EDGE ( 'NONE', *, *, #69, .F. ) ;
#377 = ADVANCED_FACE ( 'NONE', ( #557 ), #1079, .T. ) ;
#378 = DIRECTION ( 'NONE',  ( 1.000000000000000000, 0.000000000000000000, 0.000000000000000000 ) ) ;
#379 = DIRECTION ( 'NONE',  ( 1.000000000000000000, 0.000000000000000000, -0.000000000000000000 ) ) ;
#380 = VECTOR ( 'NONE', #499, 1000.000000000000114 ) ;
#381 = CARTESIAN_POINT ( 'NONE',  ( 23.06786753708764337, 39.11551291291374355, 107.0000000000000000 ) ) ;
#382 = VECTOR ( 'NONE', #7, 1000.000000000000000 ) ;
#383 = AXIS2_PLACEMENT_3D ( 'NONE', #472, #478, #379 ) ;
#384 =( NAMED_UNIT ( * ) SI_UNIT ( $, .STERADIAN. ) SOLID_ANGLE_UNIT ( ) );
#385 = AXIS2_PLACEMENT_3D ( 'NONE', #1082, #733, #222 ) ;
#386 = VERTEX_POINT ( 'NONE', #1093 ) ;
#387 = CIRCLE ( 'NONE', #691, 1.499999999999984013 ) ;
#388 = ORIENTED_EDGE ( 'NONE', *, *, #217, .T. ) ;
#389 = DIRECTION ( 'NONE',  ( -0.000000000000000000, 0.000000000000000000, 1.000000000000000000 ) ) ;
#390 = DIRECTION ( 'NONE',  ( 1.000000000000000000, 0.000000000000000000, 0.000000000000000000 ) ) ;
#391 = ADVANCED_FACE ( 'NONE', ( #999 ), #203, .T. ) ;
#392 =( NAMED_UNIT ( * ) SI_UNIT ( $, .STERADIAN. ) SOLID_ANGLE_UNIT ( ) );
#393 = ORIENTED_EDGE ( 'NONE', *, *, #878, .F. ) ;
#394 = VECTOR ( 'NONE', #621, 1000.000000000000000 ) ;
#395 = CARTESIAN_POINT ( 'NONE',  ( 55.32600959564390308, 40.25838502612783287, 110.0000000000000000 ) ) ;
#396 = DIRECTION ( 'NONE',  ( 0.000000000000000000, 0.000000000000000000, 1.000000000000000000 ) ) ;
#397 = CARTESIAN_POINT ( 'NONE',  ( 97.75698220773776370, -16.70700446927739335, 107.0000000000000000 ) ) ;
#398 = CARTESIAN_POINT ( 'NONE',  ( 103.2604427736006585, -18.12694235588972802, 1.647987302177966740E-14 ) ) ;
#399 = EDGE_CURVE ( 'NONE', #497, #625, #706, .T. ) ;
#400 =( LENGTH_UNIT ( ) NAMED_UNIT ( * ) SI_UNIT ( .MILLI., .METRE. ) );
#401 = ORIENTED_EDGE ( 'NONE', *, *, #24, .F. ) ;
#402 = CARTESIAN_POINT ( 'NONE',  ( 18.59779784051961116, 27.44210394604274228, 107.0000000000000000 ) ) ;
#403 = FILL_AREA_STYLE ('',( #305 ) ) ;
#404 = CARTESIAN_POINT ( 'NONE',  ( 20.09779784051960405, 27.44210394604274228, -1.371604415045033344E-15 ) ) ;
#405 = DIRECTION ( 'NONE',  ( 0.9984346740684180155, 0.05593032824766882433, 0.000000000000000000 ) ) ;
#406 = CARTESIAN_POINT ( 'NONE',  ( 113.2604427736006585, -17.56676220890260254, -19.18336509014821445 ) ) ;
#407 = EDGE_LOOP ( 'NONE', ( #921, #70, #310, #456, #366, #988, #1111, #718 ) ) ;
#408 = EDGE_CURVE ( 'NONE', #863, #243, #463, .T. ) ;
#409 = ORIENTED_EDGE ( 'NONE', *, *, #1090, .T. ) ;
#410 = DIRECTION ( 'NONE',  ( 0.000000000000000000, 0.000000000000000000, 1.000000000000000000 ) ) ;
#411 = FACE_BOUND ( 'NONE', #419, .T. ) ;
#412 = PLANE ( 'NONE',  #191 ) ;
#413 = ORIENTED_EDGE ( 'NONE', *, *, #193, .F. ) ;
#414 = UNCERTAINTY_MEASURE_WITH_UNIT (LENGTH_MEASURE( 1.000000000000000082E-05 ), #560, 'distance_accuracy_value', 'NONE');
#415 = ORIENTED_EDGE ( 'NONE', *, *, #989, .F. ) ;
#416 = CARTESIAN_POINT ( 'NONE',  ( 3.564517285038907968, 1.022017551410872249, 107.0000000000000000 ) ) ;
#417 = VECTOR ( 'NONE', #984, 1000.000000000000114 ) ;
#418 = VERTEX_POINT ( 'NONE', #397 ) ;
#419 = EDGE_LOOP ( 'NONE', ( #1119, #86 ) ) ;
#420 = EDGE_CURVE ( 'NONE', #108, #847, #45, .T. ) ;
#421 = LINE ( 'NONE', #944, #698 ) ;
#422 = EDGE_LOOP ( 'NONE', ( #1109, #1123, #799 ) ) ;
#423 = EDGE_LOOP ( 'NONE', ( #1132, #388, #902, #327, #975, #677 ) ) ;
#424 = EDGE_CURVE ( 'NONE', #1067, #48, #297, .T. ) ;
#425 = CARTESIAN_POINT ( 'NONE',  ( 103.6131132015512577, -19.17657206310131102, 110.0000000000000000 ) ) ;
#426 = CARTESIAN_POINT ( 'NONE',  ( 94.33869953922504692, -20.72415498685502655, 110.0000000000000000 ) ) ;
#427 = ORIENTED_EDGE ( 'NONE', *, *, #399, .F. ) ;
#428 = VECTOR ( 'NONE', #529, 1000.000000000000000 ) ;
#429 = CYLINDRICAL_SURFACE ( 'NONE', #829, 1.499999999999984013 ) ;
#430 = LINE ( 'NONE', #425, #940 ) ;
#431 = PLANE ( 'NONE',  #891 ) ;
#432 = ORIENTED_EDGE ( 'NONE', *, *, #69, .T. ) ;
#433 = DIRECTION ( 'NONE',  ( 1.000000000000000000, 0.000000000000000000, 0.000000000000000000 ) ) ;
#434 = LINE ( 'NONE', #893, #1127 ) ;
#435 = EDGE_CURVE ( 'NONE', #815, #625, #731, .T. ) ;
#436 = DIRECTION ( 'NONE',  ( 0.000000000000000000, -0.000000000000000000, 1.000000000000000000 ) ) ;
#437 = DIRECTION ( 'NONE',  ( 1.000000000000000000, 0.000000000000000000, 0.000000000000000000 ) ) ;
#438 = CARTESIAN_POINT ( 'NONE',  ( 18.59779784051961116, 27.44210394604274228, -1.371604415045033344E-15 ) ) ;
#439 = COLOUR_RGB ( '',0.7921568627450980005, 0.8196078431372548767, 0.9333333333333333481 ) ;
#440 = ORIENTED_EDGE ( 'NONE', *, *, #986, .T. ) ;
#441 = ADVANCED_FACE ( 'NONE', ( #1100, #1095, #549 ), #1088, .T. ) ;
#442 = VECTOR ( 'NONE', #2, 999.9999999999998863 ) ;
#443 = AXIS2_PLACEMENT_3D ( 'NONE', #564, #915, #378 ) ;
#444 = CARTESIAN_POINT ( 'NONE',  ( 82.10996971965839464, 43.40442457680531163, 1.605124501849061086E-16 ) ) ;
#445 = VECTOR ( 'NONE', #903, 1000.000000000000000 ) ;
#446 = CARTESIAN_POINT ( 'NONE',  ( 81.32211736258352630, 43.07951802239110606, 108.1721435203709802 ) ) ;
#447 = CARTESIAN_POINT ( 'NONE',  ( 99.88607041103584550, -16.55321808387210325, 3.000000000000016875 ) ) ;
#448 = ORIENTED_EDGE ( 'NONE', *, *, #897, .T. ) ;
#449 = ADVANCED_FACE ( 'NONE', ( #814 ), #727, .F. ) ;
#450 = FACE_OUTER_BOUND ( 'NONE', #316, .T. ) ;
#451 = VECTOR ( 'NONE', #567, 1000.000000000000000 ) ;
#452 = CARTESIAN_POINT ( 'NONE',  ( 66.57405770263694933, 38.24282539809757964, 3.000000000000016431 ) ) ;
#453 =( BOUNDED_CURVE ( )  B_SPLINE_CURVE ( 3, ( #737, #905, #395, #490 ),
 .UNSPECIFIED., .F., .F. ) 
 B_SPLINE_CURVE_WITH_KNOTS ( ( 4, 4 ),
 ( 1.521272187473463600, 2.893133169722012621 ),
 .UNSPECIFIED. ) 
 CURVE ( )  GEOMETRIC_REPRESENTATION_ITEM ( )  RATIONAL_B_SPLINE_CURVE ( ( 1.000000000000000000, 0.8492200102025375674, 0.8492200102025375674, 1.000000000000000000 ) ) 
 REPRESENTATION_ITEM ( '' )  );
#454 = CARTESIAN_POINT ( 'NONE',  ( 81.89047047221153264, 43.31172801060416333, 0.000000000000000000 ) ) ;
#455 = FACE_BOUND ( 'NONE', #671, .T. ) ;
#456 = ORIENTED_EDGE ( 'NONE', *, *, #938, .F. ) ;
#457 = CIRCLE ( 'NONE', #912, 1.499999999999990896 ) ;
#458 = LINE ( 'NONE', #194, #504 ) ;
#459 = CARTESIAN_POINT ( 'NONE',  ( 26.06786753708761850, 39.11551291291374355, 3.000000000000016431 ) ) ;
#460 = DIRECTION ( 'NONE',  ( 0.1645901416730042033, -0.9863620457337459735, 0.000000000000000000 ) ) ;
#461 = ORIENTED_EDGE ( 'NONE', *, *, #897, .F. ) ;
#462 = DIRECTION ( 'NONE',  ( -0.05593032824766882433, 0.9984346740684180155, 0.000000000000000000 ) ) ;
#463 = LINE ( 'NONE', #992, #997 ) ;
#464 = ADVANCED_FACE ( 'NONE', ( #639 ), #195, .F. ) ;
#465 = ORIENTED_EDGE ( 'NONE', *, *, #679, .T. ) ;
#466 = PLANE ( 'NONE',  #443 ) ;
#467 = CARTESIAN_POINT ( 'NONE',  ( 26.06786753708762561, 39.11551291291374355, 107.0000000000000000 ) ) ;
#468 = CARTESIAN_POINT ( 'NONE',  ( 20.09779784051960405, 27.44210394604274228, 3.000000000000016431 ) ) ;
#469 = FACE_OUTER_BOUND ( 'NONE', #216, .T. ) ;
#470 = VERTEX_POINT ( 'NONE', #373 ) ;
#471 = DIRECTION ( 'NONE',  ( -1.000000000000000000, 0.000000000000000000, 0.000000000000000000 ) ) ;
#472 = CARTESIAN_POINT ( 'NONE',  ( 68.23955059720827876, 85.55186188631924438, 3.000000000000016431 ) ) ;
#473 = DIRECTION ( 'NONE',  ( 0.000000000000000000, -0.000000000000000000, 1.000000000000000000 ) ) ;
#474 = B_SPLINE_CURVE_WITH_KNOTS ( 'NONE', 3,
 ( #289, #877, #732, #617, #114, #783, #870, #446, #28, #738, #298, #374, #524, #559, #76, #266 ),
 .UNSPECIFIED., .F., .F.,
 ( 4, 2, 2, 2, 2, 2, 2, 4 ),
 ( 0.000000000000000000, 0.0005859066631883170584, 0.001171813326376634117, 0.001757719989564951284, 0.002343626652753268234, 0.002929533315941585184, 0.003515439979129902567, 0.004687253305506519988 ),
 .UNSPECIFIED. ) ;
#475 = ORIENTED_EDGE ( 'NONE', *, *, #1115, .T. ) ;
#476 = EDGE_CURVE ( 'NONE', #63, #580, #110, .T. ) ;
#477 = FACE_OUTER_BOUND ( 'NONE', #663, .T. ) ;
#478 = DIRECTION ( 'NONE',  ( 0.000000000000000000, -0.000000000000000000, 1.000000000000000000 ) ) ;
#479 = CIRCLE ( 'NONE', #624, 1.499999999999990896 ) ;
#480 = DIRECTION ( 'NONE',  ( -0.000000000000000000, -0.000000000000000000, -1.000000000000000000 ) ) ;
#481 = CIRCLE ( 'NONE', #288, 5.000000000000004441 ) ;
#482 =( NAMED_UNIT ( * ) PLANE_ANGLE_UNIT ( ) SI_UNIT ( $, .RADIAN. ) );
#483 = EDGE_LOOP ( 'NONE', ( #270, #427 ) ) ;
#484 = DIRECTION ( 'NONE',  ( -0.000000000000000000, -0.000000000000000000, -1.000000000000000000 ) ) ;
#485 = CYLINDRICAL_SURFACE ( 'NONE', #896, 5.000000000000004441 ) ;
#486 = CARTESIAN_POINT ( 'NONE',  ( 23.06786753708765048, 39.11551291291374355, 0.000000000000000000 ) ) ;
#487 = EDGE_CURVE ( 'NONE', #605, #555, #570, .T. ) ;
#488 = DIRECTION ( 'NONE',  ( -1.000000000000000000, 0.000000000000000000, 0.000000000000000000 ) ) ;
#489 = VERTEX_POINT ( 'NONE', #833 ) ;
#490 = CARTESIAN_POINT ( 'NONE',  ( 48.04365848832858887, 49.68656181841879516, 110.0000000000000000 ) ) ;
#491 = EDGE_CURVE ( 'NONE', #543, #5, #633, .T. ) ;
#492 = CARTESIAN_POINT ( 'NONE',  ( 94.33869953922484797, -20.72415498685507629, 1.647987302177966740E-14 ) ) ;
#493 = CARTESIAN_POINT ( 'NONE',  ( 68.23955059720827876, 85.55186188631924438, 1.647987302177966740E-14 ) ) ;
#494 = CARTESIAN_POINT ( 'NONE',  ( 24.56786753708763626, 39.11551291291374355, 107.0000000000000000 ) ) ;
#495 = CARTESIAN_POINT ( 'NONE',  ( 102.5106264164761853, -17.80200569707591640, 108.1818737653418907 ) ) ;
#496 = ORIENTED_EDGE ( 'NONE', *, *, #167, .T. ) ;
#497 = VERTEX_POINT ( 'NONE', #505 ) ;
#498 = LINE ( 'NONE', #1016, #741 ) ;
#499 = DIRECTION ( 'NONE',  ( -0.9855281050433265522, -0.1695121062629740272, 0.000000000000000000 ) ) ;
#500 = FILL_AREA_STYLE ('',( #675 ) ) ;
#501 = EDGE_CURVE ( 'NONE', #1030, #489, #324, .T. ) ;
#502 = ORIENTED_EDGE ( 'NONE', *, *, #491, .T. ) ;
#503 = ORIENTED_EDGE ( 'NONE', *, *, #878, .T. ) ;
#504 = VECTOR ( 'NONE', #523, 1000.000000000000000 ) ;
#505 = CARTESIAN_POINT ( 'NONE',  ( 26.06786753708762561, 39.11551291291374355, -1.371604415045033344E-15 ) ) ;
#506 = PRESENTATION_STYLE_ASSIGNMENT (( #864 ) ) ;
#507 = VERTEX_POINT ( 'NONE', #678 ) ;
#508 = ORIENTED_EDGE ( 'NONE', *, *, #811, .F. ) ;
#509 = CARTESIAN_POINT ( 'NONE',  ( 97.75698220773776370, -16.70700446927739335, 107.0000000000000000 ) ) ;
#510 = VECTOR ( 'NONE', #651, 1000.000000000000000 ) ;
#511 = EDGE_LOOP ( 'NONE', ( #681, #774, #285, #303, #956, #635, #823 ) ) ;
#512 = ORIENTED_EDGE ( 'NONE', *, *, #604, .F. ) ;
#513 = EDGE_CURVE ( 'NONE', #1067, #55, #851, .T. ) ;
#514 = CARTESIAN_POINT ( 'NONE',  ( 99.52716197701494139, -16.52560681212014160, 3.000000000000016431 ) ) ;
#515 = APPLICATION_CONTEXT ( 'automotive_design' ) ;
#516 = CARTESIAN_POINT ( 'NONE',  ( 102.5106264164761711, -17.80200569707593061, 1.818126234658127949 ) ) ;
#517 = ORIENTED_EDGE ( 'NONE', *, *, #420, .F. ) ;
#518 = EDGE_CURVE ( 'NONE', #323, #1030, #806, .T. ) ;
#519 = CARTESIAN_POINT ( 'NONE',  ( 48.04365848832858887, 49.68656181841879516, 3.000000000000016431 ) ) ;
#520 = LINE ( 'NONE', #883, #1120 ) ;
#521 = CARTESIAN_POINT ( 'NONE',  ( 100.7277816462164992, -16.76530555804732714, 2.812165671686212232 ) ) ;
#522 = ORIENTED_EDGE ( 'NONE', *, *, #793, .T. ) ;
#523 = DIRECTION ( 'NONE',  ( -0.000000000000000000, -0.000000000000000000, 1.000000000000000000 ) ) ;
#524 = CARTESIAN_POINT ( 'NONE',  ( 80.33506188897015932, 42.70306226661763560, 107.3043227420712782 ) ) ;
#525 = DIRECTION ( 'NONE',  ( -0.000000000000000000, -0.000000000000000000, -1.000000000000000000 ) ) ;
#526 = EDGE_CURVE ( 'NONE', #818, #605, #848, .T. ) ;
#527 = DIRECTION ( 'NONE',  ( -0.3283531690704395989, 0.9445550255868629952, 0.000000000000000000 ) ) ;
#528 = LINE ( 'NONE', #271, #860 ) ;
#529 = DIRECTION ( 'NONE',  ( -0.3285206249412725987, 0.9444967967061590475, 0.000000000000000000 ) ) ;
#530 = CARTESIAN_POINT ( 'NONE',  ( 48.04365848832858887, 49.68656181841879516, 107.0000000000000000 ) ) ;
#531 = CARTESIAN_POINT ( 'NONE',  ( 80.33390164158032576, 42.70264796957808073, 2.696376004219032119 ) ) ;
#532 = DIRECTION ( 'NONE',  ( -0.000000000000000000, -0.000000000000000000, 1.000000000000000000 ) ) ;
#533 = VECTOR ( 'NONE', #405, 999.9999999999998863 ) ;
#534 = ORIENTED_EDGE ( 'NONE', *, *, #954, .F. ) ;
#535 = AXIS2_PLACEMENT_3D ( 'NONE', #977, #537, #1058 ) ;
#536 = DIRECTION ( 'NONE',  ( 0.000000000000000000, 0.000000000000000000, 1.000000000000000000 ) ) ;
#537 = DIRECTION ( 'NONE',  ( -0.000000000000000000, -0.000000000000000000, -1.000000000000000000 ) ) ;
#538 = VECTOR ( 'NONE', #623, 1000.000000000000000 ) ;
#539 = DIRECTION ( 'NONE',  ( -1.000000000000000000, 0.000000000000000000, 0.000000000000000000 ) ) ;
#540 = CARTESIAN_POINT ( 'NONE',  ( 20.09779784051960405, 27.44210394604274228, 3.000000000000016431 ) ) ;
#541 = CARTESIAN_POINT ( 'NONE',  ( 113.2604427736006585, -17.56676220890260254, 1.734723475976807094E-14 ) ) ;
#542 = EDGE_CURVE ( 'NONE', #55, #818, #1112, .T. ) ;
#543 = VERTEX_POINT ( 'NONE', #225 ) ;
#544 = LINE ( 'NONE', #994, #510 ) ;
#545 = LINE ( 'NONE', #881, #740 ) ;
#546 = MECHANICAL_DESIGN_GEOMETRIC_PRESENTATION_REPRESENTATION (  '', ( #280 ), #581 ) ;
#547 = DIRECTION ( 'NONE',  ( 0.9863620457337459735, 0.1645901416730042033, 0.000000000000000000 ) ) ;
#548 = DIRECTION ( 'NONE',  ( 0.000000000000000000, -0.000000000000000000, 1.000000000000000000 ) ) ;
#549 = FACE_BOUND ( 'NONE', #256, .T. ) ;
#550 = EDGE_CURVE ( 'NONE', #818, #196, #498, .T. ) ;
#551 = ORIENTED_EDGE ( 'NONE', *, *, #989, .T. ) ;
#552 = B_SPLINE_CURVE_WITH_KNOTS ( 'NONE', 3,
 ( #154, #772, #596, #680, #843, #585, #1116, #861, #138, #495, #763, #232 ),
 .UNSPECIFIED., .F., .F.,
 ( 4, 2, 2, 2, 2, 4 ),
 ( 0.000000000000000000, 0.001061641594105475640, 0.001592462391158209773, 0.002123283188210943907, 0.003184924782316428653, 0.004246566376421913834 ),
 .UNSPECIFIED. ) ;
#553 = CARTESIAN_POINT ( 'NONE',  ( 79.07596521181359606, 42.27158388783376353, 107.0000000000000000 ) ) ;
#554 = CARTESIAN_POINT ( 'NONE',  ( 68.61150730464531478, 37.75634490739702898, 1.647987302177966740E-14 ) ) ;
#555 = VERTEX_POINT ( 'NONE', #588 ) ;
#556 = ORIENTED_EDGE ( 'NONE', *, *, #143, .F. ) ;
#557 = FACE_OUTER_BOUND ( 'NONE', #422, .T. ) ;
#558 = DIRECTION ( 'NONE',  ( -0.000000000000000000, -0.000000000000000000, -1.000000000000000000 ) ) ;
#559 = CARTESIAN_POINT ( 'NONE',  ( 79.82571050995163375, 42.52050493127349284, 107.0796246582119835 ) ) ;
#560 =( LENGTH_UNIT ( ) NAMED_UNIT ( * ) SI_UNIT ( .MILLI., .METRE. ) );
#561 = EDGE_CURVE ( 'NONE', #302, #543, #601, .T. ) ;
#562 = ORIENTED_EDGE ( 'NONE', *, *, #664, .F. ) ;
#563 = EDGE_LOOP ( 'NONE', ( #586, #534, #371, #853 ) ) ;
#564 = CARTESIAN_POINT ( 'NONE',  ( 0.000000000000000000, 0.000000000000000000, 109.9999999999999716 ) ) ;
#565 = CARTESIAN_POINT ( 'NONE',  ( 24.56786753708763626, 39.11551291291374355, 107.0000000000000000 ) ) ;
#566 = CARTESIAN_POINT ( 'NONE',  ( 113.2604427736006585, -17.56676220890260254, -3.000000000000000000 ) ) ;
#567 = DIRECTION ( 'NONE',  ( 0.3285206249412725987, -0.9444967967061590475, 0.000000000000000000 ) ) ;
#568 = ORIENTED_EDGE ( 'NONE', *, *, #252, .T. ) ;
#569 = EDGE_LOOP ( 'NONE', ( #614, #904, #517, #758, #920 ) ) ;
#570 =( BOUNDED_CURVE ( )  B_SPLINE_CURVE ( 3, ( #123, #653, #554, #827 ),
 .UNSPECIFIED., .F., .F. ) 
 B_SPLINE_CURVE_WITH_KNOTS ( ( 4, 4 ),
 ( 3.389784888793770268, 4.761397300166680502 ),
 .UNSPECIFIED. ) 
 CURVE ( )  GEOMETRIC_REPRESENTATION_ITEM ( )  RATIONAL_B_SPLINE_CURVE ( ( 1.000000000000000000, 0.8492724872626713495, 0.8492724872626713495, 1.000000000000000000 ) ) 
 REPRESENTATION_ITEM ( '' )  );
#571 = CARTESIAN_POINT ( 'NONE',  ( 103.1427771663589965, -18.16119604301454871, 109.0155235069098296 ) ) ;
#572 = DIRECTION ( 'NONE',  ( -1.000000000000000000, 0.000000000000000000, 0.000000000000000000 ) ) ;
#573 = DIRECTION ( 'NONE',  ( 1.000000000000000000, -5.551115123125777969E-15, 0.000000000000000000 ) ) ;
#574 = ORIENTED_EDGE ( 'NONE', *, *, #973, .T. ) ;
#575 = DIRECTION ( 'NONE',  ( 0.9855281050433265522, 0.1695121062629740272, -0.000000000000000000 ) ) ;
#576 = DIRECTION ( 'NONE',  ( -0.000000000000000000, -0.000000000000000000, 1.000000000000000000 ) ) ;
#577 = CARTESIAN_POINT ( 'NONE',  ( 24.56786753708763626, 39.11551291291374355, 110.0000000000000000 ) ) ;
#578 = CARTESIAN_POINT ( 'NONE',  ( 18.59779784051961826, 27.44210394604274228, 3.000000000000016431 ) ) ;
#579 = CARTESIAN_POINT ( 'NONE',  ( 71.32490353847431663, 64.55588619868420608, 107.0000000000000000 ) ) ;
#580 = VERTEX_POINT ( 'NONE', #220 ) ;
#581 =( GEOMETRIC_REPRESENTATION_CONTEXT ( 3 ) GLOBAL_UNCERTAINTY_ASSIGNED_CONTEXT ( ( #766 ) ) GLOBAL_UNIT_ASSIGNED_CONTEXT ( ( #693, #684, #72 ) ) REPRESENTATION_CONTEXT ( 'NONE', 'WORKASPACE' ) );
#582 = VERTEX_POINT ( 'NONE', #134 ) ;
#583 = CARTESIAN_POINT ( 'NONE',  ( 48.04365848832858887, 49.68656181841879516, 110.0000000000000000 ) ) ;
#584 = EDGE_CURVE ( 'NONE', #807, #62, #991, .T. ) ;
#585 = CARTESIAN_POINT ( 'NONE',  ( 101.1967975468247118, -16.94883252528407169, 107.3634138180292581 ) ) ;
#586 = ORIENTED_EDGE ( 'NONE', *, *, #424, .T. ) ;
#587 = ORIENTED_EDGE ( 'NONE', *, *, #935, .F. ) ;
#588 = CARTESIAN_POINT ( 'NONE',  ( 81.89047047221153264, 43.31172801060416333, 0.000000000000000000 ) ) ;
#589 = STYLED_ITEM ( 'NONE', ( #50 ), #1031 ) ;
#590 = CARTESIAN_POINT ( 'NONE',  ( 113.2604427736006585, -17.56676220890260254, -3.000000000000000000 ) ) ;
#591 = AXIS2_PLACEMENT_3D ( 'NONE', #341, #703, #910 ) ;
#592 = VECTOR ( 'NONE', #1075, 1000.000000000000000 ) ;
#593 = VERTEX_POINT ( 'NONE', #318 ) ;
#594 = ORIENTED_EDGE ( 'NONE', *, *, #637, .T. ) ;
#595 = AXIS2_PLACEMENT_3D ( 'NONE', #726, #166, #1057 ) ;
#596 = CARTESIAN_POINT ( 'NONE',  ( 100.2299392967431686, -16.61805043097608703, 107.0527990768007669 ) ) ;
#597 =( GEOMETRIC_REPRESENTATION_CONTEXT ( 3 ) GLOBAL_UNCERTAINTY_ASSIGNED_CONTEXT ( ( #873 ) ) GLOBAL_UNIT_ASSIGNED_CONTEXT ( ( #1105, #317, #832 ) ) REPRESENTATION_CONTEXT ( 'NONE', 'WORKASPACE' ) );
#598 = ORIENTED_EDGE ( 'NONE', *, *, #906, .F. ) ;
#599 = ADVANCED_FACE ( 'NONE', ( #158 ), #1043, .F. ) ;
#600 = VERTEX_POINT ( 'NONE', #514 ) ;
#601 = CIRCLE ( 'NONE', #245, 1.499999999999987566 ) ;
#602 = CARTESIAN_POINT ( 'NONE',  ( 48.04365848832858887, 49.68656181841879516, 1.647987302177966740E-14 ) ) ;
#603 = VERTEX_POINT ( 'NONE', #590 ) ;
#604 = EDGE_CURVE ( 'NONE', #418, #948, #809, .T. ) ;
#605 = VERTEX_POINT ( 'NONE', #602 ) ;
#606 = LINE ( 'NONE', #416, #837 ) ;
#607 = FACE_OUTER_BOUND ( 'NONE', #21, .T. ) ;
#608 = CARTESIAN_POINT ( 'NONE',  ( 102.7230949231893788, -18.00765520551090049, 1.625734085481429947 ) ) ;
#609 = ORIENTED_EDGE ( 'NONE', *, *, #143, .T. ) ;
#610 = DIRECTION ( 'NONE',  ( -0.000000000000000000, -0.000000000000000000, 1.000000000000000000 ) ) ;
#611 = EDGE_CURVE ( 'NONE', #888, #25, #421, .T. ) ;
#612 = CARTESIAN_POINT ( 'NONE',  ( 16.08362433661927327, 44.18939468785314517, 107.0000000000000000 ) ) ;
#613 = CYLINDRICAL_SURFACE ( 'NONE', #1035, 2.999999999999996891 ) ;
#614 = ORIENTED_EDGE ( 'NONE', *, *, #1110, .F. ) ;
#615 = DIRECTION ( 'NONE',  ( -0.3283531690704395989, 0.9445550255868629952, 0.000000000000000000 ) ) ;
#616 = CARTESIAN_POINT ( 'NONE',  ( 55.37761015474848136, 40.19157978882878268, 107.0000000000000000 ) ) ;
#617 = CARTESIAN_POINT ( 'NONE',  ( 81.80210817214678798, 43.27487739729206595, 109.2238434579676039 ) ) ;
#618 = CARTESIAN_POINT ( 'NONE',  ( 103.6131132015512577, -19.17657206310131102, -3.000000000000000000 ) ) ;
#619 = FACE_OUTER_BOUND ( 'NONE', #569, .T. ) ;
#620 = CARTESIAN_POINT ( 'NONE',  ( 103.2604427736006585, -18.12694235588972802, -19.18336509014821445 ) ) ;
#621 = DIRECTION ( 'NONE',  ( -0.000000000000000000, -0.000000000000000000, -1.000000000000000000 ) ) ;
#622 = LINE ( 'NONE', #381, #291 ) ;
#623 = DIRECTION ( 'NONE',  ( -0.9863620457337458625, -0.1645901416730049249, 0.000000000000000000 ) ) ;
#624 = AXIS2_PLACEMENT_3D ( 'NONE', #803, #73, #1044 ) ;
#625 = VERTEX_POINT ( 'NONE', #1124 ) ;
#626 = VECTOR ( 'NONE', #960, 1000.000000000000114 ) ;
#627 = DIRECTION ( 'NONE',  ( -0.000000000000000000, -0.000000000000000000, -1.000000000000000000 ) ) ;
#628 = CARTESIAN_POINT ( 'NONE',  ( 20.09779784051960405, 27.44210394604274228, 110.0000000000000000 ) ) ;
#629 = CARTESIAN_POINT ( 'NONE',  ( 0.000000000000000000, 0.000000000000000000, 0.000000000000000000 ) ) ;
#630 = EDGE_LOOP ( 'NONE', ( #363, #415 ) ) ;
#631 = ADVANCED_FACE ( 'NONE', ( #53 ), #412, .T. ) ;
#632 = CARTESIAN_POINT ( 'NONE',  ( 20.09779784051960405, 27.44210394604274228, 107.0000000000000000 ) ) ;
#633 = LINE ( 'NONE', #467, #792 ) ;
#634 = VECTOR ( 'NONE', #801, 1000.000000000000000 ) ;
#635 = ORIENTED_EDGE ( 'NONE', *, *, #938, .T. ) ;
#636 = ORIENTED_EDGE ( 'NONE', *, *, #167, .F. ) ;
#637 = EDGE_CURVE ( 'NONE', #94, #507, #64, .T. ) ;
#638 = CARTESIAN_POINT ( 'NONE',  ( 103.2604427736006869, -18.12694235588972802, 1.647987302177966740E-14 ) ) ;
#639 = FACE_OUTER_BOUND ( 'NONE', #947, .T. ) ;
#640 = ORIENTED_EDGE ( 'NONE', *, *, #1110, .T. ) ;
#641 = AXIS2_PLACEMENT_3D ( 'NONE', #871, #525, #704 ) ;
#642 = EDGE_CURVE ( 'NONE', #593, #1037, #606, .T. ) ;
#643 = DIRECTION ( 'NONE',  ( 1.000000000000000000, 0.000000000000000000, 0.000000000000000000 ) ) ;
#644 = DIRECTION ( 'NONE',  ( -0.000000000000000000, -0.000000000000000000, -1.000000000000000000 ) ) ;
#645 = DIRECTION ( 'NONE',  ( -0.000000000000000000, -0.000000000000000000, 1.000000000000000000 ) ) ;
#646 = VECTOR ( 'NONE', #23, 1000.000000000000000 ) ;
#647 = EDGE_CURVE ( 'NONE', #1056, #470, #552, .T. ) ;
#648 = AXIS2_PLACEMENT_3D ( 'NONE', #967, #169, #527 ) ;
#649 = PRESENTATION_STYLE_ASSIGNMENT (( #1007 ) ) ;
#650 = ORIENTED_EDGE ( 'NONE', *, *, #360, .F. ) ;
#651 = DIRECTION ( 'NONE',  ( -0.000000000000000000, -0.000000000000000000, -1.000000000000000000 ) ) ;
#652 = MANIFOLD_SOLID_BREP ( '凸台-拉伸5', #708 ) ;
#653 = CARTESIAN_POINT ( 'NONE',  ( 55.32687742377079587, 40.25842125447601916, 1.647987302177966740E-14 ) ) ;
#654 = CARTESIAN_POINT ( 'NONE',  ( 97.75698220773776370, -16.70700446927739335, 3.000000000000016431 ) ) ;
#655 = ADVANCED_FACE ( 'NONE', ( #779 ), #1051, .T. ) ;
#656 = VERTEX_POINT ( 'NONE', #359 ) ;
#657 = ORIENTED_EDGE ( 'NONE', *, *, #771, .F. ) ;
#658 = VECTOR ( 'NONE', #26, 1000.000000000000114 ) ;
#659 = DIRECTION ( 'NONE',  ( 1.000000000000000000, 0.000000000000000000, 0.000000000000000000 ) ) ;
#660 = CARTESIAN_POINT ( 'NONE',  ( 48.04365848832858887, 49.68656181841879516, 107.0000000000000000 ) ) ;
#661 = DIRECTION ( 'NONE',  ( -1.000000000000000000, 0.000000000000000000, 0.000000000000000000 ) ) ;
#662 = CARTESIAN_POINT ( 'NONE',  ( 102.9146092772667060, -18.22761809843169090, 1.424388607997585598 ) ) ;
#663 = EDGE_LOOP ( 'NONE', ( #728, #103, #701, #998 ) ) ;
#664 = EDGE_CURVE ( 'NONE', #656, #17, #265, .T. ) ;
#665 = FACE_OUTER_BOUND ( 'NONE', #357, .T. ) ;
#666 = SURFACE_STYLE_FILL_AREA ( #403 ) ;
#667 = DIRECTION ( 'NONE',  ( 0.9855281050433265522, 0.1695121062629740272, -0.000000000000000000 ) ) ;
#668 = LINE ( 'NONE', #227, #1134 ) ;
#669 = ORIENTED_EDGE ( 'NONE', *, *, #299, .T. ) ;
#670 = EDGE_CURVE ( 'NONE', #25, #555, #434, .T. ) ;
#671 = EDGE_LOOP ( 'NONE', ( #186, #210 ) ) ;
#672 = CARTESIAN_POINT ( 'NONE',  ( 3.564517285038907968, 1.022017551410872249, 3.000000000000016431 ) ) ;
#673 = DIRECTION ( 'NONE',  ( 0.000000000000000000, 0.000000000000000000, 1.000000000000000000 ) ) ;
#674 = CARTESIAN_POINT ( 'NONE',  ( 103.1427771663589965, -18.16119604301453450, 0.9844764930901830358 ) ) ;
#675 = FILL_AREA_STYLE_COLOUR ( '', #136 ) ;
#676 = FILL_AREA_STYLE ('',( #1003 ) ) ;
#677 = ORIENTED_EDGE ( 'NONE', *, *, #487, .T. ) ;
#678 = CARTESIAN_POINT ( 'NONE',  ( 113.2604427736006585, -17.56676220890260254, 110.0000000000000000 ) ) ;
#679 = EDGE_CURVE ( 'NONE', #934, #62, #89, .T. ) ;
#680 = CARTESIAN_POINT ( 'NONE',  ( 100.7277816462164708, -16.76530555804732714, 107.1878343283137838 ) ) ;
#681 = ORIENTED_EDGE ( 'NONE', *, *, #954, .T. ) ;
#682 = ORIENTED_EDGE ( 'NONE', *, *, #85, .T. ) ;
#683 = AXIS2_PLACEMENT_3D ( 'NONE', #540, #250, #437 ) ;
#684 =( NAMED_UNIT ( * ) PLANE_ANGLE_UNIT ( ) SI_UNIT ( $, .RADIAN. ) );
#685 = EDGE_CURVE ( 'NONE', #600, #11, #876, .T. ) ;
#686 = CIRCLE ( 'NONE', #90, 1.499999999999984013 ) ;
#687 = VECTOR ( 'NONE', #916, 1000.000000000000114 ) ;
#688 = ORIENTED_EDGE ( 'NONE', *, *, #561, .F. ) ;
#689 = STYLED_ITEM ( 'NONE', ( #649 ), #345 ) ;
#690 = EDGE_LOOP ( 'NONE', ( #36, #4 ) ) ;
#691 = AXIS2_PLACEMENT_3D ( 'NONE', #12, #548, #433 ) ;
#692 = PRODUCT_DEFINITION_SHAPE ( 'NONE', 'NONE',  #29 ) ;
#693 =( LENGTH_UNIT ( ) NAMED_UNIT ( * ) SI_UNIT ( .MILLI., .METRE. ) );
#694 = EDGE_CURVE ( 'NONE', #386, #11, #144, .T. ) ;
#695 = EDGE_CURVE ( 'NONE', #207, #948, #1074, .T. ) ;
#696 = ORIENTED_EDGE ( 'NONE', *, *, #501, .T. ) ;
#697 = ORIENTED_EDGE ( 'NONE', *, *, #275, .F. ) ;
#698 = VECTOR ( 'NONE', #775, 1000.000000000000000 ) ;
#699 = CARTESIAN_POINT ( 'NONE',  ( 81.31860912882999060, 43.07812467423452318, 1.832904299438456341 ) ) ;
#700 = CARTESIAN_POINT ( 'NONE',  ( 102.9146092772667060, -18.22761809843169090, 1.424388607997585598 ) ) ;
#701 = ORIENTED_EDGE ( 'NONE', *, *, #584, .T. ) ;
#702 = DIRECTION ( 'NONE',  ( -1.000000000000000000, 0.000000000000000000, 0.000000000000000000 ) ) ;
#703 = DIRECTION ( 'NONE',  ( 0.000000000000000000, -0.000000000000000000, 1.000000000000000000 ) ) ;
#704 = DIRECTION ( 'NONE',  ( -1.000000000000000000, 0.000000000000000000, 0.000000000000000000 ) ) ;
#705 = DIRECTION ( 'NONE',  ( -0.3285206249412725987, 0.9444967967061591585, 0.000000000000000000 ) ) ;
#706 = CIRCLE ( 'NONE', #200, 1.499999999999990896 ) ;
#707 = EDGE_CURVE ( 'NONE', #62, #807, #79, .T. ) ;
#708 = CLOSED_SHELL ( 'NONE', ( #226, #174, #599, #377, #370 ) ) ;
#709 = DIRECTION ( 'NONE',  ( -1.000000000000000000, 0.000000000000000000, 0.000000000000000000 ) ) ;
#710 = DIRECTION ( 'NONE',  ( -0.3420201433256628287, -0.9396926207859104263, -0.000000000000000000 ) ) ;
#711 = CARTESIAN_POINT ( 'NONE',  ( 81.89047047221153264, 43.31172801060416333, -3.000000000000000000 ) ) ;
#712 = PLANE ( 'NONE',  #1008 ) ;
#713 = DIRECTION ( 'NONE',  ( -0.3283531690704394879, 0.9445550255868629952, 0.000000000000000000 ) ) ;
#714 = EDGE_CURVE ( 'NONE', #375, #656, #545, .T. ) ;
#715 = CARTESIAN_POINT ( 'NONE',  ( 68.23955059720827876, 85.55186188631924438, 1.647987302177966740E-14 ) ) ;
#716 = VECTOR ( 'NONE', #1073, 1000.000000000000000 ) ;
#717 = FACE_OUTER_BOUND ( 'NONE', #140, .T. ) ;
#718 = ORIENTED_EDGE ( 'NONE', *, *, #290, .T. ) ;
#719 = CARTESIAN_POINT ( 'NONE',  ( 23.06786753708764337, 39.11551291291374355, 107.0000000000000000 ) ) ;
#720 = EDGE_CURVE ( 'NONE', #1072, #593, #787, .T. ) ;
#721 = DIRECTION ( 'NONE',  ( 1.000000000000000000, 0.000000000000000000, -0.000000000000000000 ) ) ;
#722 = ORIENTED_EDGE ( 'NONE', *, *, #241, .F. ) ;
#723 = CARTESIAN_POINT ( 'NONE',  ( 55.37848086014179216, 40.19162050936584762, 1.605124501849061333E-16 ) ) ;
#724 = CARTESIAN_POINT ( 'NONE',  ( 81.89047047221153264, 43.31172801060416333, -3.000000000000000000 ) ) ;
#725 = ORIENTED_EDGE ( 'NONE', *, *, #995, .T. ) ;
#726 = CARTESIAN_POINT ( 'NONE',  ( 103.6131132015512577, -19.17657206310131102, 113.0000000000000000 ) ) ;
#727 = CYLINDRICAL_SURFACE ( 'NONE', #887, 106.4338034517890321 ) ;
#728 = ORIENTED_EDGE ( 'NONE', *, *, #802, .T. ) ;
#729 = EDGE_CURVE ( 'NONE', #863, #941, #236, .T. ) ;
#730 = DIRECTION ( 'NONE',  ( 0.000000000000000000, 0.000000000000000000, 1.000000000000000000 ) ) ;
#731 = LINE ( 'NONE', #486, #592 ) ;
#732 = CARTESIAN_POINT ( 'NONE',  ( 81.87251460396460345, 43.30419935198553105, 109.6070817492043545 ) ) ;
#733 = DIRECTION ( 'NONE',  ( -0.000000000000000000, -0.000000000000000000, -1.000000000000000000 ) ) ;
#734 = EDGE_LOOP ( 'NONE', ( #1039, #640, #996, #274, #153, #657 ) ) ;
#735 = MECHANICAL_DESIGN_GEOMETRIC_PRESENTATION_REPRESENTATION (  '', ( #589 ), #597 ) ;
#736 = ORIENTED_EDGE ( 'NONE', *, *, #637, .F. ) ;
#737 = CARTESIAN_POINT ( 'NONE',  ( 81.89047047221153264, 43.31172801060416333, 110.0000000000000000 ) ) ;
#738 = CARTESIAN_POINT ( 'NONE',  ( 80.94661236705562146, 42.93234554717967910, 107.7411488538182454 ) ) ;
#739 = EDGE_CURVE ( 'NONE', #555, #94, #796, .T. ) ;
#740 = VECTOR ( 'NONE', #172, 1000.000000000000000 ) ;
#741 = VECTOR ( 'NONE', #673, 1000.000000000000000 ) ;
#742 = VECTOR ( 'NONE', #356, 1000.000000000000000 ) ;
#743 = SURFACE_SIDE_STYLE ('',( #1023 ) ) ;
#744 = ORIENTED_EDGE ( 'NONE', *, *, #137, .T. ) ;
#745 = LINE ( 'NONE', #117, #156 ) ;
#746 = DIRECTION ( 'NONE',  ( -0.000000000000000000, -0.000000000000000000, 1.000000000000000000 ) ) ;
#747 = LINE ( 'NONE', #1107, #328 ) ;
#748 = ADVANCED_FACE ( 'NONE', ( #868 ), #353, .F. ) ;
#749 = AXIS2_PLACEMENT_3D ( 'NONE', #926, #30, #911 ) ;
#750 = AXIS2_PLACEMENT_3D ( 'NONE', #82, #610, #1129 ) ;
#751 = VERTEX_POINT ( 'NONE', #459 ) ;
#752 = AXIS2_PLACEMENT_3D ( 'NONE', #97, #258, #615 ) ;
#753 = LINE ( 'NONE', #218, #658 ) ;
#754 = FACE_OUTER_BOUND ( 'NONE', #786, .T. ) ;
#755 = CARTESIAN_POINT ( 'NONE',  ( 99.14363901475020668, -21.51087612655197390, 3.000000000000016431 ) ) ;
#756 = CARTESIAN_POINT ( 'NONE',  ( 103.2604427736006585, -18.12694235588972802, -19.18336509014821445 ) ) ;
#757 = ADVANCED_FACE ( 'NONE', ( #810 ), #19, .F. ) ;
#758 = ORIENTED_EDGE ( 'NONE', *, *, #268, .T. ) ;
#759 = DIRECTION ( 'NONE',  ( -1.000000000000000000, 0.000000000000000000, 0.000000000000000000 ) ) ;
#760 = SURFACE_STYLE_USAGE ( .BOTH. , #212 ) ;
#761 = DIRECTION ( 'NONE',  ( -0.000000000000000000, -0.000000000000000000, -1.000000000000000000 ) ) ;
#762 = CARTESIAN_POINT ( 'NONE',  ( 68.23955059720827876, 85.55186188631924438, 110.0000000000000000 ) ) ;
#763 = CARTESIAN_POINT ( 'NONE',  ( 102.7230949231892936, -18.00765520551088983, 108.3742659145185172 ) ) ;
#764 = ORIENTED_EDGE ( 'NONE', *, *, #476, .T. ) ;
#765 = EDGE_CURVE ( 'NONE', #71, #603, #520, .T. ) ;
#766 = UNCERTAINTY_MEASURE_WITH_UNIT (LENGTH_MEASURE( 1.000000000000000082E-05 ), #693, 'distance_accuracy_value', 'NONE');
#767 = ORIENTED_EDGE ( 'NONE', *, *, #707, .T. ) ;
#768 = CARTESIAN_POINT ( 'NONE',  ( 66.57383863546675684, 38.24269619357230710, 107.0000000000000000 ) ) ;
#769 = EDGE_LOOP ( 'NONE', ( #80, #574 ) ) ;
#770 = ORIENTED_EDGE ( 'NONE', *, *, #13, .F. ) ;
#771 = EDGE_CURVE ( 'NONE', #1030, #593, #349, .T. ) ;
#772 = CARTESIAN_POINT ( 'NONE',  ( 99.88607041103581707, -16.55321808387209614, 106.9999999999999858 ) ) ;
#773 = ORIENTED_EDGE ( 'NONE', *, *, #964, .F. ) ;
#774 = ORIENTED_EDGE ( 'NONE', *, *, #835, .T. ) ;
#775 = DIRECTION ( 'NONE',  ( -0.000000000000000000, -0.000000000000000000, 1.000000000000000000 ) ) ;
#776 = EDGE_LOOP ( 'NONE', ( #229, #562, #1036, #933 ) ) ;
#777 = ORIENTED_EDGE ( 'NONE', *, *, #193, .T. ) ;
#778 = ADVANCED_FACE ( 'NONE', ( #92 ), #1060, .T. ) ;
#779 = FACE_OUTER_BOUND ( 'NONE', #369, .T. ) ;
#780 = CARTESIAN_POINT ( 'NONE',  ( 101.1967975468247118, -16.94883252528407525, 2.636586181970753451 ) ) ;
#781 = ORIENTED_EDGE ( 'NONE', *, *, #995, .F. ) ;
#782 = VECTOR ( 'NONE', #249, 1000.000000000000000 ) ;
#783 = CARTESIAN_POINT ( 'NONE',  ( 81.60945750965490220, 43.19548523130920614, 108.6703133670934704 ) ) ;
#784 = CARTESIAN_POINT ( 'NONE',  ( 79.07595880566000801, 42.27160230552533449, 3.000000000000016431 ) ) ;
#785 = EDGE_CURVE ( 'NONE', #302, #224, #622, .T. ) ;
#786 = EDGE_LOOP ( 'NONE', ( #160, #461, #508, #838 ) ) ;
#787 = LINE ( 'NONE', #1047, #127 ) ;
#788 = CIRCLE ( 'NONE', #641, 1.499999999999987566 ) ;
#789 = DIRECTION ( 'NONE',  ( -1.000000000000000000, 0.000000000000000000, 0.000000000000000000 ) ) ;
#790 = CARTESIAN_POINT ( 'NONE',  ( 80.80097319360893948, 42.87652466470993318, 2.386800491247836220 ) ) ;
#791 = CARTESIAN_POINT ( 'NONE',  ( 81.89047047221153264, 43.31172801060416333, 110.0000000000000000 ) ) ;
#792 = VECTOR ( 'NONE', #841, 1000.000000000000000 ) ;
#793 = EDGE_CURVE ( 'NONE', #847, #323, #474, .T. ) ;
#794 = EDGE_LOOP ( 'NONE', ( #598, #1010, #126, #282 ) ) ;
#795 = CARTESIAN_POINT ( 'NONE',  ( 82.10996971965839464, 43.40442457680531163, 3.000000000000016431 ) ) ;
#796 = LINE ( 'NONE', #900, #382 ) ;
#797 = DIRECTION ( 'NONE',  ( -0.000000000000000000, -0.000000000000000000, -1.000000000000000000 ) ) ;
#798 = DIRECTION ( 'NONE',  ( -0.9984346740684180155, -0.05593032824766881739, -0.000000000000000000 ) ) ;
#799 = ORIENTED_EDGE ( 'NONE', *, *, #20, .T. ) ;
#800 = CARTESIAN_POINT ( 'NONE',  ( 20.09779784051960405, 27.44210394604274228, 107.0000000000000000 ) ) ;
#801 = DIRECTION ( 'NONE',  ( -0.000000000000000000, -0.000000000000000000, -1.000000000000000000 ) ) ;
#802 = EDGE_CURVE ( 'NONE', #934, #151, #686, .T. ) ;
#803 = CARTESIAN_POINT ( 'NONE',  ( 24.56786753708763626, 39.11551291291374355, 107.0000000000000000 ) ) ;
#804 = CIRCLE ( 'NONE', #307, 1.499999999999990896 ) ;
#805 = PLANE ( 'NONE',  #240 ) ;
#806 =( BOUNDED_CURVE ( )  B_SPLINE_CURVE ( 3, ( #1026, #768, #936, #58 ),
 .UNSPECIFIED., .F., .F. ) 
 B_SPLINE_CURVE_WITH_KNOTS ( ( 4, 4 ),
 ( 1.624926793798160851, 2.893133169722012621 ),
 .UNSPECIFIED. ) 
 CURVE ( )  GEOMETRIC_REPRESENTATION_ITEM ( )  RATIONAL_B_SPLINE_CURVE ( ( 1.000000000000000000, 0.8704022275930145547, 0.8704022275930145547, 1.000000000000000000 ) ) 
 REPRESENTATION_ITEM ( '' )  );
#807 = VERTEX_POINT ( 'NONE', #354 ) ;
#808 = LINE ( 'NONE', #364, #445 ) ;
#809 = B_SPLINE_CURVE_WITH_KNOTS ( 'NONE', 3,
 ( #509, #326, #60, #320 ),
 .UNSPECIFIED., .F., .F.,
 ( 4, 4 ),
 ( 0.000000000000000000, 1.000000000000000000 ),
 .UNSPECIFIED. ) ;
#810 = FACE_OUTER_BOUND ( 'NONE', #1063, .T. ) ;
#811 = EDGE_CURVE ( 'NONE', #1072, #207, #971, .T. ) ;
#812 = ORIENTED_EDGE ( 'NONE', *, *, #518, .T. ) ;
#813 = DIRECTION ( 'NONE',  ( -0.9984346740684180155, -0.05593032824766882433, 0.000000000000000000 ) ) ;
#814 = FACE_OUTER_BOUND ( 'NONE', #331, .T. ) ;
#815 = VERTEX_POINT ( 'NONE', #254 ) ;
#816 = EDGE_LOOP ( 'NONE', ( #112, #725, #913, #682 ) ) ;
#817 = FACE_OUTER_BOUND ( 'NONE', #281, .T. ) ;
#818 = VERTEX_POINT ( 'NONE', #979 ) ;
#819 = EDGE_CURVE ( 'NONE', #1037, #418, #181, .T. ) ;
#820 = CARTESIAN_POINT ( 'NONE',  ( 103.2604427736006869, -18.12694235588972802, 110.0000000000000000 ) ) ;
#821 = DIRECTION ( 'NONE',  ( 1.000000000000000000, 0.000000000000000000, -0.000000000000000000 ) ) ;
#822 = CARTESIAN_POINT ( 'NONE',  ( 81.89047047221153264, 43.31172801060416333, 113.0000000000000000 ) ) ;
#823 = ORIENTED_EDGE ( 'NONE', *, *, #906, .T. ) ;
#824 = AXIS2_PLACEMENT_3D ( 'NONE', #1017, #842, #834 ) ;
#825 = ADVANCED_FACE ( 'NONE', ( #817 ), #429, .F. ) ;
#826 = CARTESIAN_POINT ( 'NONE',  ( 20.09779784051960405, 27.44210394604274228, 0.000000000000000000 ) ) ;
#827 = CARTESIAN_POINT ( 'NONE',  ( 81.89047047221153264, 43.31172801060416333, 0.000000000000000000 ) ) ;
#828 = LINE ( 'NONE', #59, #533 ) ;
#829 = AXIS2_PLACEMENT_3D ( 'NONE', #183, #797, #539 ) ;
#830 = ORIENTED_EDGE ( 'NONE', *, *, #685, .T. ) ;
#831 = LINE ( 'NONE', #638, #1 ) ;
#832 =( NAMED_UNIT ( * ) SI_UNIT ( $, .STERADIAN. ) SOLID_ANGLE_UNIT ( ) );
#833 = CARTESIAN_POINT ( 'NONE',  ( 48.04365848832858887, 49.68656181841879516, 110.0000000000000000 ) ) ;
#834 = DIRECTION ( 'NONE',  ( 1.000000000000000000, 0.000000000000000000, -0.000000000000000000 ) ) ;
#835 = EDGE_CURVE ( 'NONE', #48, #507, #1130, .T. ) ;
#836 = DIRECTION ( 'NONE',  ( -1.000000000000000000, 0.000000000000000000, 0.000000000000000000 ) ) ;
#837 = VECTOR ( 'NONE', #1121, 1000.000000000000227 ) ;
#838 = ORIENTED_EDGE ( 'NONE', *, *, #720, .T. ) ;
#839 = DIRECTION ( 'NONE',  ( 0.3285206249412724322, -0.9444967967061592695, -0.000000000000000000 ) ) ;
#840 = DIRECTION ( 'NONE',  ( 1.000000000000000000, 0.000000000000000000, -0.000000000000000000 ) ) ;
#841 = DIRECTION ( 'NONE',  ( -0.000000000000000000, -0.000000000000000000, -1.000000000000000000 ) ) ;
#842 = DIRECTION ( 'NONE',  ( 0.000000000000000000, 0.000000000000000000, 1.000000000000000000 ) ) ;
#843 = CARTESIAN_POINT ( 'NONE',  ( 100.8888687662047658, -16.82239290781934216, 107.2420322720280268 ) ) ;
#844 = EDGE_CURVE ( 'NONE', #17, #63, #1080, .T. ) ;
#845 = EDGE_CURVE ( 'NONE', #815, #751, #1084, .T. ) ;
#846 = LINE ( 'NONE', #47, #950 ) ;
#847 = VERTEX_POINT ( 'NONE', #966 ) ;
#848 = LINE ( 'NONE', #51, #346 ) ;
#849 = CARTESIAN_POINT ( 'NONE',  ( 102.9146092772667060, -18.22761809843169090, 1.424388607997585598 ) ) ;
#850 = SURFACE_STYLE_FILL_AREA ( #500 ) ;
#851 = CIRCLE ( 'NONE', #91, 109.4338034517890321 ) ;
#852 = VECTOR ( 'NONE', #1135, 1000.000000000000000 ) ;
#853 = ORIENTED_EDGE ( 'NONE', *, *, #513, .F. ) ;
#854 = ADVANCED_FACE ( 'NONE', ( #168, #118, #260 ), #8, .F. ) ;
#855 = ORIENTED_EDGE ( 'NONE', *, *, #889, .T. ) ;
#856 = CARTESIAN_POINT ( 'NONE',  ( 48.04365848832858887, 49.68656181841879516, 107.0000000000000000 ) ) ;
#857 = APPLICATION_PROTOCOL_DEFINITION ( 'draft international standard', 'automotive_design', 1998, #201 ) ;
#858 = VERTEX_POINT ( 'NONE', #849 ) ;
#859 = EDGE_LOOP ( 'NONE', ( #1009, #121, #773 ) ) ;
#860 = VECTOR ( 'NONE', #536, 1000.000000000000000 ) ;
#861 = CARTESIAN_POINT ( 'NONE',  ( 101.7721576880691430, -17.24531900516957350, 107.6504608380547694 ) ) ;
#862 = ORIENTED_EDGE ( 'NONE', *, *, #785, .F. ) ;
#863 = VERTEX_POINT ( 'NONE', #214 ) ;
#864 = SURFACE_STYLE_USAGE ( .BOTH. , #150 ) ;
#865 = DIRECTION ( 'NONE',  ( -0.3283531690704394879, 0.9445550255868629952, 0.000000000000000000 ) ) ;
#866 = CARTESIAN_POINT ( 'NONE',  ( 100.8888687662047801, -16.82239290781934926, 2.757967727971978089 ) ) ;
#867 = EDGE_LOOP ( 'NONE', ( #1117, #1004, #376, #855, #594, #344, #75 ) ) ;
#868 = FACE_OUTER_BOUND ( 'NONE', #874, .T. ) ;
#869 = EDGE_CURVE ( 'NONE', #858, #993, #257, .T. ) ;
#870 = CARTESIAN_POINT ( 'NONE',  ( 81.52411661814183219, 43.16067218994002275, 108.4980954971246803 ) ) ;
#871 = CARTESIAN_POINT ( 'NONE',  ( 20.09779784051960405, 27.44210394604274228, 110.0000000000000000 ) ) ;
#872 = ORIENTED_EDGE ( 'NONE', *, *, #811, .T. ) ;
#873 = UNCERTAINTY_MEASURE_WITH_UNIT (LENGTH_MEASURE( 1.000000000000000082E-05 ), #1105, 'distance_accuracy_value', 'NONE');
#874 = EDGE_LOOP ( 'NONE', ( #722, #1098, #1019, #475 ) ) ;
#875 = CARTESIAN_POINT ( 'NONE',  ( 20.09779784051960405, 27.44210394604274228, 0.000000000000000000 ) ) ;
#876 = LINE ( 'NONE', #340, #428 ) ;
#877 = CARTESIAN_POINT ( 'NONE',  ( 81.89047047221151843, 43.31172801060418465, 109.8018817386685271 ) ) ;
#878 = EDGE_CURVE ( 'NONE', #948, #600, #481, .T. ) ;
#879 = LINE ( 'NONE', #74, #95 ) ;
#880 = CARTESIAN_POINT ( 'NONE',  ( 48.04365848832858177, 49.68656181841880226, 3.000000000000016431 ) ) ;
#881 = CARTESIAN_POINT ( 'NONE',  ( 103.6131132015512577, -19.17657206310131102, 113.0000000000000000 ) ) ;
#882 = AXIS2_PLACEMENT_3D ( 'NONE', #163, #396, #840 ) ;
#883 = CARTESIAN_POINT ( 'NONE',  ( 81.89047047221153264, 43.31172801060416333, -3.000000000000000000 ) ) ;
#884 = DIRECTION ( 'NONE',  ( 0.9863620457337458625, 0.1645901416730049249, 0.000000000000000000 ) ) ;
#885 = DIRECTION ( 'NONE',  ( -0.9444967967061587144, -0.3285206249412738200, 0.000000000000000000 ) ) ;
#886 = AXIS2_PLACEMENT_3D ( 'NONE', #628, #1136, #180 ) ;
#887 = AXIS2_PLACEMENT_3D ( 'NONE', #213, #746, #368 ) ;
#888 = VERTEX_POINT ( 'NONE', #1101 ) ;
#889 = EDGE_CURVE ( 'NONE', #603, #94, #917, .T. ) ;
#890 = CIRCLE ( 'NONE', #385, 1.499999999999987566 ) ;
#891 = AXIS2_PLACEMENT_3D ( 'NONE', #629, #1131, #10 ) ;
#892 = FACE_OUTER_BOUND ( 'NONE', #131, .T. ) ;
#893 = CARTESIAN_POINT ( 'NONE',  ( 103.6131132015512577, -19.17657206310131102, 0.000000000000000000 ) ) ;
#894 = DIRECTION ( 'NONE',  ( 0.4580526612932596109, -0.8889250584172787573, 0.000000000000000000 ) ) ;
#895 = FACE_OUTER_BOUND ( 'NONE', #511, .T. ) ;
#896 = AXIS2_PLACEMENT_3D ( 'NONE', #219, #576, #929 ) ;
#897 = EDGE_CURVE ( 'NONE', #207, #1037, #924, .T. ) ;
#898 = CARTESIAN_POINT ( 'NONE',  ( 48.04365848832858177, 49.68656181841880226, 1.605124501849061086E-16 ) ) ;
#899 = AXIS2_PLACEMENT_3D ( 'NONE', #970, #272, #702 ) ;
#900 = CARTESIAN_POINT ( 'NONE',  ( 81.89047047221153264, 43.31172801060416333, 0.000000000000000000 ) ) ;
#901 = CARTESIAN_POINT ( 'NONE',  ( 113.2604427736006585, -17.56676220890260254, -19.18336509014821445 ) ) ;
#902 = ORIENTED_EDGE ( 'NONE', *, *, #513, .T. ) ;
#903 = DIRECTION ( 'NONE',  ( -0.000000000000000000, -0.000000000000000000, -1.000000000000000000 ) ) ;
#904 = ORIENTED_EDGE ( 'NONE', *, *, #793, .F. ) ;
#905 = CARTESIAN_POINT ( 'NONE',  ( 68.61146039255048379, 37.75615406468583757, 110.0000000000000000 ) ) ;
#906 = EDGE_CURVE ( 'NONE', #196, #582, #668, .T. ) ;
#907 = ORIENTED_EDGE ( 'NONE', *, *, #299, .F. ) ;
#908 = CARTESIAN_POINT ( 'NONE',  ( 102.9146092772666918, -18.22761809843168024, 108.5756113920024291 ) ) ;
#909 = CARTESIAN_POINT ( 'NONE',  ( 81.89047047221153264, 43.31172801060416333, 110.0000000000000000 ) ) ;
#910 = DIRECTION ( 'NONE',  ( 1.000000000000000000, 0.000000000000000000, 0.000000000000000000 ) ) ;
#911 = DIRECTION ( 'NONE',  ( 1.000000000000000000, 0.000000000000000000, 0.000000000000000000 ) ) ;
#912 = AXIS2_PLACEMENT_3D ( 'NONE', #211, #1099, #759 ) ;
#913 = ORIENTED_EDGE ( 'NONE', *, *, #487, .F. ) ;
#914 = PRODUCT ( 'jiazuizhuadou', 'jiazuizhuadou', '', ( #1034 ) ) ;
#915 = DIRECTION ( 'NONE',  ( -0.000000000000000000, 0.000000000000000000, 1.000000000000000000 ) ) ;
#916 = DIRECTION ( 'NONE',  ( 0.3283531690704394879, -0.9445550255868629952, 0.000000000000000000 ) ) ;
#917 = LINE ( 'NONE', #566, #178 ) ;
#918 = PRODUCT_RELATED_PRODUCT_CATEGORY ( 'part', '', ( #914 ) ) ;
#919 = CARTESIAN_POINT ( 'NONE',  ( 19.48936865828508758, 44.77518710757653508, 3.000000000000016431 ) ) ;
#920 = ORIENTED_EDGE ( 'NONE', *, *, #647, .F. ) ;
#921 = ORIENTED_EDGE ( 'NONE', *, *, #85, .F. ) ;
#922 = ADVANCED_FACE ( 'NONE', ( #52, #411, #142 ), #124, .F. ) ;
#923 = DIRECTION ( 'NONE',  ( 1.000000000000000000, 0.000000000000000000, 0.000000000000000000 ) ) ;
#924 = LINE ( 'NONE', #129, #234 ) ;
#925 = AXIS2_PLACEMENT_3D ( 'NONE', #612, #83, #34 ) ;
#926 = CARTESIAN_POINT ( 'NONE',  ( 0.000000000000000000, 0.000000000000000000, 0.000000000000000000 ) ) ;
#927 = ORIENTED_EDGE ( 'NONE', *, *, #765, .F. ) ;
#928 = DIRECTION ( 'NONE',  ( -1.000000000000000000, 0.000000000000000000, 0.000000000000000000 ) ) ;
#929 = DIRECTION ( 'NONE',  ( 1.000000000000000000, 0.000000000000000000, 0.000000000000000000 ) ) ;
#930 = DIRECTION ( 'NONE',  ( -1.000000000000000000, 0.000000000000000000, 0.000000000000000000 ) ) ;
#931 = ADVANCED_FACE ( 'NONE', ( #1096 ), #221, .F. ) ;
#932 = AXIS2_PLACEMENT_3D ( 'NONE', #949, #1028, #239 ) ;
#933 = ORIENTED_EDGE ( 'NONE', *, *, #958, .T. ) ;
#934 = VERTEX_POINT ( 'NONE', #578 ) ;
#935 = EDGE_CURVE ( 'NONE', #993, #94, #828, .T. ) ;
#936 = CARTESIAN_POINT ( 'NONE',  ( 54.68956040956312137, 41.08237103796012946, 107.0000000000000000 ) ) ;
#937 = DIRECTION ( 'NONE',  ( -0.000000000000000000, 0.000000000000000000, -1.000000000000000000 ) ) ;
#938 = EDGE_CURVE ( 'NONE', #489, #196, #135, .T. ) ;
#939 = EDGE_LOOP ( 'NONE', ( #503, #830, #1122, #1024, #872, #1042 ) ) ;
#940 = VECTOR ( 'NONE', #884, 1000.000000000000000 ) ;
#941 = VERTEX_POINT ( 'NONE', #40 ) ;
#942 = DIRECTION ( 'NONE',  ( -0.000000000000000000, -0.000000000000000000, -1.000000000000000000 ) ) ;
#943 = AXIS2_PLACEMENT_3D ( 'NONE', #173, #645, #789 ) ;
#944 = CARTESIAN_POINT ( 'NONE',  ( 103.6131132015512577, -19.17657206310131102, -3.000000000000000000 ) ) ;
#945 = VECTOR ( 'NONE', #231, 1000.000000000000000 ) ;
#946 = CLOSED_SHELL ( 'NONE', ( #338, #825, #233, #931, #44, #1071, #854, #922, #655, #391, #778, #631, #96, #449, #1041, #441, #111, #464, #325, #748, #199, #1054, #1078, #182, #106, #54, #757, #1027, #32 ) ) ;
#947 = EDGE_LOOP ( 'NONE', ( #146, #688, #31, #568 ) ) ;
#948 = VERTEX_POINT ( 'NONE', #654 ) ;
#949 = CARTESIAN_POINT ( 'NONE',  ( 81.89047047221153264, 43.31172801060416333, 113.0000000000000000 ) ) ;
#950 = VECTOR ( 'NONE', #301, 1000.000000000000000 ) ;
#951 = PRODUCT_DEFINITION_FORMATION_WITH_SPECIFIED_SOURCE ( '任何', '', #914, .NOT_KNOWN. ) ;
#952 = EDGE_LOOP ( 'NONE', ( #170, #968, #393, #512, #315, #322 ) ) ;
#953 = ORIENTED_EDGE ( 'NONE', *, *, #889, .F. ) ;
#954 = EDGE_CURVE ( 'NONE', #582, #48, #35, .T. ) ;
#955 = DIRECTION ( 'NONE',  ( -0.1695121062629740549, 0.9855281050433266632, 0.000000000000000000 ) ) ;
#956 = ORIENTED_EDGE ( 'NONE', *, *, #343, .T. ) ;
#957 = ORIENTED_EDGE ( 'NONE', *, *, #1002, .T. ) ;
#958 = EDGE_CURVE ( 'NONE', #375, #580, #747, .T. ) ;
#959 = DIRECTION ( 'NONE',  ( 0.4580526612932596664, -0.8889250584172787573, 0.000000000000000000 ) ) ;
#960 = DIRECTION ( 'NONE',  ( -0.9855281050433265522, -0.1695121062629740272, 0.000000000000000000 ) ) ;
#961 = PLANE ( 'NONE',  #882 ) ;
#962 = CARTESIAN_POINT ( 'NONE',  ( 113.2604427736006585, -17.56676220890260254, 110.0000000000000000 ) ) ;
#963 = FACE_OUTER_BOUND ( 'NONE', #223, .T. ) ;
#964 = EDGE_CURVE ( 'NONE', #580, #17, #430, .T. ) ;
#965 = DIRECTION ( 'NONE',  ( -0.000000000000000000, -0.000000000000000000, 1.000000000000000000 ) ) ;
#966 = CARTESIAN_POINT ( 'NONE',  ( 81.89047047221153264, 43.31172801060416333, 110.0000000000000000 ) ) ;
#967 = CARTESIAN_POINT ( 'NONE',  ( 103.6131132015512577, -19.17657206310131102, -3.000000000000000000 ) ) ;
#968 = ORIENTED_EDGE ( 'NONE', *, *, #13, .T. ) ;
#969 = CYLINDRICAL_SURFACE ( 'NONE', #1059, 1.499999999999990896 ) ;
#970 = CARTESIAN_POINT ( 'NONE',  ( 20.09779784051960405, 27.44210394604274228, -1.371604415045033344E-15 ) ) ;
#971 = LINE ( 'NONE', #1000, #982 ) ;
#972 = CARTESIAN_POINT ( 'NONE',  ( 81.52241181758964217, 43.15998248231296230, 1.505247726716985035 ) ) ;
#973 = EDGE_CURVE ( 'NONE', #941, #863, #788, .T. ) ;
#974 = CARTESIAN_POINT ( 'NONE',  ( 21.59779784051959339, 27.44210394604274228, 107.0000000000000000 ) ) ;
#975 = ORIENTED_EDGE ( 'NONE', *, *, #526, .T. ) ;
#976 = LINE ( 'NONE', #179, #417 ) ;
#977 = CARTESIAN_POINT ( 'NONE',  ( 24.56786753708763626, 39.11551291291374355, 0.000000000000000000 ) ) ;
#978 = CIRCLE ( 'NONE', #683, 1.499999999999984013 ) ;
#979 = CARTESIAN_POINT ( 'NONE',  ( 16.08362433661927327, 44.18939468785314517, 1.647987302177966740E-14 ) ) ;
#980 = LINE ( 'NONE', #176, #348 ) ;
#981 = UNCERTAINTY_MEASURE_WITH_UNIT (LENGTH_MEASURE( 1.000000000000000082E-05 ), #400, 'distance_accuracy_value', 'NONE');
#982 = VECTOR ( 'NONE', #710, 1000.000000000000227 ) ;
#983 = ORIENTED_EDGE ( 'NONE', *, *, #739, .F. ) ;
#984 = DIRECTION ( 'NONE',  ( -0.9863620457337459735, -0.1645901416730042033, 0.000000000000000000 ) ) ;
#985 = CARTESIAN_POINT ( 'NONE',  ( 54.69039712672222464, 41.08234619205441618, 3.000000000000016431 ) ) ;
#986 = EDGE_CURVE ( 'NONE', #888, #71, #261, .T. ) ;
#987 = PLANE ( 'NONE',  #1001 ) ;
#988 = ORIENTED_EDGE ( 'NONE', *, *, #771, .T. ) ;
#989 = EDGE_CURVE ( 'NONE', #151, #934, #978, .T. ) ;
#990 = PLANE ( 'NONE',  #595 ) ;
#991 = CIRCLE ( 'NONE', #1040, 1.499999999999990896 ) ;
#992 = CARTESIAN_POINT ( 'NONE',  ( 18.59779784051961116, 27.44210394604274228, 107.0000000000000000 ) ) ;
#993 = VERTEX_POINT ( 'NONE', #3 ) ;
#994 = CARTESIAN_POINT ( 'NONE',  ( 26.06786753708761850, 39.11551291291374355, 0.000000000000000000 ) ) ;
#995 = EDGE_CURVE ( 'NONE', #11, #555, #361, .T. ) ;
#996 = ORIENTED_EDGE ( 'NONE', *, *, #279, .T. ) ;
#997 = VECTOR ( 'NONE', #644, 1000.000000000000000 ) ;
#998 = ORIENTED_EDGE ( 'NONE', *, *, #679, .F. ) ;
#999 = FACE_OUTER_BOUND ( 'NONE', #563, .T. ) ;
#1000 = CARTESIAN_POINT ( 'NONE',  ( 3.564517285038907968, 1.022017551410872249, 3.000000000000016431 ) ) ;
#1001 = AXIS2_PLACEMENT_3D ( 'NONE', #901, #460, #547 ) ;
#1002 = EDGE_CURVE ( 'NONE', #5, #224, #479, .T. ) ;
#1003 = FILL_AREA_STYLE_COLOUR ( '', #238 ) ;
#1004 = ORIENTED_EDGE ( 'NONE', *, *, #611, .F. ) ;
#1005 = CYLINDRICAL_SURFACE ( 'NONE', #148, 1.499999999999984013 ) ;
#1006 = DIRECTION ( 'NONE',  ( 0.000000000000000000, 0.000000000000000000, 1.000000000000000000 ) ) ;
#1007 = SURFACE_STYLE_USAGE ( .BOTH. , #743 ) ;
#1008 = AXIS2_PLACEMENT_3D ( 'NONE', #620, #462, #813 ) ;
#1009 = ORIENTED_EDGE ( 'NONE', *, *, #476, .F. ) ;
#1010 = ORIENTED_EDGE ( 'NONE', *, *, #550, .F. ) ;
#1011 = CARTESIAN_POINT ( 'NONE',  ( 24.56786753708763626, 39.11551291291374355, -1.371604415045033344E-15 ) ) ;
#1012 = FACE_OUTER_BOUND ( 'NONE', #952, .T. ) ;
#1013 = ORIENTED_EDGE ( 'NONE', *, *, #187, .T. ) ;
#1014 = CARTESIAN_POINT ( 'NONE',  ( 103.2604427736006869, -18.12694235588972802, 109.5001542679113413 ) ) ;
#1015 = DIRECTION ( 'NONE',  ( -0.3420201433256628287, -0.9396926207859105373, 0.000000000000000000 ) ) ;
#1016 = CARTESIAN_POINT ( 'NONE',  ( 16.08362433661927327, 44.18939468785314517, 107.0000000000000000 ) ) ;
#1017 = CARTESIAN_POINT ( 'NONE',  ( 72.33404356309286243, 64.90689142463848782, 107.0000000000000000 ) ) ;
#1018 = PLANE ( 'NONE',  #300 ) ;
#1019 = ORIENTED_EDGE ( 'NONE', *, *, #435, .T. ) ;
#1020 = DIRECTION ( 'NONE',  ( -0.9396926207859105373, 0.3420201433256628287, 0.000000000000000000 ) ) ;
#1021 = CARTESIAN_POINT ( 'NONE',  ( 48.04365848832858887, 49.68656181841879516, 107.0000000000000000 ) ) ;
#1022 = DIRECTION ( 'NONE',  ( -0.000000000000000000, -0.000000000000000000, 1.000000000000000000 ) ) ;
#1023 = SURFACE_STYLE_FILL_AREA ( #676 ) ;
#1024 = ORIENTED_EDGE ( 'NONE', *, *, #290, .F. ) ;
#1025 = PRODUCT_DEFINITION_CONTEXT ( 'detailed design', #201, 'design' ) ;
#1026 = CARTESIAN_POINT ( 'NONE',  ( 79.07596521181359606, 42.27158388783376353, 107.0000000000000000 ) ) ;
#1027 = ADVANCED_FACE ( 'NONE', ( #607 ), #961, .F. ) ;
#1028 = DIRECTION ( 'NONE',  ( -0.8889250584172787573, -0.4580526612932596664, 0.000000000000000000 ) ) ;
#1029 = B_SPLINE_CURVE_WITH_KNOTS ( 'NONE', 3,
 ( #700, #608, #516, #269, #262, #159, #780, #866, #521, #185, #447, #78 ),
 .UNSPECIFIED., .F., .F.,
 ( 4, 2, 2, 2, 2, 4 ),
 ( 0.0003876576866017609796, 0.001445703313373530039, 0.002503748940145299369, 0.003032771753531181540, 0.003561794566917063712, 0.004619840193688825453 ),
 .UNSPECIFIED. ) ;
#1030 = VERTEX_POINT ( 'NONE', #660 ) ;
#1031 = MANIFOLD_SOLID_BREP ( '圆角4', #946 ) ;
#1032 = VECTOR ( 'NONE', #284, 1000.000000000000114 ) ;
#1033 = CIRCLE ( 'NONE', #39, 1.499999999999990896 ) ;
#1034 = PRODUCT_CONTEXT ( 'NONE', #515, 'mechanical' ) ;
#1035 = AXIS2_PLACEMENT_3D ( 'NONE', #342, #705, #885 ) ;
#1036 = ORIENTED_EDGE ( 'NONE', *, *, #714, .F. ) ;
#1037 = VERTEX_POINT ( 'NONE', #1094 ) ;
#1038 = AXIS2_PLACEMENT_3D ( 'NONE', #205, #293, #308 ) ;
#1039 = ORIENTED_EDGE ( 'NONE', *, *, #518, .F. ) ;
#1040 = AXIS2_PLACEMENT_3D ( 'NONE', #404, #761, #1106 ) ;
#1041 = ADVANCED_FACE ( 'NONE', ( #754 ), #312, .F. ) ;
#1042 = ORIENTED_EDGE ( 'NONE', *, *, #695, .T. ) ;
#1043 = PLANE ( 'NONE',  #932 ) ;
#1044 = DIRECTION ( 'NONE',  ( -1.000000000000000000, 0.000000000000000000, 0.000000000000000000 ) ) ;
#1045 = CARTESIAN_POINT ( 'NONE',  ( 26.06786753708762561, 39.11551291291374355, 107.0000000000000000 ) ) ;
#1046 = EDGE_LOOP ( 'NONE', ( #907, #556 ) ) ;
#1047 = CARTESIAN_POINT ( 'NONE',  ( 19.48936865828508758, 44.77518710757653508, 3.000000000000016431 ) ) ;
#1048 = CARTESIAN_POINT ( 'NONE',  ( 113.2604427736006585, -17.56676220890260254, 110.0000000000000000 ) ) ;
#1049 = CARTESIAN_POINT ( 'NONE',  ( 80.49560535015881158, 42.76206478607743122, 2.604315809471585919 ) ) ;
#1050 = ORIENTED_EDGE ( 'NONE', *, *, #819, .T. ) ;
#1051 =( BOUNDED_SURFACE ( )  B_SPLINE_SURFACE ( 3, 1, ( 
 ( #1108, #14 ),
 ( #161, #98 ),
 ( #616, #259 ),
 ( #253, #1069 ) ),
 .UNSPECIFIED., .F., .F., .F. ) 
 B_SPLINE_SURFACE_WITH_KNOTS ( ( 4, 4 ),
 ( 2, 2 ),
 ( 0.000000000000000000, 1.000000000000000000 ),
 ( 0.000000000000000000, 1.000000000000000000 ),
 .UNSPECIFIED. ) 
 GEOMETRIC_REPRESENTATION_ITEM ( )  RATIONAL_B_SPLINE_SURFACE ( (
 ( 1.000000000000000000, 1.000000000000000000),
 ( 0.8474777908794453030, 0.8474777908794453030),
 ( 0.8474777908794453030, 0.8474777908794453030),
 ( 1.000000000000000000, 1.000000000000000000) ) ) 
 REPRESENTATION_ITEM ( '' )  SURFACE ( )  );
#1052 = ORIENTED_EDGE ( 'NONE', *, *, #844, .T. ) ;
#1053 = PLANE ( 'NONE',  #752 ) ;
#1054 = ADVANCED_FACE ( 'NONE', ( #1012 ), #485, .T. ) ;
#1055 = CARTESIAN_POINT ( 'NONE',  ( 81.89047047221153264, 43.31172801060416333, 110.0000000000000000 ) ) ;
#1056 = VERTEX_POINT ( 'NONE', #133 ) ;
#1057 = DIRECTION ( 'NONE',  ( -0.9863620457337458625, -0.1645901416730049249, 0.000000000000000000 ) ) ;
#1058 = DIRECTION ( 'NONE',  ( -1.000000000000000000, 0.000000000000000000, 0.000000000000000000 ) ) ;
#1059 = AXIS2_PLACEMENT_3D ( 'NONE', #800, #627, #188 ) ;
#1060 = PLANE ( 'NONE',  #925 ) ;
#1061 = CARTESIAN_POINT ( 'NONE',  ( 81.89047047221154685, 43.31172801060416333, 0.3962294424271977644 ) ) ;
#1062 = PLANE ( 'NONE',  #648 ) ;
#1063 = EDGE_LOOP ( 'NONE', ( #1114, #953, #927, #496 ) ) ;
#1064 = CARTESIAN_POINT ( 'NONE',  ( 55.37848086014179216, 40.19162050936584762, 3.000000000000015987 ) ) ;
#1065 = CARTESIAN_POINT ( 'NONE',  ( 79.07595880566000801, 42.27160230552533449, 3.000000000000016431 ) ) ;
#1066 = LINE ( 'NONE', #351, #538 ) ;
#1067 = VERTEX_POINT ( 'NONE', #492 ) ;
#1068 = FACE_OUTER_BOUND ( 'NONE', #816, .T. ) ;
#1069 = CARTESIAN_POINT ( 'NONE',  ( 48.04365848832858887, 49.68656181841879516, 110.0000000000000000 ) ) ;
#1070 = ORIENTED_EDGE ( 'NONE', *, *, #869, .T. ) ;
#1071 = ADVANCED_FACE ( 'NONE', ( #469 ), #1091, .T. ) ;
#1072 = VERTEX_POINT ( 'NONE', #919 ) ;
#1073 = DIRECTION ( 'NONE',  ( -0.000000000000000000, -0.000000000000000000, -1.000000000000000000 ) ) ;
#1074 = CIRCLE ( 'NONE', #750, 106.4338034517890463 ) ;
#1075 = DIRECTION ( 'NONE',  ( -0.000000000000000000, -0.000000000000000000, -1.000000000000000000 ) ) ;
#1076 = VERTEX_POINT ( 'NONE', #822 ) ;
#1077 = EDGE_LOOP ( 'NONE', ( #1052, #339, #276, #157 ) ) ;
#1078 = ADVANCED_FACE ( 'NONE', ( #119 ), #1018, .T. ) ;
#1079 = PLANE ( 'NONE',  #237 ) ;
#1080 = LINE ( 'NONE', #1055, #273 ) ;
#1081 = AXIS2_PLACEMENT_3D ( 'NONE', #762, #1006, #390 ) ;
#1082 = CARTESIAN_POINT ( 'NONE',  ( 24.56786753708763626, 39.11551291291374355, 110.0000000000000000 ) ) ;
#1083 = ORIENTED_EDGE ( 'NONE', *, *, #408, .F. ) ;
#1084 = CIRCLE ( 'NONE', #591, 1.499999999999984013 ) ;
#1085 = AXIS2_PLACEMENT_3D ( 'NONE', #33, #304, #659 ) ;
#1086 = ORIENTED_EDGE ( 'NONE', *, *, #399, .T. ) ;
#1087 = LINE ( 'NONE', #128, #1097 ) ;
#1088 = PLANE ( 'NONE',  #383 ) ;
#1089 = DIRECTION ( 'NONE',  ( 1.000000000000000000, 0.000000000000000000, 0.000000000000000000 ) ) ;
#1090 = EDGE_CURVE ( 'NONE', #1076, #63, #846, .T. ) ;
#1091 = CYLINDRICAL_SURFACE ( 'NONE', #1038, 3.000000000000003109 ) ;
#1092 = EDGE_LOOP ( 'NONE', ( #744, #246, #235, #116 ) ) ;
#1093 = CARTESIAN_POINT ( 'NONE',  ( 48.04365848832858887, 49.68656181841879516, 3.000000000000016431 ) ) ;
#1094 = CARTESIAN_POINT ( 'NONE',  ( 3.564517285038907968, 1.022017551410872249, 107.0000000000000000 ) ) ;
#1095 = FACE_BOUND ( 'NONE', #630, .T. ) ;
#1096 = FACE_OUTER_BOUND ( 'NONE', #202, .T. ) ;
#1097 = VECTOR ( 'NONE', #730, 1000.000000000000000 ) ;
#1098 = ORIENTED_EDGE ( 'NONE', *, *, #115, .T. ) ;
#1099 = DIRECTION ( 'NONE',  ( -0.000000000000000000, -0.000000000000000000, -1.000000000000000000 ) ) ;
#1100 = FACE_OUTER_BOUND ( 'NONE', #939, .T. ) ;
#1101 = CARTESIAN_POINT ( 'NONE',  ( 103.6131132015512577, -19.17657206310131102, -3.000000000000000000 ) ) ;
#1102 = LINE ( 'NONE', #579, #451 ) ;
#1103 = ORIENTED_EDGE ( 'NONE', *, *, #435, .F. ) ;
#1104 = FACE_OUTER_BOUND ( 'NONE', #859, .T. ) ;
#1105 =( LENGTH_UNIT ( ) NAMED_UNIT ( * ) SI_UNIT ( .MILLI., .METRE. ) );
#1106 = DIRECTION ( 'NONE',  ( -1.000000000000000000, 0.000000000000000000, 0.000000000000000000 ) ) ;
#1107 = CARTESIAN_POINT ( 'NONE',  ( 103.6131132015512577, -19.17657206310131102, 113.0000000000000000 ) ) ;
#1108 = CARTESIAN_POINT ( 'NONE',  ( 82.10996316746535229, 43.40442473503048859, 107.0000000000000000 ) ) ;
#1109 = ORIENTED_EDGE ( 'NONE', *, *, #275, .T. ) ;
#1110 = EDGE_CURVE ( 'NONE', #323, #1056, #1102, .T. ) ;
#1111 = ORIENTED_EDGE ( 'NONE', *, *, #720, .F. ) ;
#1112 = LINE ( 'NONE', #141, #945 ) ;
#1113 = DIRECTION ( 'NONE',  ( -0.9855281050433265522, -0.1695121062629740272, 0.000000000000000000 ) ) ;
#1114 = ORIENTED_EDGE ( 'NONE', *, *, #739, .T. ) ;
#1115 = EDGE_CURVE ( 'NONE', #625, #497, #1033, .T. ) ;
#1116 = CARTESIAN_POINT ( 'NONE',  ( 101.3446669690934954, -17.01849391472494588, 107.4308957504761537 ) ) ;
#1117 = ORIENTED_EDGE ( 'NONE', *, *, #217, .F. ) ;
#1118 = AXIS2_PLACEMENT_3D ( 'NONE', #494, #480, #488 ) ;
#1119 = ORIENTED_EDGE ( 'NONE', *, *, #252, .F. ) ;
#1120 = VECTOR ( 'NONE', #894, 1000.000000000000000 ) ;
#1121 = DIRECTION ( 'NONE',  ( -0.3420201433256628287, -0.9396926207859104263, -0.000000000000000000 ) ) ;
#1122 = ORIENTED_EDGE ( 'NONE', *, *, #694, .F. ) ;
#1123 = ORIENTED_EDGE ( 'NONE', *, *, #714, .T. ) ;
#1124 = CARTESIAN_POINT ( 'NONE',  ( 23.06786753708764337, 39.11551291291374355, -1.371604415045033344E-15 ) ) ;
#1125 = CARTESIAN_POINT ( 'NONE',  ( 79.44942550219060706, 42.39369471777829546, 2.980577443665255455 ) ) ;
#1126 = LINE ( 'NONE', #337, #742 ) ;
#1127 = VECTOR ( 'NONE', #713, 1000.000000000000114 ) ;
#1128 = ORIENTED_EDGE ( 'NONE', *, *, #611, .T. ) ;
#1129 = DIRECTION ( 'NONE',  ( -1.000000000000000000, 0.000000000000000000, 0.000000000000000000 ) ) ;
#1130 = LINE ( 'NONE', #1048, #442 ) ;
#1131 = DIRECTION ( 'NONE',  ( 0.000000000000000000, 0.000000000000000000, 1.000000000000000000 ) ) ;
#1132 = ORIENTED_EDGE ( 'NONE', *, *, #670, .F. ) ;
#1133 = EDGE_CURVE ( 'NONE', #543, #302, #890, .T. ) ;
#1134 = VECTOR ( 'NONE', #306, 1000.000000000000000 ) ;
#1135 = DIRECTION ( 'NONE',  ( -0.000000000000000000, -0.000000000000000000, 1.000000000000000000 ) ) ;
#1136 = DIRECTION ( 'NONE',  ( -0.000000000000000000, -0.000000000000000000, -1.000000000000000000 ) ) ;
ENDSEC;
END-ISO-10303-21;
