ISO-10303-21;
HEADER;
FILE_DESCRIPTION (( 'STEP AP214' ),
    '1' );
FILE_NAME ('抓斗主体gai1.STEP',
    '2026-07-23T01:50:09',
    ( '' ),
    ( '' ),
    'SwSTEP 2.0',
    'SolidWorks 2020',
    '' );
FILE_SCHEMA (( 'AUTOMOTIVE_DESIGN' ));
ENDSEC;

DATA;
#1 = ORIENTED_EDGE ( 'NONE', *, *, #643, .F. ) ;
#2 = CARTESIAN_POINT ( 'NONE',  ( 5.999999999999999112, 80.21694815573088988, 115.0000000000000000 ) ) ;
#3 = VERTEX_POINT ( 'NONE', #504 ) ;
#4 = CARTESIAN_POINT ( 'NONE',  ( 3.238554122740059604, -44.27439268427917796, -5.000000000000000000 ) ) ;
#5 = EDGE_CURVE ( 'NONE', #89, #1016, #750, .T. ) ;
#6 = ORIENTED_EDGE ( 'NONE', *, *, #959, .F. ) ;
#7 = CARTESIAN_POINT ( 'NONE',  ( 5.999999999999999112, 80.21694815573088988, 110.0000000000000000 ) ) ;
#8 = FACE_BOUND ( 'NONE', #364, .T. ) ;
#9 = EDGE_CURVE ( 'NONE', #519, #986, #804, .T. ) ;
#10 = ORIENTED_EDGE ( 'NONE', *, *, #181, .T. ) ;
#11 = ADVANCED_FACE ( 'NONE', ( #85 ), #955, .F. ) ;
#12 = VERTEX_POINT ( 'NONE', #101 ) ;
#13 = DIRECTION ( 'NONE',  ( 0.9444967967061590475, 0.3285206249412725987, 0.000000000000000000 ) ) ;
#14 = DIRECTION ( 'NONE',  ( -0.9444967967061590475, -0.3285206249412728208, 1.224646799147353454E-16 ) ) ;
#15 = CARTESIAN_POINT ( 'NONE',  ( 9.499999999999998224, 91.72999574244265375, 115.0000000000000000 ) ) ;
#16 = ORIENTED_EDGE ( 'NONE', *, *, #609, .F. ) ;
#17 = CARTESIAN_POINT ( 'NONE',  ( 2.552618172448697376, 90.88786719041692663, 8.241551810393406166E-15 ) ) ;
#18 = CARTESIAN_POINT ( 'NONE',  ( 158.5612072594212236, -20.27976302443159540, 0.000000000000000000 ) ) ;
#19 = LINE ( 'NONE', #886, #258 ) ;
#20 = EDGE_LOOP ( 'NONE', ( #351, #47, #810, #270, #723, #736, #746, #629, #302, #556, #700 ) ) ;
#21 = EDGE_CURVE ( 'NONE', #89, #589, #478, .T. ) ;
#22 = DIRECTION ( 'NONE',  ( 0.000000000000000000, 0.000000000000000000, 1.000000000000000000 ) ) ;
#23 = CARTESIAN_POINT ( 'NONE',  ( 166.3280630489283567, -23.44692499110124473, 0.000000000000000000 ) ) ;
#24 = LINE ( 'NONE', #98, #215 ) ;
#25 = ORIENTED_EDGE ( 'NONE', *, *, #841, .T. ) ;
#26 = AXIS2_PLACEMENT_3D ( 'NONE', #283, #657, #213 ) ;
#27 = AXIS2_PLACEMENT_3D ( 'NONE', #756, #60, #375 ) ;
#28 = DIRECTION ( 'NONE',  ( 0.000000000000000000, 0.000000000000000000, -1.000000000000000000 ) ) ;
#29 = CARTESIAN_POINT ( 'NONE',  ( 158.5612072594404367, -20.27976302442666068, 110.0000000000000000 ) ) ;
#30 = VERTEX_POINT ( 'NONE', #473 ) ;
#31 = EDGE_LOOP ( 'NONE', ( #766, #713, #269, #380 ) ) ;
#32 = DIRECTION ( 'NONE',  ( 0.000000000000000000, 0.000000000000000000, 1.000000000000000000 ) ) ;
#33 = FACE_BOUND ( 'NONE', #437, .T. ) ;
#34 = EDGE_LOOP ( 'NONE', ( #10, #840, #39, #939 ) ) ;
#35 = ORIENTED_EDGE ( 'NONE', *, *, #949, .F. ) ;
#36 = CARTESIAN_POINT ( 'NONE',  ( -5.000000000000000000, -2.041386134000273689, -5.000000000000000000 ) ) ;
#37 = FACE_BOUND ( 'NONE', #661, .T. ) ;
#38 = EDGE_CURVE ( 'NONE', #627, #480, #411, .T. ) ;
#39 = ORIENTED_EDGE ( 'NONE', *, *, #339, .F. ) ;
#40 = ORIENTED_EDGE ( 'NONE', *, *, #958, .T. ) ;
#41 = AXIS2_PLACEMENT_3D ( 'NONE', #741, #671, #558 ) ;
#42 = CARTESIAN_POINT ( 'NONE',  ( -1.642603124706362827, 94.72248398353079324, 115.0000000000000000 ) ) ;
#43 = VECTOR ( 'NONE', #1001, 1000.000000000000114 ) ;
#44 = LINE ( 'NONE', #443, #212 ) ;
#45 = AXIS2_PLACEMENT_3D ( 'NONE', #148, #459, #628 ) ;
#46 = DIRECTION ( 'NONE',  ( 1.000000000000000000, 0.000000000000000000, -0.000000000000000000 ) ) ;
#47 = ORIENTED_EDGE ( 'NONE', *, *, #163, .T. ) ;
#48 = VERTEX_POINT ( 'NONE', #91 ) ;
#49 = CARTESIAN_POINT ( 'NONE',  ( 1.500000000000001332, 97.95861386599972320, 115.0000000000000000 ) ) ;
#50 = CARTESIAN_POINT ( 'NONE',  ( 2.552618172448697820, 90.88786719041692663, 110.0000000000000000 ) ) ;
#51 = VERTEX_POINT ( 'NONE', #173 ) ;
#52 = PLANE ( 'NONE',  #335 ) ;
#53 = EDGE_CURVE ( 'NONE', #519, #30, #555, .T. ) ;
#54 = FACE_OUTER_BOUND ( 'NONE', #664, .T. ) ;
#55 = EDGE_LOOP ( 'NONE', ( #603, #633, #183, #230, #458, #360 ) ) ;
#56 = CARTESIAN_POINT ( 'NONE',  ( 9.499999999999998224, 91.72999574244265375, -5.000000000000004441 ) ) ;
#57 = DIRECTION ( 'NONE',  ( 1.000000000000000000, 0.000000000000000000, 0.000000000000000000 ) ) ;
#58 = CIRCLE ( 'NONE', #451, 1.500000000000001332 ) ;
#59 = CIRCLE ( 'NONE', #686, 1.500000000000001332 ) ;
#60 = DIRECTION ( 'NONE',  ( -0.000000000000000000, -0.000000000000000000, 1.000000000000000000 ) ) ;
#61 = EDGE_LOOP ( 'NONE', ( #610, #774, #297, #348 ) ) ;
#62 = DIRECTION ( 'NONE',  ( 0.9444967967061589365, 0.3285206249412732094, 0.000000000000000000 ) ) ;
#63 = LINE ( 'NONE', #466, #502 ) ;
#64 = CARTESIAN_POINT ( 'NONE',  ( 165.9794533151016651, -22.96377384346484973, 36.66666666666665719 ) ) ;
#65 = EDGE_CURVE ( 'NONE', #274, #526, #961, .T. ) ;
#66 = ORIENTED_EDGE ( 'NONE', *, *, #400, .F. ) ;
#67 = CARTESIAN_POINT ( 'NONE',  ( 165.9794533152216616, -22.96377384363113094, 109.9999999999999858 ) ) ;
#68 = CYLINDRICAL_SURFACE ( 'NONE', #900, 1.500000000000001332 ) ;
#69 = ORIENTED_EDGE ( 'NONE', *, *, #53, .F. ) ;
#70 = LINE ( 'NONE', #864, #921 ) ;
#71 = EDGE_CURVE ( 'NONE', #851, #378, #574, .T. ) ;
#72 = ORIENTED_EDGE ( 'NONE', *, *, #949, .T. ) ;
#73 = EDGE_CURVE ( 'NONE', #480, #519, #312, .T. ) ;
#74 = CARTESIAN_POINT ( 'NONE',  ( 0.9100150477423309958, 95.61035117394777672, 110.0000000000000000 ) ) ;
#75 = SURFACE_SIDE_STYLE ('',( #870 ) ) ;
#76 = VECTOR ( 'NONE', #14, 1000.000000000000114 ) ;
#77 = AXIS2_PLACEMENT_3D ( 'NONE', #762, #457, #379 ) ;
#78 = ORIENTED_EDGE ( 'NONE', *, *, #38, .T. ) ;
#79 =( GEOMETRIC_REPRESENTATION_CONTEXT ( 3 ) GLOBAL_UNCERTAINTY_ASSIGNED_CONTEXT ( ( #155 ) ) GLOBAL_UNIT_ASSIGNED_CONTEXT ( ( #232, #142, #1011 ) ) REPRESENTATION_CONTEXT ( 'NONE', 'WORKASPACE' ) );
#80 = ADVANCED_FACE ( 'NONE', ( #320, #8, #888 ), #965, .F. ) ;
#81 = CARTESIAN_POINT ( 'NONE',  ( 1.500000000000001332, 97.95861386599972320, -12.85140192875468301 ) ) ;
#82 = ORIENTED_EDGE ( 'NONE', *, *, #217, .F. ) ;
#83 = DIRECTION ( 'NONE',  ( 0.9973354211475332631, 0.07295243467131531934, 0.000000000000000000 ) ) ;
#84 = EDGE_CURVE ( 'NONE', #687, #292, #338, .T. ) ;
#85 = FACE_OUTER_BOUND ( 'NONE', #819, .T. ) ;
#86 = LINE ( 'NONE', #624, #316 ) ;
#87 = ADVANCED_FACE ( 'NONE', ( #483 ), #260, .T. ) ;
#88 = CARTESIAN_POINT ( 'NONE',  ( 163.1857004021966873, -19.09180816062013264, 127.0000000000000000 ) ) ;
#89 = VERTEX_POINT ( 'NONE', #730 ) ;
#90 = LINE ( 'NONE', #969, #866 ) ;
#91 = CARTESIAN_POINT ( 'NONE',  ( -4.999999999999998224, 97.95861386599972320, 115.0000000000000000 ) ) ;
#92 = DIRECTION ( 'NONE',  ( 1.000000000000000000, 0.000000000000000000, 0.000000000000000000 ) ) ;
#93 = DIRECTION ( 'NONE',  ( 0.000000000000000000, 0.000000000000000000, 1.000000000000000000 ) ) ;
#94 = EDGE_LOOP ( 'NONE', ( #435, #125, #25, #981 ) ) ;
#95 = AXIS2_PLACEMENT_3D ( 'NONE', #172, #881, #630 ) ;
#96 = FACE_OUTER_BOUND ( 'NONE', #837, .T. ) ;
#97 = FACE_OUTER_BOUND ( 'NONE', #897, .T. ) ;
#98 = CARTESIAN_POINT ( 'NONE',  ( 64.47217264472477893, 117.7189277294198746, 110.0000000000000000 ) ) ;
#99 = EDGE_CURVE ( 'NONE', #910, #806, #948, .T. ) ;
#100 = EDGE_LOOP ( 'NONE', ( #475, #855, #906, #823 ) ) ;
#101 = CARTESIAN_POINT ( 'NONE',  ( 158.5612072594212236, -20.27976302443159540, 0.000000000000000000 ) ) ;
#102 = CARTESIAN_POINT ( 'NONE',  ( 5.999999999999999112, 80.21694815573088988, -5.000000000000004441 ) ) ;
#103 = VERTEX_POINT ( 'NONE', #165 ) ;
#104 = DIRECTION ( 'NONE',  ( 0.000000000000000000, 0.000000000000000000, 1.000000000000000000 ) ) ;
#105 = LINE ( 'NONE', #890, #635 ) ;
#106 = ORIENTED_EDGE ( 'NONE', *, *, #422, .T. ) ;
#107 = ORIENTED_EDGE ( 'NONE', *, *, #162, .T. ) ;
#108 = VECTOR ( 'NONE', #22, 1000.000000000000000 ) ;
#109 = DIRECTION ( 'NONE',  ( 1.000000000000000000, 0.000000000000000000, 0.000000000000000000 ) ) ;
#110 = VECTOR ( 'NONE', #764, 1000.000000000000227 ) ;
#111 = ADVANCED_FACE ( 'NONE', ( #97 ), #242, .F. ) ;
#112 = DIRECTION ( 'NONE',  ( 0.000000000000000000, 0.000000000000000000, -1.000000000000000000 ) ) ;
#113 = B_SPLINE_CURVE_WITH_KNOTS ( 'NONE', 3,
 ( #936, #64, #294, #849 ),
 .UNSPECIFIED., .F., .F.,
 ( 4, 4 ),
 ( 0.000000000000000000, 1.000000000000000000 ),
 .UNSPECIFIED. ) ;
#114 = CARTESIAN_POINT ( 'NONE',  ( 158.5612072594182678, -20.27976302443235568, 127.0000000000000000 ) ) ;
#115 = ORIENTED_EDGE ( 'NONE', *, *, #9, .T. ) ;
#116 = ORIENTED_EDGE ( 'NONE', *, *, #341, .F. ) ;
#117 = ORIENTED_EDGE ( 'NONE', *, *, #1005, .T. ) ;
#118 = CARTESIAN_POINT ( 'NONE',  ( 1.225127307951725975, 95.71995543836838749, -12.85140192875468301 ) ) ;
#119 = EDGE_CURVE ( 'NONE', #627, #12, #157, .T. ) ;
#120 = DIRECTION ( 'NONE',  ( -0.5851234318577752669, 0.8109442456118541864, 0.000000000000000000 ) ) ;
#121 = ORIENTED_EDGE ( 'NONE', *, *, #958, .F. ) ;
#122 = VERTEX_POINT ( 'NONE', #646 ) ;
#123 = CARTESIAN_POINT ( 'NONE',  ( 12.50000000000000000, 91.72999574244265375, 115.0000000000000000 ) ) ;
#124 = DIRECTION ( 'NONE',  ( 0.000000000000000000, 0.000000000000000000, 1.000000000000000000 ) ) ;
#125 = ORIENTED_EDGE ( 'NONE', *, *, #708, .F. ) ;
#126 = VERTEX_POINT ( 'NONE', #253 ) ;
#127 = VECTOR ( 'NONE', #327, 1000.000000000000000 ) ;
#128 = LINE ( 'NONE', #362, #669 ) ;
#129 = VECTOR ( 'NONE', #941, 1000.000000000000000 ) ;
#130 = EDGE_CURVE ( 'NONE', #760, #718, #569, .T. ) ;
#131 = ORIENTED_EDGE ( 'NONE', *, *, #305, .T. ) ;
#132 = DIRECTION ( 'NONE',  ( 0.3285206249412732094, -0.9444967967061589365, 0.000000000000000000 ) ) ;
#133 = CARTESIAN_POINT ( 'NONE',  ( 116.6563596521674953, -31.04441679196611048, 110.0000000000000000 ) ) ;
#134 = ORIENTED_EDGE ( 'NONE', *, *, #38, .F. ) ;
#135 = CARTESIAN_POINT ( 'NONE',  ( 165.9794533150138420, -22.96377384334319771, 31.00000000000005329 ) ) ;
#136 = DIRECTION ( 'NONE',  ( 0.5851234318577752669, -0.8109442456118542975, 0.000000000000000000 ) ) ;
#137 = CARTESIAN_POINT ( 'NONE',  ( 5.999999999999999112, 80.21694815573088988, 110.0000000000000000 ) ) ;
#138 = VERTEX_POINT ( 'NONE', #523 ) ;
#139 = DIRECTION ( 'NONE',  ( 0.9685535488450383035, 0.2488051909018016428, 0.000000000000000000 ) ) ;
#140 = CARTESIAN_POINT ( 'NONE',  ( 12.50000000000000000, 91.72999574244265375, -5.000000000000004441 ) ) ;
#141 = EDGE_CURVE ( 'NONE', #696, #194, #239, .T. ) ;
#142 =( NAMED_UNIT ( * ) PLANE_ANGLE_UNIT ( ) SI_UNIT ( $, .RADIAN. ) );
#143 =( GEOMETRIC_REPRESENTATION_CONTEXT ( 3 ) GLOBAL_UNCERTAINTY_ASSIGNED_CONTEXT ( ( #474 ) ) GLOBAL_UNIT_ASSIGNED_CONTEXT ( ( #468, #392, #631 ) ) REPRESENTATION_CONTEXT ( 'NONE', 'WORKASPACE' ) );
#144 = ORIENTED_EDGE ( 'NONE', *, *, #848, .T. ) ;
#145 = PLANE ( 'NONE',  #485 ) ;
#146 = CARTESIAN_POINT ( 'NONE',  ( 166.3280630489283567, -23.44692499110124473, 115.0000000000000000 ) ) ;
#147 = EDGE_CURVE ( 'NONE', #103, #138, #349, .T. ) ;
#148 = CARTESIAN_POINT ( 'NONE',  ( 11.00000000000000000, 91.72999574244265375, 110.0000000000000000 ) ) ;
#149 = EDGE_CURVE ( 'NONE', #233, #126, #203, .T. ) ;
#150 = ORIENTED_EDGE ( 'NONE', *, *, #245, .T. ) ;
#151 = CARTESIAN_POINT ( 'NONE',  ( 1.225127307951725975, 95.71995543836838749, -5.000000000000000888 ) ) ;
#152 = LINE ( 'NONE', #309, #540 ) ;
#153 = EDGE_LOOP ( 'NONE', ( #667, #160, #318, #809 ) ) ;
#154 = CARTESIAN_POINT ( 'NONE',  ( 85.00000000000000000, 84.70537173048707302, 110.0000000000000000 ) ) ;
#155 = UNCERTAINTY_MEASURE_WITH_UNIT (LENGTH_MEASURE( 1.000000000000000082E-05 ), #232, 'distance_accuracy_value', 'NONE');
#156 = AXIS2_PLACEMENT_3D ( 'NONE', #304, #607, #773 ) ;
#157 =( BOUNDED_CURVE ( )  B_SPLINE_CURVE ( 2, ( #711, #720, #18 ),
 .UNSPECIFIED., .F., .T. ) 
 B_SPLINE_CURVE_WITH_KNOTS ( ( 3, 3 ),
 ( 0.000000000000000000, 1.000000000000000000 ),
 .UNSPECIFIED. ) 
 CURVE ( )  GEOMETRIC_REPRESENTATION_ITEM ( )  RATIONAL_B_SPLINE_CURVE ( ( 1.000000000000000000, 0.5782856374288782852, 1.000000000000000000 ) ) 
 REPRESENTATION_ITEM ( '' )  );
#158 = CIRCLE ( 'NONE', #77, 1.500000000000002220 ) ;
#159 = VECTOR ( 'NONE', #495, 1000.000000000000000 ) ;
#160 = ORIENTED_EDGE ( 'NONE', *, *, #802, .T. ) ;
#161 = CIRCLE ( 'NONE', #715, 1.500000000000002220 ) ;
#162 = EDGE_CURVE ( 'NONE', #560, #718, #440, .T. ) ;
#163 = EDGE_CURVE ( 'NONE', #875, #306, #44, .T. ) ;
#164 = DIRECTION ( 'NONE',  ( 0.000000000000000000, 0.000000000000000000, 1.000000000000000000 ) ) ;
#165 = CARTESIAN_POINT ( 'NONE',  ( 4.499999999999997335, 80.21694815573088988, -5.000000000000004441 ) ) ;
#166 = DIRECTION ( 'NONE',  ( 0.000000000000000000, 0.000000000000000000, 1.000000000000000000 ) ) ;
#167 = ORIENTED_EDGE ( 'NONE', *, *, #557, .F. ) ;
#168 = FACE_OUTER_BOUND ( 'NONE', #55, .T. ) ;
#169 = DIRECTION ( 'NONE',  ( 0.000000000000000000, 0.000000000000000000, 1.000000000000000000 ) ) ;
#170 = CARTESIAN_POINT ( 'NONE',  ( 0.000000000000000000, 90.00000000000000000, 110.0000000000000000 ) ) ;
#171 = ORIENTED_EDGE ( 'NONE', *, *, #373, .T. ) ;
#172 = CARTESIAN_POINT ( 'NONE',  ( 1.225127307951725975, 95.71995543836838749, -12.85140192875468301 ) ) ;
#173 = CARTESIAN_POINT ( 'NONE',  ( 1.225127307951725975, 95.71995543836838749, -5.000000000000000888 ) ) ;
#174 = CARTESIAN_POINT ( 'NONE',  ( 116.6489841005291055, -31.01570510517143475, 0.000000000000000000 ) ) ;
#175 = ORIENTED_EDGE ( 'NONE', *, *, #907, .T. ) ;
#176 = VECTOR ( 'NONE', #83, 1000.000000000000000 ) ;
#177 = PRESENTATION_LAYER_ASSIGNMENT (  '', '', ( #852 ) ) ;
#178 = DIRECTION ( 'NONE',  ( 1.000000000000000000, 0.000000000000000000, 0.000000000000000000 ) ) ;
#179 = CARTESIAN_POINT ( 'NONE',  ( 9.499999999999998224, 91.72999574244265375, -5.000000000000004441 ) ) ;
#180 = PRODUCT_CONTEXT ( 'NONE', #210, 'mechanical' ) ;
#181 = EDGE_CURVE ( 'NONE', #760, #506, #425, .T. ) ;
#182 = CARTESIAN_POINT ( 'NONE',  ( 0.000000000000000000, 90.00000000000000000, 0.000000000000000000 ) ) ;
#183 = ORIENTED_EDGE ( 'NONE', *, *, #930, .F. ) ;
#184 = DIRECTION ( 'NONE',  ( -0.9444967967061591585, -0.3285206249412725987, 0.000000000000000000 ) ) ;
#185 = DIRECTION ( 'NONE',  ( -0.000000000000000000, -0.000000000000000000, -1.000000000000000000 ) ) ;
#186 = LINE ( 'NONE', #572, #197 ) ;
#187 = EDGE_LOOP ( 'NONE', ( #35, #465, #514, #735 ) ) ;
#188 = EDGE_CURVE ( 'NONE', #757, #637, #324, .T. ) ;
#189 = VERTEX_POINT ( 'NONE', #271 ) ;
#190 = CARTESIAN_POINT ( 'NONE',  ( 11.00000000000000000, 91.72999574244265375, 110.0000000000000000 ) ) ;
#191 = FACE_OUTER_BOUND ( 'NONE', #347, .T. ) ;
#192 = CARTESIAN_POINT ( 'NONE',  ( 158.5612072594276469, -20.27976302442995760, 36.66666666666669983 ) ) ;
#193 = EDGE_LOOP ( 'NONE', ( #742, #706, #1012, #928 ) ) ;
#194 = VERTEX_POINT ( 'NONE', #123 ) ;
#195 = ADVANCED_FACE ( 'NONE', ( #54 ), #428, .T. ) ;
#196 = AXIS2_PLACEMENT_3D ( 'NONE', #226, #924, #57 ) ;
#197 = VECTOR ( 'NONE', #479, 1000.000000000000000 ) ;
#198 = CARTESIAN_POINT ( 'NONE',  ( 9.499999999999998224, 91.72999574244265375, -5.000000000000004441 ) ) ;
#199 = CARTESIAN_POINT ( 'NONE',  ( 4.499999999999997335, 80.21694815573088988, 110.0000000000000000 ) ) ;
#200 = ORIENTED_EDGE ( 'NONE', *, *, #254, .T. ) ;
#201 = ORIENTED_EDGE ( 'NONE', *, *, #728, .F. ) ;
#202 = PLANE ( 'NONE',  #731 ) ;
#203 = LINE ( 'NONE', #814, #384 ) ;
#204 = DIRECTION ( 'NONE',  ( -0.000000000000000000, -1.000000000000000000, -0.000000000000000000 ) ) ;
#205 = ORIENTED_EDGE ( 'NONE', *, *, #826, .T. ) ;
#206 = ORIENTED_EDGE ( 'NONE', *, *, #1013, .F. ) ;
#207 = CARTESIAN_POINT ( 'NONE',  ( 23.90645879363140835, 29.49557540451662518, 8.241551810393406166E-15 ) ) ;
#208 = EDGE_CURVE ( 'NONE', #793, #48, #917, .T. ) ;
#209 = CARTESIAN_POINT ( 'NONE',  ( 0.000000000000000000, 0.000000000000000000, 110.0000000000000000 ) ) ;
#210 = APPLICATION_CONTEXT ( 'automotive_design' ) ;
#211 = ORIENTED_EDGE ( 'NONE', *, *, #826, .F. ) ;
#212 = VECTOR ( 'NONE', #994, 1000.000000000000000 ) ;
#213 = DIRECTION ( 'NONE',  ( 1.000000000000000000, 0.000000000000000000, 0.000000000000000000 ) ) ;
#214 = CIRCLE ( 'NONE', #356, 1.500000000000001332 ) ;
#215 = VECTOR ( 'NONE', #249, 1000.000000000000000 ) ;
#216 = PLANE ( 'NONE',  #389 ) ;
#217 = EDGE_CURVE ( 'NONE', #687, #103, #484, .T. ) ;
#218 = ORIENTED_EDGE ( 'NONE', *, *, #65, .T. ) ;
#219 = LINE ( 'NONE', #151, #604 ) ;
#220 = CARTESIAN_POINT ( 'NONE',  ( 3.238554122740059604, -44.27439268427917796, 114.9999999999999858 ) ) ;
#221 = VERTEX_POINT ( 'NONE', #578 ) ;
#222 = CARTESIAN_POINT ( 'NONE',  ( 11.00000000000000000, 91.72999574244265375, -5.000000000000004441 ) ) ;
#223 = CARTESIAN_POINT ( 'NONE',  ( 0.000000000000000000, 0.000000000000000000, 110.0000000000000000 ) ) ;
#224 = ORIENTED_EDGE ( 'NONE', *, *, #763, .F. ) ;
#225 = PRODUCT_DEFINITION ( '未知', '', #836, #925 ) ;
#226 = CARTESIAN_POINT ( 'NONE',  ( 5.999999999999999112, 80.21694815573088988, -5.000000000000004441 ) ) ;
#227 = AXIS2_PLACEMENT_3D ( 'NONE', #803, #960, #13 ) ;
#228 = CARTESIAN_POINT ( 'NONE',  ( 9.499999999999998224, 91.72999574244265375, 110.0000000000000000 ) ) ;
#229 = COLOUR_RGB ( '',0.7921568627450980005, 0.8196078431372548767, 0.9333333333333333481 ) ;
#230 = ORIENTED_EDGE ( 'NONE', *, *, #658, .F. ) ;
#231 = CARTESIAN_POINT ( 'NONE',  ( 166.3280630489283567, -23.44692499110124473, -4.999999999999990230 ) ) ;
#232 =( LENGTH_UNIT ( ) NAMED_UNIT ( * ) SI_UNIT ( .MILLI., .METRE. ) );
#233 = VERTEX_POINT ( 'NONE', #677 ) ;
#234 = DIRECTION ( 'NONE',  ( -0.000000000000000000, -0.000000000000000000, 1.000000000000000000 ) ) ;
#235 = SURFACE_STYLE_USAGE ( .BOTH. , #75 ) ;
#236 = ADVANCED_FACE ( 'NONE', ( #37, #997, #977 ), #345, .T. ) ;
#237 = ORIENTED_EDGE ( 'NONE', *, *, #5, .F. ) ;
#238 = CARTESIAN_POINT ( 'NONE',  ( 116.6563596521674953, -31.04441679196611048, 110.0000000000000000 ) ) ;
#239 = CIRCLE ( 'NONE', #811, 1.500000000000001332 ) ;
#240 = CIRCLE ( 'NONE', #732, 120.0000000000000142 ) ;
#241 = VERTEX_POINT ( 'NONE', #820 ) ;
#242 = CYLINDRICAL_SURFACE ( 'NONE', #332, 1.500000000000002220 ) ;
#243 = CARTESIAN_POINT ( 'NONE',  ( 2.552618172448715139, 90.88786719041694084, 110.0000000000000000 ) ) ;
#244 = ORIENTED_EDGE ( 'NONE', *, *, #1021, .F. ) ;
#245 = EDGE_CURVE ( 'NONE', #450, #30, #825, .T. ) ;
#246 = CARTESIAN_POINT ( 'NONE',  ( 9.499999999999998224, 91.72999574244265375, 0.000000000000000000 ) ) ;
#247 = CARTESIAN_POINT ( 'NONE',  ( 191.5687344665733463, -30.49854066213573489, 114.9999999999999858 ) ) ;
#248 = APPLICATION_PROTOCOL_DEFINITION ( 'draft international standard', 'automotive_design', 1998, #210 ) ;
#249 = DIRECTION ( 'NONE',  ( 0.000000000000000000, 0.000000000000000000, -1.000000000000000000 ) ) ;
#250 = ORIENTED_EDGE ( 'NONE', *, *, #279, .T. ) ;
#251 = CARTESIAN_POINT ( 'NONE',  ( 117.9003856066764513, -35.88718453619132021, -5.000000000000000000 ) ) ;
#252 = ADVANCED_FACE ( 'NONE', ( #191 ), #433, .F. ) ;
#253 = CARTESIAN_POINT ( 'NONE',  ( 1.500000000000001332, 97.95861386599972320, -5.000000000000000888 ) ) ;
#254 = EDGE_CURVE ( 'NONE', #48, #89, #128, .T. ) ;
#255 = VECTOR ( 'NONE', #28, 1000.000000000000000 ) ;
#256 = CARTESIAN_POINT ( 'NONE',  ( 116.6563596521674953, -31.04441679196611048, 0.000000000000000000 ) ) ;
#257 = ORIENTED_EDGE ( 'NONE', *, *, #771, .T. ) ;
#258 = VECTOR ( 'NONE', #565, 1000.000000000000000 ) ;
#259 = PLANE ( 'NONE',  #95 ) ;
#260 = PLANE ( 'NONE',  #352 ) ;
#261 =( LENGTH_UNIT ( ) NAMED_UNIT ( * ) SI_UNIT ( .MILLI., .METRE. ) );
#262 = EDGE_CURVE ( 'NONE', #691, #274, #850, .T. ) ;
#263 = CARTESIAN_POINT ( 'NONE',  ( 158.5612072594404367, -20.27976302442666068, 110.0000000000000000 ) ) ;
#264 = VERTEX_POINT ( 'NONE', #583 ) ;
#265 = DIRECTION ( 'NONE',  ( -0.07295243467131531934, 0.9973354211475332631, 0.000000000000000000 ) ) ;
#266 = DIRECTION ( 'NONE',  ( 0.2488051909018016150, -0.9685535488450383035, -0.000000000000000000 ) ) ;
#267 = SHAPE_DEFINITION_REPRESENTATION ( #310, #749 ) ;
#268 = DIRECTION ( 'NONE',  ( -0.000000000000000000, -0.000000000000000000, 1.000000000000000000 ) ) ;
#269 = ORIENTED_EDGE ( 'NONE', *, *, #907, .F. ) ;
#270 = ORIENTED_EDGE ( 'NONE', *, *, #493, .T. ) ;
#271 = CARTESIAN_POINT ( 'NONE',  ( 1.225127307951727529, 95.71995543836838749, 115.0000000000000000 ) ) ;
#272 = DIRECTION ( 'NONE',  ( 0.000000000000000000, 0.000000000000000000, -1.000000000000000000 ) ) ;
#273 = ORIENTED_EDGE ( 'NONE', *, *, #684, .F. ) ;
#274 = VERTEX_POINT ( 'NONE', #198 ) ;
#275 = DIRECTION ( 'NONE',  ( 1.000000000000000000, 0.000000000000000000, 0.000000000000000000 ) ) ;
#276 = DIRECTION ( 'NONE',  ( 1.000000000000000000, -0.000000000000000000, 0.000000000000000000 ) ) ;
#277 = ORIENTED_EDGE ( 'NONE', *, *, #405, .F. ) ;
#278 = ORIENTED_EDGE ( 'NONE', *, *, #208, .T. ) ;
#279 = EDGE_CURVE ( 'NONE', #51, #519, #508, .T. ) ;
#280 = DIRECTION ( 'NONE',  ( -0.000000000000000000, -0.000000000000000000, -1.000000000000000000 ) ) ;
#281 = CARTESIAN_POINT ( 'NONE',  ( -5.000000000000000000, 0.000000000000000000, 110.0000000000000000 ) ) ;
#282 = ORIENTED_EDGE ( 'NONE', *, *, #374, .F. ) ;
#283 = CARTESIAN_POINT ( 'NONE',  ( 5.999999999999999112, 80.21694815573088988, -5.000000000000004441 ) ) ;
#284 = LINE ( 'NONE', #363, #734 ) ;
#285 = ORIENTED_EDGE ( 'NONE', *, *, #978, .F. ) ;
#286 = AXIS2_PLACEMENT_3D ( 'NONE', #496, #104, #416 ) ;
#287 = FACE_OUTER_BOUND ( 'NONE', #355, .T. ) ;
#288 = CARTESIAN_POINT ( 'NONE',  ( 5.999999999999999112, 80.21694815573088988, -5.000000000000004441 ) ) ;
#289 = VECTOR ( 'NONE', #740, 999.9999999999998863 ) ;
#290 = CARTESIAN_POINT ( 'NONE',  ( 166.3280630489283567, -23.44692499110124473, -4.999999999999990230 ) ) ;
#291 = ADVANCED_FACE ( 'NONE', ( #533 ), #847, .T. ) ;
#292 = VERTEX_POINT ( 'NONE', #626 ) ;
#293 = DIRECTION ( 'NONE',  ( -0.000000000000000000, -0.000000000000000000, -1.000000000000000000 ) ) ;
#294 = CARTESIAN_POINT ( 'NONE',  ( 165.9794533151616633, -22.96377384354799034, 73.33333333333332860 ) ) ;
#295 = ORIENTED_EDGE ( 'NONE', *, *, #374, .T. ) ;
#296 = DIRECTION ( 'NONE',  ( 0.9631201200235773863, -0.2690718015804886010, 0.000000000000000000 ) ) ;
#297 = ORIENTED_EDGE ( 'NONE', *, *, #405, .T. ) ;
#298 = CARTESIAN_POINT ( 'NONE',  ( 1.500000000000001332, 97.95861386599972320, -12.85140192875468301 ) ) ;
#299 = CYLINDRICAL_SURFACE ( 'NONE', #196, 1.500000000000002220 ) ;
#300 = VECTOR ( 'NONE', #697, 1000.000000000000000 ) ;
#301 = DIRECTION ( 'NONE',  ( 1.000000000000000000, 0.000000000000000000, 0.000000000000000000 ) ) ;
#302 = ORIENTED_EDGE ( 'NONE', *, *, #339, .T. ) ;
#303 = PRODUCT ( '抓斗主体gai1', '抓斗主体gai1', '', ( #180 ) ) ;
#304 = CARTESIAN_POINT ( 'NONE',  ( 11.00000000000000000, 91.72999574244265375, 0.000000000000000000 ) ) ;
#305 = EDGE_CURVE ( 'NONE', #122, #194, #946, .T. ) ;
#306 = VERTEX_POINT ( 'NONE', #768 ) ;
#307 = PLANE ( 'NONE',  #882 ) ;
#308 = EDGE_CURVE ( 'NONE', #975, #264, #615, .T. ) ;
#309 = CARTESIAN_POINT ( 'NONE',  ( 12.50000000000000000, 91.72999574244265375, -5.000000000000004441 ) ) ;
#310 = PRODUCT_DEFINITION_SHAPE ( 'NONE', 'NONE',  #225 ) ;
#311 = ORIENTED_EDGE ( 'NONE', *, *, #708, .T. ) ;
#312 = LINE ( 'NONE', #716, #76 ) ;
#313 = APPLICATION_PROTOCOL_DEFINITION ( 'draft international standard', 'automotive_design', 1998, #340 ) ;
#314 = CIRCLE ( 'NONE', #780, 125.0000000000000000 ) ;
#315 = AXIS2_PLACEMENT_3D ( 'NONE', #964, #164, #178 ) ;
#316 = VECTOR ( 'NONE', #860, 1000.000000000000000 ) ;
#317 = EDGE_CURVE ( 'NONE', #589, #548, #314, .T. ) ;
#318 = ORIENTED_EDGE ( 'NONE', *, *, #861, .F. ) ;
#319 = CARTESIAN_POINT ( 'NONE',  ( 64.47217264472487841, 117.7189277294196899, 0.000000000000000000 ) ) ;
#320 = FACE_BOUND ( 'NONE', #369, .T. ) ;
#321 = PRESENTATION_STYLE_ASSIGNMENT (( #973 ) ) ;
#322 = DIRECTION ( 'NONE',  ( -0.000000000000000000, -0.000000000000000000, -1.000000000000000000 ) ) ;
#323 = ORIENTED_EDGE ( 'NONE', *, *, #477, .T. ) ;
#324 =( BOUNDED_CURVE ( )  B_SPLINE_CURVE ( 2, ( #758, #748, #755 ),
 .UNSPECIFIED., .F., .T. ) 
 B_SPLINE_CURVE_WITH_KNOTS ( ( 3, 3 ),
 ( 0.000000000000000000, 1.000000000000000000 ),
 .UNSPECIFIED. ) 
 CURVE ( )  GEOMETRIC_REPRESENTATION_ITEM ( )  RATIONAL_B_SPLINE_CURVE ( ( 1.000000000000000000, 0.5782856374288785073, 1.000000000000000000 ) ) 
 REPRESENTATION_ITEM ( '' )  );
#325 = EDGE_CURVE ( 'NONE', #306, #986, #1010, .T. ) ;
#326 = CARTESIAN_POINT ( 'NONE',  ( 23.90645879363140835, 29.49557540451662518, 8.241551810393406166E-15 ) ) ;
#327 = DIRECTION ( 'NONE',  ( 0.000000000000000000, 0.000000000000000000, 1.000000000000000000 ) ) ;
#328 = CYLINDRICAL_SURFACE ( 'NONE', #952, 120.0000000000000000 ) ;
#329 = ORIENTED_EDGE ( 'NONE', *, *, #361, .T. ) ;
#330 = LINE ( 'NONE', #406, #467 ) ;
#331 = CARTESIAN_POINT ( 'NONE',  ( 166.3280630489283567, -23.44692499110124473, -4.999999999999990230 ) ) ;
#332 = AXIS2_PLACEMENT_3D ( 'NONE', #407, #636, #786 ) ;
#333 = CARTESIAN_POINT ( 'NONE',  ( 12.50000000000000000, 91.72999574244265375, 0.000000000000000000 ) ) ;
#334 = ORIENTED_EDGE ( 'NONE', *, *, #972, .T. ) ;
#335 = AXIS2_PLACEMENT_3D ( 'NONE', #537, #787, #139 ) ;
#336 = AXIS2_PLACEMENT_3D ( 'NONE', #102, #268, #808 ) ;
#337 = DIRECTION ( 'NONE',  ( 0.3285206249412725987, -0.9444967967061591585, 0.000000000000000000 ) ) ;
#338 = LINE ( 'NONE', #651, #968 ) ;
#339 = EDGE_CURVE ( 'NONE', #915, #221, #693, .T. ) ;
#340 = APPLICATION_CONTEXT ( 'automotive_design' ) ;
#341 = EDGE_CURVE ( 'NONE', #784, #526, #570, .T. ) ;
#342 = CARTESIAN_POINT ( 'NONE',  ( 158.5612072594985307, -20.27976302441173573, 79.00000000000007105 ) ) ;
#343 = ORIENTED_EDGE ( 'NONE', *, *, #771, .F. ) ;
#344 = ORIENTED_EDGE ( 'NONE', *, *, #877, .T. ) ;
#345 = PLANE ( 'NONE',  #553 ) ;
#346 = DIRECTION ( 'NONE',  ( 1.000000000000000000, 0.000000000000000000, -0.000000000000000000 ) ) ;
#347 = EDGE_LOOP ( 'NONE', ( #845, #413, #576, #107 ) ) ;
#348 = ORIENTED_EDGE ( 'NONE', *, *, #99, .T. ) ;
#349 = LINE ( 'NONE', #668, #831 ) ;
#350 = DIRECTION ( 'NONE',  ( 1.000000000000000000, 0.000000000000000000, 0.000000000000000000 ) ) ;
#351 = ORIENTED_EDGE ( 'NONE', *, *, #972, .F. ) ;
#352 = AXIS2_PLACEMENT_3D ( 'NONE', #869, #799, #640 ) ;
#353 = EDGE_CURVE ( 'NONE', #975, #221, #729, .T. ) ;
#354 = VECTOR ( 'NONE', #293, 1000.000000000000000 ) ;
#355 = EDGE_LOOP ( 'NONE', ( #409, #679, #6, #862 ) ) ;
#356 = AXIS2_PLACEMENT_3D ( 'NONE', #190, #500, #109 ) ;
#357 = VECTOR ( 'NONE', #454, 1000.000000000000114 ) ;
#358 = DIRECTION ( 'NONE',  ( -0.9444967967061590475, -0.3285206249412725987, -0.000000000000000000 ) ) ;
#359 = DIRECTION ( 'NONE',  ( 0.000000000000000000, 0.000000000000000000, -1.000000000000000000 ) ) ;
#360 = ORIENTED_EDGE ( 'NONE', *, *, #279, .F. ) ;
#361 = EDGE_CURVE ( 'NONE', #851, #806, #63, .T. ) ;
#362 = CARTESIAN_POINT ( 'NONE',  ( -5.000000000000000000, 0.000000000000000000, 115.0000000000000000 ) ) ;
#363 = CARTESIAN_POINT ( 'NONE',  ( 116.6563596521674953, -31.04441679196611048, 0.000000000000000000 ) ) ;
#364 = EDGE_LOOP ( 'NONE', ( #144, #772 ) ) ;
#365 = DIRECTION ( 'NONE',  ( 0.000000000000000000, 1.000000000000000000, -0.000000000000000000 ) ) ;
#366 = FACE_OUTER_BOUND ( 'NONE', #788, .T. ) ;
#367 = ADVANCED_FACE ( 'NONE', ( #1015 ), #68, .F. ) ;
#368 = DIRECTION ( 'NONE',  ( 0.9973354211475332631, 0.07295243467131531934, 0.000000000000000000 ) ) ;
#369 = EDGE_LOOP ( 'NONE', ( #660, #117 ) ) ;
#370 = CARTESIAN_POINT ( 'NONE',  ( 165.9794533150416953, -22.96377384338171268, 0.000000000000000000 ) ) ;
#371 = AXIS2_PLACEMENT_3D ( 'NONE', #298, #365, #619 ) ;
#372 = LINE ( 'NONE', #689, #401 ) ;
#373 = EDGE_CURVE ( 'NONE', #526, #784, #58, .T. ) ;
#374 = EDGE_CURVE ( 'NONE', #103, #687, #781, .T. ) ;
#375 = DIRECTION ( 'NONE',  ( 1.000000000000000000, 0.000000000000000000, 0.000000000000000000 ) ) ;
#376 = ORIENTED_EDGE ( 'NONE', *, *, #21, .F. ) ;
#377 = CARTESIAN_POINT ( 'NONE',  ( 85.00000000000000000, 84.70537173048707302, -5.000000000000004441 ) ) ;
#378 = VERTEX_POINT ( 'NONE', #146 ) ;
#379 = DIRECTION ( 'NONE',  ( 1.000000000000000000, 0.000000000000000000, 0.000000000000000000 ) ) ;
#380 = ORIENTED_EDGE ( 'NONE', *, *, #447, .T. ) ;
#381 = LINE ( 'NONE', #705, #357 ) ;
#382 = ORIENTED_EDGE ( 'NONE', *, *, #208, .F. ) ;
#383 = ADVANCED_FACE ( 'NONE', ( #366 ), #299, .F. ) ;
#384 = VECTOR ( 'NONE', #276, 1000.000000000000000 ) ;
#385 = CARTESIAN_POINT ( 'NONE',  ( 5.965856316213172583, 21.35428617032495069, 114.9999999999999858 ) ) ;
#386 = ORIENTED_EDGE ( 'NONE', *, *, #373, .F. ) ;
#387 = AXIS2_PLACEMENT_3D ( 'NONE', #507, #265, #737 ) ;
#388 = DIRECTION ( 'NONE',  ( 1.000000000000000000, 0.000000000000000000, 0.000000000000000000 ) ) ;
#389 = AXIS2_PLACEMENT_3D ( 'NONE', #281, #990, #272 ) ;
#390 = ORIENTED_EDGE ( 'NONE', *, *, #396, .T. ) ;
#391 = LINE ( 'NONE', #4, #176 ) ;
#392 =( NAMED_UNIT ( * ) PLANE_ANGLE_UNIT ( ) SI_UNIT ( $, .RADIAN. ) );
#393 = ORIENTED_EDGE ( 'NONE', *, *, #141, .T. ) ;
#394 = DIRECTION ( 'NONE',  ( 0.000000000000000000, 0.000000000000000000, 1.000000000000000000 ) ) ;
#395 = DIRECTION ( 'NONE',  ( 0.9444967967061591585, 0.3285206249412725987, 0.000000000000000000 ) ) ;
#396 = EDGE_CURVE ( 'NONE', #126, #51, #219, .T. ) ;
#397 = SURFACE_STYLE_FILL_AREA ( #815 ) ;
#398 = ORIENTED_EDGE ( 'NONE', *, *, #245, .F. ) ;
#399 = DIRECTION ( 'NONE',  ( -0.9444967967061590475, -0.3285206249412728208, 1.224646799147353454E-16 ) ) ;
#400 = EDGE_CURVE ( 'NONE', #241, #745, #158, .T. ) ;
#401 = VECTOR ( 'NONE', #931, 1000.000000000000000 ) ;
#402 = LINE ( 'NONE', #243, #403 ) ;
#403 = VECTOR ( 'NONE', #497, 1000.000000000000000 ) ;
#404 = EDGE_LOOP ( 'NONE', ( #344, #376, #543, #273 ) ) ;
#405 = EDGE_CURVE ( 'NONE', #378, #910, #698, .T. ) ;
#406 = CARTESIAN_POINT ( 'NONE',  ( -1.642603124706362827, 94.72248398353079324, -5.000000000000004441 ) ) ;
#407 = CARTESIAN_POINT ( 'NONE',  ( 5.999999999999999112, 80.21694815573088988, -5.000000000000004441 ) ) ;
#408 = CARTESIAN_POINT ( 'NONE',  ( 4.499999999999997335, 80.21694815573088988, 115.0000000000000000 ) ) ;
#409 = ORIENTED_EDGE ( 'NONE', *, *, #802, .F. ) ;
#410 = DIRECTION ( 'NONE',  ( 1.000000000000000000, 0.000000000000000000, 0.000000000000000000 ) ) ;
#411 = LINE ( 'NONE', #23, #568 ) ;
#412 = CARTESIAN_POINT ( 'NONE',  ( 0.000000000000000000, 0.000000000000000000, 0.000000000000000000 ) ) ;
#413 = ORIENTED_EDGE ( 'NONE', *, *, #739, .T. ) ;
#414 = EDGE_CURVE ( 'NONE', #586, #637, #529, .T. ) ;
#415 = EDGE_CURVE ( 'NONE', #221, #506, #372, .T. ) ;
#416 = DIRECTION ( 'NONE',  ( 1.000000000000000000, 0.000000000000000000, -0.000000000000000000 ) ) ;
#417 = DIRECTION ( 'NONE',  ( 1.261617073437677999E-16, 1.261617073437677999E-16, 1.000000000000000000 ) ) ;
#418 = EDGE_LOOP ( 'NONE', ( #642, #295 ) ) ;
#419 = VECTOR ( 'NONE', #579, 1000.000000000000000 ) ;
#420 = ORIENTED_EDGE ( 'NONE', *, *, #600, .F. ) ;
#421 = CARTESIAN_POINT ( 'NONE',  ( 7.500000000000001776, 80.21694815573088988, 110.0000000000000000 ) ) ;
#422 = EDGE_CURVE ( 'NONE', #455, #51, #330, .T. ) ;
#423 = CARTESIAN_POINT ( 'NONE',  ( 229.5933875323243853, 8.269304784148667764, 0.000000000000000000 ) ) ;
#424 = FACE_BOUND ( 'NONE', #445, .T. ) ;
#425 = LINE ( 'NONE', #423, #918 ) ;
#426 = EDGE_LOOP ( 'NONE', ( #69, #115, #709, #431 ) ) ;
#427 = DIRECTION ( 'NONE',  ( 0.9444967967061591585, 0.3285206249412725987, 0.000000000000000000 ) ) ;
#428 = CYLINDRICAL_SURFACE ( 'NONE', #436, 125.0000000000000000 ) ;
#429 = B_SPLINE_CURVE_WITH_KNOTS ( 'NONE', 3,
 ( #263, #575, #192, #503 ),
 .UNSPECIFIED., .F., .F.,
 ( 4, 4 ),
 ( 0.000000000000000000, 1.000000000000000000 ),
 .UNSPECIFIED. ) ;
#430 = CARTESIAN_POINT ( 'NONE',  ( 85.00000000000000000, 84.70537173048707302, 0.000000000000000000 ) ) ;
#431 = ORIENTED_EDGE ( 'NONE', *, *, #690, .F. ) ;
#432 = EDGE_LOOP ( 'NONE', ( #224, #334, #311, #343 ) ) ;
#433 = PLANE ( 'NONE',  #812 ) ;
#434 = CARTESIAN_POINT ( 'NONE',  ( -5.000000000000000000, 0.000000000000000000, -5.000000000000004441 ) ) ;
#435 = ORIENTED_EDGE ( 'NONE', *, *, #791, .F. ) ;
#436 = AXIS2_PLACEMENT_3D ( 'NONE', #680, #280, #592 ) ;
#437 = EDGE_LOOP ( 'NONE', ( #66, #285 ) ) ;
#438 = CARTESIAN_POINT ( 'NONE',  ( -1.642603124706362827, 94.72248398353079324, 110.0000000000000000 ) ) ;
#439 = VECTOR ( 'NONE', #775, 999.9999999999998863 ) ;
#440 = LINE ( 'NONE', #133, #714 ) ;
#441 = DIRECTION ( 'NONE',  ( 1.000000000000000000, 0.000000000000000000, 0.000000000000000000 ) ) ;
#442 = ORIENTED_EDGE ( 'NONE', *, *, #551, .F. ) ;
#443 = CARTESIAN_POINT ( 'NONE',  ( 23.90645879363142257, 29.49557540451663940, 110.0000000000000000 ) ) ;
#444 = DIRECTION ( 'NONE',  ( 0.1218693434051364155, 0.9925461516413234264, 0.000000000000000000 ) ) ;
#445 = EDGE_LOOP ( 'NONE', ( #613, #598 ) ) ;
#446 = CARTESIAN_POINT ( 'NONE',  ( 0.000000000000000000, 90.00000000000000000, 110.0000000000000000 ) ) ;
#447 = EDGE_CURVE ( 'NONE', #1016, #548, #710, .T. ) ;
#448 = DIRECTION ( 'NONE',  ( 0.8109442456118542975, 0.5851234318577753779, -0.000000000000000000 ) ) ;
#449 = CYLINDRICAL_SURFACE ( 'NONE', #27, 1.500000000000002220 ) ;
#450 = VERTEX_POINT ( 'NONE', #17 ) ;
#451 = AXIS2_PLACEMENT_3D ( 'NONE', #942, #859, #777 ) ;
#452 = FACE_OUTER_BOUND ( 'NONE', #432, .T. ) ;
#453 = DIRECTION ( 'NONE',  ( 1.000000000000000000, 0.000000000000000000, 0.000000000000000000 ) ) ;
#454 = DIRECTION ( 'NONE',  ( -0.9685535488450383035, -0.2488051909018016428, 0.000000000000000000 ) ) ;
#455 = VERTEX_POINT ( 'NONE', #561 ) ;
#456 = LINE ( 'NONE', #56, #300 ) ;
#457 = DIRECTION ( 'NONE',  ( 0.000000000000000000, 0.000000000000000000, 1.000000000000000000 ) ) ;
#458 = ORIENTED_EDGE ( 'NONE', *, *, #9, .F. ) ;
#459 = DIRECTION ( 'NONE',  ( 0.000000000000000000, 0.000000000000000000, 1.000000000000000000 ) ) ;
#460 = ADVANCED_FACE ( 'NONE', ( #168 ), #259, .T. ) ;
#461 = VERTEX_POINT ( 'NONE', #639 ) ;
#462 = CARTESIAN_POINT ( 'NONE',  ( 165.9794533150138420, -22.96377384334319771, -16.99999999999998934 ) ) ;
#463 = DIRECTION ( 'NONE',  ( -0.5851234318577752669, 0.8109442456118541864, 0.000000000000000000 ) ) ;
#464 = DIRECTION ( 'NONE',  ( -0.000000000000000000, -0.000000000000000000, 1.000000000000000000 ) ) ;
#465 = ORIENTED_EDGE ( 'NONE', *, *, #308, .F. ) ;
#466 = CARTESIAN_POINT ( 'NONE',  ( 5.965856316213172583, 21.35428617032495069, -5.000000000000000000 ) ) ;
#467 = VECTOR ( 'NONE', #184, 1000.000000000000114 ) ;
#468 =( LENGTH_UNIT ( ) NAMED_UNIT ( * ) SI_UNIT ( .MILLI., .METRE. ) );
#469 = AXIS2_PLACEMENT_3D ( 'NONE', #2, #166, #388 ) ;
#470 = ORIENTED_EDGE ( 'NONE', *, *, #422, .F. ) ;
#471 = EDGE_CURVE ( 'NONE', #911, #566, #672, .T. ) ;
#472 = CARTESIAN_POINT ( 'NONE',  ( 5.999999999999999112, 80.21694815573088988, 0.000000000000000000 ) ) ;
#473 = CARTESIAN_POINT ( 'NONE',  ( 0.9100150477423172291, 95.61035117394776250, 8.241551810393406166E-15 ) ) ;
#474 = UNCERTAINTY_MEASURE_WITH_UNIT (LENGTH_MEASURE( 1.000000000000000082E-05 ), #468, 'distance_accuracy_value', 'NONE');
#475 = ORIENTED_EDGE ( 'NONE', *, *, #65, .F. ) ;
#476 = CARTESIAN_POINT ( 'NONE',  ( 1.225127307951725975, 95.71995543836838749, 3.469446951953614189E-15 ) ) ;
#477 = EDGE_CURVE ( 'NONE', #194, #696, #587, .T. ) ;
#478 = LINE ( 'NONE', #790, #536 ) ;
#479 = DIRECTION ( 'NONE',  ( 0.000000000000000000, 0.000000000000000000, 1.000000000000000000 ) ) ;
#480 = VERTEX_POINT ( 'NONE', #319 ) ;
#481 = FACE_OUTER_BOUND ( 'NONE', #945, .T. ) ;
#482 = VECTOR ( 'NONE', #169, 1000.000000000000000 ) ;
#483 = FACE_OUTER_BOUND ( 'NONE', #61, .T. ) ;
#484 = CIRCLE ( 'NONE', #26, 1.500000000000002220 ) ;
#485 = AXIS2_PLACEMENT_3D ( 'NONE', #532, #132, #62 ) ;
#486 = LINE ( 'NONE', #182, #289 ) ;
#487 = PRESENTATION_LAYER_ASSIGNMENT (  '', '', ( #703 ) ) ;
#488 = EDGE_LOOP ( 'NONE', ( #594, #752, #121, #211, #582, #1006, #201, #134 ) ) ;
#489 = DIRECTION ( 'NONE',  ( -0.9444967967061591585, -0.3285206249412727653, 1.606060513934011880E-16 ) ) ;
#490 = DIRECTION ( 'NONE',  ( -0.000000000000000000, -0.000000000000000000, 1.000000000000000000 ) ) ;
#491 =( NAMED_UNIT ( * ) PLANE_ANGLE_UNIT ( ) SI_UNIT ( $, .RADIAN. ) );
#492 = CYLINDRICAL_SURFACE ( 'NONE', #336, 1.500000000000002220 ) ;
#493 = EDGE_CURVE ( 'NONE', #986, #586, #90, .T. ) ;
#494 = ORIENTED_EDGE ( 'NONE', *, *, #600, .T. ) ;
#495 = DIRECTION ( 'NONE',  ( -0.000000000000000000, -0.000000000000000000, -1.000000000000000000 ) ) ;
#496 = CARTESIAN_POINT ( 'NONE',  ( 85.00000000000000000, 84.70537173048707302, 110.0000000000000000 ) ) ;
#497 = DIRECTION ( 'NONE',  ( -1.516919010726921554E-16, -5.276240037311028385E-17, -1.000000000000000000 ) ) ;
#498 = ORIENTED_EDGE ( 'NONE', *, *, #690, .T. ) ;
#499 = ORIENTED_EDGE ( 'NONE', *, *, #447, .F. ) ;
#500 = DIRECTION ( 'NONE',  ( 0.000000000000000000, 0.000000000000000000, 1.000000000000000000 ) ) ;
#501 = DIRECTION ( 'NONE',  ( 0.000000000000000000, -1.000000000000000000, 0.000000000000000000 ) ) ;
#502 = VECTOR ( 'NONE', #296, 1000.000000000000114 ) ;
#503 = CARTESIAN_POINT ( 'NONE',  ( 158.5612072594212236, -20.27976302443159540, 0.000000000000000000 ) ) ;
#504 = CARTESIAN_POINT ( 'NONE',  ( 0.000000000000000000, 90.00000000000000000, 0.000000000000000000 ) ) ;
#505 = CIRCLE ( 'NONE', #45, 1.500000000000001332 ) ;
#506 = VERTEX_POINT ( 'NONE', #789 ) ;
#507 = CARTESIAN_POINT ( 'NONE',  ( 3.238554122740059604, -44.27439268427917796, 114.9999999999999858 ) ) ;
#508 = LINE ( 'NONE', #118, #988 ) ;
#509 = CARTESIAN_POINT ( 'NONE',  ( 116.6489841005290771, -31.01570510517141699, 110.0000000000000000 ) ) ;
#510 = EDGE_LOOP ( 'NONE', ( #72, #625, #898, #778, #829, #78, #531, #947, #398, #257, #541 ) ) ;
#511 = ORIENTED_EDGE ( 'NONE', *, *, #84, .F. ) ;
#512 = CARTESIAN_POINT ( 'NONE',  ( 5.999999999999999112, 80.21694815573088988, 0.000000000000000000 ) ) ;
#513 = CARTESIAN_POINT ( 'NONE',  ( 191.5687344665733463, -30.49854066213573489, 114.9999999999999858 ) ) ;
#514 = ORIENTED_EDGE ( 'NONE', *, *, #353, .T. ) ;
#515 = ORIENTED_EDGE ( 'NONE', *, *, #763, .T. ) ;
#516 = DIRECTION ( 'NONE',  ( 0.000000000000000000, 0.000000000000000000, 1.000000000000000000 ) ) ;
#517 = CARTESIAN_POINT ( 'NONE',  ( 1.225127307951725975, 95.71995543836838749, 115.0000000000000000 ) ) ;
#518 = AXIS2_PLACEMENT_3D ( 'NONE', #725, #563, #395 ) ;
#519 = VERTEX_POINT ( 'NONE', #476 ) ;
#520 = VECTOR ( 'NONE', #676, 1000.000000000000114 ) ;
#521 = FACE_OUTER_BOUND ( 'NONE', #887, .T. ) ;
#522 = VECTOR ( 'NONE', #120, 1000.000000000000227 ) ;
#523 = CARTESIAN_POINT ( 'NONE',  ( 4.499999999999997335, 80.21694815573088988, 0.000000000000000000 ) ) ;
#524 = PLANE ( 'NONE',  #767 ) ;
#525 = ADVANCED_FACE ( 'NONE', ( #876 ), #707, .F. ) ;
#526 = VERTEX_POINT ( 'NONE', #246 ) ;
#527 = PLANE ( 'NONE',  #753 ) ;
#528 = ADVANCED_FACE ( 'NONE', ( #481 ), #307, .F. ) ;
#529 = LINE ( 'NONE', #843, #1002 ) ;
#530 = FACE_BOUND ( 'NONE', #418, .T. ) ;
#531 = ORIENTED_EDGE ( 'NONE', *, *, #73, .T. ) ;
#532 = CARTESIAN_POINT ( 'NONE',  ( 1.225127307951725975, 95.71995543836838749, -12.85140192875468301 ) ) ;
#533 = FACE_OUTER_BOUND ( 'NONE', #488, .T. ) ;
#534 = CARTESIAN_POINT ( 'NONE',  ( 117.9003856066764513, -35.88718453619132021, 115.0000000000000000 ) ) ;
#535 = ORIENTED_EDGE ( 'NONE', *, *, #149, .F. ) ;
#536 = VECTOR ( 'NONE', #185, 1000.000000000000000 ) ;
#537 = CARTESIAN_POINT ( 'NONE',  ( 14.70261725212410298, -57.23462627624770249, 0.000000000000000000 ) ) ;
#538 = VECTOR ( 'NONE', #611, 1000.000000000000114 ) ;
#539 = DIRECTION ( 'NONE',  ( -0.1218693434051364294, -0.9925461516413234264, 0.000000000000000000 ) ) ;
#540 = VECTOR ( 'NONE', #464, 1000.000000000000000 ) ;
#541 = ORIENTED_EDGE ( 'NONE', *, *, #791, .T. ) ;
#542 = FILL_AREA_STYLE ('',( #856 ) ) ;
#543 = ORIENTED_EDGE ( 'NONE', *, *, #254, .F. ) ;
#544 = CARTESIAN_POINT ( 'NONE',  ( 163.1857004021966873, -19.09180816062013264, -16.99999999999999289 ) ) ;
#545 = DIRECTION ( 'NONE',  ( 0.000000000000000000, 0.000000000000000000, 1.000000000000000000 ) ) ;
#546 = ADVANCED_FACE ( 'NONE', ( #96 ), #645, .F. ) ;
#547 = CARTESIAN_POINT ( 'NONE',  ( 11.00000000000000000, 91.72999574244265375, -5.000000000000004441 ) ) ;
#548 = VERTEX_POINT ( 'NONE', #251 ) ;
#549 = DIRECTION ( 'NONE',  ( -0.9444967967061590475, -0.3285206249412725987, -0.000000000000000000 ) ) ;
#550 = DIRECTION ( 'NONE',  ( 0.000000000000000000, 0.000000000000000000, -1.000000000000000000 ) ) ;
#551 = EDGE_CURVE ( 'NONE', #126, #793, #567, .T. ) ;
#552 = EDGE_LOOP ( 'NONE', ( #1, #16, #131, #323 ) ) ;
#553 = AXIS2_PLACEMENT_3D ( 'NONE', #599, #516, #596 ) ;
#554 = AXIS2_PLACEMENT_3D ( 'NONE', #649, #785, #724 ) ;
#555 = LINE ( 'NONE', #878, #794 ) ;
#556 = ORIENTED_EDGE ( 'NONE', *, *, #353, .F. ) ;
#557 = EDGE_CURVE ( 'NONE', #548, #806, #391, .T. ) ;
#558 = DIRECTION ( 'NONE',  ( 1.000000000000000000, 0.000000000000000000, 0.000000000000000000 ) ) ;
#559 = CARTESIAN_POINT ( 'NONE',  ( 11.00000000000000000, 91.72999574244265375, -5.000000000000004441 ) ) ;
#560 = VERTEX_POINT ( 'NONE', #238 ) ;
#561 = CARTESIAN_POINT ( 'NONE',  ( 64.47217264472477893, 117.7189277294198746, -5.000000000000000000 ) ) ;
#562 = EDGE_CURVE ( 'NONE', #292, #138, #902, .T. ) ;
#563 = DIRECTION ( 'NONE',  ( 0.3285206249412725987, -0.9444967967061591585, 0.000000000000000000 ) ) ;
#564 = SURFACE_SIDE_STYLE ('',( #397 ) ) ;
#565 = DIRECTION ( 'NONE',  ( 0.000000000000000000, 0.000000000000000000, 1.000000000000000000 ) ) ;
#566 = VERTEX_POINT ( 'NONE', #421 ) ;
#567 = LINE ( 'NONE', #81, #108 ) ;
#568 = VECTOR ( 'NONE', #873, 1000.000000000000000 ) ;
#569 = LINE ( 'NONE', #884, #937 ) ;
#570 = CIRCLE ( 'NONE', #156, 1.500000000000001332 ) ;
#571 = CIRCLE ( 'NONE', #970, 1.500000000000002220 ) ;
#572 = CARTESIAN_POINT ( 'NONE',  ( 116.6489841005291055, -31.01570510517145962, 110.0000000000000000 ) ) ;
#573 = ORIENTED_EDGE ( 'NONE', *, *, #675, .T. ) ;
#574 = LINE ( 'NONE', #331, #127 ) ;
#575 = CARTESIAN_POINT ( 'NONE',  ( 158.5612072594340418, -20.27976302442830558, 73.33333333333338544 ) ) ;
#576 = ORIENTED_EDGE ( 'NONE', *, *, #872, .T. ) ;
#577 = PLANE ( 'NONE',  #387 ) ;
#578 = CARTESIAN_POINT ( 'NONE',  ( 116.2537719275852766, -31.15317020880404542, 110.0000000000000000 ) ) ;
#579 = DIRECTION ( 'NONE',  ( -0.000000000000000000, -1.000000000000000000, -0.000000000000000000 ) ) ;
#580 = ORIENTED_EDGE ( 'NONE', *, *, #620, .F. ) ;
#581 = ADVANCED_FACE ( 'NONE', ( #916 ), #202, .F. ) ;
#582 = ORIENTED_EDGE ( 'NONE', *, *, #71, .F. ) ;
#583 = CARTESIAN_POINT ( 'NONE',  ( 0.000000000000000000, 0.000000000000000000, 0.000000000000000000 ) ) ;
#584 = VECTOR ( 'NONE', #807, 1000.000000000000000 ) ;
#585 = CARTESIAN_POINT ( 'NONE',  ( 85.00000000000000000, 84.70537173048707302, -5.000000000000000000 ) ) ;
#586 = VERTEX_POINT ( 'NONE', #656 ) ;
#587 = CIRCLE ( 'NONE', #315, 1.500000000000001332 ) ;
#588 = AXIS2_PLACEMENT_3D ( 'NONE', #209, #821, #359 ) ;
#589 = VERTEX_POINT ( 'NONE', #36 ) ;
#590 = EDGE_CURVE ( 'NONE', #138, #292, #571, .T. ) ;
#591 = ADVANCED_FACE ( 'NONE', ( #747 ), #577, .F. ) ;
#592 = DIRECTION ( 'NONE',  ( -1.000000000000000000, 0.000000000000000000, 0.000000000000000000 ) ) ;
#593 = CARTESIAN_POINT ( 'NONE',  ( 73.27617963107363153, 137.8267677547822530, 110.0000000000000000 ) ) ;
#594 = ORIENTED_EDGE ( 'NONE', *, *, #959, .T. ) ;
#595 = ORIENTED_EDGE ( 'NONE', *, *, #930, .T. ) ;
#596 = DIRECTION ( 'NONE',  ( 1.000000000000000000, 0.000000000000000000, -0.000000000000000000 ) ) ;
#597 = LINE ( 'NONE', #220, #1004 ) ;
#598 = ORIENTED_EDGE ( 'NONE', *, *, #141, .F. ) ;
#599 = CARTESIAN_POINT ( 'NONE',  ( 85.00000000000000000, 84.70537173048707302, 0.000000000000000000 ) ) ;
#600 = EDGE_CURVE ( 'NONE', #828, #189, #894, .T. ) ;
#601 = DIRECTION ( 'NONE',  ( 1.000000000000000000, 0.000000000000000000, 0.000000000000000000 ) ) ;
#602 = CLOSED_SHELL ( 'NONE', ( #546, #834, #367, #111, #665, #11, #195, #581, #891, #769, #920, #666, #632, #927, #80, #236, #528, #383, #813, #779, #993, #614, #650, #460, #291, #252, #623, #525, #591, #87 ) ) ;
#603 = ORIENTED_EDGE ( 'NONE', *, *, #396, .F. ) ;
#604 = VECTOR ( 'NONE', #539, 1000.000000000000114 ) ;
#605 = CARTESIAN_POINT ( 'NONE',  ( 163.1857004048612225, -19.09180815928786856, 79.00000000000001421 ) ) ;
#606 = VECTOR ( 'NONE', #919, 1000.000000000000000 ) ;
#607 = DIRECTION ( 'NONE',  ( 0.000000000000000000, 0.000000000000000000, 1.000000000000000000 ) ) ;
#608 = FACE_OUTER_BOUND ( 'NONE', #193, .T. ) ;
#609 = EDGE_CURVE ( 'NONE', #122, #980, #214, .T. ) ;
#610 = ORIENTED_EDGE ( 'NONE', *, *, #361, .F. ) ;
#611 = DIRECTION ( 'NONE',  ( 0.9631201200235773863, -0.2690718015804886010, 0.000000000000000000 ) ) ;
#612 = CARTESIAN_POINT ( 'NONE',  ( 1.225127307951725975, 95.71995543836838749, 110.0000000000000000 ) ) ;
#613 = ORIENTED_EDGE ( 'NONE', *, *, #477, .F. ) ;
#614 = ADVANCED_FACE ( 'NONE', ( #899 ), #145, .T. ) ;
#615 = LINE ( 'NONE', #223, #354 ) ;
#616 = FACE_OUTER_BOUND ( 'NONE', #552, .T. ) ;
#617 = ORIENTED_EDGE ( 'NONE', *, *, #643, .T. ) ;
#618 = VECTOR ( 'NONE', #549, 1000.000000000000000 ) ;
#619 = DIRECTION ( 'NONE',  ( 0.000000000000000000, 0.000000000000000000, 1.000000000000000000 ) ) ;
#620 = EDGE_CURVE ( 'NONE', #274, #691, #59, .T. ) ;
#621 = CARTESIAN_POINT ( 'NONE',  ( 229.5933875323243853, 8.269304784148667764, 110.0000000000000000 ) ) ;
#622 =( GEOMETRIC_REPRESENTATION_CONTEXT ( 3 ) GLOBAL_UNCERTAINTY_ASSIGNED_CONTEXT ( ( #694 ) ) GLOBAL_UNIT_ASSIGNED_CONTEXT ( ( #261, #491, #889 ) ) REPRESENTATION_CONTEXT ( 'NONE', 'WORKASPACE' ) );
#623 = ADVANCED_FACE ( 'NONE', ( #692 ), #52, .F. ) ;
#624 = CARTESIAN_POINT ( 'NONE',  ( 4.499999999999997335, 80.21694815573088988, -5.000000000000004441 ) ) ;
#625 = ORIENTED_EDGE ( 'NONE', *, *, #181, .F. ) ;
#626 = CARTESIAN_POINT ( 'NONE',  ( 7.500000000000001776, 80.21694815573088988, 0.000000000000000000 ) ) ;
#627 = VERTEX_POINT ( 'NONE', #370 ) ;
#628 = DIRECTION ( 'NONE',  ( 1.000000000000000000, 0.000000000000000000, 0.000000000000000000 ) ) ;
#629 = ORIENTED_EDGE ( 'NONE', *, *, #872, .F. ) ;
#630 = DIRECTION ( 'NONE',  ( 0.1218693434051364294, 0.9925461516413234264, 0.000000000000000000 ) ) ;
#631 =( NAMED_UNIT ( * ) SI_UNIT ( $, .STERADIAN. ) SOLID_ANGLE_UNIT ( ) );
#632 = ADVANCED_FACE ( 'NONE', ( #452 ), #527, .T. ) ;
#633 = ORIENTED_EDGE ( 'NONE', *, *, #551, .T. ) ;
#634 = VECTOR ( 'NONE', #982, 1000.000000000000000 ) ;
#635 = VECTOR ( 'NONE', #659, 1000.000000000000000 ) ;
#636 = DIRECTION ( 'NONE',  ( -0.000000000000000000, -0.000000000000000000, 1.000000000000000000 ) ) ;
#637 = VERTEX_POINT ( 'NONE', #67 ) ;
#638 = ORIENTED_EDGE ( 'NONE', *, *, #590, .T. ) ;
#639 = CARTESIAN_POINT ( 'NONE',  ( 0.000000000000000000, 90.00000000000000000, 110.0000000000000000 ) ) ;
#640 = DIRECTION ( 'NONE',  ( -0.9631201200235773863, 0.2690718015804886010, 0.000000000000000000 ) ) ;
#641 = LINE ( 'NONE', #170, #783 ) ;
#642 = ORIENTED_EDGE ( 'NONE', *, *, #217, .T. ) ;
#643 = EDGE_CURVE ( 'NONE', #980, #696, #456, .T. ) ;
#644 =( BOUNDED_SURFACE ( )  B_SPLINE_SURFACE ( 2, 3, ( 
 ( #462, #135, #761, #929 ),
 ( #544, #858, #605, #88 ),
 ( #923, #846, #342, #114 ) ),
 .UNSPECIFIED., .F., .F., .F. ) 
 B_SPLINE_SURFACE_WITH_KNOTS ( ( 3, 3 ),
 ( 4, 4 ),
 ( 0.000000000000000000, 1.000000000000000000 ),
 ( -0.01699999999999999081, 0.1270000000000000018 ),
 .UNSPECIFIED. ) 
 GEOMETRIC_REPRESENTATION_ITEM ( )  RATIONAL_B_SPLINE_SURFACE ( (
 ( 1.000000000000000000, 1.000000000000000000, 1.000000000000000000, 1.000000000000000000),
 ( 0.5782856374288785073, 0.5782856374288785073, 0.5782856374288785073, 0.5782856374288785073),
 ( 1.000000000000000000, 1.000000000000000000, 1.000000000000000000, 1.000000000000000000) ) ) 
 REPRESENTATION_ITEM ( '' )  SURFACE ( )  );
#645 = CYLINDRICAL_SURFACE ( 'NONE', #554, 1.500000000000001332 ) ;
#646 = CARTESIAN_POINT ( 'NONE',  ( 12.50000000000000000, 91.72999574244265375, 110.0000000000000000 ) ) ;
#647 = CARTESIAN_POINT ( 'NONE',  ( 12.50000000000000000, 91.72999574244265375, -5.000000000000004441 ) ) ;
#648 = ORIENTED_EDGE ( 'NONE', *, *, #562, .F. ) ;
#649 = CARTESIAN_POINT ( 'NONE',  ( 11.00000000000000000, 91.72999574244265375, -5.000000000000004441 ) ) ;
#650 = ADVANCED_FACE ( 'NONE', ( #521 ), #1014, .T. ) ;
#651 = CARTESIAN_POINT ( 'NONE',  ( 7.500000000000001776, 80.21694815573088988, -5.000000000000004441 ) ) ;
#652 = CARTESIAN_POINT ( 'NONE',  ( 0.000000000000000000, 0.000000000000000000, 0.000000000000000000 ) ) ;
#653 = CARTESIAN_POINT ( 'NONE',  ( 1.500000000000001332, 97.95861386599972320, 115.0000000000000000 ) ) ;
#654 = MECHANICAL_DESIGN_GEOMETRIC_PRESENTATION_REPRESENTATION (  '', ( #852 ), #622 ) ;
#655 = ORIENTED_EDGE ( 'NONE', *, *, #684, .T. ) ;
#656 = CARTESIAN_POINT ( 'NONE',  ( 64.47217264472486420, 117.7189277294197041, 110.0000000000000000 ) ) ;
#657 = DIRECTION ( 'NONE',  ( 0.000000000000000000, 0.000000000000000000, 1.000000000000000000 ) ) ;
#658 = EDGE_CURVE ( 'NONE', #986, #189, #842, .T. ) ;
#659 = DIRECTION ( 'NONE',  ( -0.000000000000000000, -0.000000000000000000, 1.000000000000000000 ) ) ;
#660 = ORIENTED_EDGE ( 'NONE', *, *, #609, .T. ) ;
#661 = EDGE_LOOP ( 'NONE', ( #116, #386 ) ) ;
#662 = DIRECTION ( 'NONE',  ( 1.000000000000000000, 0.000000000000000000, 0.000000000000000000 ) ) ;
#663 = CYLINDRICAL_SURFACE ( 'NONE', #673, 1.500000000000001332 ) ;
#664 = EDGE_LOOP ( 'NONE', ( #674, #499, #237, #999 ) ) ;
#665 = ADVANCED_FACE ( 'NONE', ( #287 ), #644, .T. ) ;
#666 = ADVANCED_FACE ( 'NONE', ( #805 ), #328, .F. ) ;
#667 = ORIENTED_EDGE ( 'NONE', *, *, #985, .F. ) ;
#668 = CARTESIAN_POINT ( 'NONE',  ( 4.499999999999997335, 80.21694815573088988, -5.000000000000004441 ) ) ;
#669 = VECTOR ( 'NONE', #501, 1000.000000000000000 ) ;
#670 = LINE ( 'NONE', #434, #606 ) ;
#671 = DIRECTION ( 'NONE',  ( 0.000000000000000000, 0.000000000000000000, 1.000000000000000000 ) ) ;
#672 = CIRCLE ( 'NONE', #938, 1.500000000000002220 ) ;
#673 = AXIS2_PLACEMENT_3D ( 'NONE', #559, #874, #441 ) ;
#674 = ORIENTED_EDGE ( 'NONE', *, *, #317, .T. ) ;
#675 = EDGE_CURVE ( 'NONE', #566, #241, #105, .T. ) ;
#676 = DIRECTION ( 'NONE',  ( -0.9444967967061591585, -0.3285206249412725987, 0.000000000000000000 ) ) ;
#677 = CARTESIAN_POINT ( 'NONE',  ( -4.999999999999998224, 97.95861386599972320, -5.000000000000000888 ) ) ;
#678 = LINE ( 'NONE', #517, #688 ) ;
#679 = ORIENTED_EDGE ( 'NONE', *, *, #188, .T. ) ;
#680 = CARTESIAN_POINT ( 'NONE',  ( 85.00000000000000000, 84.70537173048707302, 110.0000000000000000 ) ) ;
#681 = DIRECTION ( 'NONE',  ( 0.9685535488450383035, 0.2488051909018016428, 0.000000000000000000 ) ) ;
#682 = ORIENTED_EDGE ( 'NONE', *, *, #163, .F. ) ;
#683 = DIRECTION ( 'NONE',  ( 0.000000000000000000, 0.000000000000000000, 1.000000000000000000 ) ) ;
#684 = EDGE_CURVE ( 'NONE', #233, #48, #19, .T. ) ;
#685 = LINE ( 'NONE', #290, #522 ) ;
#686 = AXIS2_PLACEMENT_3D ( 'NONE', #222, #956, #712 ) ;
#687 = VERTEX_POINT ( 'NONE', #974 ) ;
#688 = VECTOR ( 'NONE', #444, 1000.000000000000000 ) ;
#689 = CARTESIAN_POINT ( 'NONE',  ( 116.2537719275852339, -31.15317020880406318, 110.0000000000000000 ) ) ;
#690 = EDGE_CURVE ( 'NONE', #30, #306, #962, .T. ) ;
#691 = VERTEX_POINT ( 'NONE', #647 ) ;
#692 = FACE_OUTER_BOUND ( 'NONE', #153, .T. ) ;
#693 = LINE ( 'NONE', #621, #618 ) ;
#694 = UNCERTAINTY_MEASURE_WITH_UNIT (LENGTH_MEASURE( 1.000000000000000082E-05 ), #261, 'distance_accuracy_value', 'NONE');
#695 = CARTESIAN_POINT ( 'NONE',  ( 0.000000000000000000, 90.00000000000000000, 110.0000000000000000 ) ) ;
#696 = VERTEX_POINT ( 'NONE', #15 ) ;
#697 = DIRECTION ( 'NONE',  ( -0.000000000000000000, -0.000000000000000000, 1.000000000000000000 ) ) ;
#698 = LINE ( 'NONE', #385, #538 ) ;
#699 = CYLINDRICAL_SURFACE ( 'NONE', #867, 1.500000000000001332 ) ;
#700 = ORIENTED_EDGE ( 'NONE', *, *, #841, .F. ) ;
#701 = VECTOR ( 'NONE', #895, 1000.000000000000000 ) ;
#702 = DIRECTION ( 'NONE',  ( 1.000000000000000000, 0.000000000000000000, 0.000000000000000000 ) ) ;
#703 = STYLED_ITEM ( 'NONE', ( #944 ), #987 ) ;
#704 = ORIENTED_EDGE ( 'NONE', *, *, #84, .T. ) ;
#705 = CARTESIAN_POINT ( 'NONE',  ( 165.0840370944193864, -18.60415724687603500, 110.0000000000000000 ) ) ;
#706 = ORIENTED_EDGE ( 'NONE', *, *, #1013, .T. ) ;
#707 = PLANE ( 'NONE',  #227 ) ;
#708 = EDGE_CURVE ( 'NONE', #461, #3, #641, .T. ) ;
#709 = ORIENTED_EDGE ( 'NONE', *, *, #325, .F. ) ;
#710 = LINE ( 'NONE', #719, #159 ) ;
#711 = CARTESIAN_POINT ( 'NONE',  ( 165.9794533150416953, -22.96377384338171268, 0.000000000000000000 ) ) ;
#712 = DIRECTION ( 'NONE',  ( 1.000000000000000000, 0.000000000000000000, 0.000000000000000000 ) ) ;
#713 = ORIENTED_EDGE ( 'NONE', *, *, #99, .F. ) ;
#714 = VECTOR ( 'NONE', #112, 1000.000000000000000 ) ;
#715 = AXIS2_PLACEMENT_3D ( 'NONE', #137, #124, #601 ) ;
#716 = CARTESIAN_POINT ( 'NONE',  ( 64.47217264472475051, 117.7189277294199314, -4.814824860968089085E-32 ) ) ;
#717 = CARTESIAN_POINT ( 'NONE',  ( 0.9100150477423172291, 95.61035117394776250, 8.241551810393406166E-15 ) ) ;
#718 = VERTEX_POINT ( 'NONE', #256 ) ;
#719 = CARTESIAN_POINT ( 'NONE',  ( 117.9003856066764513, -35.88718453619132021, 115.0000000000000000 ) ) ;
#720 = CARTESIAN_POINT ( 'NONE',  ( 163.1857004022949695, -19.09180816057101282, 1.499884627681208630E-15 ) ) ;
#721 = DIRECTION ( 'NONE',  ( 0.000000000000000000, 0.000000000000000000, 1.000000000000000000 ) ) ;
#722 = DIRECTION ( 'NONE',  ( -1.000000000000000000, 0.000000000000000000, 0.000000000000000000 ) ) ;
#723 = ORIENTED_EDGE ( 'NONE', *, *, #414, .T. ) ;
#724 = DIRECTION ( 'NONE',  ( 1.000000000000000000, 0.000000000000000000, 0.000000000000000000 ) ) ;
#725 = CARTESIAN_POINT ( 'NONE',  ( -1.642603124706362827, 94.72248398353079324, 110.0000000000000000 ) ) ;
#726 = FACE_OUTER_BOUND ( 'NONE', #991, .T. ) ;
#727 = EDGE_LOOP ( 'NONE', ( #580, #218, #171, #244 ) ) ;
#728 = EDGE_CURVE ( 'NONE', #480, #455, #24, .T. ) ;
#729 = CIRCLE ( 'NONE', #951, 120.0000000000000142 ) ;
#730 = CARTESIAN_POINT ( 'NONE',  ( -5.000000000000000000, -2.041386134000273689, 115.0000000000000000 ) ) ;
#731 = AXIS2_PLACEMENT_3D ( 'NONE', #438, #337, #427 ) ;
#732 = AXIS2_PLACEMENT_3D ( 'NONE', #430, #744, #350 ) ;
#733 = LINE ( 'NONE', #412, #419 ) ;
#734 = VECTOR ( 'NONE', #681, 1000.000000000000114 ) ;
#735 = ORIENTED_EDGE ( 'NONE', *, *, #415, .T. ) ;
#736 = ORIENTED_EDGE ( 'NONE', *, *, #188, .F. ) ;
#737 = DIRECTION ( 'NONE',  ( -0.9973354211475332631, -0.07295243467131531934, 0.000000000000000000 ) ) ;
#738 = CARTESIAN_POINT ( 'NONE',  ( 11.00000000000000000, 91.72999574244265375, -5.000000000000004441 ) ) ;
#739 = EDGE_CURVE ( 'NONE', #760, #915, #186, .T. ) ;
#740 = DIRECTION ( 'NONE',  ( -0.9444967967061591585, -0.3285206249412725987, -0.000000000000000000 ) ) ;
#741 = CARTESIAN_POINT ( 'NONE',  ( 85.00000000000000000, 84.70537173048707302, 115.0000000000000000 ) ) ;
#742 = ORIENTED_EDGE ( 'NONE', *, *, #471, .F. ) ;
#743 = DIRECTION ( 'NONE',  ( -0.9685535488450384145, -0.2488051909018016428, 0.000000000000000000 ) ) ;
#744 = DIRECTION ( 'NONE',  ( 0.000000000000000000, 0.000000000000000000, 1.000000000000000000 ) ) ;
#745 = VERTEX_POINT ( 'NONE', #408 ) ;
#746 = ORIENTED_EDGE ( 'NONE', *, *, #985, .T. ) ;
#747 = FACE_OUTER_BOUND ( 'NONE', #31, .T. ) ;
#748 = CARTESIAN_POINT ( 'NONE',  ( 163.1857004029306779, -19.09180816025311955, 109.9999999999999716 ) ) ;
#749 = ADVANCED_BREP_SHAPE_REPRESENTATION ( '抓斗主体gai1', ( #987, #1020 ), #143 ) ;
#750 = CIRCLE ( 'NONE', #41, 125.0000000000000000 ) ;
#751 = DIRECTION ( 'NONE',  ( 0.000000000000000000, 0.000000000000000000, 1.000000000000000000 ) ) ;
#752 = ORIENTED_EDGE ( 'NONE', *, *, #414, .F. ) ;
#753 = AXIS2_PLACEMENT_3D ( 'NONE', #446, #853, #1009 ) ;
#754 = ORIENTED_EDGE ( 'NONE', *, *, #400, .T. ) ;
#755 = CARTESIAN_POINT ( 'NONE',  ( 165.9794533152216616, -22.96377384363113094, 109.9999999999999858 ) ) ;
#756 = CARTESIAN_POINT ( 'NONE',  ( 5.999999999999999112, 80.21694815573088988, -5.000000000000004441 ) ) ;
#757 = VERTEX_POINT ( 'NONE', #29 ) ;
#758 = CARTESIAN_POINT ( 'NONE',  ( 158.5612072594404367, -20.27976302442666068, 110.0000000000000000 ) ) ;
#759 = LINE ( 'NONE', #998, #110 ) ;
#760 = VERTEX_POINT ( 'NONE', #174 ) ;
#761 = CARTESIAN_POINT ( 'NONE',  ( 165.9794533157680405, -22.96377384438848779, 78.99999999999992895 ) ) ;
#762 = CARTESIAN_POINT ( 'NONE',  ( 5.999999999999999112, 80.21694815573088988, 115.0000000000000000 ) ) ;
#763 = EDGE_CURVE ( 'NONE', #875, #450, #402, .T. ) ;
#764 = DIRECTION ( 'NONE',  ( -0.5851234318577752669, 0.8109442456118541864, 0.000000000000000000 ) ) ;
#765 = AXIS2_PLACEMENT_3D ( 'NONE', #231, #448, #463 ) ;
#766 = ORIENTED_EDGE ( 'NONE', *, *, #557, .T. ) ;
#767 = AXIS2_PLACEMENT_3D ( 'NONE', #585, #751, #46 ) ;
#768 = CARTESIAN_POINT ( 'NONE',  ( 0.9100150477423309958, 95.61035117394777672, 110.0000000000000000 ) ) ;
#769 = ADVANCED_FACE ( 'NONE', ( #424, #33, #879 ), #792, .T. ) ;
#770 = CARTESIAN_POINT ( 'NONE',  ( 0.000000000000000000, 0.000000000000000000, 110.0000000000000000 ) ) ;
#771 = EDGE_CURVE ( 'NONE', #450, #3, #486, .T. ) ;
#772 = ORIENTED_EDGE ( 'NONE', *, *, #471, .T. ) ;
#773 = DIRECTION ( 'NONE',  ( 1.000000000000000000, 0.000000000000000000, 0.000000000000000000 ) ) ;
#774 = ORIENTED_EDGE ( 'NONE', *, *, #71, .T. ) ;
#775 = DIRECTION ( 'NONE',  ( -0.9444967967061591585, -0.3285206249412725987, -0.000000000000000000 ) ) ;
#776 = ORIENTED_EDGE ( 'NONE', *, *, #620, .T. ) ;
#777 = DIRECTION ( 'NONE',  ( 1.000000000000000000, 0.000000000000000000, 0.000000000000000000 ) ) ;
#778 = ORIENTED_EDGE ( 'NONE', *, *, #861, .T. ) ;
#779 = ADVANCED_FACE ( 'NONE', ( #726 ), #492, .F. ) ;
#780 = AXIS2_PLACEMENT_3D ( 'NONE', #377, #683, #1022 ) ;
#781 = CIRCLE ( 'NONE', #797, 1.500000000000002220 ) ;
#782 = DIRECTION ( 'NONE',  ( 0.000000000000000000, 0.000000000000000000, 1.000000000000000000 ) ) ;
#783 = VECTOR ( 'NONE', #966, 1000.000000000000000 ) ;
#784 = VERTEX_POINT ( 'NONE', #333 ) ;
#785 = DIRECTION ( 'NONE',  ( -0.000000000000000000, -0.000000000000000000, 1.000000000000000000 ) ) ;
#786 = DIRECTION ( 'NONE',  ( 1.000000000000000000, 0.000000000000000000, 0.000000000000000000 ) ) ;
#787 = DIRECTION ( 'NONE',  ( 0.2488051909018016428, -0.9685535488450383035, 0.000000000000000000 ) ) ;
#788 = EDGE_LOOP ( 'NONE', ( #950, #82, #704, #922 ) ) ;
#789 = CARTESIAN_POINT ( 'NONE',  ( 116.2537719275852766, -31.15317020880404542, 0.000000000000000000 ) ) ;
#790 = CARTESIAN_POINT ( 'NONE',  ( -5.000000000000000000, -2.041386134000273689, 115.0000000000000000 ) ) ;
#791 = EDGE_CURVE ( 'NONE', #3, #264, #733, .T. ) ;
#792 = PLANE ( 'NONE',  #903 ) ;
#793 = VERTEX_POINT ( 'NONE', #653 ) ;
#794 = VECTOR ( 'NONE', #399, 1000.000000000000114 ) ;
#795 = VECTOR ( 'NONE', #234, 1000.000000000000000 ) ;
#796 = DIRECTION ( 'NONE',  ( 0.3285206249412727098, -0.9444967967061590475, 0.000000000000000000 ) ) ;
#797 = AXIS2_PLACEMENT_3D ( 'NONE', #288, #782, #702 ) ;
#798 = CIRCLE ( 'NONE', #469, 1.500000000000002220 ) ;
#799 = DIRECTION ( 'NONE',  ( 0.2690718015804886565, 0.9631201200235774973, 0.000000000000000000 ) ) ;
#800 = CARTESIAN_POINT ( 'NONE',  ( 85.00000000000000000, 84.70537173048707302, 110.0000000000000000 ) ) ;
#801 = ORIENTED_EDGE ( 'NONE', *, *, #149, .T. ) ;
#802 = EDGE_CURVE ( 'NONE', #757, #12, #429, .T. ) ;
#803 = CARTESIAN_POINT ( 'NONE',  ( 229.5933875323243853, 8.269304784148667764, 0.000000000000000000 ) ) ;
#804 = LINE ( 'NONE', #971, #482 ) ;
#805 = FACE_OUTER_BOUND ( 'NONE', #187, .T. ) ;
#806 = VERTEX_POINT ( 'NONE', #896 ) ;
#807 = DIRECTION ( 'NONE',  ( -0.000000000000000000, -0.000000000000000000, 1.000000000000000000 ) ) ;
#808 = DIRECTION ( 'NONE',  ( 1.000000000000000000, 0.000000000000000000, 0.000000000000000000 ) ) ;
#809 = ORIENTED_EDGE ( 'NONE', *, *, #162, .F. ) ;
#810 = ORIENTED_EDGE ( 'NONE', *, *, #325, .T. ) ;
#811 = AXIS2_PLACEMENT_3D ( 'NONE', #912, #838, #908 ) ;
#812 = AXIS2_PLACEMENT_3D ( 'NONE', #830, #743, #901 ) ;
#813 = ADVANCED_FACE ( 'NONE', ( #817 ), #663, .F. ) ;
#814 = CARTESIAN_POINT ( 'NONE',  ( 1.500000000000001332, 97.95861386599972320, -5.000000000000000888 ) ) ;
#815 = FILL_AREA_STYLE ('',( #885 ) ) ;
#816 = MECHANICAL_DESIGN_GEOMETRIC_PRESENTATION_REPRESENTATION (  '', ( #703 ), #79 ) ;
#817 = FACE_OUTER_BOUND ( 'NONE', #100, .T. ) ;
#818 = ORIENTED_EDGE ( 'NONE', *, *, #658, .T. ) ;
#819 = EDGE_LOOP ( 'NONE', ( #106, #250, #967, #984 ) ) ;
#820 = CARTESIAN_POINT ( 'NONE',  ( 7.500000000000001776, 80.21694815573088988, 115.0000000000000000 ) ) ;
#821 = DIRECTION ( 'NONE',  ( 1.000000000000000000, 0.000000000000000000, 0.000000000000000000 ) ) ;
#822 = ORIENTED_EDGE ( 'NONE', *, *, #147, .T. ) ;
#823 = ORIENTED_EDGE ( 'NONE', *, *, #341, .T. ) ;
#824 = DIRECTION ( 'NONE',  ( 1.000000000000000000, 0.000000000000000000, 0.000000000000000000 ) ) ;
#825 = LINE ( 'NONE', #207, #701 ) ;
#826 = EDGE_CURVE ( 'NONE', #378, #828, #759, .T. ) ;
#827 = CARTESIAN_POINT ( 'NONE',  ( 64.47217264472477893, 117.7189277294198746, 115.0000000000000000 ) ) ;
#828 = VERTEX_POINT ( 'NONE', #827 ) ;
#829 = ORIENTED_EDGE ( 'NONE', *, *, #119, .F. ) ;
#830 = CARTESIAN_POINT ( 'NONE',  ( 73.27617963107363153, 137.8267677547822530, 110.0000000000000000 ) ) ;
#831 = VECTOR ( 'NONE', #989, 1000.000000000000000 ) ;
#832 = AXIS2_PLACEMENT_3D ( 'NONE', #738, #32, #662 ) ;
#833 = FACE_OUTER_BOUND ( 'NONE', #94, .T. ) ;
#834 = ADVANCED_FACE ( 'NONE', ( #608 ), #449, .F. ) ;
#835 = VECTOR ( 'NONE', #417, 1000.000000000000000 ) ;
#836 = PRODUCT_DEFINITION_FORMATION_WITH_SPECIFIED_SOURCE ( '任何', '', #303, .NOT_KNOWN. ) ;
#837 = EDGE_LOOP ( 'NONE', ( #996, #617, #393, #963 ) ) ;
#838 = DIRECTION ( 'NONE',  ( 0.000000000000000000, 0.000000000000000000, 1.000000000000000000 ) ) ;
#839 = LINE ( 'NONE', #1003, #883 ) ;
#840 = ORIENTED_EDGE ( 'NONE', *, *, #415, .F. ) ;
#841 = EDGE_CURVE ( 'NONE', #461, #975, #839, .T. ) ;
#842 = LINE ( 'NONE', #1000, #129 ) ;
#843 = CARTESIAN_POINT ( 'NONE',  ( 166.3280630489283567, -23.44692499110124473, 110.0000000000000000 ) ) ;
#844 = FACE_BOUND ( 'NONE', #880, .T. ) ;
#845 = ORIENTED_EDGE ( 'NONE', *, *, #130, .F. ) ;
#846 = CARTESIAN_POINT ( 'NONE',  ( 158.5612072594182678, -20.27976302443235568, 30.99999999999994671 ) ) ;
#847 = PLANE ( 'NONE',  #765 ) ;
#848 = EDGE_CURVE ( 'NONE', #566, #911, #161, .T. ) ;
#849 = CARTESIAN_POINT ( 'NONE',  ( 165.9794533152216616, -22.96377384363113094, 109.9999999999999858 ) ) ;
#850 = CIRCLE ( 'NONE', #832, 1.500000000000001332 ) ;
#851 = VERTEX_POINT ( 'NONE', #926 ) ;
#852 = STYLED_ITEM ( 'NONE', ( #321 ), #749 ) ;
#853 = DIRECTION ( 'NONE',  ( 0.3285206249412725987, -0.9444967967061591585, 0.000000000000000000 ) ) ;
#854 = DIRECTION ( 'NONE',  ( 1.000000000000000000, 0.000000000000000000, 0.000000000000000000 ) ) ;
#855 = ORIENTED_EDGE ( 'NONE', *, *, #262, .F. ) ;
#856 = FILL_AREA_STYLE_COLOUR ( '', #953 ) ;
#857 = EDGE_LOOP ( 'NONE', ( #892, #175, #277, #205, #494, #595, #278, #200 ) ) ;
#858 = CARTESIAN_POINT ( 'NONE',  ( 163.1857004021966873, -19.09180816062013264, 30.99999999999999645 ) ) ;
#859 = DIRECTION ( 'NONE',  ( 0.000000000000000000, 0.000000000000000000, 1.000000000000000000 ) ) ;
#860 = DIRECTION ( 'NONE',  ( -0.000000000000000000, -0.000000000000000000, 1.000000000000000000 ) ) ;
#861 = EDGE_CURVE ( 'NONE', #718, #12, #284, .T. ) ;
#862 = ORIENTED_EDGE ( 'NONE', *, *, #119, .T. ) ;
#863 = DIRECTION ( 'NONE',  ( 0.000000000000000000, 0.000000000000000000, 1.000000000000000000 ) ) ;
#864 = CARTESIAN_POINT ( 'NONE',  ( 64.47217264472477893, 117.7189277294198746, 110.0000000000000000 ) ) ;
#865 = ORIENTED_EDGE ( 'NONE', *, *, #317, .F. ) ;
#866 = VECTOR ( 'NONE', #954, 1000.000000000000114 ) ;
#867 = AXIS2_PLACEMENT_3D ( 'NONE', #547, #1017, #301 ) ;
#868 = DIRECTION ( 'NONE',  ( 0.000000000000000000, 0.000000000000000000, 1.000000000000000000 ) ) ;
#869 = CARTESIAN_POINT ( 'NONE',  ( 5.965856316213172583, 21.35428617032495069, 114.9999999999999858 ) ) ;
#870 = SURFACE_STYLE_FILL_AREA ( #542 ) ;
#871 = EDGE_LOOP ( 'NONE', ( #648, #934 ) ) ;
#872 = EDGE_CURVE ( 'NONE', #915, #560, #914, .T. ) ;
#873 = DIRECTION ( 'NONE',  ( -0.5851234318577752669, 0.8109442456118542975, 0.000000000000000000 ) ) ;
#874 = DIRECTION ( 'NONE',  ( -0.000000000000000000, -0.000000000000000000, 1.000000000000000000 ) ) ;
#875 = VERTEX_POINT ( 'NONE', #50 ) ;
#876 = FACE_OUTER_BOUND ( 'NONE', #34, .T. ) ;
#877 = EDGE_CURVE ( 'NONE', #233, #589, #670, .T. ) ;
#878 = CARTESIAN_POINT ( 'NONE',  ( 64.47217264472475051, 117.7189277294199314, -4.814824860968089085E-32 ) ) ;
#879 = FACE_OUTER_BOUND ( 'NONE', #857, .T. ) ;
#880 = EDGE_LOOP ( 'NONE', ( #893, #776 ) ) ;
#881 = DIRECTION ( 'NONE',  ( 0.9925461516413234264, -0.1218693434051364294, 0.000000000000000000 ) ) ;
#882 = AXIS2_PLACEMENT_3D ( 'NONE', #326, #489, #796 ) ;
#883 = VECTOR ( 'NONE', #204, 1000.000000000000000 ) ;
#884 = CARTESIAN_POINT ( 'NONE',  ( 73.27617963107363153, 137.8267677547822530, 0.000000000000000000 ) ) ;
#885 = FILL_AREA_STYLE_COLOUR ( '', #229 ) ;
#886 = CARTESIAN_POINT ( 'NONE',  ( -4.999999999999998224, 97.95861386599972320, -12.85140192875468301 ) ) ;
#887 = EDGE_LOOP ( 'NONE', ( #535, #655, #382, #442 ) ) ;
#888 = FACE_OUTER_BOUND ( 'NONE', #20, .T. ) ;
#889 =( NAMED_UNIT ( * ) SI_UNIT ( $, .STERADIAN. ) SOLID_ANGLE_UNIT ( ) );
#890 = CARTESIAN_POINT ( 'NONE',  ( 7.500000000000001776, 80.21694815573088988, -5.000000000000004441 ) ) ;
#891 = ADVANCED_FACE ( 'NONE', ( #995 ), #216, .F. ) ;
#892 = ORIENTED_EDGE ( 'NONE', *, *, #5, .T. ) ;
#893 = ORIENTED_EDGE ( 'NONE', *, *, #262, .T. ) ;
#894 = LINE ( 'NONE', #42, #520 ) ;
#895 = DIRECTION ( 'NONE',  ( -0.3285206249412727098, 0.9444967967061590475, -0.000000000000000000 ) ) ;
#896 = CARTESIAN_POINT ( 'NONE',  ( 191.5687344665733463, -30.49854066213573489, -5.000000000000000000 ) ) ;
#897 = EDGE_LOOP ( 'NONE', ( #282, #822, #638, #511 ) ) ;
#898 = ORIENTED_EDGE ( 'NONE', *, *, #130, .T. ) ;
#899 = FACE_OUTER_BOUND ( 'NONE', #426, .T. ) ;
#900 = AXIS2_PLACEMENT_3D ( 'NONE', #935, #1007, #854 ) ;
#901 = DIRECTION ( 'NONE',  ( 0.2488051909018016150, -0.9685535488450383035, 0.000000000000000000 ) ) ;
#902 = CIRCLE ( 'NONE', #1018, 1.500000000000002220 ) ;
#903 = AXIS2_PLACEMENT_3D ( 'NONE', #979, #93, #346 ) ;
#904 = PLANE ( 'NONE',  #588 ) ;
#905 = ORIENTED_EDGE ( 'NONE', *, *, #943, .F. ) ;
#906 = ORIENTED_EDGE ( 'NONE', *, *, #1021, .T. ) ;
#907 = EDGE_CURVE ( 'NONE', #1016, #910, #597, .T. ) ;
#908 = DIRECTION ( 'NONE',  ( 1.000000000000000000, 0.000000000000000000, 0.000000000000000000 ) ) ;
#909 = FACE_OUTER_BOUND ( 'NONE', #932, .T. ) ;
#910 = VERTEX_POINT ( 'NONE', #513 ) ;
#911 = VERTEX_POINT ( 'NONE', #199 ) ;
#912 = CARTESIAN_POINT ( 'NONE',  ( 11.00000000000000000, 91.72999574244265375, 115.0000000000000000 ) ) ;
#913 = PRODUCT_RELATED_PRODUCT_CATEGORY ( 'part', '', ( #303 ) ) ;
#914 = LINE ( 'NONE', #593, #940 ) ;
#915 = VERTEX_POINT ( 'NONE', #509 ) ;
#916 = FACE_OUTER_BOUND ( 'NONE', #1008, .T. ) ;
#917 = LINE ( 'NONE', #49, #634 ) ;
#918 = VECTOR ( 'NONE', #358, 1000.000000000000000 ) ;
#919 = DIRECTION ( 'NONE',  ( 0.000000000000000000, -1.000000000000000000, 0.000000000000000000 ) ) ;
#920 = ADVANCED_FACE ( 'NONE', ( #844, #530, #909 ), #524, .F. ) ;
#921 = VECTOR ( 'NONE', #550, 1000.000000000000000 ) ;
#922 = ORIENTED_EDGE ( 'NONE', *, *, #562, .T. ) ;
#923 = CARTESIAN_POINT ( 'NONE',  ( 158.5612072594182678, -20.27976302443235568, -16.99999999999998934 ) ) ;
#924 = DIRECTION ( 'NONE',  ( -0.000000000000000000, -0.000000000000000000, 1.000000000000000000 ) ) ;
#925 = PRODUCT_DEFINITION_CONTEXT ( 'detailed design', #340, 'design' ) ;
#926 = CARTESIAN_POINT ( 'NONE',  ( 166.3280630489283567, -23.44692499110123762, -5.000000000000000000 ) ) ;
#927 = ADVANCED_FACE ( 'NONE', ( #833 ), #904, .T. ) ;
#928 = ORIENTED_EDGE ( 'NONE', *, *, #675, .F. ) ;
#929 = CARTESIAN_POINT ( 'NONE',  ( 165.9794533150138420, -22.96377384334319771, 127.0000000000000000 ) ) ;
#930 = EDGE_CURVE ( 'NONE', #189, #793, #678, .T. ) ;
#931 = DIRECTION ( 'NONE',  ( -0.000000000000000000, -0.000000000000000000, -1.000000000000000000 ) ) ;
#932 = EDGE_LOOP ( 'NONE', ( #865, #992, #801, #390, #470, #905, #329, #167 ) ) ;
#933 = LINE ( 'NONE', #695, #439 ) ;
#934 = ORIENTED_EDGE ( 'NONE', *, *, #590, .F. ) ;
#935 = CARTESIAN_POINT ( 'NONE',  ( 11.00000000000000000, 91.72999574244265375, -5.000000000000004441 ) ) ;
#936 = CARTESIAN_POINT ( 'NONE',  ( 165.9794533150416953, -22.96377384338171268, 0.000000000000000000 ) ) ;
#937 = VECTOR ( 'NONE', #266, 1000.000000000000227 ) ;
#938 = AXIS2_PLACEMENT_3D ( 'NONE', #7, #868, #410 ) ;
#939 = ORIENTED_EDGE ( 'NONE', *, *, #739, .F. ) ;
#940 = VECTOR ( 'NONE', #983, 1000.000000000000227 ) ;
#941 = DIRECTION ( 'NONE',  ( 0.000000000000000000, 0.000000000000000000, 1.000000000000000000 ) ) ;
#942 = CARTESIAN_POINT ( 'NONE',  ( 11.00000000000000000, 91.72999574244265375, 0.000000000000000000 ) ) ;
#943 = EDGE_CURVE ( 'NONE', #851, #455, #685, .T. ) ;
#944 = PRESENTATION_STYLE_ASSIGNMENT (( #235 ) ) ;
#945 = EDGE_LOOP ( 'NONE', ( #515, #150, #498, #682 ) ) ;
#946 = LINE ( 'NONE', #140, #795 ) ;
#947 = ORIENTED_EDGE ( 'NONE', *, *, #53, .T. ) ;
#948 = LINE ( 'NONE', #247, #255 ) ;
#949 = EDGE_CURVE ( 'NONE', #264, #506, #240, .T. ) ;
#950 = ORIENTED_EDGE ( 'NONE', *, *, #147, .F. ) ;
#951 = AXIS2_PLACEMENT_3D ( 'NONE', #154, #863, #453 ) ;
#952 = AXIS2_PLACEMENT_3D ( 'NONE', #800, #322, #722 ) ;
#953 = COLOUR_RGB ( '',0.7921568627450980005, 0.8196078431372548767, 0.9333333333333333481 ) ;
#954 = DIRECTION ( 'NONE',  ( 0.9444967967061591585, 0.3285206249412725987, 0.000000000000000000 ) ) ;
#955 = PLANE ( 'NONE',  #518 ) ;
#956 = DIRECTION ( 'NONE',  ( 0.000000000000000000, 0.000000000000000000, 1.000000000000000000 ) ) ;
#957 = ORIENTED_EDGE ( 'NONE', *, *, #848, .F. ) ;
#958 = EDGE_CURVE ( 'NONE', #828, #586, #70, .T. ) ;
#959 = EDGE_CURVE ( 'NONE', #627, #637, #113, .T. ) ;
#960 = DIRECTION ( 'NONE',  ( 0.3285206249412726542, -0.9444967967061591585, 0.000000000000000000 ) ) ;
#961 = LINE ( 'NONE', #179, #584 ) ;
#962 = LINE ( 'NONE', #717, #835 ) ;
#963 = ORIENTED_EDGE ( 'NONE', *, *, #305, .F. ) ;
#964 = CARTESIAN_POINT ( 'NONE',  ( 11.00000000000000000, 91.72999574244265375, 115.0000000000000000 ) ) ;
#965 = PLANE ( 'NONE',  #286 ) ;
#966 = DIRECTION ( 'NONE',  ( -0.000000000000000000, -0.000000000000000000, -1.000000000000000000 ) ) ;
#967 = ORIENTED_EDGE ( 'NONE', *, *, #73, .F. ) ;
#968 = VECTOR ( 'NONE', #490, 1000.000000000000000 ) ;
#969 = CARTESIAN_POINT ( 'NONE',  ( 0.9100150477423309958, 95.61035117394777672, 110.0000000000000000 ) ) ;
#970 = AXIS2_PLACEMENT_3D ( 'NONE', #512, #976, #824 ) ;
#971 = CARTESIAN_POINT ( 'NONE',  ( 1.225127307951725975, 95.71995543836838749, -12.85140192875468301 ) ) ;
#972 = EDGE_CURVE ( 'NONE', #875, #461, #933, .T. ) ;
#973 = SURFACE_STYLE_USAGE ( .BOTH. , #564 ) ;
#974 = CARTESIAN_POINT ( 'NONE',  ( 7.500000000000001776, 80.21694815573088988, -5.000000000000004441 ) ) ;
#975 = VERTEX_POINT ( 'NONE', #770 ) ;
#976 = DIRECTION ( 'NONE',  ( 0.000000000000000000, 0.000000000000000000, 1.000000000000000000 ) ) ;
#977 = FACE_OUTER_BOUND ( 'NONE', #510, .T. ) ;
#978 = EDGE_CURVE ( 'NONE', #745, #241, #798, .T. ) ;
#979 = CARTESIAN_POINT ( 'NONE',  ( 85.00000000000000000, 84.70537173048707302, 115.0000000000000000 ) ) ;
#980 = VERTEX_POINT ( 'NONE', #228 ) ;
#981 = ORIENTED_EDGE ( 'NONE', *, *, #308, .T. ) ;
#982 = DIRECTION ( 'NONE',  ( -1.000000000000000000, 0.000000000000000000, 0.000000000000000000 ) ) ;
#983 = DIRECTION ( 'NONE',  ( 0.2488051909018016150, -0.9685535488450383035, -0.000000000000000000 ) ) ;
#984 = ORIENTED_EDGE ( 'NONE', *, *, #728, .T. ) ;
#985 = EDGE_CURVE ( 'NONE', #757, #560, #381, .T. ) ;
#986 = VERTEX_POINT ( 'NONE', #612 ) ;
#987 = MANIFOLD_SOLID_BREP ( '圆角1', #602 ) ;
#988 = VECTOR ( 'NONE', #545, 1000.000000000000000 ) ;
#989 = DIRECTION ( 'NONE',  ( -0.000000000000000000, -0.000000000000000000, 1.000000000000000000 ) ) ;
#990 = DIRECTION ( 'NONE',  ( 1.000000000000000000, 0.000000000000000000, 0.000000000000000000 ) ) ;
#991 = EDGE_LOOP ( 'NONE', ( #206, #957, #573, #754 ) ) ;
#992 = ORIENTED_EDGE ( 'NONE', *, *, #877, .F. ) ;
#993 = ADVANCED_FACE ( 'NONE', ( #616 ), #699, .F. ) ;
#994 = DIRECTION ( 'NONE',  ( -0.3285206249412727098, 0.9444967967061590475, -0.000000000000000000 ) ) ;
#995 = FACE_OUTER_BOUND ( 'NONE', #404, .T. ) ;
#996 = ORIENTED_EDGE ( 'NONE', *, *, #1005, .F. ) ;
#997 = FACE_BOUND ( 'NONE', #871, .T. ) ;
#998 = CARTESIAN_POINT ( 'NONE',  ( 166.3280630489283567, -23.44692499110124473, 115.0000000000000000 ) ) ;
#999 = ORIENTED_EDGE ( 'NONE', *, *, #21, .T. ) ;
#1000 = CARTESIAN_POINT ( 'NONE',  ( 1.225127307951725975, 95.71995543836838749, -12.85140192875468301 ) ) ;
#1001 = DIRECTION ( 'NONE',  ( 0.9444967967061591585, 0.3285206249412725987, 0.000000000000000000 ) ) ;
#1002 = VECTOR ( 'NONE', #136, 1000.000000000000000 ) ;
#1003 = CARTESIAN_POINT ( 'NONE',  ( 0.000000000000000000, 0.000000000000000000, 110.0000000000000000 ) ) ;
#1004 = VECTOR ( 'NONE', #368, 1000.000000000000000 ) ;
#1005 = EDGE_CURVE ( 'NONE', #980, #122, #505, .T. ) ;
#1006 = ORIENTED_EDGE ( 'NONE', *, *, #943, .T. ) ;
#1007 = DIRECTION ( 'NONE',  ( -0.000000000000000000, -0.000000000000000000, 1.000000000000000000 ) ) ;
#1008 = EDGE_LOOP ( 'NONE', ( #1019, #818, #420, #40 ) ) ;
#1009 = DIRECTION ( 'NONE',  ( 0.9444967967061591585, 0.3285206249412725987, 0.000000000000000000 ) ) ;
#1010 = LINE ( 'NONE', #74, #43 ) ;
#1011 =( NAMED_UNIT ( * ) SI_UNIT ( $, .STERADIAN. ) SOLID_ANGLE_UNIT ( ) );
#1012 = ORIENTED_EDGE ( 'NONE', *, *, #978, .T. ) ;
#1013 = EDGE_CURVE ( 'NONE', #911, #745, #86, .T. ) ;
#1014 = PLANE ( 'NONE',  #371 ) ;
#1015 = FACE_OUTER_BOUND ( 'NONE', #727, .T. ) ;
#1016 = VERTEX_POINT ( 'NONE', #534 ) ;
#1017 = DIRECTION ( 'NONE',  ( -0.000000000000000000, -0.000000000000000000, 1.000000000000000000 ) ) ;
#1018 = AXIS2_PLACEMENT_3D ( 'NONE', #472, #394, #275 ) ;
#1019 = ORIENTED_EDGE ( 'NONE', *, *, #493, .F. ) ;
#1020 = AXIS2_PLACEMENT_3D ( 'NONE', #652, #721, #92 ) ;
#1021 = EDGE_CURVE ( 'NONE', #691, #784, #152, .T. ) ;
#1022 = DIRECTION ( 'NONE',  ( 1.000000000000000000, 0.000000000000000000, 0.000000000000000000 ) ) ;
ENDSEC;
END-ISO-10303-21;
