ISO-10303-21;
HEADER;
FILE_DESCRIPTION (( 'STEP AP214' ),
    '1' );
FILE_NAME ('抓斗主体.STEP',
    '2026-05-26T23:36:54',
    ( '' ),
    ( '' ),
    'SwSTEP 2.0',
    'SolidWorks 2020',
    '' );
FILE_SCHEMA (( 'AUTOMOTIVE_DESIGN' ));
ENDSEC;

DATA;
#1 = FACE_OUTER_BOUND ( 'NONE', #735, .T. ) ;
#2 = EDGE_CURVE ( 'NONE', #230, #239, #72, .T. ) ;
#3 = CARTESIAN_POINT ( 'NONE',  ( 5.999999999999999112, 61.73269585832071016, -5.000000000000004441 ) ) ;
#4 = DIRECTION ( 'NONE',  ( -0.000000000000000000, -0.000000000000000000, 1.000000000000000000 ) ) ;
#5 = CIRCLE ( 'NONE', #684, 1.500000000000001332 ) ;
#6 = CARTESIAN_POINT ( 'NONE',  ( 4.499999999999999112, 61.73269585832071016, 115.0000000000000000 ) ) ;
#7 = CIRCLE ( 'NONE', #622, 1.500000000000001332 ) ;
#8 = ORIENTED_EDGE ( 'NONE', *, *, #181, .T. ) ;
#9 = DIRECTION ( 'NONE',  ( 0.000000000000000000, 0.000000000000000000, 1.000000000000000000 ) ) ;
#10 = ORIENTED_EDGE ( 'NONE', *, *, #311, .T. ) ;
#11 = VERTEX_POINT ( 'NONE', #518 ) ;
#12 = EDGE_LOOP ( 'NONE', ( #242, #282, #135, #406 ) ) ;
#13 = LINE ( 'NONE', #649, #378 ) ;
#14 = VERTEX_POINT ( 'NONE', #404 ) ;
#15 = EDGE_LOOP ( 'NONE', ( #138, #542, #245, #337 ) ) ;
#16 = LINE ( 'NONE', #416, #510 ) ;
#17 = ORIENTED_EDGE ( 'NONE', *, *, #51, .T. ) ;
#18 = ORIENTED_EDGE ( 'NONE', *, *, #255, .F. ) ;
#19 = EDGE_CURVE ( 'NONE', #658, #62, #522, .T. ) ;
#20 = FACE_BOUND ( 'NONE', #360, .T. ) ;
#21 = FACE_BOUND ( 'NONE', #702, .T. ) ;
#22 = ORIENTED_EDGE ( 'NONE', *, *, #639, .F. ) ;
#23 = CYLINDRICAL_SURFACE ( 'NONE', #585, 1.500000000000001332 ) ;
#24 = AXIS2_PLACEMENT_3D ( 'NONE', #672, #115, #52 ) ;
#25 = FACE_OUTER_BOUND ( 'NONE', #531, .T. ) ;
#26 = VECTOR ( 'NONE', #37, 1000.000000000000000 ) ;
#27 = ORIENTED_EDGE ( 'NONE', *, *, #342, .F. ) ;
#28 = AXIS2_PLACEMENT_3D ( 'NONE', #240, #178, #411 ) ;
#29 = CARTESIAN_POINT ( 'NONE',  ( 4.499999999999999112, 61.73269585832071016, 0.000000000000000000 ) ) ;
#30 = EDGE_LOOP ( 'NONE', ( #233, #635, #254, #18, #299, #707, #70, #74 ) ) ;
#31 = ADVANCED_FACE ( 'NONE', ( #20, #346, #642 ), #128, .T. ) ;
#32 = DIRECTION ( 'NONE',  ( 0.3285206249412726542, -0.9444967967061591585, 0.000000000000000000 ) ) ;
#33 = CARTESIAN_POINT ( 'NONE',  ( 62.65844115265371528, 98.60381230433286248, 0.000000000000000000 ) ) ;
#34 = ORIENTED_EDGE ( 'NONE', *, *, #300, .T. ) ;
#35 = ADVANCED_FACE ( 'NONE', ( #297 ), #528, .F. ) ;
#36 = DIRECTION ( 'NONE',  ( -0.000000000000000000, -0.000000000000000000, 1.000000000000000000 ) ) ;
#37 = DIRECTION ( 'NONE',  ( -0.000000000000000000, -0.000000000000000000, 1.000000000000000000 ) ) ;
#38 = PRESENTATION_LAYER_ASSIGNMENT (  '', '', ( #646 ) ) ;
#39 = EDGE_CURVE ( 'NONE', #78, #310, #417, .T. ) ;
#40 = DIRECTION ( 'NONE',  ( 1.000000000000000000, 0.000000000000000000, 0.000000000000000000 ) ) ;
#41 = FACE_OUTER_BOUND ( 'NONE', #15, .T. ) ;
#42 = CARTESIAN_POINT ( 'NONE',  ( 62.65844115265374370, 98.60381230433280564, -5.000000000000000000 ) ) ;
#43 = DIRECTION ( 'NONE',  ( -0.000000000000000000, -0.000000000000000000, -1.000000000000000000 ) ) ;
#44 = EDGE_CURVE ( 'NONE', #658, #350, #358, .T. ) ;
#45 = CARTESIAN_POINT ( 'NONE',  ( 5.999999999999999112, 61.73269585832071016, -5.000000000000004441 ) ) ;
#46 = CARTESIAN_POINT ( 'NONE',  ( 100.1305873575418985, -24.34835261207807378, 110.0000000000000000 ) ) ;
#47 = DIRECTION ( 'NONE',  ( 0.000000000000000000, 0.000000000000000000, 1.000000000000000000 ) ) ;
#48 = ORIENTED_EDGE ( 'NONE', *, *, #403, .T. ) ;
#49 = CYLINDRICAL_SURFACE ( 'NONE', #400, 1.500000000000001332 ) ;
#50 = DIRECTION ( 'NONE',  ( -0.000000000000000000, -0.000000000000000000, 1.000000000000000000 ) ) ;
#51 = EDGE_CURVE ( 'NONE', #334, #78, #154, .T. ) ;
#52 = DIRECTION ( 'NONE',  ( -1.000000000000000000, 0.000000000000000000, 0.000000000000000000 ) ) ;
#53 = CARTESIAN_POINT ( 'NONE',  ( 12.50000000000000000, 73.24574344503247403, 0.000000000000000000 ) ) ;
#54 = SURFACE_SIDE_STYLE ('',( #224 ) ) ;
#55 = ORIENTED_EDGE ( 'NONE', *, *, #258, .T. ) ;
#56 = LINE ( 'NONE', #323, #608 ) ;
#57 = LINE ( 'NONE', #674, #289 ) ;
#58 = ORIENTED_EDGE ( 'NONE', *, *, #19, .T. ) ;
#59 = VECTOR ( 'NONE', #220, 1000.000000000000000 ) ;
#60 = PRODUCT_DEFINITION_FORMATION_WITH_SPECIFIED_SOURCE ( '任何', '', #405, .NOT_KNOWN. ) ;
#61 = AXIS2_PLACEMENT_3D ( 'NONE', #504, #617, #104 ) ;
#62 = VERTEX_POINT ( 'NONE', #708 ) ;
#63 = ADVANCED_FACE ( 'NONE', ( #88 ), #598, .T. ) ;
#64 = EDGE_LOOP ( 'NONE', ( #27, #123, #441, #34 ) ) ;
#65 = ORIENTED_EDGE ( 'NONE', *, *, #677, .T. ) ;
#66 = FILL_AREA_STYLE ('',( #177 ) ) ;
#67 = ORIENTED_EDGE ( 'NONE', *, *, #286, .F. ) ;
#68 = ORIENTED_EDGE ( 'NONE', *, *, #39, .F. ) ;
#69 = AXIS2_PLACEMENT_3D ( 'NONE', #217, #624, #654 ) ;
#70 = ORIENTED_EDGE ( 'NONE', *, *, #469, .F. ) ;
#71 = AXIS2_PLACEMENT_3D ( 'NONE', #45, #198, #552 ) ;
#72 = CIRCLE ( 'NONE', #28, 1.500000000000000444 ) ;
#73 = FACE_OUTER_BOUND ( 'NONE', #410, .T. ) ;
#74 = ORIENTED_EDGE ( 'NONE', *, *, #513, .F. ) ;
#75 = EDGE_CURVE ( 'NONE', #11, #401, #687, .T. ) ;
#76 = ORIENTED_EDGE ( 'NONE', *, *, #103, .T. ) ;
#77 = CARTESIAN_POINT ( 'NONE',  ( 7.500000000000000000, 61.73269585832071016, -5.000000000000004441 ) ) ;
#78 = VERTEX_POINT ( 'NONE', #210 ) ;
#79 = ORIENTED_EDGE ( 'NONE', *, *, #248, .F. ) ;
#80 = FACE_OUTER_BOUND ( 'NONE', #301, .T. ) ;
#81 = ORIENTED_EDGE ( 'NONE', *, *, #181, .F. ) ;
#82 = CARTESIAN_POINT ( 'NONE',  ( 62.65844115265371528, 98.60381230433286248, 110.0000000000000000 ) ) ;
#83 = CIRCLE ( 'NONE', #85, 114.4338034517890321 ) ;
#84 = EDGE_CURVE ( 'NONE', #182, #575, #451, .T. ) ;
#85 = AXIS2_PLACEMENT_3D ( 'NONE', #449, #554, #679 ) ;
#86 = DIRECTION ( 'NONE',  ( -0.000000000000000000, -0.000000000000000000, -1.000000000000000000 ) ) ;
#87 = ORIENTED_EDGE ( 'NONE', *, *, #207, .F. ) ;
#88 = FACE_OUTER_BOUND ( 'NONE', #676, .T. ) ;
#89 = FACE_BOUND ( 'NONE', #468, .T. ) ;
#90 = ORIENTED_EDGE ( 'NONE', *, *, #361, .T. ) ;
#91 = CARTESIAN_POINT ( 'NONE',  ( 11.00000000000000000, 73.24574344503247403, 115.0000000000000000 ) ) ;
#92 = DIRECTION ( 'NONE',  ( -0.3285206249412726542, 0.9444967967061591585, 0.000000000000000000 ) ) ;
#93 = CYLINDRICAL_SURFACE ( 'NONE', #519, 109.4338034517890321 ) ;
#94 = LINE ( 'NONE', #147, #262 ) ;
#95 = LINE ( 'NONE', #33, #203 ) ;
#96 = AXIS2_PLACEMENT_3D ( 'NONE', #335, #443, #102 ) ;
#97 = CIRCLE ( 'NONE', #318, 1.500000000000001332 ) ;
#98 = EDGE_CURVE ( 'NONE', #419, #700, #381, .T. ) ;
#99 = DIRECTION ( 'NONE',  ( 0.000000000000000000, 0.000000000000000000, 1.000000000000000000 ) ) ;
#100 = FACE_OUTER_BOUND ( 'NONE', #423, .T. ) ;
#101 = CARTESIAN_POINT ( 'NONE',  ( 68.23955059720827876, 85.55186188631924438, 110.0000000000000000 ) ) ;
#102 = DIRECTION ( 'NONE',  ( 0.9444967967061591585, 0.3285206249412726542, 0.000000000000000000 ) ) ;
#103 = EDGE_CURVE ( 'NONE', #163, #295, #486, .T. ) ;
#104 = DIRECTION ( 'NONE',  ( -1.000000000000000000, 0.000000000000000000, 0.000000000000000000 ) ) ;
#105 = PLANE ( 'NONE',  #637 ) ;
#106 = VERTEX_POINT ( 'NONE', #29 ) ;
#107 = DIRECTION ( 'NONE',  ( 1.000000000000000000, 0.000000000000000000, 0.000000000000000000 ) ) ;
#108 = EDGE_CURVE ( 'NONE', #572, #419, #377, .T. ) ;
#109 = AXIS2_PLACEMENT_3D ( 'NONE', #729, #681, #164 ) ;
#110 = DIRECTION ( 'NONE',  ( 1.000000000000000000, 0.000000000000000000, 0.000000000000000000 ) ) ;
#111 = CLOSED_SHELL ( 'NONE', ( #494, #688, #694, #129, #229, #122, #435, #440, #726, #31, #546, #424, #63, #607, #713, #555, #161, #35, #389, #569, #166 ) ) ;
#112 = DIRECTION ( 'NONE',  ( -0.000000000000000000, -0.000000000000000000, 1.000000000000000000 ) ) ;
#113 = AXIS2_PLACEMENT_3D ( 'NONE', #218, #324, #328 ) ;
#114 = ORIENTED_EDGE ( 'NONE', *, *, #172, .T. ) ;
#115 = DIRECTION ( 'NONE',  ( -0.000000000000000000, -0.000000000000000000, -1.000000000000000000 ) ) ;
#116 = CARTESIAN_POINT ( 'NONE',  ( 0.000000000000000000, 0.000000000000000000, 0.000000000000000000 ) ) ;
#117 = ORIENTED_EDGE ( 'NONE', *, *, #300, .F. ) ;
#118 = FACE_OUTER_BOUND ( 'NONE', #462, .T. ) ;
#119 = ORIENTED_EDGE ( 'NONE', *, *, #505, .F. ) ;
#120 = AXIS2_PLACEMENT_3D ( 'NONE', #384, #630, #558 ) ;
#121 = AXIS2_PLACEMENT_3D ( 'NONE', #678, #99, #226 ) ;
#122 = ADVANCED_FACE ( 'NONE', ( #139 ), #602, .F. ) ;
#123 = ORIENTED_EDGE ( 'NONE', *, *, #325, .F. ) ;
#124 = EDGE_LOOP ( 'NONE', ( #683, #557 ) ) ;
#125 = SURFACE_STYLE_FILL_AREA ( #66 ) ;
#126 = DIRECTION ( 'NONE',  ( 1.000000000000000000, 0.000000000000000000, 0.000000000000000000 ) ) ;
#127 = ORIENTED_EDGE ( 'NONE', *, *, #662, .T. ) ;
#128 = PLANE ( 'NONE',  #146 ) ;
#129 = ADVANCED_FACE ( 'NONE', ( #100 ), #482, .F. ) ;
#130 = EDGE_LOOP ( 'NONE', ( #81, #601, #471, #651 ) ) ;
#131 = AXIS2_PLACEMENT_3D ( 'NONE', #319, #503, #110 ) ;
#132 = VERTEX_POINT ( 'NONE', #82 ) ;
#133 = AXIS2_PLACEMENT_3D ( 'NONE', #91, #664, #305 ) ;
#134 = DIRECTION ( 'NONE',  ( 0.3285206249412727653, -0.9444967967061591585, 0.000000000000000000 ) ) ;
#135 = ORIENTED_EDGE ( 'NONE', *, *, #2, .T. ) ;
#136 = DIRECTION ( 'NONE',  ( -0.3285206249412727653, 0.9444967967061591585, -0.000000000000000000 ) ) ;
#137 = CARTESIAN_POINT ( 'NONE',  ( 4.499999999999999112, 61.73269585832071016, 110.0000000000000000 ) ) ;
#138 = ORIENTED_EDGE ( 'NONE', *, *, #216, .F. ) ;
#139 = FACE_OUTER_BOUND ( 'NONE', #30, .T. ) ;
#140 = VERTEX_POINT ( 'NONE', #193 ) ;
#141 = CARTESIAN_POINT ( 'NONE',  ( 7.500000000000000000, 61.73269585832071016, 0.000000000000000000 ) ) ;
#142 = AXIS2_PLACEMENT_3D ( 'NONE', #194, #526, #241 ) ;
#143 = FACE_OUTER_BOUND ( 'NONE', #284, .T. ) ;
#144 = UNCERTAINTY_MEASURE_WITH_UNIT (LENGTH_MEASURE( 1.000000000000000082E-05 ), #485, 'distance_accuracy_value', 'NONE');
#145 = ORIENTED_EDGE ( 'NONE', *, *, #412, .F. ) ;
#146 = AXIS2_PLACEMENT_3D ( 'NONE', #349, #525, #644 ) ;
#147 = CARTESIAN_POINT ( 'NONE',  ( 62.65844115265374370, 98.60381230433280564, 110.0000000000000000 ) ) ;
#148 = FACE_BOUND ( 'NONE', #473, .T. ) ;
#149 = DIRECTION ( 'NONE',  ( 0.000000000000000000, -1.000000000000000000, 0.000000000000000000 ) ) ;
#150 = DIRECTION ( 'NONE',  ( -0.3285206249412727098, 0.9444967967061591585, -1.036168073505813848E-17 ) ) ;
#151 = CARTESIAN_POINT ( 'NONE',  ( 62.65844115265374370, 98.60381230433280564, 115.0000000000000000 ) ) ;
#152 = EDGE_CURVE ( 'NONE', #700, #419, #487, .T. ) ;
#153 = CARTESIAN_POINT ( 'NONE',  ( -1.301042606982605321E-15, 71.51574770258986291, 110.0000000000000000 ) ) ;
#154 = LINE ( 'NONE', #256, #561 ) ;
#155 = FACE_OUTER_BOUND ( 'NONE', #12, .T. ) ;
#156 = VECTOR ( 'NONE', #512, 1000.000000000000000 ) ;
#157 = VECTOR ( 'NONE', #567, 1000.000000000000000 ) ;
#158 = DIRECTION ( 'NONE',  ( -0.3285206249412725987, 0.9444967967061590475, -0.000000000000000000 ) ) ;
#159 = DIRECTION ( 'NONE',  ( -0.000000000000000000, -1.000000000000000000, -0.000000000000000000 ) ) ;
#160 = CARTESIAN_POINT ( 'NONE',  ( 64.30104427736010564, 93.88132832080201240, -5.000000000000004441 ) ) ;
#161 = ADVANCED_FACE ( 'NONE', ( #661 ), #421, .T. ) ;
#162 = LINE ( 'NONE', #170, #728 ) ;
#163 = VERTEX_POINT ( 'NONE', #656 ) ;
#164 = DIRECTION ( 'NONE',  ( 1.000000000000000000, 0.000000000000000000, 0.000000000000000000 ) ) ;
#165 = DIRECTION ( 'NONE',  ( 1.000000000000000000, 0.000000000000000000, 0.000000000000000000 ) ) ;
#166 = ADVANCED_FACE ( 'NONE', ( #259 ), #23, .F. ) ;
#167 = VECTOR ( 'NONE', #112, 1000.000000000000000 ) ;
#168 = VERTEX_POINT ( 'NONE', #141 ) ;
#169 = DIRECTION ( 'NONE',  ( 1.000000000000000000, 0.000000000000000000, 0.000000000000000000 ) ) ;
#170 = CARTESIAN_POINT ( 'NONE',  ( 9.499999999999998224, 73.24574344503247403, -5.000000000000004441 ) ) ;
#171 = CARTESIAN_POINT ( 'NONE',  ( 5.999999999999999112, 61.73269585832071016, -5.000000000000004441 ) ) ;
#172 = EDGE_CURVE ( 'NONE', #712, #132, #94, .T. ) ;
#173 = ORIENTED_EDGE ( 'NONE', *, *, #478, .T. ) ;
#174 = ORIENTED_EDGE ( 'NONE', *, *, #75, .T. ) ;
#175 = SHAPE_DEFINITION_REPRESENTATION ( #587, #453 ) ;
#176 = ORIENTED_EDGE ( 'NONE', *, *, #216, .T. ) ;
#177 = FILL_AREA_STYLE_COLOUR ( '', #329 ) ;
#178 = DIRECTION ( 'NONE',  ( 0.000000000000000000, 0.000000000000000000, 1.000000000000000000 ) ) ;
#179 = ORIENTED_EDGE ( 'NONE', *, *, #593, .F. ) ;
#180 = LINE ( 'NONE', #339, #156 ) ;
#181 = EDGE_CURVE ( 'NONE', #530, #572, #533, .T. ) ;
#182 = VERTEX_POINT ( 'NONE', #263 ) ;
#183 = VERTEX_POINT ( 'NONE', #489 ) ;
#184 = DIRECTION ( 'NONE',  ( -0.000000000000000000, -0.000000000000000000, -1.000000000000000000 ) ) ;
#185 = ORIENTED_EDGE ( 'NONE', *, *, #502, .T. ) ;
#186 = LINE ( 'NONE', #283, #716 ) ;
#187 = EDGE_LOOP ( 'NONE', ( #55, #520, #515, #538 ) ) ;
#188 = CIRCLE ( 'NONE', #215, 1.500000000000000444 ) ;
#189 = MECHANICAL_DESIGN_GEOMETRIC_PRESENTATION_REPRESENTATION (  '', ( #646 ), #706 ) ;
#190 = EDGE_LOOP ( 'NONE', ( #185, #574, #364, #460, #732, #306, #470 ) ) ;
#191 = AXIS2_PLACEMENT_3D ( 'NONE', #480, #197, #714 ) ;
#192 = VERTEX_POINT ( 'NONE', #721 ) ;
#193 = CARTESIAN_POINT ( 'NONE',  ( 104.9031093400663650, -22.84960873447851171, -5.000000000000000000 ) ) ;
#194 = CARTESIAN_POINT ( 'NONE',  ( 5.999999999999999112, 61.73269585832071016, -5.000000000000004441 ) ) ;
#195 = ORIENTED_EDGE ( 'NONE', *, *, #444, .T. ) ;
#196 = EDGE_CURVE ( 'NONE', #310, #132, #394, .T. ) ;
#197 = DIRECTION ( 'NONE',  ( 1.000000000000000000, 0.000000000000000000, 0.000000000000000000 ) ) ;
#198 = DIRECTION ( 'NONE',  ( -0.000000000000000000, -0.000000000000000000, 1.000000000000000000 ) ) ;
#199 = ORIENTED_EDGE ( 'NONE', *, *, #258, .F. ) ;
#200 = DIRECTION ( 'NONE',  ( 0.000000000000000000, 0.000000000000000000, -1.000000000000000000 ) ) ;
#201 = AXIS2_PLACEMENT_3D ( 'NONE', #46, #264, #497 ) ;
#202 = LINE ( 'NONE', #160, #367 ) ;
#203 = VECTOR ( 'NONE', #615, 1000.000000000000000 ) ;
#204 = AXIS2_PLACEMENT_3D ( 'NONE', #653, #431, #476 ) ;
#205 = CARTESIAN_POINT ( 'NONE',  ( -5.000000000000000000, 0.000000000000000000, -5.000000000000004441 ) ) ;
#206 = DIRECTION ( 'NONE',  ( 1.000000000000000000, 0.000000000000000000, 0.000000000000000000 ) ) ;
#207 = EDGE_CURVE ( 'NONE', #477, #699, #685, .T. ) ;
#208 = LINE ( 'NONE', #488, #560 ) ;
#209 = DIRECTION ( 'NONE',  ( -0.000000000000000000, -0.000000000000000000, -1.000000000000000000 ) ) ;
#210 = CARTESIAN_POINT ( 'NONE',  ( -0.9803462017040240895, 71.17475771938846663, 110.0000000000000000 ) ) ;
#211 = ORIENTED_EDGE ( 'NONE', *, *, #75, .F. ) ;
#212 = DIRECTION ( 'NONE',  ( 0.000000000000000000, -1.000000000000000000, 0.000000000000000000 ) ) ;
#213 = DIRECTION ( 'NONE',  ( 0.9444967967061590475, 0.3285206249412726542, 0.000000000000000000 ) ) ;
#214 = DIRECTION ( 'NONE',  ( 0.000000000000000000, 0.000000000000000000, 1.000000000000000000 ) ) ;
#215 = AXIS2_PLACEMENT_3D ( 'NONE', #327, #553, #666 ) ;
#216 = EDGE_CURVE ( 'NONE', #14, #698, #97, .T. ) ;
#217 = CARTESIAN_POINT ( 'NONE',  ( 68.23955059720827876, 85.55186188631924438, -5.000000000000000000 ) ) ;
#218 = CARTESIAN_POINT ( 'NONE',  ( 68.23955059720827876, 85.55186188631924438, -5.000000000000004441 ) ) ;
#219 = ORIENTED_EDGE ( 'NONE', *, *, #342, .T. ) ;
#220 = DIRECTION ( 'NONE',  ( 0.000000000000000000, 0.000000000000000000, -1.000000000000000000 ) ) ;
#221 = DIRECTION ( 'NONE',  ( -0.000000000000000000, -0.000000000000000000, -1.000000000000000000 ) ) ;
#222 = ORIENTED_EDGE ( 'NONE', *, *, #469, .T. ) ;
#223 = DIRECTION ( 'NONE',  ( 0.000000000000000000, 0.000000000000000000, 1.000000000000000000 ) ) ;
#224 = SURFACE_STYLE_FILL_AREA ( #731 ) ;
#225 = VECTOR ( 'NONE', #149, 1000.000000000000000 ) ;
#226 = DIRECTION ( 'NONE',  ( 1.000000000000000000, 0.000000000000000000, 0.000000000000000000 ) ) ;
#227 = AXIS2_PLACEMENT_3D ( 'NONE', #408, #640, #126 ) ;
#228 = CARTESIAN_POINT ( 'NONE',  ( -2.622949326410387805, 75.89724170291927408, 110.0000000000000000 ) ) ;
#229 = ADVANCED_FACE ( 'NONE', ( #118 ), #265, .T. ) ;
#230 = VERTEX_POINT ( 'NONE', #6 ) ;
#231 = ORIENTED_EDGE ( 'NONE', *, *, #196, .T. ) ;
#232 = EDGE_CURVE ( 'NONE', #575, #230, #438, .T. ) ;
#233 = ORIENTED_EDGE ( 'NONE', *, *, #44, .T. ) ;
#234 = ORIENTED_EDGE ( 'NONE', *, *, #382, .F. ) ;
#235 = ORIENTED_EDGE ( 'NONE', *, *, #604, .F. ) ;
#236 = EDGE_CURVE ( 'NONE', #11, #356, #268, .T. ) ;
#237 = ORIENTED_EDGE ( 'NONE', *, *, #652, .T. ) ;
#238 = PLANE ( 'NONE',  #366 ) ;
#239 = VERTEX_POINT ( 'NONE', #445 ) ;
#240 = CARTESIAN_POINT ( 'NONE',  ( 5.999999999999999112, 61.73269585832071016, 115.0000000000000000 ) ) ;
#241 = DIRECTION ( 'NONE',  ( 1.000000000000000000, 0.000000000000000000, 0.000000000000000000 ) ) ;
#242 = ORIENTED_EDGE ( 'NONE', *, *, #536, .F. ) ;
#243 = CARTESIAN_POINT ( 'NONE',  ( 5.999999999999999112, 61.73269585832071016, -5.000000000000004441 ) ) ;
#244 = UNCERTAINTY_MEASURE_WITH_UNIT (LENGTH_MEASURE( 1.000000000000000082E-05 ), #446, 'distance_accuracy_value', 'NONE');
#245 = ORIENTED_EDGE ( 'NONE', *, *, #505, .T. ) ;
#246 = DIRECTION ( 'NONE',  ( -0.000000000000000000, -0.000000000000000000, 1.000000000000000000 ) ) ;
#247 = AXIS2_PLACEMENT_3D ( 'NONE', #611, #150, #313 ) ;
#248 = EDGE_CURVE ( 'NONE', #398, #595, #571, .T. ) ;
#249 = CARTESIAN_POINT ( 'NONE',  ( 104.9031093400663650, -22.84960873447851171, 115.0000000000000000 ) ) ;
#250 = ORIENTED_EDGE ( 'NONE', *, *, #207, .T. ) ;
#251 = CARTESIAN_POINT ( 'NONE',  ( 4.499999999999999112, 61.73269585832071016, -5.000000000000004441 ) ) ;
#252 = CARTESIAN_POINT ( 'NONE',  ( 5.999999999999999112, 61.73269585832071016, 110.0000000000000000 ) ) ;
#253 = CARTESIAN_POINT ( 'NONE',  ( 12.50000000000000000, 73.24574344503247403, -5.000000000000004441 ) ) ;
#254 = ORIENTED_EDGE ( 'NONE', *, *, #172, .F. ) ;
#255 = EDGE_CURVE ( 'NONE', #568, #712, #271, .T. ) ;
#256 = CARTESIAN_POINT ( 'NONE',  ( -0.9803462017040206478, 71.17475771938846663, 8.239936510889833698E-15 ) ) ;
#257 = LINE ( 'NONE', #612, #26 ) ;
#258 = EDGE_CURVE ( 'NONE', #192, #140, #466, .T. ) ;
#259 = FACE_OUTER_BOUND ( 'NONE', #456, .T. ) ;
#260 = CARTESIAN_POINT ( 'NONE',  ( -2.622949326410384252, 75.89724170291927408, 8.239936510889833698E-15 ) ) ;
#261 = VECTOR ( 'NONE', #213, 1000.000000000000000 ) ;
#262 = VECTOR ( 'NONE', #368, 1000.000000000000000 ) ;
#263 = CARTESIAN_POINT ( 'NONE',  ( 7.500000000000000000, 61.73269585832071016, 110.0000000000000000 ) ) ;
#264 = DIRECTION ( 'NONE',  ( -0.000000000000000000, -0.000000000000000000, -1.000000000000000000 ) ) ;
#265 = CYLINDRICAL_SURFACE ( 'NONE', #61, 5.000000000000004441 ) ;
#266 = CARTESIAN_POINT ( 'NONE',  ( 9.499999999999998224, 73.24574344503247403, 115.0000000000000000 ) ) ;
#267 = PLANE ( 'NONE',  #69 ) ;
#268 = LINE ( 'NONE', #724, #501 ) ;
#269 = CIRCLE ( 'NONE', #109, 1.500000000000000444 ) ;
#270 = EDGE_CURVE ( 'NONE', #106, #168, #523, .T. ) ;
#271 = LINE ( 'NONE', #455, #534 ) ;
#272 =( NAMED_UNIT ( * ) PLANE_ANGLE_UNIT ( ) SI_UNIT ( $, .RADIAN. ) );
#273 = ORIENTED_EDGE ( 'NONE', *, *, #232, .F. ) ;
#274 = PRODUCT_RELATED_PRODUCT_CATEGORY ( 'part', '', ( #405 ) ) ;
#275 = CARTESIAN_POINT ( 'NONE',  ( 11.00000000000000000, 73.24574344503247403, 110.0000000000000000 ) ) ;
#276 = CARTESIAN_POINT ( 'NONE',  ( 4.499999999999999112, 61.73269585832071016, -5.000000000000004441 ) ) ;
#277 = CARTESIAN_POINT ( 'NONE',  ( 0.000000000000000000, 0.000000000000000000, 0.000000000000000000 ) ) ;
#278 = LINE ( 'NONE', #550, #634 ) ;
#279 = EDGE_CURVE ( 'NONE', #477, #11, #57, .T. ) ;
#280 = DIRECTION ( 'NONE',  ( -0.000000000000000000, -1.000000000000000000, -0.000000000000000000 ) ) ;
#281 = CIRCLE ( 'NONE', #201, 5.000000000000004441 ) ;
#282 = ORIENTED_EDGE ( 'NONE', *, *, #232, .T. ) ;
#283 = CARTESIAN_POINT ( 'NONE',  ( -5.000000000000000000, -2.374605123117972116, 115.0000000000000000 ) ) ;
#284 = EDGE_LOOP ( 'NONE', ( #48, #235, #529, #76 ) ) ;
#285 = EDGE_LOOP ( 'NONE', ( #174, #90, #638, #691 ) ) ;
#286 = EDGE_CURVE ( 'NONE', #326, #527, #450, .T. ) ;
#287 = ORIENTED_EDGE ( 'NONE', *, *, #589, .T. ) ;
#288 = EDGE_LOOP ( 'NONE', ( #467, #22, #127, #465 ) ) ;
#289 = VECTOR ( 'NONE', #159, 1000.000000000000000 ) ;
#290 = ORIENTED_EDGE ( 'NONE', *, *, #279, .F. ) ;
#291 = VECTOR ( 'NONE', #701, 1000.000000000000114 ) ;
#292 = CARTESIAN_POINT ( 'NONE',  ( 11.00000000000000000, 73.24574344503247403, -5.000000000000004441 ) ) ;
#293 = VECTOR ( 'NONE', #427, 1000.000000000000000 ) ;
#294 = VECTOR ( 'NONE', #200, 1000.000000000000000 ) ;
#295 = VERTEX_POINT ( 'NONE', #442 ) ;
#296 = ORIENTED_EDGE ( 'NONE', *, *, #677, .F. ) ;
#297 = FACE_OUTER_BOUND ( 'NONE', #64, .T. ) ;
#298 = DIRECTION ( 'NONE',  ( -0.000000000000000000, -0.000000000000000000, -1.000000000000000000 ) ) ;
#299 = ORIENTED_EDGE ( 'NONE', *, *, #576, .T. ) ;
#300 = EDGE_CURVE ( 'NONE', #168, #106, #669, .T. ) ;
#301 = EDGE_LOOP ( 'NONE', ( #211, #290, #145, #392, #231, #179, #343 ) ) ;
#302 = PLANE ( 'NONE',  #582 ) ;
#303 = ORIENTED_EDGE ( 'NONE', *, *, #196, .F. ) ;
#304 = VECTOR ( 'NONE', #158, 1000.000000000000000 ) ;
#305 = DIRECTION ( 'NONE',  ( 1.000000000000000000, 0.000000000000000000, 0.000000000000000000 ) ) ;
#306 = ORIENTED_EDGE ( 'NONE', *, *, #369, .F. ) ;
#307 = FACE_OUTER_BOUND ( 'NONE', #285, .T. ) ;
#308 = DIRECTION ( 'NONE',  ( 1.000000000000000000, 0.000000000000000000, 0.000000000000000000 ) ) ;
#309 = DIRECTION ( 'NONE',  ( 1.000000000000000000, 0.000000000000000000, -0.000000000000000000 ) ) ;
#310 = VERTEX_POINT ( 'NONE', #614 ) ;
#311 = EDGE_CURVE ( 'NONE', #655, #568, #83, .T. ) ;
#312 =( NAMED_UNIT ( * ) SI_UNIT ( $, .STERADIAN. ) SOLID_ANGLE_UNIT ( ) );
#313 = DIRECTION ( 'NONE',  ( -0.9444967967061590475, -0.3285206249412726542, 0.000000000000000000 ) ) ;
#314 = CARTESIAN_POINT ( 'NONE',  ( 68.23955059720827876, 85.55186188631924438, 110.0000000000000000 ) ) ;
#315 = CARTESIAN_POINT ( 'NONE',  ( 11.00000000000000000, 73.24574344503247403, 110.0000000000000000 ) ) ;
#316 = STYLED_ITEM ( 'NONE', ( #524 ), #397 ) ;
#317 = LINE ( 'NONE', #483, #547 ) ;
#318 = AXIS2_PLACEMENT_3D ( 'NONE', #498, #551, #386 ) ;
#319 = CARTESIAN_POINT ( 'NONE',  ( 11.00000000000000000, 73.24574344503247403, 0.000000000000000000 ) ) ;
#320 = DIRECTION ( 'NONE',  ( 0.000000000000000000, 0.000000000000000000, 1.000000000000000000 ) ) ;
#321 = DIRECTION ( 'NONE',  ( -0.000000000000000000, -0.000000000000000000, 1.000000000000000000 ) ) ;
#322 = ORIENTED_EDGE ( 'NONE', *, *, #248, .T. ) ;
#323 = CARTESIAN_POINT ( 'NONE',  ( -1.642603124706363271, 76.23823168612061352, -5.000000000000004441 ) ) ;
#324 = DIRECTION ( 'NONE',  ( 0.000000000000000000, 0.000000000000000000, 1.000000000000000000 ) ) ;
#325 = EDGE_CURVE ( 'NONE', #595, #398, #499, .T. ) ;
#326 = VERTEX_POINT ( 'NONE', #53 ) ;
#327 = CARTESIAN_POINT ( 'NONE',  ( 5.999999999999999112, 61.73269585832071016, 115.0000000000000000 ) ) ;
#328 = DIRECTION ( 'NONE',  ( 1.000000000000000000, 0.000000000000000000, 0.000000000000000000 ) ) ;
#329 = COLOUR_RGB ( '',0.7921568627450980005, 0.8196078431372548767, 0.9333333333333333481 ) ;
#330 = AXIS2_PLACEMENT_3D ( 'NONE', #434, #718, #308 ) ;
#331 = DIRECTION ( 'NONE',  ( 1.000000000000000000, 0.000000000000000000, 0.000000000000000000 ) ) ;
#332 = CARTESIAN_POINT ( 'NONE',  ( 104.8530713410726918, -22.70574948737170828, 110.0000000000000000 ) ) ;
#333 = EDGE_CURVE ( 'NONE', #530, #700, #162, .T. ) ;
#334 = VERTEX_POINT ( 'NONE', #336 ) ;
#335 = CARTESIAN_POINT ( 'NONE',  ( -1.642603124706363271, 76.23823168612061352, 110.0000000000000000 ) ) ;
#336 = CARTESIAN_POINT ( 'NONE',  ( -0.9803462017040206478, 71.17475771938846663, 8.239936510889833698E-15 ) ) ;
#337 = ORIENTED_EDGE ( 'NONE', *, *, #662, .F. ) ;
#338 = CARTESIAN_POINT ( 'NONE',  ( 7.500000000000000000, 61.73269585832071016, -5.000000000000004441 ) ) ;
#339 = CARTESIAN_POINT ( 'NONE',  ( 7.500000000000000000, 61.73269585832071016, -5.000000000000004441 ) ) ;
#340 = ORIENTED_EDGE ( 'NONE', *, *, #270, .F. ) ;
#341 = AXIS2_PLACEMENT_3D ( 'NONE', #3, #620, #107 ) ;
#342 = EDGE_CURVE ( 'NONE', #398, #106, #509, .T. ) ;
#343 = ORIENTED_EDGE ( 'NONE', *, *, #521, .F. ) ;
#344 = ORIENTED_EDGE ( 'NONE', *, *, #490, .F. ) ;
#345 = SURFACE_SIDE_STYLE ('',( #125 ) ) ;
#346 = FACE_BOUND ( 'NONE', #124, .T. ) ;
#347 = UNCERTAINTY_MEASURE_WITH_UNIT (LENGTH_MEASURE( 1.000000000000000082E-05 ), #711, 'distance_accuracy_value', 'NONE');
#348 = ORIENTED_EDGE ( 'NONE', *, *, #44, .F. ) ;
#349 = CARTESIAN_POINT ( 'NONE',  ( 68.23955059720827876, 85.55186188631924438, 115.0000000000000000 ) ) ;
#350 = VERTEX_POINT ( 'NONE', #332 ) ;
#351 = COLOUR_RGB ( '',0.7921568627450980005, 0.8196078431372548767, 0.9333333333333333481 ) ;
#352 = VECTOR ( 'NONE', #136, 1000.000000000000114 ) ;
#353 = ORIENTED_EDGE ( 'NONE', *, *, #255, .T. ) ;
#354 = APPLICATION_CONTEXT ( 'automotive_design' ) ;
#355 = CYLINDRICAL_SURFACE ( 'NONE', #142, 1.500000000000000444 ) ;
#356 = VERTEX_POINT ( 'NONE', #563 ) ;
#357 = EDGE_CURVE ( 'NONE', #699, #356, #625, .T. ) ;
#358 = LINE ( 'NONE', #544, #475 ) ;
#359 = CARTESIAN_POINT ( 'NONE',  ( -0.9803462017040206478, 71.17475771938846663, 8.239936510889833698E-15 ) ) ;
#360 = EDGE_LOOP ( 'NONE', ( #670, #628 ) ) ;
#361 = EDGE_CURVE ( 'NONE', #401, #62, #16, .T. ) ;
#362 = DIRECTION ( 'NONE',  ( 1.000000000000000000, 0.000000000000000000, 0.000000000000000000 ) ) ;
#363 = CARTESIAN_POINT ( 'NONE',  ( 104.9031093400663650, -22.84960873447851171, 115.0000000000000000 ) ) ;
#364 = ORIENTED_EDGE ( 'NONE', *, *, #513, .T. ) ;
#365 = FACE_OUTER_BOUND ( 'NONE', #187, .T. ) ;
#366 = AXIS2_PLACEMENT_3D ( 'NONE', #413, #395, #134 ) ;
#367 = VECTOR ( 'NONE', #92, 1000.000000000000114 ) ;
#368 = DIRECTION ( 'NONE',  ( 0.000000000000000000, 0.000000000000000000, -1.000000000000000000 ) ) ;
#369 = EDGE_CURVE ( 'NONE', #699, #334, #13, .T. ) ;
#370 = CARTESIAN_POINT ( 'NONE',  ( 11.00000000000000000, 73.24574344503247403, -5.000000000000004441 ) ) ;
#371 = ORIENTED_EDGE ( 'NONE', *, *, #98, .T. ) ;
#372 = DIRECTION ( 'NONE',  ( -0.9444967967061591585, -0.3285206249412726542, 0.000000000000000000 ) ) ;
#373 = CARTESIAN_POINT ( 'NONE',  ( -0.9803462017040240895, 71.17475771938846663, 110.0000000000000000 ) ) ;
#374 = DIRECTION ( 'NONE',  ( 0.000000000000000000, 0.000000000000000000, 1.000000000000000000 ) ) ;
#375 = DIRECTION ( 'NONE',  ( -0.9444967967061591585, -0.3285206249412726542, 0.000000000000000000 ) ) ;
#376 = AXIS2_PLACEMENT_3D ( 'NONE', #690, #223, #507 ) ;
#377 = LINE ( 'NONE', #710, #584 ) ;
#378 = VECTOR ( 'NONE', #703, 1000.000000000000000 ) ;
#379 = AXIS2_PLACEMENT_3D ( 'NONE', #277, #9, #514 ) ;
#380 = DIRECTION ( 'NONE',  ( 0.000000000000000000, 0.000000000000000000, -1.000000000000000000 ) ) ;
#381 = CIRCLE ( 'NONE', #204, 1.500000000000001332 ) ;
#382 = EDGE_CURVE ( 'NONE', #595, #168, #180, .T. ) ;
#383 = FACE_BOUND ( 'NONE', #496, .T. ) ;
#384 = CARTESIAN_POINT ( 'NONE',  ( 5.999999999999999112, 61.73269585832071016, 0.000000000000000000 ) ) ;
#385 = DIRECTION ( 'NONE',  ( 1.000000000000000000, 0.000000000000000000, 0.000000000000000000 ) ) ;
#386 = DIRECTION ( 'NONE',  ( 1.000000000000000000, 0.000000000000000000, 0.000000000000000000 ) ) ;
#387 = CARTESIAN_POINT ( 'NONE',  ( 11.00000000000000000, 73.24574344503247403, -5.000000000000004441 ) ) ;
#388 = CARTESIAN_POINT ( 'NONE',  ( 4.499999999999999112, 61.73269585832071016, -5.000000000000004441 ) ) ;
#389 = ADVANCED_FACE ( 'NONE', ( #570 ), #407, .F. ) ;
#390 = APPLICATION_PROTOCOL_DEFINITION ( 'draft international standard', 'automotive_design', 1998, #354 ) ;
#391 = MECHANICAL_DESIGN_GEOMETRIC_PRESENTATION_REPRESENTATION (  '', ( #316 ), #580 ) ;
#392 = ORIENTED_EDGE ( 'NONE', *, *, #39, .T. ) ;
#393 = CARTESIAN_POINT ( 'NONE',  ( 64.30104427736010564, 93.88132832080201240, 0.000000000000000000 ) ) ;
#394 = LINE ( 'NONE', #228, #261 ) ;
#395 = DIRECTION ( 'NONE',  ( -0.9444967967061591585, -0.3285206249412727653, -2.978983211329215544E-17 ) ) ;
#396 = DIRECTION ( 'NONE',  ( 1.000000000000000000, 0.000000000000000000, 0.000000000000000000 ) ) ;
#397 = MANIFOLD_SOLID_BREP ( '圆角2', #111 ) ;
#398 = VERTEX_POINT ( 'NONE', #251 ) ;
#399 = ORIENTED_EDGE ( 'NONE', *, *, #536, .T. ) ;
#400 = AXIS2_PLACEMENT_3D ( 'NONE', #387, #4, #331 ) ;
#401 = VERTEX_POINT ( 'NONE', #663 ) ;
#402 = AXIS2_PLACEMENT_3D ( 'NONE', #540, #372, #32 ) ;
#403 = EDGE_CURVE ( 'NONE', #295, #192, #695, .T. ) ;
#404 = CARTESIAN_POINT ( 'NONE',  ( 9.499999999999998224, 73.24574344503247403, -5.000000000000004441 ) ) ;
#405 = PRODUCT ( '抓斗主体', '抓斗主体', '', ( #636 ) ) ;
#406 = ORIENTED_EDGE ( 'NONE', *, *, #589, .F. ) ;
#407 = CYLINDRICAL_SURFACE ( 'NONE', #645, 1.500000000000001332 ) ;
#408 = CARTESIAN_POINT ( 'NONE',  ( 100.1305873575418985, -24.34835261207807378, 0.000000000000000000 ) ) ;
#409 = CARTESIAN_POINT ( 'NONE',  ( 12.50000000000000000, 73.24574344503247403, 110.0000000000000000 ) ) ;
#410 = EDGE_LOOP ( 'NONE', ( #237, #68, #647, #709 ) ) ;
#411 = DIRECTION ( 'NONE',  ( 1.000000000000000000, 0.000000000000000000, 0.000000000000000000 ) ) ;
#412 = EDGE_CURVE ( 'NONE', #78, #477, #479, .T. ) ;
#413 = CARTESIAN_POINT ( 'NONE',  ( -0.9803462017040206478, 71.17475771938846663, 8.239936510889833698E-15 ) ) ;
#414 = VERTEX_POINT ( 'NONE', #425 ) ;
#415 = AXIS2_PLACEMENT_3D ( 'NONE', #722, #321, #665 ) ;
#416 = CARTESIAN_POINT ( 'NONE',  ( 98.73716007476485856, -19.54644045048943468, 110.0000000000000000 ) ) ;
#417 = LINE ( 'NONE', #650, #352 ) ;
#418 = LINE ( 'NONE', #359, #291 ) ;
#419 = VERTEX_POINT ( 'NONE', #433 ) ;
#420 =( NAMED_UNIT ( * ) PLANE_ANGLE_UNIT ( ) SI_UNIT ( $, .RADIAN. ) );
#421 = PLANE ( 'NONE',  #247 ) ;
#422 = LINE ( 'NONE', #249, #464 ) ;
#423 = EDGE_LOOP ( 'NONE', ( #79, #219, #641, #234 ) ) ;
#424 = ADVANCED_FACE ( 'NONE', ( #307 ), #93, .F. ) ;
#425 = CARTESIAN_POINT ( 'NONE',  ( -2.622949326410384252, 75.89724170291927408, 8.239936510889833698E-15 ) ) ;
#426 = DIRECTION ( 'NONE',  ( -0.000000000000000000, -0.000000000000000000, 1.000000000000000000 ) ) ;
#427 = DIRECTION ( 'NONE',  ( -3.154042683594194997E-17, 0.000000000000000000, 1.000000000000000000 ) ) ;
#428 = ORIENTED_EDGE ( 'NONE', *, *, #412, .T. ) ;
#429 = DIRECTION ( 'NONE',  ( 1.000000000000000000, 0.000000000000000000, 0.000000000000000000 ) ) ;
#430 = CARTESIAN_POINT ( 'NONE',  ( -5.000000000000000000, 0.000000000000000000, 110.0000000000000000 ) ) ;
#431 = DIRECTION ( 'NONE',  ( 0.000000000000000000, 0.000000000000000000, 1.000000000000000000 ) ) ;
#432 = CYLINDRICAL_SURFACE ( 'NONE', #415, 1.500000000000001332 ) ;
#433 = CARTESIAN_POINT ( 'NONE',  ( 12.50000000000000000, 73.24574344503247403, 115.0000000000000000 ) ) ;
#434 = CARTESIAN_POINT ( 'NONE',  ( 68.23955059720827876, 85.55186188631924438, 110.0000000000000000 ) ) ;
#435 = ADVANCED_FACE ( 'NONE', ( #365 ), #597, .T. ) ;
#436 = ORIENTED_EDGE ( 'NONE', *, *, #478, .F. ) ;
#437 = AXIS2_PLACEMENT_3D ( 'NONE', #682, #493, #165 ) ;
#438 = LINE ( 'NONE', #276, #157 ) ;
#439 = LINE ( 'NONE', #260, #293 ) ;
#440 = ADVANCED_FACE ( 'NONE', ( #616 ), #566, .F. ) ;
#441 = ORIENTED_EDGE ( 'NONE', *, *, #382, .T. ) ;
#442 = CARTESIAN_POINT ( 'NONE',  ( -5.000000000000000000, 75.07044146862716616, -5.000000000000000000 ) ) ;
#443 = DIRECTION ( 'NONE',  ( 0.3285206249412726542, -0.9444967967061591585, 0.000000000000000000 ) ) ;
#444 = EDGE_CURVE ( 'NONE', #163, #655, #278, .T. ) ;
#445 = CARTESIAN_POINT ( 'NONE',  ( 7.500000000000000000, 61.73269585832071016, 115.0000000000000000 ) ) ;
#446 =( LENGTH_UNIT ( ) NAMED_UNIT ( * ) SI_UNIT ( .MILLI., .METRE. ) );
#447 = APPLICATION_CONTEXT ( 'automotive_design' ) ;
#448 = EDGE_LOOP ( 'NONE', ( #692, #176 ) ) ;
#449 = CARTESIAN_POINT ( 'NONE',  ( 68.23955059720827876, 85.55186188631924438, 115.0000000000000000 ) ) ;
#450 = CIRCLE ( 'NONE', #376, 1.500000000000001332 ) ;
#451 = CIRCLE ( 'NONE', #610, 1.500000000000000444 ) ;
#452 = ORIENTED_EDGE ( 'NONE', *, *, #652, .F. ) ;
#453 = ADVANCED_BREP_SHAPE_REPRESENTATION ( '抓斗主体', ( #397, #379 ), #686 ) ;
#454 = LINE ( 'NONE', #689, #621 ) ;
#455 = CARTESIAN_POINT ( 'NONE',  ( 64.30104427736010564, 93.88132832080201240, 115.0000000000000000 ) ) ;
#456 = EDGE_LOOP ( 'NONE', ( #727, #436, #697, #371 ) ) ;
#457 = DIRECTION ( 'NONE',  ( -0.000000000000000000, -0.000000000000000000, 1.000000000000000000 ) ) ;
#458 = ORIENTED_EDGE ( 'NONE', *, *, #103, .F. ) ;
#459 = EDGE_CURVE ( 'NONE', #239, #230, #188, .T. ) ;
#460 = ORIENTED_EDGE ( 'NONE', *, *, #627, .T. ) ;
#461 = DIRECTION ( 'NONE',  ( 1.000000000000000000, 0.000000000000000000, 0.000000000000000000 ) ) ;
#462 = EDGE_LOOP ( 'NONE', ( #590, #573, #348, #58 ) ) ;
#463 = PRODUCT_DEFINITION_CONTEXT ( 'detailed design', #447, 'design' ) ;
#464 = VECTOR ( 'NONE', #86, 1000.000000000000000 ) ;
#465 = ORIENTED_EDGE ( 'NONE', *, *, #286, .T. ) ;
#466 = CIRCLE ( 'NONE', #113, 114.4338034517890321 ) ;
#467 = ORIENTED_EDGE ( 'NONE', *, *, #633, .F. ) ;
#468 = EDGE_LOOP ( 'NONE', ( #117, #340 ) ) ;
#469 = EDGE_CURVE ( 'NONE', #183, #511, #613, .T. ) ;
#470 = ORIENTED_EDGE ( 'NONE', *, *, #357, .T. ) ;
#471 = ORIENTED_EDGE ( 'NONE', *, *, #152, .T. ) ;
#472 = DIRECTION ( 'NONE',  ( -0.000000000000000000, -0.000000000000000000, 1.000000000000000000 ) ) ;
#473 = EDGE_LOOP ( 'NONE', ( #67, #119 ) ) ;
#474 = VECTOR ( 'NONE', #280, 1000.000000000000000 ) ;
#475 = VECTOR ( 'NONE', #320, 1000.000000000000000 ) ;
#476 = DIRECTION ( 'NONE',  ( 1.000000000000000000, 0.000000000000000000, 0.000000000000000000 ) ) ;
#477 = VERTEX_POINT ( 'NONE', #153 ) ;
#478 = EDGE_CURVE ( 'NONE', #572, #530, #5, .T. ) ;
#479 = LINE ( 'NONE', #373, #545 ) ;
#480 = CARTESIAN_POINT ( 'NONE',  ( 0.000000000000000000, 0.000000000000000000, 110.0000000000000000 ) ) ;
#481 = ORIENTED_EDGE ( 'NONE', *, *, #705, .F. ) ;
#482 = CYLINDRICAL_SURFACE ( 'NONE', #717, 1.500000000000000444 ) ;
#483 = CARTESIAN_POINT ( 'NONE',  ( -1.642603124706363271, 76.23823168612061352, 115.0000000000000000 ) ) ;
#484 = PRESENTATION_LAYER_ASSIGNMENT (  '', '', ( #316 ) ) ;
#485 =( LENGTH_UNIT ( ) NAMED_UNIT ( * ) SI_UNIT ( .MILLI., .METRE. ) );
#486 = LINE ( 'NONE', #667, #294 ) ;
#487 = CIRCLE ( 'NONE', #133, 1.500000000000001332 ) ;
#488 = CARTESIAN_POINT ( 'NONE',  ( 12.50000000000000000, 73.24574344503247403, -5.000000000000004441 ) ) ;
#489 = CARTESIAN_POINT ( 'NONE',  ( 62.65844115265371528, 98.60381230433286248, 0.000000000000000000 ) ) ;
#490 = EDGE_CURVE ( 'NONE', #511, #295, #56, .T. ) ;
#491 = CARTESIAN_POINT ( 'NONE',  ( 68.23955059720827876, 85.55186188631924438, 0.000000000000000000 ) ) ;
#492 = CARTESIAN_POINT ( 'NONE',  ( 9.499999999999998224, 73.24574344503247403, 0.000000000000000000 ) ) ;
#493 = DIRECTION ( 'NONE',  ( 0.000000000000000000, 0.000000000000000000, 1.000000000000000000 ) ) ;
#494 = ADVANCED_FACE ( 'NONE', ( #609 ), #49, .F. ) ;
#495 = CARTESIAN_POINT ( 'NONE',  ( 0.000000000000000000, 71.51574770258980607, 0.000000000000000000 ) ) ;
#496 = EDGE_LOOP ( 'NONE', ( #586, #322 ) ) ;
#497 = DIRECTION ( 'NONE',  ( 1.000000000000000000, 3.469446951953611033E-15, 0.000000000000000000 ) ) ;
#498 = CARTESIAN_POINT ( 'NONE',  ( 11.00000000000000000, 73.24574344503247403, -5.000000000000004441 ) ) ;
#499 = CIRCLE ( 'NONE', #659, 1.500000000000000444 ) ;
#500 = FILL_AREA_STYLE_COLOUR ( '', #351 ) ;
#501 = VECTOR ( 'NONE', #221, 1000.000000000000000 ) ;
#502 = EDGE_CURVE ( 'NONE', #356, #62, #671, .T. ) ;
#503 = DIRECTION ( 'NONE',  ( 0.000000000000000000, 0.000000000000000000, 1.000000000000000000 ) ) ;
#504 = CARTESIAN_POINT ( 'NONE',  ( 100.1305873575418985, -24.34835261207807378, 110.0000000000000000 ) ) ;
#505 = EDGE_CURVE ( 'NONE', #527, #326, #596, .T. ) ;
#506 = FACE_BOUND ( 'NONE', #448, .T. ) ;
#507 = DIRECTION ( 'NONE',  ( 1.000000000000000000, 0.000000000000000000, 0.000000000000000000 ) ) ;
#508 = DIRECTION ( 'NONE',  ( -0.9444967967061591585, -0.3285206249412726542, 0.000000000000000000 ) ) ;
#509 = LINE ( 'NONE', #388, #167 ) ;
#510 = VECTOR ( 'NONE', #184, 1000.000000000000000 ) ;
#511 = VERTEX_POINT ( 'NONE', #42 ) ;
#512 = DIRECTION ( 'NONE',  ( -0.000000000000000000, -0.000000000000000000, 1.000000000000000000 ) ) ;
#513 = EDGE_CURVE ( 'NONE', #658, #183, #562, .T. ) ;
#514 = DIRECTION ( 'NONE',  ( 1.000000000000000000, 0.000000000000000000, 0.000000000000000000 ) ) ;
#515 = ORIENTED_EDGE ( 'NONE', *, *, #311, .F. ) ;
#516 = ORIENTED_EDGE ( 'NONE', *, *, #490, .T. ) ;
#517 = ORIENTED_EDGE ( 'NONE', *, *, #279, .T. ) ;
#518 = CARTESIAN_POINT ( 'NONE',  ( 0.000000000000000000, 0.000000000000000000, 110.0000000000000000 ) ) ;
#519 = AXIS2_PLACEMENT_3D ( 'NONE', #314, #209, #539 ) ;
#520 = ORIENTED_EDGE ( 'NONE', *, *, #576, .F. ) ;
#521 = EDGE_CURVE ( 'NONE', #401, #350, #281, .T. ) ;
#522 = CIRCLE ( 'NONE', #227, 5.000000000000004441 ) ;
#523 = CIRCLE ( 'NONE', #437, 1.500000000000000444 ) ;
#524 = PRESENTATION_STYLE_ASSIGNMENT (( #578 ) ) ;
#525 = DIRECTION ( 'NONE',  ( 0.000000000000000000, 0.000000000000000000, 1.000000000000000000 ) ) ;
#526 = DIRECTION ( 'NONE',  ( -0.000000000000000000, -0.000000000000000000, 1.000000000000000000 ) ) ;
#527 = VERTEX_POINT ( 'NONE', #492 ) ;
#528 = CYLINDRICAL_SURFACE ( 'NONE', #660, 1.500000000000000444 ) ;
#529 = ORIENTED_EDGE ( 'NONE', *, *, #444, .F. ) ;
#530 = VERTEX_POINT ( 'NONE', #723 ) ;
#531 = EDGE_LOOP ( 'NONE', ( #273, #632, #287, #588 ) ) ;
#532 = AXIS2_PLACEMENT_3D ( 'NONE', #491, #214, #309 ) ;
#533 = CIRCLE ( 'NONE', #673, 1.500000000000001332 ) ;
#534 = VECTOR ( 'NONE', #730, 1000.000000000000114 ) ;
#535 = DIRECTION ( 'NONE',  ( -3.154042683594194997E-17, 0.000000000000000000, 1.000000000000000000 ) ) ;
#536 = EDGE_CURVE ( 'NONE', #575, #182, #269, .T. ) ;
#537 = DIRECTION ( 'NONE',  ( -0.000000000000000000, -0.000000000000000000, 1.000000000000000000 ) ) ;
#538 = ORIENTED_EDGE ( 'NONE', *, *, #604, .T. ) ;
#539 = DIRECTION ( 'NONE',  ( -1.000000000000000000, 0.000000000000000000, 0.000000000000000000 ) ) ;
#540 = CARTESIAN_POINT ( 'NONE',  ( 64.30104427736010564, 93.88132832080201240, 110.0000000000000000 ) ) ;
#541 = DIRECTION ( 'NONE',  ( -0.000000000000000000, -0.000000000000000000, 1.000000000000000000 ) ) ;
#542 = ORIENTED_EDGE ( 'NONE', *, *, #633, .T. ) ;
#543 = PRODUCT_DEFINITION ( '未知', '', #60, #463 ) ;
#544 = CARTESIAN_POINT ( 'NONE',  ( 104.8530713410726918, -22.70574948737170828, 110.0000000000000000 ) ) ;
#545 = VECTOR ( 'NONE', #720, 1000.000000000000000 ) ;
#546 = ADVANCED_FACE ( 'NONE', ( #506, #383, #1 ), #267, .F. ) ;
#547 = VECTOR ( 'NONE', #375, 1000.000000000000114 ) ;
#548 = DIRECTION ( 'NONE',  ( 0.000000000000000000, 0.000000000000000000, 1.000000000000000000 ) ) ;
#549 = DIRECTION ( 'NONE',  ( 0.000000000000000000, 0.000000000000000000, 1.000000000000000000 ) ) ;
#550 = CARTESIAN_POINT ( 'NONE',  ( -5.000000000000000000, 0.000000000000000000, 115.0000000000000000 ) ) ;
#551 = DIRECTION ( 'NONE',  ( 0.000000000000000000, 0.000000000000000000, 1.000000000000000000 ) ) ;
#552 = DIRECTION ( 'NONE',  ( 1.000000000000000000, 0.000000000000000000, 0.000000000000000000 ) ) ;
#553 = DIRECTION ( 'NONE',  ( 0.000000000000000000, 0.000000000000000000, 1.000000000000000000 ) ) ;
#554 = DIRECTION ( 'NONE',  ( 0.000000000000000000, 0.000000000000000000, 1.000000000000000000 ) ) ;
#555 = ADVANCED_FACE ( 'NONE', ( #73 ), #238, .F. ) ;
#556 = DIRECTION ( 'NONE',  ( 1.000000000000000000, 0.000000000000000000, 0.000000000000000000 ) ) ;
#557 = ORIENTED_EDGE ( 'NONE', *, *, #2, .F. ) ;
#558 = DIRECTION ( 'NONE',  ( 1.000000000000000000, 0.000000000000000000, 0.000000000000000000 ) ) ;
#559 = VECTOR ( 'NONE', #537, 1000.000000000000000 ) ;
#560 = VECTOR ( 'NONE', #541, 1000.000000000000000 ) ;
#561 = VECTOR ( 'NONE', #535, 1000.000000000000000 ) ;
#562 = LINE ( 'NONE', #393, #304 ) ;
#563 = CARTESIAN_POINT ( 'NONE',  ( 0.000000000000000000, 0.000000000000000000, 0.000000000000000000 ) ) ;
#564 =( NAMED_UNIT ( * ) SI_UNIT ( $, .STERADIAN. ) SOLID_ANGLE_UNIT ( ) );
#565 = ORIENTED_EDGE ( 'NONE', *, *, #369, .T. ) ;
#566 = PLANE ( 'NONE',  #96 ) ;
#567 = DIRECTION ( 'NONE',  ( -0.000000000000000000, -0.000000000000000000, 1.000000000000000000 ) ) ;
#568 = VERTEX_POINT ( 'NONE', #363 ) ;
#569 = ADVANCED_FACE ( 'NONE', ( #25 ), #355, .F. ) ;
#570 = FACE_OUTER_BOUND ( 'NONE', #288, .T. ) ;
#571 = CIRCLE ( 'NONE', #341, 1.500000000000000444 ) ;
#572 = VERTEX_POINT ( 'NONE', #409 ) ;
#573 = ORIENTED_EDGE ( 'NONE', *, *, #521, .T. ) ;
#574 = ORIENTED_EDGE ( 'NONE', *, *, #19, .F. ) ;
#575 = VERTEX_POINT ( 'NONE', #137 ) ;
#576 = EDGE_CURVE ( 'NONE', #568, #140, #422, .T. ) ;
#577 = ORIENTED_EDGE ( 'NONE', *, *, #403, .F. ) ;
#578 = SURFACE_STYLE_USAGE ( .BOTH. , #345 ) ;
#579 = ORIENTED_EDGE ( 'NONE', *, *, #627, .F. ) ;
#580 =( GEOMETRIC_REPRESENTATION_CONTEXT ( 3 ) GLOBAL_UNCERTAINTY_ASSIGNED_CONTEXT ( ( #144 ) ) GLOBAL_UNIT_ASSIGNED_CONTEXT ( ( #485, #420, #312 ) ) REPRESENTATION_CONTEXT ( 'NONE', 'WORKASPACE' ) );
#581 = LINE ( 'NONE', #77, #559 ) ;
#582 = AXIS2_PLACEMENT_3D ( 'NONE', #101, #606, #657 ) ;
#583 = ORIENTED_EDGE ( 'NONE', *, *, #84, .T. ) ;
#584 = VECTOR ( 'NONE', #36, 1000.000000000000000 ) ;
#585 = AXIS2_PLACEMENT_3D ( 'NONE', #605, #246, #362 ) ;
#586 = ORIENTED_EDGE ( 'NONE', *, *, #325, .T. ) ;
#587 = PRODUCT_DEFINITION_SHAPE ( 'NONE', 'NONE',  #543 ) ;
#588 = ORIENTED_EDGE ( 'NONE', *, *, #459, .T. ) ;
#589 = EDGE_CURVE ( 'NONE', #182, #239, #581, .T. ) ;
#590 = ORIENTED_EDGE ( 'NONE', *, *, #361, .F. ) ;
#591 = FACE_BOUND ( 'NONE', #592, .T. ) ;
#592 = EDGE_LOOP ( 'NONE', ( #173, #8 ) ) ;
#593 = EDGE_CURVE ( 'NONE', #350, #132, #454, .T. ) ;
#594 = CARTESIAN_POINT ( 'NONE',  ( 5.999999999999999112, 61.73269585832071016, -5.000000000000004441 ) ) ;
#595 = VERTEX_POINT ( 'NONE', #338 ) ;
#596 = CIRCLE ( 'NONE', #131, 1.500000000000001332 ) ;
#597 = CYLINDRICAL_SURFACE ( 'NONE', #24, 114.4338034517890321 ) ;
#598 = PLANE ( 'NONE',  #191 ) ;
#599 = EDGE_CURVE ( 'NONE', #334, #414, #418, .T. ) ;
#600 = CARTESIAN_POINT ( 'NONE',  ( 104.8530713410727060, -22.70574948737175092, 0.000000000000000000 ) ) ;
#601 = ORIENTED_EDGE ( 'NONE', *, *, #333, .T. ) ;
#602 = PLANE ( 'NONE',  #402 ) ;
#603 = CARTESIAN_POINT ( 'NONE',  ( -5.000000000000000000, -2.374605123117972116, 115.0000000000000000 ) ) ;
#604 = EDGE_CURVE ( 'NONE', #655, #192, #186, .T. ) ;
#605 = CARTESIAN_POINT ( 'NONE',  ( 11.00000000000000000, 73.24574344503247403, -5.000000000000004441 ) ) ;
#606 = DIRECTION ( 'NONE',  ( 0.000000000000000000, 0.000000000000000000, 1.000000000000000000 ) ) ;
#607 = ADVANCED_FACE ( 'NONE', ( #591, #21, #80 ), #302, .F. ) ;
#608 = VECTOR ( 'NONE', #508, 1000.000000000000114 ) ;
#609 = FACE_OUTER_BOUND ( 'NONE', #130, .T. ) ;
#610 = AXIS2_PLACEMENT_3D ( 'NONE', #252, #374, #206 ) ;
#611 = CARTESIAN_POINT ( 'NONE',  ( -22.19038377281034613, 63.79735334682974468, -7.517025795230888110E-16 ) ) ;
#612 = CARTESIAN_POINT ( 'NONE',  ( 9.499999999999998224, 73.24574344503247403, -5.000000000000004441 ) ) ;
#613 = LINE ( 'NONE', #733, #59 ) ;
#614 = CARTESIAN_POINT ( 'NONE',  ( -2.622949326410387805, 75.89724170291927408, 110.0000000000000000 ) ) ;
#615 = DIRECTION ( 'NONE',  ( -0.9444967967061590475, -0.3285206249412726542, 1.192161132366423832E-16 ) ) ;
#616 = FACE_OUTER_BOUND ( 'NONE', #693, .T. ) ;
#617 = DIRECTION ( 'NONE',  ( -0.000000000000000000, -0.000000000000000000, -1.000000000000000000 ) ) ;
#618 = EDGE_LOOP ( 'NONE', ( #565, #17, #428, #250 ) ) ;
#619 = DIRECTION ( 'NONE',  ( 0.000000000000000000, 0.000000000000000000, 1.000000000000000000 ) ) ;
#620 = DIRECTION ( 'NONE',  ( 0.000000000000000000, 0.000000000000000000, 1.000000000000000000 ) ) ;
#621 = VECTOR ( 'NONE', #629, 1000.000000000000000 ) ;
#622 = AXIS2_PLACEMENT_3D ( 'NONE', #370, #549, #556 ) ;
#623 = SURFACE_STYLE_USAGE ( .BOTH. , #54 ) ;
#624 = DIRECTION ( 'NONE',  ( 0.000000000000000000, 0.000000000000000000, 1.000000000000000000 ) ) ;
#625 = LINE ( 'NONE', #116, #474 ) ;
#626 = APPLICATION_PROTOCOL_DEFINITION ( 'draft international standard', 'automotive_design', 1998, #447 ) ;
#627 = EDGE_CURVE ( 'NONE', #183, #414, #95, .T. ) ;
#628 = ORIENTED_EDGE ( 'NONE', *, *, #152, .F. ) ;
#629 = DIRECTION ( 'NONE',  ( -0.3285206249412725987, 0.9444967967061590475, -0.000000000000000000 ) ) ;
#630 = DIRECTION ( 'NONE',  ( 0.000000000000000000, 0.000000000000000000, 1.000000000000000000 ) ) ;
#631 = PRESENTATION_STYLE_ASSIGNMENT (( #623 ) ) ;
#632 = ORIENTED_EDGE ( 'NONE', *, *, #84, .F. ) ;
#633 = EDGE_CURVE ( 'NONE', #14, #527, #257, .T. ) ;
#634 = VECTOR ( 'NONE', #212, 1000.000000000000000 ) ;
#635 = ORIENTED_EDGE ( 'NONE', *, *, #593, .T. ) ;
#636 = PRODUCT_CONTEXT ( 'NONE', #354, 'mechanical' ) ;
#637 = AXIS2_PLACEMENT_3D ( 'NONE', #430, #385, #380 ) ;
#638 = ORIENTED_EDGE ( 'NONE', *, *, #502, .F. ) ;
#639 = EDGE_CURVE ( 'NONE', #698, #14, #7, .T. ) ;
#640 = DIRECTION ( 'NONE',  ( 0.000000000000000000, 0.000000000000000000, 1.000000000000000000 ) ) ;
#641 = ORIENTED_EDGE ( 'NONE', *, *, #270, .T. ) ;
#642 = FACE_OUTER_BOUND ( 'NONE', #680, .T. ) ;
#643 = ORIENTED_EDGE ( 'NONE', *, *, #357, .F. ) ;
#644 = DIRECTION ( 'NONE',  ( 1.000000000000000000, 0.000000000000000000, -0.000000000000000000 ) ) ;
#645 = AXIS2_PLACEMENT_3D ( 'NONE', #292, #457, #461 ) ;
#646 = STYLED_ITEM ( 'NONE', ( #631 ), #453 ) ;
#647 = ORIENTED_EDGE ( 'NONE', *, *, #51, .F. ) ;
#648 = VECTOR ( 'NONE', #43, 1000.000000000000000 ) ;
#649 = CARTESIAN_POINT ( 'NONE',  ( 64.30104427736007722, 93.88132832080206924, 0.000000000000000000 ) ) ;
#650 = CARTESIAN_POINT ( 'NONE',  ( -0.9803462017040240895, 71.17475771938846663, 110.0000000000000000 ) ) ;
#651 = ORIENTED_EDGE ( 'NONE', *, *, #108, .F. ) ;
#652 = EDGE_CURVE ( 'NONE', #414, #310, #439, .T. ) ;
#653 = CARTESIAN_POINT ( 'NONE',  ( 11.00000000000000000, 73.24574344503247403, 115.0000000000000000 ) ) ;
#654 = DIRECTION ( 'NONE',  ( 1.000000000000000000, 0.000000000000000000, -0.000000000000000000 ) ) ;
#655 = VERTEX_POINT ( 'NONE', #603 ) ;
#656 = CARTESIAN_POINT ( 'NONE',  ( -5.000000000000000000, 75.07044146862716616, 115.0000000000000000 ) ) ;
#657 = DIRECTION ( 'NONE',  ( 1.000000000000000000, 0.000000000000000000, -0.000000000000000000 ) ) ;
#658 = VERTEX_POINT ( 'NONE', #600 ) ;
#659 = AXIS2_PLACEMENT_3D ( 'NONE', #171, #47, #396 ) ;
#660 = AXIS2_PLACEMENT_3D ( 'NONE', #243, #472, #704 ) ;
#661 = FACE_OUTER_BOUND ( 'NONE', #618, .T. ) ;
#662 = EDGE_CURVE ( 'NONE', #698, #326, #208, .T. ) ;
#663 = CARTESIAN_POINT ( 'NONE',  ( 98.73716007476485856, -19.54644045048942047, 110.0000000000000000 ) ) ;
#664 = DIRECTION ( 'NONE',  ( 0.000000000000000000, 0.000000000000000000, 1.000000000000000000 ) ) ;
#665 = DIRECTION ( 'NONE',  ( 1.000000000000000000, 0.000000000000000000, 0.000000000000000000 ) ) ;
#666 = DIRECTION ( 'NONE',  ( 1.000000000000000000, 0.000000000000000000, 0.000000000000000000 ) ) ;
#667 = CARTESIAN_POINT ( 'NONE',  ( -5.000000000000000000, 75.07044146862716616, 110.0000000000000000 ) ) ;
#668 =( NAMED_UNIT ( * ) SI_UNIT ( $, .STERADIAN. ) SOLID_ANGLE_UNIT ( ) );
#669 = CIRCLE ( 'NONE', #120, 1.500000000000000444 ) ;
#670 = ORIENTED_EDGE ( 'NONE', *, *, #98, .F. ) ;
#671 = CIRCLE ( 'NONE', #121, 109.4338034517890321 ) ;
#672 = CARTESIAN_POINT ( 'NONE',  ( 68.23955059720827876, 85.55186188631924438, 110.0000000000000000 ) ) ;
#673 = AXIS2_PLACEMENT_3D ( 'NONE', #315, #548, #40 ) ;
#674 = CARTESIAN_POINT ( 'NONE',  ( 0.000000000000000000, 0.000000000000000000, 110.0000000000000000 ) ) ;
#675 = CYLINDRICAL_SURFACE ( 'NONE', #71, 1.500000000000000444 ) ;
#676 = EDGE_LOOP ( 'NONE', ( #643, #87, #517, #696 ) ) ;
#677 = EDGE_CURVE ( 'NONE', #712, #163, #317, .T. ) ;
#678 = CARTESIAN_POINT ( 'NONE',  ( 68.23955059720827876, 85.55186188631924438, 0.000000000000000000 ) ) ;
#679 = DIRECTION ( 'NONE',  ( 1.000000000000000000, 0.000000000000000000, 0.000000000000000000 ) ) ;
#680 = EDGE_LOOP ( 'NONE', ( #10, #353, #65, #195 ) ) ;
#681 = DIRECTION ( 'NONE',  ( 0.000000000000000000, 0.000000000000000000, 1.000000000000000000 ) ) ;
#682 = CARTESIAN_POINT ( 'NONE',  ( 5.999999999999999112, 61.73269585832071016, 0.000000000000000000 ) ) ;
#683 = ORIENTED_EDGE ( 'NONE', *, *, #459, .F. ) ;
#684 = AXIS2_PLACEMENT_3D ( 'NONE', #275, #619, #169 ) ;
#685 = LINE ( 'NONE', #734, #648 ) ;
#686 =( GEOMETRIC_REPRESENTATION_CONTEXT ( 3 ) GLOBAL_UNCERTAINTY_ASSIGNED_CONTEXT ( ( #347 ) ) GLOBAL_UNIT_ASSIGNED_CONTEXT ( ( #711, #719, #668 ) ) REPRESENTATION_CONTEXT ( 'NONE', 'WORKASPACE' ) );
#687 = CIRCLE ( 'NONE', #330, 109.4338034517890321 ) ;
#688 = ADVANCED_FACE ( 'NONE', ( #155 ), #675, .F. ) ;
#689 = CARTESIAN_POINT ( 'NONE',  ( 64.30104427736010564, 93.88132832080201240, 110.0000000000000000 ) ) ;
#690 = CARTESIAN_POINT ( 'NONE',  ( 11.00000000000000000, 73.24574344503247403, 0.000000000000000000 ) ) ;
#691 = ORIENTED_EDGE ( 'NONE', *, *, #236, .F. ) ;
#692 = ORIENTED_EDGE ( 'NONE', *, *, #639, .T. ) ;
#693 = EDGE_LOOP ( 'NONE', ( #452, #579, #222, #516, #458, #296, #114, #303 ) ) ;
#694 = ADVANCED_FACE ( 'NONE', ( #41 ), #432, .F. ) ;
#695 = LINE ( 'NONE', #205, #225 ) ;
#696 = ORIENTED_EDGE ( 'NONE', *, *, #236, .T. ) ;
#697 = ORIENTED_EDGE ( 'NONE', *, *, #108, .T. ) ;
#698 = VERTEX_POINT ( 'NONE', #253 ) ;
#699 = VERTEX_POINT ( 'NONE', #495 ) ;
#700 = VERTEX_POINT ( 'NONE', #266 ) ;
#701 = DIRECTION ( 'NONE',  ( -0.3285206249412727653, 0.9444967967061591585, -0.000000000000000000 ) ) ;
#702 = EDGE_LOOP ( 'NONE', ( #583, #399 ) ) ;
#703 = DIRECTION ( 'NONE',  ( -0.9444967967061590475, -0.3285206249412726542, 1.192161132366423832E-16 ) ) ;
#704 = DIRECTION ( 'NONE',  ( 1.000000000000000000, 0.000000000000000000, 0.000000000000000000 ) ) ;
#705 = EDGE_CURVE ( 'NONE', #140, #511, #202, .T. ) ;
#706 =( GEOMETRIC_REPRESENTATION_CONTEXT ( 3 ) GLOBAL_UNCERTAINTY_ASSIGNED_CONTEXT ( ( #244 ) ) GLOBAL_UNIT_ASSIGNED_CONTEXT ( ( #446, #272, #564 ) ) REPRESENTATION_CONTEXT ( 'NONE', 'WORKASPACE' ) );
#707 = ORIENTED_EDGE ( 'NONE', *, *, #705, .T. ) ;
#708 = CARTESIAN_POINT ( 'NONE',  ( 98.73716007476485856, -19.54644045048942047, 0.000000000000000000 ) ) ;
#709 = ORIENTED_EDGE ( 'NONE', *, *, #599, .T. ) ;
#710 = CARTESIAN_POINT ( 'NONE',  ( 12.50000000000000000, 73.24574344503247403, -5.000000000000004441 ) ) ;
#711 =( LENGTH_UNIT ( ) NAMED_UNIT ( * ) SI_UNIT ( .MILLI., .METRE. ) );
#712 = VERTEX_POINT ( 'NONE', #151 ) ;
#713 = ADVANCED_FACE ( 'NONE', ( #148, #89, #715 ), #725, .T. ) ;
#714 = DIRECTION ( 'NONE',  ( 0.000000000000000000, 0.000000000000000000, -1.000000000000000000 ) ) ;
#715 = FACE_OUTER_BOUND ( 'NONE', #190, .T. ) ;
#716 = VECTOR ( 'NONE', #298, 1000.000000000000000 ) ;
#717 = AXIS2_PLACEMENT_3D ( 'NONE', #594, #426, #429 ) ;
#718 = DIRECTION ( 'NONE',  ( 0.000000000000000000, 0.000000000000000000, 1.000000000000000000 ) ) ;
#719 =( NAMED_UNIT ( * ) PLANE_ANGLE_UNIT ( ) SI_UNIT ( $, .RADIAN. ) );
#720 = DIRECTION ( 'NONE',  ( 0.9444967967061590475, 0.3285206249412726542, 0.000000000000000000 ) ) ;
#721 = CARTESIAN_POINT ( 'NONE',  ( -5.000000000000000000, -2.374605123117972116, -5.000000000000000000 ) ) ;
#722 = CARTESIAN_POINT ( 'NONE',  ( 11.00000000000000000, 73.24574344503247403, -5.000000000000004441 ) ) ;
#723 = CARTESIAN_POINT ( 'NONE',  ( 9.499999999999998224, 73.24574344503247403, 110.0000000000000000 ) ) ;
#724 = CARTESIAN_POINT ( 'NONE',  ( 0.000000000000000000, 0.000000000000000000, 110.0000000000000000 ) ) ;
#725 = PLANE ( 'NONE',  #532 ) ;
#726 = ADVANCED_FACE ( 'NONE', ( #143 ), #105, .F. ) ;
#727 = ORIENTED_EDGE ( 'NONE', *, *, #333, .F. ) ;
#728 = VECTOR ( 'NONE', #50, 1000.000000000000000 ) ;
#729 = CARTESIAN_POINT ( 'NONE',  ( 5.999999999999999112, 61.73269585832071016, 110.0000000000000000 ) ) ;
#730 = DIRECTION ( 'NONE',  ( -0.3285206249412726542, 0.9444967967061591585, 0.000000000000000000 ) ) ;
#731 = FILL_AREA_STYLE ('',( #500 ) ) ;
#732 = ORIENTED_EDGE ( 'NONE', *, *, #599, .F. ) ;
#733 = CARTESIAN_POINT ( 'NONE',  ( 62.65844115265374370, 98.60381230433280564, 110.0000000000000000 ) ) ;
#734 = CARTESIAN_POINT ( 'NONE',  ( 0.000000000000000000, 71.51574770258980607, 110.0000000000000000 ) ) ;
#735 = EDGE_LOOP ( 'NONE', ( #199, #577, #344, #481 ) ) ;
ENDSEC;
END-ISO-10303-21;
