ISO-10303-21;
HEADER;
FILE_DESCRIPTION (( 'STEP AP214' ),
    '1' );
FILE_NAME ('零件2.STEP',
    '2026-07-29T08:28:09',
    ( '' ),
    ( '' ),
    'SwSTEP 2.0',
    'SolidWorks 2020',
    '' );
FILE_SCHEMA (( 'AUTOMOTIVE_DESIGN' ));
ENDSEC;

DATA;
#1 = EDGE_CURVE ( 'NONE', #312, #21, #741, .T. ) ;
#2 = VERTEX_POINT ( 'NONE', #655 ) ;
#3 = CARTESIAN_POINT ( 'NONE',  ( 101.3446669690934954, -17.01849391472494588, 107.4308957504761537 ) ) ;
#4 = DIRECTION ( 'NONE',  ( -0.000000000000000000, -0.000000000000000000, 1.000000000000000000 ) ) ;
#5 = EDGE_CURVE ( 'NONE', #778, #2, #1013, .T. ) ;
#6 = CARTESIAN_POINT ( 'NONE',  ( 103.2604427736006585, -18.12694235588972802, -19.18336509014821445 ) ) ;
#7 = VECTOR ( 'NONE', #498, 1000.000000000000114 ) ;
#8 = VECTOR ( 'NONE', #623, 1000.000000000000000 ) ;
#9 = ORIENTED_EDGE ( 'NONE', *, *, #927, .F. ) ;
#10 = DIRECTION ( 'NONE',  ( 0.3283531690704394879, -0.9445550255868629952, 0.000000000000000000 ) ) ;
#11 = ADVANCED_FACE ( 'NONE', ( #1081 ), #1000, .F. ) ;
#12 = VERTEX_POINT ( 'NONE', #1096 ) ;
#13 =( NAMED_UNIT ( * ) PLANE_ANGLE_UNIT ( ) SI_UNIT ( $, .RADIAN. ) );
#14 = CARTESIAN_POINT ( 'NONE',  ( 23.06786753708765048, 39.11551291291374355, 3.000000000000016431 ) ) ;
#15 = CARTESIAN_POINT ( 'NONE',  ( 80.33506188897015932, 42.70306226661763560, 107.3043227420712782 ) ) ;
#16 = DIRECTION ( 'NONE',  ( -0.3283531690704395989, 0.9445550255868629952, 0.000000000000000000 ) ) ;
#17 = VERTEX_POINT ( 'NONE', #131 ) ;
#18 = ORIENTED_EDGE ( 'NONE', *, *, #1029, .T. ) ;
#19 = LINE ( 'NONE', #995, #431 ) ;
#20 = AXIS2_PLACEMENT_3D ( 'NONE', #1008, #215, #836 ) ;
#21 = VERTEX_POINT ( 'NONE', #1018 ) ;
#22 = CARTESIAN_POINT ( 'NONE',  ( 72.33404356309286243, 64.90689142463848782, 110.0000000000000000 ) ) ;
#23 = ORIENTED_EDGE ( 'NONE', *, *, #1040, .F. ) ;
#24 = CARTESIAN_POINT ( 'NONE',  ( 79.45310740072137889, 42.39312029322835684, 107.0000000000000142 ) ) ;
#25 = ORIENTED_EDGE ( 'NONE', *, *, #1, .T. ) ;
#26 = ORIENTED_EDGE ( 'NONE', *, *, #1127, .F. ) ;
#27 = ORIENTED_EDGE ( 'NONE', *, *, #451, .T. ) ;
#28 = LINE ( 'NONE', #376, #209 ) ;
#29 = LINE ( 'NONE', #1076, #158 ) ;
#30 = CARTESIAN_POINT ( 'NONE',  ( 81.52411661814183219, 43.16067218994002275, 108.4980954971246803 ) ) ;
#31 = ADVANCED_FACE ( 'NONE', ( #287 ), #723, .T. ) ;
#32 = ORIENTED_EDGE ( 'NONE', *, *, #844, .T. ) ;
#33 = ORIENTED_EDGE ( 'NONE', *, *, #752, .F. ) ;
#34 = CARTESIAN_POINT ( 'NONE',  ( 99.14363901475020668, -21.51087612655197390, 3.000000000000016431 ) ) ;
#35 = COLOUR_RGB ( '',0.7921568627450980005, 0.8196078431372548767, 0.9333333333333333481 ) ;
#36 = CARTESIAN_POINT ( 'NONE',  ( 24.56786753708763626, 39.11551291291374355, 107.0000000000000000 ) ) ;
#37 = EDGE_LOOP ( 'NONE', ( #434, #735, #731, #939, #644 ) ) ;
#38 = CARTESIAN_POINT ( 'NONE',  ( 20.09779784051960405, 27.44210394604274228, 3.000000000000016431 ) ) ;
#39 = CARTESIAN_POINT ( 'NONE',  ( 113.2604427736006585, -17.56676220890260254, 110.0000000000000000 ) ) ;
#40 = DIRECTION ( 'NONE',  ( 0.3420201433256628287, 0.9396926207859105373, -0.000000000000000000 ) ) ;
#41 = ORIENTED_EDGE ( 'NONE', *, *, #526, .T. ) ;
#42 = DIRECTION ( 'NONE',  ( 1.000000000000000000, 0.000000000000000000, 0.000000000000000000 ) ) ;
#43 = AXIS2_PLACEMENT_3D ( 'NONE', #711, #196, #1067 ) ;
#44 = ORIENTED_EDGE ( 'NONE', *, *, #761, .F. ) ;
#45 = CARTESIAN_POINT ( 'NONE',  ( 18.59779784051961826, 27.44210394604274228, 3.000000000000016431 ) ) ;
#46 = FACE_BOUND ( 'NONE', #714, .T. ) ;
#47 = CARTESIAN_POINT ( 'NONE',  ( 81.89047047221153264, 43.31172801060416333, 110.0000000000000000 ) ) ;
#48 = ORIENTED_EDGE ( 'NONE', *, *, #684, .T. ) ;
#49 = DIRECTION ( 'NONE',  ( 1.000000000000000000, 0.000000000000000000, -0.000000000000000000 ) ) ;
#50 = EDGE_CURVE ( 'NONE', #247, #874, #489, .T. ) ;
#51 = ORIENTED_EDGE ( 'NONE', *, *, #513, .F. ) ;
#52 = CARTESIAN_POINT ( 'NONE',  ( 101.3446669690934812, -17.01849391472494233, 2.569104249523836536 ) ) ;
#53 = ORIENTED_EDGE ( 'NONE', *, *, #777, .T. ) ;
#54 = CARTESIAN_POINT ( 'NONE',  ( 81.20308501813033786, 43.03226487632262121, 1.983772363913023806 ) ) ;
#55 = ORIENTED_EDGE ( 'NONE', *, *, #202, .F. ) ;
#56 = DIRECTION ( 'NONE',  ( -0.000000000000000000, -0.000000000000000000, -1.000000000000000000 ) ) ;
#57 = PLANE ( 'NONE',  #171 ) ;
#58 = EDGE_CURVE ( 'NONE', #864, #854, #29, .T. ) ;
#59 = CIRCLE ( 'NONE', #343, 1.499999999999987566 ) ;
#60 = FACE_BOUND ( 'NONE', #368, .T. ) ;
#61 = ORIENTED_EDGE ( 'NONE', *, *, #901, .T. ) ;
#62 = PRESENTATION_LAYER_ASSIGNMENT (  '', '', ( #998 ) ) ;
#63 = FACE_OUTER_BOUND ( 'NONE', #774, .T. ) ;
#64 = PLANE ( 'NONE',  #1027 ) ;
#65 = CARTESIAN_POINT ( 'NONE',  ( 55.37848086014179216, 40.19162050936584762, 3.000000000000015987 ) ) ;
#66 = FILL_AREA_STYLE_COLOUR ( '', #883 ) ;
#67 = ORIENTED_EDGE ( 'NONE', *, *, #624, .T. ) ;
#68 = VECTOR ( 'NONE', #869, 1000.000000000000000 ) ;
#69 = PRESENTATION_LAYER_ASSIGNMENT (  '', '', ( #1044 ) ) ;
#70 = DIRECTION ( 'NONE',  ( -1.000000000000000000, 0.000000000000000000, 0.000000000000000000 ) ) ;
#71 = ADVANCED_FACE ( 'NONE', ( #125 ), #846, .T. ) ;
#72 = FACE_OUTER_BOUND ( 'NONE', #375, .T. ) ;
#73 = ORIENTED_EDGE ( 'NONE', *, *, #266, .T. ) ;
#74 = CARTESIAN_POINT ( 'NONE',  ( 103.2604427736006585, -18.12694235588972802, 110.0000000000000000 ) ) ;
#75 = EDGE_CURVE ( 'NONE', #505, #106, #1009, .T. ) ;
#76 = LINE ( 'NONE', #152, #867 ) ;
#77 = ORIENTED_EDGE ( 'NONE', *, *, #997, .F. ) ;
#78 = CARTESIAN_POINT ( 'NONE',  ( 102.7230949231892936, -18.00765520551088983, 108.3742659145185172 ) ) ;
#79 = DIRECTION ( 'NONE',  ( 0.9863620457337460845, 0.1645901416730042310, -0.000000000000000000 ) ) ;
#80 = CARTESIAN_POINT ( 'NONE',  ( 18.59779784051961826, 27.44210394604274228, 0.000000000000000000 ) ) ;
#81 = AXIS2_PLACEMENT_3D ( 'NONE', #845, #396, #722 ) ;
#82 = DIRECTION ( 'NONE',  ( 0.000000000000000000, -0.000000000000000000, 1.000000000000000000 ) ) ;
#83 = EDGE_CURVE ( 'NONE', #778, #247, #19, .T. ) ;
#84 = LINE ( 'NONE', #875, #241 ) ;
#85 = FACE_OUTER_BOUND ( 'NONE', #295, .T. ) ;
#86 = CARTESIAN_POINT ( 'NONE',  ( 97.75698220773776370, -16.70700446927739335, 107.0000000000000000 ) ) ;
#87 = DIRECTION ( 'NONE',  ( -0.3283531690704394879, 0.9445550255868629952, 0.000000000000000000 ) ) ;
#88 = FACE_OUTER_BOUND ( 'NONE', #856, .T. ) ;
#89 = PLANE ( 'NONE',  #212 ) ;
#90 = CIRCLE ( 'NONE', #839, 1.499999999999984013 ) ;
#91 = B_SPLINE_CURVE_WITH_KNOTS ( 'NONE', 3,
 ( #345, #260, #1054, #972, #888, #175, #3, #181, #1124, #705, #78, #621 ),
 .UNSPECIFIED., .F., .F.,
 ( 4, 2, 2, 2, 2, 4 ),
 ( 0.000000000000000000, 0.001061641594105475640, 0.001592462391158209773, 0.002123283188210943907, 0.003184924782316428653, 0.004246566376421913834 ),
 .UNSPECIFIED. ) ;
#92 = ORIENTED_EDGE ( 'NONE', *, *, #75, .F. ) ;
#93 = CARTESIAN_POINT ( 'NONE',  ( 103.6131132015512577, -19.17657206310131102, -3.000000000000000000 ) ) ;
#94 = FACE_OUTER_BOUND ( 'NONE', #742, .T. ) ;
#95 = CARTESIAN_POINT ( 'NONE',  ( 103.2604427736006869, -18.12694235588971381, 0.4998457320886738331 ) ) ;
#96 = VECTOR ( 'NONE', #576, 1000.000000000000114 ) ;
#97 = EDGE_CURVE ( 'NONE', #1104, #193, #377, .T. ) ;
#98 = AXIS2_PLACEMENT_3D ( 'NONE', #787, #254, #265 ) ;
#99 = VECTOR ( 'NONE', #40, 1000.000000000000000 ) ;
#100 = ORIENTED_EDGE ( 'NONE', *, *, #302, .F. ) ;
#101 = DIRECTION ( 'NONE',  ( -1.000000000000000000, 0.000000000000000000, 0.000000000000000000 ) ) ;
#102 = SURFACE_SIDE_STYLE ('',( #542 ) ) ;
#103 = EDGE_CURVE ( 'NONE', #277, #466, #824, .T. ) ;
#104 = EDGE_CURVE ( 'NONE', #306, #193, #321, .T. ) ;
#105 = CARTESIAN_POINT ( 'NONE',  ( 0.000000000000000000, 0.000000000000000000, 0.000000000000000000 ) ) ;
#106 = VERTEX_POINT ( 'NONE', #39 ) ;
#107 = DIRECTION ( 'NONE',  ( 1.000000000000000000, 0.000000000000000000, -0.000000000000000000 ) ) ;
#108 = DIRECTION ( 'NONE',  ( -0.000000000000000000, -0.000000000000000000, 1.000000000000000000 ) ) ;
#109 = CARTESIAN_POINT ( 'NONE',  ( 81.87251460396460345, 43.30419935198553105, 109.6070817492043545 ) ) ;
#110 = CARTESIAN_POINT ( 'NONE',  ( 113.2604427736006585, -17.56676220890260254, 113.0000000000000000 ) ) ;
#111 = VERTEX_POINT ( 'NONE', #990 ) ;
#112 = PRESENTATION_LAYER_ASSIGNMENT (  '', '', ( #523 ) ) ;
#113 = CARTESIAN_POINT ( 'NONE',  ( 48.04365848832858887, 49.68656181841879516, 110.0000000000000000 ) ) ;
#114 = CIRCLE ( 'NONE', #415, 5.000000000000004441 ) ;
#115 = FACE_OUTER_BOUND ( 'NONE', #568, .T. ) ;
#116 = EDGE_CURVE ( 'NONE', #850, #466, #522, .T. ) ;
#117 = ORIENTED_EDGE ( 'NONE', *, *, #227, .T. ) ;
#118 = DIRECTION ( 'NONE',  ( -0.000000000000000000, -0.000000000000000000, -1.000000000000000000 ) ) ;
#119 = CARTESIAN_POINT ( 'NONE',  ( 113.2604427736006585, -17.56676220890260254, -19.18336509014821445 ) ) ;
#120 = DIRECTION ( 'NONE',  ( -0.000000000000000000, -0.000000000000000000, -1.000000000000000000 ) ) ;
#121 = ORIENTED_EDGE ( 'NONE', *, *, #707, .F. ) ;
#122 = EDGE_LOOP ( 'NONE', ( #61, #255, #951, #292 ) ) ;
#123 = ORIENTED_EDGE ( 'NONE', *, *, #895, .F. ) ;
#124 = DIRECTION ( 'NONE',  ( 0.000000000000000000, 0.000000000000000000, 1.000000000000000000 ) ) ;
#125 = FACE_OUTER_BOUND ( 'NONE', #122, .T. ) ;
#126 = CARTESIAN_POINT ( 'NONE',  ( 79.82571050995163375, 42.52050493127349284, 107.0796246582119835 ) ) ;
#127 = ORIENTED_EDGE ( 'NONE', *, *, #684, .F. ) ;
#128 = VERTEX_POINT ( 'NONE', #216 ) ;
#129 = CARTESIAN_POINT ( 'NONE',  ( 24.56786753708763626, 39.11551291291374355, 3.000000000000016431 ) ) ;
#130 = EDGE_LOOP ( 'NONE', ( #490, #228 ) ) ;
#131 = CARTESIAN_POINT ( 'NONE',  ( 48.04365848832858887, 49.68656181841879516, 107.0000000000000000 ) ) ;
#132 = ORIENTED_EDGE ( 'NONE', *, *, #227, .F. ) ;
#133 = CARTESIAN_POINT ( 'NONE',  ( 94.33869953922472007, -20.72415498685506563, -19.18336509014821445 ) ) ;
#134 = VERTEX_POINT ( 'NONE', #556 ) ;
#135 = EDGE_CURVE ( 'NONE', #106, #317, #746, .T. ) ;
#136 = LINE ( 'NONE', #944, #414 ) ;
#137 = ORIENTED_EDGE ( 'NONE', *, *, #497, .F. ) ;
#138 = ORIENTED_EDGE ( 'NONE', *, *, #777, .F. ) ;
#139 = CARTESIAN_POINT ( 'NONE',  ( 80.94513572520047262, 42.93178670982534584, 2.260235526542376139 ) ) ;
#140 = ORIENTED_EDGE ( 'NONE', *, *, #965, .F. ) ;
#141 = EDGE_CURVE ( 'NONE', #422, #645, #745, .T. ) ;
#142 = PLANE ( 'NONE',  #248 ) ;
#143 = LINE ( 'NONE', #676, #335 ) ;
#144 = ADVANCED_FACE ( 'NONE', ( #222, #649, #46 ), #369, .T. ) ;
#145 = ORIENTED_EDGE ( 'NONE', *, *, #1058, .T. ) ;
#146 = CARTESIAN_POINT ( 'NONE',  ( 102.9146092772666918, -18.22761809843168024, 108.5756113920024291 ) ) ;
#147 = DIRECTION ( 'NONE',  ( 1.000000000000000000, 0.000000000000000000, 0.000000000000000000 ) ) ;
#148 = CARTESIAN_POINT ( 'NONE',  ( 99.52716197701494139, -16.52560681212014160, 3.000000000000016431 ) ) ;
#149 = ORIENTED_EDGE ( 'NONE', *, *, #752, .T. ) ;
#150 = VECTOR ( 'NONE', #305, 1000.000000000000114 ) ;
#151 = LINE ( 'NONE', #1103, #532 ) ;
#152 = CARTESIAN_POINT ( 'NONE',  ( 16.08362433661927327, 44.18939468785314517, 107.0000000000000000 ) ) ;
#153 = AXIS2_PLACEMENT_3D ( 'NONE', #294, #911, #926 ) ;
#154 = ORIENTED_EDGE ( 'NONE', *, *, #1, .F. ) ;
#155 = CIRCLE ( 'NONE', #233, 1.499999999999990896 ) ;
#156 = EDGE_CURVE ( 'NONE', #472, #174, #548, .T. ) ;
#157 = LINE ( 'NONE', #765, #150 ) ;
#158 = VECTOR ( 'NONE', #573, 1000.000000000000000 ) ;
#159 = LINE ( 'NONE', #533, #881 ) ;
#160 = PRESENTATION_STYLE_ASSIGNMENT (( #1121 ) ) ;
#161 = ORIENTED_EDGE ( 'NONE', *, *, #141, .T. ) ;
#162 = CARTESIAN_POINT ( 'NONE',  ( 19.48936865828508758, 44.77518710757653508, 3.000000000000016431 ) ) ;
#163 = DIRECTION ( 'NONE',  ( -0.000000000000000000, -0.000000000000000000, -1.000000000000000000 ) ) ;
#164 = CARTESIAN_POINT ( 'NONE',  ( 23.06786753708764337, 39.11551291291374355, -1.371604415045033344E-15 ) ) ;
#165 = LINE ( 'NONE', #520, #185 ) ;
#166 = CARTESIAN_POINT ( 'NONE',  ( 97.75698220773774949, -16.70700446927740757, 72.33333333333332860 ) ) ;
#167 = ADVANCED_FACE ( 'NONE', ( #816, #637, #269 ), #188, .T. ) ;
#168 = ORIENTED_EDGE ( 'NONE', *, *, #895, .T. ) ;
#169 = PLANE ( 'NONE',  #291 ) ;
#170 = VECTOR ( 'NONE', #1016, 999.9999999999998863 ) ;
#171 = AXIS2_PLACEMENT_3D ( 'NONE', #878, #1111, #945 ) ;
#172 = CARTESIAN_POINT ( 'NONE',  ( 81.89047047221153264, 43.31172801060416333, 0.000000000000000000 ) ) ;
#173 =( BOUNDED_CURVE ( )  B_SPLINE_CURVE ( 3, ( #566, #207, #274, #450 ),
 .UNSPECIFIED., .F., .F. ) 
 B_SPLINE_CURVE_WITH_KNOTS ( ( 4, 4 ),
 ( 3.389784888793770268, 4.657763081817980044 ),
 .UNSPECIFIED. ) 
 CURVE ( )  GEOMETRIC_REPRESENTATION_ITEM ( )  RATIONAL_B_SPLINE_CURVE ( ( 1.000000000000000000, 0.8704472868185169077, 0.8704472868185169077, 1.000000000000000000 ) ) 
 REPRESENTATION_ITEM ( '' )  );
#174 = VERTEX_POINT ( 'NONE', #804 ) ;
#175 = CARTESIAN_POINT ( 'NONE',  ( 101.1967975468247118, -16.94883252528407169, 107.3634138180292581 ) ) ;
#176 = CARTESIAN_POINT ( 'NONE',  ( 113.2604427736006585, -17.56676220890260254, -3.000000000000000000 ) ) ;
#177 = DIRECTION ( 'NONE',  ( 1.000000000000000000, 0.000000000000000000, 0.000000000000000000 ) ) ;
#178 = LINE ( 'NONE', #760, #96 ) ;
#179 = EDGE_LOOP ( 'NONE', ( #426, #452, #912, #555 ) ) ;
#180 = CYLINDRICAL_SURFACE ( 'NONE', #460, 1.499999999999984013 ) ;
#181 = CARTESIAN_POINT ( 'NONE',  ( 101.7721576880691430, -17.24531900516957350, 107.6504608380547694 ) ) ;
#182 = EDGE_CURVE ( 'NONE', #645, #422, #59, .T. ) ;
#183 = LINE ( 'NONE', #889, #244 ) ;
#184 = CARTESIAN_POINT ( 'NONE',  ( 99.52716197701494139, -16.52560681212014160, 3.000000000000016431 ) ) ;
#185 = VECTOR ( 'NONE', #961, 1000.000000000000000 ) ;
#186 = VECTOR ( 'NONE', #507, 1000.000000000000000 ) ;
#187 = ORIENTED_EDGE ( 'NONE', *, *, #729, .T. ) ;
#188 = PLANE ( 'NONE',  #734 ) ;
#189 = EDGE_CURVE ( 'NONE', #1063, #191, #514, .T. ) ;
#190 = CIRCLE ( 'NONE', #1072, 109.4338034517890321 ) ;
#191 = VERTEX_POINT ( 'NONE', #1061 ) ;
#192 = DIRECTION ( 'NONE',  ( 1.000000000000000000, 0.000000000000000000, 0.000000000000000000 ) ) ;
#193 = VERTEX_POINT ( 'NONE', #973 ) ;
#194 = CARTESIAN_POINT ( 'NONE',  ( 81.89047047221153264, 43.31172801060416333, 110.0000000000000000 ) ) ;
#195 = CARTESIAN_POINT ( 'NONE',  ( 94.33869953922504692, -20.72415498685502655, 110.0000000000000000 ) ) ;
#196 = DIRECTION ( 'NONE',  ( -0.1645901416730049249, 0.9863620457337458625, 0.000000000000000000 ) ) ;
#197 = LINE ( 'NONE', #457, #651 ) ;
#198 = DIRECTION ( 'NONE',  ( -0.9855281050433265522, -0.1695121062629740272, 0.000000000000000000 ) ) ;
#199 = DIRECTION ( 'NONE',  ( 0.4580526612932596664, -0.8889250584172787573, 0.000000000000000000 ) ) ;
#200 = CARTESIAN_POINT ( 'NONE',  ( 81.32211736258352630, 43.07951802239110606, 108.1721435203709802 ) ) ;
#201 = VECTOR ( 'NONE', #808, 1000.000000000000000 ) ;
#202 = EDGE_CURVE ( 'NONE', #111, #1019, #359, .T. ) ;
#203 = DIRECTION ( 'NONE',  ( 0.3285206249412725987, -0.9444967967061590475, 0.000000000000000000 ) ) ;
#204 = PRODUCT_CONTEXT ( 'NONE', #1034, 'mechanical' ) ;
#205 = ORIENTED_EDGE ( 'NONE', *, *, #982, .T. ) ;
#206 = DIRECTION ( 'NONE',  ( -0.000000000000000000, -0.000000000000000000, -1.000000000000000000 ) ) ;
#207 = CARTESIAN_POINT ( 'NONE',  ( 54.69039712672222464, 41.08234619205441618, 3.000000000000016431 ) ) ;
#208 = VERTEX_POINT ( 'NONE', #356 ) ;
#209 = VECTOR ( 'NONE', #903, 1000.000000000000000 ) ;
#210 = ORIENTED_EDGE ( 'NONE', *, *, #865, .T. ) ;
#211 = CARTESIAN_POINT ( 'NONE',  ( 68.77673899611184538, 37.72086000238967785, 3.000000000000015987 ) ) ;
#212 = AXIS2_PLACEMENT_3D ( 'NONE', #6, #428, #783 ) ;
#213 =( BOUNDED_CURVE ( )  B_SPLINE_CURVE ( 3, ( #662, #942, #229, #1108 ),
 .UNSPECIFIED., .F., .F. ) 
 B_SPLINE_CURVE_WITH_KNOTS ( ( 4, 4 ),
 ( 3.389784888793770268, 4.761397300166680502 ),
 .UNSPECIFIED. ) 
 CURVE ( )  GEOMETRIC_REPRESENTATION_ITEM ( )  RATIONAL_B_SPLINE_CURVE ( ( 1.000000000000000000, 0.8492724872626713495, 0.8492724872626713495, 1.000000000000000000 ) ) 
 REPRESENTATION_ITEM ( '' )  );
#214 = DIRECTION ( 'NONE',  ( -1.000000000000000000, 0.000000000000000000, 0.000000000000000000 ) ) ;
#215 = DIRECTION ( 'NONE',  ( -0.000000000000000000, -0.000000000000000000, -1.000000000000000000 ) ) ;
#216 = CARTESIAN_POINT ( 'NONE',  ( 103.2604427736006585, -18.12694235588972802, 1.647987302177966740E-14 ) ) ;
#217 = EDGE_LOOP ( 'NONE', ( #833, #479, #67, #750 ) ) ;
#218 = CARTESIAN_POINT ( 'NONE',  ( 55.37761015474848136, 40.19157978882878268, 109.9999999999999858 ) ) ;
#219 = CARTESIAN_POINT ( 'NONE',  ( 16.08362433661927327, 44.18939468785314517, 1.647987302177966740E-14 ) ) ;
#220 = ORIENTED_EDGE ( 'NONE', *, *, #806, .F. ) ;
#221 = ORIENTED_EDGE ( 'NONE', *, *, #517, .T. ) ;
#222 = FACE_OUTER_BOUND ( 'NONE', #417, .T. ) ;
#223 = EDGE_CURVE ( 'NONE', #505, #276, #183, .T. ) ;
#224 = CARTESIAN_POINT ( 'NONE',  ( 3.564517285038907968, 1.022017551410872249, 107.0000000000000000 ) ) ;
#225 = EDGE_LOOP ( 'NONE', ( #51, #650, #1025, #18 ) ) ;
#226 = ORIENTED_EDGE ( 'NONE', *, *, #97, .F. ) ;
#227 = EDGE_CURVE ( 'NONE', #708, #17, #1117, .T. ) ;
#228 = ORIENTED_EDGE ( 'NONE', *, *, #713, .F. ) ;
#229 = CARTESIAN_POINT ( 'NONE',  ( 68.61150730464531478, 37.75634490739702898, 1.647987302177966740E-14 ) ) ;
#230 = EDGE_CURVE ( 'NONE', #1063, #371, #159, .T. ) ;
#231 = ORIENTED_EDGE ( 'NONE', *, *, #822, .F. ) ;
#232 = FACE_OUTER_BOUND ( 'NONE', #462, .T. ) ;
#233 = AXIS2_PLACEMENT_3D ( 'NONE', #571, #374, #754 ) ;
#234 = AXIS2_PLACEMENT_3D ( 'NONE', #837, #397, #756 ) ;
#235 = EDGE_LOOP ( 'NONE', ( #154, #140, #802, #289, #937, #267, #408, #755 ) ) ;
#236 = LINE ( 'NONE', #1119, #971 ) ;
#237 = CARTESIAN_POINT ( 'NONE',  ( 101.1967975468247118, -16.94883252528407525, 2.636586181970753451 ) ) ;
#238 = ORIENTED_EDGE ( 'NONE', *, *, #992, .F. ) ;
#239 = EDGE_CURVE ( 'NONE', #111, #828, #528, .T. ) ;
#240 = EDGE_LOOP ( 'NONE', ( #892, #922, #168, #77 ) ) ;
#241 = VECTOR ( 'NONE', #691, 1000.000000000000114 ) ;
#242 = DIRECTION ( 'NONE',  ( -1.000000000000000000, 0.000000000000000000, 0.000000000000000000 ) ) ;
#243 = DIRECTION ( 'NONE',  ( -0.000000000000000000, -0.000000000000000000, 1.000000000000000000 ) ) ;
#244 = VECTOR ( 'NONE', #1070, 1000.000000000000000 ) ;
#245 = CARTESIAN_POINT ( 'NONE',  ( 23.06786753708764337, 39.11551291291374355, 107.0000000000000000 ) ) ;
#246 = AXIS2_PLACEMENT_3D ( 'NONE', #273, #698, #625 ) ;
#247 = VERTEX_POINT ( 'NONE', #894 ) ;
#248 = AXIS2_PLACEMENT_3D ( 'NONE', #657, #405, #49 ) ;
#249 = VECTOR ( 'NONE', #475, 1000.000000000000114 ) ;
#250 = DIRECTION ( 'NONE',  ( -0.05593032824766882433, 0.9984346740684180155, 0.000000000000000000 ) ) ;
#251 = DIRECTION ( 'NONE',  ( -1.000000000000000000, 0.000000000000000000, 0.000000000000000000 ) ) ;
#252 = CARTESIAN_POINT ( 'NONE',  ( 16.08362433661927327, 44.18939468785314517, 107.0000000000000000 ) ) ;
#253 = ADVANCED_FACE ( 'NONE', ( #94 ), #537, .F. ) ;
#254 = DIRECTION ( 'NONE',  ( -0.000000000000000000, -0.000000000000000000, -1.000000000000000000 ) ) ;
#255 = ORIENTED_EDGE ( 'NONE', *, *, #50, .F. ) ;
#256 = CARTESIAN_POINT ( 'NONE',  ( 24.56786753708763626, 39.11551291291374355, 107.0000000000000000 ) ) ;
#257 = PRODUCT_DEFINITION_FORMATION_WITH_SPECIFIED_SOURCE ( '任何', '', #615, .NOT_KNOWN. ) ;
#258 = DIRECTION ( 'NONE',  ( -0.000000000000000000, -0.000000000000000000, -1.000000000000000000 ) ) ;
#259 = ORIENTED_EDGE ( 'NONE', *, *, #519, .T. ) ;
#260 = CARTESIAN_POINT ( 'NONE',  ( 99.88607041103581707, -16.55321808387209614, 106.9999999999999858 ) ) ;
#261 = AXIS2_PLACEMENT_3D ( 'NONE', #570, #931, #214 ) ;
#262 = DIRECTION ( 'NONE',  ( -1.000000000000000000, 0.000000000000000000, 0.000000000000000000 ) ) ;
#263 = VECTOR ( 'NONE', #120, 1000.000000000000000 ) ;
#264 = UNCERTAINTY_MEASURE_WITH_UNIT (LENGTH_MEASURE( 1.000000000000000082E-05 ), #803, 'distance_accuracy_value', 'NONE');
#265 = DIRECTION ( 'NONE',  ( -1.000000000000000000, 0.000000000000000000, 0.000000000000000000 ) ) ;
#266 = EDGE_CURVE ( 'NONE', #191, #1059, #897, .T. ) ;
#267 = ORIENTED_EDGE ( 'NONE', *, *, #582, .T. ) ;
#268 = PLANE ( 'NONE',  #953 ) ;
#269 = FACE_BOUND ( 'NONE', #913, .T. ) ;
#270 = DIRECTION ( 'NONE',  ( -0.3420201433256628287, -0.9396926207859105373, 0.000000000000000000 ) ) ;
#271 = ADVANCED_FACE ( 'NONE', ( #88 ), #441, .F. ) ;
#272 = ORIENTED_EDGE ( 'NONE', *, *, #901, .F. ) ;
#273 = CARTESIAN_POINT ( 'NONE',  ( 68.23955059720827876, 85.55186188631924438, 3.000000000000016431 ) ) ;
#274 = CARTESIAN_POINT ( 'NONE',  ( 66.57405770263694933, 38.24282539809757964, 3.000000000000016431 ) ) ;
#275 = CARTESIAN_POINT ( 'NONE',  ( 21.59779784051959339, 27.44210394604274228, 107.0000000000000000 ) ) ;
#276 = VERTEX_POINT ( 'NONE', #449 ) ;
#277 = VERTEX_POINT ( 'NONE', #14 ) ;
#278 = DIRECTION ( 'NONE',  ( 0.9863620457337459735, 0.1645901416730042033, 0.000000000000000000 ) ) ;
#279 = CARTESIAN_POINT ( 'NONE',  ( 81.89047047221153264, 43.31172801060416333, 110.0000000000000000 ) ) ;
#280 =( GEOMETRIC_REPRESENTATION_CONTEXT ( 3 ) GLOBAL_UNCERTAINTY_ASSIGNED_CONTEXT ( ( #700 ) ) GLOBAL_UNIT_ASSIGNED_CONTEXT ( ( #773, #589, #327 ) ) REPRESENTATION_CONTEXT ( 'NONE', 'WORKASPACE' ) );
#281 = DIRECTION ( 'NONE',  ( 1.000000000000000000, 0.000000000000000000, 0.000000000000000000 ) ) ;
#282 = DIRECTION ( 'NONE',  ( 0.9863620457337458625, 0.1645901416730049249, 0.000000000000000000 ) ) ;
#283 = ORIENTED_EDGE ( 'NONE', *, *, #75, .T. ) ;
#284 = DIRECTION ( 'NONE',  ( -0.000000000000000000, -0.000000000000000000, -1.000000000000000000 ) ) ;
#285 = FILL_AREA_STYLE_COLOUR ( '', #1007 ) ;
#286 = EDGE_CURVE ( 'NONE', #678, #674, #1120, .T. ) ;
#287 = FACE_OUTER_BOUND ( 'NONE', #478, .T. ) ;
#288 = LINE ( 'NONE', #738, #263 ) ;
#289 = ORIENTED_EDGE ( 'NONE', *, *, #967, .F. ) ;
#290 = ORIENTED_EDGE ( 'NONE', *, *, #1048, .F. ) ;
#291 = AXIS2_PLACEMENT_3D ( 'NONE', #686, #250, #968 ) ;
#292 = ORIENTED_EDGE ( 'NONE', *, *, #336, .F. ) ;
#293 = LINE ( 'NONE', #458, #1129 ) ;
#294 = CARTESIAN_POINT ( 'NONE',  ( 24.56786753708763626, 39.11551291291374355, -1.371604415045033344E-15 ) ) ;
#295 = EDGE_LOOP ( 'NONE', ( #53, #946, #23, #41 ) ) ;
#296 = CARTESIAN_POINT ( 'NONE',  ( 82.10996316746535229, 43.40442473503048859, 107.0000000000000000 ) ) ;
#297 = FACE_OUTER_BOUND ( 'NONE', #812, .T. ) ;
#298 = DIRECTION ( 'NONE',  ( -0.000000000000000000, -0.000000000000000000, 1.000000000000000000 ) ) ;
#299 = ORIENTED_EDGE ( 'NONE', *, *, #596, .F. ) ;
#300 = CARTESIAN_POINT ( 'NONE',  ( 21.59779784051958984, 27.44210394604274228, 110.0000000000000000 ) ) ;
#301 = VECTOR ( 'NONE', #338, 1000.000000000000000 ) ;
#302 = EDGE_CURVE ( 'NONE', #864, #111, #419, .T. ) ;
#303 = ORIENTED_EDGE ( 'NONE', *, *, #230, .T. ) ;
#304 = CARTESIAN_POINT ( 'NONE',  ( 20.09779784051960405, 27.44210394604274228, 110.0000000000000000 ) ) ;
#305 = DIRECTION ( 'NONE',  ( -0.9855281050433265522, -0.1695121062629740272, 0.000000000000000000 ) ) ;
#306 = VERTEX_POINT ( 'NONE', #598 ) ;
#307 = VERTEX_POINT ( 'NONE', #958 ) ;
#308 = CARTESIAN_POINT ( 'NONE',  ( 102.0367340084820285, -17.42158213085208374, 2.179245206250466360 ) ) ;
#309 = ADVANCED_FACE ( 'NONE', ( #85 ), #807, .F. ) ;
#310 = ORIENTED_EDGE ( 'NONE', *, *, #380, .F. ) ;
#311 = DIRECTION ( 'NONE',  ( -0.000000000000000000, 0.000000000000000000, -1.000000000000000000 ) ) ;
#312 = VERTEX_POINT ( 'NONE', #914 ) ;
#313 = CARTESIAN_POINT ( 'NONE',  ( 79.26452709672670949, 42.33236902974289251, 3.000000000000016431 ) ) ;
#314 = ORIENTED_EDGE ( 'NONE', *, *, #1122, .T. ) ;
#315 = CARTESIAN_POINT ( 'NONE',  ( 103.2604427736006585, -18.12694235588972802, 1.734723475976807094E-14 ) ) ;
#316 = EDGE_LOOP ( 'NONE', ( #372, #847, #456, #238, #579 ) ) ;
#317 = VERTEX_POINT ( 'NONE', #535 ) ;
#318 = CARTESIAN_POINT ( 'NONE',  ( 55.37848086014179216, 40.19162050936584762, 1.605124501849061333E-16 ) ) ;
#319 = CARTESIAN_POINT ( 'NONE',  ( 24.56786753708763626, 39.11551291291374355, 107.0000000000000000 ) ) ;
#320 = AXIS2_PLACEMENT_3D ( 'NONE', #36, #753, #677 ) ;
#321 = CIRCLE ( 'NONE', #486, 1.499999999999990896 ) ;
#322 = VECTOR ( 'NONE', #592, 1000.000000000000227 ) ;
#323 = CARTESIAN_POINT ( 'NONE',  ( 102.5106264164761711, -17.80200569707593061, 1.818126234658127949 ) ) ;
#324 = VERTEX_POINT ( 'NONE', #113 ) ;
#325 = CARTESIAN_POINT ( 'NONE',  ( 80.49560535015881158, 42.76206478607743122, 2.604315809471585919 ) ) ;
#326 = ADVANCED_FACE ( 'NONE', ( #358 ), #373, .F. ) ;
#327 =( NAMED_UNIT ( * ) SI_UNIT ( $, .STERADIAN. ) SOLID_ANGLE_UNIT ( ) );
#328 = ORIENTED_EDGE ( 'NONE', *, *, #477, .T. ) ;
#329 = FACE_OUTER_BOUND ( 'NONE', #680, .T. ) ;
#330 = DIRECTION ( 'NONE',  ( 0.4580526612932596109, -0.8889250584172787573, 0.000000000000000000 ) ) ;
#331 = VERTEX_POINT ( 'NONE', #275 ) ;
#332 = AXIS2_PLACEMENT_3D ( 'NONE', #1024, #493, #70 ) ;
#333 = CARTESIAN_POINT ( 'NONE',  ( 103.6131132015512577, -19.17657206310131102, -3.000000000000000000 ) ) ;
#334 =( BOUNDED_CURVE ( )  B_SPLINE_CURVE ( 3, ( #74, #512, #758, #146 ),
 .UNSPECIFIED., .F., .F. ) 
 B_SPLINE_CURVE_WITH_KNOTS ( ( 4, 4 ),
 ( 3.141592653589793116, 3.636325108160328057 ),
 .UNSPECIFIED. ) 
 CURVE ( )  GEOMETRIC_REPRESENTATION_ITEM ( )  RATIONAL_B_SPLINE_CURVE ( ( 1.000000000000000000, 0.9797071108005390716, 0.9797071108005390716, 1.000000000000000000 ) ) 
 REPRESENTATION_ITEM ( '' )  );
#335 = VECTOR ( 'NONE', #948, 1000.000000000000000 ) ;
#336 = EDGE_CURVE ( 'NONE', #841, #778, #190, .T. ) ;
#337 = CARTESIAN_POINT ( 'NONE',  ( 81.89047047221154685, 43.31172801060416333, 0.3962294424271977644 ) ) ;
#338 = DIRECTION ( 'NONE',  ( 0.000000000000000000, 0.000000000000000000, 1.000000000000000000 ) ) ;
#339 = EDGE_CURVE ( 'NONE', #128, #12, #718, .T. ) ;
#340 = EDGE_CURVE ( 'NONE', #854, #128, #178, .T. ) ;
#341 = FACE_OUTER_BOUND ( 'NONE', #766, .T. ) ;
#342 = CARTESIAN_POINT ( 'NONE',  ( 113.2604427736006585, -17.56676220890260254, 110.0000000000000000 ) ) ;
#343 = AXIS2_PLACEMENT_3D ( 'NONE', #797, #979, #262 ) ;
#344 = EDGE_LOOP ( 'NONE', ( #395, #591, #940 ) ) ;
#345 = CARTESIAN_POINT ( 'NONE',  ( 99.52716197701494139, -16.52560681212014160, 107.0000000000000000 ) ) ;
#346 = DIRECTION ( 'NONE',  ( 0.000000000000000000, -0.000000000000000000, 1.000000000000000000 ) ) ;
#347 = CARTESIAN_POINT ( 'NONE',  ( 102.9146092772667060, -18.22761809843169090, 1.424388607997585598 ) ) ;
#348 = EDGE_LOOP ( 'NONE', ( #920, #161 ) ) ;
#349 = DIRECTION ( 'NONE',  ( -0.3420201433256628287, -0.9396926207859104263, 0.000000000000000000 ) ) ;
#350 = CARTESIAN_POINT ( 'NONE',  ( 68.23955059720827876, 85.55186188631924438, 3.000000000000016431 ) ) ;
#351 = VECTOR ( 'NONE', #258, 1000.000000000000000 ) ;
#352 = DIRECTION ( 'NONE',  ( -1.000000000000000000, 0.000000000000000000, 0.000000000000000000 ) ) ;
#353 = ADVANCED_FACE ( 'NONE', ( #232 ), #495, .T. ) ;
#354 = EDGE_LOOP ( 'NONE', ( #1023, #299 ) ) ;
#355 =( NAMED_UNIT ( * ) PLANE_ANGLE_UNIT ( ) SI_UNIT ( $, .RADIAN. ) );
#356 = CARTESIAN_POINT ( 'NONE',  ( 26.06786753708762561, 39.11551291291374355, 107.0000000000000000 ) ) ;
#357 = LINE ( 'NONE', #886, #1115 ) ;
#358 = FACE_OUTER_BOUND ( 'NONE', #960, .T. ) ;
#359 = LINE ( 'NONE', #176, #201 ) ;
#360 = CARTESIAN_POINT ( 'NONE',  ( 81.89047047221153264, 43.31172801060416333, 0.000000000000000000 ) ) ;
#361 = DIRECTION ( 'NONE',  ( -0.000000000000000000, 0.000000000000000000, -1.000000000000000000 ) ) ;
#362 = EDGE_CURVE ( 'NONE', #696, #277, #687, .T. ) ;
#363 = CARTESIAN_POINT ( 'NONE',  ( 26.06786753708762205, 39.11551291291374355, 110.0000000000000000 ) ) ;
#364 = DIRECTION ( 'NONE',  ( 0.000000000000000000, 0.000000000000000000, 1.000000000000000000 ) ) ;
#365 = CARTESIAN_POINT ( 'NONE',  ( 48.04365848832858887, 49.68656181841879516, 110.0000000000000000 ) ) ;
#366 = AXIS2_PLACEMENT_3D ( 'NONE', #925, #124, #107 ) ;
#367 = PRODUCT_RELATED_PRODUCT_CATEGORY ( 'part', '', ( #615 ) ) ;
#368 = EDGE_LOOP ( 'NONE', ( #730, #1003 ) ) ;
#369 = PLANE ( 'NONE',  #1042 ) ;
#370 = CARTESIAN_POINT ( 'NONE',  ( 55.32600959564390308, 40.25838502612783287, 110.0000000000000000 ) ) ;
#371 = VERTEX_POINT ( 'NONE', #938 ) ;
#372 = ORIENTED_EDGE ( 'NONE', *, *, #603, .F. ) ;
#373 = PLANE ( 'NONE',  #43 ) ;
#374 = DIRECTION ( 'NONE',  ( -0.000000000000000000, -0.000000000000000000, -1.000000000000000000 ) ) ;
#375 = EDGE_LOOP ( 'NONE', ( #1084, #1106, #704, #1118 ) ) ;
#376 = CARTESIAN_POINT ( 'NONE',  ( 103.6131132015512577, -19.17657206310131102, -3.000000000000000000 ) ) ;
#377 = LINE ( 'NONE', #564, #825 ) ;
#378 = CARTESIAN_POINT ( 'NONE',  ( 68.77670452070445606, 37.72066466043384025, 107.0000000000000000 ) ) ;
#379 = ORIENTED_EDGE ( 'NONE', *, *, #962, .F. ) ;
#380 = EDGE_CURVE ( 'NONE', #422, #331, #136, .T. ) ;
#381 = DIRECTION ( 'NONE',  ( -0.000000000000000000, -0.000000000000000000, 1.000000000000000000 ) ) ;
#382 = AXIS2_PLACEMENT_3D ( 'NONE', #252, #606, #349 ) ;
#383 = CARTESIAN_POINT ( 'NONE',  ( 99.88607041103584550, -16.55321808387210325, 3.000000000000016875 ) ) ;
#384 = ORIENTED_EDGE ( 'NONE', *, *, #266, .F. ) ;
#385 = DIRECTION ( 'NONE',  ( 0.000000000000000000, -0.000000000000000000, 1.000000000000000000 ) ) ;
#386 = DIRECTION ( 'NONE',  ( 1.000000000000000000, 0.000000000000000000, 0.000000000000000000 ) ) ;
#387 = CARTESIAN_POINT ( 'NONE',  ( 81.89047047221153264, 43.31172801060416333, 110.0000000000000000 ) ) ;
#388 = CARTESIAN_POINT ( 'NONE',  ( 18.59779784051961471, 27.44210394604274228, 110.0000000000000000 ) ) ;
#389 = ORIENTED_EDGE ( 'NONE', *, *, #519, .F. ) ;
#390 = CIRCLE ( 'NONE', #1043, 1.499999999999987566 ) ;
#391 = DIRECTION ( 'NONE',  ( -0.9444967967061590475, -0.3285206249412731538, 0.000000000000000000 ) ) ;
#392 =( GEOMETRIC_REPRESENTATION_CONTEXT ( 3 ) GLOBAL_UNCERTAINTY_ASSIGNED_CONTEXT ( ( #885 ) ) GLOBAL_UNIT_ASSIGNED_CONTEXT ( ( #638, #1082, #642 ) ) REPRESENTATION_CONTEXT ( 'NONE', 'WORKASPACE' ) );
#393 = ADVANCED_FACE ( 'NONE', ( #488 ), #743, .T. ) ;
#394 = FACE_BOUND ( 'NONE', #471, .T. ) ;
#395 = ORIENTED_EDGE ( 'NONE', *, *, #1040, .T. ) ;
#396 = DIRECTION ( 'NONE',  ( -0.3285206249412725987, 0.9444967967061591585, 0.000000000000000000 ) ) ;
#397 = DIRECTION ( 'NONE',  ( 0.000000000000000000, 0.000000000000000000, 1.000000000000000000 ) ) ;
#398 = LINE ( 'NONE', #224, #322 ) ;
#399 = VERTEX_POINT ( 'NONE', #646 ) ;
#400 = CARTESIAN_POINT ( 'NONE',  ( 48.04365848832858177, 49.68656181841880226, 3.000000000000016431 ) ) ;
#401 = CARTESIAN_POINT ( 'NONE',  ( 100.7277816462164992, -16.76530555804732714, 2.812165671686212232 ) ) ;
#402 = EDGE_LOOP ( 'NONE', ( #44, #983, #464 ) ) ;
#403 = DIRECTION ( 'NONE',  ( -0.9396926207859105373, 0.3420201433256628287, 0.000000000000000000 ) ) ;
#404 = ORIENTED_EDGE ( 'NONE', *, *, #223, .F. ) ;
#405 = DIRECTION ( 'NONE',  ( 0.000000000000000000, 0.000000000000000000, 1.000000000000000000 ) ) ;
#406 = VECTOR ( 'NONE', #880, 1000.000000000000114 ) ;
#407 = PLANE ( 'NONE',  #721 ) ;
#408 = ORIENTED_EDGE ( 'NONE', *, *, #230, .F. ) ;
#409 = EDGE_CURVE ( 'NONE', #1002, #134, #751, .T. ) ;
#410 = DIRECTION ( 'NONE',  ( 0.9855281050433265522, 0.1695121062629740272, -0.000000000000000000 ) ) ;
#411 = FACE_OUTER_BOUND ( 'NONE', #1109, .T. ) ;
#412 = ADVANCED_BREP_SHAPE_REPRESENTATION ( '零件2', ( #879, #476, #1053 ), #908 ) ;
#413 = FILL_AREA_STYLE ('',( #66 ) ) ;
#414 = VECTOR ( 'NONE', #56, 1000.000000000000000 ) ;
#415 = AXIS2_PLACEMENT_3D ( 'NONE', #980, #525, #437 ) ;
#416 = DIRECTION ( 'NONE',  ( 0.000000000000000000, -0.000000000000000000, 1.000000000000000000 ) ) ;
#417 = EDGE_LOOP ( 'NONE', ( #870, #48, #145, #560, #210, #670, #438 ) ) ;
#418 = CARTESIAN_POINT ( 'NONE',  ( 79.44942550219060706, 42.39369471777829546, 2.980577443665255455 ) ) ;
#419 = LINE ( 'NONE', #776, #1114 ) ;
#420 = DIRECTION ( 'NONE',  ( -1.000000000000000000, 0.000000000000000000, 0.000000000000000000 ) ) ;
#421 = DIRECTION ( 'NONE',  ( 0.000000000000000000, 0.000000000000000000, 1.000000000000000000 ) ) ;
#422 = VERTEX_POINT ( 'NONE', #300 ) ;
#423 = DIRECTION ( 'NONE',  ( -0.000000000000000000, -0.000000000000000000, -1.000000000000000000 ) ) ;
#424 = FACE_OUTER_BOUND ( 'NONE', #235, .T. ) ;
#425 = ADVANCED_FACE ( 'NONE', ( #1004, #501, #411 ), #142, .F. ) ;
#426 = ORIENTED_EDGE ( 'NONE', *, *, #588, .F. ) ;
#427 = CARTESIAN_POINT ( 'NONE',  ( 113.2604427736006585, -17.56676220890260254, 1.734723475976807094E-14 ) ) ;
#428 = DIRECTION ( 'NONE',  ( -0.2795077791381950783, 0.9601434275155112941, 0.000000000000000000 ) ) ;
#429 = ADVANCED_FACE ( 'NONE', ( #1015 ), #1047, .F. ) ;
#430 = VECTOR ( 'NONE', #1037, 1000.000000000000000 ) ;
#431 = VECTOR ( 'NONE', #830, 1000.000000000000000 ) ;
#432 = FACE_OUTER_BOUND ( 'NONE', #179, .T. ) ;
#433 = LINE ( 'NONE', #172, #8 ) ;
#434 = ORIENTED_EDGE ( 'NONE', *, *, #619, .F. ) ;
#435 = CARTESIAN_POINT ( 'NONE',  ( 81.89047047221153264, 43.31172801060416333, -3.000000000000000000 ) ) ;
#436 = CARTESIAN_POINT ( 'NONE',  ( 54.68956040956312137, 41.08237103796012946, 107.0000000000000000 ) ) ;
#437 = DIRECTION ( 'NONE',  ( 1.000000000000000000, 0.000000000000000000, 0.000000000000000000 ) ) ;
#438 = ORIENTED_EDGE ( 'NONE', *, *, #707, .T. ) ;
#439 = FACE_OUTER_BOUND ( 'NONE', #728, .T. ) ;
#440 = CARTESIAN_POINT ( 'NONE',  ( 81.60881220012502979, 43.19522592229831304, 1.330908600534005615 ) ) ;
#441 = CYLINDRICAL_SURFACE ( 'NONE', #848, 1.499999999999990896 ) ;
#442 = ADVANCED_FACE ( 'NONE', ( #959 ), #57, .T. ) ;
#443 = PLANE ( 'NONE',  #445 ) ;
#444 = APPLICATION_PROTOCOL_DEFINITION ( 'draft international standard', 'automotive_design', 1998, #1034 ) ;
#445 = AXIS2_PLACEMENT_3D ( 'NONE', #689, #618, #177 ) ;
#446 = VECTOR ( 'NONE', #574, 1000.000000000000000 ) ;
#447 = DIRECTION ( 'NONE',  ( -0.3283531690704394879, 0.9445550255868629952, 0.000000000000000000 ) ) ;
#448 = FILL_AREA_STYLE ('',( #1068 ) ) ;
#449 = CARTESIAN_POINT ( 'NONE',  ( 81.89047047221153264, 43.31172801060416333, 113.0000000000000000 ) ) ;
#450 = CARTESIAN_POINT ( 'NONE',  ( 79.07595880566000801, 42.27160230552533449, 3.000000000000016431 ) ) ;
#451 = EDGE_CURVE ( 'NONE', #17, #324, #143, .T. ) ;
#452 = ORIENTED_EDGE ( 'NONE', *, *, #339, .T. ) ;
#453 = FACE_OUTER_BOUND ( 'NONE', #37, .T. ) ;
#454 = DIRECTION ( 'NONE',  ( -1.000000000000000000, 0.000000000000000000, 0.000000000000000000 ) ) ;
#455 = EDGE_CURVE ( 'NONE', #577, #1087, #1038, .T. ) ;
#456 = ORIENTED_EDGE ( 'NONE', *, *, #340, .F. ) ;
#457 = CARTESIAN_POINT ( 'NONE',  ( 71.32490353847431663, 64.55588619868420608, 107.0000000000000000 ) ) ;
#458 = CARTESIAN_POINT ( 'NONE',  ( 26.06786753708762561, 39.11551291291374355, 107.0000000000000000 ) ) ;
#459 = CARTESIAN_POINT ( 'NONE',  ( 81.89047047221153264, 43.31172801060416333, 113.0000000000000000 ) ) ;
#460 = AXIS2_PLACEMENT_3D ( 'NONE', #664, #842, #420 ) ;
#461 = AXIS2_PLACEMENT_3D ( 'NONE', #947, #403, #871 ) ;
#462 = EDGE_LOOP ( 'NONE', ( #1035, #1026, #389, #33, #835, #934 ) ) ;
#463 = VECTOR ( 'NONE', #284, 1000.000000000000000 ) ;
#464 = ORIENTED_EDGE ( 'NONE', *, *, #588, .T. ) ;
#465 = SURFACE_STYLE_USAGE ( .BOTH. , #715 ) ;
#466 = VERTEX_POINT ( 'NONE', #164 ) ;
#467 = CARTESIAN_POINT ( 'NONE',  ( 99.14363901475020668, -21.51087612655197390, 3.000000000000016431 ) ) ;
#468 = DIRECTION ( 'NONE',  ( -0.8889250584172787573, -0.4580526612932596664, 0.000000000000000000 ) ) ;
#469 = ADVANCED_FACE ( 'NONE', ( #72 ), #496, .F. ) ;
#470 = CARTESIAN_POINT ( 'NONE',  ( 80.49884080373102790, 42.76324320972110371, 107.3975837532972548 ) ) ;
#471 = EDGE_LOOP ( 'NONE', ( #1021, #123 ) ) ;
#472 = VERTEX_POINT ( 'NONE', #1030 ) ;
#473 = LINE ( 'NONE', #1098, #800 ) ;
#474 = DIRECTION ( 'NONE',  ( -0.000000000000000000, -0.000000000000000000, -1.000000000000000000 ) ) ;
#475 = DIRECTION ( 'NONE',  ( -0.3285206249412725987, 0.9444967967061591585, 0.000000000000000000 ) ) ;
#476 = MANIFOLD_SOLID_BREP ( '圆角4', #601 ) ;
#477 = EDGE_CURVE ( 'NONE', #1002, #505, #873, .T. ) ;
#478 = EDGE_LOOP ( 'NONE', ( #539, #663, #55, #685, #1134, #127, #272 ) ) ;
#479 = ORIENTED_EDGE ( 'NONE', *, *, #380, .T. ) ;
#480 = DIRECTION ( 'NONE',  ( -0.3285206249412725987, 0.9444967967061591585, 0.000000000000000000 ) ) ;
#481 = VECTOR ( 'NONE', #616, 1000.000000000000000 ) ;
#482 = CYLINDRICAL_SURFACE ( 'NONE', #81, 2.999999999999996891 ) ;
#483 = CARTESIAN_POINT ( 'NONE',  ( 20.09779784051960405, 27.44210394604274228, -1.371604415045033344E-15 ) ) ;
#484 = DIRECTION ( 'NONE',  ( -1.000000000000000000, 0.000000000000000000, 0.000000000000000000 ) ) ;
#485 = ORIENTED_EDGE ( 'NONE', *, *, #624, .F. ) ;
#486 = AXIS2_PLACEMENT_3D ( 'NONE', #483, #474, #549 ) ;
#487 = AXIS2_PLACEMENT_3D ( 'NONE', #1126, #994, #198 ) ;
#488 = FACE_OUTER_BOUND ( 'NONE', #316, .T. ) ;
#489 = CIRCLE ( 'NONE', #234, 109.4338034517890321 ) ;
#490 = ORIENTED_EDGE ( 'NONE', *, *, #544, .F. ) ;
#491 = LINE ( 'NONE', #315, #170 ) ;
#492 = ORIENTED_EDGE ( 'NONE', *, *, #239, .F. ) ;
#493 = DIRECTION ( 'NONE',  ( -0.000000000000000000, -0.000000000000000000, -1.000000000000000000 ) ) ;
#494 = ORIENTED_EDGE ( 'NONE', *, *, #713, .T. ) ;
#495 = CYLINDRICAL_SURFACE ( 'NONE', #916, 5.000000000000004441 ) ;
#496 = CYLINDRICAL_SURFACE ( 'NONE', #986, 1.499999999999990896 ) ;
#497 = EDGE_CURVE ( 'NONE', #2, #1099, #76, .T. ) ;
#498 = DIRECTION ( 'NONE',  ( -0.9855281050433265522, -0.1695121062629740272, 0.000000000000000000 ) ) ;
#499 = ORIENTED_EDGE ( 'NONE', *, *, #135, .T. ) ;
#500 = DIRECTION ( 'NONE',  ( -0.000000000000000000, -0.000000000000000000, 1.000000000000000000 ) ) ;
#501 = FACE_BOUND ( 'NONE', #354, .T. ) ;
#502 = MECHANICAL_DESIGN_GEOMETRIC_PRESENTATION_REPRESENTATION (  '', ( #998 ), #891 ) ;
#503 = ADVANCED_FACE ( 'NONE', ( #424 ), #781, .T. ) ;
#504 = DIRECTION ( 'NONE',  ( 1.000000000000000000, 0.000000000000000000, -0.000000000000000000 ) ) ;
#505 = VERTEX_POINT ( 'NONE', #910 ) ;
#506 = CARTESIAN_POINT ( 'NONE',  ( 79.07595880566000801, 42.27160230552533449, 3.000000000000016431 ) ) ;
#507 = DIRECTION ( 'NONE',  ( -0.000000000000000000, -0.000000000000000000, 1.000000000000000000 ) ) ;
#508 = SURFACE_SIDE_STYLE ('',( #860 ) ) ;
#509 = AXIS2_PLACEMENT_3D ( 'NONE', #693, #798, #352 ) ;
#510 = CLOSED_SHELL ( 'NONE', ( #1107, #326, #11, #673, #647 ) ) ;
#511 = ORIENTED_EDGE ( 'NONE', *, *, #740, .F. ) ;
#512 = CARTESIAN_POINT ( 'NONE',  ( 103.2604427736006869, -18.12694235588972802, 109.5001542679113413 ) ) ;
#513 = EDGE_CURVE ( 'NONE', #561, #208, #293, .T. ) ;
#514 = LINE ( 'NONE', #617, #694 ) ;
#515 = VERTEX_POINT ( 'NONE', #45 ) ;
#516 = PLANE ( 'NONE',  #643 ) ;
#517 = EDGE_CURVE ( 'NONE', #561, #577, #390, .T. ) ;
#518 = DIRECTION ( 'NONE',  ( -1.000000000000000000, 0.000000000000000000, 0.000000000000000000 ) ) ;
#519 = EDGE_CURVE ( 'NONE', #1059, #769, #536, .T. ) ;
#520 = CARTESIAN_POINT ( 'NONE',  ( 103.2604427736006585, -18.12694235588972802, 110.0000000000000000 ) ) ;
#521 = CARTESIAN_POINT ( 'NONE',  ( 97.75698220773776370, -16.70700446927739335, 3.000000000000016431 ) ) ;
#522 = CIRCLE ( 'NONE', #153, 1.499999999999990896 ) ;
#523 = STYLED_ITEM ( 'NONE', ( #160 ), #476 ) ;
#524 = DIRECTION ( 'NONE',  ( -0.000000000000000000, -0.000000000000000000, -1.000000000000000000 ) ) ;
#525 = DIRECTION ( 'NONE',  ( 0.000000000000000000, 0.000000000000000000, 1.000000000000000000 ) ) ;
#526 = EDGE_CURVE ( 'NONE', #1019, #1011, #28, .T. ) ;
#527 = DIRECTION ( 'NONE',  ( 0.4580526612932596664, -0.8889250584172787573, 0.000000000000000000 ) ) ;
#528 = LINE ( 'NONE', #1055, #186 ) ;
#529 = CARTESIAN_POINT ( 'NONE',  ( 20.09779784051960405, 27.44210394604274228, 3.000000000000016431 ) ) ;
#530 = EDGE_LOOP ( 'NONE', ( #1113, #587, #1123, #630 ) ) ;
#531 = CARTESIAN_POINT ( 'NONE',  ( 79.07595880566000801, 42.27160230552533449, 3.000000000000016431 ) ) ;
#532 = VECTOR ( 'NONE', #770, 1000.000000000000114 ) ;
#533 = CARTESIAN_POINT ( 'NONE',  ( 19.48936865828508758, 44.77518710757653508, 3.000000000000016431 ) ) ;
#534 = LINE ( 'NONE', #882, #1057 ) ;
#535 = CARTESIAN_POINT ( 'NONE',  ( 81.89047047221153264, 43.31172801060416333, 110.0000000000000000 ) ) ;
#536 = CIRCLE ( 'NONE', #941, 5.000000000000004441 ) ;
#537 = CYLINDRICAL_SURFACE ( 'NONE', #246, 106.4338034517890321 ) ;
#538 = ADVANCED_FACE ( 'NONE', ( #736 ), #1088, .F. ) ;
#539 = ORIENTED_EDGE ( 'NONE', *, *, #1069, .F. ) ;
#540 = APPLICATION_PROTOCOL_DEFINITION ( 'draft international standard', 'automotive_design', 1998, #1086 ) ;
#541 = DIRECTION ( 'NONE',  ( -0.000000000000000000, -0.000000000000000000, -1.000000000000000000 ) ) ;
#542 = SURFACE_STYLE_FILL_AREA ( #749 ) ;
#543 = ADVANCED_FACE ( 'NONE', ( #815 ), #563, .F. ) ;
#544 = EDGE_CURVE ( 'NONE', #515, #1104, #581, .T. ) ;
#545 = ORIENTED_EDGE ( 'NONE', *, *, #865, .F. ) ;
#546 = PRODUCT_DEFINITION_SHAPE ( 'NONE', 'NONE',  #788 ) ;
#547 = LINE ( 'NONE', #1074, #981 ) ;
#548 = CIRCLE ( 'NONE', #793, 106.4338034517890463 ) ;
#549 = DIRECTION ( 'NONE',  ( -1.000000000000000000, 0.000000000000000000, 0.000000000000000000 ) ) ;
#550 = ORIENTED_EDGE ( 'NONE', *, *, #135, .F. ) ;
#551 = CARTESIAN_POINT ( 'NONE',  ( 113.2604427736006585, -17.56676220890260254, 1.734723475976807094E-14 ) ) ;
#552 = VECTOR ( 'NONE', #87, 1000.000000000000114 ) ;
#553 = ORIENTED_EDGE ( 'NONE', *, *, #336, .T. ) ;
#554 = SHAPE_DEFINITION_REPRESENTATION ( #546, #412 ) ;
#555 = ORIENTED_EDGE ( 'NONE', *, *, #799, .F. ) ;
#556 = CARTESIAN_POINT ( 'NONE',  ( 103.6131132015512577, -19.17657206310131102, 110.0000000000000000 ) ) ;
#557 = VECTOR ( 'NONE', #599, 1000.000000000000000 ) ;
#558 = CARTESIAN_POINT ( 'NONE',  ( 81.60945750965490220, 43.19548523130920614, 108.6703133670934704 ) ) ;
#559 = AXIS2_PLACEMENT_3D ( 'NONE', #605, #163, #518 ) ;
#560 = ORIENTED_EDGE ( 'NONE', *, *, #853, .T. ) ;
#561 = VERTEX_POINT ( 'NONE', #363 ) ;
#562 = ADVANCED_FACE ( 'NONE', ( #453 ), #482, .T. ) ;
#563 = PLANE ( 'NONE',  #366 ) ;
#564 = CARTESIAN_POINT ( 'NONE',  ( 21.59779784051958629, 27.44210394604274228, 0.000000000000000000 ) ) ;
#565 = EDGE_LOOP ( 'NONE', ( #138, #987, #553, #899, #748, #672 ) ) ;
#566 = CARTESIAN_POINT ( 'NONE',  ( 48.04365848832858887, 49.68656181841879516, 3.000000000000016431 ) ) ;
#567 = EDGE_LOOP ( 'NONE', ( #545, #32, #117, #27 ) ) ;
#568 = EDGE_LOOP ( 'NONE', ( #205, #328, #1075 ) ) ;
#569 = CARTESIAN_POINT ( 'NONE',  ( 48.04365848832858177, 49.68656181841880226, 1.605124501849061086E-16 ) ) ;
#570 = CARTESIAN_POINT ( 'NONE',  ( 20.09779784051960405, 27.44210394604274228, 107.0000000000000000 ) ) ;
#571 = CARTESIAN_POINT ( 'NONE',  ( 20.09779784051960405, 27.44210394604274228, 107.0000000000000000 ) ) ;
#572 = ADVANCED_FACE ( 'NONE', ( #60, #394, #762 ), #407, .F. ) ;
#573 = DIRECTION ( 'NONE',  ( -0.000000000000000000, -0.000000000000000000, 1.000000000000000000 ) ) ;
#574 = DIRECTION ( 'NONE',  ( 0.000000000000000000, 0.000000000000000000, 1.000000000000000000 ) ) ;
#575 = EDGE_LOOP ( 'NONE', ( #827, #1101, #1083, #814 ) ) ;
#576 = DIRECTION ( 'NONE',  ( 0.3285206249412724322, -0.9444967967061592695, -0.000000000000000000 ) ) ;
#577 = VERTEX_POINT ( 'NONE', #1105 ) ;
#578 = CARTESIAN_POINT ( 'NONE',  ( 68.23955059720827876, 85.55186188631924438, 1.647987302177966740E-14 ) ) ;
#579 = ORIENTED_EDGE ( 'NONE', *, *, #1122, .F. ) ;
#580 = CARTESIAN_POINT ( 'NONE',  ( 80.80097319360893948, 42.87652466470993318, 2.386800491247836220 ) ) ;
#581 = CIRCLE ( 'NONE', #1005, 1.499999999999984013 ) ;
#582 = EDGE_CURVE ( 'NONE', #17, #371, #768, .T. ) ;
#583 = DIRECTION ( 'NONE',  ( 0.000000000000000000, -0.000000000000000000, 1.000000000000000000 ) ) ;
#584 = VECTOR ( 'NONE', #298, 1000.000000000000000 ) ;
#585 = ORIENTED_EDGE ( 'NONE', *, *, #103, .T. ) ;
#586 = CARTESIAN_POINT ( 'NONE',  ( 81.31860912882999060, 43.07812467423452318, 1.832904299438456341 ) ) ;
#587 = ORIENTED_EDGE ( 'NONE', *, *, #409, .F. ) ;
#588 = EDGE_CURVE ( 'NONE', #128, #828, #491, .T. ) ;
#589 =( NAMED_UNIT ( * ) PLANE_ANGLE_UNIT ( ) SI_UNIT ( $, .RADIAN. ) );
#590 = CARTESIAN_POINT ( 'NONE',  ( 100.8888687662047801, -16.82239290781934926, 2.757967727971978089 ) ) ;
#591 = ORIENTED_EDGE ( 'NONE', *, *, #302, .T. ) ;
#592 = DIRECTION ( 'NONE',  ( -0.3420201433256628287, -0.9396926207859104263, -0.000000000000000000 ) ) ;
#593 = CARTESIAN_POINT ( 'NONE',  ( 103.6131132015512577, -19.17657206310131102, 113.0000000000000000 ) ) ;
#594 = VECTOR ( 'NONE', #282, 1000.000000000000000 ) ;
#595 = VERTEX_POINT ( 'NONE', #1112 ) ;
#596 = EDGE_CURVE ( 'NONE', #208, #1087, #818, .T. ) ;
#597 = CYLINDRICAL_SURFACE ( 'NONE', #332, 1.499999999999990896 ) ;
#598 = CARTESIAN_POINT ( 'NONE',  ( 18.59779784051961116, 27.44210394604274228, -1.371604415045033344E-15 ) ) ;
#599 = DIRECTION ( 'NONE',  ( -0.000000000000000000, -0.000000000000000000, -1.000000000000000000 ) ) ;
#600 = VECTOR ( 'NONE', #79, 999.9999999999998863 ) ;
#601 = CLOSED_SHELL ( 'NONE', ( #784, #692, #538, #469, #562, #393, #572, #425, #851, #71, #1046, #503, #144, #253, #933, #167, #429, #936, #271, #668, #915, #353, #712, #1006, #31, #309, #1073, #543, #442 ) ) ;
#602 = ORIENTED_EDGE ( 'NONE', *, *, #949, .T. ) ;
#603 = EDGE_CURVE ( 'NONE', #678, #769, #1065, .T. ) ;
#604 = DIRECTION ( 'NONE',  ( -1.000000000000000000, 0.000000000000000000, 0.000000000000000000 ) ) ;
#605 = CARTESIAN_POINT ( 'NONE',  ( 20.09779784051960405, 27.44210394604274228, 0.000000000000000000 ) ) ;
#606 = DIRECTION ( 'NONE',  ( -0.9396926207859105373, 0.3420201433256628842, 0.000000000000000000 ) ) ;
#607 = CARTESIAN_POINT ( 'NONE',  ( 16.08362433661927327, 44.18939468785314517, 110.0000000000000000 ) ) ;
#608 = ORIENTED_EDGE ( 'NONE', *, *, #156, .F. ) ;
#609 = CARTESIAN_POINT ( 'NONE',  ( 81.81693265874123711, 43.28071658151993262, 0.7899461426728914271 ) ) ;
#610 = CARTESIAN_POINT ( 'NONE',  ( 26.06786753708761850, 39.11551291291374355, 3.000000000000016431 ) ) ;
#611 = EDGE_CURVE ( 'NONE', #595, #331, #970, .T. ) ;
#612 = AXIS2_PLACEMENT_3D ( 'NONE', #129, #583, #147 ) ;
#613 = ORIENTED_EDGE ( 'NONE', *, *, #976, .F. ) ;
#614 = VECTOR ( 'NONE', #206, 1000.000000000000000 ) ;
#615 = PRODUCT ( '零件2', '零件2', '', ( #204 ) ) ;
#616 = DIRECTION ( 'NONE',  ( -0.000000000000000000, -0.000000000000000000, -1.000000000000000000 ) ) ;
#617 = CARTESIAN_POINT ( 'NONE',  ( 3.564517285038907968, 1.022017551410872249, 3.000000000000016431 ) ) ;
#618 = DIRECTION ( 'NONE',  ( -0.000000000000000000, 0.000000000000000000, 1.000000000000000000 ) ) ;
#619 = EDGE_CURVE ( 'NONE', #708, #307, #197, .T. ) ;
#620 = ORIENTED_EDGE ( 'NONE', *, *, #907, .F. ) ;
#621 = CARTESIAN_POINT ( 'NONE',  ( 102.9146092772666918, -18.22761809843168024, 108.5756113920024291 ) ) ;
#622 = DIRECTION ( 'NONE',  ( 1.000000000000000000, 0.000000000000000000, -0.000000000000000000 ) ) ;
#623 = DIRECTION ( 'NONE',  ( 0.4580526612932596109, -0.8889250584172787573, 0.000000000000000000 ) ) ;
#624 = EDGE_CURVE ( 'NONE', #331, #595, #155, .T. ) ;
#625 = DIRECTION ( 'NONE',  ( 1.000000000000000000, 0.000000000000000000, 0.000000000000000000 ) ) ;
#626 = CARTESIAN_POINT ( 'NONE',  ( 80.80568566084046722, 42.87830083160722694, 107.6169663432132353 ) ) ;
#627 = ORIENTED_EDGE ( 'NONE', *, *, #477, .F. ) ;
#628 = DIRECTION ( 'NONE',  ( 0.000000000000000000, 0.000000000000000000, 1.000000000000000000 ) ) ;
#629 = VECTOR ( 'NONE', #975, 1000.000000000000000 ) ;
#630 = ORIENTED_EDGE ( 'NONE', *, *, #633, .T. ) ;
#631 = CARTESIAN_POINT ( 'NONE',  ( 68.23955059720827876, 85.55186188631924438, 107.0000000000000000 ) ) ;
#632 = AXIS2_PLACEMENT_3D ( 'NONE', #631, #364, #386 ) ;
#633 = EDGE_CURVE ( 'NONE', #276, #317, #473, .T. ) ;
#634 = LINE ( 'NONE', #928, #249 ) ;
#635 = DIRECTION ( 'NONE',  ( 0.9445550255868629952, 0.3283531690704395989, 0.000000000000000000 ) ) ;
#636 = LINE ( 'NONE', #999, #594 ) ;
#637 = FACE_BOUND ( 'NONE', #130, .T. ) ;
#638 =( LENGTH_UNIT ( ) NAMED_UNIT ( * ) SI_UNIT ( .MILLI., .METRE. ) );
#639 = SURFACE_STYLE_FILL_AREA ( #448 ) ;
#640 = DIRECTION ( 'NONE',  ( 0.1645901416730042033, -0.9863620457337459735, 0.000000000000000000 ) ) ;
#641 = ORIENTED_EDGE ( 'NONE', *, *, #699, .T. ) ;
#642 =( NAMED_UNIT ( * ) SI_UNIT ( $, .STERADIAN. ) SOLID_ANGLE_UNIT ( ) );
#643 = AXIS2_PLACEMENT_3D ( 'NONE', #435, #790, #527 ) ;
#644 = ORIENTED_EDGE ( 'NONE', *, *, #1093, .F. ) ;
#645 = VERTEX_POINT ( 'NONE', #388 ) ;
#646 = CARTESIAN_POINT ( 'NONE',  ( 113.2604427736006585, -17.56676220890260254, 110.0000000000000000 ) ) ;
#647 = ADVANCED_FACE ( 'NONE', ( #297 ), #64, .F. ) ;
#648 = CARTESIAN_POINT ( 'NONE',  ( 24.56786753708763626, 39.11551291291374355, 110.0000000000000000 ) ) ;
#649 = FACE_BOUND ( 'NONE', #348, .T. ) ;
#650 = ORIENTED_EDGE ( 'NONE', *, *, #699, .F. ) ;
#651 = VECTOR ( 'NONE', #203, 1000.000000000000000 ) ;
#652 = CARTESIAN_POINT ( 'NONE',  ( 81.20438846801769728, 43.03277109349306784, 108.0178191048277512 ) ) ;
#653 = MECHANICAL_DESIGN_GEOMETRIC_PRESENTATION_REPRESENTATION (  '', ( #1044 ), #392 ) ;
#654 =( BOUNDED_SURFACE ( )  B_SPLINE_SURFACE ( 3, 1, ( 
 ( #296, #831 ),
 ( #378, #1012 ),
 ( #991, #218 ),
 ( #817, #365 ) ),
 .UNSPECIFIED., .F., .F., .F. ) 
 B_SPLINE_SURFACE_WITH_KNOTS ( ( 4, 4 ),
 ( 2, 2 ),
 ( 0.000000000000000000, 1.000000000000000000 ),
 ( 0.000000000000000000, 1.000000000000000000 ),
 .UNSPECIFIED. ) 
 GEOMETRIC_REPRESENTATION_ITEM ( )  RATIONAL_B_SPLINE_SURFACE ( (
 ( 1.000000000000000000, 1.000000000000000000),
 ( 0.8474777908794453030, 0.8474777908794453030),
 ( 0.8474777908794453030, 0.8474777908794453030),
 ( 1.000000000000000000, 1.000000000000000000) ) ) 
 REPRESENTATION_ITEM ( '' )  SURFACE ( )  );
#655 = CARTESIAN_POINT ( 'NONE',  ( 16.08362433661927327, 44.18939468785314517, 1.647987302177966740E-14 ) ) ;
#656 = AXIS2_PLACEMENT_3D ( 'NONE', #119, #640, #278 ) ;
#657 = CARTESIAN_POINT ( 'NONE',  ( 72.33404356309286243, 64.90689142463848782, 107.0000000000000000 ) ) ;
#658 = B_SPLINE_CURVE_WITH_KNOTS ( 'NONE', 3,
 ( #279, #826, #109, #919, #905, #558, #30, #200, #652, #838, #626, #470, #15, #126, #24, #1090 ),
 .UNSPECIFIED., .F., .F.,
 ( 4, 2, 2, 2, 2, 2, 2, 4 ),
 ( 0.000000000000000000, 0.0005859066631883170584, 0.001171813326376634117, 0.001757719989564951284, 0.002343626652753268234, 0.002929533315941585184, 0.003515439979129902567, 0.004687253305506519988 ),
 .UNSPECIFIED. ) ;
#659 = ORIENTED_EDGE ( 'NONE', *, *, #907, .T. ) ;
#660 = DIRECTION ( 'NONE',  ( 1.000000000000000000, 0.000000000000000000, 0.000000000000000000 ) ) ;
#661 = DIRECTION ( 'NONE',  ( -1.000000000000000000, 0.000000000000000000, 0.000000000000000000 ) ) ;
#662 = CARTESIAN_POINT ( 'NONE',  ( 48.04365848832858887, 49.68656181841879516, 1.647987302177966740E-14 ) ) ;
#663 = ORIENTED_EDGE ( 'NONE', *, *, #526, .F. ) ;
#664 = CARTESIAN_POINT ( 'NONE',  ( 24.56786753708763626, 39.11551291291374355, 0.000000000000000000 ) ) ;
#665 = ORIENTED_EDGE ( 'NONE', *, *, #1127, .T. ) ;
#666 = ORIENTED_EDGE ( 'NONE', *, *, #362, .F. ) ;
#667 = ORIENTED_EDGE ( 'NONE', *, *, #362, .T. ) ;
#668 = ADVANCED_FACE ( 'NONE', ( #439 ), #180, .F. ) ;
#669 = CARTESIAN_POINT ( 'NONE',  ( 79.81223765692398331, 42.51724135396440829, 2.904448984645652931 ) ) ;
#670 = ORIENTED_EDGE ( 'NONE', *, *, #967, .T. ) ;
#671 = DIRECTION ( 'NONE',  ( -0.000000000000000000, 0.000000000000000000, 1.000000000000000000 ) ) ;
#672 = ORIENTED_EDGE ( 'NONE', *, *, #976, .T. ) ;
#673 = ADVANCED_FACE ( 'NONE', ( #115 ), #443, .T. ) ;
#674 = VERTEX_POINT ( 'NONE', #1056 ) ;
#675 = VECTOR ( 'NONE', #918, 1000.000000000000000 ) ;
#676 = CARTESIAN_POINT ( 'NONE',  ( 48.04365848832858887, 49.68656181841879516, 107.0000000000000000 ) ) ;
#677 = DIRECTION ( 'NONE',  ( -1.000000000000000000, 0.000000000000000000, 0.000000000000000000 ) ) ;
#678 = VERTEX_POINT ( 'NONE', #1050 ) ;
#679 = FACE_OUTER_BOUND ( 'NONE', #225, .T. ) ;
#680 = EDGE_LOOP ( 'NONE', ( #659, #9, #1092, #303 ) ) ;
#681 = PLANE ( 'NONE',  #461 ) ;
#682 = PRODUCT_DEFINITION_CONTEXT ( 'detailed design', #1086, 'design' ) ;
#683 = CARTESIAN_POINT ( 'NONE',  ( 79.07596521181359606, 42.27158388783376353, 107.0000000000000000 ) ) ;
#684 = EDGE_CURVE ( 'NONE', #874, #399, #1133, .T. ) ;
#685 = ORIENTED_EDGE ( 'NONE', *, *, #239, .T. ) ;
#686 = CARTESIAN_POINT ( 'NONE',  ( 103.2604427736006585, -18.12694235588972802, -19.18336509014821445 ) ) ;
#687 = CIRCLE ( 'NONE', #612, 1.499999999999984013 ) ;
#688 = CARTESIAN_POINT ( 'NONE',  ( 81.89047047221153264, 43.31172801060416333, 0.000000000000000000 ) ) ;
#689 = CARTESIAN_POINT ( 'NONE',  ( 0.000000000000000000, 0.000000000000000000, 112.9999999999999716 ) ) ;
#690 = ORIENTED_EDGE ( 'NONE', *, *, #286, .T. ) ;
#691 = DIRECTION ( 'NONE',  ( 0.9855281050433265522, 0.1695121062629740272, -0.000000000000000000 ) ) ;
#692 = ADVANCED_FACE ( 'NONE', ( #1062 ), #966, .F. ) ;
#693 = CARTESIAN_POINT ( 'NONE',  ( 24.56786753708763626, 39.11551291291374355, 110.0000000000000000 ) ) ;
#694 = VECTOR ( 'NONE', #1136, 1000.000000000000227 ) ;
#695 = AXIS2_PLACEMENT_3D ( 'NONE', #857, #423, #952 ) ;
#696 = VERTEX_POINT ( 'NONE', #610 ) ;
#697 = FACE_OUTER_BOUND ( 'NONE', #993, .T. ) ;
#698 = DIRECTION ( 'NONE',  ( -0.000000000000000000, -0.000000000000000000, 1.000000000000000000 ) ) ;
#699 = EDGE_CURVE ( 'NONE', #577, #561, #1095, .T. ) ;
#700 = UNCERTAINTY_MEASURE_WITH_UNIT (LENGTH_MEASURE( 1.000000000000000082E-05 ), #773, 'distance_accuracy_value', 'NONE');
#701 = CARTESIAN_POINT ( 'NONE',  ( 103.1427771663589965, -18.16119604301453450, 0.9844764930901830358 ) ) ;
#702 = AXIS2_PLACEMENT_3D ( 'NONE', #1110, #480, #391 ) ;
#703 = CIRCLE ( 'NONE', #957, 1.499999999999990896 ) ;
#704 = ORIENTED_EDGE ( 'NONE', *, *, #596, .T. ) ;
#705 = CARTESIAN_POINT ( 'NONE',  ( 102.5106264164761853, -17.80200569707591640, 108.1818737653418907 ) ) ;
#706 = LINE ( 'NONE', #805, #351 ) ;
#707 = EDGE_CURVE ( 'NONE', #1099, #247, #1052, .T. ) ;
#708 = VERTEX_POINT ( 'NONE', #963 ) ;
#709 =( NAMED_UNIT ( * ) SI_UNIT ( $, .STERADIAN. ) SOLID_ANGLE_UNIT ( ) );
#710 = CARTESIAN_POINT ( 'NONE',  ( 103.2604427736006585, -18.12694235588972802, 1.647987302177966740E-14 ) ) ;
#711 = CARTESIAN_POINT ( 'NONE',  ( 103.6131132015512577, -19.17657206310131102, 113.0000000000000000 ) ) ;
#712 = ADVANCED_FACE ( 'NONE', ( #974 ), #89, .T. ) ;
#713 = EDGE_CURVE ( 'NONE', #1104, #515, #917, .T. ) ;
#714 = EDGE_LOOP ( 'NONE', ( #641, #221 ) ) ;
#715 = SURFACE_SIDE_STYLE ('',( #639 ) ) ;
#716 = CARTESIAN_POINT ( 'NONE',  ( 102.9146092772667060, -18.22761809843168734, 3.000000000000016431 ) ) ;
#717 = CARTESIAN_POINT ( 'NONE',  ( 81.89047047221153264, 43.31172801060416333, -3.000000000000000000 ) ) ;
#718 = LINE ( 'NONE', #1085, #629 ) ;
#719 = ORIENTED_EDGE ( 'NONE', *, *, #822, .T. ) ;
#720 = DIRECTION ( 'NONE',  ( 0.9445550255868629952, 0.3283531690704395989, -0.000000000000000000 ) ) ;
#721 = AXIS2_PLACEMENT_3D ( 'NONE', #578, #416, #504 ) ;
#722 = DIRECTION ( 'NONE',  ( -0.9444967967061587144, -0.3285206249412738200, 0.000000000000000000 ) ) ;
#723 = PLANE ( 'NONE',  #656 ) ;
#724 = FACE_OUTER_BOUND ( 'NONE', #567, .T. ) ;
#725 = EDGE_LOOP ( 'NONE', ( #499, #921, #404, #283 ) ) ;
#726 = DIRECTION ( 'NONE',  ( -1.000000000000000000, 0.000000000000000000, 0.000000000000000000 ) ) ;
#727 = DIRECTION ( 'NONE',  ( 1.000000000000000000, 0.000000000000000000, -0.000000000000000000 ) ) ;
#728 = EDGE_LOOP ( 'NONE', ( #220, #667, #585, #602 ) ) ;
#729 = EDGE_CURVE ( 'NONE', #645, #595, #706, .T. ) ;
#730 = ORIENTED_EDGE ( 'NONE', *, *, #949, .F. ) ;
#731 = ORIENTED_EDGE ( 'NONE', *, *, #853, .F. ) ;
#732 = CARTESIAN_POINT ( 'NONE',  ( 68.23955059720827876, 85.55186188631924438, 1.647987302177966740E-14 ) ) ;
#733 = PRESENTATION_STYLE_ASSIGNMENT (( #465 ) ) ;
#734 = AXIS2_PLACEMENT_3D ( 'NONE', #350, #346, #622 ) ;
#735 = ORIENTED_EDGE ( 'NONE', *, *, #844, .F. ) ;
#736 = FACE_OUTER_BOUND ( 'NONE', #217, .T. ) ;
#737 = DIRECTION ( 'NONE',  ( -0.000000000000000000, -0.000000000000000000, -1.000000000000000000 ) ) ;
#738 = CARTESIAN_POINT ( 'NONE',  ( 26.06786753708761850, 39.11551291291374355, 0.000000000000000000 ) ) ;
#739 = CIRCLE ( 'NONE', #1125, 1.499999999999990896 ) ;
#740 = EDGE_CURVE ( 'NONE', #317, #134, #357, .T. ) ;
#741 = LINE ( 'NONE', #1091, #584 ) ;
#742 = EDGE_LOOP ( 'NONE', ( #757, #149, #384, #929 ) ) ;
#743 = CYLINDRICAL_SURFACE ( 'NONE', #702, 3.000000000000003109 ) ;
#744 = ORIENTED_EDGE ( 'NONE', *, *, #619, .T. ) ;
#745 = CIRCLE ( 'NONE', #819, 1.499999999999987566 ) ;
#746 = LINE ( 'NONE', #194, #675 ) ;
#747 = AXIS2_PLACEMENT_3D ( 'NONE', #872, #4, #984 ) ;
#748 = ORIENTED_EDGE ( 'NONE', *, *, #965, .T. ) ;
#749 = FILL_AREA_STYLE ('',( #285 ) ) ;
#750 = ORIENTED_EDGE ( 'NONE', *, *, #729, .F. ) ;
#751 = LINE ( 'NONE', #852, #1094 ) ;
#752 = EDGE_CURVE ( 'NONE', #174, #1059, #906, .T. ) ;
#753 = DIRECTION ( 'NONE',  ( -0.000000000000000000, -0.000000000000000000, -1.000000000000000000 ) ) ;
#754 = DIRECTION ( 'NONE',  ( -1.000000000000000000, 0.000000000000000000, 0.000000000000000000 ) ) ;
#755 = ORIENTED_EDGE ( 'NONE', *, *, #1048, .T. ) ;
#756 = DIRECTION ( 'NONE',  ( 1.000000000000000000, 0.000000000000000000, 0.000000000000000000 ) ) ;
#757 = ORIENTED_EDGE ( 'NONE', *, *, #156, .T. ) ;
#758 = CARTESIAN_POINT ( 'NONE',  ( 103.1427771663589965, -18.16119604301454871, 109.0155235069098296 ) ) ;
#759 = ORIENTED_EDGE ( 'NONE', *, *, #182, .F. ) ;
#760 = CARTESIAN_POINT ( 'NONE',  ( 103.2604427736006869, -18.12694235588972802, 1.647987302177966740E-14 ) ) ;
#761 = EDGE_CURVE ( 'NONE', #854, #828, #433, .T. ) ;
#762 = FACE_OUTER_BOUND ( 'NONE', #565, .T. ) ;
#763 = EDGE_CURVE ( 'NONE', #307, #174, #114, .T. ) ;
#764 = ORIENTED_EDGE ( 'NONE', *, *, #83, .T. ) ;
#765 = CARTESIAN_POINT ( 'NONE',  ( 48.04365848832858887, 49.68656181841879516, 110.0000000000000000 ) ) ;
#766 = EDGE_LOOP ( 'NONE', ( #121, #137, #930, #764 ) ) ;
#767 = CARTESIAN_POINT ( 'NONE',  ( 82.10996971965839464, 43.40442457680531163, 1.605124501849061086E-16 ) ) ;
#768 = LINE ( 'NONE', #834, #7 ) ;
#769 = VERTEX_POINT ( 'NONE', #184 ) ;
#770 = DIRECTION ( 'NONE',  ( 0.3283531690704394879, -0.9445550255868629952, 0.000000000000000000 ) ) ;
#771 = AXIS2_PLACEMENT_3D ( 'NONE', #529, #82, #890 ) ;
#772 = CARTESIAN_POINT ( 'NONE',  ( 68.77673899611184538, 37.72086000238967785, 1.605124501849061333E-16 ) ) ;
#773 =( LENGTH_UNIT ( ) NAMED_UNIT ( * ) SI_UNIT ( .MILLI., .METRE. ) );
#774 = EDGE_LOOP ( 'NONE', ( #226, #494, #832, #977 ) ) ;
#775 = CARTESIAN_POINT ( 'NONE',  ( 80.33390164158032576, 42.70264796957808073, 2.696376004219032119 ) ) ;
#776 = CARTESIAN_POINT ( 'NONE',  ( 81.89047047221153264, 43.31172801060416333, -3.000000000000000000 ) ) ;
#777 = EDGE_CURVE ( 'NONE', #1011, #854, #534, .T. ) ;
#778 = VERTEX_POINT ( 'NONE', #792 ) ;
#779 = CARTESIAN_POINT ( 'NONE',  ( 21.59779784051958629, 27.44210394604274228, 3.000000000000016431 ) ) ;
#780 = EDGE_CURVE ( 'NONE', #678, #128, #809, .T. ) ;
#781 = PLANE ( 'NONE',  #487 ) ;
#782 = CARTESIAN_POINT ( 'NONE',  ( 16.08362433661927327, 44.18939468785314517, 110.0000000000000000 ) ) ;
#783 = DIRECTION ( 'NONE',  ( -0.9601434275155112941, -0.2795077791381950783, 0.000000000000000000 ) ) ;
#784 = ADVANCED_FACE ( 'NONE', ( #1066 ), #896, .F. ) ;
#785 = CARTESIAN_POINT ( 'NONE',  ( 24.56786753708763626, 39.11551291291374355, 3.000000000000016431 ) ) ;
#786 = UNCERTAINTY_MEASURE_WITH_UNIT (LENGTH_MEASURE( 1.000000000000000082E-05 ), #813, 'distance_accuracy_value', 'NONE');
#787 = CARTESIAN_POINT ( 'NONE',  ( 24.56786753708763626, 39.11551291291374355, 0.000000000000000000 ) ) ;
#788 = PRODUCT_DEFINITION ( '未知', '', #257, #682 ) ;
#789 = EDGE_LOOP ( 'NONE', ( #690, #379, #858, #909 ) ) ;
#790 = DIRECTION ( 'NONE',  ( -0.8889250584172787573, -0.4580526612932596664, 0.000000000000000000 ) ) ;
#791 = CARTESIAN_POINT ( 'NONE',  ( 48.04365848832858887, 49.68656181841879516, 107.0000000000000000 ) ) ;
#792 = CARTESIAN_POINT ( 'NONE',  ( 0.000000000000000000, 0.000000000000000000, 1.647987302177966740E-14 ) ) ;
#793 = AXIS2_PLACEMENT_3D ( 'NONE', #904, #108, #454 ) ;
#794 = VECTOR ( 'NONE', #410, 1000.000000000000114 ) ;
#795 = ORIENTED_EDGE ( 'NONE', *, *, #1017, .F. ) ;
#796 = LINE ( 'NONE', #80, #481 ) ;
#797 = CARTESIAN_POINT ( 'NONE',  ( 20.09779784051960405, 27.44210394604274228, 110.0000000000000000 ) ) ;
#798 = DIRECTION ( 'NONE',  ( -0.000000000000000000, -0.000000000000000000, -1.000000000000000000 ) ) ;
#799 = EDGE_CURVE ( 'NONE', #828, #399, #876, .T. ) ;
#800 = VECTOR ( 'NONE', #840, 1000.000000000000000 ) ;
#801 = VECTOR ( 'NONE', #270, 1000.000000000000000 ) ;
#802 = ORIENTED_EDGE ( 'NONE', *, *, #497, .T. ) ;
#803 =( LENGTH_UNIT ( ) NAMED_UNIT ( * ) SI_UNIT ( .MILLI., .METRE. ) );
#804 = CARTESIAN_POINT ( 'NONE',  ( 97.75698220773776370, -16.70700446927739335, 107.0000000000000000 ) ) ;
#805 = CARTESIAN_POINT ( 'NONE',  ( 18.59779784051961116, 27.44210394604274228, 107.0000000000000000 ) ) ;
#806 = EDGE_CURVE ( 'NONE', #696, #850, #288, .T. ) ;
#807 = PLANE ( 'NONE',  #956 ) ;
#808 = DIRECTION ( 'NONE',  ( -0.9863620457337458625, -0.1645901416730049249, 0.000000000000000000 ) ) ;
#809 =( BOUNDED_CURVE ( )  B_SPLINE_CURVE ( 3, ( #347, #701, #95, #710 ),
 .UNSPECIFIED., .F., .F. ) 
 B_SPLINE_CURVE_WITH_KNOTS ( ( 4, 4 ),
 ( 2.646860199019258619, 3.141592653589793116 ),
 .UNSPECIFIED. ) 
 CURVE ( )  GEOMETRIC_REPRESENTATION_ITEM ( )  RATIONAL_B_SPLINE_CURVE ( ( 1.000000000000000000, 0.9797071108005390716, 0.9797071108005390716, 1.000000000000000000 ) ) 
 REPRESENTATION_ITEM ( '' )  );
#810 = PRESENTATION_STYLE_ASSIGNMENT (( #996 ) ) ;
#811 = CARTESIAN_POINT ( 'NONE',  ( 103.6131132015512577, -19.17657206310131102, -3.000000000000000000 ) ) ;
#812 = EDGE_LOOP ( 'NONE', ( #511, #550, #26 ) ) ;
#813 =( LENGTH_UNIT ( ) NAMED_UNIT ( * ) SI_UNIT ( .MILLI., .METRE. ) );
#814 = ORIENTED_EDGE ( 'NONE', *, *, #103, .F. ) ;
#815 = FACE_OUTER_BOUND ( 'NONE', #344, .T. ) ;
#816 = FACE_OUTER_BOUND ( 'NONE', #1014, .T. ) ;
#817 = CARTESIAN_POINT ( 'NONE',  ( 48.04365848832858887, 49.68656181841879516, 107.0000000000000000 ) ) ;
#818 = CIRCLE ( 'NONE', #320, 1.499999999999990896 ) ;
#819 = AXIS2_PLACEMENT_3D ( 'NONE', #304, #541, #661 ) ;
#820 = ORIENTED_EDGE ( 'NONE', *, *, #611, .F. ) ;
#821 = MECHANICAL_DESIGN_GEOMETRIC_PRESENTATION_REPRESENTATION (  '', ( #523 ), #280 ) ;
#822 = EDGE_CURVE ( 'NONE', #21, #1039, #173, .T. ) ;
#823 = DIRECTION ( 'NONE',  ( -0.000000000000000000, -0.000000000000000000, -1.000000000000000000 ) ) ;
#824 = LINE ( 'NONE', #1089, #614 ) ;
#825 = VECTOR ( 'NONE', #737, 1000.000000000000000 ) ;
#826 = CARTESIAN_POINT ( 'NONE',  ( 81.89047047221151843, 43.31172801060418465, 109.8018817386685271 ) ) ;
#827 = ORIENTED_EDGE ( 'NONE', *, *, #1017, .T. ) ;
#828 = VERTEX_POINT ( 'NONE', #551 ) ;
#829 = ORIENTED_EDGE ( 'NONE', *, *, #763, .T. ) ;
#830 = DIRECTION ( 'NONE',  ( 0.000000000000000000, 0.000000000000000000, 1.000000000000000000 ) ) ;
#831 = CARTESIAN_POINT ( 'NONE',  ( 82.10996316746535229, 43.40442473503048859, 110.0000000000000000 ) ) ;
#832 = ORIENTED_EDGE ( 'NONE', *, *, #997, .T. ) ;
#833 = ORIENTED_EDGE ( 'NONE', *, *, #141, .F. ) ;
#834 = CARTESIAN_POINT ( 'NONE',  ( 48.04365848832858887, 49.68656181841879516, 107.0000000000000000 ) ) ;
#835 = ORIENTED_EDGE ( 'NONE', *, *, #763, .F. ) ;
#836 = DIRECTION ( 'NONE',  ( -1.000000000000000000, 0.000000000000000000, 0.000000000000000000 ) ) ;
#837 = CARTESIAN_POINT ( 'NONE',  ( 68.23955059720827876, 85.55186188631924438, 110.0000000000000000 ) ) ;
#838 = CARTESIAN_POINT ( 'NONE',  ( 80.94661236705562146, 42.93234554717967910, 107.7411488538182454 ) ) ;
#839 = AXIS2_PLACEMENT_3D ( 'NONE', #785, #1132, #1051 ) ;
#840 = DIRECTION ( 'NONE',  ( -0.000000000000000000, -0.000000000000000000, -1.000000000000000000 ) ) ;
#841 = VERTEX_POINT ( 'NONE', #1001 ) ;
#842 = DIRECTION ( 'NONE',  ( -0.000000000000000000, -0.000000000000000000, -1.000000000000000000 ) ) ;
#843 = ORIENTED_EDGE ( 'NONE', *, *, #611, .T. ) ;
#844 = EDGE_CURVE ( 'NONE', #955, #708, #658, .T. ) ;
#845 = CARTESIAN_POINT ( 'NONE',  ( 71.32490353847431663, 64.55588619868420608, 110.0000000000000000 ) ) ;
#846 = CYLINDRICAL_SURFACE ( 'NONE', #632, 109.4338034517890321 ) ;
#847 = ORIENTED_EDGE ( 'NONE', *, *, #780, .T. ) ;
#848 = AXIS2_PLACEMENT_3D ( 'NONE', #868, #900, #101 ) ;
#849 = DIRECTION ( 'NONE',  ( -0.000000000000000000, -0.000000000000000000, -1.000000000000000000 ) ) ;
#850 = VERTEX_POINT ( 'NONE', #902 ) ;
#851 = ADVANCED_FACE ( 'NONE', ( #724 ), #654, .T. ) ;
#852 = CARTESIAN_POINT ( 'NONE',  ( 103.6131132015512577, -19.17657206310131102, 113.0000000000000000 ) ) ;
#853 = EDGE_CURVE ( 'NONE', #12, #955, #634, .T. ) ;
#854 = VERTEX_POINT ( 'NONE', #360 ) ;
#855 = CARTESIAN_POINT ( 'NONE',  ( 102.9146092772667060, -18.22761809843169090, 1.424388607997585598 ) ) ;
#856 = EDGE_LOOP ( 'NONE', ( #310, #759, #187, #843 ) ) ;
#857 = CARTESIAN_POINT ( 'NONE',  ( 24.56786753708763626, 39.11551291291374355, -1.371604415045033344E-15 ) ) ;
#858 = ORIENTED_EDGE ( 'NONE', *, *, #339, .F. ) ;
#859 = CARTESIAN_POINT ( 'NONE',  ( 0.000000000000000000, 0.000000000000000000, 109.9999999999999716 ) ) ;
#860 = SURFACE_STYLE_FILL_AREA ( #413 ) ;
#861 = ORIENTED_EDGE ( 'NONE', *, *, #992, .T. ) ;
#862 = CARTESIAN_POINT ( 'NONE',  ( 77.88767296843960253, 54.81977083394850325, 1.647987302177966740E-14 ) ) ;
#863 = CIRCLE ( 'NONE', #695, 1.499999999999990896 ) ;
#864 = VERTEX_POINT ( 'NONE', #717 ) ;
#865 = EDGE_CURVE ( 'NONE', #955, #324, #1078, .T. ) ;
#866 = DIRECTION ( 'NONE',  ( -0.000000000000000000, -0.000000000000000000, -1.000000000000000000 ) ) ;
#867 = VECTOR ( 'NONE', #421, 1000.000000000000000 ) ;
#868 = CARTESIAN_POINT ( 'NONE',  ( 20.09779784051960405, 27.44210394604274228, 107.0000000000000000 ) ) ;
#869 = DIRECTION ( 'NONE',  ( 0.9863620457337458625, 0.1645901416730049249, 0.000000000000000000 ) ) ;
#870 = ORIENTED_EDGE ( 'NONE', *, *, #50, .T. ) ;
#871 = DIRECTION ( 'NONE',  ( -0.3420201433256628287, -0.9396926207859105373, 0.000000000000000000 ) ) ;
#872 = CARTESIAN_POINT ( 'NONE',  ( 68.23955059720827876, 85.55186188631924438, 3.000000000000016431 ) ) ;
#873 = LINE ( 'NONE', #593, #68 ) ;
#874 = VERTEX_POINT ( 'NONE', #195 ) ;
#875 = CARTESIAN_POINT ( 'NONE',  ( 77.88767296843960253, 54.81977083394850325, 3.000000000000016431 ) ) ;
#876 = LINE ( 'NONE', #1130, #301 ) ;
#877 = B_SPLINE_CURVE_WITH_KNOTS ( 'NONE', 3,
 ( #506, #313, #418, #669, #935, #775, #325, #580, #139, #54, #586, #1036, #440, #609, #337, #688 ),
 .UNSPECIFIED., .F., .F.,
 ( 4, 2, 2, 2, 2, 2, 2, 4 ),
 ( 0.000000000000000000, 0.0005859078431091276377, 0.001171815686218255275, 0.001757723529327383022, 0.002343631372436510551, 0.002929539215545638297, 0.003515447058654766043, 0.004687262744873008959 ),
 .UNSPECIFIED. ) ;
#878 = CARTESIAN_POINT ( 'NONE',  ( 0.000000000000000000, 0.000000000000000000, 0.000000000000000000 ) ) ;
#879 = MANIFOLD_SOLID_BREP ( '凸台-拉伸5', #510 ) ;
#880 = DIRECTION ( 'NONE',  ( -0.9863620457337459735, -0.1645901416730042033, 0.000000000000000000 ) ) ;
#881 = VECTOR ( 'NONE', #243, 1000.000000000000000 ) ;
#882 = CARTESIAN_POINT ( 'NONE',  ( 103.6131132015512577, -19.17657206310131102, 0.000000000000000000 ) ) ;
#883 = COLOUR_RGB ( '',0.7921568627450980005, 0.8196078431372548767, 0.9333333333333333481 ) ;
#884 = PLANE ( 'NONE',  #382 ) ;
#885 = UNCERTAINTY_MEASURE_WITH_UNIT (LENGTH_MEASURE( 1.000000000000000082E-05 ), #638, 'distance_accuracy_value', 'NONE');
#886 = CARTESIAN_POINT ( 'NONE',  ( 81.89047047221153264, 43.31172801060416333, 110.0000000000000000 ) ) ;
#887 = DIRECTION ( 'NONE',  ( 1.000000000000000000, 0.000000000000000000, 0.000000000000000000 ) ) ;
#888 = CARTESIAN_POINT ( 'NONE',  ( 100.8888687662047658, -16.82239290781934216, 107.2420322720280268 ) ) ;
#889 = CARTESIAN_POINT ( 'NONE',  ( 81.89047047221153264, 43.31172801060416333, 113.0000000000000000 ) ) ;
#890 = DIRECTION ( 'NONE',  ( 1.000000000000000000, 0.000000000000000000, 0.000000000000000000 ) ) ;
#891 =( GEOMETRIC_REPRESENTATION_CONTEXT ( 3 ) GLOBAL_UNCERTAINTY_ASSIGNED_CONTEXT ( ( #264 ) ) GLOBAL_UNIT_ASSIGNED_CONTEXT ( ( #803, #355, #709 ) ) REPRESENTATION_CONTEXT ( 'NONE', 'WORKASPACE' ) );
#892 = ORIENTED_EDGE ( 'NONE', *, *, #544, .T. ) ;
#893 = LINE ( 'NONE', #93, #552 ) ;
#894 = CARTESIAN_POINT ( 'NONE',  ( 0.000000000000000000, 0.000000000000000000, 110.0000000000000000 ) ) ;
#895 = EDGE_CURVE ( 'NONE', #193, #306, #703, .T. ) ;
#896 = CYLINDRICAL_SURFACE ( 'NONE', #559, 1.499999999999984013 ) ;
#897 = CIRCLE ( 'NONE', #747, 106.4338034517890463 ) ;
#898 = AXIS2_PLACEMENT_3D ( 'NONE', #1097, #849, #242 ) ;
#899 = ORIENTED_EDGE ( 'NONE', *, *, #5, .T. ) ;
#900 = DIRECTION ( 'NONE',  ( -0.000000000000000000, -0.000000000000000000, -1.000000000000000000 ) ) ;
#901 = EDGE_CURVE ( 'NONE', #841, #874, #1116, .T. ) ;
#902 = CARTESIAN_POINT ( 'NONE',  ( 26.06786753708762561, 39.11551291291374355, -1.371604415045033344E-15 ) ) ;
#903 = DIRECTION ( 'NONE',  ( -0.000000000000000000, -0.000000000000000000, 1.000000000000000000 ) ) ;
#904 = CARTESIAN_POINT ( 'NONE',  ( 68.23955059720827876, 85.55186188631924438, 107.0000000000000000 ) ) ;
#905 = CARTESIAN_POINT ( 'NONE',  ( 81.74880181507481325, 43.25273070836763623, 109.0334204017087245 ) ) ;
#906 = B_SPLINE_CURVE_WITH_KNOTS ( 'NONE', 3,
 ( #86, #166, #969, #521 ),
 .UNSPECIFIED., .F., .F.,
 ( 4, 4 ),
 ( 0.000000000000000000, 1.000000000000000000 ),
 .UNSPECIFIED. ) ;
#907 = EDGE_CURVE ( 'NONE', #371, #472, #398, .T. ) ;
#908 =( GEOMETRIC_REPRESENTATION_CONTEXT ( 3 ) GLOBAL_UNCERTAINTY_ASSIGNED_CONTEXT ( ( #786 ) ) GLOBAL_UNIT_ASSIGNED_CONTEXT ( ( #813, #13, #988 ) ) REPRESENTATION_CONTEXT ( 'NONE', 'WORKASPACE' ) );
#909 = ORIENTED_EDGE ( 'NONE', *, *, #780, .F. ) ;
#910 = CARTESIAN_POINT ( 'NONE',  ( 113.2604427736006585, -17.56676220890260254, 113.0000000000000000 ) ) ;
#911 = DIRECTION ( 'NONE',  ( -0.000000000000000000, -0.000000000000000000, -1.000000000000000000 ) ) ;
#912 = ORIENTED_EDGE ( 'NONE', *, *, #1058, .F. ) ;
#913 = EDGE_LOOP ( 'NONE', ( #795, #666 ) ) ;
#914 = CARTESIAN_POINT ( 'NONE',  ( 48.04365848832858887, 49.68656181841879516, 1.647987302177966740E-14 ) ) ;
#915 = ADVANCED_FACE ( 'NONE', ( #63 ), #1033, .F. ) ;
#916 = AXIS2_PLACEMENT_3D ( 'NONE', #34, #381, #42 ) ;
#917 = CIRCLE ( 'NONE', #771, 1.499999999999984013 ) ;
#918 = DIRECTION ( 'NONE',  ( -0.4580526612932596109, 0.8889250584172787573, -0.000000000000000000 ) ) ;
#919 = CARTESIAN_POINT ( 'NONE',  ( 81.80210817214678798, 43.27487739729206595, 109.2238434579676039 ) ) ;
#920 = ORIENTED_EDGE ( 'NONE', *, *, #182, .T. ) ;
#921 = ORIENTED_EDGE ( 'NONE', *, *, #633, .F. ) ;
#922 = ORIENTED_EDGE ( 'NONE', *, *, #97, .T. ) ;
#923 = DIRECTION ( 'NONE',  ( -0.3285206249412725987, 0.9444967967061590475, 0.000000000000000000 ) ) ;
#924 = ORIENTED_EDGE ( 'NONE', *, *, #58, .T. ) ;
#925 = CARTESIAN_POINT ( 'NONE',  ( 0.000000000000000000, 0.000000000000000000, -3.000000000000000000 ) ) ;
#926 = DIRECTION ( 'NONE',  ( -1.000000000000000000, 0.000000000000000000, 0.000000000000000000 ) ) ;
#927 = EDGE_CURVE ( 'NONE', #191, #472, #236, .T. ) ;
#928 = CARTESIAN_POINT ( 'NONE',  ( 103.2604427736006869, -18.12694235588972802, 110.0000000000000000 ) ) ;
#929 = ORIENTED_EDGE ( 'NONE', *, *, #927, .T. ) ;
#930 = ORIENTED_EDGE ( 'NONE', *, *, #5, .F. ) ;
#931 = DIRECTION ( 'NONE',  ( -0.000000000000000000, -0.000000000000000000, -1.000000000000000000 ) ) ;
#932 = DIRECTION ( 'NONE',  ( 0.000000000000000000, 0.000000000000000000, 1.000000000000000000 ) ) ;
#933 = ADVANCED_FACE ( 'NONE', ( #329 ), #681, .F. ) ;
#934 = ORIENTED_EDGE ( 'NONE', *, *, #1093, .T. ) ;
#935 = CARTESIAN_POINT ( 'NONE',  ( 79.99202593928522731, 42.58014453200304672, 2.846812240220752521 ) ) ;
#936 = ADVANCED_FACE ( 'NONE', ( #679 ), #597, .F. ) ;
#937 = ORIENTED_EDGE ( 'NONE', *, *, #451, .F. ) ;
#938 = CARTESIAN_POINT ( 'NONE',  ( 19.48936865828507692, 44.77518710757652087, 107.0000000000000000 ) ) ;
#939 = ORIENTED_EDGE ( 'NONE', *, *, #962, .T. ) ;
#940 = ORIENTED_EDGE ( 'NONE', *, *, #202, .T. ) ;
#941 = AXIS2_PLACEMENT_3D ( 'NONE', #467, #311, #1080 ) ;
#942 = CARTESIAN_POINT ( 'NONE',  ( 55.32687742377079587, 40.25842125447601916, 1.647987302177966740E-14 ) ) ;
#943 = ORIENTED_EDGE ( 'NONE', *, *, #189, .T. ) ;
#944 = CARTESIAN_POINT ( 'NONE',  ( 21.59779784051959339, 27.44210394604274228, 107.0000000000000000 ) ) ;
#945 = DIRECTION ( 'NONE',  ( 1.000000000000000000, 0.000000000000000000, -0.000000000000000000 ) ) ;
#946 = ORIENTED_EDGE ( 'NONE', *, *, #58, .F. ) ;
#947 = CARTESIAN_POINT ( 'NONE',  ( 3.564517285038907968, 1.022017551410872249, 3.000000000000016431 ) ) ;
#948 = DIRECTION ( 'NONE',  ( 0.000000000000000000, 0.000000000000000000, 1.000000000000000000 ) ) ;
#949 = EDGE_CURVE ( 'NONE', #466, #850, #863, .T. ) ;
#950 = CARTESIAN_POINT ( 'NONE',  ( 100.2299392967432254, -16.61805043097609058, 2.947200923199245093 ) ) ;
#951 = ORIENTED_EDGE ( 'NONE', *, *, #83, .F. ) ;
#952 = DIRECTION ( 'NONE',  ( -1.000000000000000000, 0.000000000000000000, 0.000000000000000000 ) ) ;
#953 = AXIS2_PLACEMENT_3D ( 'NONE', #978, #720, #1079 ) ;
#954 = DIRECTION ( 'NONE',  ( -0.000000000000000000, -0.000000000000000000, -1.000000000000000000 ) ) ;
#955 = VERTEX_POINT ( 'NONE', #47 ) ;
#956 = AXIS2_PLACEMENT_3D ( 'NONE', #811, #635, #16 ) ;
#957 = AXIS2_PLACEMENT_3D ( 'NONE', #985, #866, #484 ) ;
#958 = CARTESIAN_POINT ( 'NONE',  ( 99.52716197701494139, -16.52560681212014160, 107.0000000000000000 ) ) ;
#959 = FACE_OUTER_BOUND ( 'NONE', #402, .T. ) ;
#960 = EDGE_LOOP ( 'NONE', ( #665, #92, #627, #989 ) ) ;
#961 = DIRECTION ( 'NONE',  ( -0.9984346740684180155, -0.05593032824766881739, -0.000000000000000000 ) ) ;
#962 = EDGE_CURVE ( 'NONE', #12, #674, #334, .T. ) ;
#963 = CARTESIAN_POINT ( 'NONE',  ( 79.07596521181359606, 42.27158388783376353, 107.0000000000000000 ) ) ;
#964 = CARTESIAN_POINT ( 'NONE',  ( 97.75698220773776370, -16.70700446927739335, 3.000000000000016431 ) ) ;
#965 = EDGE_CURVE ( 'NONE', #2, #312, #1020, .T. ) ;
#966 = CYLINDRICAL_SURFACE ( 'NONE', #98, 1.499999999999984013 ) ;
#967 = EDGE_CURVE ( 'NONE', #324, #1099, #157, .T. ) ;
#968 = DIRECTION ( 'NONE',  ( -0.9984346740684180155, -0.05593032824766882433, 0.000000000000000000 ) ) ;
#969 = CARTESIAN_POINT ( 'NONE',  ( 97.75698220773774949, -16.70700446927740757, 37.66666666666667140 ) ) ;
#970 = CIRCLE ( 'NONE', #261, 1.499999999999990896 ) ;
#971 = VECTOR ( 'NONE', #500, 1000.000000000000000 ) ;
#972 = CARTESIAN_POINT ( 'NONE',  ( 100.7277816462164708, -16.76530555804732714, 107.1878343283137838 ) ) ;
#973 = CARTESIAN_POINT ( 'NONE',  ( 21.59779784051959339, 27.44210394604274228, -1.371604415045033344E-15 ) ) ;
#974 = FACE_OUTER_BOUND ( 'NONE', #789, .T. ) ;
#975 = DIRECTION ( 'NONE',  ( 0.000000000000000000, 0.000000000000000000, 1.000000000000000000 ) ) ;
#976 = EDGE_CURVE ( 'NONE', #312, #854, #213, .T. ) ;
#977 = ORIENTED_EDGE ( 'NONE', *, *, #104, .T. ) ;
#978 = CARTESIAN_POINT ( 'NONE',  ( 81.89047047221153264, 43.31172801060416333, 113.0000000000000000 ) ) ;
#979 = DIRECTION ( 'NONE',  ( -0.000000000000000000, -0.000000000000000000, -1.000000000000000000 ) ) ;
#980 = CARTESIAN_POINT ( 'NONE',  ( 99.14363901475020668, -21.51087612655197390, 107.0000000000000000 ) ) ;
#981 = VECTOR ( 'NONE', #923, 1000.000000000000000 ) ;
#982 = EDGE_CURVE ( 'NONE', #276, #1002, #151, .T. ) ;
#983 = ORIENTED_EDGE ( 'NONE', *, *, #340, .T. ) ;
#984 = DIRECTION ( 'NONE',  ( -1.000000000000000000, 0.000000000000000000, 0.000000000000000000 ) ) ;
#985 = CARTESIAN_POINT ( 'NONE',  ( 20.09779784051960405, 27.44210394604274228, -1.371604415045033344E-15 ) ) ;
#986 = AXIS2_PLACEMENT_3D ( 'NONE', #319, #954, #251 ) ;
#987 = ORIENTED_EDGE ( 'NONE', *, *, #1069, .T. ) ;
#988 =( NAMED_UNIT ( * ) SI_UNIT ( $, .STERADIAN. ) SOLID_ANGLE_UNIT ( ) );
#989 = ORIENTED_EDGE ( 'NONE', *, *, #409, .T. ) ;
#990 = CARTESIAN_POINT ( 'NONE',  ( 113.2604427736006585, -17.56676220890260254, -3.000000000000000000 ) ) ;
#991 = CARTESIAN_POINT ( 'NONE',  ( 55.37761015474848136, 40.19157978882878268, 107.0000000000000000 ) ) ;
#992 = EDGE_CURVE ( 'NONE', #1039, #854, #877, .T. ) ;
#993 = EDGE_LOOP ( 'NONE', ( #1131, #492, #100, #924 ) ) ;
#994 = DIRECTION ( 'NONE',  ( -0.1695121062629740549, 0.9855281050433266632, 0.000000000000000000 ) ) ;
#995 = CARTESIAN_POINT ( 'NONE',  ( 0.000000000000000000, 0.000000000000000000, 107.0000000000000000 ) ) ;
#996 = SURFACE_STYLE_USAGE ( .BOTH. , #102 ) ;
#997 = EDGE_CURVE ( 'NONE', #515, #306, #796, .T. ) ;
#998 = STYLED_ITEM ( 'NONE', ( #733 ), #412 ) ;
#999 = CARTESIAN_POINT ( 'NONE',  ( 103.6131132015512577, -19.17657206310131102, 110.0000000000000000 ) ) ;
#1000 = PLANE ( 'NONE',  #1010 ) ;
#1001 = CARTESIAN_POINT ( 'NONE',  ( 94.33869953922484797, -20.72415498685507629, 1.647987302177966740E-14 ) ) ;
#1002 = VERTEX_POINT ( 'NONE', #1049 ) ;
#1003 = ORIENTED_EDGE ( 'NONE', *, *, #116, .F. ) ;
#1004 = FACE_BOUND ( 'NONE', #1032, .T. ) ;
#1005 = AXIS2_PLACEMENT_3D ( 'NONE', #38, #385, #660 ) ;
#1006 = ADVANCED_FACE ( 'NONE', ( #432 ), #169, .T. ) ;
#1007 = COLOUR_RGB ( '',0.7921568627450980005, 0.8196078431372548767, 0.9333333333333333481 ) ;
#1008 = CARTESIAN_POINT ( 'NONE',  ( 20.09779784051960405, 27.44210394604274228, 107.0000000000000000 ) ) ;
#1009 = LINE ( 'NONE', #110, #463 ) ;
#1010 = AXIS2_PLACEMENT_3D ( 'NONE', #459, #468, #199 ) ;
#1011 = VERTEX_POINT ( 'NONE', #1041 ) ;
#1012 = CARTESIAN_POINT ( 'NONE',  ( 68.77670452070445606, 37.72066466043384025, 109.9999999999999858 ) ) ;
#1013 = LINE ( 'NONE', #219, #99 ) ;
#1014 = EDGE_LOOP ( 'NONE', ( #259, #314, #231, #290, #943, #73 ) ) ;
#1015 = FACE_OUTER_BOUND ( 'NONE', #1028, .T. ) ;
#1016 = DIRECTION ( 'NONE',  ( 0.9984346740684180155, 0.05593032824766882433, 0.000000000000000000 ) ) ;
#1017 = EDGE_CURVE ( 'NONE', #277, #696, #90, .T. ) ;
#1018 = CARTESIAN_POINT ( 'NONE',  ( 48.04365848832858887, 49.68656181841879516, 3.000000000000016431 ) ) ;
#1019 = VERTEX_POINT ( 'NONE', #333 ) ;
#1020 = LINE ( 'NONE', #862, #794 ) ;
#1021 = ORIENTED_EDGE ( 'NONE', *, *, #104, .F. ) ;
#1022 = CARTESIAN_POINT ( 'NONE',  ( 102.7230949231893788, -18.00765520551090049, 1.625734085481429947 ) ) ;
#1023 = ORIENTED_EDGE ( 'NONE', *, *, #1029, .F. ) ;
#1024 = CARTESIAN_POINT ( 'NONE',  ( 24.56786753708763626, 39.11551291291374355, 107.0000000000000000 ) ) ;
#1025 = ORIENTED_EDGE ( 'NONE', *, *, #455, .T. ) ;
#1026 = ORIENTED_EDGE ( 'NONE', *, *, #603, .T. ) ;
#1027 = AXIS2_PLACEMENT_3D ( 'NONE', #859, #671, #887 ) ;
#1028 = EDGE_LOOP ( 'NONE', ( #719, #861, #613, #25 ) ) ;
#1029 = EDGE_CURVE ( 'NONE', #1087, #208, #739, .T. ) ;
#1030 = CARTESIAN_POINT ( 'NONE',  ( 3.564517285038907968, 1.022017551410872249, 107.0000000000000000 ) ) ;
#1031 = CARTESIAN_POINT ( 'NONE',  ( 101.7721576880691430, -17.24531900516958061, 2.349539161945243926 ) ) ;
#1032 = EDGE_LOOP ( 'NONE', ( #820, #485 ) ) ;
#1033 = CYLINDRICAL_SURFACE ( 'NONE', #898, 1.499999999999984013 ) ;
#1034 = APPLICATION_CONTEXT ( 'automotive_design' ) ;
#1035 = ORIENTED_EDGE ( 'NONE', *, *, #286, .F. ) ;
#1036 = CARTESIAN_POINT ( 'NONE',  ( 81.52241181758964217, 43.15998248231296230, 1.505247726716985035 ) ) ;
#1037 = DIRECTION ( 'NONE',  ( -0.000000000000000000, -0.000000000000000000, 1.000000000000000000 ) ) ;
#1038 = LINE ( 'NONE', #245, #557 ) ;
#1039 = VERTEX_POINT ( 'NONE', #531 ) ;
#1040 = EDGE_CURVE ( 'NONE', #1019, #864, #893, .T. ) ;
#1041 = CARTESIAN_POINT ( 'NONE',  ( 103.6131132015512577, -19.17657206310130391, 8.673617379884035472E-15 ) ) ;
#1042 = AXIS2_PLACEMENT_3D ( 'NONE', #22, #932, #727 ) ;
#1043 = AXIS2_PLACEMENT_3D ( 'NONE', #648, #118, #726 ) ;
#1044 = STYLED_ITEM ( 'NONE', ( #810 ), #879 ) ;
#1045 = CARTESIAN_POINT ( 'NONE',  ( 82.10996971965839464, 43.40442457680531163, 3.000000000000016431 ) ) ;
#1046 = ADVANCED_FACE ( 'NONE', ( #341 ), #884, .T. ) ;
#1047 =( BOUNDED_SURFACE ( )  B_SPLINE_SURFACE ( 3, 1, ( 
 ( #569, #400 ),
 ( #318, #65 ),
 ( #772, #211 ),
 ( #767, #1045 ) ),
 .UNSPECIFIED., .F., .F., .F. ) 
 B_SPLINE_SURFACE_WITH_KNOTS ( ( 4, 4 ),
 ( 2, 2 ),
 ( 0.000000000000000000, 1.000000000000000000 ),
 ( 0.000000000000000000, 1.000000000000000000 ),
 .UNSPECIFIED. ) 
 GEOMETRIC_REPRESENTATION_ITEM ( )  RATIONAL_B_SPLINE_SURFACE ( (
 ( 1.000000000000000000, 1.000000000000000000),
 ( 0.8475308478065664008, 0.8475308478065664008),
 ( 0.8475308478065664008, 0.8475308478065664008),
 ( 1.000000000000000000, 1.000000000000000000) ) ) 
 REPRESENTATION_ITEM ( '' )  SURFACE ( )  );
#1048 = EDGE_CURVE ( 'NONE', #1063, #21, #84, .T. ) ;
#1049 = CARTESIAN_POINT ( 'NONE',  ( 103.6131132015512577, -19.17657206310131102, 113.0000000000000000 ) ) ;
#1050 = CARTESIAN_POINT ( 'NONE',  ( 102.9146092772667060, -18.22761809843169090, 1.424388607997585598 ) ) ;
#1051 = DIRECTION ( 'NONE',  ( 1.000000000000000000, 0.000000000000000000, 0.000000000000000000 ) ) ;
#1052 = LINE ( 'NONE', #607, #801 ) ;
#1053 = AXIS2_PLACEMENT_3D ( 'NONE', #105, #628, #192 ) ;
#1054 = CARTESIAN_POINT ( 'NONE',  ( 100.2299392967431686, -16.61805043097608703, 107.0527990768007669 ) ) ;
#1055 = CARTESIAN_POINT ( 'NONE',  ( 113.2604427736006585, -17.56676220890260254, -3.000000000000000000 ) ) ;
#1056 = CARTESIAN_POINT ( 'NONE',  ( 102.9146092772666918, -18.22761809843168024, 108.5756113920024291 ) ) ;
#1057 = VECTOR ( 'NONE', #447, 1000.000000000000114 ) ;
#1058 = EDGE_CURVE ( 'NONE', #399, #12, #165, .T. ) ;
#1059 = VERTEX_POINT ( 'NONE', #964 ) ;
#1060 = FACE_OUTER_BOUND ( 'NONE', #530, .T. ) ;
#1061 = CARTESIAN_POINT ( 'NONE',  ( 3.564517285038907968, 1.022017551410872249, 3.000000000000016431 ) ) ;
#1062 = FACE_OUTER_BOUND ( 'NONE', #575, .T. ) ;
#1063 = VERTEX_POINT ( 'NONE', #162 ) ;
#1064 = CARTESIAN_POINT ( 'NONE',  ( 66.57383863546675684, 38.24269619357230710, 107.0000000000000000 ) ) ;
#1065 = B_SPLINE_CURVE_WITH_KNOTS ( 'NONE', 3,
 ( #855, #1022, #323, #308, #1031, #52, #237, #590, #401, #950, #383, #148 ),
 .UNSPECIFIED., .F., .F.,
 ( 4, 2, 2, 2, 2, 4 ),
 ( 0.0003876576866017609796, 0.001445703313373530039, 0.002503748940145299369, 0.003032771753531181540, 0.003561794566917063712, 0.004619840193688825453 ),
 .UNSPECIFIED. ) ;
#1066 = FACE_OUTER_BOUND ( 'NONE', #240, .T. ) ;
#1067 = DIRECTION ( 'NONE',  ( -0.9863620457337458625, -0.1645901416730049249, 0.000000000000000000 ) ) ;
#1068 = FILL_AREA_STYLE_COLOUR ( '', #35 ) ;
#1069 = EDGE_CURVE ( 'NONE', #1011, #841, #1128, .T. ) ;
#1070 = DIRECTION ( 'NONE',  ( -0.4580526612932596109, 0.8889250584172787573, -0.000000000000000000 ) ) ;
#1071 = CARTESIAN_POINT ( 'NONE',  ( 68.61146039255048379, 37.75615406468583757, 110.0000000000000000 ) ) ;
#1072 = AXIS2_PLACEMENT_3D ( 'NONE', #732, #361, #281 ) ;
#1073 = ADVANCED_FACE ( 'NONE', ( #697 ), #516, .F. ) ;
#1074 = CARTESIAN_POINT ( 'NONE',  ( 64.47714280531096165, 84.24319830652888186, 3.000000000000016431 ) ) ;
#1075 = ORIENTED_EDGE ( 'NONE', *, *, #223, .T. ) ;
#1076 = CARTESIAN_POINT ( 'NONE',  ( 81.89047047221153264, 43.31172801060416333, -3.000000000000000000 ) ) ;
#1077 = CARTESIAN_POINT ( 'NONE',  ( 48.04365848832858887, 49.68656181841879516, 110.0000000000000000 ) ) ;
#1078 =( BOUNDED_CURVE ( )  B_SPLINE_CURVE ( 3, ( #387, #1071, #370, #1077 ),
 .UNSPECIFIED., .F., .F. ) 
 B_SPLINE_CURVE_WITH_KNOTS ( ( 4, 4 ),
 ( 1.521272187473463600, 2.893133169722012621 ),
 .UNSPECIFIED. ) 
 CURVE ( )  GEOMETRIC_REPRESENTATION_ITEM ( )  RATIONAL_B_SPLINE_CURVE ( ( 1.000000000000000000, 0.8492200102025375674, 0.8492200102025375674, 1.000000000000000000 ) ) 
 REPRESENTATION_ITEM ( '' )  );
#1079 = DIRECTION ( 'NONE',  ( -0.3283531690704395989, 0.9445550255868629952, 0.000000000000000000 ) ) ;
#1080 = DIRECTION ( 'NONE',  ( 1.000000000000000000, -5.551115123125777969E-15, 0.000000000000000000 ) ) ;
#1081 = FACE_OUTER_BOUND ( 'NONE', #725, .T. ) ;
#1082 =( NAMED_UNIT ( * ) PLANE_ANGLE_UNIT ( ) SI_UNIT ( $, .RADIAN. ) );
#1083 = ORIENTED_EDGE ( 'NONE', *, *, #116, .T. ) ;
#1084 = ORIENTED_EDGE ( 'NONE', *, *, #517, .F. ) ;
#1085 = CARTESIAN_POINT ( 'NONE',  ( 103.2604427736006585, -18.12694235588972802, 107.0000000000000000 ) ) ;
#1086 = APPLICATION_CONTEXT ( 'automotive_design' ) ;
#1087 = VERTEX_POINT ( 'NONE', #1135 ) ;
#1088 = CYLINDRICAL_SURFACE ( 'NONE', #20, 1.499999999999990896 ) ;
#1089 = CARTESIAN_POINT ( 'NONE',  ( 23.06786753708765048, 39.11551291291374355, 0.000000000000000000 ) ) ;
#1090 = CARTESIAN_POINT ( 'NONE',  ( 79.07596521181359606, 42.27158388783376353, 107.0000000000000000 ) ) ;
#1091 = CARTESIAN_POINT ( 'NONE',  ( 48.04365848832858887, 49.68656181841879516, 1.647987302177966740E-14 ) ) ;
#1092 = ORIENTED_EDGE ( 'NONE', *, *, #189, .F. ) ;
#1093 = EDGE_CURVE ( 'NONE', #307, #674, #91, .T. ) ;
#1094 = VECTOR ( 'NONE', #1100, 1000.000000000000000 ) ;
#1095 = CIRCLE ( 'NONE', #509, 1.499999999999987566 ) ;
#1096 = CARTESIAN_POINT ( 'NONE',  ( 103.2604427736006585, -18.12694235588972802, 110.0000000000000000 ) ) ;
#1097 = CARTESIAN_POINT ( 'NONE',  ( 20.09779784051960405, 27.44210394604274228, 0.000000000000000000 ) ) ;
#1098 = CARTESIAN_POINT ( 'NONE',  ( 81.89047047221153264, 43.31172801060416333, 113.0000000000000000 ) ) ;
#1099 = VERTEX_POINT ( 'NONE', #782 ) ;
#1100 = DIRECTION ( 'NONE',  ( -0.000000000000000000, -0.000000000000000000, -1.000000000000000000 ) ) ;
#1101 = ORIENTED_EDGE ( 'NONE', *, *, #806, .T. ) ;
#1102 = ORIENTED_EDGE ( 'NONE', *, *, #582, .F. ) ;
#1103 = CARTESIAN_POINT ( 'NONE',  ( 81.89047047221153264, 43.31172801060416333, 113.0000000000000000 ) ) ;
#1104 = VERTEX_POINT ( 'NONE', #779 ) ;
#1105 = CARTESIAN_POINT ( 'NONE',  ( 23.06786753708764692, 39.11551291291374355, 110.0000000000000000 ) ) ;
#1106 = ORIENTED_EDGE ( 'NONE', *, *, #513, .T. ) ;
#1107 = ADVANCED_FACE ( 'NONE', ( #1060 ), #268, .F. ) ;
#1108 = CARTESIAN_POINT ( 'NONE',  ( 81.89047047221153264, 43.31172801060416333, 0.000000000000000000 ) ) ;
#1109 = EDGE_LOOP ( 'NONE', ( #132, #744, #829, #608, #620, #1102 ) ) ;
#1110 = CARTESIAN_POINT ( 'NONE',  ( 64.47714280531096165, 84.24319830652888186, 1.647987302177966740E-14 ) ) ;
#1111 = DIRECTION ( 'NONE',  ( 0.000000000000000000, 0.000000000000000000, 1.000000000000000000 ) ) ;
#1112 = CARTESIAN_POINT ( 'NONE',  ( 18.59779784051961116, 27.44210394604274228, 107.0000000000000000 ) ) ;
#1113 = ORIENTED_EDGE ( 'NONE', *, *, #740, .T. ) ;
#1114 = VECTOR ( 'NONE', #330, 1000.000000000000000 ) ;
#1115 = VECTOR ( 'NONE', #10, 1000.000000000000114 ) ;
#1116 = LINE ( 'NONE', #133, #446 ) ;
#1117 =( BOUNDED_CURVE ( )  B_SPLINE_CURVE ( 3, ( #683, #1064, #436, #791 ),
 .UNSPECIFIED., .F., .F. ) 
 B_SPLINE_CURVE_WITH_KNOTS ( ( 4, 4 ),
 ( 1.624926793798160851, 2.893133169722012621 ),
 .UNSPECIFIED. ) 
 CURVE ( )  GEOMETRIC_REPRESENTATION_ITEM ( )  RATIONAL_B_SPLINE_CURVE ( ( 1.000000000000000000, 0.8704022275930145547, 0.8704022275930145547, 1.000000000000000000 ) ) 
 REPRESENTATION_ITEM ( '' )  );
#1118 = ORIENTED_EDGE ( 'NONE', *, *, #455, .F. ) ;
#1119 = CARTESIAN_POINT ( 'NONE',  ( 3.564517285038907968, 1.022017551410872249, 3.000000000000016431 ) ) ;
#1120 = LINE ( 'NONE', #716, #430 ) ;
#1121 = SURFACE_STYLE_USAGE ( .BOTH. , #508 ) ;
#1122 = EDGE_CURVE ( 'NONE', #769, #1039, #547, .T. ) ;
#1123 = ORIENTED_EDGE ( 'NONE', *, *, #982, .F. ) ;
#1124 = CARTESIAN_POINT ( 'NONE',  ( 102.0367340084820142, -17.42158213085207308, 107.8207547937495434 ) ) ;
#1125 = AXIS2_PLACEMENT_3D ( 'NONE', #256, #524, #604 ) ;
#1126 = CARTESIAN_POINT ( 'NONE',  ( 48.04365848832858887, 49.68656181841879516, 107.0000000000000000 ) ) ;
#1127 = EDGE_CURVE ( 'NONE', #134, #106, #636, .T. ) ;
#1128 = LINE ( 'NONE', #427, #406 ) ;
#1129 = VECTOR ( 'NONE', #823, 1000.000000000000000 ) ;
#1130 = CARTESIAN_POINT ( 'NONE',  ( 113.2604427736006585, -17.56676220890260254, -19.18336509014821445 ) ) ;
#1131 = ORIENTED_EDGE ( 'NONE', *, *, #761, .T. ) ;
#1132 = DIRECTION ( 'NONE',  ( 0.000000000000000000, -0.000000000000000000, 1.000000000000000000 ) ) ;
#1133 = LINE ( 'NONE', #342, #600 ) ;
#1134 = ORIENTED_EDGE ( 'NONE', *, *, #799, .T. ) ;
#1135 = CARTESIAN_POINT ( 'NONE',  ( 23.06786753708764337, 39.11551291291374355, 107.0000000000000000 ) ) ;
#1136 = DIRECTION ( 'NONE',  ( -0.3420201433256628287, -0.9396926207859104263, -0.000000000000000000 ) ) ;
ENDSEC;
END-ISO-10303-21;
