ISO-10303-21;
HEADER;
FILE_DESCRIPTION (( 'STEP AP214' ),
    '1' );
FILE_NAME ('daiguilianjiejian.STEP',
    '2026-07-27T13:13:27',
    ( '' ),
    ( '' ),
    'SwSTEP 2.0',
    'SolidWorks 2020',
    '' );
FILE_SCHEMA (( 'AUTOMOTIVE_DESIGN' ));
ENDSEC;

DATA;
#1 = FILL_AREA_STYLE ('',( #233 ) ) ;
#2 = DIRECTION ( 'NONE',  ( 1.224646799147353207E-16, -1.000000000000000000, 0.000000000000000000 ) ) ;
#3 = EDGE_CURVE ( 'NONE', #19, #269, #85, .T. ) ;
#4 =( LENGTH_UNIT ( ) NAMED_UNIT ( * ) SI_UNIT ( .MILLI., .METRE. ) );
#5 = PRESENTATION_STYLE_ASSIGNMENT (( #124 ) ) ;
#6 = ORIENTED_EDGE ( 'NONE', *, *, #307, .F. ) ;
#7 = CARTESIAN_POINT ( 'NONE',  ( 5.265981236333618470E-15, -43.00000000000000000, 0.000000000000000000 ) ) ;
#8 = ORIENTED_EDGE ( 'NONE', *, *, #13, .T. ) ;
#9 = CARTESIAN_POINT ( 'NONE',  ( 5.021051876504148174E-15, -41.99999999999999289, 1.000000000000000888 ) ) ;
#10 = UNCERTAINTY_MEASURE_WITH_UNIT (LENGTH_MEASURE( 1.000000000000000082E-05 ), #4, 'distance_accuracy_value', 'NONE');
#11 = ORIENTED_EDGE ( 'NONE', *, *, #118, .F. ) ;
#12 = LINE ( 'NONE', #244, #144 ) ;
#13 = EDGE_CURVE ( 'NONE', #75, #214, #180, .T. ) ;
#14 = AXIS2_PLACEMENT_3D ( 'NONE', #163, #242, #133 ) ;
#15 = DIRECTION ( 'NONE',  ( 1.000000000000000000, 0.000000000000000000, 0.000000000000000000 ) ) ;
#16 = APPLICATION_CONTEXT ( 'automotive_design' ) ;
#17 = DIRECTION ( 'NONE',  ( -0.000000000000000000, 1.000000000000000000, -0.000000000000000000 ) ) ;
#18 = EDGE_CURVE ( 'NONE', #187, #247, #131, .T. ) ;
#19 = VERTEX_POINT ( 'NONE', #209 ) ;
#20 = PLANE ( 'NONE',  #130 ) ;
#21 = CLOSED_SHELL ( 'NONE', ( #177, #330, #162, #251, #204, #96, #312, #60, #174, #186 ) ) ;
#22 = PRODUCT_DEFINITION_FORMATION_WITH_SPECIFIED_SOURCE ( '任何', '', #68, .NOT_KNOWN. ) ;
#23 = CARTESIAN_POINT ( 'NONE',  ( 0.000000000000000000, 0.000000000000000000, 0.000000000000000000 ) ) ;
#24 = EDGE_CURVE ( 'NONE', #167, #320, #181, .T. ) ;
#25 = ORIENTED_EDGE ( 'NONE', *, *, #333, .T. ) ;
#26 = VECTOR ( 'NONE', #272, 1000.000000000000000 ) ;
#27 = ORIENTED_EDGE ( 'NONE', *, *, #18, .T. ) ;
#28 =( NAMED_UNIT ( * ) PLANE_ANGLE_UNIT ( ) SI_UNIT ( $, .RADIAN. ) );
#29 = SURFACE_STYLE_USAGE ( .BOTH. , #157 ) ;
#30 = CARTESIAN_POINT ( 'NONE',  ( 100.0000000000000000, -43.00000000000000000, 12.00000000000000000 ) ) ;
#31 = DIRECTION ( 'NONE',  ( -0.000000000000000000, 1.000000000000000000, 0.000000000000000000 ) ) ;
#32 = EDGE_LOOP ( 'NONE', ( #27, #84, #129, #33 ) ) ;
#33 = ORIENTED_EDGE ( 'NONE', *, *, #134, .T. ) ;
#34 = DIRECTION ( 'NONE',  ( 1.000000000000000000, 0.000000000000000000, 0.000000000000000000 ) ) ;
#35 = CARTESIAN_POINT ( 'NONE',  ( 100.0000000000000000, -1.000000000000000000, 1.000000000000000888 ) ) ;
#36 = DIRECTION ( 'NONE',  ( 1.000000000000000000, 0.000000000000000000, 0.000000000000000000 ) ) ;
#37 = ORIENTED_EDGE ( 'NONE', *, *, #226, .F. ) ;
#38 = PLANE ( 'NONE',  #117 ) ;
#39 = CARTESIAN_POINT ( 'NONE',  ( 100.0000000000000000, -41.99999999999999289, 1.000000000000000888 ) ) ;
#40 = AXIS2_PLACEMENT_3D ( 'NONE', #317, #31, #101 ) ;
#41 = EDGE_CURVE ( 'NONE', #50, #19, #290, .T. ) ;
#42 = LINE ( 'NONE', #250, #217 ) ;
#43 = LINE ( 'NONE', #245, #142 ) ;
#44 = ORIENTED_EDGE ( 'NONE', *, *, #333, .F. ) ;
#45 = LINE ( 'NONE', #246, #123 ) ;
#46 = PRESENTATION_LAYER_ASSIGNMENT (  '', '', ( #81 ) ) ;
#47 = EDGE_LOOP ( 'NONE', ( #145, #44, #74, #93 ) ) ;
#48 = MECHANICAL_DESIGN_GEOMETRIC_PRESENTATION_REPRESENTATION (  '', ( #81 ), #197 ) ;
#49 = VECTOR ( 'NONE', #17, 1000.000000000000000 ) ;
#50 = VERTEX_POINT ( 'NONE', #35 ) ;
#51 = ORIENTED_EDGE ( 'NONE', *, *, #271, .T. ) ;
#52 = CARTESIAN_POINT ( 'NONE',  ( 5.143516556418882533E-15, -41.99999999999999289, 12.00000000000000000 ) ) ;
#53 = VECTOR ( 'NONE', #103, 1000.000000000000000 ) ;
#54 = VECTOR ( 'NONE', #15, 1000.000000000000000 ) ;
#55 = PLANE ( 'NONE',  #59 ) ;
#56 = CARTESIAN_POINT ( 'NONE',  ( 0.000000000000000000, 0.000000000000000000, 0.000000000000000000 ) ) ;
#57 = CARTESIAN_POINT ( 'NONE',  ( 5.021051876504148174E-15, -41.99999999999999289, 1.000000000000000888 ) ) ;
#58 = DIRECTION ( 'NONE',  ( 1.000000000000000000, 0.000000000000000000, 0.000000000000000000 ) ) ;
#59 = AXIS2_PLACEMENT_3D ( 'NONE', #98, #309, #80 ) ;
#60 = ADVANCED_FACE ( 'NONE', ( #148 ), #231, .F. ) ;
#61 = CARTESIAN_POINT ( 'NONE',  ( 5.265981236333618470E-15, -43.00000000000000000, 12.00000000000000000 ) ) ;
#62 = DIRECTION ( 'NONE',  ( 0.000000000000000000, -0.000000000000000000, 1.000000000000000000 ) ) ;
#63 =( NAMED_UNIT ( * ) SI_UNIT ( $, .STERADIAN. ) SOLID_ANGLE_UNIT ( ) );
#64 = VERTEX_POINT ( 'NONE', #261 ) ;
#65 = DIRECTION ( 'NONE',  ( 0.000000000000000000, -1.000000000000000000, 0.000000000000000000 ) ) ;
#66 = EDGE_LOOP ( 'NONE', ( #301, #8, #104, #219 ) ) ;
#67 = DIRECTION ( 'NONE',  ( -0.000000000000000000, -0.000000000000000000, 1.000000000000000000 ) ) ;
#68 = PRODUCT ( 'daiguilianjiejian', 'daiguilianjiejian', '', ( #205 ) ) ;
#69 = DIRECTION ( 'NONE',  ( -0.000000000000000000, -0.000000000000000000, -1.000000000000000000 ) ) ;
#70 = ORIENTED_EDGE ( 'NONE', *, *, #120, .F. ) ;
#71 = DIRECTION ( 'NONE',  ( 1.000000000000000000, 0.000000000000000000, 0.000000000000000000 ) ) ;
#72 = EDGE_CURVE ( 'NONE', #161, #167, #311, .T. ) ;
#73 = VECTOR ( 'NONE', #109, 1000.000000000000000 ) ;
#74 = ORIENTED_EDGE ( 'NONE', *, *, #24, .F. ) ;
#75 = VERTEX_POINT ( 'NONE', #256 ) ;
#76 = VECTOR ( 'NONE', #210, 1000.000000000000000 ) ;
#77 = AXIS2_PLACEMENT_3D ( 'NONE', #9, #65, #240 ) ;
#78 = MANIFOLD_SOLID_BREP ( '切除-拉伸1', #21 ) ;
#79 = EDGE_LOOP ( 'NONE', ( #70, #266, #305, #199 ) ) ;
#80 = DIRECTION ( 'NONE',  ( 1.000000000000000000, 0.000000000000000000, 0.000000000000000000 ) ) ;
#81 = STYLED_ITEM ( 'NONE', ( #5 ), #78 ) ;
#82 = CARTESIAN_POINT ( 'NONE',  ( 100.0000000000000000, -1.000000000000000000, 1.000000000000000888 ) ) ;
#83 =( LENGTH_UNIT ( ) NAMED_UNIT ( * ) SI_UNIT ( .MILLI., .METRE. ) );
#84 = ORIENTED_EDGE ( 'NONE', *, *, #282, .F. ) ;
#85 = LINE ( 'NONE', #111, #215 ) ;
#86 = PLANE ( 'NONE',  #265 ) ;
#87 = VECTOR ( 'NONE', #158, 1000.000000000000000 ) ;
#88 = ORIENTED_EDGE ( 'NONE', *, *, #221, .T. ) ;
#89 = FACE_OUTER_BOUND ( 'NONE', #228, .T. ) ;
#90 = EDGE_LOOP ( 'NONE', ( #97, #306, #146, #239, #331, #280, #324, #6 ) ) ;
#91 = CARTESIAN_POINT ( 'NONE',  ( 0.000000000000000000, 0.000000000000000000, 0.000000000000000000 ) ) ;
#92 = DIRECTION ( 'NONE',  ( 0.000000000000000000, 0.000000000000000000, 1.000000000000000000 ) ) ;
#93 = ORIENTED_EDGE ( 'NONE', *, *, #327, .T. ) ;
#94 = CARTESIAN_POINT ( 'NONE',  ( 5.265981236333618470E-15, -43.00000000000000000, 12.00000000000000000 ) ) ;
#95 = CARTESIAN_POINT ( 'NONE',  ( 5.021051876504148174E-15, -41.99999999999999289, 12.00000000000000000 ) ) ;
#96 = ADVANCED_FACE ( 'NONE', ( #285 ), #55, .T. ) ;
#97 = ORIENTED_EDGE ( 'NONE', *, *, #147, .F. ) ;
#98 = CARTESIAN_POINT ( 'NONE',  ( 0.000000000000000000, 0.000000000000000000, 12.00000000000000000 ) ) ;
#99 = SURFACE_SIDE_STYLE ('',( #334 ) ) ;
#100 =( NAMED_UNIT ( * ) SI_UNIT ( $, .STERADIAN. ) SOLID_ANGLE_UNIT ( ) );
#101 = DIRECTION ( 'NONE',  ( 0.000000000000000000, -0.000000000000000000, 1.000000000000000000 ) ) ;
#102 = VECTOR ( 'NONE', #255, 1000.000000000000000 ) ;
#103 = DIRECTION ( 'NONE',  ( 1.224646799147353207E-16, -1.000000000000000000, 0.000000000000000000 ) ) ;
#104 = ORIENTED_EDGE ( 'NONE', *, *, #128, .T. ) ;
#105 = APPLICATION_PROTOCOL_DEFINITION ( 'draft international standard', 'automotive_design', 1998, #275 ) ;
#106 = DIRECTION ( 'NONE',  ( -0.000000000000000000, -0.000000000000000000, -1.000000000000000000 ) ) ;
#107 = ORIENTED_EDGE ( 'NONE', *, *, #41, .T. ) ;
#108 = DIRECTION ( 'NONE',  ( -1.000000000000000000, -0.000000000000000000, -0.000000000000000000 ) ) ;
#109 = DIRECTION ( 'NONE',  ( -1.000000000000000000, -0.000000000000000000, -0.000000000000000000 ) ) ;
#110 = CARTESIAN_POINT ( 'NONE',  ( 0.000000000000000000, 0.000000000000000000, 12.00000000000000000 ) ) ;
#111 = CARTESIAN_POINT ( 'NONE',  ( 0.000000000000000000, -1.000000000000000000, 12.00000000000000000 ) ) ;
#112 = DIRECTION ( 'NONE',  ( -0.000000000000000000, 1.000000000000000000, -0.000000000000000000 ) ) ;
#113 = CARTESIAN_POINT ( 'NONE',  ( 0.000000000000000000, -1.000000000000000000, 12.00000000000000000 ) ) ;
#114 = ORIENTED_EDGE ( 'NONE', *, *, #3, .T. ) ;
#115 = CARTESIAN_POINT ( 'NONE',  ( 100.0000000000000000, -43.00000000000000000, 12.00000000000000000 ) ) ;
#116 = AXIS2_PLACEMENT_3D ( 'NONE', #135, #126, #257 ) ;
#117 = AXIS2_PLACEMENT_3D ( 'NONE', #137, #216, #36 ) ;
#118 = EDGE_CURVE ( 'NONE', #241, #269, #208, .T. ) ;
#119 = LINE ( 'NONE', #168, #49 ) ;
#120 = EDGE_CURVE ( 'NONE', #247, #122, #234, .T. ) ;
#121 = COLOUR_RGB ( '',0.7921568627450980005, 0.8196078431372548767, 0.9333333333333333481 ) ;
#122 = VERTEX_POINT ( 'NONE', #7 ) ;
#123 = VECTOR ( 'NONE', #67, 1000.000000000000000 ) ;
#124 = SURFACE_STYLE_USAGE ( .BOTH. , #99 ) ;
#125 = CARTESIAN_POINT ( 'NONE',  ( 0.000000000000000000, 0.000000000000000000, 12.00000000000000000 ) ) ;
#126 = DIRECTION ( 'NONE',  ( 1.000000000000000000, 1.224646799147353207E-16, -0.000000000000000000 ) ) ;
#127 = LINE ( 'NONE', #236, #53 ) ;
#128 = EDGE_CURVE ( 'NONE', #214, #50, #313, .T. ) ;
#129 = ORIENTED_EDGE ( 'NONE', *, *, #221, .F. ) ;
#130 = AXIS2_PLACEMENT_3D ( 'NONE', #91, #140, #248 ) ;
#131 = LINE ( 'NONE', #152, #73 ) ;
#132 = VERTEX_POINT ( 'NONE', #151 ) ;
#133 = DIRECTION ( 'NONE',  ( 1.000000000000000000, 0.000000000000000000, 0.000000000000000000 ) ) ;
#134 = EDGE_CURVE ( 'NONE', #172, #187, #287, .T. ) ;
#135 = CARTESIAN_POINT ( 'NONE',  ( 0.000000000000000000, 0.000000000000000000, 12.00000000000000000 ) ) ;
#136 = ORIENTED_EDGE ( 'NONE', *, *, #13, .F. ) ;
#137 = CARTESIAN_POINT ( 'NONE',  ( 0.000000000000000000, 0.000000000000000000, 12.00000000000000000 ) ) ;
#138 = DIRECTION ( 'NONE',  ( -1.000000000000000000, 0.000000000000000000, 0.000000000000000000 ) ) ;
#139 = FACE_OUTER_BOUND ( 'NONE', #237, .T. ) ;
#140 = DIRECTION ( 'NONE',  ( -0.000000000000000000, 0.000000000000000000, 1.000000000000000000 ) ) ;
#141 = CARTESIAN_POINT ( 'NONE',  ( 0.000000000000000000, 0.000000000000000000, 12.00000000000000000 ) ) ;
#142 = VECTOR ( 'NONE', #69, 1000.000000000000000 ) ;
#143 = UNCERTAINTY_MEASURE_WITH_UNIT (LENGTH_MEASURE( 1.000000000000000082E-05 ), #83, 'distance_accuracy_value', 'NONE');
#144 = VECTOR ( 'NONE', #108, 1000.000000000000000 ) ;
#145 = ORIENTED_EDGE ( 'NONE', *, *, #293, .T. ) ;
#146 = ORIENTED_EDGE ( 'NONE', *, *, #150, .F. ) ;
#147 = EDGE_CURVE ( 'NONE', #241, #75, #127, .T. ) ;
#148 = FACE_OUTER_BOUND ( 'NONE', #253, .T. ) ;
#149 = PLANE ( 'NONE',  #273 ) ;
#150 = EDGE_CURVE ( 'NONE', #259, #269, #176, .T. ) ;
#151 = CARTESIAN_POINT ( 'NONE',  ( 100.0000000000000000, -43.00000000000000000, 0.000000000000000000 ) ) ;
#152 = CARTESIAN_POINT ( 'NONE',  ( 0.000000000000000000, 0.000000000000000000, 0.000000000000000000 ) ) ;
#153 = PRESENTATION_STYLE_ASSIGNMENT (( #29 ) ) ;
#154 = FILL_AREA_STYLE_COLOUR ( '', #191 ) ;
#155 = ORIENTED_EDGE ( 'NONE', *, *, #134, .F. ) ;
#156 = VECTOR ( 'NONE', #182, 1000.000000000000000 ) ;
#157 = SURFACE_SIDE_STYLE ('',( #160 ) ) ;
#158 = DIRECTION ( 'NONE',  ( -0.000000000000000000, -0.000000000000000000, 1.000000000000000000 ) ) ;
#159 = PLANE ( 'NONE',  #77 ) ;
#160 = SURFACE_STYLE_FILL_AREA ( #1 ) ;
#161 = VERTEX_POINT ( 'NONE', #52 ) ;
#162 = ADVANCED_FACE ( 'NONE', ( #283 ), #149, .F. ) ;
#163 = CARTESIAN_POINT ( 'NONE',  ( 0.000000000000000000, 0.000000000000000000, 1.000000000000000888 ) ) ;
#164 = ORIENTED_EDGE ( 'NONE', *, *, #254, .T. ) ;
#165 = CARTESIAN_POINT ( 'NONE',  ( 100.0000000000000000, 0.000000000000000000, 0.000000000000000000 ) ) ;
#166 = CARTESIAN_POINT ( 'NONE',  ( 5.265981236333618470E-15, -43.00000000000000000, 0.000000000000000000 ) ) ;
#167 = VERTEX_POINT ( 'NONE', #292 ) ;
#168 = CARTESIAN_POINT ( 'NONE',  ( 100.0000000000000000, 0.000000000000000000, 12.00000000000000000 ) ) ;
#169 = MECHANICAL_DESIGN_GEOMETRIC_PRESENTATION_REPRESENTATION (  '', ( #202 ), #249 ) ;
#170 = PRODUCT_DEFINITION ( '未知', '', #22, #315 ) ;
#171 = ADVANCED_BREP_SHAPE_REPRESENTATION ( 'daiguilianjiejian', ( #78, #291 ), #321 ) ;
#172 = VERTEX_POINT ( 'NONE', #185 ) ;
#173 = EDGE_LOOP ( 'NONE', ( #332, #51, #88, #189 ) ) ;
#174 = ADVANCED_FACE ( 'NONE', ( #89 ), #159, .F. ) ;
#175 = ORIENTED_EDGE ( 'NONE', *, *, #307, .T. ) ;
#176 = LINE ( 'NONE', #281, #102 ) ;
#177 = ADVANCED_FACE ( 'NONE', ( #267 ), #38, .T. ) ;
#178 = DIRECTION ( 'NONE',  ( 0.000000000000000000, 0.000000000000000000, 1.000000000000000000 ) ) ;
#179 =( NAMED_UNIT ( * ) SI_UNIT ( $, .STERADIAN. ) SOLID_ANGLE_UNIT ( ) );
#180 = LINE ( 'NONE', #57, #310 ) ;
#181 = LINE ( 'NONE', #61, #184 ) ;
#182 = DIRECTION ( 'NONE',  ( -0.000000000000000000, -0.000000000000000000, -1.000000000000000000 ) ) ;
#183 = DIRECTION ( 'NONE',  ( 1.000000000000000000, 0.000000000000000000, 0.000000000000000000 ) ) ;
#184 = VECTOR ( 'NONE', #58, 1000.000000000000000 ) ;
#185 = CARTESIAN_POINT ( 'NONE',  ( 100.0000000000000000, 0.000000000000000000, 12.00000000000000000 ) ) ;
#186 = ADVANCED_FACE ( 'NONE', ( #295 ), #212, .T. ) ;
#187 = VERTEX_POINT ( 'NONE', #270 ) ;
#188 = CARTESIAN_POINT ( 'NONE',  ( 5.265981236333618470E-15, -43.00000000000000000, 12.00000000000000000 ) ) ;
#189 = ORIENTED_EDGE ( 'NONE', *, *, #150, .T. ) ;
#190 = LINE ( 'NONE', #222, #299 ) ;
#191 = COLOUR_RGB ( '',0.7921568627450980005, 0.8196078431372548767, 0.9333333333333333481 ) ;
#192 = DIRECTION ( 'NONE',  ( -1.000000000000000000, -0.000000000000000000, -0.000000000000000000 ) ) ;
#193 = ORIENTED_EDGE ( 'NONE', *, *, #230, .T. ) ;
#194 = DIRECTION ( 'NONE',  ( -0.000000000000000000, -0.000000000000000000, -1.000000000000000000 ) ) ;
#195 = LINE ( 'NONE', #220, #26 ) ;
#196 = EDGE_CURVE ( 'NONE', #50, #241, #12, .T. ) ;
#197 =( GEOMETRIC_REPRESENTATION_CONTEXT ( 3 ) GLOBAL_UNCERTAINTY_ASSIGNED_CONTEXT ( ( #143 ) ) GLOBAL_UNIT_ASSIGNED_CONTEXT ( ( #83, #28, #179 ) ) REPRESENTATION_CONTEXT ( 'NONE', 'WORKASPACE' ) );
#198 = AXIS2_PLACEMENT_3D ( 'NONE', #278, #138, #92 ) ;
#199 = ORIENTED_EDGE ( 'NONE', *, *, #293, .F. ) ;
#200 = EDGE_LOOP ( 'NONE', ( #37, #294, #211, #193 ) ) ;
#201 = VECTOR ( 'NONE', #2, 1000.000000000000000 ) ;
#202 = STYLED_ITEM ( 'NONE', ( #153 ), #171 ) ;
#203 = FILL_AREA_STYLE ('',( #154 ) ) ;
#204 = ADVANCED_FACE ( 'NONE', ( #319 ), #86, .F. ) ;
#205 = PRODUCT_CONTEXT ( 'NONE', #275, 'mechanical' ) ;
#206 = DIRECTION ( 'NONE',  ( 1.224646799147353207E-16, -1.000000000000000000, 0.000000000000000000 ) ) ;
#207 = PLANE ( 'NONE',  #116 ) ;
#208 = LINE ( 'NONE', #238, #279 ) ;
#209 = CARTESIAN_POINT ( 'NONE',  ( 100.0000000000000000, -1.000000000000000000, 12.00000000000000000 ) ) ;
#210 = DIRECTION ( 'NONE',  ( -0.000000000000000000, 1.000000000000000000, -0.000000000000000000 ) ) ;
#211 = ORIENTED_EDGE ( 'NONE', *, *, #24, .T. ) ;
#212 = PLANE ( 'NONE',  #14 ) ;
#213 = EDGE_CURVE ( 'NONE', #132, #187, #326, .T. ) ;
#214 = VERTEX_POINT ( 'NONE', #39 ) ;
#215 = VECTOR ( 'NONE', #296, 1000.000000000000000 ) ;
#216 = DIRECTION ( 'NONE',  ( -0.000000000000000000, 0.000000000000000000, 1.000000000000000000 ) ) ;
#217 = VECTOR ( 'NONE', #192, 1000.000000000000000 ) ;
#218 = APPLICATION_PROTOCOL_DEFINITION ( 'draft international standard', 'automotive_design', 1998, #16 ) ;
#219 = ORIENTED_EDGE ( 'NONE', *, *, #196, .T. ) ;
#220 = CARTESIAN_POINT ( 'NONE',  ( 5.021051876504148174E-15, -41.99999999999999289, 1.000000000000000888 ) ) ;
#221 = EDGE_CURVE ( 'NONE', #172, #259, #42, .T. ) ;
#222 = CARTESIAN_POINT ( 'NONE',  ( 100.0000000000000000, 0.000000000000000000, 12.00000000000000000 ) ) ;
#223 = VECTOR ( 'NONE', #206, 1000.000000000000000 ) ;
#224 = LINE ( 'NONE', #95, #303 ) ;
#225 = CARTESIAN_POINT ( 'NONE',  ( 0.000000000000000000, -1.000000000000000000, 1.000000000000000888 ) ) ;
#226 = EDGE_CURVE ( 'NONE', #161, #64, #224, .T. ) ;
#227 = VECTOR ( 'NONE', #276, 1000.000000000000000 ) ;
#228 = EDGE_LOOP ( 'NONE', ( #229, #304, #136, #175 ) ) ;
#229 = ORIENTED_EDGE ( 'NONE', *, *, #226, .T. ) ;
#230 = EDGE_CURVE ( 'NONE', #320, #64, #190, .T. ) ;
#231 = PLANE ( 'NONE',  #40 ) ;
#232 = UNCERTAINTY_MEASURE_WITH_UNIT (LENGTH_MEASURE( 1.000000000000000082E-05 ), #316, 'distance_accuracy_value', 'NONE');
#233 = FILL_AREA_STYLE_COLOUR ( '', #121 ) ;
#234 = LINE ( 'NONE', #56, #223 ) ;
#235 =( NAMED_UNIT ( * ) PLANE_ANGLE_UNIT ( ) SI_UNIT ( $, .RADIAN. ) );
#236 = CARTESIAN_POINT ( 'NONE',  ( 0.000000000000000000, -1.000000000000000000, 1.000000000000000888 ) ) ;
#237 = EDGE_LOOP ( 'NONE', ( #277, #243, #314, #164, #288, #25, #286, #155 ) ) ;
#238 = CARTESIAN_POINT ( 'NONE',  ( 0.000000000000000000, -1.000000000000000000, 1.000000000000000888 ) ) ;
#239 = ORIENTED_EDGE ( 'NONE', *, *, #282, .T. ) ;
#240 = DIRECTION ( 'NONE',  ( 0.000000000000000000, -0.000000000000000000, -1.000000000000000000 ) ) ;
#241 = VERTEX_POINT ( 'NONE', #225 ) ;
#242 = DIRECTION ( 'NONE',  ( -0.000000000000000000, 0.000000000000000000, 1.000000000000000000 ) ) ;
#243 = ORIENTED_EDGE ( 'NONE', *, *, #41, .F. ) ;
#244 = CARTESIAN_POINT ( 'NONE',  ( 0.000000000000000000, -1.000000000000000000, 1.000000000000000888 ) ) ;
#245 = CARTESIAN_POINT ( 'NONE',  ( 0.000000000000000000, 0.000000000000000000, 12.00000000000000000 ) ) ;
#246 = CARTESIAN_POINT ( 'NONE',  ( 100.0000000000000000, -41.99999999999999289, 1.000000000000000888 ) ) ;
#247 = VERTEX_POINT ( 'NONE', #23 ) ;
#248 = DIRECTION ( 'NONE',  ( 1.000000000000000000, 0.000000000000000000, 0.000000000000000000 ) ) ;
#249 =( GEOMETRIC_REPRESENTATION_CONTEXT ( 3 ) GLOBAL_UNCERTAINTY_ASSIGNED_CONTEXT ( ( #10 ) ) GLOBAL_UNIT_ASSIGNED_CONTEXT ( ( #4, #289, #100 ) ) REPRESENTATION_CONTEXT ( 'NONE', 'WORKASPACE' ) );
#250 = CARTESIAN_POINT ( 'NONE',  ( 0.000000000000000000, 0.000000000000000000, 12.00000000000000000 ) ) ;
#251 = ADVANCED_FACE ( 'NONE', ( #139 ), #300, .F. ) ;
#252 = PRODUCT_RELATED_PRODUCT_CATEGORY ( 'part', '', ( #68 ) ) ;
#253 = EDGE_LOOP ( 'NONE', ( #114, #11, #318, #107 ) ) ;
#254 = EDGE_CURVE ( 'NONE', #214, #64, #45, .T. ) ;
#255 = DIRECTION ( 'NONE',  ( 1.224646799147353207E-16, -1.000000000000000000, 0.000000000000000000 ) ) ;
#256 = CARTESIAN_POINT ( 'NONE',  ( 5.021051876504148174E-15, -41.99999999999999289, 1.000000000000000888 ) ) ;
#257 = DIRECTION ( 'NONE',  ( -1.224646799147353207E-16, 1.000000000000000000, 0.000000000000000000 ) ) ;
#258 = CARTESIAN_POINT ( 'NONE',  ( 100.0000000000000000, 0.000000000000000000, 12.00000000000000000 ) ) ;
#259 = VERTEX_POINT ( 'NONE', #141 ) ;
#260 = CARTESIAN_POINT ( 'NONE',  ( 0.000000000000000000, 0.000000000000000000, 0.000000000000000000 ) ) ;
#261 = CARTESIAN_POINT ( 'NONE',  ( 100.0000000000000000, -41.99999999999999289, 12.00000000000000000 ) ) ;
#262 = VECTOR ( 'NONE', #106, 1000.000000000000000 ) ;
#263 = CARTESIAN_POINT ( 'NONE',  ( 100.0000000000000000, -1.000000000000000000, 1.000000000000000888 ) ) ;
#264 = VECTOR ( 'NONE', #194, 1000.000000000000000 ) ;
#265 = AXIS2_PLACEMENT_3D ( 'NONE', #110, #274, #297 ) ;
#266 = ORIENTED_EDGE ( 'NONE', *, *, #18, .F. ) ;
#267 = FACE_OUTER_BOUND ( 'NONE', #173, .T. ) ;
#268 = LINE ( 'NONE', #30, #156 ) ;
#269 = VERTEX_POINT ( 'NONE', #113 ) ;
#270 = CARTESIAN_POINT ( 'NONE',  ( 100.0000000000000000, 0.000000000000000000, 0.000000000000000000 ) ) ;
#271 = EDGE_CURVE ( 'NONE', #19, #172, #119, .T. ) ;
#272 = DIRECTION ( 'NONE',  ( -0.000000000000000000, -0.000000000000000000, 1.000000000000000000 ) ) ;
#273 = AXIS2_PLACEMENT_3D ( 'NONE', #188, #322, #62 ) ;
#274 = DIRECTION ( 'NONE',  ( 0.000000000000000000, -1.000000000000000000, 0.000000000000000000 ) ) ;
#275 = APPLICATION_CONTEXT ( 'automotive_design' ) ;
#276 = DIRECTION ( 'NONE',  ( -0.000000000000000000, 1.000000000000000000, -0.000000000000000000 ) ) ;
#277 = ORIENTED_EDGE ( 'NONE', *, *, #271, .F. ) ;
#278 = CARTESIAN_POINT ( 'NONE',  ( 100.0000000000000000, 0.000000000000000000, 12.00000000000000000 ) ) ;
#279 = VECTOR ( 'NONE', #308, 1000.000000000000000 ) ;
#280 = ORIENTED_EDGE ( 'NONE', *, *, #327, .F. ) ;
#281 = CARTESIAN_POINT ( 'NONE',  ( 0.000000000000000000, 0.000000000000000000, 12.00000000000000000 ) ) ;
#282 = EDGE_CURVE ( 'NONE', #259, #247, #43, .T. ) ;
#283 = FACE_OUTER_BOUND ( 'NONE', #47, .T. ) ;
#284 = PRESENTATION_LAYER_ASSIGNMENT (  '', '', ( #202 ) ) ;
#285 = FACE_OUTER_BOUND ( 'NONE', #200, .T. ) ;
#286 = ORIENTED_EDGE ( 'NONE', *, *, #213, .T. ) ;
#287 = LINE ( 'NONE', #258, #262 ) ;
#288 = ORIENTED_EDGE ( 'NONE', *, *, #230, .F. ) ;
#289 =( NAMED_UNIT ( * ) PLANE_ANGLE_UNIT ( ) SI_UNIT ( $, .RADIAN. ) );
#290 = LINE ( 'NONE', #263, #87 ) ;
#291 = AXIS2_PLACEMENT_3D ( 'NONE', #260, #178, #34 ) ;
#292 = CARTESIAN_POINT ( 'NONE',  ( 5.265981236333618470E-15, -43.00000000000000000, 12.00000000000000000 ) ) ;
#293 = EDGE_CURVE ( 'NONE', #122, #132, #329, .T. ) ;
#294 = ORIENTED_EDGE ( 'NONE', *, *, #72, .T. ) ;
#295 = FACE_OUTER_BOUND ( 'NONE', #66, .T. ) ;
#296 = DIRECTION ( 'NONE',  ( -1.000000000000000000, -0.000000000000000000, -0.000000000000000000 ) ) ;
#297 = DIRECTION ( 'NONE',  ( 0.000000000000000000, -0.000000000000000000, -1.000000000000000000 ) ) ;
#298 = PRODUCT_DEFINITION_SHAPE ( 'NONE', 'NONE',  #170 ) ;
#299 = VECTOR ( 'NONE', #112, 1000.000000000000000 ) ;
#300 = PLANE ( 'NONE',  #198 ) ;
#301 = ORIENTED_EDGE ( 'NONE', *, *, #147, .T. ) ;
#302 = FACE_OUTER_BOUND ( 'NONE', #90, .T. ) ;
#303 = VECTOR ( 'NONE', #71, 1000.000000000000000 ) ;
#304 = ORIENTED_EDGE ( 'NONE', *, *, #254, .F. ) ;
#305 = ORIENTED_EDGE ( 'NONE', *, *, #213, .F. ) ;
#306 = ORIENTED_EDGE ( 'NONE', *, *, #118, .T. ) ;
#307 = EDGE_CURVE ( 'NONE', #75, #161, #195, .T. ) ;
#308 = DIRECTION ( 'NONE',  ( -0.000000000000000000, -0.000000000000000000, 1.000000000000000000 ) ) ;
#309 = DIRECTION ( 'NONE',  ( -0.000000000000000000, 0.000000000000000000, 1.000000000000000000 ) ) ;
#310 = VECTOR ( 'NONE', #183, 1000.000000000000000 ) ;
#311 = LINE ( 'NONE', #125, #201 ) ;
#312 = ADVANCED_FACE ( 'NONE', ( #325 ), #20, .F. ) ;
#313 = LINE ( 'NONE', #82, #76 ) ;
#314 = ORIENTED_EDGE ( 'NONE', *, *, #128, .F. ) ;
#315 = PRODUCT_DEFINITION_CONTEXT ( 'detailed design', #16, 'design' ) ;
#316 =( LENGTH_UNIT ( ) NAMED_UNIT ( * ) SI_UNIT ( .MILLI., .METRE. ) );
#317 = CARTESIAN_POINT ( 'NONE',  ( 0.000000000000000000, -1.000000000000000000, 1.000000000000000888 ) ) ;
#318 = ORIENTED_EDGE ( 'NONE', *, *, #196, .F. ) ;
#319 = FACE_OUTER_BOUND ( 'NONE', #32, .T. ) ;
#320 = VERTEX_POINT ( 'NONE', #115 ) ;
#321 =( GEOMETRIC_REPRESENTATION_CONTEXT ( 3 ) GLOBAL_UNCERTAINTY_ASSIGNED_CONTEXT ( ( #232 ) ) GLOBAL_UNIT_ASSIGNED_CONTEXT ( ( #316, #235, #63 ) ) REPRESENTATION_CONTEXT ( 'NONE', 'WORKASPACE' ) );
#322 = DIRECTION ( 'NONE',  ( 0.000000000000000000, 1.000000000000000000, 0.000000000000000000 ) ) ;
#323 = SHAPE_DEFINITION_REPRESENTATION ( #298, #171 ) ;
#324 = ORIENTED_EDGE ( 'NONE', *, *, #72, .F. ) ;
#325 = FACE_OUTER_BOUND ( 'NONE', #79, .T. ) ;
#326 = LINE ( 'NONE', #165, #227 ) ;
#327 = EDGE_CURVE ( 'NONE', #167, #122, #328, .T. ) ;
#328 = LINE ( 'NONE', #94, #264 ) ;
#329 = LINE ( 'NONE', #166, #54 ) ;
#330 = ADVANCED_FACE ( 'NONE', ( #302 ), #207, .F. ) ;
#331 = ORIENTED_EDGE ( 'NONE', *, *, #120, .T. ) ;
#332 = ORIENTED_EDGE ( 'NONE', *, *, #3, .F. ) ;
#333 = EDGE_CURVE ( 'NONE', #320, #132, #268, .T. ) ;
#334 = SURFACE_STYLE_FILL_AREA ( #203 ) ;
ENDSEC;
END-ISO-10303-21;
