ISO-10303-21;
HEADER;
FILE_DESCRIPTION (( 'STEP AP214' ),
    '1' );
FILE_NAME ('zhoutao.STEP',
    '2026-07-15T03:16:23',
    ( '' ),
    ( '' ),
    'SwSTEP 2.0',
    'SolidWorks 2020',
    '' );
FILE_SCHEMA (( 'AUTOMOTIVE_DESIGN' ));
ENDSEC;

DATA;
#1 = DIRECTION ( 'NONE',  ( -1.000000000000000000, -0.000000000000000000, -0.000000000000000000 ) ) ;
#2 = CIRCLE ( 'NONE', #696, 2.505000000000000338 ) ;
#3 = EDGE_CURVE ( 'NONE', #370, #690, #291, .T. ) ;
#4 = ORIENTED_EDGE ( 'NONE', *, *, #642, .T. ) ;
#5 = FACE_BOUND ( 'NONE', #66, .T. ) ;
#6 = ORIENTED_EDGE ( 'NONE', *, *, #426, .T. ) ;
#7 = CIRCLE ( 'NONE', #218, 2.505000000000000338 ) ;
#8 = ADVANCED_FACE ( 'NONE', ( #689 ), #754, .F. ) ;
#9 = DIRECTION ( 'NONE',  ( 0.000000000000000000, 0.000000000000000000, -1.000000000000000000 ) ) ;
#10 = DIRECTION ( 'NONE',  ( 0.000000000000000000, 1.000000000000000000, 0.000000000000000000 ) ) ;
#11 = ORIENTED_EDGE ( 'NONE', *, *, #208, .F. ) ;
#12 = ORIENTED_EDGE ( 'NONE', *, *, #650, .F. ) ;
#13 = CARTESIAN_POINT ( 'NONE',  ( -3.589083053745117225E-16, 2.999999999999999112, 30.00000000000000000 ) ) ;
#14 = ORIENTED_EDGE ( 'NONE', *, *, #796, .T. ) ;
#15 = AXIS2_PLACEMENT_3D ( 'NONE', #710, #634, #162 ) ;
#16 = CARTESIAN_POINT ( 'NONE',  ( 52.57000000000000739, 5.430000000000100968, 0.000000000000000000 ) ) ;
#17 = VECTOR ( 'NONE', #682, 1000.000000000000000 ) ;
#18 = DIRECTION ( 'NONE',  ( 0.000000000000000000, -1.000000000000000000, 0.000000000000000000 ) ) ;
#19 = ADVANCED_FACE ( 'NONE', ( #267, #440 ), #751, .T. ) ;
#20 = EDGE_LOOP ( 'NONE', ( #225, #388 ) ) ;
#21 = CARTESIAN_POINT ( 'NONE',  ( 5.429999999999990834, 52.57000000000000739, 0.000000000000000000 ) ) ;
#22 = CARTESIAN_POINT ( 'NONE',  ( 0.000000000000000000, 0.000000000000000000, 0.000000000000000000 ) ) ;
#23 = DIRECTION ( 'NONE',  ( 0.000000000000000000, 0.000000000000000000, -1.000000000000000000 ) ) ;
#24 = VERTEX_POINT ( 'NONE', #683 ) ;
#25 = CARTESIAN_POINT ( 'NONE',  ( 33.00500000000000256, 29.00000000000000000, 40.00000000000000000 ) ) ;
#26 = DIRECTION ( 'NONE',  ( 1.000000000000000000, 0.000000000000000000, 0.000000000000000000 ) ) ;
#27 = CARTESIAN_POINT ( 'NONE',  ( 24.99500000000000099, 29.00000000000000000, 15.00000000000000000 ) ) ;
#28 = CARTESIAN_POINT ( 'NONE',  ( 52.57000000000000739, 52.57000000000009976, 0.000000000000000000 ) ) ;
#29 = ORIENTED_EDGE ( 'NONE', *, *, #603, .F. ) ;
#30 = CARTESIAN_POINT ( 'NONE',  ( 5.429999999999990834, 5.430000000000000604, 0.000000000000000000 ) ) ;
#31 = EDGE_CURVE ( 'NONE', #626, #649, #110, .T. ) ;
#32 = CARTESIAN_POINT ( 'NONE',  ( 50.06500000000000483, 5.430000000000100968, 30.00000000000000000 ) ) ;
#33 = CIRCLE ( 'NONE', #570, 19.01500000000000057 ) ;
#34 = CARTESIAN_POINT ( 'NONE',  ( 2.924999999999989164, 52.57000000000000739, 30.00000000000000000 ) ) ;
#35 = VECTOR ( 'NONE', #721, 1000.000000000000000 ) ;
#36 = ORIENTED_EDGE ( 'NONE', *, *, #685, .F. ) ;
#37 = AXIS2_PLACEMENT_3D ( 'NONE', #784, #728, #663 ) ;
#38 = DIRECTION ( 'NONE',  ( -0.000000000000000000, -0.000000000000000000, -1.000000000000000000 ) ) ;
#39 = DIRECTION ( 'NONE',  ( -1.000000000000000000, 0.000000000000000000, 0.000000000000000000 ) ) ;
#40 = ADVANCED_FACE ( 'NONE', ( #323 ), #203, .F. ) ;
#41 = UNCERTAINTY_MEASURE_WITH_UNIT (LENGTH_MEASURE( 1.000000000000000082E-05 ), #301, 'distance_accuracy_value', 'NONE');
#42 = EDGE_LOOP ( 'NONE', ( #315, #584 ) ) ;
#43 = CARTESIAN_POINT ( 'NONE',  ( 52.57000000000000739, 52.57000000000009976, 0.000000000000000000 ) ) ;
#44 = AXIS2_PLACEMENT_3D ( 'NONE', #177, #706, #580 ) ;
#45 = DIRECTION ( 'NONE',  ( 1.000000000000000000, 0.000000000000000000, 0.000000000000000000 ) ) ;
#46 = FACE_OUTER_BOUND ( 'NONE', #336, .T. ) ;
#47 = ORIENTED_EDGE ( 'NONE', *, *, #655, .T. ) ;
#48 = CIRCLE ( 'NONE', #488, 2.505000000000000338 ) ;
#49 = FILL_AREA_STYLE_COLOUR ( '', #702 ) ;
#50 = EDGE_LOOP ( 'NONE', ( #621, #552, #175, #54 ) ) ;
#51 = EDGE_CURVE ( 'NONE', #553, #24, #625, .T. ) ;
#52 = DIRECTION ( 'NONE',  ( 0.000000000000000000, 0.000000000000000000, 1.000000000000000000 ) ) ;
#53 = FACE_OUTER_BOUND ( 'NONE', #476, .T. ) ;
#54 = ORIENTED_EDGE ( 'NONE', *, *, #628, .T. ) ;
#55 = DIRECTION ( 'NONE',  ( 1.000000000000000000, 0.000000000000000000, 0.000000000000000000 ) ) ;
#56 = VECTOR ( 'NONE', #104, 1000.000000000000000 ) ;
#57 = CARTESIAN_POINT ( 'NONE',  ( 0.000000000000000000, 0.000000000000000000, 0.000000000000000000 ) ) ;
#58 = CARTESIAN_POINT ( 'NONE',  ( 7.934999999999990727, 5.430000000000000604, 0.000000000000000000 ) ) ;
#59 = ORIENTED_EDGE ( 'NONE', *, *, #31, .F. ) ;
#60 = ADVANCED_FACE ( 'NONE', ( #527 ), #734, .T. ) ;
#61 = DIRECTION ( 'NONE',  ( 1.000000000000000000, 0.000000000000000000, 0.000000000000000000 ) ) ;
#62 = ORIENTED_EDGE ( 'NONE', *, *, #51, .T. ) ;
#63 = ORIENTED_EDGE ( 'NONE', *, *, #208, .T. ) ;
#64 = VECTOR ( 'NONE', #133, 1000.000000000000000 ) ;
#65 = DIRECTION ( 'NONE',  ( 0.000000000000000000, 0.000000000000000000, 1.000000000000000000 ) ) ;
#66 = EDGE_LOOP ( 'NONE', ( #59, #36 ) ) ;
#67 = VERTEX_POINT ( 'NONE', #474 ) ;
#68 = CARTESIAN_POINT ( 'NONE',  ( 2.999999999999993339, 58.00000000000000000, 30.00000000000000000 ) ) ;
#69 = CARTESIAN_POINT ( 'NONE',  ( 29.00000000000000000, 29.00000000000000000, 15.00000000000000000 ) ) ;
#70 = EDGE_LOOP ( 'NONE', ( #653, #517 ) ) ;
#71 = AXIS2_PLACEMENT_3D ( 'NONE', #331, #84, #436 ) ;
#72 = CYLINDRICAL_SURFACE ( 'NONE', #674, 2.505000000000000338 ) ;
#73 = DIRECTION ( 'NONE',  ( 1.000000000000000000, 0.000000000000000000, 0.000000000000000000 ) ) ;
#74 = ORIENTED_EDGE ( 'NONE', *, *, #446, .F. ) ;
#75 = EDGE_CURVE ( 'NONE', #278, #678, #588, .T. ) ;
#76 = AXIS2_PLACEMENT_3D ( 'NONE', #641, #581, #647 ) ;
#77 = VECTOR ( 'NONE', #113, 1000.000000000000000 ) ;
#78 = DIRECTION ( 'NONE',  ( 0.000000000000000000, 0.000000000000000000, 1.000000000000000000 ) ) ;
#79 = DIRECTION ( 'NONE',  ( 1.000000000000000000, 0.000000000000000000, 0.000000000000000000 ) ) ;
#80 = EDGE_LOOP ( 'NONE', ( #593, #260, #63, #263 ) ) ;
#81 = CARTESIAN_POINT ( 'NONE',  ( 7.934999999999990727, 5.430000000000000604, 0.000000000000000000 ) ) ;
#82 = CIRCLE ( 'NONE', #15, 2.505000000000000338 ) ;
#83 = ORIENTED_EDGE ( 'NONE', *, *, #503, .F. ) ;
#84 = DIRECTION ( 'NONE',  ( 0.000000000000000000, 0.000000000000000000, 1.000000000000000000 ) ) ;
#85 = FACE_OUTER_BOUND ( 'NONE', #643, .T. ) ;
#86 = EDGE_CURVE ( 'NONE', #738, #330, #364, .T. ) ;
#87 = PLANE ( 'NONE',  #178 ) ;
#88 = ORIENTED_EDGE ( 'NONE', *, *, #265, .F. ) ;
#89 = CARTESIAN_POINT ( 'NONE',  ( 5.429999999999990834, 5.430000000000000604, 0.000000000000000000 ) ) ;
#90 = CIRCLE ( 'NONE', #419, 3.000000000000002665 ) ;
#91 = EDGE_CURVE ( 'NONE', #752, #355, #534, .T. ) ;
#92 = DIRECTION ( 'NONE',  ( 0.000000000000000000, -0.000000000000000000, 1.000000000000000000 ) ) ;
#93 = DIRECTION ( 'NONE',  ( 0.000000000000000000, 0.000000000000000000, -1.000000000000000000 ) ) ;
#94 = CARTESIAN_POINT ( 'NONE',  ( 54.99999999999999289, 58.00000000000000000, 30.00000000000000000 ) ) ;
#95 = ORIENTED_EDGE ( 'NONE', *, *, #137, .F. ) ;
#96 = EDGE_CURVE ( 'NONE', #114, #598, #327, .T. ) ;
#97 = SURFACE_SIDE_STYLE ('',( #586 ) ) ;
#98 = DIRECTION ( 'NONE',  ( 0.000000000000000000, 0.000000000000000000, 1.000000000000000000 ) ) ;
#99 = DIRECTION ( 'NONE',  ( -0.000000000000000000, -0.000000000000000000, 1.000000000000000000 ) ) ;
#100 = ORIENTED_EDGE ( 'NONE', *, *, #326, .T. ) ;
#101 = DIRECTION ( 'NONE',  ( -1.000000000000000000, 0.000000000000000000, 0.000000000000000000 ) ) ;
#102 = DIRECTION ( 'NONE',  ( 0.000000000000000000, 0.000000000000000000, -1.000000000000000000 ) ) ;
#103 = AXIS2_PLACEMENT_3D ( 'NONE', #735, #248, #539 ) ;
#104 = DIRECTION ( 'NONE',  ( -0.000000000000000000, -0.000000000000000000, -1.000000000000000000 ) ) ;
#105 = CARTESIAN_POINT ( 'NONE',  ( 5.429999999999990834, 5.430000000000000604, 0.000000000000000000 ) ) ;
#106 = EDGE_LOOP ( 'NONE', ( #564, #4, #204, #443 ) ) ;
#107 = DIRECTION ( 'NONE',  ( 0.000000000000000000, 0.000000000000000000, 1.000000000000000000 ) ) ;
#108 = CARTESIAN_POINT ( 'NONE',  ( 2.924999999999990052, 5.430000000000000604, 30.00000000000000000 ) ) ;
#109 = ORIENTED_EDGE ( 'NONE', *, *, #776, .F. ) ;
#110 = CIRCLE ( 'NONE', #378, 19.01500000000000057 ) ;
#111 = DIRECTION ( 'NONE',  ( 0.000000000000000000, 0.000000000000000000, 1.000000000000000000 ) ) ;
#112 = EDGE_CURVE ( 'NONE', #330, #247, #303, .T. ) ;
#113 = DIRECTION ( 'NONE',  ( -1.000000000000000000, -0.000000000000000000, -0.000000000000000000 ) ) ;
#114 = VERTEX_POINT ( 'NONE', #169 ) ;
#115 = LINE ( 'NONE', #359, #140 ) ;
#116 = AXIS2_PLACEMENT_3D ( 'NONE', #435, #18, #562 ) ;
#117 = EDGE_CURVE ( 'NONE', #645, #190, #627, .T. ) ;
#118 =( GEOMETRIC_REPRESENTATION_CONTEXT ( 3 ) GLOBAL_UNCERTAINTY_ASSIGNED_CONTEXT ( ( #657 ) ) GLOBAL_UNIT_ASSIGNED_CONTEXT ( ( #153, #597, #156 ) ) REPRESENTATION_CONTEXT ( 'NONE', 'WORKASPACE' ) );
#119 = CARTESIAN_POINT ( 'NONE',  ( 58.00000000000000000, 3.000000000000000000, 30.00000000000000000 ) ) ;
#120 = CARTESIAN_POINT ( 'NONE',  ( 0.000000000000000000, 0.000000000000000000, 30.00000000000000000 ) ) ;
#121 = DIRECTION ( 'NONE',  ( -0.000000000000000000, -0.000000000000000000, -1.000000000000000000 ) ) ;
#122 = ORIENTED_EDGE ( 'NONE', *, *, #255, .F. ) ;
#123 = EDGE_CURVE ( 'NONE', #458, #762, #312, .T. ) ;
#124 = DIRECTION ( 'NONE',  ( -0.000000000000000000, -0.000000000000000000, -1.000000000000000000 ) ) ;
#125 = AXIS2_PLACEMENT_3D ( 'NONE', #397, #281, #769 ) ;
#126 = DIRECTION ( 'NONE',  ( 1.000000000000000000, 1.196361017915039486E-16, -0.000000000000000000 ) ) ;
#127 = EDGE_LOOP ( 'NONE', ( #431, #680, #193, #633 ) ) ;
#128 = FACE_OUTER_BOUND ( 'NONE', #80, .T. ) ;
#129 = EDGE_LOOP ( 'NONE', ( #726, #88, #464, #184 ) ) ;
#130 = ORIENTED_EDGE ( 'NONE', *, *, #117, .F. ) ;
#131 = DIRECTION ( 'NONE',  ( -0.000000000000000000, -0.000000000000000000, 1.000000000000000000 ) ) ;
#132 = DIRECTION ( 'NONE',  ( 1.000000000000000000, 0.000000000000000000, 0.000000000000000000 ) ) ;
#133 = DIRECTION ( 'NONE',  ( -0.000000000000000000, 0.000000000000000000, -1.000000000000000000 ) ) ;
#134 = ORIENTED_EDGE ( 'NONE', *, *, #531, .T. ) ;
#135 = CARTESIAN_POINT ( 'NONE',  ( 52.57000000000000739, 52.57000000000009976, 0.000000000000000000 ) ) ;
#136 = VECTOR ( 'NONE', #604, 1000.000000000000000 ) ;
#137 = EDGE_CURVE ( 'NONE', #736, #645, #294, .T. ) ;
#138 = FACE_OUTER_BOUND ( 'NONE', #571, .T. ) ;
#139 = CARTESIAN_POINT ( 'NONE',  ( 5.429999999999990834, 52.57000000000000739, 0.000000000000000000 ) ) ;
#140 = VECTOR ( 'NONE', #52, 1000.000000000000000 ) ;
#141 = ORIENTED_EDGE ( 'NONE', *, *, #148, .F. ) ;
#142 = DIRECTION ( 'NONE',  ( 1.000000000000000000, 0.000000000000000000, 0.000000000000000000 ) ) ;
#143 = DIRECTION ( 'NONE',  ( 0.000000000000000000, -0.000000000000000000, 1.000000000000000000 ) ) ;
#144 = CIRCLE ( 'NONE', #585, 4.004999999999998117 ) ;
#145 = CARTESIAN_POINT ( 'NONE',  ( 2.999999999999993339, 58.00000000000000000, 30.00000000000000000 ) ) ;
#146 = CARTESIAN_POINT ( 'NONE',  ( 29.00000000000000000, 29.00000000000000000, 30.00000000000000000 ) ) ;
#147 = ORIENTED_EDGE ( 'NONE', *, *, #403, .T. ) ;
#148 = EDGE_CURVE ( 'NONE', #190, #713, #791, .T. ) ;
#149 = DIRECTION ( 'NONE',  ( -0.000000000000000000, -0.000000000000000000, 1.000000000000000000 ) ) ;
#150 = AXIS2_PLACEMENT_3D ( 'NONE', #400, #111, #45 ) ;
#151 = CARTESIAN_POINT ( 'NONE',  ( 50.06500000000000483, 52.57000000000009976, 30.00000000000000000 ) ) ;
#152 = ORIENTED_EDGE ( 'NONE', *, *, #541, .F. ) ;
#153 =( LENGTH_UNIT ( ) NAMED_UNIT ( * ) SI_UNIT ( .MILLI., .METRE. ) );
#154 = AXIS2_PLACEMENT_3D ( 'NONE', #241, #475, #430 ) ;
#155 = CARTESIAN_POINT ( 'NONE',  ( 2.999999999999999112, 0.000000000000000000, 30.00000000000000000 ) ) ;
#156 =( NAMED_UNIT ( * ) SI_UNIT ( $, .STERADIAN. ) SOLID_ANGLE_UNIT ( ) );
#157 = CARTESIAN_POINT ( 'NONE',  ( 2.924999999999989164, 52.57000000000000739, 0.000000000000000000 ) ) ;
#158 = DIRECTION ( 'NONE',  ( 1.196361017915039486E-16, -1.000000000000000000, -0.000000000000000000 ) ) ;
#159 = DIRECTION ( 'NONE',  ( 1.000000000000000000, 0.000000000000000000, 0.000000000000000000 ) ) ;
#160 = EDGE_LOOP ( 'NONE', ( #568, #47, #109, #658 ) ) ;
#161 = AXIS2_PLACEMENT_3D ( 'NONE', #43, #780, #718 ) ;
#162 = DIRECTION ( 'NONE',  ( 1.000000000000000000, 0.000000000000000000, 0.000000000000000000 ) ) ;
#163 = CARTESIAN_POINT ( 'NONE',  ( 48.01500000000000057, 29.00000000000000355, 40.00000000000000000 ) ) ;
#164 = DIRECTION ( 'NONE',  ( -0.000000000000000000, -0.000000000000000000, 1.000000000000000000 ) ) ;
#165 = EDGE_LOOP ( 'NONE', ( #523, #709, #505, #377 ) ) ;
#166 = CIRCLE ( 'NONE', #245, 4.004999999999998117 ) ;
#167 = ORIENTED_EDGE ( 'NONE', *, *, #699, .F. ) ;
#168 = EDGE_CURVE ( 'NONE', #483, #626, #243, .T. ) ;
#169 = CARTESIAN_POINT ( 'NONE',  ( 55.07500000000000284, 52.57000000000009976, 30.00000000000000000 ) ) ;
#170 = LINE ( 'NONE', #652, #396 ) ;
#171 = ORIENTED_EDGE ( 'NONE', *, *, #91, .F. ) ;
#172 = DIRECTION ( 'NONE',  ( 0.000000000000000000, 0.000000000000000000, 1.000000000000000000 ) ) ;
#173 = STYLED_ITEM ( 'NONE', ( #408 ), #256 ) ;
#174 = ADVANCED_FACE ( 'NONE', ( #352 ), #236, .F. ) ;
#175 = ORIENTED_EDGE ( 'NONE', *, *, #290, .T. ) ;
#176 = DIRECTION ( 'NONE',  ( -1.196361017915039486E-16, 1.000000000000000000, 0.000000000000000000 ) ) ;
#177 = CARTESIAN_POINT ( 'NONE',  ( 29.00000000000000000, 29.00000000000000000, 40.00000000000000000 ) ) ;
#178 = AXIS2_PLACEMENT_3D ( 'NONE', #758, #632, #266 ) ;
#179 = ADVANCED_FACE ( 'NONE', ( #594 ), #299, .T. ) ;
#180 = LINE ( 'NONE', #361, #781 ) ;
#181 = CARTESIAN_POINT ( 'NONE',  ( -6.579985598532717000E-15, 55.00000000000000000, 30.00000000000000000 ) ) ;
#182 = CYLINDRICAL_SURFACE ( 'NONE', #413, 2.505000000000000338 ) ;
#183 = CARTESIAN_POINT ( 'NONE',  ( 52.57000000000000739, 52.57000000000009976, 30.00000000000000000 ) ) ;
#184 = ORIENTED_EDGE ( 'NONE', *, *, #366, .F. ) ;
#185 = EDGE_CURVE ( 'NONE', #678, #713, #115, .T. ) ;
#186 = CARTESIAN_POINT ( 'NONE',  ( 58.00000000000000000, 3.000000000000000000, 30.00000000000000000 ) ) ;
#187 = AXIS2_PLACEMENT_3D ( 'NONE', #282, #102, #39 ) ;
#188 = CARTESIAN_POINT ( 'NONE',  ( 9.984999999999997655, 29.00000000000000000, 40.00000000000000000 ) ) ;
#189 = ORIENTED_EDGE ( 'NONE', *, *, #699, .T. ) ;
#190 = VERTEX_POINT ( 'NONE', #186 ) ;
#191 = FACE_OUTER_BOUND ( 'NONE', #106, .T. ) ;
#192 = AXIS2_PLACEMENT_3D ( 'NONE', #558, #9, #750 ) ;
#193 = ORIENTED_EDGE ( 'NONE', *, *, #168, .T. ) ;
#194 = ORIENTED_EDGE ( 'NONE', *, *, #546, .F. ) ;
#195 = CIRCLE ( 'NONE', #700, 3.000000000000002665 ) ;
#196 = CARTESIAN_POINT ( 'NONE',  ( 2.999999999999993339, 55.00000000000000000, 30.00000000000000000 ) ) ;
#197 = EDGE_CURVE ( 'NONE', #316, #67, #550, .T. ) ;
#198 = DIRECTION ( 'NONE',  ( -0.000000000000000000, -0.000000000000000000, 1.000000000000000000 ) ) ;
#199 = CARTESIAN_POINT ( 'NONE',  ( 33.00500000000000256, 29.00000000000000000, 15.00000000000000000 ) ) ;
#200 = DIRECTION ( 'NONE',  ( 0.000000000000000000, 0.000000000000000000, 1.000000000000000000 ) ) ;
#201 = ORIENTED_EDGE ( 'NONE', *, *, #446, .T. ) ;
#202 = DIRECTION ( 'NONE',  ( 0.000000000000000000, 0.000000000000000000, 1.000000000000000000 ) ) ;
#203 = PLANE ( 'NONE',  #472 ) ;
#204 = ORIENTED_EDGE ( 'NONE', *, *, #279, .F. ) ;
#205 = DIRECTION ( 'NONE',  ( -0.000000000000000000, -0.000000000000000000, 1.000000000000000000 ) ) ;
#206 = CYLINDRICAL_SURFACE ( 'NONE', #715, 2.505000000000000338 ) ;
#207 = ORIENTED_EDGE ( 'NONE', *, *, #714, .T. ) ;
#208 = EDGE_CURVE ( 'NONE', #67, #773, #390, .T. ) ;
#209 = ORIENTED_EDGE ( 'NONE', *, *, #541, .T. ) ;
#210 = CIRCLE ( 'NONE', #103, 2.505000000000000338 ) ;
#211 = CARTESIAN_POINT ( 'NONE',  ( 55.00000000000000000, 0.000000000000000000, 30.00000000000000000 ) ) ;
#212 = DIRECTION ( 'NONE',  ( -0.000000000000000000, -0.000000000000000000, 1.000000000000000000 ) ) ;
#213 = EDGE_LOOP ( 'NONE', ( #229, #259, #14, #468 ) ) ;
#214 = PRESENTATION_STYLE_ASSIGNMENT (( #511 ) ) ;
#215 = DIRECTION ( 'NONE',  ( -1.000000000000000000, -1.196361017915039486E-16, 0.000000000000000000 ) ) ;
#216 = ORIENTED_EDGE ( 'NONE', *, *, #546, .T. ) ;
#217 = CARTESIAN_POINT ( 'NONE',  ( 55.07500000000000284, 52.57000000000009976, 0.000000000000000000 ) ) ;
#218 = AXIS2_PLACEMENT_3D ( 'NONE', #105, #701, #772 ) ;
#219 = EDGE_CURVE ( 'NONE', #302, #395, #2, .T. ) ;
#220 = CARTESIAN_POINT ( 'NONE',  ( 50.06500000000000483, 5.430000000000100968, 0.000000000000000000 ) ) ;
#221 = ORIENTED_EDGE ( 'NONE', *, *, #112, .F. ) ;
#222 = DIRECTION ( 'NONE',  ( 0.000000000000000000, 0.000000000000000000, 1.000000000000000000 ) ) ;
#223 = DIRECTION ( 'NONE',  ( -0.000000000000000000, -0.000000000000000000, -1.000000000000000000 ) ) ;
#224 = DIRECTION ( 'NONE',  ( 0.000000000000000000, 0.000000000000000000, -1.000000000000000000 ) ) ;
#225 = ORIENTED_EDGE ( 'NONE', *, *, #557, .T. ) ;
#226 = AXIS2_PLACEMENT_3D ( 'NONE', #723, #172, #414 ) ;
#227 = SURFACE_STYLE_USAGE ( .BOTH. , #97 ) ;
#228 = UNCERTAINTY_MEASURE_WITH_UNIT (LENGTH_MEASURE( 1.000000000000000082E-05 ), #528, 'distance_accuracy_value', 'NONE');
#229 = ORIENTED_EDGE ( 'NONE', *, *, #787, .F. ) ;
#230 = ADVANCED_FACE ( 'NONE', ( #524 ), #459, .T. ) ;
#231 = CARTESIAN_POINT ( 'NONE',  ( 55.07500000000000284, 5.430000000000100968, 0.000000000000000000 ) ) ;
#232 = AXIS2_PLACEMENT_3D ( 'NONE', #460, #98, #159 ) ;
#233 = DIRECTION ( 'NONE',  ( 0.000000000000000000, 0.000000000000000000, 1.000000000000000000 ) ) ;
#234 = DIRECTION ( 'NONE',  ( 0.000000000000000000, 0.000000000000000000, 1.000000000000000000 ) ) ;
#235 = ORIENTED_EDGE ( 'NONE', *, *, #650, .T. ) ;
#236 = CYLINDRICAL_SURFACE ( 'NONE', #161, 2.505000000000000338 ) ;
#237 = DIRECTION ( 'NONE',  ( -0.000000000000000000, -0.000000000000000000, 1.000000000000000000 ) ) ;
#238 = ORIENTED_EDGE ( 'NONE', *, *, #426, .F. ) ;
#239 = CARTESIAN_POINT ( 'NONE',  ( 55.00000000000000000, 2.999999999999999556, 30.00000000000000000 ) ) ;
#240 = ADVANCED_FACE ( 'NONE', ( #289 ), #512, .T. ) ;
#241 = CARTESIAN_POINT ( 'NONE',  ( 54.99999999999999289, 55.00000000000000000, 30.00000000000000000 ) ) ;
#242 = VERTEX_POINT ( 'NONE', #157 ) ;
#243 = LINE ( 'NONE', #477, #251 ) ;
#244 = EDGE_CURVE ( 'NONE', #617, #649, #771, .T. ) ;
#245 = AXIS2_PLACEMENT_3D ( 'NONE', #486, #602, #741 ) ;
#246 = FACE_BOUND ( 'NONE', #549, .T. ) ;
#247 = VERTEX_POINT ( 'NONE', #463 ) ;
#248 = DIRECTION ( 'NONE',  ( 0.000000000000000000, 0.000000000000000000, 1.000000000000000000 ) ) ;
#249 = VERTEX_POINT ( 'NONE', #350 ) ;
#250 = ORIENTED_EDGE ( 'NONE', *, *, #91, .T. ) ;
#251 = VECTOR ( 'NONE', #124, 1000.000000000000000 ) ;
#252 = CARTESIAN_POINT ( 'NONE',  ( 7.934999999999990727, 52.57000000000000739, 0.000000000000000000 ) ) ;
#253 = PRODUCT_DEFINITION_CONTEXT ( 'detailed design', #704, 'design' ) ;
#254 = EDGE_LOOP ( 'NONE', ( #6, #759 ) ) ;
#255 = EDGE_CURVE ( 'NONE', #755, #752, #485, .T. ) ;
#256 = MANIFOLD_SOLID_BREP ( 'Ô²½Ç4', #589 ) ;
#257 = CARTESIAN_POINT ( 'NONE',  ( 29.00000000000000000, 29.00000000000000000, 40.00000000000000000 ) ) ;
#258 = AXIS2_PLACEMENT_3D ( 'NONE', #373, #676, #730 ) ;
#259 = ORIENTED_EDGE ( 'NONE', *, *, #739, .F. ) ;
#260 = ORIENTED_EDGE ( 'NONE', *, *, #197, .T. ) ;
#261 = VECTOR ( 'NONE', #466, 1000.000000000000000 ) ;
#262 = LINE ( 'NONE', #269, #17 ) ;
#263 = ORIENTED_EDGE ( 'NONE', *, *, #290, .F. ) ;
#264 = ORIENTED_EDGE ( 'NONE', *, *, #691, .F. ) ;
#265 = EDGE_CURVE ( 'NONE', #606, #736, #332, .T. ) ;
#266 = DIRECTION ( 'NONE',  ( -1.000000000000000000, 0.000000000000000000, -0.000000000000000000 ) ) ;
#267 = FACE_BOUND ( 'NONE', #434, .T. ) ;
#268 = ORIENTED_EDGE ( 'NONE', *, *, #96, .F. ) ;
#269 = CARTESIAN_POINT ( 'NONE',  ( 2.924999999999990052, 5.430000000000000604, 0.000000000000000000 ) ) ;
#270 = CIRCLE ( 'NONE', #465, 4.004999999999998117 ) ;
#271 =( NAMED_UNIT ( * ) SI_UNIT ( $, .STERADIAN. ) SOLID_ANGLE_UNIT ( ) );
#272 = CARTESIAN_POINT ( 'NONE',  ( 2.999999999999993339, 58.00000000000000000, 0.000000000000000000 ) ) ;
#273 = LINE ( 'NONE', #81, #439 ) ;
#274 = EDGE_LOOP ( 'NONE', ( #425, #748, #250, #399 ) ) ;
#275 = CARTESIAN_POINT ( 'NONE',  ( 7.934999999999990727, 52.57000000000000739, 0.000000000000000000 ) ) ;
#276 = DIRECTION ( 'NONE',  ( 1.000000000000000000, 0.000000000000000000, 0.000000000000000000 ) ) ;
#277 = CIRCLE ( 'NONE', #187, 3.000000000000002665 ) ;
#278 = VERTEX_POINT ( 'NONE', #774 ) ;
#279 = EDGE_CURVE ( 'NONE', #738, #606, #339, .T. ) ;
#280 = SURFACE_SIDE_STYLE ('',( #334 ) ) ;
#281 = DIRECTION ( 'NONE',  ( -0.000000000000000000, 0.000000000000000000, -1.000000000000000000 ) ) ;
#282 = CARTESIAN_POINT ( 'NONE',  ( 55.00000000000000000, 2.999999999999999556, 0.000000000000000000 ) ) ;
#283 = DIRECTION ( 'NONE',  ( 0.000000000000000000, 0.000000000000000000, 1.000000000000000000 ) ) ;
#284 = ORIENTED_EDGE ( 'NONE', *, *, #219, .F. ) ;
#285 = AXIS2_PLACEMENT_3D ( 'NONE', #57, #233, #601 ) ;
#286 = CARTESIAN_POINT ( 'NONE',  ( 2.924999999999990052, 5.430000000000000604, 0.000000000000000000 ) ) ;
#287 = DIRECTION ( 'NONE',  ( 1.000000000000000000, 0.000000000000000000, 0.000000000000000000 ) ) ;
#288 = VERTEX_POINT ( 'NONE', #272 ) ;
#289 = FACE_OUTER_BOUND ( 'NONE', #129, .T. ) ;
#290 = EDGE_CURVE ( 'NONE', #556, #773, #765, .T. ) ;
#291 = CIRCLE ( 'NONE', #389, 2.505000000000000338 ) ;
#292 = ORIENTED_EDGE ( 'NONE', *, *, #590, .T. ) ;
#293 = AXIS2_PLACEMENT_3D ( 'NONE', #522, #224, #461 ) ;
#294 = LINE ( 'NONE', #120, #448 ) ;
#295 = FILL_AREA_STYLE ('',( #595 ) ) ;
#296 = EDGE_CURVE ( 'NONE', #311, #355, #82, .T. ) ;
#297 = CYLINDRICAL_SURFACE ( 'NONE', #582, 2.505000000000000338 ) ;
#298 = EDGE_LOOP ( 'NONE', ( #786, #544 ) ) ;
#299 = CYLINDRICAL_SURFACE ( 'NONE', #226, 3.000000000000000000 ) ;
#300 = CIRCLE ( 'NONE', #407, 2.505000000000000338 ) ;
#301 =( LENGTH_UNIT ( ) NAMED_UNIT ( * ) SI_UNIT ( .MILLI., .METRE. ) );
#302 = VERTEX_POINT ( 'NONE', #286 ) ;
#303 = LINE ( 'NONE', #357, #422 ) ;
#304 = DIRECTION ( 'NONE',  ( 1.000000000000000000, 0.000000000000000000, 0.000000000000000000 ) ) ;
#305 = DIRECTION ( 'NONE',  ( 1.196361017915039486E-16, -1.000000000000000000, -0.000000000000000000 ) ) ;
#306 = APPLICATION_PROTOCOL_DEFINITION ( 'draft international standard', 'automotive_design', 1998, #538 ) ;
#307 = CYLINDRICAL_SURFACE ( 'NONE', #502, 4.004999999999998117 ) ;
#308 = EDGE_LOOP ( 'NONE', ( #756, #790, #201, #693 ) ) ;
#309 = CARTESIAN_POINT ( 'NONE',  ( 5.429999999999990834, 52.57000000000000739, 0.000000000000000000 ) ) ;
#310 = ORIENTED_EDGE ( 'NONE', *, *, #279, .T. ) ;
#311 = VERTEX_POINT ( 'NONE', #32 ) ;
#312 = CIRCLE ( 'NONE', #639, 2.505000000000000338 ) ;
#313 = ADVANCED_FACE ( 'NONE', ( #518, #573, #514, #404, #85 ), #698, .T. ) ;
#314 = LINE ( 'NONE', #421, #64 ) ;
#315 = ORIENTED_EDGE ( 'NONE', *, *, #763, .T. ) ;
#316 = VERTEX_POINT ( 'NONE', #27 ) ;
#317 = CIRCLE ( 'NONE', #71, 2.505000000000000338 ) ;
#318 = CARTESIAN_POINT ( 'NONE',  ( 0.000000000000000000, 0.000000000000000000, 30.00000000000000000 ) ) ;
#319 = PRODUCT_DEFINITION ( 'Î´Öª', '', #687, #253 ) ;
#320 = EDGE_LOOP ( 'NONE', ( #141, #362, #491, #703 ) ) ;
#321 = CARTESIAN_POINT ( 'NONE',  ( 48.01500000000000057, 29.00000000000000355, 30.00000000000000000 ) ) ;
#322 = CIRCLE ( 'NONE', #76, 2.505000000000000338 ) ;
#323 = FACE_OUTER_BOUND ( 'NONE', #767, .T. ) ;
#324 = EDGE_LOOP ( 'NONE', ( #194, #167, #209, #406 ) ) ;
#325 = EDGE_LOOP ( 'NONE', ( #677, #462, #777, #130 ) ) ;
#326 = EDGE_CURVE ( 'NONE', #278, #24, #277, .T. ) ;
#327 = CIRCLE ( 'NONE', #664, 2.505000000000000338 ) ;
#328 = CARTESIAN_POINT ( 'NONE',  ( 54.99999999999999289, 55.00000000000000000, 30.00000000000000000 ) ) ;
#329 = CARTESIAN_POINT ( 'NONE',  ( 0.000000000000000000, 0.000000000000000000, 0.000000000000000000 ) ) ;
#330 = VERTEX_POINT ( 'NONE', #455 ) ;
#331 = CARTESIAN_POINT ( 'NONE',  ( 5.429999999999990834, 52.57000000000000739, 0.000000000000000000 ) ) ;
#332 = CIRCLE ( 'NONE', #427, 3.000000000000000000 ) ;
#333 = FACE_OUTER_BOUND ( 'NONE', #402, .T. ) ;
#334 = SURFACE_STYLE_FILL_AREA ( #705 ) ;
#335 = LINE ( 'NONE', #211, #732 ) ;
#336 = EDGE_LOOP ( 'NONE', ( #29, #238, #358, #783 ) ) ;
#337 = CIRCLE ( 'NONE', #348, 19.01500000000000057 ) ;
#338 = DIRECTION ( 'NONE',  ( -0.000000000000000000, -0.000000000000000000, 1.000000000000000000 ) ) ;
#339 = LINE ( 'NONE', #344, #591 ) ;
#340 = CARTESIAN_POINT ( 'NONE',  ( 54.99999999999998579, 0.000000000000000000, 30.00000000000000000 ) ) ;
#341 = FACE_OUTER_BOUND ( 'NONE', #324, .T. ) ;
#342 = DIRECTION ( 'NONE',  ( 1.000000000000000000, 0.000000000000000000, 0.000000000000000000 ) ) ;
#343 = ORIENTED_EDGE ( 'NONE', *, *, #185, .F. ) ;
#344 = CARTESIAN_POINT ( 'NONE',  ( 0.000000000000000000, 0.000000000000000000, 30.00000000000000000 ) ) ;
#345 = DIRECTION ( 'NONE',  ( -0.000000000000000000, -0.000000000000000000, 1.000000000000000000 ) ) ;
#346 = CARTESIAN_POINT ( 'NONE',  ( 57.99999999999999289, 54.99999999999998579, 30.00000000000000000 ) ) ;
#347 = VERTEX_POINT ( 'NONE', #576 ) ;
#348 = AXIS2_PLACEMENT_3D ( 'NONE', #644, #521, #287 ) ;
#349 = EDGE_CURVE ( 'NONE', #445, #370, #760, .T. ) ;
#350 = CARTESIAN_POINT ( 'NONE',  ( 54.99999999999997868, 58.00000000000000000, 0.000000000000000000 ) ) ;
#351 = ORIENTED_EDGE ( 'NONE', *, *, #123, .F. ) ;
#352 = FACE_OUTER_BOUND ( 'NONE', #213, .T. ) ;
#353 = ADVANCED_FACE ( 'NONE', ( #484 ), #740, .F. ) ;
#354 = DIRECTION ( 'NONE',  ( 1.000000000000000000, 0.000000000000000000, 0.000000000000000000 ) ) ;
#355 = VERTEX_POINT ( 'NONE', #744 ) ;
#356 = VECTOR ( 'NONE', #507, 1000.000000000000000 ) ;
#357 = CARTESIAN_POINT ( 'NONE',  ( 0.000000000000000000, 0.000000000000000000, 0.000000000000000000 ) ) ;
#358 = ORIENTED_EDGE ( 'NONE', *, *, #349, .T. ) ;
#359 = CARTESIAN_POINT ( 'NONE',  ( 57.99999999999999289, 55.00000000000000000, 30.00000000000000000 ) ) ;
#360 = VECTOR ( 'NONE', #223, 1000.000000000000000 ) ;
#361 = CARTESIAN_POINT ( 'NONE',  ( -6.938893903907228378E-15, 58.00000000000000000, 0.000000000000000000 ) ) ;
#362 = ORIENTED_EDGE ( 'NONE', *, *, #482, .T. ) ;
#363 = EDGE_CURVE ( 'NONE', #374, #738, #724, .T. ) ;
#364 = LINE ( 'NONE', #181, #600 ) ;
#365 = DIRECTION ( 'NONE',  ( 1.000000000000000000, 0.000000000000000000, 0.000000000000000000 ) ) ;
#366 = EDGE_CURVE ( 'NONE', #553, #247, #656, .T. ) ;
#367 = VECTOR ( 'NONE', #451, 1000.000000000000000 ) ;
#368 = DIRECTION ( 'NONE',  ( -0.000000000000000000, -0.000000000000000000, -1.000000000000000000 ) ) ;
#369 = CARTESIAN_POINT ( 'NONE',  ( 29.00000000000000000, 29.00000000000000000, 15.00000000000000000 ) ) ;
#370 = VERTEX_POINT ( 'NONE', #712 ) ;
#371 = ADVANCED_FACE ( 'NONE', ( #792 ), #182, .F. ) ;
#372 = VECTOR ( 'NONE', #92, 1000.000000000000000 ) ;
#373 = CARTESIAN_POINT ( 'NONE',  ( 29.00000000000000000, 29.00000000000000000, 15.00000000000000000 ) ) ;
#374 = VERTEX_POINT ( 'NONE', #68 ) ;
#375 = DIRECTION ( 'NONE',  ( 1.000000000000000000, 0.000000000000000000, 0.000000000000000000 ) ) ;
#376 = CARTESIAN_POINT ( 'NONE',  ( 7.934999999999990727, 5.430000000000000604, 30.00000000000000000 ) ) ;
#377 = ORIENTED_EDGE ( 'NONE', *, *, #349, .F. ) ;
#378 = AXIS2_PLACEMENT_3D ( 'NONE', #146, #495, #73 ) ;
#379 = FACE_OUTER_BOUND ( 'NONE', #160, .T. ) ;
#380 = DIRECTION ( 'NONE',  ( -0.000000000000000000, -0.000000000000000000, 1.000000000000000000 ) ) ;
#381 = ORIENTED_EDGE ( 'NONE', *, *, #366, .T. ) ;
#382 = EDGE_CURVE ( 'NONE', #242, #445, #317, .T. ) ;
#383 = CARTESIAN_POINT ( 'NONE',  ( 54.99999999999999289, 55.00000000000000000, 0.000000000000000000 ) ) ;
#384 = AXIS2_PLACEMENT_3D ( 'NONE', #28, #283, #515 ) ;
#385 = CARTESIAN_POINT ( 'NONE',  ( 5.429999999999990834, 52.57000000000000739, 30.00000000000000000 ) ) ;
#386 = CARTESIAN_POINT ( 'NONE',  ( 48.01500000000000057, 29.00000000000000355, 40.00000000000000000 ) ) ;
#387 = CARTESIAN_POINT ( 'NONE',  ( 29.00000000000000000, 29.00000000000000000, 40.00000000000000000 ) ) ;
#388 = ORIENTED_EDGE ( 'NONE', *, *, #675, .T. ) ;
#389 = AXIS2_PLACEMENT_3D ( 'NONE', #385, #200, #79 ) ;
#390 = CIRCLE ( 'NONE', #44, 4.004999999999998117 ) ;
#391 = CARTESIAN_POINT ( 'NONE',  ( 29.00000000000000000, 29.00000000000000000, 40.00000000000000000 ) ) ;
#392 = ADVANCED_FACE ( 'NONE', ( #53 ), #481, .T. ) ;
#393 = CARTESIAN_POINT ( 'NONE',  ( 29.00000000000000000, 29.00000000000000000, 40.00000000000000000 ) ) ;
#394 = CIRCLE ( 'NONE', #770, 2.505000000000000338 ) ;
#395 = VERTEX_POINT ( 'NONE', #58 ) ;
#396 = VECTOR ( 'NONE', #411, 1000.000000000000000 ) ;
#397 = CARTESIAN_POINT ( 'NONE',  ( 2.999999999999999112, 2.999999999999999556, 30.00000000000000000 ) ) ;
#398 = CARTESIAN_POINT ( 'NONE',  ( 52.57000000000000739, 5.430000000000100968, 30.00000000000000000 ) ) ;
#399 = ORIENTED_EDGE ( 'NONE', *, *, #660, .T. ) ;
#400 = CARTESIAN_POINT ( 'NONE',  ( 52.57000000000000739, 5.430000000000100968, 0.000000000000000000 ) ) ;
#401 = CARTESIAN_POINT ( 'NONE',  ( 57.99999999999999289, 54.99999999999998579, 0.000000000000000000 ) ) ;
#402 = EDGE_LOOP ( 'NONE', ( #310, #526, #742, #473, #575, #292, #578, #666 ) ) ;
#403 = EDGE_CURVE ( 'NONE', #762, #458, #300, .T. ) ;
#404 = FACE_BOUND ( 'NONE', #716, .T. ) ;
#405 = DIRECTION ( 'NONE',  ( 0.000000000000000000, 0.000000000000000000, 1.000000000000000000 ) ) ;
#406 = ORIENTED_EDGE ( 'NONE', *, *, #123, .T. ) ;
#407 = AXIS2_PLACEMENT_3D ( 'NONE', #613, #610, #304 ) ;
#408 = PRESENTATION_STYLE_ASSIGNMENT (( #227 ) ) ;
#409 = SHAPE_DEFINITION_REPRESENTATION ( #727, #478 ) ;
#410 = ORIENTED_EDGE ( 'NONE', *, *, #416, .T. ) ;
#411 = DIRECTION ( 'NONE',  ( -0.000000000000000000, -0.000000000000000000, 1.000000000000000000 ) ) ;
#412 = EDGE_LOOP ( 'NONE', ( #268, #74 ) ) ;
#413 = AXIS2_PLACEMENT_3D ( 'NONE', #681, #205, #132 ) ;
#414 = DIRECTION ( 'NONE',  ( 1.000000000000000000, 0.000000000000000000, 0.000000000000000000 ) ) ;
#415 =( NAMED_UNIT ( * ) SI_UNIT ( $, .STERADIAN. ) SOLID_ANGLE_UNIT ( ) );
#416 = EDGE_CURVE ( 'NONE', #347, #795, #210, .T. ) ;
#417 = FACE_OUTER_BOUND ( 'NONE', #684, .T. ) ;
#418 = CARTESIAN_POINT ( 'NONE',  ( 52.57000000000000739, 52.57000000000009976, 30.00000000000000000 ) ) ;
#419 = AXIS2_PLACEMENT_3D ( 'NONE', #383, #23, #574 ) ;
#420 = ADVANCED_FACE ( 'NONE', ( #480 ), #661, .T. ) ;
#421 = CARTESIAN_POINT ( 'NONE',  ( 2.999999999999999112, 0.000000000000000000, 30.00000000000000000 ) ) ;
#422 = VECTOR ( 'NONE', #305, 1000.000000000000000 ) ;
#423 = DIRECTION ( 'NONE',  ( 1.000000000000000000, 0.000000000000000000, 0.000000000000000000 ) ) ;
#424 = DIRECTION ( 'NONE',  ( -1.000000000000000000, 0.000000000000000000, 0.000000000000000000 ) ) ;
#425 = ORIENTED_EDGE ( 'NONE', *, *, #714, .F. ) ;
#426 = EDGE_CURVE ( 'NONE', #445, #242, #394, .T. ) ;
#427 = AXIS2_PLACEMENT_3D ( 'NONE', #471, #345, #520 ) ;
#428 = FACE_OUTER_BOUND ( 'NONE', #50, .T. ) ;
#429 = AXIS2_PLACEMENT_3D ( 'NONE', #318, #126, #543 ) ;
#430 = DIRECTION ( 'NONE',  ( 1.000000000000000000, 0.000000000000000000, 0.000000000000000000 ) ) ;
#431 = ORIENTED_EDGE ( 'NONE', *, *, #244, .F. ) ;
#432 = ORIENTED_EDGE ( 'NONE', *, *, #75, .F. ) ;
#433 = DIRECTION ( 'NONE',  ( -1.000000000000000000, 0.000000000000000000, 0.000000000000000000 ) ) ;
#434 = EDGE_LOOP ( 'NONE', ( #672, #11 ) ) ;
#435 = CARTESIAN_POINT ( 'NONE',  ( -6.938893903907228378E-15, 58.00000000000000000, 30.00000000000000000 ) ) ;
#436 = DIRECTION ( 'NONE',  ( 1.000000000000000000, 0.000000000000000000, 0.000000000000000000 ) ) ;
#437 = ORIENTED_EDGE ( 'NONE', *, *, #685, .T. ) ;
#438 = DIRECTION ( 'NONE',  ( -0.000000000000000000, -0.000000000000000000, 1.000000000000000000 ) ) ;
#439 = VECTOR ( 'NONE', #567, 1000.000000000000000 ) ;
#440 = FACE_OUTER_BOUND ( 'NONE', #20, .T. ) ;
#441 = ORIENTED_EDGE ( 'NONE', *, *, #255, .T. ) ;
#442 = MECHANICAL_DESIGN_GEOMETRIC_PRESENTATION_REPRESENTATION (  '', ( #489 ), #637 ) ;
#443 = ORIENTED_EDGE ( 'NONE', *, *, #86, .T. ) ;
#444 = DIRECTION ( 'NONE',  ( -0.000000000000000000, -0.000000000000000000, 1.000000000000000000 ) ) ;
#445 = VERTEX_POINT ( 'NONE', #252 ) ;
#446 = EDGE_CURVE ( 'NONE', #598, #114, #648, .T. ) ;
#447 = AXIS2_PLACEMENT_3D ( 'NONE', #139, #380, #630 ) ;
#448 = VECTOR ( 'NONE', #55, 1000.000000000000000 ) ;
#449 = PLANE ( 'NONE',  #116 ) ;
#450 = CARTESIAN_POINT ( 'NONE',  ( 50.06500000000000483, 5.430000000000100968, 0.000000000000000000 ) ) ;
#451 = DIRECTION ( 'NONE',  ( -0.000000000000000000, -0.000000000000000000, 1.000000000000000000 ) ) ;
#452 = PLANE ( 'NONE',  #516 ) ;
#453 = VECTOR ( 'NONE', #121, 1000.000000000000000 ) ;
#454 = CARTESIAN_POINT ( 'NONE',  ( 29.00000000000000000, 29.00000000000000000, 40.00000000000000000 ) ) ;
#455 = CARTESIAN_POINT ( 'NONE',  ( -6.579985598532715423E-15, 54.99999999999998579, 0.000000000000000000 ) ) ;
#456 = FACE_OUTER_BOUND ( 'NONE', #320, .T. ) ;
#457 = EDGE_CURVE ( 'NONE', #736, #553, #314, .T. ) ;
#458 = VERTEX_POINT ( 'NONE', #376 ) ;
#459 = CYLINDRICAL_SURFACE ( 'NONE', #565, 19.01500000000000412 ) ;
#460 = CARTESIAN_POINT ( 'NONE',  ( 29.00000000000000000, 29.00000000000000000, 40.00000000000000000 ) ) ;
#461 = DIRECTION ( 'NONE',  ( -1.000000000000000000, 0.000000000000000000, 0.000000000000000000 ) ) ;
#462 = ORIENTED_EDGE ( 'NONE', *, *, #326, .F. ) ;
#463 = CARTESIAN_POINT ( 'NONE',  ( -3.589083053745117225E-16, 2.999999999999999112, 0.000000000000000000 ) ) ;
#464 = ORIENTED_EDGE ( 'NONE', *, *, #642, .F. ) ;
#465 = AXIS2_PLACEMENT_3D ( 'NONE', #393, #78, #636 ) ;
#466 = DIRECTION ( 'NONE',  ( -0.000000000000000000, -0.000000000000000000, 1.000000000000000000 ) ) ;
#467 = LINE ( 'NONE', #695, #35 ) ;
#468 = ORIENTED_EDGE ( 'NONE', *, *, #96, .T. ) ;
#469 = ADVANCED_FACE ( 'NONE', ( #417 ), #547, .T. ) ;
#470 = DIRECTION ( 'NONE',  ( 0.000000000000000000, 0.000000000000000000, 1.000000000000000000 ) ) ;
#471 = CARTESIAN_POINT ( 'NONE',  ( 2.999999999999999112, 2.999999999999999556, 30.00000000000000000 ) ) ;
#472 = AXIS2_PLACEMENT_3D ( 'NONE', #559, #10, #143 ) ;
#473 = ORIENTED_EDGE ( 'NONE', *, *, #117, .T. ) ;
#474 = CARTESIAN_POINT ( 'NONE',  ( 24.99500000000000099, 29.00000000000000000, 40.00000000000000000 ) ) ;
#475 = DIRECTION ( 'NONE',  ( 0.000000000000000000, 0.000000000000000000, 1.000000000000000000 ) ) ;
#476 = EDGE_LOOP ( 'NONE', ( #510, #587, #437, #530 ) ) ;
#477 = CARTESIAN_POINT ( 'NONE',  ( 9.984999999999997655, 29.00000000000000000, 40.00000000000000000 ) ) ;
#478 = ADVANCED_BREP_SHAPE_REPRESENTATION ( 'zhoutao', ( #256, #285 ), #118 ) ;
#479 = ADVANCED_FACE ( 'NONE', ( #128 ), #307, .F. ) ;
#480 = FACE_OUTER_BOUND ( 'NONE', #42, .T. ) ;
#481 = CYLINDRICAL_SURFACE ( 'NONE', #757, 19.01500000000000412 ) ;
#482 = EDGE_CURVE ( 'NONE', #190, #278, #665, .T. ) ;
#483 = VERTEX_POINT ( 'NONE', #188 ) ;
#484 = FACE_OUTER_BOUND ( 'NONE', #308, .T. ) ;
#485 = CIRCLE ( 'NONE', #150, 2.505000000000000338 ) ;
#486 = CARTESIAN_POINT ( 'NONE',  ( 29.00000000000000000, 29.00000000000000000, 15.00000000000000000 ) ) ;
#487 = ORIENTED_EDGE ( 'NONE', *, *, #403, .F. ) ;
#488 = AXIS2_PLACEMENT_3D ( 'NONE', #398, #405, #342 ) ;
#489 = STYLED_ITEM ( 'NONE', ( #214 ), #478 ) ;
#490 = DIRECTION ( 'NONE',  ( 0.000000000000000000, 0.000000000000000000, 1.000000000000000000 ) ) ;
#491 = ORIENTED_EDGE ( 'NONE', *, *, #75, .T. ) ;
#492 = AXIS2_PLACEMENT_3D ( 'NONE', #239, #107, #659 ) ;
#493 = ADVANCED_FACE ( 'NONE', ( #428 ), #671, .F. ) ;
#494 = LINE ( 'NONE', #13, #372 ) ;
#495 = DIRECTION ( 'NONE',  ( 0.000000000000000000, 0.000000000000000000, 1.000000000000000000 ) ) ;
#496 = ORIENTED_EDGE ( 'NONE', *, *, #51, .F. ) ;
#497 = VERTEX_POINT ( 'NONE', #551 ) ;
#498 = PRESENTATION_LAYER_ASSIGNMENT (  '', '', ( #173 ) ) ;
#499 = CARTESIAN_POINT ( 'NONE',  ( 52.57000000000000739, 5.430000000000100968, 0.000000000000000000 ) ) ;
#500 = ORIENTED_EDGE ( 'NONE', *, *, #219, .T. ) ;
#501 = CARTESIAN_POINT ( 'NONE',  ( 2.999999999999999112, 0.000000000000000000, 0.000000000000000000 ) ) ;
#502 = AXIS2_PLACEMENT_3D ( 'NONE', #69, #797, #365 ) ;
#503 = EDGE_CURVE ( 'NONE', #249, #288, #180, .T. ) ;
#504 = CARTESIAN_POINT ( 'NONE',  ( -3.589083053745117225E-16, 2.999999999999999112, 30.00000000000000000 ) ) ;
#505 = ORIENTED_EDGE ( 'NONE', *, *, #717, .T. ) ;
#506 = EDGE_CURVE ( 'NONE', #316, #556, #166, .T. ) ;
#507 = DIRECTION ( 'NONE',  ( -0.000000000000000000, -0.000000000000000000, 1.000000000000000000 ) ) ;
#508 =( GEOMETRIC_REPRESENTATION_CONTEXT ( 3 ) GLOBAL_UNCERTAINTY_ASSIGNED_CONTEXT ( ( #228 ) ) GLOBAL_UNIT_ASSIGNED_CONTEXT ( ( #528, #720, #415 ) ) REPRESENTATION_CONTEXT ( 'NONE', 'WORKASPACE' ) );
#509 = DIRECTION ( 'NONE',  ( 0.000000000000000000, 0.000000000000000000, 1.000000000000000000 ) ) ;
#510 = ORIENTED_EDGE ( 'NONE', *, *, #675, .F. ) ;
#511 = SURFACE_STYLE_USAGE ( .BOTH. , #280 ) ;
#512 = CYLINDRICAL_SURFACE ( 'NONE', #125, 3.000000000000000000 ) ;
#513 = ADVANCED_FACE ( 'NONE', ( #191 ), #616, .F. ) ;
#514 = FACE_BOUND ( 'NONE', #254, .T. ) ;
#515 = DIRECTION ( 'NONE',  ( 1.000000000000000000, 0.000000000000000000, 0.000000000000000000 ) ) ;
#516 = AXIS2_PLACEMENT_3D ( 'NONE', #766, #215, #708 ) ;
#517 = ORIENTED_EDGE ( 'NONE', *, *, #296, .F. ) ;
#518 = FACE_BOUND ( 'NONE', #798, .T. ) ;
#519 = ADVANCED_FACE ( 'NONE', ( #794, #246, #555, #668, #5, #333 ), #87, .F. ) ;
#520 = DIRECTION ( 'NONE',  ( -1.000000000000000000, 0.000000000000000000, 0.000000000000000000 ) ) ;
#521 = DIRECTION ( 'NONE',  ( 0.000000000000000000, 0.000000000000000000, 1.000000000000000000 ) ) ;
#522 = CARTESIAN_POINT ( 'NONE',  ( 2.999999999999999112, 2.999999999999999556, 0.000000000000000000 ) ) ;
#523 = ORIENTED_EDGE ( 'NONE', *, *, #382, .F. ) ;
#524 = FACE_OUTER_BOUND ( 'NONE', #127, .T. ) ;
#525 = AXIS2_PLACEMENT_3D ( 'NONE', #22, #93, #707 ) ;
#526 = ORIENTED_EDGE ( 'NONE', *, *, #265, .T. ) ;
#527 = FACE_OUTER_BOUND ( 'NONE', #325, .T. ) ;
#528 =( LENGTH_UNIT ( ) NAMED_UNIT ( * ) SI_UNIT ( .MILLI., .METRE. ) );
#529 = CARTESIAN_POINT ( 'NONE',  ( -6.938893903907228378E-15, 58.00000000000000000, 30.00000000000000000 ) ) ;
#530 = ORIENTED_EDGE ( 'NONE', *, *, #168, .F. ) ;
#531 = EDGE_CURVE ( 'NONE', #249, #678, #90, .T. ) ;
#532 = AXIS2_PLACEMENT_3D ( 'NONE', #369, #65, #746 ) ;
#533 = CIRCLE ( 'NONE', #612, 2.505000000000000338 ) ;
#534 = LINE ( 'NONE', #231, #261 ) ;
#535 =( NAMED_UNIT ( * ) PLANE_ANGLE_UNIT ( ) SI_UNIT ( $, .RADIAN. ) );
#536 = ORIENTED_EDGE ( 'NONE', *, *, #457, .T. ) ;
#537 = ADVANCED_FACE ( 'NONE', ( #379 ), #449, .F. ) ;
#538 = APPLICATION_CONTEXT ( 'automotive_design' ) ;
#539 = DIRECTION ( 'NONE',  ( 1.000000000000000000, 0.000000000000000000, 0.000000000000000000 ) ) ;
#540 = CARTESIAN_POINT ( 'NONE',  ( 5.429999999999990834, 5.430000000000000604, 30.00000000000000000 ) ) ;
#541 = EDGE_CURVE ( 'NONE', #395, #458, #273, .T. ) ;
#542 = APPLICATION_PROTOCOL_DEFINITION ( 'draft international standard', 'automotive_design', 1998, #704 ) ;
#543 = DIRECTION ( 'NONE',  ( -1.196361017915039486E-16, 1.000000000000000000, 0.000000000000000000 ) ) ;
#544 = ORIENTED_EDGE ( 'NONE', *, *, #717, .F. ) ;
#545 = AXIS2_PLACEMENT_3D ( 'NONE', #183, #737, #789 ) ;
#546 = EDGE_CURVE ( 'NONE', #302, #762, #262, .T. ) ;
#547 = CYLINDRICAL_SURFACE ( 'NONE', #154, 3.000000000000002665 ) ;
#548 = ORIENTED_EDGE ( 'NONE', *, *, #739, .T. ) ;
#549 = EDGE_LOOP ( 'NONE', ( #351, #487 ) ) ;
#550 = LINE ( 'NONE', #745, #670 ) ;
#551 = CARTESIAN_POINT ( 'NONE',  ( 54.99999999999997868, 58.00000000000000000, 30.00000000000000000 ) ) ;
#552 = ORIENTED_EDGE ( 'NONE', *, *, #763, .F. ) ;
#553 = VERTEX_POINT ( 'NONE', #501 ) ;
#554 = AXIS2_PLACEMENT_3D ( 'NONE', #196, #99, #583 ) ;
#555 = FACE_BOUND ( 'NONE', #298, .T. ) ;
#556 = VERTEX_POINT ( 'NONE', #199 ) ;
#557 = EDGE_CURVE ( 'NONE', #483, #617, #33, .T. ) ;
#558 = CARTESIAN_POINT ( 'NONE',  ( 2.999999999999993339, 55.00000000000000000, 0.000000000000000000 ) ) ;
#559 = CARTESIAN_POINT ( 'NONE',  ( 0.000000000000000000, 0.000000000000000000, 30.00000000000000000 ) ) ;
#560 = ORIENTED_EDGE ( 'NONE', *, *, #590, .F. ) ;
#561 = ORIENTED_EDGE ( 'NONE', *, *, #296, .T. ) ;
#562 = DIRECTION ( 'NONE',  ( 0.000000000000000000, -0.000000000000000000, -1.000000000000000000 ) ) ;
#563 = DIRECTION ( 'NONE',  ( 0.000000000000000000, 0.000000000000000000, 1.000000000000000000 ) ) ;
#564 = ORIENTED_EDGE ( 'NONE', *, *, #112, .T. ) ;
#565 = AXIS2_PLACEMENT_3D ( 'NONE', #454, #38, #101 ) ;
#566 = EDGE_CURVE ( 'NONE', #752, #755, #533, .T. ) ;
#567 = DIRECTION ( 'NONE',  ( -0.000000000000000000, -0.000000000000000000, 1.000000000000000000 ) ) ;
#568 = ORIENTED_EDGE ( 'NONE', *, *, #503, .T. ) ;
#569 = LINE ( 'NONE', #692, #743 ) ;
#570 = AXIS2_PLACEMENT_3D ( 'NONE', #391, #509, #142 ) ;
#571 = EDGE_LOOP ( 'NONE', ( #284, #216, #147, #152 ) ) ;
#572 = CYLINDRICAL_SURFACE ( 'NONE', #623, 2.505000000000000338 ) ;
#573 = FACE_BOUND ( 'NONE', #731, .T. ) ;
#574 = DIRECTION ( 'NONE',  ( -1.000000000000000000, 0.000000000000000000, 0.000000000000000000 ) ) ;
#575 = ORIENTED_EDGE ( 'NONE', *, *, #148, .T. ) ;
#576 = CARTESIAN_POINT ( 'NONE',  ( 50.06500000000000483, 52.57000000000009976, 0.000000000000000000 ) ) ;
#577 = CARTESIAN_POINT ( 'NONE',  ( -6.579985598532715423E-15, 54.99999999999998579, 30.00000000000000000 ) ) ;
#578 = ORIENTED_EDGE ( 'NONE', *, *, #776, .T. ) ;
#579 = EDGE_CURVE ( 'NONE', #24, #645, #335, .T. ) ;
#580 = DIRECTION ( 'NONE',  ( 1.000000000000000000, 0.000000000000000000, 0.000000000000000000 ) ) ;
#581 = DIRECTION ( 'NONE',  ( 0.000000000000000000, 0.000000000000000000, 1.000000000000000000 ) ) ;
#582 = AXIS2_PLACEMENT_3D ( 'NONE', #89, #338, #785 ) ;
#583 = DIRECTION ( 'NONE',  ( -1.000000000000000000, 1.387778780781445676E-14, 0.000000000000000000 ) ) ;
#584 = ORIENTED_EDGE ( 'NONE', *, *, #506, .T. ) ;
#585 = AXIS2_PLACEMENT_3D ( 'NONE', #782, #234, #354 ) ;
#586 = SURFACE_STYLE_FILL_AREA ( #295 ) ;
#587 = ORIENTED_EDGE ( 'NONE', *, *, #244, .T. ) ;
#588 = LINE ( 'NONE', #788, #719 ) ;
#589 = CLOSED_SHELL ( 'NONE', ( #646, #615, #8, #353, #479, #392, #240, #179, #60, #469, #513, #40, #729, #537, #519, #313, #230, #19, #493, #420, #174, #768, #749, #371 ) ) ;
#590 = EDGE_CURVE ( 'NONE', #713, #497, #195, .T. ) ;
#591 = VECTOR ( 'NONE', #158, 1000.000000000000000 ) ;
#592 = LINE ( 'NONE', #529, #77 ) ;
#593 = ORIENTED_EDGE ( 'NONE', *, *, #506, .F. ) ;
#594 = FACE_OUTER_BOUND ( 'NONE', #618, .T. ) ;
#595 = FILL_AREA_STYLE_COLOUR ( '', #778 ) ;
#596 = PRODUCT_RELATED_PRODUCT_CATEGORY ( 'part', '', ( #609 ) ) ;
#597 =( NAMED_UNIT ( * ) PLANE_ANGLE_UNIT ( ) SI_UNIT ( $, .RADIAN. ) );
#598 = VERTEX_POINT ( 'NONE', #151 ) ;
#599 = CIRCLE ( 'NONE', #232, 19.01500000000000057 ) ;
#600 = VECTOR ( 'NONE', #368, 1000.000000000000000 ) ;
#601 = DIRECTION ( 'NONE',  ( 1.000000000000000000, 0.000000000000000000, 0.000000000000000000 ) ) ;
#602 = DIRECTION ( 'NONE',  ( 0.000000000000000000, 0.000000000000000000, 1.000000000000000000 ) ) ;
#603 = EDGE_CURVE ( 'NONE', #242, #690, #569, .T. ) ;
#604 = DIRECTION ( 'NONE',  ( 1.000000000000000000, 0.000000000000000000, 0.000000000000000000 ) ) ;
#605 = DIRECTION ( 'NONE',  ( -0.000000000000000000, -0.000000000000000000, -1.000000000000000000 ) ) ;
#606 = VERTEX_POINT ( 'NONE', #504 ) ;
#607 = MECHANICAL_DESIGN_GEOMETRIC_PRESENTATION_REPRESENTATION (  '', ( #173 ), #508 ) ;
#608 = DIRECTION ( 'NONE',  ( 0.000000000000000000, 0.000000000000000000, 1.000000000000000000 ) ) ;
#609 = PRODUCT ( 'zhoutao', 'zhoutao', '', ( #793 ) ) ;
#610 = DIRECTION ( 'NONE',  ( 0.000000000000000000, 0.000000000000000000, 1.000000000000000000 ) ) ;
#611 = ORIENTED_EDGE ( 'NONE', *, *, #531, .F. ) ;
#612 = AXIS2_PLACEMENT_3D ( 'NONE', #16, #624, #276 ) ;
#613 = CARTESIAN_POINT ( 'NONE',  ( 5.429999999999990834, 5.430000000000000604, 30.00000000000000000 ) ) ;
#614 = ORIENTED_EDGE ( 'NONE', *, *, #655, .F. ) ;
#615 = ADVANCED_FACE ( 'NONE', ( #138 ), #206, .F. ) ;
#616 = PLANE ( 'NONE',  #429 ) ;
#617 = VERTEX_POINT ( 'NONE', #386 ) ;
#618 = EDGE_LOOP ( 'NONE', ( #614, #12, #669, #747 ) ) ;
#619 = FACE_OUTER_BOUND ( 'NONE', #722, .T. ) ;
#620 = DIRECTION ( 'NONE',  ( 1.000000000000000000, 0.000000000000000000, -0.000000000000000000 ) ) ;
#621 = ORIENTED_EDGE ( 'NONE', *, *, #197, .F. ) ;
#622 = CIRCLE ( 'NONE', #384, 2.505000000000000338 ) ;
#623 = AXIS2_PLACEMENT_3D ( 'NONE', #21, #237, #725 ) ;
#624 = DIRECTION ( 'NONE',  ( 0.000000000000000000, 0.000000000000000000, 1.000000000000000000 ) ) ;
#625 = LINE ( 'NONE', #329, #136 ) ;
#626 = VERTEX_POINT ( 'NONE', #629 ) ;
#627 = CIRCLE ( 'NONE', #37, 3.000000000000002665 ) ;
#628 = EDGE_CURVE ( 'NONE', #773, #67, #270, .T. ) ;
#629 = CARTESIAN_POINT ( 'NONE',  ( 9.984999999999997655, 29.00000000000000000, 30.00000000000000000 ) ) ;
#630 = DIRECTION ( 'NONE',  ( 1.000000000000000000, 0.000000000000000000, 0.000000000000000000 ) ) ;
#631 = AXIS2_PLACEMENT_3D ( 'NONE', #135, #131, #375 ) ;
#632 = DIRECTION ( 'NONE',  ( 0.000000000000000000, 0.000000000000000000, -1.000000000000000000 ) ) ;
#633 = ORIENTED_EDGE ( 'NONE', *, *, #31, .T. ) ;
#634 = DIRECTION ( 'NONE',  ( 0.000000000000000000, 0.000000000000000000, 1.000000000000000000 ) ) ;
#635 = CIRCLE ( 'NONE', #192, 3.000000000000000000 ) ;
#636 = DIRECTION ( 'NONE',  ( 1.000000000000000000, 0.000000000000000000, 0.000000000000000000 ) ) ;
#637 =( GEOMETRIC_REPRESENTATION_CONTEXT ( 3 ) GLOBAL_UNCERTAINTY_ASSIGNED_CONTEXT ( ( #41 ) ) GLOBAL_UNIT_ASSIGNED_CONTEXT ( ( #301, #535, #271 ) ) REPRESENTATION_CONTEXT ( 'NONE', 'WORKASPACE' ) );
#638 = CARTESIAN_POINT ( 'NONE',  ( 55.07500000000000284, 5.430000000000100968, 0.000000000000000000 ) ) ;
#639 = AXIS2_PLACEMENT_3D ( 'NONE', #540, #470, #423 ) ;
#640 = CARTESIAN_POINT ( 'NONE',  ( 33.00500000000000256, 29.00000000000000000, 15.00000000000000000 ) ) ;
#641 = CARTESIAN_POINT ( 'NONE',  ( 5.429999999999990834, 52.57000000000000739, 30.00000000000000000 ) ) ;
#642 = EDGE_CURVE ( 'NONE', #247, #606, #494, .T. ) ;
#643 = EDGE_LOOP ( 'NONE', ( #496, #381, #221, #235, #83, #134, #432, #100 ) ) ;
#644 = CARTESIAN_POINT ( 'NONE',  ( 29.00000000000000000, 29.00000000000000000, 30.00000000000000000 ) ) ;
#645 = VERTEX_POINT ( 'NONE', #340 ) ;
#646 = ADVANCED_FACE ( 'NONE', ( #619 ), #72, .F. ) ;
#647 = DIRECTION ( 'NONE',  ( 1.000000000000000000, 0.000000000000000000, 0.000000000000000000 ) ) ;
#648 = CIRCLE ( 'NONE', #545, 2.505000000000000338 ) ;
#649 = VERTEX_POINT ( 'NONE', #321 ) ;
#650 = EDGE_CURVE ( 'NONE', #330, #288, #635, .T. ) ;
#651 = DIRECTION ( 'NONE',  ( 1.000000000000000000, 0.000000000000000000, 0.000000000000000000 ) ) ;
#652 = CARTESIAN_POINT ( 'NONE',  ( 55.07500000000000284, 52.57000000000009976, 0.000000000000000000 ) ) ;
#653 = ORIENTED_EDGE ( 'NONE', *, *, #660, .F. ) ;
#654 = CARTESIAN_POINT ( 'NONE',  ( 58.00000000000000000, 0.000000000000000000, 30.00000000000000000 ) ) ;
#655 = EDGE_CURVE ( 'NONE', #288, #374, #753, .T. ) ;
#656 = CIRCLE ( 'NONE', #293, 3.000000000000000000 ) ;
#657 = UNCERTAINTY_MEASURE_WITH_UNIT (LENGTH_MEASURE( 1.000000000000000082E-05 ), #153, 'distance_accuracy_value', 'NONE');
#658 = ORIENTED_EDGE ( 'NONE', *, *, #691, .T. ) ;
#659 = DIRECTION ( 'NONE',  ( 1.000000000000000000, 0.000000000000000000, 0.000000000000000000 ) ) ;
#660 = EDGE_CURVE ( 'NONE', #355, #311, #48, .T. ) ;
#661 = PLANE ( 'NONE',  #532 ) ;
#662 = VECTOR ( 'NONE', #164, 1000.000000000000000 ) ;
#663 = DIRECTION ( 'NONE',  ( -1.000000000000000000, 0.000000000000000000, 0.000000000000000000 ) ) ;
#664 = AXIS2_PLACEMENT_3D ( 'NONE', #418, #608, #651 ) ;
#665 = LINE ( 'NONE', #119, #453 ) ;
#666 = ORIENTED_EDGE ( 'NONE', *, *, #363, .T. ) ;
#667 = DIRECTION ( 'NONE',  ( -1.196361017915039486E-16, 1.000000000000000000, 0.000000000000000000 ) ) ;
#668 = FACE_BOUND ( 'NONE', #412, .T. ) ;
#669 = ORIENTED_EDGE ( 'NONE', *, *, #86, .F. ) ;
#670 = VECTOR ( 'NONE', #198, 1000.000000000000000 ) ;
#671 = CYLINDRICAL_SURFACE ( 'NONE', #258, 4.004999999999998117 ) ;
#672 = ORIENTED_EDGE ( 'NONE', *, *, #628, .F. ) ;
#673 = ORIENTED_EDGE ( 'NONE', *, *, #566, .T. ) ;
#674 = AXIS2_PLACEMENT_3D ( 'NONE', #499, #438, #688 ) ;
#675 = EDGE_CURVE ( 'NONE', #617, #483, #599, .T. ) ;
#676 = DIRECTION ( 'NONE',  ( -0.000000000000000000, -0.000000000000000000, 1.000000000000000000 ) ) ;
#677 = ORIENTED_EDGE ( 'NONE', *, *, #579, .F. ) ;
#678 = VERTEX_POINT ( 'NONE', #401 ) ;
#679 = DIRECTION ( 'NONE',  ( 0.000000000000000000, -0.000000000000000000, 1.000000000000000000 ) ) ;
#680 = ORIENTED_EDGE ( 'NONE', *, *, #557, .F. ) ;
#681 = CARTESIAN_POINT ( 'NONE',  ( 52.57000000000000739, 5.430000000000100968, 0.000000000000000000 ) ) ;
#682 = DIRECTION ( 'NONE',  ( -0.000000000000000000, -0.000000000000000000, 1.000000000000000000 ) ) ;
#683 = CARTESIAN_POINT ( 'NONE',  ( 54.99999999999998579, 0.000000000000000000, 0.000000000000000000 ) ) ;
#684 = EDGE_LOOP ( 'NONE', ( #343, #611, #264, #560 ) ) ;
#685 = EDGE_CURVE ( 'NONE', #649, #626, #337, .T. ) ;
#686 = VECTOR ( 'NONE', #202, 1000.000000000000000 ) ;
#687 = PRODUCT_DEFINITION_FORMATION_WITH_SPECIFIED_SOURCE ( 'ÈÎºÎ', '', #609, .NOT_KNOWN. ) ;
#688 = DIRECTION ( 'NONE',  ( 1.000000000000000000, 0.000000000000000000, 0.000000000000000000 ) ) ;
#689 = FACE_OUTER_BOUND ( 'NONE', #165, .T. ) ;
#690 = VERTEX_POINT ( 'NONE', #34 ) ;
#691 = EDGE_CURVE ( 'NONE', #497, #249, #775, .T. ) ;
#692 = CARTESIAN_POINT ( 'NONE',  ( 2.924999999999989164, 52.57000000000000739, 0.000000000000000000 ) ) ;
#693 = ORIENTED_EDGE ( 'NONE', *, *, #796, .F. ) ;
#694 = AXIS2_PLACEMENT_3D ( 'NONE', #387, #563, #620 ) ;
#695 = CARTESIAN_POINT ( 'NONE',  ( 50.06500000000000483, 52.57000000000009976, 0.000000000000000000 ) ) ;
#696 = AXIS2_PLACEMENT_3D ( 'NONE', #30, #222, #26 ) ;
#697 = DIRECTION ( 'NONE',  ( 1.000000000000000000, 0.000000000000000000, 0.000000000000000000 ) ) ;
#698 = PLANE ( 'NONE',  #525 ) ;
#699 = EDGE_CURVE ( 'NONE', #395, #302, #7, .T. ) ;
#700 = AXIS2_PLACEMENT_3D ( 'NONE', #328, #444, #433 ) ;
#701 = DIRECTION ( 'NONE',  ( 0.000000000000000000, 0.000000000000000000, 1.000000000000000000 ) ) ;
#702 = COLOUR_RGB ( '',1.000000000000000000, 1.000000000000000000, 1.000000000000000000 ) ;
#703 = ORIENTED_EDGE ( 'NONE', *, *, #185, .T. ) ;
#704 = APPLICATION_CONTEXT ( 'automotive_design' ) ;
#705 = FILL_AREA_STYLE ('',( #49 ) ) ;
#706 = DIRECTION ( 'NONE',  ( 0.000000000000000000, 0.000000000000000000, 1.000000000000000000 ) ) ;
#707 = DIRECTION ( 'NONE',  ( -1.000000000000000000, 0.000000000000000000, -0.000000000000000000 ) ) ;
#708 = DIRECTION ( 'NONE',  ( 1.196361017915039486E-16, -1.000000000000000000, 0.000000000000000000 ) ) ;
#709 = ORIENTED_EDGE ( 'NONE', *, *, #603, .T. ) ;
#710 = CARTESIAN_POINT ( 'NONE',  ( 52.57000000000000739, 5.430000000000100968, 30.00000000000000000 ) ) ;
#711 = LINE ( 'NONE', #220, #662 ) ;
#712 = CARTESIAN_POINT ( 'NONE',  ( 7.934999999999990727, 52.57000000000000739, 30.00000000000000000 ) ) ;
#713 = VERTEX_POINT ( 'NONE', #346 ) ;
#714 = EDGE_CURVE ( 'NONE', #755, #311, #711, .T. ) ;
#715 = AXIS2_PLACEMENT_3D ( 'NONE', #761, #212, #697 ) ;
#716 = EDGE_LOOP ( 'NONE', ( #548, #410 ) ) ;
#717 = EDGE_CURVE ( 'NONE', #690, #370, #322, .T. ) ;
#718 = DIRECTION ( 'NONE',  ( 1.000000000000000000, 0.000000000000000000, 0.000000000000000000 ) ) ;
#719 = VECTOR ( 'NONE', #176, 1000.000000000000000 ) ;
#720 =( NAMED_UNIT ( * ) PLANE_ANGLE_UNIT ( ) SI_UNIT ( $, .RADIAN. ) );
#721 = DIRECTION ( 'NONE',  ( -0.000000000000000000, -0.000000000000000000, 1.000000000000000000 ) ) ;
#722 = EDGE_LOOP ( 'NONE', ( #122, #207, #561, #171 ) ) ;
#723 = CARTESIAN_POINT ( 'NONE',  ( 2.999999999999993339, 55.00000000000000000, 30.00000000000000000 ) ) ;
#724 = CIRCLE ( 'NONE', #554, 3.000000000000000000 ) ;
#725 = DIRECTION ( 'NONE',  ( 1.000000000000000000, 0.000000000000000000, 0.000000000000000000 ) ) ;
#726 = ORIENTED_EDGE ( 'NONE', *, *, #457, .F. ) ;
#727 = PRODUCT_DEFINITION_SHAPE ( 'NONE', 'NONE',  #319 ) ;
#728 = DIRECTION ( 'NONE',  ( -0.000000000000000000, -0.000000000000000000, 1.000000000000000000 ) ) ;
#729 = ADVANCED_FACE ( 'NONE', ( #456 ), #452, .F. ) ;
#730 = DIRECTION ( 'NONE',  ( 1.000000000000000000, 0.000000000000000000, 0.000000000000000000 ) ) ;
#731 = EDGE_LOOP ( 'NONE', ( #189, #500 ) ) ;
#732 = VECTOR ( 'NONE', #679, 1000.000000000000000 ) ;
#733 = PRESENTATION_LAYER_ASSIGNMENT (  '', '', ( #489 ) ) ;
#734 = CYLINDRICAL_SURFACE ( 'NONE', #492, 3.000000000000002665 ) ;
#735 = CARTESIAN_POINT ( 'NONE',  ( 52.57000000000000739, 52.57000000000009976, 0.000000000000000000 ) ) ;
#736 = VERTEX_POINT ( 'NONE', #155 ) ;
#737 = DIRECTION ( 'NONE',  ( 0.000000000000000000, 0.000000000000000000, 1.000000000000000000 ) ) ;
#738 = VERTEX_POINT ( 'NONE', #577 ) ;
#739 = EDGE_CURVE ( 'NONE', #795, #347, #622, .T. ) ;
#740 = CYLINDRICAL_SURFACE ( 'NONE', #631, 2.505000000000000338 ) ;
#741 = DIRECTION ( 'NONE',  ( 1.000000000000000000, 0.000000000000000000, 0.000000000000000000 ) ) ;
#742 = ORIENTED_EDGE ( 'NONE', *, *, #137, .T. ) ;
#743 = VECTOR ( 'NONE', #149, 1000.000000000000000 ) ;
#744 = CARTESIAN_POINT ( 'NONE',  ( 55.07500000000000284, 5.430000000000100968, 30.00000000000000000 ) ) ;
#745 = CARTESIAN_POINT ( 'NONE',  ( 24.99500000000000099, 29.00000000000000000, 15.00000000000000000 ) ) ;
#746 = DIRECTION ( 'NONE',  ( 1.000000000000000000, 0.000000000000000000, -0.000000000000000000 ) ) ;
#747 = ORIENTED_EDGE ( 'NONE', *, *, #363, .F. ) ;
#748 = ORIENTED_EDGE ( 'NONE', *, *, #566, .F. ) ;
#749 = ADVANCED_FACE ( 'NONE', ( #341 ), #297, .F. ) ;
#750 = DIRECTION ( 'NONE',  ( -1.000000000000000000, 0.000000000000000000, 0.000000000000000000 ) ) ;
#751 = PLANE ( 'NONE',  #694 ) ;
#752 = VERTEX_POINT ( 'NONE', #638 ) ;
#753 = LINE ( 'NONE', #145, #686 ) ;
#754 = CYLINDRICAL_SURFACE ( 'NONE', #447, 2.505000000000000338 ) ;
#755 = VERTEX_POINT ( 'NONE', #450 ) ;
#756 = ORIENTED_EDGE ( 'NONE', *, *, #416, .F. ) ;
#757 = AXIS2_PLACEMENT_3D ( 'NONE', #257, #605, #424 ) ;
#758 = CARTESIAN_POINT ( 'NONE',  ( 0.000000000000000000, 0.000000000000000000, 30.00000000000000000 ) ) ;
#759 = ORIENTED_EDGE ( 'NONE', *, *, #382, .T. ) ;
#760 = LINE ( 'NONE', #275, #356 ) ;
#761 = CARTESIAN_POINT ( 'NONE',  ( 5.429999999999990834, 5.430000000000000604, 0.000000000000000000 ) ) ;
#762 = VERTEX_POINT ( 'NONE', #108 ) ;
#763 = EDGE_CURVE ( 'NONE', #556, #316, #144, .T. ) ;
#764 = VECTOR ( 'NONE', #667, 1000.000000000000000 ) ;
#765 = LINE ( 'NONE', #640, #367 ) ;
#766 = CARTESIAN_POINT ( 'NONE',  ( 58.00000000000000000, 0.000000000000000000, 30.00000000000000000 ) ) ;
#767 = EDGE_LOOP ( 'NONE', ( #95, #536, #62, #779 ) ) ;
#768 = ADVANCED_FACE ( 'NONE', ( #46 ), #572, .F. ) ;
#769 = DIRECTION ( 'NONE',  ( -1.000000000000000000, 0.000000000000000000, 0.000000000000000000 ) ) ;
#770 = AXIS2_PLACEMENT_3D ( 'NONE', #309, #490, #61 ) ;
#771 = LINE ( 'NONE', #163, #56 ) ;
#772 = DIRECTION ( 'NONE',  ( 1.000000000000000000, 0.000000000000000000, 0.000000000000000000 ) ) ;
#773 = VERTEX_POINT ( 'NONE', #25 ) ;
#774 = CARTESIAN_POINT ( 'NONE',  ( 58.00000000000000000, 3.000000000000000000, 0.000000000000000000 ) ) ;
#775 = LINE ( 'NONE', #94, #360 ) ;
#776 = EDGE_CURVE ( 'NONE', #497, #374, #592, .T. ) ;
#777 = ORIENTED_EDGE ( 'NONE', *, *, #482, .F. ) ;
#778 = COLOUR_RGB ( '',1.000000000000000000, 1.000000000000000000, 1.000000000000000000 ) ;
#779 = ORIENTED_EDGE ( 'NONE', *, *, #579, .T. ) ;
#780 = DIRECTION ( 'NONE',  ( -0.000000000000000000, -0.000000000000000000, 1.000000000000000000 ) ) ;
#781 = VECTOR ( 'NONE', #1, 1000.000000000000000 ) ;
#782 = CARTESIAN_POINT ( 'NONE',  ( 29.00000000000000000, 29.00000000000000000, 15.00000000000000000 ) ) ;
#783 = ORIENTED_EDGE ( 'NONE', *, *, #3, .T. ) ;
#784 = CARTESIAN_POINT ( 'NONE',  ( 55.00000000000000000, 2.999999999999999556, 30.00000000000000000 ) ) ;
#785 = DIRECTION ( 'NONE',  ( 1.000000000000000000, 0.000000000000000000, 0.000000000000000000 ) ) ;
#786 = ORIENTED_EDGE ( 'NONE', *, *, #3, .F. ) ;
#787 = EDGE_CURVE ( 'NONE', #347, #598, #467, .T. ) ;
#788 = CARTESIAN_POINT ( 'NONE',  ( 58.00000000000000000, 0.000000000000000000, 0.000000000000000000 ) ) ;
#789 = DIRECTION ( 'NONE',  ( 1.000000000000000000, 0.000000000000000000, 0.000000000000000000 ) ) ;
#790 = ORIENTED_EDGE ( 'NONE', *, *, #787, .T. ) ;
#791 = LINE ( 'NONE', #654, #764 ) ;
#792 = FACE_OUTER_BOUND ( 'NONE', #274, .T. ) ;
#793 = PRODUCT_CONTEXT ( 'NONE', #538, 'mechanical' ) ;
#794 = FACE_BOUND ( 'NONE', #70, .T. ) ;
#795 = VERTEX_POINT ( 'NONE', #217 ) ;
#796 = EDGE_CURVE ( 'NONE', #795, #114, #170, .T. ) ;
#797 = DIRECTION ( 'NONE',  ( -0.000000000000000000, -0.000000000000000000, 1.000000000000000000 ) ) ;
#798 = EDGE_LOOP ( 'NONE', ( #673, #441 ) ) ;
ENDSEC;
END-ISO-10303-21;
